<?xml version="1.0" standalone="no"?>
<!DOCTYPE svg PUBLIC "-//W3C//DTD SVG 1.1//EN" "http://www.w3.org/Graphics/SVG/1.1/DTD/svg11.dtd" >
<svg xmlns="http://www.w3.org/2000/svg">
<metadata></metadata>
<defs>
<font id="basilregular" horiz-adv-x="1212" >
<font-face units-per-em="2048" ascent="1638" descent="-410" />
<missing-glyph horiz-adv-x="397" />
<glyph unicode="ff" horiz-adv-x="1384" d="M88 0l10 102l140 27v676l-150 26l10 111h170v12l-30 52q-9 27 -9 88q0 139 90.5 228t241.5 89q102 0 172 -20l-10 -115q-166 0 -258 -25q-53 -74 -53 -239v-70h497v12l-30 52q-9 41 -9 79q0 146 90.5 236t258.5 90q115 0 194 -31l-10 -104q-191 0 -299 -27 q-51 -68 -51 -239v-68h260l-10 -143h-238v-670l172 -27l-10 -102h-543l10 102l180 27v676h-448v-805h-338z" />
<glyph unicode="fi" horiz-adv-x="1253" d="M88 0l10 102l140 27v676l-150 26l10 111h166v12l-35 56q-6 27 -6 80q0 143 80.5 232t224.5 89q101 0 174 -31v-104q-162 0 -245 -25q-51 -68 -51 -239v-70h309l297 23l30 -154v-682l150 -27l-10 -102h-492l10 102l152 27v676h-426v-805h-338zM844 1106v221l194 16v-223z " />
<glyph unicode="fl" horiz-adv-x="1271" d="M88 0l10 102l140 27v676l-150 26l10 111h170v12l-30 52q-9 27 -9 92q0 135 88 223q90 90 244 90q111 0 223 -31l242 23l27 -150v-1124l149 -27l-10 -102h-498l11 102l159 27v1120q-109 25 -211 25q-116 0 -186 -25q-51 -66 -51 -239v-68h213l-11 -143h-192v-799h-338z " />
<glyph unicode="ffi" horiz-adv-x="1896" d="M88 0l10 102l140 27v676l-150 26l10 111h166v12l-35 56q-6 27 -6 80q0 144 82 232.5t230 88.5q108 0 184 -31l-10 -104q-170 0 -256 -25q-52 -70 -52 -239v-70h502v12l-35 56q-8 21 -8 80q0 143 79.5 232t219.5 89q97 0 176 -31v-104q-160 0 -243 -25q-52 -70 -52 -239 v-70h312l303 23l28 -154v-682l150 -27l-10 -102h-488l11 102l153 27v676h-446v-805h-348l10 102l153 27v676h-446v-805h-334zM1483 1106v221l194 16v-223z" />
<glyph unicode="ffl" horiz-adv-x="1900" d="M88 0l10 102l140 27v676l-150 26l10 111h170v12l-30 52q-9 27 -9 92q0 135 88 223q90 90 244 90q93 0 166 -20l-10 -115q-164 0 -256 -25q-51 -68 -51 -239v-70h493v12l-33 52q-8 36 -8 84q0 144 92 232.5t260 88.5q92 0 201 -31l242 23l26 -150v-1124l150 -27l-10 -102 h-508l10 102l174 27v1120q-113 25 -217 25q-118 0 -188 -25q-52 -67 -52 -239v-68h209l-10 -143h-188v-799h-369l10 102l174 27v676h-446v-805h-334z" />
<glyph unicode="fj" horiz-adv-x="1206" d="M88 0l10 102l140 27v676l-150 26l10 111h166v12l-35 56q-6 27 -6 80q0 144 77.5 232.5t219.5 88.5q109 0 182 -31v-104q-162 0 -245 -25q-51 -68 -51 -239v-70h301l297 23l38 -174v-762q0 -386 -372 -416l-25 22l8 107q199 30 199 258v805h-426v-676l174 -27l-10 -102 h-502zM844 1106v221l194 16v-223z" />
<glyph unicode="ffj" horiz-adv-x="1847" d="M88 0l10 102l140 27v676l-150 26l10 111h166v12l-35 56q-6 27 -6 80q0 144 82 232.5t230 88.5q108 0 184 -31l-10 -104q-170 0 -256 -25q-52 -70 -52 -239v-70h502v12l-35 56q-8 21 -8 80q0 143 79.5 232t219.5 89q97 0 176 -31v-104q-160 0 -243 -25q-52 -70 -52 -239 v-70h310l297 23l36 -174v-762q0 -386 -366 -416l-27 22l10 107q199 30 199 258v805h-446v-676l176 -27l-10 -102h-514l10 102l153 27v676h-446v-805h-334zM1483 1106v221l194 16v-223z" />
<glyph unicode="fk" horiz-adv-x="1853" d="M84 0l10 102l139 27v676l-149 26l10 111h172v12l-33 52q-8 36 -8 92q0 133 90 223t242 90q110 0 225 -31l246 23l23 -115v-1159l149 -27l-10 -102h-500l10 102l160 27v1120q-109 25 -211 25q-116 0 -186 -25q-51 -66 -51 -239v-68h213l-11 -143h-192v-799h-338zM1130 430 l11 94l286 291l-135 27l11 100h471l-11 -102l-121 -27l-325 -326q147 -192 346 -360l131 -25l-10 -102h-258q-230 194 -396 430z" />
<glyph unicode="ffk" horiz-adv-x="2484" d="M84 0l10 102l139 27v676l-149 26l10 111h172v12l-33 52q-8 36 -8 92q0 133 90 223t242 90q96 0 166 -20l-10 -115q-164 0 -256 -25q-51 -68 -51 -239v-70h493v12l-33 52q-6 30 -6 84q0 145 90.5 233t261.5 88q94 0 199 -31l244 23l24 -115v-1159l150 -27l-10 -102h-508 l10 102l174 27v1120q-113 25 -215 25q-117 0 -190 -25q-52 -70 -52 -239v-68h209l-10 -143h-186v-799h-369l10 102l172 27v676h-444v-805h-336zM1761 430l11 94l288 291l-137 27l10 100h473l-10 -102l-123 -27l-323 -326q146 -195 344 -360l133 -25l-10 -102h-260 q-230 194 -396 430z" />
<glyph unicode="fb" horiz-adv-x="1867" d="M84 0l10 102l139 27v676l-149 26l10 111h172v12l-33 52q-8 36 -8 92q0 133 90 223t242 90q110 0 225 -31l246 23l23 -115v-489h12l123 123q82 28 164 28q92 0 165.5 -30.5t120 -78.5t77.5 -112.5t43.5 -129t12.5 -130.5q0 -205 -114 -346t-303 -141q-197 0 -303 161h-13 l-22 -143h-303l10 102l139 27v1120q-109 25 -211 25q-116 0 -186 -25q-51 -66 -51 -239v-68h213l-11 -143h-192v-799h-338zM1049 291q32 -66 84 -108t111 -55.5t119.5 -7t113.5 33.5q90 143 90 317q0 151 -71 239.5t-202 88.5q-152 0 -245 -140v-368z" />
<glyph unicode="ffb" horiz-adv-x="2496" d="M84 0l10 102l139 27v676l-149 26l10 111h172v12l-33 52q-8 36 -8 92q0 133 90 223t242 90q96 0 166 -20l-10 -115q-164 0 -256 -25q-51 -68 -51 -239v-70h493v12l-33 52q-6 30 -6 84q0 145 90.5 233t261.5 88q94 0 199 -31l248 23l20 -115v-489h15l123 123q82 28 161 28 q93 0 167 -30.5t121 -78.5t78 -112.5t43.5 -129t12.5 -130.5q0 -202 -114 -346q-114 -141 -304 -141q-197 0 -303 161h-14l-23 -143h-296l10 102l139 27v1120q-113 25 -215 25q-117 0 -190 -25q-52 -70 -52 -239v-68h209l-10 -143h-186v-799h-369l10 102l172 27v676h-444 v-805h-336zM1679 291q42 -86 117 -130t160 -44q78 0 151 37q91 139 91 317q0 152 -70 240t-201 88q-152 0 -248 -140v-368z" />
<glyph unicode="fh" horiz-adv-x="1888" d="M84 0l10 102l139 27v676l-149 26l10 111h172v12l-33 52q-8 36 -8 92q0 133 90 223t242 90q110 0 225 -31l246 23l23 -115v-512h12l119 144q73 28 157 28q338 0 338 -362v-457l150 -27l-10 -102h-328v551q0 244 -203 244q-148 0 -235 -152v-514l155 -27l-10 -102h-485 l10 102l139 27v1120q-109 25 -211 25q-116 0 -186 -25q-51 -66 -51 -239v-68h213l-11 -143h-192v-799h-338z" />
<glyph unicode="ffh" horiz-adv-x="2519" d="M84 0l10 102l139 27v676l-149 26l10 111h172v12l-33 52q-8 36 -8 92q0 133 90 223t242 90q96 0 166 -20l-10 -115q-164 0 -256 -25q-51 -68 -51 -239v-70h493v12l-33 52q-6 30 -6 84q0 145 90.5 233t261.5 88q94 0 199 -31l248 23l20 -115v-512h15l116 144q79 28 158 28 q340 0 340 -362v-457l150 -27l-11 -102h-329v551q0 244 -203 244q-146 0 -236 -152v-514l158 -27l-10 -102h-481l10 102l139 27v1120q-113 25 -215 25q-117 0 -190 -25q-52 -70 -52 -239v-68h209l-10 -143h-186v-799h-369l10 102l172 27v676h-444v-805h-336z" />
<glyph unicode=" "  horiz-adv-x="397" />
<glyph unicode="&#x09;" horiz-adv-x="397" />
<glyph unicode="&#xa0;" horiz-adv-x="397" />
<glyph unicode="!" horiz-adv-x="518" d="M141 0l15 201h200l-14 -201h-201zM160 952l24 428h195l-66 -1015h-125z" />
<glyph unicode="&#x22;" horiz-adv-x="688" d="M129 1380h147l7 -47l-27 -358l-102 -14zM403 1380h156l-29 -405l-102 -14z" />
<glyph unicode="#" horiz-adv-x="1118" d="M100 375l15 125h157l41 264h-163l16 125h166l33 213h143l-33 -213h244l33 213h141l-33 -213h158l-17 -125h-159l-39 -264h166l-17 -125h-168l-32 -213h-144l33 213h-244l-30 -213h-146l33 213h-154zM416 500h243l39 264h-241z" />
<glyph unicode="$" horiz-adv-x="1050" d="M92 860q0 179 160 262q78 38 186 47l-16 213l180 15l-22 -228q161 -9 307 -69l-23 -260l-135 -13l-16 179q-106 34 -209 35t-176 -29q-43 -49 -43 -121q0 -63 41 -107q40 -43 80 -61q61 -23 151 -53l35 -13q101 -33 151 -54.5t103 -59.5q110 -74 110 -234 q0 -192 -161 -270q-87 -46 -209 -55l18 -213l-180 -15l20 226q-178 6 -323 77l24 289l136 12l14 -206q84 -41 215 -41q111 0 203 28q49 61 49 150q0 50 -17.5 82t-62.5 57q-47 27 -84 41q-73 29 -123 45l-98 33q-125 48 -170 82q-56 47 -85.5 99.5t-29.5 129.5z" />
<glyph unicode="%" horiz-adv-x="1574" d="M76 971q0 165 75.5 263.5t219.5 98.5q145 0 221 -99t76 -263q0 -166 -76.5 -268.5t-220.5 -102.5t-219.5 102t-75.5 269zM242 975q0 -266 141 -266q50 0 82 16q37 73 37 236q0 264 -144 264q-48 0 -79 -17q-37 -70 -37 -233zM319 -33l781 1374l125 19l22 -19l-778 -1374 l-125 -18zM907 346q0 156 72 260q74 103 223 103t223 -103t74 -260q0 -155 -74 -264q-73 -105 -223 -105t-223 105q-72 110 -72 264zM1073 352q0 -266 141 -266q52 0 84 14q35 78 35 238q0 262 -143 262q-51 0 -80 -16q-37 -67 -37 -232z" />
<glyph unicode="&#x26;" horiz-adv-x="1445" d="M104 365q0 231 238 358v12q-160 136 -160 303q0 154 131 224q133 71 305 71q204 0 396 -73l-21 -299l-135 -11l-27 215q-91 27 -206 27q-133 0 -207 -27q-39 -56 -39 -129q0 -114 158 -266l454 -424h13q67 119 67 289l-131 29l10 104h430l-10 -109l-137 -28 q0 -228 -119 -402l100 -92l152 -28l-8 -109h-254l-107 100q-156 -123 -387 -123q-219 0 -362 101q-144 102 -144 287zM301 381q0 -128 96 -197q98 -67 238 -67q153 0 256 86l-436 426q-154 -89 -154 -248z" />
<glyph unicode="'" horiz-adv-x="413" d="M129 1380h156l-29 -405l-102 -14z" />
<glyph unicode="(" horiz-adv-x="643" d="M174 596q0 160 33.5 309.5t89.5 257.5q99 191 188 277l82 -54v-40q-72 -87 -143 -287q-70 -195 -70 -463q0 -266 70 -461q73 -201 143 -285v-38l-82 -58q-89 86 -188 277q-56 107 -89.5 257.5t-33.5 307.5z" />
<glyph unicode=")" horiz-adv-x="643" d="M76 -150q74 88 141 285q70 195 70 461q0 268 -70 463q-67 198 -141 287v40l82 54q89 -86 188 -277q56 -108 89.5 -257.5t33.5 -309.5q0 -157 -33.5 -307.5t-89.5 -257.5q-99 -191 -188 -277l-82 58v38z" />
<glyph unicode="*" horiz-adv-x="907" d="M125 1016l51 149l217 -102l10 8l-26 238h158l-31 -240l10 -8l217 102l49 -151l-237 -43l-6 -15l165 -176l-127 -94l-118 215h-15l-114 -211l-129 92l168 174l-7 15z" />
<glyph unicode="+" horiz-adv-x="1122" d="M121 608l12 127h365v363h127v-363h379l-15 -127h-364v-364h-127v364h-377z" />
<glyph unicode="," horiz-adv-x="464" d="M92 -219q78 66 78 151q0 70 -61 97l10 178h176q45 -45 45 -150q0 -108 -61 -196q-59 -88 -140 -131z" />
<glyph unicode="-" horiz-adv-x="952" d="M125 594l80 141h483l119 23l20 -27l-79 -143h-484l-119 -23z" />
<glyph unicode="." horiz-adv-x="444" d="M92 0l14 207h213l-14 -207h-213z" />
<glyph unicode="/" horiz-adv-x="784" d="M45 -72l535 1524l137 18l22 -18l-534 -1524l-137 -18z" />
<glyph unicode="0" horiz-adv-x="1255" d="M102 655q0 104 17.5 199t57.5 183.5t99 153.5t148.5 103.5t200.5 38.5q250 0 389 -177.5t139 -493.5q0 -272 -117 -467q-58 -102 -164 -160t-243 -58q-250 0 -389 183q-138 184 -138 495zM311 657q0 -237 82 -389q83 -151 250 -151q99 0 193 55q108 182 108 481 q0 222 -84 381q-84 158 -246 158q-112 0 -188 -49q-115 -186 -115 -486z" />
<glyph unicode="1" horiz-adv-x="835" d="M55 1040l357 269h131v-1168l211 -37l-11 -104h-620l10 104l217 37v791l29 121l-4 12l-264 -115z" />
<glyph unicode="2" horiz-adv-x="1073" d="M57 119q243 180 439 397q107 120 168 240.5t61 222.5q0 213 -252 213q-122 0 -203 -35l-26 -205l-140 -14l-24 313q195 82 420 82q206 0 326 -83.5t120 -248.5q0 -153 -104 -321q-98 -158 -229.5 -284t-305.5 -244l6 -15h490l28 199l140 16l24 -352h-929z" />
<glyph unicode="3" horiz-adv-x="1052" d="M59 1260q192 73 414 73q213 0 332 -85t119 -249q0 -231 -215 -284v-13q113 -27 178 -114.5t65 -229.5q0 -181 -123.5 -281t-355.5 -100q-200 0 -371 58l9 153l526 -67q113 82 113 241q0 246 -365 246h-61l14 148l324 28q65 71 65 187q0 221 -260 221q-131 0 -219 -27 l-27 -213l-137 -14z" />
<glyph unicode="4" horiz-adv-x="1210" d="M61 424q119 125 252 412q136 294 162 473h201q-20 -163 -150 -426q-127 -257 -258 -434l8 -11h451v207l59 232h119v-439h219l-10 -125h-209v-180l187 -29l-11 -104h-569l10 104l197 29v180h-649z" />
<glyph unicode="5" horiz-adv-x="1021" d="M61 35l11 155l506 -69q139 83 139 268q0 248 -352 248h-267l39 672h756l-29 -351l-139 -16l-25 221h-401l-23 -387l175 10q223 0 346 -98t123 -287q0 -201 -127.5 -312.5t-368.5 -111.5q-198 0 -363 58z" />
<glyph unicode="6" horiz-adv-x="1124" d="M102 571q0 295 154 502q156 206 453 240l190 20l-14 -168l-365 -37q-105 -79 -161 -220.5t-56 -321.5q0 -215 79.5 -342t229.5 -127q83 0 148 33q74 109 74 266q0 276 -279 276q-76 0 -152 -20l-16 14l14 86q95 62 238 62q168 0 283 -103q112 -100 112 -303 q0 -212 -129 -332q-125 -119 -327 -119q-238 0 -357 168t-119 426z" />
<glyph unicode="7" horiz-adv-x="1089" d="M53 1309h973l8 -131q-205 -239 -327 -570q-117 -322 -129 -608h-199q9 283 127 600q119 321 317 553l-6 10h-569l-31 -209l-143 -16z" />
<glyph unicode="8" horiz-adv-x="1159" d="M102 342q0 208 215 358v13q-97 57 -142.5 124t-45.5 167q0 74 28 132.5t72.5 95t106 60t122.5 32.5t128 9q184 0 309 -73t125 -238q0 -189 -191 -336v-12q116 -58 173 -136t57 -196q0 -182 -133 -274q-136 -91 -338 -91q-206 0 -348 91q-138 88 -138 274zM299 352 q0 -114 84.5 -174.5t218.5 -60.5q113 0 186 33q66 72 66 172q12 93 -96 182q-23 23 -70 43l-70 33q-42 18 -83 32l-76 29q-160 -145 -160 -289zM326 1026q0 -51 26 -96q5 -6 18 -23t23.5 -27.5t28.5 -21.5q54 -30 100 -51l56 -23l61 -22l61 -23q131 143 131 279 q0 96 -60 139t-189 43q-128 0 -199 -26q-57 -75 -57 -148z" />
<glyph unicode="9" horiz-adv-x="1124" d="M90 879q0 214 133 335q134 119 344 119q229 0 342 -145.5t113 -409.5q0 -112 -19.5 -216.5t-64 -203.5t-110 -174.5t-165.5 -126t-223 -61.5l-209 -19l15 168l358 33q103 79 160 238.5t57 359.5q0 416 -286 416q-88 0 -164 -31q-80 -103 -80 -268q0 -151 75 -223t205 -72 q75 0 152 23l16 -17l-16 -88q-95 -59 -236 -59q-170 0 -284 108q-113 110 -113 314z" />
<glyph unicode=":" horiz-adv-x="477" d="M125 0l14 207h213l-14 -207h-213zM125 762l14 207h213l-14 -207h-213z" />
<glyph unicode=";" horiz-adv-x="464" d="M92 -219q78 66 78 151q0 70 -61 97l10 178h176q45 -45 45 -150q0 -108 -61 -196q-59 -88 -140 -131zM106 762l15 207h213l-15 -207h-213z" />
<glyph unicode="&#x3c;" horiz-adv-x="1101" d="M88 608l12 123l832 334l49 -98l-721 -291v-14l723 -300l-51 -116z" />
<glyph unicode="=" horiz-adv-x="1165" d="M121 436l12 127h914l-15 -127h-911zM121 778l12 127h914l-15 -127h-911z" />
<glyph unicode="&#x3e;" horiz-adv-x="1101" d="M121 362l721 300v14l-721 291l49 98l846 -334l-15 -123l-831 -362z" />
<glyph unicode="?" horiz-adv-x="925" d="M100 1321q185 78 387 78q387 0 387 -281q0 -80 -36 -153q-35 -75 -62 -105l-102 -112q-100 -106 -145.5 -196t-45.5 -208h-118l-9 29q0 244 168 442l35 41q39 47 64 86q26 36 35 66t14 84q0 170 -209 170q-90 0 -182 -29l-27 -186l-133 -13zM315 0l15 201h200l-14 -201 h-201z" />
<glyph unicode="@" horiz-adv-x="1687" d="M145 375q0 345 203 545q190 184 508 184q331 0 508.5 -195.5t177.5 -552.5q0 -204 -55 -356h-443l-16 113h-10l-96 -109q-52 -18 -125 -18q-124 0 -193 62t-69 171q0 58 23 103.5t58 72.5q36 25 89 37q84 21 186 21h131q0 112 -38.5 160.5t-133.5 48.5q-84 0 -139 -25 l-17 -117l-106 -10l-17 186q157 68 293 68q297 0 297 -289v-375l193 21q28 124 28 233q0 186 -51 320q-53 145 -179.5 231t-309.5 86q-249 0 -432 -151q-103 -177 -103 -447q0 -168 52 -300t141 -206q169 -141 377 -141q113 0 227 41t192 113l60 -64q-77 -96 -214.5 -148.5 t-291.5 -52.5q-109 0 -210.5 28t-191.5 88t-157.5 146t-106.5 209t-39 269zM674 236q0 -62 41 -105t108 -43q135 0 199 135v133h-123q-135 0 -199 -18q-26 -36 -26 -102z" />
<glyph unicode="A" horiz-adv-x="1519" d="M20 0l11 113l116 28l435 1098l-195 31l10 110h502l473 -1239l125 -28l-10 -113h-545l10 113l205 28l-104 277h-607l-108 -277l217 -28l-10 -113h-525zM500 553h501l-239 659h-12z" />
<glyph unicode="B" horiz-adv-x="1400" d="M76 0l10 113l162 28v1098l-172 31l10 110h698q209 0 342 -77q134 -78 134 -259q0 -114 -56.5 -198t-152.5 -123v-14q245 -70 245 -336q0 -174 -112 -267q-124 -106 -451 -106h-657zM455 141h215q243 0 362 35q47 77 47 207q0 254 -317 254h-217l10 129h113q205 0 315 39 q66 69 66 201q0 134 -84.5 183.5t-272.5 49.5h-237v-1098z" />
<glyph unicode="C" horiz-adv-x="1390" d="M119 696q0 420 280 602q163 105 402 105q242 0 454 -96l-12 -408l-143 -14l-37 325q-103 50 -270 50q-153 0 -295 -60q-74 -80 -119 -217.5t-45 -284.5q0 -258 135 -422q138 -159 346 -159q106 0 215.5 42t186.5 115l73 -86q-83 -103 -218.5 -157t-295.5 -54 q-301 0 -479 193t-178 526z" />
<glyph unicode="D" horiz-adv-x="1536" d="M76 0l12 113l160 28v1098l-172 31l12 110h596q124 0 232.5 -23t204.5 -75t164 -130.5t107.5 -195.5t39.5 -264q0 -198 -69.5 -347t-193.5 -236q-165 -109 -448 -109h-645zM459 141h178q233 0 410 47q161 182 161 502q0 268 -147 408.5t-416 140.5h-186v-1098z" />
<glyph unicode="E" horiz-adv-x="1341" d="M76 0l10 113l162 28v1098l-172 31l10 110h1137l-15 -426l-137 -16l-37 301h-579v-483h299l-11 153l164 11l-16 -490l-111 -10l-20 198h-305v-477h596l36 308l140 14l14 -463h-1165z" />
<glyph unicode="F" horiz-adv-x="1286" d="M76 0l10 113l162 28v1098l-172 31l10 110h1124l-14 -428l-141 -14l-39 301h-561v-496h297l-11 154l164 10l-14 -485l-111 -8l-20 190h-305v-463l239 -28l-10 -113h-608z" />
<glyph unicode="G" horiz-adv-x="1492" d="M119 696q0 208 73.5 362t210.5 240q169 105 402 105q246 0 467 -96l-15 -400l-141 -14l-39 315q-107 52 -272 52q-158 0 -303 -62q-168 -189 -168 -504q0 -256 123 -415q127 -160 354 -160q156 0 291 63v332l-340 31l12 112h651l-10 -110l-133 -33v-381 q-190 -156 -485 -156q-329 0 -504 193q-174 192 -174 526z" />
<glyph unicode="H" horiz-adv-x="1603" d="M76 0l10 113l162 28v1098l-172 31l10 110h582l-11 -110l-198 -31v-471h686v471l-207 31l10 110h580l-10 -110l-162 -31v-1098l172 -28l-10 -113h-580l10 113l197 28v482h-686v-482l209 -28l-11 -113h-581z" />
<glyph unicode="I" horiz-adv-x="708" d="M76 0l10 113l162 28v1098l-172 31l10 110h545l-10 -110l-162 -31v-1098l172 -28l-10 -113h-545z" />
<glyph unicode="J" horiz-adv-x="747" d="M43 -303l10 110q146 56 217 130q31 102 31 307v995l-180 31l10 110h539l-11 -110l-147 -31v-971q0 -294 -141 -432q-97 -106 -305 -162z" />
<glyph unicode="K" horiz-adv-x="1486" d="M76 0l10 113l162 28v1098l-172 31l10 110h541l-11 -110l-157 -31v-1098l184 -28l-12 -113h-555zM543 643l10 105l475 491l-162 31l13 110h557l-13 -110l-159 -31l-510 -526q229 -307 528 -572l170 -28l-10 -113h-320q-334 302 -579 643z" />
<glyph unicode="L" horiz-adv-x="1253" d="M76 0l10 113l162 28v1098l-172 29l10 112h588l-12 -112l-203 -29v-1098h522l39 308l143 14l13 -463h-1100z" />
<glyph unicode="M" horiz-adv-x="2013" d="M53 0l10 113l168 28l80 1098l-190 31l10 110h502l360 -1179h11l374 1179h506l-10 -110l-180 -31l86 -1098l180 -28l-10 -113h-570l11 109l188 28l-72 1049h-12l-371 -1186h-268l-358 1182h-11l-77 -1045l202 -28l-12 -109h-547z" />
<glyph unicode="N" horiz-adv-x="1566" d="M66 0l10 113l162 28v1098l-172 31l10 110h375l698 -1061h12v920l-205 31l11 110h546l-10 -110l-164 -31v-1239h-196l-713 1077h-12v-936l213 -28l-10 -113h-555z" />
<glyph unicode="O" horiz-adv-x="1595" d="M119 696q0 426 284 607q156 100 394 100q321 0 501 -189q179 -188 179 -520q0 -210 -72.5 -368.5t-206.5 -245.5q-161 -103 -397 -103q-326 0 -504 193t-178 526zM344 694q0 -256 119 -418q120 -159 364 -159q134 0 271 61q72 90 112.5 226.5t40.5 283.5q0 245 -121 410 q-120 164 -360 164q-139 0 -268 -60q-158 -190 -158 -508z" />
<glyph unicode="P" horiz-adv-x="1388" d="M76 0l10 113l162 28v1098l-172 31l10 110h649q89 0 166 -12.5t149 -43t122.5 -78t81 -122t30.5 -170.5q0 -223 -156 -340q-128 -98 -337 -98h-74l-176 31l10 110h127q213 0 317 39q70 110 70 250q0 293 -375 293h-233v-1098l231 -28l-10 -113h-602z" />
<glyph unicode="Q" horiz-adv-x="1597" d="M119 696q0 426 284 607q156 100 394 100q321 0 501 -189q179 -188 179 -520q0 -210 -72.5 -368.5t-206.5 -245.5q-137 -88 -336 -100q-20 -39 -20 -95q0 -125 176 -125h117l-11 -110q-103 -35 -211 -35q-115 0 -185.5 55t-70.5 150q0 46 19 98l53 62v8 q-292 20 -451 206.5t-159 501.5zM344 694q0 -256 119 -418q120 -159 364 -159q134 0 271 61q72 90 112.5 226.5t40.5 283.5q0 245 -121 410q-120 164 -360 164q-139 0 -268 -60q-158 -190 -158 -508z" />
<glyph unicode="R" horiz-adv-x="1427" d="M76 0l10 113l162 28v1098l-172 29l10 112h592q126 0 217.5 -15t179.5 -54q95 -39 147 -124.5t52 -211.5q0 -171 -92.5 -273.5t-243.5 -130.5l-4 -10q47 -106 131 -227q82 -119 160 -193l164 -28l-13 -113h-311q-239 288 -358 553l-154 29l10 112h146q181 0 276 39 q70 101 70 225q0 281 -353 281h-245v-1098l182 -28l-10 -113h-553z" />
<glyph unicode="S" horiz-adv-x="1282" d="M119 1034q0 215 196 309q129 60 324 60q241 0 463 -86l-31 -359l-143 -14l-21 273q-136 40 -278 40q-135 0 -226 -30q-67 -82 -67 -166q0 -79 72 -143q34 -27 90 -50l100 -37q43 -14 125 -36q94 -26 151.5 -48t120.5 -57q98 -48 147.5 -124t53.5 -193q0 -227 -199 -326 q-143 -70 -383 -70q-266 0 -489 97l31 383l143 10l20 -287q127 -53 302 -53q155 0 276 39q70 70 70 182q0 86 -68 146q-25 25 -84 49q-60 28 -98 39q-35 14 -121 39q-94 29 -145 47q-64 24 -127 55q-100 52 -149.5 125t-55.5 186z" />
<glyph unicode="T" horiz-adv-x="1413" d="M76 1380h1261l-14 -428l-141 -14l-39 301h-330v-1098l213 -28l-10 -113h-629l10 113l205 28v1098h-332l-37 -287l-143 -14z" />
<glyph unicode="U" horiz-adv-x="1560" d="M76 1270l10 110h565l-10 -110l-199 -31v-686q0 -207 72 -320q74 -108 283 -108q195 0 323 94q41 121 41 348v672l-211 31l11 110h538l-10 -110l-146 -31v-672q0 -295 -129 -442q-130 -148 -444 -148q-286 0 -412.5 140.5t-126.5 435.5v686z" />
<glyph unicode="V" horiz-adv-x="1435" d="M20 1270l11 110h547l-13 -110l-207 -31l359 -1020h12l375 1020l-219 31l10 110h520l-12 -110l-109 -31l-465 -1239h-243l-445 1239z" />
<glyph unicode="W" horiz-adv-x="1941" d="M20 1270l11 110h514l-10 -110l-195 -31l213 -967h10l307 1108h217l291 -1108h13l231 967l-201 31l11 110h487l-10 -110l-109 -31l-307 -1239h-238l-280 1073h-12l-297 -1073h-240l-285 1239z" />
<glyph unicode="X" horiz-adv-x="1531" d="M43 0l10 113l117 26l459 572l-439 528l-127 31l11 110h569l-10 -104l-187 -31l330 -403l320 403l-195 31l10 104h543l-12 -110l-115 -31l-432 -537l465 -561l127 -28l-10 -113h-576l10 104l195 31l-361 436l-348 -436l205 -31l-10 -104h-549z" />
<glyph unicode="Y" horiz-adv-x="1480" d="M20 1268l11 112h555l-11 -110l-206 -33l374 -584h13l385 584l-213 33l10 110h520l-10 -112l-109 -31l-503 -739v-357l219 -28l-11 -113h-634l10 113l207 28v357l-486 739z" />
<glyph unicode="Z" horiz-adv-x="1290" d="M76 152l901 1075l-8 12h-654l-36 -311l-144 -15l-14 467h1057l36 -159l-892 -1069l10 -11h655l39 338l141 15l15 -494h-1069z" />
<glyph unicode="[" horiz-adv-x="593" d="M174 -213v1616h344l-10 -113l-160 -28v-1336l170 -26l-10 -113h-334z" />
<glyph unicode="\" horiz-adv-x="786" d="M45 1452l127 33l25 -12l542 -1545l-127 -30l-24 12z" />
<glyph unicode="]" horiz-adv-x="593" d="M76 -213l10 113l160 28v1336l-170 26l10 113h334v-1616h-344z" />
<glyph unicode="^" horiz-adv-x="897" d="M51 741v29l336 610h125l334 -612v-27h-137l-260 486h-15l-260 -486h-123z" />
<glyph unicode="_" horiz-adv-x="907" d="M0 -250l10 127h897l-10 -127h-897z" />
<glyph unicode="`" horiz-adv-x="600" d="M100 1397l133 131l269 -322l-80 -80z" />
<glyph unicode="a" horiz-adv-x="1159" d="M109 276q0 74 32 132.5t82 89.5q50 32 119 47q67 17 120.5 21.5t141.5 4.5h174q0 148 -45.5 206.5t-167.5 58.5q-146 0 -219 -33l-20 -164l-146 -14l-20 254q210 88 440 88q369 0 369 -342v-496l127 -27l-11 -102h-276l-23 143h-14l-125 -137q-73 -24 -176 -24 q-172 0 -267 78t-95 216zM305 293q0 -79 52 -130.5t147 -51.5q186 0 274 172v168h-170q-139 0 -264 -23q-39 -51 -39 -135z" />
<glyph unicode="b" horiz-adv-x="1232" d="M76 0l10 102l139 27v1122l-149 27l10 102l307 23l23 -117v-487h12l123 123q82 28 162 28q93 0 167 -30.5t121 -78.5t78 -112.5t43.5 -129t12.5 -130.5q0 -201 -115 -346q-114 -141 -303 -141q-197 0 -303 161h-13l-24 -143h-301zM416 291q41 -86 115 -130t159 -44 q79 0 154 37q88 137 88 317q0 152 -69.5 240t-200.5 88q-153 0 -246 -140v-368z" />
<glyph unicode="c" horiz-adv-x="1058" d="M98 473q0 284 195 414q122 78 291 78q191 0 356 -80l-14 -305l-135 -13l-31 230q-71 32 -185 32q-112 0 -198 -45q-78 -113 -78 -301q0 -169 88 -266.5t231 -97.5q76 0 159 27t138 71l56 -65q-111 -175 -387 -175q-229 0 -359 136q-127 136 -127 360z" />
<glyph unicode="d" horiz-adv-x="1196" d="M98 485q0 269 168 394q100 71 236 71q198 0 301 -151h12v452l-156 27l11 102l307 23l29 -152v-1122l129 -27l-11 -102h-278l-23 143h-14l-125 -137q-82 -24 -156 -24q-209 0 -321 145q-109 148 -109 358zM297 475q0 -161 72.5 -259.5t193.5 -98.5q81 0 149.5 48.5 t102.5 119.5v360q-88 166 -283 166q-80 0 -157 -41q-78 -116 -78 -295z" />
<glyph unicode="e" horiz-adv-x="1077" d="M98 473q0 272 178 404q116 88 293 88q191 0 304.5 -106t113.5 -284q0 -68 -22 -145l-672 -2q7 -148 94 -225.5t227 -77.5q167 0 283 96l53 -63q-114 -181 -379 -181q-223 0 -350 136q-123 138 -123 360zM293 545h528q-5 138 -72.5 216.5t-185.5 78.5q-111 0 -194 -45 q-67 -98 -76 -250z" />
<glyph unicode="f" horiz-adv-x="743" d="M88 0l10 102l140 27v666l-150 -11l10 158h181v12l-41 66q-7 28 -7 80q0 139 94 225t257 86q108 0 190 -31l-10 -104q-208 0 -299 -27q-51 -68 -51 -223v-84h258l-11 -121l-233 -16v-676l188 -27l-10 -102h-516z" />
<glyph unicode="g" horiz-adv-x="1175" d="M90 -109q0 126 111 197v14q-37 43 -37 105q0 115 94 203v12q-117 70 -117 223t123 236q125 84 297 84q138 0 238 -50l278 50l29 -150h-178l-6 -12q71 -77 71 -174q0 -147 -125 -223t-297 -76q-111 0 -198 35q-41 -47 -41 -111q0 -84 82 -84h284q416 0 416 -254 q0 -85 -46.5 -148t-129.5 -96q-145 -59 -350 -59q-239 0 -371 78q-127 77 -127 200zM274 -96q0 -174 320 -174q171 0 293 32q31 51 31 117q0 158 -240 158h-354q-50 -62 -50 -133zM332 649q0 -96 69 -150.5t183 -54.5q123 0 182 41q37 81 37 150q0 98 -67.5 156.5 t-184.5 58.5q-104 0 -180 -43q-39 -68 -39 -158z" />
<glyph unicode="h" horiz-adv-x="1253" d="M76 0l10 102l139 27v1122l-149 27l10 102l307 23l23 -117v-510h12l117 144q79 28 160 28q337 0 337 -362v-457l150 -27l-10 -102h-328v551q0 244 -203 244q-148 0 -235 -152v-514l155 -27l-10 -102h-485z" />
<glyph unicode="i" horiz-adv-x="636" d="M88 0l10 102l140 27v684l-150 27l10 102l297 23l31 -152v-684l149 -27l-10 -102h-477zM221 1106v221l201 16v-223z" />
<glyph unicode="j" horiz-adv-x="589" d="M63 -365l9 107q94 37 137 86q29 95 29 293v692l-150 27l10 102l295 23l35 -174v-648q0 -271 -76 -381q-71 -103 -264 -149zM211 1106v221l203 16v-223z" />
<glyph unicode="k" horiz-adv-x="1204" d="M61 0l11 102l139 27v1122l-150 27l11 102l305 23l24 -117v-1157l142 -27l-11 -102h-471zM483 430l11 94l286 291l-137 27l10 100h473l-10 -102l-123 -27l-323 -326q158 -206 344 -360l133 -25l-10 -102h-258q-230 194 -396 430z" />
<glyph unicode="l" horiz-adv-x="643" d="M88 0l10 102l140 27v1122l-150 27l10 102l299 23l29 -152v-1122l149 -27l-10 -102h-477z" />
<glyph unicode="m" horiz-adv-x="1824" d="M76 0l10 102l139 27v684l-149 27l10 102l295 23l27 -168h12l117 135q67 33 165 33q214 0 273 -170h12l119 137q67 33 172 33q336 0 336 -359v-477l149 -27l-10 -102h-330v590q0 104 -47.5 162.5t-138.5 58.5q-146 0 -229 -127q4 -46 4 -109v-446l155 -27l-10 -102h-330 v590q0 221 -176 221q-76 0 -136.5 -40.5t-98.5 -106.5v-535l155 -27l-10 -102h-485z" />
<glyph unicode="n" horiz-adv-x="1251" d="M76 0l10 102l139 27v684l-149 27l10 102l295 23l27 -172h14l123 143q85 29 174 29q172 0 245.5 -88.5t73.5 -262.5v-485l150 -27l-10 -102h-328v582q0 229 -186 229q-152 0 -248 -152v-530l155 -27l-10 -102h-485z" />
<glyph unicode="o" horiz-adv-x="1153" d="M98 471q0 277 183 410q122 84 288 84q221 0 355 -134q131 -131 131 -360q0 -281 -181 -410q-122 -84 -292 -84q-223 0 -353.5 133t-130.5 361zM299 477q0 -183 83.5 -275.5t219.5 -92.5q106 0 174 47q78 132 78 307q0 190 -88 278q-87 90 -207 90q-100 0 -180 -45 q-80 -121 -80 -309z" />
<glyph unicode="p" horiz-adv-x="1224" d="M68 -365l10 103l139 26v1049l-149 27l10 102l289 23l26 -156h15l127 117q80 22 163 22q115 0 204 -43.5t134 -118.5q90 -137 90 -313q0 -126 -45.5 -236t-128.5 -176q-101 -79 -235 -79q-187 0 -295 141h-14v-359l170 -26l-11 -103h-499zM408 272q85 -155 268 -155 q89 0 168 43q80 136 80 307q0 155 -70 243.5t-201 88.5q-157 0 -245 -123v-404z" />
<glyph unicode="q" d="M98 481q0 273 166 396q101 73 236 73q196 0 311 -151h14l23 143h289l-11 -104l-120 -25v-1049l131 -26l-11 -103h-481l10 103l160 26v345h-12l-117 -109q-82 -18 -145 -18q-216 0 -330 141q-113 140 -113 358zM297 475q0 -162 75 -260t203 -98q151 0 240 135v387 q-94 172 -283 172q-80 0 -157 -41q-78 -116 -78 -295z" />
<glyph unicode="r" horiz-adv-x="1007" d="M76 0l10 102l139 27v684l-149 27l10 102l295 23l27 -170v-41h14l113 149q112 62 258 62q74 0 147 -13l-25 -329l-135 -13l-20 195q-252 0 -344 -244v-432l180 -27l-10 -102h-510z" />
<glyph unicode="s" horiz-adv-x="1054" d="M98 690q0 148 127 219q106 56 291 56q195 0 387 -76l-26 -234l-142 -12l-22 164q-91 31 -211 31q-82 0 -176 -17q-45 -54 -45 -112q0 -68 57 -95.5t223 -54.5q153 -23 236 -55q87 -31 129.5 -86.5t48.5 -151.5q0 -140 -121 -217q-113 -72 -322 -72q-235 0 -421 82l26 250 l144 15l20 -183q90 -37 240 -37q93 0 196 25q43 52 43 115q0 69 -54 99t-204 58l-137 27q-1 0 -111 33q-68 24 -98 51q-78 70 -78 178z" />
<glyph unicode="t" horiz-adv-x="776" d="M61 784l11 158h153l35 248l129 14v-262h330l-10 -119l-320 -18v-438q0 -132 71 -194t238 -62l-10 -111q-82 -16 -156 -16q-155 0 -244 91t-89 251v379l41 75v15z" />
<glyph unicode="u" d="M39 840l10 102l297 23l31 -152v-446q0 -238 192 -238q151 0 244 152v532l-158 27l11 102l305 23l30 -152v-684l150 -27l-10 -102h-297l-23 143h-14l-123 -137q-74 -24 -164 -24q-170 0 -251 93t-81 259v479z" />
<glyph unicode="v" horiz-adv-x="1193" d="M25 840l10 102h274l289 -799h12l252 670l-170 27l10 102h467l-10 -102l-123 -27l-311 -813h-268l-299 813z" />
<glyph unicode="w" horiz-adv-x="1677" d="M25 840l10 102h274l191 -774h12l227 774h174l263 -774h10l162 645l-156 27l10 102h451l-11 -102l-122 -27l-211 -813h-242l-236 717h-12l-207 -717h-245l-209 813z" />
<glyph unicode="x" horiz-adv-x="1200" d="M51 0l10 102l121 27l299 344l-288 340l-136 27l11 102h249l299 -352l193 229l-145 27l10 96h469l-10 -102l-123 -27l-291 -338l293 -346l137 -27l-10 -102h-252l-303 360l-201 -239l145 -27l-10 -94h-467z" />
<glyph unicode="y" horiz-adv-x="1136" d="M25 840l10 102h274l285 -799h14l266 670l-178 27l11 102h352l10 -102l-377 -910q-67 -165 -155 -241t-220 -76q-77 0 -127 20l15 115q139 0 213 27q50 69 112 215l-6 10h-73l-293 813z" />
<glyph unicode="z" horiz-adv-x="1056" d="M88 102l617 703l-5 14h-403l-31 -190l-139 -15l-14 328h833l21 -102l-623 -703l6 -14h420l31 211l139 12l14 -346h-845z" />
<glyph unicode="{" horiz-adv-x="729" d="M127 532l10 123q80 0 117 64t37 203v184q0 142 80.5 219.5t228.5 77.5h53l-10 -111q-178 0 -178 -198v-234q0 -114 -52.5 -180t-123.5 -78v-16q71 -12 123.5 -78t52.5 -180v-232q0 -198 188 -198l-10 -113h-43q-148 0 -228.5 78t-80.5 221v182q0 139 -39.5 202.5 t-124.5 63.5z" />
<glyph unicode="|" horiz-adv-x="442" d="M145 -213v1606l131 24l21 -24v-1606l-129 -25z" />
<glyph unicode="}" horiz-adv-x="729" d="M76 -215l10 113q178 0 178 198v232q0 115 51 181t125 79v14q-74 13 -125 79t-51 181v232q0 198 -188 198l10 111h45q148 0 227.5 -77t79.5 -220v-184q0 -267 164 -267l-10 -120q-154 0 -154 -267v-184q0 -143 -80 -221t-227 -78h-55z" />
<glyph unicode="~" horiz-adv-x="1234" d="M125 635q80 176 270 176q93 0 260 -72q136 -62 215 -71l146 110h26l66 -61q-77 -176 -268 -176q-95 0 -260 71q-134 59 -215 74l-146 -113h-26z" />
<glyph unicode="&#xa1;" horiz-adv-x="518" d="M139 0l66 1016h125l28 -588l-24 -428h-195zM162 1180l14 200h201l-15 -200h-200z" />
<glyph unicode="&#xa2;" horiz-adv-x="1026" d="M102 451q0 272 187 395q82 55 196 67l-16 232l180 14l-22 -241q155 -12 280 -76l-12 -289l-139 -14l-29 217q-67 30 -168 30q-110 0 -194 -41q-72 -110 -72 -284q0 -161 85 -251.5t224 -90.5q74 0 153.5 25t129.5 67l51 -66q-92 -142 -299 -163l18 -211l-180 -15l21 226 q-185 20 -289.5 145.5t-104.5 323.5z" />
<glyph unicode="&#xa3;" horiz-adv-x="1085" d="M96 0l10 100q89 47 132 166q44 117 22 256h-156l11 121h121q-31 136 -31 215q0 188 115 293.5t317 105.5q188 0 344 -81l-23 -302l-135 -14l-18 223q-73 33 -180 33q-112 0 -183 -45q-53 -86 -53 -219q0 -91 37 -209h371l-11 -121h-335q14 -108 -12 -212t-89 -163v-12 l668 6l-14 -141h-908z" />
<glyph unicode="&#xa4;" horiz-adv-x="1206" d="M98 182l170 144q-73 94 -73 247q0 139 63 228l-156 131l119 139l139 -172q104 66 240 66q140 0 234 -64l137 164l137 -119l-168 -137q70 -98 70 -238q0 -143 -70 -237l162 -135l-117 -140l-147 179q-97 -60 -236 -60q-134 0 -225 55l-141 -167zM360 580q0 -141 72.5 -213 t185.5 -72q89 0 162 31q62 89 62 233q0 142 -69 215.5t-179 73.5q-96 0 -166 -33q-68 -89 -68 -235z" />
<glyph unicode="&#xa5;" horiz-adv-x="1155" d="M20 1135l9 100h442l-10 -98l-146 -29l263 -428h12l276 428l-153 29l10 98h410l-9 -100l-80 -27l-292 -438h272l-10 -123h-350v-113h360l-10 -121h-350v-188l157 -25l-6 -100h-498l9 100l147 25v188h-323l10 121h313v113h-323l10 123h229l-280 438z" />
<glyph unicode="&#xa6;" horiz-adv-x="442" d="M145 -213v737l131 25l21 -25v-737l-129 -25zM145 729v664l131 24l21 -24v-664l-129 -22z" />
<glyph unicode="&#xa7;" horiz-adv-x="1163" d="M162 522q0 88 63 158t160 100v15q-197 92 -197 245q0 132 113 211q113 82 293 82q168 0 326 -73l-35 -279l-131 -14l-19 215q-85 16 -174 16q-95 0 -164 -16q-39 -48 -39 -109q0 -47 39 -86q38 -36 79 -56t136 -54q201 -69 271 -113q118 -75 118 -191q0 -90 -63 -160.5 t-162 -97.5v-14q191 -89 191 -244q0 -133 -115 -213q-113 -82 -293 -82q-172 0 -332 74l33 279l133 14l19 -215q82 -16 180 -16q97 0 166 16q39 48 39 109q0 55 -45 94q-41 38 -90.5 60.5t-155.5 58.5l-21 6q-137 49 -221 102q-102 64 -102 178zM344 561q0 -59 76 -110 q50 -32 112 -52l68 -24l68 -25q68 35 109.5 86t41.5 99q0 61 -78 108q-41 29 -112 51q-67 28 -135 49q-71 -35 -110.5 -83.5t-39.5 -98.5z" />
<glyph unicode="&#xa8;" horiz-adv-x="620" d="M76 1126v203l174 12v-202zM373 1126v203l172 12v-202z" />
<glyph unicode="&#xa9;" horiz-adv-x="1519" d="M145 698q0 289 183 457q180 168 477 168q284 0 428 -147q143 -146 143 -357q0 -215 -143 -340t-350 -125q-78 0 -148.5 20.5t-129.5 61.5t-93.5 111t-34.5 162q0 146 84 226.5t234 80.5q122 0 233 -51l-10 -213l-98 -9l-19 160q-51 23 -121 23q-47 0 -108 -25 q-58 -64 -58 -196q0 -122 85.5 -187t230.5 -65q105 0 182 32q55 55 88 141t33 177q0 138 -88 264q-49 70 -144.5 111t-222.5 41q-228 0 -387 -123q-100 -156 -100 -381q0 -144 49 -257.5t133 -178.5q170 -123 369 -123q153 0 278 67l49 -76q-157 -92 -348 -92 q-104 0 -201 24t-184 76t-151.5 126t-102 181.5t-37.5 235.5z" />
<glyph unicode="&#xaa;" horiz-adv-x="886" d="M84 829q0 79 34.5 132t96.5 73q59 22 110 28.5t130 6.5h127q0 126 -33.5 177.5t-120.5 51.5q-95 0 -156 -28l-14 -133l-119 -13l-16 207q162 72 321 72q141 0 215 -66.5t74 -216.5v-411l94 -23l-8 -82h-211l-16 117h-14l-93 -113q-43 -18 -137 -18q-124 0 -194 63 t-70 176zM236 842q0 -68 38.5 -108t108.5 -40q137 0 199 144v133h-121q-125 0 -199 -21q-26 -39 -26 -108z" />
<glyph unicode="&#xab;" horiz-adv-x="980" d="M174 401v82l320 348l77 -57l-217 -323v-15l217 -323l-75 -60zM506 401v82l319 348l78 -57l-219 -323v-15l219 -323l-76 -60z" />
<glyph unicode="&#xac;" horiz-adv-x="1153" d="M121 608l12 127h901v-397h-127v270h-786z" />
<glyph unicode="&#xad;" horiz-adv-x="952" d="M125 594l80 141h483l119 23l20 -27l-79 -143h-484l-119 -23z" />
<glyph unicode="&#xae;" horiz-adv-x="1560" d="M145 688q0 296 181 465q182 170 471 170q297 0 458.5 -169t161.5 -472q0 -158 -53 -291h-389l-150 215h-135v-131l70 -14l-8 -70h-263l9 70l65 14v445l-74 14l9 72h329q114 0 188.5 -50.5t74.5 -150.5q0 -139 -138 -174l113 -158l182 19q25 92 25 184q0 254 -123.5 398.5 t-368.5 144.5q-230 0 -389 -123q-100 -156 -100 -385q0 -144 45 -256t125 -176q156 -123 354 -123q148 0 270 67l50 -76q-157 -92 -340 -92q-273 0 -461 164q-189 168 -189 469zM690 692h109q71 0 127 15q37 40 37 96q0 117 -187 117h-86v-228z" />
<glyph unicode="&#xaf;" horiz-adv-x="790" d="M104 1126l13 129h577l-14 -129h-576z" />
<glyph unicode="&#xb0;" horiz-adv-x="708" d="M141 1161q0 100 70 170q72 72 174 72t174 -72t72 -170q0 -100 -72 -172q-69 -69 -174 -69t-174 69q-70 70 -70 172zM244 1161.5q0 -59.5 41 -100.5t100 -41t100 41t41 100.5t-41 100.5t-100 41t-100 -41t-41 -100.5z" />
<glyph unicode="&#xb1;" horiz-adv-x="1083" d="M121 0l12 127h830l-15 -127h-827zM123 608l14 127h342v328h127v-328h357l-15 -127h-342v-329h-127v329h-356z" />
<glyph unicode="&#xb2;" horiz-adv-x="684" d="M49 684q156 113 275 250q120 138 120 250q0 119 -139 119q-59 0 -108 -19l-19 -113l-102 -12l-17 195q125 49 267 49q129 0 203.5 -49.5t74.5 -149.5q0 -129 -112 -262q-114 -136 -256 -229l2 -15l391 25l-11 -121h-563z" />
<glyph unicode="&#xb3;" horiz-adv-x="653" d="M49 1358q116 45 254 45q132 0 205.5 -49.5t73.5 -147.5q0 -136 -125 -170v-14q143 -34 143 -199q0 -111 -78 -173t-223 -62q-111 0 -223 37l6 114l319 -47q56 47 56 129q0 137 -207 137h-37l14 99l181 18q32 43 32 105q0 123 -141 123q-59 0 -115 -17l-16 -117l-102 -10z " />
<glyph unicode="&#xb4;" horiz-adv-x="552" d="M76 1206l268 322l133 -131l-321 -271z" />
<glyph unicode="&#x3bc;" d="M47 -365l8 103l142 26v1049l-150 27l10 102l299 23l31 -152v-446q0 -238 193 -238q148 0 241 152v532l-155 27l10 102l303 23l31 -152v-684l149 -27l-10 -102h-295l-23 143h-14l-125 -137q-52 -18 -135 -18q-115 0 -170 55l-8 -8l8 -78v-193l170 -26l-10 -103h-500z" />
<glyph unicode="&#xb5;" d="M47 -365l8 103l142 26v1049l-150 27l10 102l299 23l31 -152v-446q0 -238 193 -238q148 0 241 152v532l-155 27l10 102l303 23l31 -152v-684l149 -27l-10 -102h-295l-23 143h-14l-125 -137q-52 -18 -135 -18q-115 0 -170 55l-8 -8l8 -78v-193l170 -26l-10 -103h-500z" />
<glyph unicode="&#xb6;" horiz-adv-x="1189" d="M88 643q0 132 92 215q93 84 232 84h704l-10 -102l-148 -27v-1042l158 -33l-10 -103h-289v1178h-108v-1178h-299l10 103l147 26v1049h-110v-326h51l10 -122l-96 -23q-151 0 -242.5 85t-91.5 216z" />
<glyph unicode="&#xb7;" horiz-adv-x="477" d="M125 594l14 207h213l-14 -207h-213z" />
<glyph unicode="&#xb8;" horiz-adv-x="552" d="M76 -502l10 76q242 0 242 113q0 92 -205 92l-33 45l182 223l80 -47l-98 -121l8 -14q215 -9 215 -156q0 -97 -82.5 -161t-212.5 -64z" />
<glyph unicode="&#xb9;" horiz-adv-x="530" d="M49 1219l219 170h103v-684l112 -15l-10 -88h-379l10 88l119 15v419l23 78l-10 10l-144 -65z" />
<glyph unicode="&#xba;" horiz-adv-x="866" d="M76 995q0 226 139 338q82 70 213 70q166 0 264.5 -111t98.5 -297q0 -228 -138 -342q-87 -69 -217 -69q-166 0 -263 110.5t-97 300.5zM233 993q0 -148 57.5 -224.5t147.5 -76.5q73 0 135 39q60 111 60 262t-56.5 227t-146.5 76q-81 0 -137 -39q-60 -105 -60 -264z" />
<glyph unicode="&#xbb;" horiz-adv-x="980" d="M78 113l217 323v15l-217 323l78 57l319 -348v-82l-321 -348zM408 113l219 323v15l-217 323l75 57l322 -348v-82l-322 -348z" />
<glyph unicode="&#xbc;" horiz-adv-x="1603" d="M78 1219l219 170h102v-684l113 -15l-10 -88h-379l10 88l119 15v419l22 78l-10 10l-143 -65zM283 -33l780 1374l125 19l22 -19l-778 -1374l-127 -18zM821 242q86 71 178 250q95 185 109 292h149q-15 -113 -98 -270q-84 -158 -182 -246l6 -14h270v180l43 94h99v-274h110 l-10 -90h-100v-72l-43 -94h-99v166h-426z" />
<glyph unicode="&#xbd;" horiz-adv-x="1628" d="M78 1219l219 170h102v-684l113 -15l-10 -88h-379l10 88l119 15v419l22 78l-10 10l-143 -65zM283 -33l780 1374l125 19l22 -19l-778 -1374l-127 -18zM973 80q153 111 274 250t121 250q0 118 -139 118q-63 0 -109 -18l-18 -113l-103 -12l-16 195q125 49 266 49 q129 0 204 -50t75 -149q0 -128 -113 -262q-114 -136 -256 -229l2 -15l391 25l-10 -121h-563z" />
<glyph unicode="&#xbe;" horiz-adv-x="1622" d="M78 1358q116 45 254 45q132 0 205 -49.5t73 -147.5q0 -136 -125 -170v-14q144 -35 144 -199q0 -111 -78 -173t-223 -62q-112 0 -224 37l7 114l319 -47q55 46 55 129q0 137 -206 137h-37l14 99l180 18q33 44 33 105q0 123 -141 123q-59 0 -115 -17l-16 -117l-103 -10z M322 -33l780 1374l125 19l22 -19l-778 -1374l-127 -18zM862 242q86 71 178 250q95 185 109 292h149q-15 -113 -98 -270q-84 -158 -182 -246l6 -14h270v180l43 94h99v-274h110l-10 -90h-100v-72l-43 -94h-99v166h-426z" />
<glyph unicode="&#xbf;" horiz-adv-x="925" d="M100 281q0 76 35 151q39 79 64 107l102 112q100 106 145.5 196t45.5 208h118l8 -29q0 -245 -167 -442l-35 -43q-33 -37 -66 -84q-25 -38 -34.5 -69t-12.5 -81q0 -170 209 -170q90 0 182 29l27 186l133 13l20 -287q-185 -78 -387 -78q-387 0 -387 281zM444 1198l15 201 h200l-14 -201h-201z" />
<glyph unicode="&#xc0;" horiz-adv-x="1519" d="M20 0l11 113l116 28l435 1098l-195 31l10 110h502l473 -1239l125 -28l-10 -113h-545l10 113l205 28l-104 277h-607l-108 -277l217 -28l-10 -113h-525zM393 1786l133 131l269 -322l-80 -79zM500 553h501l-239 659h-12z" />
<glyph unicode="&#xc1;" horiz-adv-x="1519" d="M20 0l11 113l116 28l435 1098l-195 31l10 110h502l473 -1239l125 -28l-10 -113h-545l10 113l205 28l-104 277h-607l-108 -277l217 -28l-10 -113h-525zM500 553h501l-239 659h-12zM717 1595l268 322l133 -131l-321 -270z" />
<glyph unicode="&#xc2;" horiz-adv-x="1519" d="M20 0l11 113l116 28l435 1098l-195 31l10 110h502l473 -1239l125 -28l-10 -113h-545l10 113l205 28l-104 277h-607l-108 -277l217 -28l-10 -113h-525zM449 1589l241 314h121l242 -314l-74 -73l-215 206h-27l-215 -206zM500 553h501l-239 659h-12z" />
<glyph unicode="&#xc3;" horiz-adv-x="1519" d="M20 0l11 113l116 28l435 1098l-195 31l10 110h502l473 -1239l125 -28l-10 -113h-545l10 113l205 28l-104 277h-607l-108 -277l217 -28l-10 -113h-525zM426 1559q0 74 46 120.5t128 46.5q41 0 94 -16q35 -9 113.5 -38t105.5 -36l76 93l80 -46q0 -75 -46 -121t-126 -46 q-47 0 -96 14q-38 10 -117.5 40t-99.5 36l-76 -93zM500 553h501l-239 659h-12z" />
<glyph unicode="&#xc4;" horiz-adv-x="1519" d="M20 0l11 113l116 28l435 1098l-195 31l10 110h502l473 -1239l125 -28l-10 -113h-545l10 113l205 28l-104 277h-607l-108 -277l217 -28l-10 -113h-525zM500 553h501l-239 659h-12zM514 1516v202l174 13v-203zM811 1516v202l172 13v-203z" />
<glyph unicode="&#xc5;" horiz-adv-x="1519" d="M20 0l11 113l116 28l435 1098l-195 31l10 110h502l473 -1239l125 -28l-10 -113h-545l10 113l205 28l-104 277h-607l-108 -277l217 -28l-10 -113h-525zM500 553h501l-239 659h-12zM559 1702q0 78 55.5 132t133.5 54q80 0 135 -54t55 -132t-55 -132t-135 -54 q-78 0 -133.5 54t-55.5 132zM654 1702q0 -41 26 -70q26 -26 67.5 -26t67.5 26q29 29 29 70t-29 67q-26 29 -67.5 29t-67.5 -29q-26 -26 -26 -67z" />
<glyph unicode="&#xc6;" horiz-adv-x="2152" d="M20 0l11 113l123 28l737 1098l-184 31l10 110h1317l-15 -426l-137 -16l-39 301h-530v-489h260l-10 159l153 11l-14 -490l-100 -10l-21 198h-268v-477h549l36 308l140 14l14 -463h-1143l11 113l194 28v279h-561l-186 -279l202 -28l-10 -113h-539zM635 549h479v690h-16z " />
<glyph unicode="&#xc7;" horiz-adv-x="1390" d="M119 696q0 420 280 602q163 105 402 105q242 0 454 -96l-12 -408l-143 -14l-37 325q-103 50 -270 50q-153 0 -295 -60q-74 -80 -119 -217.5t-45 -284.5q0 -258 135 -422q138 -159 346 -159q106 0 215.5 42t186.5 115l73 -86q-150 -190 -448 -211l-80 -98l8 -14 q215 -9 215 -156q0 -97 -82.5 -161t-212.5 -64l-106 14l10 76q242 0 242 113q0 92 -205 92l-33 45l127 153q-280 15 -444 209q-162 192 -162 510z" />
<glyph unicode="&#xc8;" horiz-adv-x="1341" d="M76 0l10 113l162 28v1098l-172 31l10 110h1137l-15 -426l-137 -16l-37 301h-579v-483h299l-11 153l164 11l-16 -490l-111 -10l-20 198h-305v-477h596l36 308l140 14l14 -463h-1165zM377 1786l133 131l268 -322l-80 -79z" />
<glyph unicode="&#xc9;" horiz-adv-x="1341" d="M76 0l10 113l162 28v1098l-172 31l10 110h1137l-15 -426l-137 -16l-37 301h-579v-483h299l-11 153l164 11l-16 -490l-111 -10l-20 198h-305v-477h596l36 308l140 14l14 -463h-1165zM618 1595l269 322l133 -131l-322 -270z" />
<glyph unicode="&#xca;" horiz-adv-x="1341" d="M76 0l10 113l162 28v1098l-172 31l10 110h1137l-15 -426l-137 -16l-37 301h-579v-483h299l-11 153l164 11l-16 -490l-111 -10l-20 198h-305v-477h596l36 308l140 14l14 -463h-1165zM395 1589l242 314h121l241 -314l-73 -73l-215 206h-27l-215 -206z" />
<glyph unicode="&#xcb;" horiz-adv-x="1341" d="M76 0l10 113l162 28v1098l-172 31l10 110h1137l-15 -426l-137 -16l-37 301h-579v-483h299l-11 153l164 11l-16 -490l-111 -10l-20 198h-305v-477h596l36 308l140 14l14 -463h-1165zM463 1516v202l174 13v-203zM760 1516v202l172 13v-203z" />
<glyph unicode="&#xcc;" horiz-adv-x="708" d="M35 1786l133 131l268 -322l-80 -79zM76 0l10 113l162 28v1098l-172 31l10 110h545l-10 -110l-162 -31v-1098l172 -28l-10 -113h-545z" />
<glyph unicode="&#xcd;" horiz-adv-x="710" d="M76 0l10 113l162 28v1098l-172 31l10 110h545l-10 -110l-162 -31v-1098l172 -28l-10 -113h-545zM276 1595l269 322l133 -131l-322 -270z" />
<glyph unicode="&#xce;" horiz-adv-x="708" d="M53 1589l242 314h121l241 -314l-73 -73l-215 206h-27l-215 -206zM76 0l10 113l162 28v1098l-172 31l10 110h545l-10 -110l-162 -31v-1098l172 -28l-10 -113h-545z" />
<glyph unicode="&#xcf;" horiz-adv-x="708" d="M76 0l10 113l162 28v1098l-172 31l10 110h545l-10 -110l-162 -31v-1098l172 -28l-10 -113h-545zM121 1516v202l174 13v-203zM418 1516v202l172 13v-203z" />
<glyph unicode="&#xd0;" horiz-adv-x="1538" d="M78 627l10 135h164v477l-172 31l10 110h590q127 0 236.5 -23t206 -75t164.5 -130.5t107.5 -195.5t39.5 -264q0 -400 -263 -583q-160 -109 -491 -109h-600l10 113l162 28v486h-174zM461 141h211q211 0 379 47q161 182 161 502q0 268 -147 408.5t-416 140.5h-188v-477h299 l-10 -135h-289v-486z" />
<glyph unicode="&#xd1;" horiz-adv-x="1566" d="M66 0l10 113l162 28v1098l-172 31l10 110h375l698 -1061h12v920l-205 31l11 110h546l-10 -110l-164 -31v-1239h-196l-713 1077h-12v-936l213 -28l-10 -113h-555zM438 1608q0 74 46 121t128 47q39 0 95 -17q35 -9 113.5 -37.5t105.5 -35.5l75 92l80 -45q0 -75 -46 -121.5 t-126 -46.5q-47 0 -96 14q-38 10 -117.5 40t-99.5 36l-76 -92z" />
<glyph unicode="&#xd2;" horiz-adv-x="1595" d="M119 696q0 426 284 607q156 100 394 100q321 0 501 -189q179 -188 179 -520q0 -210 -72.5 -368.5t-206.5 -245.5q-161 -103 -397 -103q-326 0 -504 193t-178 526zM344 694q0 -256 119 -418q120 -159 364 -159q134 0 271 61q72 90 112.5 226.5t40.5 283.5q0 245 -121 410 q-120 164 -360 164q-139 0 -268 -60q-158 -190 -158 -508zM473 1786l133 131l268 -322l-79 -79z" />
<glyph unicode="&#xd3;" horiz-adv-x="1595" d="M119 696q0 426 284 607q156 100 394 100q321 0 501 -189q179 -188 179 -520q0 -210 -72.5 -368.5t-206.5 -245.5q-161 -103 -397 -103q-326 0 -504 193t-178 526zM344 694q0 -256 119 -418q120 -159 364 -159q134 0 271 61q72 90 112.5 226.5t40.5 283.5q0 245 -121 410 q-120 164 -360 164q-139 0 -268 -60q-158 -190 -158 -508zM715 1595l268 322l133 -131l-321 -270z" />
<glyph unicode="&#xd4;" horiz-adv-x="1595" d="M119 696q0 426 284 607q156 100 394 100q321 0 501 -189q179 -188 179 -520q0 -210 -72.5 -368.5t-206.5 -245.5q-161 -103 -397 -103q-326 0 -504 193t-178 526zM344 694q0 -256 119 -418q120 -159 364 -159q134 0 271 61q72 90 112.5 226.5t40.5 283.5q0 245 -121 410 q-120 164 -360 164q-139 0 -268 -60q-158 -190 -158 -508zM492 1589l241 314h121l242 -314l-74 -73l-215 206h-27l-215 -206z" />
<glyph unicode="&#xd5;" horiz-adv-x="1595" d="M119 696q0 426 284 607q156 100 394 100q321 0 501 -189q179 -188 179 -520q0 -210 -72.5 -368.5t-206.5 -245.5q-161 -103 -397 -103q-326 0 -504 193t-178 526zM344 694q0 -256 119 -418q120 -159 364 -159q134 0 271 61q72 90 112.5 226.5t40.5 283.5q0 245 -121 410 q-120 164 -360 164q-139 0 -268 -60q-158 -190 -158 -508zM473 1559q0 74 46 120.5t128 46.5q41 0 94 -16q35 -9 114 -38t106 -36l75 93l80 -46q0 -75 -46 -121t-126 -46q-47 0 -96 14q-38 10 -117.5 40t-99.5 36l-76 -93z" />
<glyph unicode="&#xd6;" horiz-adv-x="1595" d="M119 696q0 426 284 607q156 100 394 100q321 0 501 -189q179 -188 179 -520q0 -210 -72.5 -368.5t-206.5 -245.5q-161 -103 -397 -103q-326 0 -504 193t-178 526zM344 694q0 -256 119 -418q120 -159 364 -159q134 0 271 61q72 90 112.5 226.5t40.5 283.5q0 245 -121 410 q-120 164 -360 164q-139 0 -268 -60q-158 -190 -158 -508zM559 1516v202l174 13v-203zM856 1516v202l172 13v-203z" />
<glyph unicode="&#xd7;" horiz-adv-x="933" d="M121 414l256 256l-256 260l88 88l258 -256l258 256l90 -88l-258 -260l258 -256l-90 -90l-258 256l-258 -256z" />
<glyph unicode="&#xd8;" horiz-adv-x="1595" d="M119 696q0 426 284 607q153 100 390 100q72 0 176 -17l24 66l121 18l23 -18l-37 -102q183 -75 280 -243.5t97 -412.5q0 -208 -71.5 -366t-207.5 -248q-161 -103 -397 -103q-77 0 -174 17l-25 -66l-121 -18l-24 18l37 105q-182 75 -278.5 246.5t-96.5 416.5zM344 686 q0 -361 205 -496l371 1055q-80 17 -142 17q-138 0 -276 -60q-158 -193 -158 -516zM674 133q62 -16 137 -16q144 0 287 61q153 194 153 516q0 352 -209 490z" />
<glyph unicode="&#xd9;" horiz-adv-x="1560" d="M76 1270l10 110h565l-10 -110l-199 -31v-686q0 -207 72 -320q74 -108 283 -108q195 0 323 94q41 121 41 348v672l-211 31l11 110h538l-10 -110l-146 -31v-672q0 -295 -129 -442q-130 -148 -444 -148q-286 0 -412.5 140.5t-126.5 435.5v686zM475 1786l133 131l269 -322 l-80 -79z" />
<glyph unicode="&#xda;" horiz-adv-x="1560" d="M76 1270l10 110h565l-10 -110l-199 -31v-686q0 -207 72 -320q74 -108 283 -108q195 0 323 94q41 121 41 348v672l-211 31l11 110h538l-10 -110l-146 -31v-672q0 -295 -129 -442q-130 -148 -444 -148q-286 0 -412.5 140.5t-126.5 435.5v686zM717 1595l268 322l133 -131 l-321 -270z" />
<glyph unicode="&#xdb;" horiz-adv-x="1560" d="M76 1270l10 110h565l-10 -110l-199 -31v-686q0 -207 72 -320q74 -108 283 -108q195 0 323 94q41 121 41 348v672l-211 31l11 110h538l-10 -110l-146 -31v-672q0 -295 -129 -442q-130 -148 -444 -148q-286 0 -412.5 140.5t-126.5 435.5v686zM496 1589l241 314h121 l242 -314l-74 -73l-215 206h-27l-215 -206z" />
<glyph unicode="&#xdc;" horiz-adv-x="1560" d="M76 1270l10 110h565l-10 -110l-199 -31v-686q0 -207 72 -320q74 -108 283 -108q195 0 323 94q41 121 41 348v672l-211 31l11 110h538l-10 -110l-146 -31v-672q0 -295 -129 -442q-130 -148 -444 -148q-286 0 -412.5 140.5t-126.5 435.5v686zM563 1516v202l174 13v-203z M860 1516v202l172 13v-203z" />
<glyph unicode="&#xdd;" horiz-adv-x="1480" d="M20 1268l11 112h555l-11 -110l-206 -33l374 -584h13l385 584l-213 33l10 110h520l-10 -112l-109 -31l-503 -739v-357l219 -28l-11 -113h-634l10 113l207 28v357l-486 739zM672 1595l268 322l133 -131l-321 -270z" />
<glyph unicode="&#xde;" horiz-adv-x="1382" d="M76 0l10 113l162 28v1098l-172 31l10 110h371v-151h272q87 0 163.5 -12t148.5 -41.5t123.5 -75.5t82.5 -119.5t31 -167.5q0 -210 -156 -324q-131 -98 -331 -98h-74l-176 31l10 110h127q208 0 317 41q70 107 70 230q0 282 -375 282h-233v-944l231 -28l-10 -113h-602z" />
<glyph unicode="&#xdf;" horiz-adv-x="1210" d="M72 676l10 129h186v12l-41 66q0 123 18 208.5t60 159.5q90 152 352 152q182 0 288 -87.5t106 -244.5q0 -224 -201 -295v-14q129 -30 206 -127t77 -250q0 -183 -110.5 -284t-301.5 -101h-78l10 121q111 0 209 26q70 88 70 234q0 134 -83.5 214.5t-213.5 80.5h-121l10 129 h64q149 0 231 55q45 80 45 189q0 221 -227 221q-68 0 -150 -29q-75 -106 -75 -319v-793l139 -27l-10 -102h-457l10 102l133 27v547h-155z" />
<glyph unicode="&#xe0;" horiz-adv-x="1159" d="M109 276q0 74 32 132.5t82 89.5q50 32 119 47q67 17 120.5 21.5t141.5 4.5h174q0 148 -45.5 206.5t-167.5 58.5q-146 0 -219 -33l-20 -164l-146 -14l-20 254q210 88 440 88q369 0 369 -342v-496l127 -27l-11 -102h-276l-23 143h-14l-125 -137q-73 -24 -176 -24 q-172 0 -267 78t-95 216zM246 1397l133 131l268 -322l-80 -80zM305 293q0 -79 52 -130.5t147 -51.5q186 0 274 172v168h-170q-139 0 -264 -23q-39 -51 -39 -135z" />
<glyph unicode="&#xe1;" horiz-adv-x="1159" d="M109 276q0 74 32 132.5t82 89.5q50 32 119 47q67 17 120.5 21.5t141.5 4.5h174q0 148 -45.5 206.5t-167.5 58.5q-146 0 -219 -33l-20 -164l-146 -14l-20 254q210 88 440 88q369 0 369 -342v-496l127 -27l-11 -102h-276l-23 143h-14l-125 -137q-73 -24 -176 -24 q-172 0 -267 78t-95 216zM305 293q0 -79 52 -130.5t147 -51.5q186 0 274 172v168h-170q-139 0 -264 -23q-39 -51 -39 -135zM487 1206l269 322l133 -131l-322 -271z" />
<glyph unicode="&#xe2;" horiz-adv-x="1159" d="M109 276q0 74 32 132.5t82 89.5q50 32 119 47q67 17 120.5 21.5t141.5 4.5h174q0 148 -45.5 206.5t-167.5 58.5q-146 0 -219 -33l-20 -164l-146 -14l-20 254q210 88 440 88q369 0 369 -342v-496l127 -27l-11 -102h-276l-23 143h-14l-125 -137q-73 -24 -176 -24 q-172 0 -267 78t-95 216zM264 1200l242 313h121l241 -313l-73 -74l-215 207h-27l-215 -207zM305 293q0 -79 52 -130.5t147 -51.5q186 0 274 172v168h-170q-139 0 -264 -23q-39 -51 -39 -135z" />
<glyph unicode="&#xe3;" horiz-adv-x="1159" d="M109 276q0 74 32 132.5t82 89.5q50 32 119 47q67 17 120.5 21.5t141.5 4.5h174q0 148 -45.5 206.5t-167.5 58.5q-146 0 -219 -33l-20 -164l-146 -14l-20 254q210 88 440 88q369 0 369 -342v-496l127 -27l-11 -102h-276l-23 143h-14l-125 -137q-73 -24 -176 -24 q-172 0 -267 78t-95 216zM246 1169q0 74 46 121t128 47q41 0 94 -16q35 -9 113.5 -38t105.5 -36l76 92l80 -45q0 -75 -46 -121.5t-126 -46.5q-43 0 -96 15q-38 10 -118 40t-100 36l-75 -93zM305 293q0 -79 52 -130.5t147 -51.5q186 0 274 172v168h-170q-139 0 -264 -23 q-39 -51 -39 -135z" />
<glyph unicode="&#xe4;" horiz-adv-x="1159" d="M109 276q0 74 32 132.5t82 89.5q50 32 119 47q67 17 120.5 21.5t141.5 4.5h174q0 148 -45.5 206.5t-167.5 58.5q-146 0 -219 -33l-20 -164l-146 -14l-20 254q210 88 440 88q369 0 369 -342v-496l127 -27l-11 -102h-276l-23 143h-14l-125 -137q-73 -24 -176 -24 q-172 0 -267 78t-95 216zM305 293q0 -79 52 -130.5t147 -51.5q186 0 274 172v168h-170q-139 0 -264 -23q-39 -51 -39 -135zM332 1126v203l174 12v-202zM629 1126v203l172 12v-202z" />
<glyph unicode="&#xe5;" horiz-adv-x="1159" d="M109 276q0 74 32 132.5t82 89.5q50 32 119 47q67 17 120.5 21.5t141.5 4.5h174q0 148 -45.5 206.5t-167.5 58.5q-146 0 -219 -33l-20 -164l-146 -14l-20 254q210 88 440 88q369 0 369 -342v-496l127 -27l-11 -102h-276l-23 143h-14l-125 -137q-73 -24 -176 -24 q-172 0 -267 78t-95 216zM305 293q0 -79 52 -130.5t147 -51.5q186 0 274 172v168h-170q-139 0 -264 -23q-39 -51 -39 -135zM379 1313q0 78 55 132t133 54q80 0 135.5 -54t55.5 -132t-55.5 -132.5t-135.5 -54.5q-78 0 -133 54.5t-55 132.5zM474 1313q0 -41 26 -70 q26 -26 67.5 -26t67.5 26q29 29 29 70t-29 67q-26 29 -67.5 29t-67.5 -29q-26 -26 -26 -67z" />
<glyph unicode="&#xe6;" horiz-adv-x="1726" d="M104 287q0 79 36.5 133t97.5 80q76 35 178 43q76 8 178 8h178q0 155 -55.5 223t-190.5 68q-115 0 -190 -35l-21 -168l-139 -14l-20 254q177 88 372 88q272 0 342 -162h15q100 160 336 160q190 0 297.5 -101.5t107.5 -279.5q0 -75 -20 -148h-643q0 -151 82 -237t208 -86 q154 0 283 108l53 -63q-114 -181 -364 -181q-241 0 -355 170h-14l-145 -124q-91 -46 -232 -46q-160 0 -270 84q-105 83 -105 226zM303 297q0 -82 57.5 -133t159.5 -51q158 0 252 129v194h-188q-148 0 -244 -22q-37 -58 -37 -117zM969 551h497q-1 133 -70.5 211t-185.5 78 q-89 0 -163 -45q-69 -97 -78 -244z" />
<glyph unicode="&#xe7;" horiz-adv-x="1058" d="M98 473q0 284 195 414q122 78 291 78q191 0 356 -80l-14 -305l-135 -13l-31 230q-71 32 -185 32q-112 0 -198 -45q-78 -113 -78 -301q0 -169 88 -266.5t231 -97.5q76 0 159 27t138 71l56 -65q-103 -160 -342 -175l-80 -98l8 -14q215 -9 215 -156q0 -97 -82.5 -161 t-212.5 -64l-106 14l10 76q242 0 242 113q0 92 -205 92l-33 45l127 153q-195 20 -304.5 152.5t-109.5 343.5z" />
<glyph unicode="&#xe8;" horiz-adv-x="1077" d="M98 473q0 272 178 404q116 88 293 88q191 0 304.5 -106t113.5 -284q0 -68 -22 -145l-672 -2q7 -148 94 -225.5t227 -77.5q167 0 283 96l53 -63q-114 -181 -379 -181q-223 0 -350 136q-123 138 -123 360zM244 1397l133 131l268 -322l-80 -80zM293 545h528 q-5 138 -72.5 216.5t-185.5 78.5q-111 0 -194 -45q-67 -98 -76 -250z" />
<glyph unicode="&#xe9;" horiz-adv-x="1077" d="M98 473q0 272 178 404q116 88 293 88q191 0 304.5 -106t113.5 -284q0 -68 -22 -145l-672 -2q7 -148 94 -225.5t227 -77.5q167 0 283 96l53 -63q-114 -181 -379 -181q-223 0 -350 136q-123 138 -123 360zM293 545h528q-5 138 -72.5 216.5t-185.5 78.5q-111 0 -194 -45 q-67 -98 -76 -250zM485 1206l269 322l133 -131l-322 -271z" />
<glyph unicode="&#xea;" horiz-adv-x="1077" d="M98 473q0 272 178 404q116 88 293 88q191 0 304.5 -106t113.5 -284q0 -68 -22 -145l-672 -2q7 -148 94 -225.5t227 -77.5q167 0 283 96l53 -63q-114 -181 -379 -181q-223 0 -350 136q-123 138 -123 360zM262 1200l242 313h121l241 -313l-73 -74l-215 207h-27l-215 -207z M293 545h528q-5 138 -72.5 216.5t-185.5 78.5q-111 0 -194 -45q-67 -98 -76 -250z" />
<glyph unicode="&#xeb;" horiz-adv-x="1077" d="M98 473q0 272 178 404q116 88 293 88q191 0 304.5 -106t113.5 -284q0 -68 -22 -145l-672 -2q7 -148 94 -225.5t227 -77.5q167 0 283 96l53 -63q-114 -181 -379 -181q-223 0 -350 136q-123 138 -123 360zM293 545h528q-5 138 -72.5 216.5t-185.5 78.5q-111 0 -194 -45 q-67 -98 -76 -250zM330 1126v203l174 12v-202zM627 1126v203l172 12v-202z" />
<glyph unicode="&#xec;" horiz-adv-x="636" d="M20 1430l156 108l195 -346l-92 -66zM88 0l10 102l140 27v684l-150 27l10 102l297 23l31 -152v-684l149 -27l-10 -102h-477z" />
<glyph unicode="&#xed;" horiz-adv-x="636" d="M88 0l10 102l140 27v684l-150 27l10 102l297 23l31 -152v-684l149 -27l-10 -102h-477zM256 1190l195 348l155 -108l-258 -306z" />
<glyph unicode="&#xee;" horiz-adv-x="636" d="M47 1188l201 272h119l200 -272l-71 -62l-174 154h-29l-174 -154zM88 0l10 102l140 27v684l-150 27l10 102l297 23l31 -152v-684l149 -27l-10 -102h-477z" />
<glyph unicode="&#xef;" horiz-adv-x="636" d="M84 1126v203l164 12v-202zM88 0l10 102l140 27v684l-150 27l10 102l297 23l31 -152v-684l149 -27l-10 -102h-477zM334 1126v203l166 12v-202z" />
<glyph unicode="&#xf0;" horiz-adv-x="1124" d="M106 414q0 203 117 311q118 109 281 109q102 0 188 -38t127 -108h27q-41 345 -260 467l-60 -166l-125 45l64 176q-92 34 -223 43l14 144q174 -16 260 -47l55 149l123 -45l-55 -154q201 -103 289 -301q90 -200 90 -434q0 -275 -117.5 -431.5t-345.5 -156.5 q-197 0 -324 115q-125 113 -125 322zM301 418q0 -309 270 -309q93 0 179 45q59 106 59 239q0 146 -73 227.5t-199 81.5q-93 0 -179 -45q-57 -92 -57 -239z" />
<glyph unicode="&#xf1;" horiz-adv-x="1251" d="M76 0l10 102l139 27v684l-149 27l10 102l295 23l27 -172h14l123 143q85 29 174 29q172 0 245.5 -88.5t73.5 -262.5v-485l150 -27l-10 -102h-328v582q0 229 -186 229q-152 0 -248 -152v-530l155 -27l-10 -102h-485zM274 1169q0 74 46.5 121t128.5 47q41 0 94 -16 q35 -9 113.5 -38t105.5 -36l76 92l80 -45q0 -75 -46.5 -121.5t-126.5 -46.5q-43 0 -96 15q-38 10 -117.5 40t-99.5 36l-76 -93z" />
<glyph unicode="&#xf2;" horiz-adv-x="1153" d="M98 471q0 277 183 410q122 84 288 84q221 0 355 -134q131 -131 131 -360q0 -281 -181 -410q-122 -84 -292 -84q-223 0 -353.5 133t-130.5 361zM223 1397l133 131l269 -322l-80 -80zM299 477q0 -183 83.5 -275.5t219.5 -92.5q106 0 174 47q78 132 78 307q0 190 -88 278 q-87 90 -207 90q-100 0 -180 -45q-80 -121 -80 -309z" />
<glyph unicode="&#xf3;" horiz-adv-x="1153" d="M98 471q0 277 183 410q122 84 288 84q221 0 355 -134q131 -131 131 -360q0 -281 -181 -410q-122 -84 -292 -84q-223 0 -353.5 133t-130.5 361zM299 477q0 -183 83.5 -275.5t219.5 -92.5q106 0 174 47q78 132 78 307q0 190 -88 278q-87 90 -207 90q-100 0 -180 -45 q-80 -121 -80 -309zM465 1206l268 322l133 -131l-321 -271z" />
<glyph unicode="&#xf4;" horiz-adv-x="1153" d="M98 471q0 277 183 410q122 84 288 84q221 0 355 -134q131 -131 131 -360q0 -281 -181 -410q-122 -84 -292 -84q-223 0 -353.5 133t-130.5 361zM250 1200l242 313h120l242 -313l-74 -74l-215 207h-26l-215 -207zM299 477q0 -183 83.5 -275.5t219.5 -92.5q106 0 174 47 q78 132 78 307q0 190 -88 278q-87 90 -207 90q-100 0 -180 -45q-80 -121 -80 -309z" />
<glyph unicode="&#xf5;" horiz-adv-x="1153" d="M98 471q0 277 183 410q122 84 288 84q221 0 355 -134q131 -131 131 -360q0 -281 -181 -410q-122 -84 -292 -84q-223 0 -353.5 133t-130.5 361zM229 1169q0 74 46 121t128 47q42 0 95 -16q35 -9 113.5 -38t105.5 -36l76 92l79 -45q0 -75 -46 -121.5t-126 -46.5 q-44 0 -96 15q-38 10 -117.5 40t-99.5 36l-76 -93zM299 477q0 -183 83.5 -275.5t219.5 -92.5q106 0 174 47q78 132 78 307q0 190 -88 278q-87 90 -207 90q-100 0 -180 -45q-80 -121 -80 -309z" />
<glyph unicode="&#xf6;" horiz-adv-x="1153" d="M98 471q0 277 183 410q122 84 288 84q221 0 355 -134q131 -131 131 -360q0 -281 -181 -410q-122 -84 -292 -84q-223 0 -353.5 133t-130.5 361zM299 477q0 -183 83.5 -275.5t219.5 -92.5q106 0 174 47q78 132 78 307q0 190 -88 278q-87 90 -207 90q-100 0 -180 -45 q-80 -121 -80 -309zM324 1126v203l174 12v-202zM621 1126v203l172 12v-202z" />
<glyph unicode="&#xf7;" horiz-adv-x="1122" d="M121 608l12 127h871l-15 -127h-868zM463 262l14 178h178l-12 -178h-180zM463 903l14 180h178l-12 -180h-180z" />
<glyph unicode="&#xf8;" horiz-adv-x="1153" d="M98 471q0 220 127 356q129 138 357 138q60 0 141 -19l29 66l102 20l20 -18l-45 -109q226 -121 226 -434q0 -278 -181 -410q-122 -84 -292 -84q-62 0 -142 17l-28 -66l-103 -18l-22 18l45 105q-234 123 -234 438zM293 477q0 -199 102 -293l271 631q-53 16 -99 16 q-101 0 -192 -45q-82 -116 -82 -309zM496 125q41 -14 94 -14q91 0 190 45q80 121 80 307q0 185 -96 289z" />
<glyph unicode="&#xf9;" d="M39 840l10 102l297 23l31 -152v-446q0 -238 192 -238q151 0 244 152v532l-158 27l11 102l305 23l30 -152v-684l150 -27l-10 -102h-297l-23 143h-14l-123 -137q-74 -24 -164 -24q-170 0 -251 93t-81 259v479zM227 1397l133 131l269 -322l-80 -80z" />
<glyph unicode="&#xfa;" d="M39 840l10 102l297 23l31 -152v-446q0 -238 192 -238q151 0 244 152v532l-158 27l11 102l305 23l30 -152v-684l150 -27l-10 -102h-297l-23 143h-14l-123 -137q-74 -24 -164 -24q-170 0 -251 93t-81 259v479zM469 1206l268 322l133 -131l-321 -271z" />
<glyph unicode="&#xfb;" d="M39 840l10 102l297 23l31 -152v-446q0 -238 192 -238q151 0 244 152v532l-158 27l11 102l305 23l30 -152v-684l150 -27l-10 -102h-297l-23 143h-14l-123 -137q-74 -24 -164 -24q-170 0 -251 93t-81 259v479zM246 1200l241 313h121l242 -313l-74 -74l-215 207h-26 l-216 -207z" />
<glyph unicode="&#xfc;" d="M39 840l10 102l297 23l31 -152v-446q0 -238 192 -238q151 0 244 152v532l-158 27l11 102l305 23l30 -152v-684l150 -27l-10 -102h-297l-23 143h-14l-123 -137q-74 -24 -164 -24q-170 0 -251 93t-81 259v479zM313 1126v203l174 12v-202zM610 1126v203l172 12v-202z" />
<glyph unicode="&#xfd;" horiz-adv-x="1136" d="M25 840l10 102h274l285 -799h14l266 670l-178 27l11 102h352l10 -102l-377 -910q-67 -165 -155 -241t-220 -76q-77 0 -127 20l15 115q139 0 213 27q50 69 112 215l-6 10h-73l-293 813zM477 1206l268 322l134 -131l-322 -271z" />
<glyph unicode="&#xfe;" horiz-adv-x="1224" d="M68 -365l10 103l139 26v1487l-149 27l10 102l307 23l23 -113v-491h12l121 123q68 26 157 26q115 0 204 -43.5t134 -118.5q90 -137 90 -311q0 -127 -45.5 -237.5t-128.5 -176.5q-101 -79 -235 -79q-187 0 -295 141h-14v-359l170 -26l-11 -103h-499zM408 272 q85 -155 268 -155q89 0 168 43q80 136 80 305q0 157 -69 245.5t-200 88.5q-154 0 -247 -140v-387z" />
<glyph unicode="&#xff;" horiz-adv-x="1136" d="M25 840l10 102h274l285 -799h14l266 670l-178 27l11 102h352l10 -102l-377 -910q-67 -165 -155 -241t-220 -76q-77 0 -127 20l15 115q139 0 213 27q50 69 112 215l-6 10h-73l-293 813zM319 1126v203l175 12v-202zM616 1126v203l172 12v-202z" />
<glyph unicode="&#x100;" horiz-adv-x="1519" d="M20 0l11 113l116 28l435 1098l-195 31l10 110h502l473 -1239l125 -28l-10 -113h-545l10 113l205 28l-104 277h-607l-108 -277l217 -28l-10 -113h-525zM430 1516l12 129h578l-14 -129h-576zM500 553h501l-239 659h-12z" />
<glyph unicode="&#x101;" horiz-adv-x="1159" d="M109 276q0 74 32 132.5t82 89.5q50 32 119 47q67 17 120.5 21.5t141.5 4.5h174q0 148 -45.5 206.5t-167.5 58.5q-146 0 -219 -33l-20 -164l-146 -14l-20 254q210 88 440 88q369 0 369 -342v-496l127 -27l-11 -102h-276l-23 143h-14l-125 -137q-73 -24 -176 -24 q-172 0 -267 78t-95 216zM272 1126l13 129h577l-14 -129h-576zM305 293q0 -79 52 -130.5t147 -51.5q186 0 274 172v168h-170q-139 0 -264 -23q-39 -51 -39 -135z" />
<glyph unicode="&#x102;" horiz-adv-x="1519" d="M20 0l11 113l116 28l435 1098l-195 31l10 110h502l473 -1239l125 -28l-10 -113h-545l10 113l205 28l-104 277h-607l-108 -277l217 -28l-10 -113h-525zM440 1749l160 12q18 -48 54.5 -79t79.5 -38.5t85.5 1t77.5 39.5t51 77l109 -12q-26 -110 -109.5 -171.5t-195.5 -61.5 q-114 0 -201 62t-111 171zM500 553h501l-239 659h-12z" />
<glyph unicode="&#x103;" horiz-adv-x="1159" d="M109 276q0 74 32 132.5t82 89.5q50 32 119 47q67 17 120.5 21.5t141.5 4.5h174q0 148 -45.5 206.5t-167.5 58.5q-146 0 -219 -33l-20 -164l-146 -14l-20 254q210 88 440 88q369 0 369 -342v-496l127 -27l-11 -102h-276l-23 143h-14l-125 -137q-73 -24 -176 -24 q-172 0 -267 78t-95 216zM264 1360l160 12q18 -48 54.5 -79t79.5 -38.5t85.5 1t77.5 39.5t51 77l109 -12q-26 -110 -110 -172t-196 -62q-114 0 -200.5 62.5t-110.5 171.5zM305 293q0 -79 52 -130.5t147 -51.5q186 0 274 172v168h-170q-139 0 -264 -23q-39 -51 -39 -135z" />
<glyph unicode="&#x104;" horiz-adv-x="1519" d="M20 0l11 113l116 28l435 1098l-195 31l10 110h502l473 -1239l125 -28l-10 -113q-78 -29 -122 -78.5t-44 -101.5q0 -49 40 -81t97 -32h82l-10 -88l-111 -20q-112 0 -176.5 53.5t-64.5 134.5q0 62 39 117.5t106 81.5v14h-381l10 113l205 28l-104 277h-607l-108 -277 l217 -28l-10 -113h-525zM500 553h501l-239 659h-12z" />
<glyph unicode="&#x105;" horiz-adv-x="1159" d="M109 276q0 74 32 132.5t82 89.5q50 32 119 47q67 17 120.5 21.5t141.5 4.5h174q0 148 -45.5 206.5t-167.5 58.5q-146 0 -219 -33l-20 -164l-146 -14l-20 254q210 88 440 88q369 0 369 -342v-496l127 -27l-11 -102q-76 -29 -117.5 -77t-41.5 -103q0 -49 40 -81t97 -32h82 l-10 -88l-111 -20q-112 0 -177 53.5t-65 134.5q0 62 39.5 117.5t106.5 81.5v14h-119l-23 143h-14l-125 -137q-73 -24 -176 -24q-172 0 -267 78t-95 216zM305 293q0 -79 52 -130.5t147 -51.5q186 0 274 172v168h-170q-139 0 -264 -23q-39 -51 -39 -135z" />
<glyph unicode="&#x106;" horiz-adv-x="1390" d="M119 696q0 420 280 602q163 105 402 105q242 0 454 -96l-12 -408l-143 -14l-37 325q-103 50 -270 50q-153 0 -295 -60q-74 -80 -119 -217.5t-45 -284.5q0 -258 135 -422q138 -159 346 -159q106 0 215.5 42t186.5 115l73 -86q-83 -103 -218.5 -157t-295.5 -54 q-301 0 -479 193t-178 526zM709 1595l268 322l133 -131l-322 -270z" />
<glyph unicode="&#x107;" horiz-adv-x="1058" d="M98 473q0 284 195 414q122 78 291 78q191 0 356 -80l-14 -305l-135 -13l-31 230q-71 32 -185 32q-112 0 -198 -45q-78 -113 -78 -301q0 -169 88 -266.5t231 -97.5q76 0 159 27t138 71l56 -65q-111 -175 -387 -175q-229 0 -359 136q-127 136 -127 360zM498 1206l268 322 l133 -131l-321 -271z" />
<glyph unicode="&#x108;" horiz-adv-x="1390" d="M119 696q0 420 280 602q163 105 402 105q242 0 454 -96l-12 -408l-143 -14l-37 325q-103 50 -270 50q-153 0 -295 -60q-74 -80 -119 -217.5t-45 -284.5q0 -258 135 -422q138 -159 346 -159q106 0 215.5 42t186.5 115l73 -86q-83 -103 -218.5 -157t-295.5 -54 q-301 0 -479 193t-178 526zM485 1589l242 314h121l242 -314l-74 -73l-215 206h-27l-215 -206z" />
<glyph unicode="&#x109;" horiz-adv-x="1058" d="M98 473q0 284 195 414q122 78 291 78q191 0 356 -80l-14 -305l-135 -13l-31 230q-71 32 -185 32q-112 0 -198 -45q-78 -113 -78 -301q0 -169 88 -266.5t231 -97.5q76 0 159 27t138 71l56 -65q-111 -175 -387 -175q-229 0 -359 136q-127 136 -127 360zM274 1200l242 313 h121l242 -313l-74 -74l-215 207h-27l-215 -207z" />
<glyph unicode="&#x10a;" horiz-adv-x="1390" d="M119 696q0 420 280 602q163 105 402 105q242 0 454 -96l-12 -408l-143 -14l-37 325q-103 50 -270 50q-153 0 -295 -60q-74 -80 -119 -217.5t-45 -284.5q0 -258 135 -422q138 -159 346 -159q106 0 215.5 42t186.5 115l73 -86q-83 -103 -218.5 -157t-295.5 -54 q-301 0 -479 193t-178 526zM702 1516v202l175 13v-203z" />
<glyph unicode="&#x10b;" horiz-adv-x="1058" d="M98 473q0 284 195 414q122 78 291 78q191 0 356 -80l-14 -305l-135 -13l-31 230q-71 32 -185 32q-112 0 -198 -45q-78 -113 -78 -301q0 -169 88 -266.5t231 -97.5q76 0 159 27t138 71l56 -65q-111 -175 -387 -175q-229 0 -359 136q-127 136 -127 360zM492 1126v203 l174 12v-202z" />
<glyph unicode="&#x10c;" horiz-adv-x="1390" d="M119 696q0 420 280 602q163 105 402 105q242 0 454 -96l-12 -408l-143 -14l-37 325q-103 50 -270 50q-153 0 -295 -60q-74 -80 -119 -217.5t-45 -284.5q0 -258 135 -422q138 -159 346 -159q106 0 215.5 42t186.5 115l73 -86q-83 -103 -218.5 -157t-295.5 -54 q-301 0 -479 193t-178 526zM485 1829l74 74l215 -207h27l215 207l74 -74l-242 -313h-121z" />
<glyph unicode="&#x10d;" horiz-adv-x="1058" d="M98 473q0 284 195 414q122 78 291 78q191 0 356 -80l-14 -305l-135 -13l-31 230q-71 32 -185 32q-112 0 -198 -45q-78 -113 -78 -301q0 -169 88 -266.5t231 -97.5q76 0 159 27t138 71l56 -65q-111 -175 -387 -175q-229 0 -359 136q-127 136 -127 360zM274 1440l74 73 l215 -206h27l215 206l74 -73l-242 -314h-121z" />
<glyph unicode="&#x10e;" horiz-adv-x="1536" d="M76 0l12 113l160 28v1098l-172 31l12 110h596q124 0 232.5 -23t204.5 -75t164 -130.5t107.5 -195.5t39.5 -264q0 -198 -69.5 -347t-193.5 -236q-165 -109 -448 -109h-645zM319 1829l74 74l215 -207h27l215 207l74 -74l-242 -313h-121zM459 141h178q233 0 410 47 q161 182 161 502q0 268 -147 408.5t-416 140.5h-186v-1098z" />
<glyph unicode="&#x10f;" horiz-adv-x="1286" d="M98 485q0 269 168 394q100 71 236 71q198 0 301 -151h12v452l-156 27l11 102l307 23l29 -152v-1122l129 -27l-11 -102h-278l-23 143h-14l-125 -137q-82 -24 -156 -24q-209 0 -321 145q-109 148 -109 358zM297 475q0 -161 72.5 -259.5t193.5 -98.5q81 0 149.5 48.5 t102.5 119.5v360q-88 166 -283 166q-80 0 -157 -41q-78 -116 -78 -295zM1108 1266l12 114h133q33 -42 33 -110q0 -65 -35 -121.5t-90 -83.5l-35 43q39 33 39 88q0 52 -57 70z" />
<glyph unicode="&#x110;" horiz-adv-x="1538" d="M78 633l10 123h164v483l-172 31l10 110h588q127 0 236.5 -22.5t206.5 -74t165.5 -129.5t108 -196t39.5 -266q0 -400 -263 -583q-160 -109 -491 -109h-600l10 113l162 28v492h-174zM461 141h211q211 0 379 47q161 182 161 502q0 268 -147 408.5t-416 140.5h-188v-483h299 l-10 -123h-289v-492z" />
<glyph unicode="&#x111;" horiz-adv-x="1196" d="M98 455q0 198 107 323q109 127 293 127q202 0 305 -151h12v276h-326l11 103h315v129l-156 22l11 96l313 23l23 -115v-155h135l-11 -103h-124v-901l129 -27l-11 -102h-278l-23 143h-14l-125 -137q-82 -24 -156 -24q-211 0 -321 137q-109 139 -109 336zM297 453 q0 -151 74 -243.5t192 -92.5q81 0 149.5 48.5t102.5 119.5v321q-91 166 -280 166q-86 0 -160 -39q-78 -113 -78 -280z" />
<glyph unicode="&#x112;" horiz-adv-x="1341" d="M76 0l10 113l162 28v1098l-172 31l10 110h1137l-15 -426l-137 -16l-37 301h-579v-483h299l-11 153l164 11l-16 -490l-111 -10l-20 198h-305v-477h596l36 308l140 14l14 -463h-1165zM403 1516l13 129h577l-14 -129h-576z" />
<glyph unicode="&#x113;" horiz-adv-x="1077" d="M98 473q0 272 178 404q116 88 293 88q191 0 304.5 -106t113.5 -284q0 -68 -22 -145l-672 -2q7 -148 94 -225.5t227 -77.5q167 0 283 96l53 -63q-114 -181 -379 -181q-223 0 -350 136q-123 138 -123 360zM270 1126l13 129h577l-14 -129h-576zM293 545h528 q-5 138 -72.5 216.5t-185.5 78.5q-111 0 -194 -45q-67 -98 -76 -250z" />
<glyph unicode="&#x114;" horiz-adv-x="1341" d="M76 0l10 113l162 28v1098l-172 31l10 110h1137l-15 -426l-137 -16l-37 301h-579v-483h299l-11 153l164 11l-16 -490l-111 -10l-20 198h-305v-477h596l36 308l140 14l14 -463h-1165zM389 1749l160 12q18 -48 54.5 -79t79.5 -38.5t85.5 1t77.5 39.5t51 77l109 -12 q-26 -110 -110 -171.5t-196 -61.5q-114 0 -200.5 62t-110.5 171z" />
<glyph unicode="&#x115;" horiz-adv-x="1077" d="M98 473q0 272 178 404q116 88 293 88q191 0 304.5 -106t113.5 -284q0 -68 -22 -145l-672 -2q7 -148 94 -225.5t227 -77.5q167 0 283 96l53 -63q-114 -181 -379 -181q-223 0 -350 136q-123 138 -123 360zM256 1360l160 12q18 -48 54.5 -79t79.5 -38.5t85.5 1t77.5 39.5 t51 77l108 -12q-26 -110 -109.5 -172t-195.5 -62q-114 0 -200.5 62.5t-110.5 171.5zM293 545h528q-5 138 -72.5 216.5t-185.5 78.5q-111 0 -194 -45q-67 -98 -76 -250z" />
<glyph unicode="&#x116;" horiz-adv-x="1341" d="M76 0l10 113l162 28v1098l-172 31l10 110h1137l-15 -426l-137 -16l-37 301h-579v-483h299l-11 153l164 11l-16 -490l-111 -10l-20 198h-305v-477h596l36 308l140 14l14 -463h-1165zM610 1516v202l174 13v-203z" />
<glyph unicode="&#x117;" horiz-adv-x="1077" d="M98 473q0 272 178 404q116 88 293 88q191 0 304.5 -106t113.5 -284q0 -68 -22 -145l-672 -2q7 -148 94 -225.5t227 -77.5q167 0 283 96l53 -63q-114 -181 -379 -181q-223 0 -350 136q-123 138 -123 360zM293 545h528q-5 138 -72.5 216.5t-185.5 78.5q-111 0 -194 -45 q-67 -98 -76 -250zM477 1126v203l174 12v-202z" />
<glyph unicode="&#x118;" horiz-adv-x="1341" d="M76 0l10 113l162 28v1098l-172 31l10 110h1137l-15 -426l-137 -16l-37 301h-579v-483h299l-11 153l164 11l-16 -490l-111 -10l-20 198h-305v-477h596l36 308l140 14l14 -463q-78 -29 -123 -78.5t-45 -101.5q0 -49 40 -81t97 -32h82l-10 -88l-111 -20q-112 0 -176.5 53.5 t-64.5 134.5q0 62 39 117.5t106 81.5v14h-999z" />
<glyph unicode="&#x119;" horiz-adv-x="1077" d="M98 473q0 272 178 404q116 88 293 88q191 0 304.5 -106t113.5 -284q0 -68 -22 -145l-672 -2q7 -148 94 -225.5t227 -77.5q167 0 283 96l53 -63q-88 -137 -270 -172q-75 -26 -117.5 -73t-42.5 -101q0 -44 40.5 -74.5t96.5 -30.5h82l-10 -88l-111 -20q-114 0 -177.5 50.5 t-63.5 131.5q0 130 137 182v14q-196 19 -306 152t-110 344zM293 545h528q-5 138 -72.5 216.5t-185.5 78.5q-111 0 -194 -45q-67 -98 -76 -250z" />
<glyph unicode="&#x11a;" horiz-adv-x="1341" d="M76 0l10 113l162 28v1098l-172 31l10 110h1137l-15 -426l-137 -16l-37 301h-579v-483h299l-11 153l164 11l-16 -490l-111 -10l-20 198h-305v-477h596l36 308l140 14l14 -463h-1165zM395 1829l74 74l215 -207h27l215 207l73 -74l-241 -313h-121z" />
<glyph unicode="&#x11b;" horiz-adv-x="1077" d="M98 473q0 272 178 404q116 88 293 88q191 0 304.5 -106t113.5 -284q0 -68 -22 -145l-672 -2q7 -148 94 -225.5t227 -77.5q167 0 283 96l53 -63q-114 -181 -379 -181q-223 0 -350 136q-123 138 -123 360zM262 1440l74 73l215 -206h27l215 206l73 -73l-241 -314h-121z M293 545h528q-5 138 -72.5 216.5t-185.5 78.5q-111 0 -194 -45q-67 -98 -76 -250z" />
<glyph unicode="&#x11c;" horiz-adv-x="1492" d="M119 696q0 208 73.5 362t210.5 240q169 105 402 105q246 0 467 -96l-15 -400l-141 -14l-39 315q-107 52 -272 52q-158 0 -303 -62q-168 -189 -168 -504q0 -256 123 -415q127 -160 354 -160q156 0 291 63v332l-340 31l12 112h651l-10 -110l-133 -33v-381 q-190 -156 -485 -156q-329 0 -504 193q-174 192 -174 526zM489 1589l242 314h121l242 -314l-74 -73l-215 206h-27l-215 -206z" />
<glyph unicode="&#x11d;" horiz-adv-x="1175" d="M90 -109q0 126 111 197v14q-37 43 -37 105q0 115 94 203v12q-117 70 -117 223t123 236q125 84 297 84q138 0 238 -50l278 50l29 -150h-178l-6 -12q71 -77 71 -174q0 -147 -125 -223t-297 -76q-111 0 -198 35q-41 -47 -41 -111q0 -84 82 -84h284q416 0 416 -254 q0 -85 -46.5 -148t-129.5 -96q-145 -59 -350 -59q-239 0 -371 78q-127 77 -127 200zM260 1200l242 313h121l241 -313l-73 -74l-216 207h-26l-215 -207zM274 -96q0 -174 320 -174q171 0 293 32q31 51 31 117q0 158 -240 158h-354q-50 -62 -50 -133zM332 649q0 -96 69 -150.5 t183 -54.5q123 0 182 41q37 81 37 150q0 98 -67.5 156.5t-184.5 58.5q-104 0 -180 -43q-39 -68 -39 -158z" />
<glyph unicode="&#x11e;" horiz-adv-x="1492" d="M119 696q0 208 73.5 362t210.5 240q169 105 402 105q246 0 467 -96l-15 -400l-141 -14l-39 315q-107 52 -272 52q-158 0 -303 -62q-168 -189 -168 -504q0 -256 123 -415q127 -160 354 -160q156 0 291 63v332l-340 31l12 112h651l-10 -110l-133 -33v-381 q-190 -156 -485 -156q-329 0 -504 193q-174 192 -174 526zM481 1749l160 12q18 -48 54.5 -79t79.5 -38.5t85.5 1t77.5 39.5t51 77l109 -12q-26 -110 -109.5 -171.5t-195.5 -61.5q-114 0 -201 62t-111 171z" />
<glyph unicode="&#x11f;" horiz-adv-x="1175" d="M90 -109q0 126 111 197v14q-37 43 -37 105q0 115 94 203v12q-117 70 -117 223t123 236q125 84 297 84q138 0 238 -50l278 50l29 -150h-178l-6 -12q71 -77 71 -174q0 -147 -125 -223t-297 -76q-111 0 -198 35q-41 -47 -41 -111q0 -84 82 -84h284q416 0 416 -254 q0 -85 -46.5 -148t-129.5 -96q-145 -59 -350 -59q-239 0 -371 78q-127 77 -127 200zM254 1360l160 12q18 -48 54.5 -79t79.5 -38.5t85.5 1t77.5 39.5t51 77l108 -12q-26 -110 -109.5 -172t-195.5 -62q-114 0 -200.5 62.5t-110.5 171.5zM274 -96q0 -174 320 -174 q171 0 293 32q31 51 31 117q0 158 -240 158h-354q-50 -62 -50 -133zM332 649q0 -96 69 -150.5t183 -54.5q123 0 182 41q37 81 37 150q0 98 -67.5 156.5t-184.5 58.5q-104 0 -180 -43q-39 -68 -39 -158z" />
<glyph unicode="&#x120;" horiz-adv-x="1492" d="M119 696q0 208 73.5 362t210.5 240q169 105 402 105q246 0 467 -96l-15 -400l-141 -14l-39 315q-107 52 -272 52q-158 0 -303 -62q-168 -189 -168 -504q0 -256 123 -415q127 -160 354 -160q156 0 291 63v332l-340 31l12 112h651l-10 -110l-133 -33v-381 q-190 -156 -485 -156q-329 0 -504 193q-174 192 -174 526zM705 1516v202l174 13v-203z" />
<glyph unicode="&#x121;" horiz-adv-x="1175" d="M90 -109q0 126 111 197v14q-37 43 -37 105q0 115 94 203v12q-117 70 -117 223t123 236q125 84 297 84q138 0 238 -50l278 50l29 -150h-178l-6 -12q71 -77 71 -174q0 -147 -125 -223t-297 -76q-111 0 -198 35q-41 -47 -41 -111q0 -84 82 -84h284q416 0 416 -254 q0 -85 -46.5 -148t-129.5 -96q-145 -59 -350 -59q-239 0 -371 78q-127 77 -127 200zM274 -96q0 -174 320 -174q171 0 293 32q31 51 31 117q0 158 -240 158h-354q-50 -62 -50 -133zM332 649q0 -96 69 -150.5t183 -54.5q123 0 182 41q37 81 37 150q0 98 -67.5 156.5 t-184.5 58.5q-104 0 -180 -43q-39 -68 -39 -158zM498 1126v203l174 12v-202z" />
<glyph unicode="&#x122;" horiz-adv-x="1492" d="M119 696q0 208 73.5 362t210.5 240q169 105 402 105q246 0 467 -96l-15 -400l-141 -14l-39 315q-107 52 -272 52q-158 0 -303 -62q-168 -189 -168 -504q0 -256 123 -415q127 -160 354 -160q156 0 291 63v332l-340 31l12 112h651l-10 -110l-133 -33v-381 q-190 -156 -485 -156q-329 0 -504 193q-174 192 -174 526zM672 -221l14 112h150q24 -41 24 -96q0 -61 -31 -114t-81 -78l-39 43q28 28 28 69q0 26 -18 45t-47 19z" />
<glyph unicode="&#x123;" horiz-adv-x="1175" d="M90 -109q0 126 111 197v14q-37 43 -37 105q0 115 94 203v12q-117 70 -117 223t123 236q125 84 297 84q138 0 238 -50l278 50l29 -150h-178l-6 -12q71 -77 71 -174q0 -147 -125 -223t-297 -76q-111 0 -198 35q-41 -47 -41 -111q0 -84 82 -84h284q416 0 416 -254 q0 -85 -46.5 -148t-129.5 -96q-145 -59 -350 -59q-239 0 -371 78q-127 77 -127 200zM274 -96q0 -174 320 -174q171 0 293 32q31 51 31 117q0 158 -240 158h-354q-50 -62 -50 -133zM332 649q0 -96 69 -150.5t183 -54.5q123 0 182 41q37 81 37 150q0 98 -67.5 156.5 t-184.5 58.5q-104 0 -180 -43q-39 -68 -39 -158zM461 1241q0 75 37 139t98 95l49 -54q-35 -35 -35 -82q0 -32 20.5 -53.5t55.5 -21.5l-16 -138h-181q-28 54 -28 115z" />
<glyph unicode="&#x124;" horiz-adv-x="1603" d="M76 0l10 113l162 28v1098l-172 31l10 110h582l-11 -110l-198 -31v-471h686v471l-207 31l10 110h580l-10 -110l-162 -31v-1098l172 -28l-10 -113h-580l10 113l197 28v482h-686v-482l209 -28l-11 -113h-581zM500 1638l241 314h121l242 -314l-74 -73l-215 207h-27l-215 -207 z" />
<glyph unicode="&#x125;" horiz-adv-x="1253" d="M76 0l10 102l139 27v1122l-149 27l10 102l307 23l23 -117v-510h12l117 144q79 28 160 28q337 0 337 -362v-457l150 -27l-10 -102h-328v551q0 244 -203 244q-148 0 -235 -152v-514l155 -27l-10 -102h-485zM317 1638l242 314h121l242 -314l-74 -73l-215 207h-27l-215 -207z " />
<glyph unicode="&#x126;" horiz-adv-x="1603" d="M76 0l10 113l162 28v783h-158l10 108h148v207l-172 31l10 110h582l-11 -110l-198 -31v-207h686v207l-207 31l10 110h580l-10 -110l-162 -31v-207h157l-10 -108h-147v-783l172 -28l-10 -113h-580l10 113l197 28v459h-686v-459l209 -28l-11 -113h-581zM459 733h686v191 h-686v-191z" />
<glyph unicode="&#x127;" horiz-adv-x="1253" d="M76 0l10 102l139 27v901h-149l10 103h139v129l-149 22l10 96l307 23l23 -117v-153h282l-10 -103h-272v-297h12l117 144q70 28 160 28q337 0 337 -362v-414l150 -27l-10 -102h-328v510q0 242 -203 242q-148 0 -235 -152v-471l155 -27l-10 -102h-485z" />
<glyph unicode="&#x128;" horiz-adv-x="708" d="M33 1559q0 74 46 120.5t128 46.5q41 0 94 -16q35 -9 113.5 -38t105.5 -36l76 93l80 -46q0 -75 -46 -121t-126 -46q-47 0 -96 14q-38 10 -118 40t-100 36l-75 -93zM76 0l10 113l162 28v1098l-172 31l10 110h545l-10 -110l-162 -31v-1098l172 -28l-10 -113h-545z" />
<glyph unicode="&#x129;" horiz-adv-x="636" d="M27 1171q0 73 44 116.5t122 43.5q35 0 81 -16q48 -15 68 -27l84 -47l76 90l73 -45q0 -73 -42.5 -116.5t-120.5 -43.5q-86 0 -234 91l-76 -93zM88 0l10 102l140 27v684l-150 27l10 102l297 23l31 -152v-684l149 -27l-10 -102h-477z" />
<glyph unicode="&#x12a;" horiz-adv-x="708" d="M70 1516l12 129h577l-14 -129h-575zM76 0l10 113l162 28v1098l-172 31l10 110h545l-10 -110l-162 -31v-1098l172 -28l-10 -113h-545z" />
<glyph unicode="&#x12b;" horiz-adv-x="636" d="M45 1126l14 129h486l-15 -129h-485zM88 0l10 102l140 27v684l-150 27l10 102l297 23l31 -152v-684l149 -27l-10 -102h-477z" />
<glyph unicode="&#x12c;" horiz-adv-x="708" d="M45 1749l160 12q18 -48 54.5 -79t79.5 -38.5t85.5 1t77.5 39.5t51 77l109 -12q-26 -110 -110 -171.5t-196 -61.5q-114 0 -200.5 62t-110.5 171zM76 0l10 113l162 28v1098l-172 31l10 110h545l-10 -110l-162 -31v-1098l172 -28l-10 -113h-545z" />
<glyph unicode="&#x12d;" horiz-adv-x="636" d="M43 1339l141 13q41 -103 144 -103q49 0 86 27.5t49 75.5l94 -13q-13 -104 -80 -158.5t-172 -54.5q-104 0 -174 55t-88 158zM88 0l10 102l140 27v684l-150 27l10 102l297 23l31 -152v-684l149 -27l-10 -102h-477z" />
<glyph unicode="&#x12e;" horiz-adv-x="708" d="M76 0l10 113l162 28v1098l-172 31l10 110h545l-10 -110l-162 -31v-1098l172 -28l-10 -113q-78 -29 -122 -78.5t-44 -101.5q0 -49 40 -81t97 -32h82l-10 -88l-111 -20q-112 0 -177 53.5t-65 134.5q0 62 39.5 117.5t106.5 81.5v14h-381z" />
<glyph unicode="&#x12f;" horiz-adv-x="636" d="M88 0l10 102l140 27v684l-150 27l10 102l297 23l31 -152v-684l149 -27l-10 -102q-79 -30 -124.5 -79t-45.5 -101q0 -49 40 -81t97 -32h82l-10 -88l-110 -20q-112 0 -177 53.5t-65 134.5q0 62 39 117.5t106 81.5v14h-309zM221 1106v221l201 16v-223z" />
<glyph unicode="&#x130;" horiz-adv-x="708" d="M76 0l10 113l162 28v1098l-172 31l10 110h545l-10 -110l-162 -31v-1098l172 -28l-10 -113h-545zM268 1516v202l174 13v-203z" />
<glyph unicode="&#x131;" horiz-adv-x="636" d="M88 0l10 102l140 27v684l-150 27l10 102l297 23l31 -152v-684l149 -27l-10 -102h-477z" />
<glyph unicode="&#x132;" horiz-adv-x="1492" d="M76 0l10 113l162 28v1098l-172 31l10 110h545l-10 -110l-162 -31v-1098l172 -28l-10 -113h-545zM788 -303l11 110q146 56 217 130q31 102 31 307v995l-181 31l11 110h538l-10 -110l-148 -31v-971q0 -294 -141 -432q-97 -106 -305 -162z" />
<glyph unicode="&#x133;" horiz-adv-x="1273" d="M88 0l10 102l140 27v684l-150 27l10 102l297 23l31 -152v-684l149 -27l-10 -102h-477zM221 1106v221l201 16v-223zM748 -365l8 107q94 37 137 86q29 95 29 293v692l-150 27l10 102l295 23l35 -174v-648q0 -271 -76 -381q-71 -103 -264 -149zM895 1106v221l203 16v-223z " />
<glyph unicode="&#x134;" horiz-adv-x="747" d="M43 -303l10 110q146 56 217 130q31 102 31 307v995l-180 31l10 110h539l-11 -110l-147 -31v-971q0 -294 -141 -432q-97 -106 -305 -162zM102 1589l242 314h121l242 -314l-74 -73l-215 206h-27l-215 -206z" />
<glyph unicode="&#x135;" horiz-adv-x="589" d="M29 1188l200 272h121l199 -272l-72 -62l-174 154h-29l-174 -154zM63 -365l9 107q94 37 137 86q29 95 29 293v692l-150 27l10 102l295 23l35 -174v-648q0 -271 -76 -381q-71 -103 -264 -149z" />
<glyph unicode="&#x136;" horiz-adv-x="1486" d="M76 0l10 113l162 28v1098l-172 31l10 110h541l-11 -110l-157 -31v-1098l184 -28l-12 -113h-555zM543 643l10 105l475 491l-162 31l13 110h557l-13 -110l-159 -31l-510 -526q229 -307 528 -572l170 -28l-10 -113h-320q-334 302 -579 643zM641 -231l14 112h150 q24 -41 24 -96q0 -61 -31 -114.5t-81 -78.5l-39 43q29 29 29 70q0 26 -18 45t-48 19z" />
<glyph unicode="&#x137;" horiz-adv-x="1204" d="M61 0l11 102l139 27v1122l-150 27l11 102l305 23l24 -117v-1157l142 -27l-11 -102h-471zM483 430l11 94l286 291l-137 27l10 100h473l-10 -102l-123 -27l-323 -326q158 -206 344 -360l133 -25l-10 -102h-258q-230 194 -396 430zM565 -231l15 112h149q25 -42 25 -96 q0 -61 -31.5 -114.5t-81.5 -78.5l-39 43q29 29 29 70q0 26 -18 45t-48 19z" />
<glyph unicode="&#x138;" horiz-adv-x="1204" d="M61 0l11 102l139 27v684l-150 27l11 102l305 23l24 -142v-694l142 -27l-11 -102h-471zM483 430l11 94l284 289l-135 29l10 100h473l-10 -102l-123 -27l-323 -326q158 -206 344 -360l133 -25l-10 -102h-258q-230 194 -396 430z" />
<glyph unicode="&#x139;" horiz-adv-x="1253" d="M76 0l10 113l162 28v1098l-172 29l10 112h588l-12 -112l-203 -29v-1098h522l39 308l143 14l13 -463h-1100zM276 1595l269 322l133 -131l-322 -270z" />
<glyph unicode="&#x13a;" horiz-adv-x="649" d="M88 0l10 102l140 27v1122l-150 27l10 102l299 23l29 -152v-1122l149 -27l-10 -102h-477zM248 1595l268 322l133 -131l-321 -270z" />
<glyph unicode="&#x13b;" horiz-adv-x="1253" d="M76 0l10 113l162 28v1098l-172 29l10 112h588l-12 -112l-203 -29v-1098h522l39 308l143 14l13 -463h-1100zM514 -231l14 112h150q24 -41 24 -96q0 -61 -31 -114.5t-81 -78.5l-39 43q29 29 29 70q0 26 -18 45t-48 19z" />
<glyph unicode="&#x13c;" horiz-adv-x="643" d="M88 0l10 102l140 27v1122l-150 27l10 102l299 23l29 -152v-1122l149 -27l-10 -102h-477zM236 -231l14 112h149q25 -42 25 -96q0 -61 -31.5 -114.5t-81.5 -78.5l-39 43q29 29 29 70q0 26 -18 45t-47 19z" />
<glyph unicode="&#x13d;" horiz-adv-x="1253" d="M53 1829l74 74l215 -207h27l215 207l73 -74l-241 -313h-121zM76 0l10 113l162 28v1098l-172 29l10 112h588l-12 -112l-203 -29v-1098h522l39 308l143 14l13 -463h-1100z" />
<glyph unicode="&#x13e;" horiz-adv-x="706" d="M88 0l10 102l140 27v1122l-150 27l10 102l299 23l29 -152v-1122l149 -27l-10 -102h-477zM528 1266l13 114h133q33 -42 33 -110q0 -65 -35 -121.5t-90 -83.5l-35 43q39 33 39 88q0 52 -58 70z" />
<glyph unicode="&#x13f;" horiz-adv-x="1253" d="M76 0l10 113l162 28v1098l-172 29l10 112h588l-12 -112l-203 -29v-1098h522l39 308l143 14l13 -463h-1100zM680 635v194l168 13v-197z" />
<glyph unicode="&#x140;" horiz-adv-x="700" d="M88 0l10 102l140 27v1122l-150 27l10 102l299 23l29 -152v-1122l149 -27l-10 -102h-477zM528 618v203l174 13v-203z" />
<glyph unicode="&#x141;" horiz-adv-x="1253" d="M76 0l10 113l162 28v391l-170 -88l10 144l160 84v567l-172 29l10 112h588l-12 -112l-203 -29v-469l239 125l-10 -145l-229 -119v-490h522l39 308l143 14l13 -463h-1100z" />
<glyph unicode="&#x142;" horiz-adv-x="643" d="M80 571l10 119l148 64v497l-150 27l10 102l299 23l29 -152v-422l147 66l-10 -119l-137 -59v-588l149 -27l-10 -102h-477l10 102l140 27v510z" />
<glyph unicode="&#x143;" horiz-adv-x="1566" d="M66 0l10 113l162 28v1098l-172 31l10 110h375l698 -1061h12v920l-205 31l11 110h546l-10 -110l-164 -31v-1239h-196l-713 1077h-12v-936l213 -28l-10 -113h-555zM580 1645l268 321l133 -131l-322 -270z" />
<glyph unicode="&#x144;" horiz-adv-x="1251" d="M76 0l10 102l139 27v684l-149 27l10 102l295 23l27 -172h14l123 143q85 29 174 29q172 0 245.5 -88.5t73.5 -262.5v-485l150 -27l-10 -102h-328v582q0 229 -186 229q-152 0 -248 -152v-530l155 -27l-10 -102h-485zM571 1206l269 322l133 -131l-322 -271z" />
<glyph unicode="&#x145;" horiz-adv-x="1566" d="M66 0l10 113l162 28v1098l-172 31l10 110h375l698 -1061h12v920l-205 31l11 110h546l-10 -110l-164 -31v-1239h-196l-713 1077h-12v-936l213 -28l-10 -113h-555zM686 -231l14 112h150q24 -41 24 -96q0 -61 -31 -114.5t-81 -78.5l-39 43q29 29 29 70q0 26 -18 45t-48 19z " />
<glyph unicode="&#x146;" horiz-adv-x="1251" d="M76 0l10 102l139 27v684l-149 27l10 102l295 23l27 -172h14l123 143q85 29 174 29q172 0 245.5 -88.5t73.5 -262.5v-485l150 -27l-10 -102h-328v582q0 229 -186 229q-152 0 -248 -152v-530l155 -27l-10 -102h-485zM537 -231l14 112h149q25 -42 25 -96q0 -61 -31.5 -114.5 t-81.5 -78.5l-39 43q29 29 29 70q0 26 -18 45t-47 19z" />
<glyph unicode="&#x147;" horiz-adv-x="1566" d="M66 0l10 113l162 28v1098l-172 31l10 110h375l698 -1061h12v920l-205 31l11 110h546l-10 -110l-164 -31v-1239h-196l-713 1077h-12v-936l213 -28l-10 -113h-555zM422 1833l74 74l215 -207h26l215 207l74 -74l-242 -313h-120z" />
<glyph unicode="&#x148;" horiz-adv-x="1251" d="M76 0l10 102l139 27v684l-149 27l10 102l295 23l27 -172h14l123 143q85 29 174 29q172 0 245.5 -88.5t73.5 -262.5v-485l150 -27l-10 -102h-328v582q0 229 -186 229q-152 0 -248 -152v-530l155 -27l-10 -102h-485zM295 1440l74 73l215 -206h26l215 206l74 -73l-242 -314 h-120z" />
<glyph unicode="&#x149;" horiz-adv-x="1409" d="M0 940q63 57 63 135q0 72 -51 92l13 129h147q33 -44 33 -127q0 -90 -52 -167.5t-122 -104.5zM233 0l11 102l139 27v684l-150 27l11 102l295 23l26 -172h15l122 143q85 29 175 29q172 0 245.5 -88.5t73.5 -262.5v-485l150 -27l-11 -102h-327v582q0 229 -187 229 q-152 0 -248 -152v-530l156 -27l-10 -102h-486z" />
<glyph unicode="&#x14a;" horiz-adv-x="1566" d="M66 0l10 113l162 28v1098l-172 31l10 110h375l698 -1061h12v920l-205 31l11 110h546l-10 -110l-164 -31v-1192q0 -404 -372 -434l-25 22l8 107q196 27 199 260l-719 1075h-12v-936l213 -28l-10 -113h-555z" />
<glyph unicode="&#x14b;" horiz-adv-x="1101" d="M76 0l10 102l139 27v684l-149 27l10 102l295 23l27 -172h14l123 143q85 29 174 29q172 0 245.5 -88.5t73.5 -262.5v-585q0 -386 -370 -416l-27 22l10 107q199 30 199 258v582q0 229 -186 229q-152 0 -248 -152v-530l155 -27l-10 -102h-485z" />
<glyph unicode="&#x14c;" horiz-adv-x="1595" d="M119 696q0 426 284 607q156 100 394 100q321 0 501 -189q179 -188 179 -520q0 -210 -72.5 -368.5t-206.5 -245.5q-161 -103 -397 -103q-326 0 -504 193t-178 526zM344 694q0 -256 119 -418q120 -159 364 -159q134 0 271 61q72 90 112.5 226.5t40.5 283.5q0 245 -121 410 q-120 164 -360 164q-139 0 -268 -60q-158 -190 -158 -508zM506 1516l12 129h578l-15 -129h-575z" />
<glyph unicode="&#x14d;" horiz-adv-x="1153" d="M98 471q0 277 183 410q122 84 288 84q221 0 355 -134q131 -131 131 -360q0 -281 -181 -410q-122 -84 -292 -84q-223 0 -353.5 133t-130.5 361zM260 1126l12 129h578l-14 -129h-576zM299 477q0 -183 83.5 -275.5t219.5 -92.5q106 0 174 47q78 132 78 307q0 190 -88 278 q-87 90 -207 90q-100 0 -180 -45q-80 -121 -80 -309z" />
<glyph unicode="&#x14e;" horiz-adv-x="1595" d="M119 696q0 426 284 607q156 100 394 100q321 0 501 -189q179 -188 179 -520q0 -210 -72.5 -368.5t-206.5 -245.5q-161 -103 -397 -103q-326 0 -504 193t-178 526zM344 694q0 -256 119 -418q120 -159 364 -159q134 0 271 61q72 90 112.5 226.5t40.5 283.5q0 245 -121 410 q-120 164 -360 164q-139 0 -268 -60q-158 -190 -158 -508zM485 1749l160 12q18 -48 54.5 -79t79.5 -38.5t85.5 1t77.5 39.5t51 77l109 -12q-26 -110 -109.5 -171.5t-195.5 -61.5q-114 0 -201 62t-111 171z" />
<glyph unicode="&#x14f;" horiz-adv-x="1153" d="M98 471q0 277 183 410q122 84 288 84q221 0 355 -134q131 -131 131 -360q0 -281 -181 -410q-122 -84 -292 -84q-223 0 -353.5 133t-130.5 361zM244 1360l159 12q23 -60 73.5 -92t104 -31t102.5 33t69 90l108 -12q-26 -110 -109.5 -172t-195.5 -62q-114 0 -200.5 62.5 t-110.5 171.5zM299 477q0 -183 83.5 -275.5t219.5 -92.5q106 0 174 47q78 132 78 307q0 190 -88 278q-87 90 -207 90q-100 0 -180 -45q-80 -121 -80 -309z" />
<glyph unicode="&#x150;" horiz-adv-x="1595" d="M119 696q0 426 284 607q156 100 394 100q321 0 501 -189q179 -188 179 -520q0 -210 -72.5 -368.5t-206.5 -245.5q-161 -103 -397 -103q-326 0 -504 193t-178 526zM344 694q0 -256 119 -418q120 -159 364 -159q134 0 271 61q72 90 112.5 226.5t40.5 283.5q0 245 -121 410 q-120 164 -360 164q-139 0 -268 -60q-158 -190 -158 -508zM537 1595l227 322l102 -88v-55l-250 -258zM874 1595l226 322l133 -119l-281 -282z" />
<glyph unicode="&#x151;" horiz-adv-x="1153" d="M98 471q0 277 183 410q122 84 288 84q221 0 355 -134q131 -131 131 -360q0 -281 -181 -410q-122 -84 -292 -84q-223 0 -353.5 133t-130.5 361zM295 1206l227 322l103 -88v-56l-250 -258zM299 477q0 -183 83.5 -275.5t219.5 -92.5q106 0 174 47q78 132 78 307 q0 190 -88 278q-87 90 -207 90q-100 0 -180 -45q-80 -121 -80 -309zM633 1206l225 322l133 -119l-280 -283z" />
<glyph unicode="&#x152;" horiz-adv-x="2023" d="M119 686q0 323 168 518q169 199 473 199q170 0 305 -66h12l47 43h781l-15 -426l-131 -16l-37 301h-551v-489h277l-10 159l153 11l-14 -490l-102 -10l-21 198h-283v-477h568l39 308l131 14l14 -463h-803l-43 39l-14 2q-128 -64 -297 -64q-308 0 -477 193 q-170 194 -170 516zM330 692q0 -271 112.5 -423t329.5 -152q103 0 203 33v1067q-102 45 -217 45q-155 0 -266 -60q-162 -186 -162 -510z" />
<glyph unicode="&#x153;" horiz-adv-x="1779" d="M106 469q0 219 119 356q122 140 330 140q246 0 352 -189h15q112 189 360 189q180 0 287 -107q110 -107 110 -283q0 -68 -22 -145h-645q10 -150 94 -232.5t215 -82.5q160 0 270 96l51 -61q-105 -173 -348 -173q-255 0 -370 189h-15q-109 -189 -352 -189q-203 0 -328 134 q-123 132 -123 358zM299 473q0 -177 75 -266.5t195 -89.5q92 0 181 45q75 124 75 313q0 176 -75.5 268.5t-192.5 92.5q-102 0 -182 -45q-76 -113 -76 -318zM1010 545h499q0 135 -64.5 213t-176.5 78q-100 0 -185 -48q-64 -91 -73 -243z" />
<glyph unicode="&#x154;" horiz-adv-x="1427" d="M76 0l10 113l162 28v1098l-172 29l10 112h592q126 0 217.5 -15t179.5 -54q95 -39 147 -124.5t52 -211.5q0 -171 -92.5 -273.5t-243.5 -130.5l-4 -10q47 -106 131 -227q82 -119 160 -193l164 -28l-13 -113h-311q-239 288 -358 553l-154 29l10 112h146q181 0 276 39 q70 101 70 225q0 281 -353 281h-245v-1098l182 -28l-10 -113h-553zM582 1595l268 322l133 -131l-321 -270z" />
<glyph unicode="&#x155;" horiz-adv-x="1007" d="M76 0l10 102l139 27v684l-149 27l10 102l295 23l27 -170v-41h14l113 149q112 62 258 62q74 0 147 -13l-25 -329l-135 -13l-20 195q-252 0 -344 -244v-432l180 -27l-10 -102h-510zM451 1206l268 322l133 -131l-322 -271z" />
<glyph unicode="&#x156;" horiz-adv-x="1427" d="M76 0l10 113l162 28v1098l-172 29l10 112h592q126 0 217.5 -15t179.5 -54q95 -39 147 -124.5t52 -211.5q0 -171 -92.5 -273.5t-243.5 -130.5l-4 -10q47 -106 131 -227q82 -119 160 -193l164 -28l-13 -113h-311q-239 288 -358 553l-154 29l10 112h146q181 0 276 39 q70 101 70 225q0 281 -353 281h-245v-1098l182 -28l-10 -113h-553zM676 -221l14 112h150q24 -41 24 -96q0 -61 -31 -114t-81 -78l-39 43q28 28 28 69q0 26 -18 45t-47 19z" />
<glyph unicode="&#x157;" horiz-adv-x="1007" d="M76 0l10 102l139 27v684l-149 27l10 102l295 23l27 -170v-41h14l113 149q112 62 258 62q74 0 147 -13l-25 -329l-135 -13l-20 195q-252 0 -344 -244v-432l180 -27l-10 -102h-510zM229 -231l15 112h149q25 -42 25 -96q0 -61 -31.5 -114.5t-81.5 -78.5l-39 43q29 29 29 70 q0 26 -18 45t-48 19z" />
<glyph unicode="&#x158;" horiz-adv-x="1427" d="M76 0l10 113l162 28v1098l-172 29l10 112h592q126 0 217.5 -15t179.5 -54q95 -39 147 -124.5t52 -211.5q0 -171 -92.5 -273.5t-243.5 -130.5l-4 -10q47 -106 131 -227q82 -119 160 -193l164 -28l-13 -113h-311q-239 288 -358 553l-154 29l10 112h146q181 0 276 39 q70 101 70 225q0 281 -353 281h-245v-1098l182 -28l-10 -113h-553zM350 1829l74 74l215 -207h27l215 207l73 -74l-241 -313h-121z" />
<glyph unicode="&#x159;" horiz-adv-x="1007" d="M76 0l10 102l139 27v684l-149 27l10 102l295 23l27 -170v-41h14l113 149q112 62 258 62q74 0 147 -13l-25 -329l-135 -13l-20 195q-252 0 -344 -244v-432l180 -27l-10 -102h-510zM219 1440l74 73l215 -206h27l215 206l73 -73l-241 -314h-121z" />
<glyph unicode="&#x15a;" horiz-adv-x="1282" d="M119 1034q0 215 196 309q129 60 324 60q241 0 463 -86l-31 -359l-143 -14l-21 273q-136 40 -278 40q-135 0 -226 -30q-67 -82 -67 -166q0 -79 72 -143q34 -27 90 -50l100 -37q43 -14 125 -36q94 -26 151.5 -48t120.5 -57q98 -48 147.5 -124t53.5 -193q0 -227 -199 -326 q-143 -70 -383 -70q-266 0 -489 97l31 383l143 10l20 -287q127 -53 302 -53q155 0 276 39q70 70 70 182q0 86 -68 146q-25 25 -84 49q-60 28 -98 39q-35 14 -121 39q-94 29 -145 47q-64 24 -127 55q-100 52 -149.5 125t-55.5 186zM567 1595l269 322l133 -131l-322 -270z" />
<glyph unicode="&#x15b;" horiz-adv-x="1054" d="M98 690q0 148 127 219q106 56 291 56q195 0 387 -76l-26 -234l-142 -12l-22 164q-91 31 -211 31q-82 0 -176 -17q-45 -54 -45 -112q0 -68 57 -95.5t223 -54.5q153 -23 236 -55q87 -31 129.5 -86.5t48.5 -151.5q0 -140 -121 -217q-113 -72 -322 -72q-235 0 -421 82l26 250 l144 15l20 -183q90 -37 240 -37q93 0 196 25q43 52 43 115q0 69 -54 99t-204 58l-137 27q-1 0 -111 33q-68 24 -98 51q-78 70 -78 178zM455 1206l268 322l133 -131l-321 -271z" />
<glyph unicode="&#x15c;" horiz-adv-x="1282" d="M119 1034q0 215 196 309q129 60 324 60q241 0 463 -86l-31 -359l-143 -14l-21 273q-136 40 -278 40q-135 0 -226 -30q-67 -82 -67 -166q0 -79 72 -143q34 -27 90 -50l100 -37q43 -14 125 -36q94 -26 151.5 -48t120.5 -57q98 -48 147.5 -124t53.5 -193q0 -227 -199 -326 q-143 -70 -383 -70q-266 0 -489 97l31 383l143 10l20 -287q127 -53 302 -53q155 0 276 39q70 70 70 182q0 86 -68 146q-25 25 -84 49q-60 28 -98 39q-35 14 -121 39q-94 29 -145 47q-64 24 -127 55q-100 52 -149.5 125t-55.5 186zM346 1589l242 314h121l241 -314l-73 -73 l-215 206h-27l-215 -206z" />
<glyph unicode="&#x15d;" horiz-adv-x="1054" d="M98 690q0 148 127 219q106 56 291 56q195 0 387 -76l-26 -234l-142 -12l-22 164q-91 31 -211 31q-82 0 -176 -17q-45 -54 -45 -112q0 -68 57 -95.5t223 -54.5q153 -23 236 -55q87 -31 129.5 -86.5t48.5 -151.5q0 -140 -121 -217q-113 -72 -322 -72q-235 0 -421 82l26 250 l144 15l20 -183q90 -37 240 -37q93 0 196 25q43 52 43 115q0 69 -54 99t-204 58l-137 27q-1 0 -111 33q-68 24 -98 51q-78 70 -78 178zM231 1200l242 313h121l242 -313l-74 -74l-215 207h-27l-215 -207z" />
<glyph unicode="&#x15e;" horiz-adv-x="1282" d="M119 1034q0 215 196 309q129 60 324 60q241 0 463 -86l-31 -359l-143 -14l-21 273q-136 40 -278 40q-135 0 -226 -30q-67 -82 -67 -166q0 -75 70 -141q34 -27 90 -50q60 -25 100 -39q42 -10 127 -36q91 -27 184 -64q70 -28 144 -76q145 -96 145 -282q0 -227 -199 -326 q-128 -61 -313 -70l-80 -98l8 -14q215 -9 215 -156q0 -97 -82.5 -161t-212.5 -64l-106 14l10 76q242 0 242 113q0 92 -205 92l-33 45l125 153q-247 9 -440 97l31 383l143 10l20 -287q127 -53 302 -53q155 0 276 39q70 70 70 182q0 86 -68 146q-25 25 -84 49q-60 28 -98 39 q-35 14 -121 39q-54 16 -143 47q-52 18 -125 55q-76 39 -113 76q-42 42 -69 103t-27 132z" />
<glyph unicode="&#x15f;" horiz-adv-x="1054" d="M98 690q0 148 127 219q106 56 291 56q195 0 387 -76l-26 -234l-142 -12l-22 164q-91 31 -211 31q-82 0 -176 -17q-45 -54 -45 -112q0 -68 57 -95.5t223 -54.5q153 -23 236 -55q87 -31 129.5 -86.5t48.5 -151.5q0 -140 -121 -217q-104 -66 -285 -72l-80 -98l9 -14 q215 -9 215 -156q0 -97 -82.5 -161t-212.5 -64l-107 14l11 76q241 0 241 113q0 92 -205 92l-32 45l127 153q-197 15 -342 82l26 250l144 15l20 -183q90 -37 240 -37q93 0 196 25q43 52 43 115q0 69 -54 99t-204 58l-137 27q-1 0 -111 33q-68 24 -98 51q-78 70 -78 178z" />
<glyph unicode="&#x160;" horiz-adv-x="1282" d="M119 1034q0 215 196 309q129 60 324 60q241 0 463 -86l-31 -359l-143 -14l-21 273q-136 40 -278 40q-135 0 -226 -30q-67 -82 -67 -166q0 -79 72 -143q34 -27 90 -50l100 -37q43 -14 125 -36q94 -26 151.5 -48t120.5 -57q98 -48 147.5 -124t53.5 -193q0 -227 -199 -326 q-143 -70 -383 -70q-266 0 -489 97l31 383l143 10l20 -287q127 -53 302 -53q155 0 276 39q70 70 70 182q0 86 -68 146q-25 25 -84 49q-60 28 -98 39q-35 14 -121 39q-94 29 -145 47q-64 24 -127 55q-100 52 -149.5 125t-55.5 186zM346 1829l74 74l215 -207h27l215 207 l73 -74l-241 -313h-121z" />
<glyph unicode="&#x161;" horiz-adv-x="1054" d="M98 690q0 148 127 219q106 56 291 56q195 0 387 -76l-26 -234l-142 -12l-22 164q-91 31 -211 31q-82 0 -176 -17q-45 -54 -45 -112q0 -68 57 -95.5t223 -54.5q153 -23 236 -55q87 -31 129.5 -86.5t48.5 -151.5q0 -140 -121 -217q-113 -72 -322 -72q-235 0 -421 82l26 250 l144 15l20 -183q90 -37 240 -37q93 0 196 25q43 52 43 115q0 69 -54 99t-204 58l-137 27q-1 0 -111 33q-68 24 -98 51q-78 70 -78 178zM231 1440l74 73l215 -206h27l215 206l74 -73l-242 -314h-121z" />
<glyph unicode="&#x162;" horiz-adv-x="1413" d="M76 1380h1261l-14 -428l-141 -14l-39 301h-330v-1098l213 -28l-10 -113h-629l10 113l205 28v1098h-332l-37 -287l-143 -14zM612 -231l15 112h149q25 -42 25 -96q0 -61 -31.5 -114.5t-81.5 -78.5l-39 43q29 29 29 70q0 26 -18 45t-48 19z" />
<glyph unicode="&#x163;" horiz-adv-x="776" d="M61 784l11 158h153l35 248l129 14v-262h330l-10 -119l-320 -18v-438q0 -132 71 -194t238 -62l-10 -111q-82 -16 -156 -16q-155 0 -244 91t-89 251v379l41 75v15zM291 -231l14 112h150q24 -41 24 -96q0 -61 -31 -114.5t-81 -78.5l-39 43q28 28 28 70q0 26 -18 45t-47 19z " />
<glyph unicode="&#x164;" horiz-adv-x="1413" d="M76 1380h1261l-14 -428l-141 -14l-39 301h-330v-1098l213 -28l-10 -113h-629l10 113l205 28v1098h-332l-37 -287l-143 -14zM408 1829l73 74l215 -207h27l215 207l74 -74l-242 -313h-121z" />
<glyph unicode="&#x165;" horiz-adv-x="778" d="M61 784l11 158h153l35 248l129 14v-262h330l-10 -119l-320 -18v-438q0 -132 71 -194t238 -62l-10 -111q-82 -16 -156 -16q-155 0 -244 91t-89 251v379l41 75v15zM494 1276l12 115h131q31 -36 31 -95q0 -97 -64 -161h-65l-7 12q20 23 17 72q-9 48 -55 57z" />
<glyph unicode="&#x166;" horiz-adv-x="1413" d="M76 1380h1261l-14 -428l-141 -14l-39 301h-330v-487h301l-10 -117h-291v-494l213 -28l-10 -113h-629l10 113l205 28v494h-305l10 117h295v487h-332l-37 -287l-143 -14z" />
<glyph unicode="&#x167;" horiz-adv-x="770" d="M55 623l11 100h139l4 117h-154l11 102h151l39 248l127 14v-262h330l-11 -102h-319v-117h330l-11 -100h-319v-256q0 -132 71 -194t238 -62l-10 -111q-82 -16 -156 -16q-152 0 -238.5 90.5t-86.5 251.5v297h-146z" />
<glyph unicode="&#x168;" horiz-adv-x="1560" d="M76 1270l10 110h565l-10 -110l-199 -31v-686q0 -207 72 -320q74 -108 283 -108q195 0 323 94q41 121 41 348v672l-211 31l11 110h538l-10 -110l-146 -31v-672q0 -295 -129 -442q-130 -148 -444 -148q-286 0 -412.5 140.5t-126.5 435.5v686zM475 1559q0 74 46 120.5 t128 46.5q41 0 94 -16q35 -9 114 -38t106 -36l75 93l80 -46q0 -75 -46 -121t-126 -46q-47 0 -96 14q-38 10 -117.5 40t-99.5 36l-76 -93z" />
<glyph unicode="&#x169;" d="M39 840l10 102l297 23l31 -152v-446q0 -238 192 -238q151 0 244 152v532l-158 27l11 102l305 23l30 -152v-684l150 -27l-10 -102h-297l-23 143h-14l-123 -137q-74 -24 -164 -24q-170 0 -251 93t-81 259v479zM225 1169q0 74 46 121t128 47q42 0 95 -16q35 -9 113.5 -38 t105.5 -36l75 92l80 -45q0 -75 -46 -121.5t-126 -46.5q-44 0 -96 15q-38 10 -117.5 40t-99.5 36l-76 -93z" />
<glyph unicode="&#x16a;" horiz-adv-x="1560" d="M76 1270l10 110h565l-10 -110l-199 -31v-686q0 -207 72 -320q74 -108 283 -108q195 0 323 94q41 121 41 348v672l-211 31l11 110h538l-10 -110l-146 -31v-672q0 -295 -129 -442q-130 -148 -444 -148q-286 0 -412.5 140.5t-126.5 435.5v686zM502 1516l12 129h578l-15 -129 h-575z" />
<glyph unicode="&#x16b;" d="M39 840l10 102l297 23l31 -152v-446q0 -238 192 -238q151 0 244 152v532l-158 27l11 102l305 23l30 -152v-684l150 -27l-10 -102h-297l-23 143h-14l-123 -137q-74 -24 -164 -24q-170 0 -251 93t-81 259v479zM254 1126l12 129h578l-15 -129h-575z" />
<glyph unicode="&#x16c;" horiz-adv-x="1560" d="M76 1270l10 110h565l-10 -110l-199 -31v-686q0 -207 72 -320q74 -108 283 -108q195 0 323 94q41 121 41 348v672l-211 31l11 110h538l-10 -110l-146 -31v-672q0 -295 -129 -442q-130 -148 -444 -148q-286 0 -412.5 140.5t-126.5 435.5v686zM487 1749l160 12 q18 -48 54.5 -79t79.5 -38.5t85.5 1t77.5 39.5t51 77l109 -12q-26 -110 -109.5 -171.5t-195.5 -61.5q-114 0 -201 62t-111 171z" />
<glyph unicode="&#x16d;" d="M39 840l10 102l297 23l31 -152v-446q0 -238 192 -238q151 0 244 152v532l-158 27l11 102l305 23l30 -152v-684l150 -27l-10 -102h-297l-23 143h-14l-123 -137q-74 -24 -164 -24q-170 0 -251 93t-81 259v479zM238 1360l159 12q18 -48 54.5 -79t79.5 -38.5t85.5 1 t77.5 39.5t51 77l109 -12q-26 -110 -109.5 -172t-195.5 -62q-114 0 -200.5 62.5t-110.5 171.5z" />
<glyph unicode="&#x16e;" horiz-adv-x="1560" d="M76 1270l10 110h565l-10 -110l-199 -31v-686q0 -207 72 -320q74 -108 283 -108q195 0 323 94q41 121 41 348v672l-211 31l11 110h538l-10 -110l-146 -31v-672q0 -295 -129 -442q-130 -148 -444 -148q-286 0 -412.5 140.5t-126.5 435.5v686zM608 1702q0 78 55.5 132 t133.5 54q80 0 135 -54t55 -132t-55 -132t-135 -54q-78 0 -133.5 54t-55.5 132zM703 1702q0 -41 26 -70q26 -26 67.5 -26t67.5 26q29 29 29 70t-29 67q-26 29 -67.5 29t-67.5 -29q-26 -26 -26 -67z" />
<glyph unicode="&#x16f;" d="M39 840l10 102l297 23l31 -152v-446q0 -238 192 -238q151 0 244 152v532l-158 27l11 102l305 23l30 -152v-684l150 -27l-10 -102h-297l-23 143h-14l-123 -137q-74 -24 -164 -24q-170 0 -251 93t-81 259v479zM358 1313q0 78 55.5 132t133.5 54q80 0 135 -54t55 -132 t-55.5 -132.5t-134.5 -54.5q-78 0 -133.5 54.5t-55.5 132.5zM453 1313q0 -41 26 -70q26 -26 67.5 -26t67.5 26q29 29 29 70t-29 67q-26 29 -67.5 29t-67.5 -29q-26 -26 -26 -67z" />
<glyph unicode="&#x170;" horiz-adv-x="1560" d="M76 1270l10 110h565l-10 -110l-199 -31v-686q0 -207 72 -320q74 -108 283 -108q195 0 323 94q41 121 41 348v672l-211 31l11 110h538l-10 -110l-146 -31v-672q0 -295 -129 -442q-130 -148 -444 -148q-286 0 -412.5 140.5t-126.5 435.5v686zM541 1595l227 322l102 -88v-55 l-249 -258zM879 1595l225 322l133 -119l-281 -282z" />
<glyph unicode="&#x171;" d="M39 840l10 102l297 23l31 -152v-446q0 -238 192 -238q151 0 244 152v532l-158 27l11 102l305 23l30 -152v-684l150 -27l-10 -102h-297l-23 143h-14l-123 -137q-74 -24 -164 -24q-170 0 -251 93t-81 259v479zM291 1206l227 322l103 -88v-56l-250 -258zM629 1206l225 322 l133 -119l-280 -283z" />
<glyph unicode="&#x172;" horiz-adv-x="1560" d="M76 1270l10 110h565l-10 -110l-199 -31v-686q0 -207 72 -320q74 -108 283 -108q195 0 323 94q41 121 41 348v672l-211 31l11 110h538l-10 -110l-146 -31v-672q0 -269 -100.5 -410t-333.5 -171q-74 -26 -116.5 -73t-42.5 -101q0 -44 40.5 -74.5t96.5 -30.5h82l-11 -88 l-110 -20q-114 0 -178 51t-64 131q0 61 35.5 110.5t101.5 73.5v12q-272 7 -392 147t-120 429v686z" />
<glyph unicode="&#x173;" d="M39 840l10 102l297 23l31 -152v-446q0 -238 192 -238q151 0 244 152v532l-158 27l11 102l305 23l30 -152v-684l150 -27l-10 -102q-79 -30 -124.5 -79t-45.5 -101q0 -49 40 -81t97 -32h82l-10 -88l-111 -20q-112 0 -177 53.5t-65 134.5q0 62 39.5 117.5t106.5 81.5v14 h-129l-23 143h-14l-123 -137q-74 -24 -164 -24q-170 0 -251 93t-81 259v479z" />
<glyph unicode="&#x174;" horiz-adv-x="1941" d="M20 1270l11 110h514l-10 -110l-195 -31l213 -967h10l307 1108h217l291 -1108h13l231 967l-201 31l11 110h487l-10 -110l-109 -31l-307 -1239h-238l-280 1073h-12l-297 -1073h-240l-285 1239zM666 1589l241 314h121l242 -314l-74 -73l-215 206h-27l-215 -206z" />
<glyph unicode="&#x175;" horiz-adv-x="1677" d="M25 840l10 102h274l191 -774h12l227 774h174l263 -774h10l162 645l-156 27l10 102h451l-11 -102l-122 -27l-211 -813h-242l-236 717h-12l-207 -717h-245l-209 813zM532 1200l242 313h121l242 -313l-74 -74l-215 207h-27l-215 -207z" />
<glyph unicode="&#x176;" horiz-adv-x="1480" d="M20 1268l11 112h555l-11 -110l-206 -33l374 -584h13l385 584l-213 33l10 110h520l-10 -112l-109 -31l-503 -739v-357l219 -28l-11 -113h-634l10 113l207 28v357l-486 739zM449 1589l241 314h121l242 -314l-74 -73l-215 206h-27l-215 -206z" />
<glyph unicode="&#x177;" horiz-adv-x="1136" d="M25 840l10 102h274l285 -799h14l266 670l-178 27l11 102h352l10 -102l-377 -910q-67 -165 -155 -241t-220 -76q-77 0 -127 20l15 115q139 0 213 27q50 69 112 215l-6 10h-73l-293 813zM264 1200l242 313h121l241 -313l-73 -74l-215 207h-27l-215 -207z" />
<glyph unicode="&#x178;" horiz-adv-x="1480" d="M20 1268l11 112h555l-11 -110l-206 -33l374 -584h13l385 584l-213 33l10 110h520l-10 -112l-109 -31l-503 -739v-357l219 -28l-11 -113h-634l10 113l207 28v357l-486 739zM516 1516v202l174 13v-203zM813 1516v202l172 13v-203z" />
<glyph unicode="&#x179;" horiz-adv-x="1290" d="M76 152l901 1075l-8 12h-654l-36 -311l-144 -15l-14 467h1057l36 -159l-892 -1069l10 -11h655l39 338l141 15l15 -494h-1069zM580 1595l268 322l133 -131l-322 -270z" />
<glyph unicode="&#x17a;" horiz-adv-x="1056" d="M88 102l617 703l-5 14h-403l-31 -190l-139 -15l-14 328h833l21 -102l-623 -703l6 -14h420l31 211l139 12l14 -346h-845zM477 1206l268 322l134 -131l-322 -271z" />
<glyph unicode="&#x17b;" horiz-adv-x="1290" d="M76 152l901 1075l-8 12h-654l-36 -311l-144 -15l-14 467h1057l36 -159l-892 -1069l10 -11h655l39 338l141 15l15 -494h-1069zM573 1516v202l175 13v-203z" />
<glyph unicode="&#x17c;" horiz-adv-x="1056" d="M88 102l617 703l-5 14h-403l-31 -190l-139 -15l-14 328h833l21 -102l-623 -703l6 -14h420l31 211l139 12l14 -346h-845zM471 1126v203l174 12v-202z" />
<glyph unicode="&#x17d;" horiz-adv-x="1290" d="M76 152l901 1075l-8 12h-654l-36 -311l-144 -15l-14 467h1057l36 -159l-892 -1069l10 -11h655l39 338l141 15l15 -494h-1069zM358 1829l74 74l215 -207h27l215 207l74 -74l-242 -313h-121z" />
<glyph unicode="&#x17e;" horiz-adv-x="1056" d="M88 102l617 703l-5 14h-403l-31 -190l-139 -15l-14 328h833l21 -102l-623 -703l6 -14h420l31 211l139 12l14 -346h-845zM254 1440l74 73l215 -206h26l215 206l74 -73l-242 -314h-120z" />
<glyph unicode="&#x17f;" horiz-adv-x="743" d="M76 813l10 129h193v12l-41 66q-7 28 -7 80q0 142 84.5 226.5t235.5 84.5q113 0 192 -31l-10 -104q-173 0 -256 -27q-51 -66 -51 -299v-821l176 -27l-10 -102h-504l10 102l140 27v684h-162z" />
<glyph unicode="&#x218;" horiz-adv-x="1282" d="M119 1034q0 215 196 309q129 60 324 60q241 0 463 -86l-31 -359l-143 -14l-21 273q-136 40 -278 40q-135 0 -226 -30q-67 -82 -67 -166q0 -79 72 -143q34 -27 90 -50l100 -37q43 -14 125 -36q94 -26 151.5 -48t120.5 -57q98 -48 147.5 -124t53.5 -193q0 -227 -199 -326 q-143 -70 -383 -70q-266 0 -489 97l31 383l143 10l20 -287q127 -53 302 -53q155 0 276 39q70 70 70 182q0 86 -68 146q-25 25 -84 49q-60 28 -98 39q-35 14 -121 39q-94 29 -145 47q-64 24 -127 55q-100 52 -149.5 125t-55.5 186zM565 -231l15 112h149q25 -42 25 -96 q0 -61 -31.5 -114.5t-81.5 -78.5l-39 43q29 29 29 70q0 26 -18 45t-48 19z" />
<glyph unicode="&#x219;" horiz-adv-x="1054" d="M98 690q0 148 127 219q106 56 291 56q195 0 387 -76l-26 -234l-142 -12l-22 164q-91 31 -211 31q-82 0 -176 -17q-45 -54 -45 -112q0 -68 57 -95.5t223 -54.5q153 -23 236 -55q87 -31 129.5 -86.5t48.5 -151.5q0 -140 -121 -217q-113 -72 -322 -72q-235 0 -421 82l26 250 l144 15l20 -183q90 -37 240 -37q93 0 196 25q43 52 43 115q0 69 -54 99t-204 58l-137 27q-1 0 -111 33q-68 24 -98 51q-78 70 -78 178zM438 -236l15 113h149q25 -42 25 -96q0 -61 -31.5 -114.5t-81.5 -78.5l-39 43q29 29 29 70q0 26 -18 44.5t-48 18.5z" />
<glyph unicode="&#x21a;" horiz-adv-x="1413" d="M76 1380h1261l-14 -428l-141 -14l-39 301h-330v-1098l213 -28l-10 -113h-629l10 113l205 28v1098h-332l-37 -287l-143 -14zM612 -231l15 112h149q25 -42 25 -96q0 -61 -31.5 -114.5t-81.5 -78.5l-39 43q29 29 29 70q0 26 -18 45t-48 19z" />
<glyph unicode="&#x21b;" horiz-adv-x="776" d="M61 784l11 158h153l35 248l129 14v-262h330l-10 -119l-320 -18v-438q0 -132 71 -194t238 -62l-10 -111q-82 -16 -156 -16q-155 0 -244 91t-89 251v379l41 75v15zM291 -231l14 112h150q24 -41 24 -96q0 -61 -31 -114.5t-81 -78.5l-39 43q28 28 28 70q0 26 -18 45t-47 19z " />
<glyph unicode="&#x237;" horiz-adv-x="589" d="M63 -365l9 107q94 37 137 86q29 95 29 293v692l-150 27l10 102l295 23l35 -174v-648q0 -271 -76 -381q-71 -103 -264 -149z" />
<glyph unicode="&#x2c6;" horiz-adv-x="755" d="M76 1200l241 313h121l242 -313l-74 -74l-215 207h-26l-215 -207z" />
<glyph unicode="&#x2c7;" horiz-adv-x="755" d="M76 1440l74 73l215 -206h26l215 206l74 -73l-242 -314h-121z" />
<glyph unicode="&#x2d8;" horiz-adv-x="768" d="M76 1360l160 12q18 -48 54.5 -79t79.5 -38.5t85.5 1t77.5 39.5t51 77l108 -12q-26 -110 -109.5 -172t-195.5 -62q-114 0 -200.5 62.5t-110.5 171.5z" />
<glyph unicode="&#x2d9;" horiz-adv-x="325" d="M76 1126v203l174 12v-202z" />
<glyph unicode="&#x2da;" horiz-adv-x="530" d="M76 1313q0 78 55 132t133 54q80 0 135.5 -54t55.5 -132t-55.5 -132.5t-135.5 -54.5q-78 0 -133 54.5t-55 132.5zM171 1313q0 -41 26 -70q26 -26 67.5 -26t67.5 26q29 29 29 70t-29 67q-26 29 -67.5 29t-67.5 -29q-26 -26 -26 -67z" />
<glyph unicode="&#x2db;" horiz-adv-x="516" d="M76 -213q0 62 39 117.5t106 81.5v45h146l20 -31q-78 -29 -123 -78.5t-45 -101.5q0 -49 40 -81t97 -32h82l-10 -88l-111 -20q-112 0 -176.5 53.5t-64.5 134.5z" />
<glyph unicode="&#x2dc;" horiz-adv-x="796" d="M76 1169q0 74 46 121t128 47q41 0 94 -16q35 -9 113.5 -38t105.5 -36l76 92l80 -45q0 -75 -46 -121.5t-126 -46.5q-43 0 -96 15q-38 10 -118 40t-100 36l-75 -93z" />
<glyph unicode="&#x2dd;" horiz-adv-x="847" d="M76 1206l227 322l103 -88v-56l-250 -258zM414 1206l225 322l133 -119l-280 -283z" />
<glyph unicode="&#x2206;" horiz-adv-x="1259" d="M18 0l11 102l133 29l295 743l-144 29l13 103h432l340 -875l143 -29l-10 -102h-1213zM338 131h563l-272 719h-15z" />
<glyph unicode="&#x394;" horiz-adv-x="1259" d="M18 0l11 102l133 29l295 743l-144 29l13 103h432l340 -875l143 -29l-10 -102h-1213zM338 131h563l-272 719h-15z" />
<glyph unicode="&#x2126;" horiz-adv-x="1204" d="M90 154l238 -35v14q-112 66 -174 182.5t-62 257.5q0 211 138 333t382 122q239 0 369.5 -118.5t130.5 -334.5q0 -302 -231 -440v-14l233 33l-10 -154h-426l10 96l51 10q81 57 135 181q52 119 52 248q0 155 -80 264q-80 108 -248 108q-123 0 -205 -43q-112 -130 -112 -334 q0 -268 194 -421l64 -15l-11 -94h-428z" />
<glyph unicode="&#x3a9;" horiz-adv-x="1204" d="M90 154l238 -35v14q-112 66 -174 182.5t-62 257.5q0 211 138 333t382 122q239 0 369.5 -118.5t130.5 -334.5q0 -302 -231 -440v-14l233 33l-10 -154h-426l10 96l51 10q81 57 135 181q52 119 52 248q0 155 -80 264q-80 108 -248 108q-123 0 -205 -43q-112 -130 -112 -334 q0 -268 194 -421l64 -15l-11 -94h-428z" />
<glyph unicode="&#x3c0;" horiz-adv-x="1236" d="M76 0l10 102l139 25v686l-149 27l10 102h1090l-11 -102l-139 -27v-686l150 -25l-11 -102h-329v811h-420v-684l155 -25l-10 -102h-485z" />
<glyph unicode="&#x400;" horiz-adv-x="1341" d="M76 0l10 113l162 28v1098l-172 31l10 110h1137l-15 -426l-137 -16l-37 301h-579v-483h299l-11 153l164 11l-16 -490l-111 -10l-20 198h-305v-477h596l36 308l140 14l14 -463h-1165zM377 1786l133 131l268 -322l-80 -79z" />
<glyph unicode="&#x401;" horiz-adv-x="1341" d="M76 0l10 113l162 28v1098l-172 31l10 110h1137l-15 -426l-137 -16l-37 301h-579v-483h299l-11 153l164 11l-16 -490l-111 -10l-20 198h-305v-477h596l36 308l140 14l14 -463h-1165zM463 1516v202l174 13v-203zM760 1516v202l172 13v-203z" />
<glyph unicode="&#x402;" horiz-adv-x="1597" d="M76 1380h1190l-15 -399l-139 -14l-37 272h-301v-549h14l117 144q79 26 185 26q179 0 261.5 -95.5t82.5 -299.5v-332q0 -192 -97.5 -313.5t-269.5 -134.5l-27 22l11 107q85 13 131.5 91t46.5 199v328q0 129 -51 203t-156 74q-156 0 -248 -154v-414l191 -28l-11 -113h-585 l10 113l190 28v1098h-303l-37 -258l-139 -14z" />
<glyph unicode="&#x403;" horiz-adv-x="1259" d="M76 1268l10 112h1098l-17 -428l-141 -14l-37 301h-522v-1098l231 -28l-10 -113h-604l10 113l162 28v1098zM565 1595l269 322l133 -131l-322 -270z" />
<glyph unicode="&#x404;" horiz-adv-x="1388" d="M119 696q0 338 177 522.5t499 184.5q246 0 467 -96l-15 -408l-143 -14l-37 325q-103 50 -270 50q-163 0 -305 -60q-70 -74 -114 -194.5t-50 -255.5h436l-8 170l162 10l-15 -508l-117 -10l-12 200h-442q21 -227 153 -362q133 -133 326 -133q104 0 215 39t188 106l74 -86 q-80 -96 -217 -147.5t-295 -51.5q-301 0 -479 193t-178 526z" />
<glyph unicode="&#x405;" horiz-adv-x="1282" d="M119 1034q0 215 196 309q129 60 324 60q241 0 463 -86l-31 -359l-143 -14l-21 273q-136 40 -278 40q-135 0 -226 -30q-67 -82 -67 -166q0 -79 72 -143q34 -27 90 -50l100 -37q43 -14 125 -36q94 -26 151.5 -48t120.5 -57q98 -48 147.5 -124t53.5 -193q0 -227 -199 -326 q-143 -70 -383 -70q-266 0 -489 97l31 383l143 10l20 -287q127 -53 302 -53q155 0 276 39q70 70 70 182q0 86 -68 146q-25 25 -84 49q-60 28 -98 39q-35 14 -121 39q-94 29 -145 47q-64 24 -127 55q-100 52 -149.5 125t-55.5 186z" />
<glyph unicode="&#x406;" horiz-adv-x="708" d="M76 0l10 113l162 28v1098l-172 31l10 110h545l-10 -110l-162 -31v-1098l172 -28l-10 -113h-545z" />
<glyph unicode="&#x407;" horiz-adv-x="708" d="M76 0l10 113l162 28v1098l-172 31l10 110h545l-10 -110l-162 -31v-1098l172 -28l-10 -113h-545zM127 1565v202l174 13v-203zM424 1565v202l172 13v-203z" />
<glyph unicode="&#x408;" horiz-adv-x="747" d="M43 -303l10 110q146 56 217 130q31 102 31 307v995l-180 31l10 110h539l-11 -110l-147 -31v-971q0 -294 -141 -432q-97 -106 -305 -162z" />
<glyph unicode="&#x409;" horiz-adv-x="2162" d="M20 0l11 113l123 28l718 1098l-184 31l10 110h750l-10 -110l-162 -31v-1098h147q253 0 363 39q57 86 57 201q0 250 -344 250h-135l10 137h162q204 0 350 -76q81 -42 126.5 -120t45.5 -185q0 -187 -135 -289q-81 -62 -186 -80q-108 -18 -297 -18h-572l11 113l192 28v1063 h-12l-692 -1063l202 -28l-10 -113h-539z" />
<glyph unicode="&#x40a;" horiz-adv-x="2162" d="M76 0l10 113l158 28v1098l-168 31l10 110h565l-10 -110l-188 -31v-471h612v471l-197 31l11 110h569l-10 -110l-164 -31v-1098h166q233 0 346 39q55 88 55 201q0 250 -344 250h-133l10 137h162q204 0 350 -76q81 -42 126.5 -120t45.5 -185q0 -185 -137 -289 q-81 -60 -186 -80q-108 -18 -295 -18h-572l11 113l186 28v482h-612v-482l198 -28l-10 -113h-565z" />
<glyph unicode="&#x40b;" horiz-adv-x="1644" d="M76 1380h1190l-15 -383l-139 -14l-37 256h-301v-553h14l117 143q95 29 185 29q178 0 261 -88.5t83 -273.5v-355l149 -28l-10 -113h-344v461q0 244 -205 244q-157 0 -250 -152v-412l199 -28l-10 -113h-594l10 113l190 28v1098h-303l-37 -242l-139 -14z" />
<glyph unicode="&#x40c;" horiz-adv-x="1486" d="M76 0l10 113l162 28v1098l-172 31l10 110h541l-11 -110l-157 -31v-1098l184 -28l-12 -113h-555zM543 643l10 105l475 491l-162 31l13 110h557l-13 -110l-159 -31l-510 -526q229 -307 528 -572l170 -28l-10 -113h-320q-334 302 -579 643zM680 1595l268 322l133 -131 l-321 -270z" />
<glyph unicode="&#x40d;" horiz-adv-x="1589" d="M61 1268l11 112h555l-13 -112l-174 -29v-960h13l655 1101h405l-10 -112l-162 -29v-1098l172 -28l-10 -113h-575l10 113l197 28v953h-15l-651 -1094h-236v1239zM504 1786l133 131l268 -322l-80 -79z" />
<glyph unicode="&#x40e;" horiz-adv-x="1441" d="M25 1270l10 110h547l-11 -110l-204 -31l333 -758h37l357 758l-228 31l11 110h544l-10 -110l-108 -31l-474 -1001q-123 -261 -374 -261q-89 0 -166 23l12 131h68q116 0 168 14q65 57 137 203h-131l-400 891zM406 1749l159 12q18 -48 54.5 -79t79.5 -38.5t85.5 1t77.5 39.5 t51 77l109 -12q-26 -110 -109.5 -171.5t-195.5 -61.5q-114 0 -200.5 62t-110.5 171z" />
<glyph unicode="&#x40f;" horiz-adv-x="1585" d="M76 0l10 113l162 28v1098l-172 31l10 110h578l-11 -110l-194 -31v-1098h667v1098l-204 31l10 110h577l-10 -110l-164 -31v-1098l174 -28l-10 -113h-608l-25 -270l-141 -17l-31 287h-618z" />
<glyph unicode="&#x410;" horiz-adv-x="1519" d="M20 0l11 113l116 28l435 1098l-195 31l10 110h502l473 -1239l125 -28l-10 -113h-545l10 113l205 28l-104 277h-607l-108 -277l217 -28l-10 -113h-525zM500 553h501l-239 659h-12z" />
<glyph unicode="&#x411;" horiz-adv-x="1394" d="M76 0l10 113l162 28v1098l-172 31l10 110h1079l-12 -419l-141 -13l-39 291h-514v-1098h186q252 0 373 39q55 82 55 217q0 254 -342 254h-186l10 137h213q200 0 348 -77q81 -42 127.5 -121.5t46.5 -186.5q0 -195 -137 -305q-74 -59 -177.5 -78.5t-291.5 -19.5h-608z" />
<glyph unicode="&#x412;" horiz-adv-x="1400" d="M76 0l10 113l162 28v1098l-172 31l10 110h698q209 0 342 -77q134 -78 134 -259q0 -114 -56.5 -198t-152.5 -123v-14q245 -70 245 -336q0 -174 -112 -267q-124 -106 -451 -106h-657zM455 141h215q243 0 362 35q47 77 47 207q0 254 -317 254h-217l10 129h113q205 0 315 39 q66 69 66 201q0 134 -84.5 183.5t-272.5 49.5h-237v-1098z" />
<glyph unicode="&#x413;" horiz-adv-x="1259" d="M76 1268l10 112h1098l-17 -428l-141 -14l-37 301h-522v-1098l231 -28l-10 -113h-604l10 113l162 28v1098z" />
<glyph unicode="&#x414;" horiz-adv-x="1484" d="M31 141h121l419 1098l-198 31l10 110h496l452 -1239h121l-12 -411l-142 -17l-30 287h-1049l-31 -270l-143 -17zM340 141h784l-376 1057h-15z" />
<glyph unicode="&#x415;" horiz-adv-x="1341" d="M76 0l10 113l162 28v1098l-172 31l10 110h1137l-15 -426l-137 -16l-37 301h-579v-483h299l-11 153l164 11l-16 -490l-111 -10l-20 198h-305v-477h596l36 308l140 14l14 -463h-1165z" />
<glyph unicode="&#x416;" horiz-adv-x="2160" d="M35 0l10 113l156 28q267 258 479 578l-459 520l-168 29l10 112h562l-11 -112l-155 -29l434 -500l-10 -104q-240 -362 -518 -635h-330zM778 0l10 113l187 28v1098l-162 29l10 112h525l-11 -112l-151 -29v-1098l196 -28l-10 -113h-594zM1270 645l10 105l422 489l-166 29 l10 112h563l-12 -112l-158 -29l-458 -520q203 -311 479 -578l166 -28l-10 -113h-320q-313 313 -526 645z" />
<glyph unicode="&#x417;" horiz-adv-x="1236" d="M104 1319q232 84 478 84q247 0 383.5 -90t136.5 -266q0 -116 -57.5 -198t-161.5 -114v-12q250 -62 250 -322q0 -195 -140 -311q-137 -113 -356 -113q-105 0 -266 29q-151 31 -234 76l51 158l557 -134q175 105 175 283q0 121 -88.5 188.5t-247.5 67.5q-87 0 -172 -14 l10 166q144 -4 147 -4q165 0 265 32q61 76 61 201q0 118 -84 177t-236 59q-167 0 -276 -41l-20 -267l-144 -16z" />
<glyph unicode="&#x418;" horiz-adv-x="1589" d="M61 1268l11 112h555l-13 -112l-174 -29v-960h13l655 1101h405l-10 -112l-162 -29v-1098l172 -28l-10 -113h-575l10 113l197 28v953h-15l-651 -1094h-236v1239z" />
<glyph unicode="&#x419;" horiz-adv-x="1589" d="M61 1268l11 112h555l-13 -112l-174 -29v-960h13l655 1101h405l-10 -112l-162 -29v-1098l172 -28l-10 -113h-575l10 113l197 28v953h-15l-651 -1094h-236v1239zM514 1749l160 12q18 -48 54.5 -79t79.5 -38.5t85.5 1t77.5 39.5t51 77l108 -12q-26 -110 -109.5 -171.5 t-195.5 -61.5q-114 0 -200.5 62t-110.5 171z" />
<glyph unicode="&#x41a;" horiz-adv-x="1486" d="M76 0l10 113l162 28v1098l-172 31l10 110h541l-11 -110l-157 -31v-1098l184 -28l-12 -113h-555zM543 643l10 105l475 491l-162 31l13 110h557l-13 -110l-159 -31l-510 -526q229 -307 528 -572l170 -28l-10 -113h-320q-334 302 -579 643z" />
<glyph unicode="&#x41b;" horiz-adv-x="1490" d="M20 0l11 113l119 28l419 1098l-196 31l10 110h496l467 -1239l124 -28l-10 -113h-540l12 113l198 28l-380 1041h-15l-391 -1041l211 -28l-10 -113h-525z" />
<glyph unicode="&#x41c;" horiz-adv-x="2013" d="M53 0l10 113l168 28l80 1098l-190 31l10 110h502l360 -1179h11l374 1179h506l-10 -110l-180 -31l86 -1098l180 -28l-10 -113h-570l11 109l188 28l-72 1049h-12l-371 -1186h-268l-358 1182h-11l-77 -1045l202 -28l-12 -109h-547z" />
<glyph unicode="&#x41d;" horiz-adv-x="1603" d="M76 0l10 113l162 28v1098l-172 31l10 110h582l-11 -110l-198 -31v-471h686v471l-207 31l10 110h580l-10 -110l-162 -31v-1098l172 -28l-10 -113h-580l10 113l197 28v482h-686v-482l209 -28l-11 -113h-581z" />
<glyph unicode="&#x41e;" horiz-adv-x="1595" d="M119 696q0 426 284 607q156 100 394 100q321 0 501 -189q179 -188 179 -520q0 -210 -72.5 -368.5t-206.5 -245.5q-161 -103 -397 -103q-326 0 -504 193t-178 526zM344 694q0 -256 119 -418q120 -159 364 -159q134 0 271 61q72 90 112.5 226.5t40.5 283.5q0 245 -121 410 q-120 164 -360 164q-139 0 -268 -60q-158 -190 -158 -508z" />
<glyph unicode="&#x41f;" horiz-adv-x="1562" d="M76 0l10 113l162 28v1098l-172 31l10 110h1401l-10 -110l-164 -31v-1098l174 -28l-10 -113h-574l10 113l191 28v1094h-645v-1094l203 -28l-11 -113h-575z" />
<glyph unicode="&#x420;" horiz-adv-x="1388" d="M76 0l10 113l162 28v1098l-172 31l10 110h649q89 0 166 -12.5t149 -43t122.5 -78t81 -122t30.5 -170.5q0 -223 -156 -340q-128 -98 -337 -98h-74l-176 31l10 110h127q213 0 317 39q70 110 70 250q0 293 -375 293h-233v-1098l231 -28l-10 -113h-602z" />
<glyph unicode="&#x421;" horiz-adv-x="1390" d="M119 696q0 420 280 602q163 105 402 105q242 0 454 -96l-12 -408l-143 -14l-37 325q-103 50 -270 50q-153 0 -295 -60q-74 -80 -119 -217.5t-45 -284.5q0 -258 135 -422q138 -159 346 -159q106 0 215.5 42t186.5 115l73 -86q-83 -103 -218.5 -157t-295.5 -54 q-301 0 -479 193t-178 526z" />
<glyph unicode="&#x422;" horiz-adv-x="1413" d="M76 1380h1261l-14 -428l-141 -14l-39 301h-330v-1098l213 -28l-10 -113h-629l10 113l205 28v1098h-332l-37 -287l-143 -14z" />
<glyph unicode="&#x423;" horiz-adv-x="1441" d="M25 1270l10 110h547l-11 -110l-204 -31l333 -758h37l357 758l-228 31l11 110h544l-10 -110l-108 -31l-474 -1001q-123 -261 -374 -261q-89 0 -166 23l12 131h68q116 0 168 14q65 57 137 203h-131l-400 891z" />
<glyph unicode="&#x424;" horiz-adv-x="1912" d="M119 682q0 408 268 584q167 108 404 108h63v113l-190 33l10 104h573l-10 -104l-180 -33v-113h63q320 0 496 -188q178 -187 178 -508q0 -197 -68.5 -351t-197.5 -241q-160 -109 -406 -109h-71q-17 -162 -96 -252.5t-205 -111.5l-25 22l10 113q54 28 103 80q11 75 14 149 h-61q-319 0 -496 189q-176 188 -176 516zM338 672q0 -92 15 -172t49 -151.5t85.5 -122t129 -80t174.5 -29.5h63v1114h-55q-176 0 -293 -51q-168 -180 -168 -508zM1057 117h57q161 0 293 57q166 205 166 508q0 234 -113 389q-112 160 -340 160h-63v-1114z" />
<glyph unicode="&#x425;" horiz-adv-x="1531" d="M43 0l10 113l117 26l459 572l-439 528l-127 31l11 110h569l-10 -104l-187 -31l330 -403l320 403l-195 31l10 104h543l-12 -110l-115 -31l-432 -537l465 -561l127 -28l-10 -113h-576l10 104l195 31l-361 436l-348 -436l205 -31l-10 -104h-549z" />
<glyph unicode="&#x426;" horiz-adv-x="1599" d="M76 0l10 113l162 28v1098l-172 31l10 110h578l-11 -110l-194 -31v-1098h667v1098l-204 31l10 110h577l-10 -110l-164 -31v-1098h201l-16 -411l-142 -17l-32 287h-1270z" />
<glyph unicode="&#x427;" horiz-adv-x="1503" d="M59 1270l11 110h544l-10 -110l-178 -31v-330q0 -348 317 -348q160 0 301 84v594l-190 31l10 110h563l-10 -110l-162 -31v-1098l172 -28l-10 -113h-583l10 113l200 28v375h-12q-153 -106 -370 -106q-213 0 -330 118t-117 342v369z" />
<glyph unicode="&#x428;" horiz-adv-x="2078" d="M80 0l10 113l158 28v1098l-168 31l10 110h549l-10 -110l-170 -31v-1098h475v1098l-166 31l12 110h531l-11 -110l-155 -31v-1098h475v1098l-178 31l10 110h547l-10 -110l-160 -31v-1098l170 -28l-10 -113h-1909z" />
<glyph unicode="&#x429;" horiz-adv-x="2091" d="M76 0l10 113l160 28v1098l-170 31l10 110h549l-10 -110l-170 -31v-1098h475v1098l-164 31l10 110h529l-11 -110l-153 -31v-1098h475v1098l-178 31l10 110h547l-10 -110l-160 -31v-1098h200l-14 -424l-141 -14l-39 297h-1755z" />
<glyph unicode="&#x42a;" horiz-adv-x="1570" d="M51 1380h783l-11 -110l-164 -31v-1098h166q256 0 369 39q55 88 55 217q0 271 -342 271h-157l10 137h184q196 0 348 -82q81 -42 127.5 -125.5t46.5 -194.5q0 -192 -137 -305q-76 -64 -196 -82q-125 -16 -324 -16h-530l10 113l162 28v1098h-209l-39 -287l-140 -14z" />
<glyph unicode="&#x42b;" horiz-adv-x="1943" d="M76 0l10 113l162 28v1098l-172 31l10 110h563l-10 -110l-180 -31v-1098h123q250 0 374 39q56 89 56 217q0 271 -344 271h-119l10 137h148q76 0 145 -11t139.5 -39t121 -72t82.5 -116t32 -164q0 -194 -135 -305q-76 -59 -182.5 -78.5t-301.5 -19.5h-532zM1309 0l10 113 l166 28v1098l-176 31l10 110h555l-10 -110l-170 -31v-1098l180 -28l-10 -113h-555z" />
<glyph unicode="&#x42c;" horiz-adv-x="1368" d="M76 0l10 113l162 28v1098l-172 29l10 112h565l-10 -112l-182 -29v-1098h159q252 0 373 39q56 83 56 215q0 141 -91.5 207t-250.5 66h-158l10 137h184q77 0 147 -11t140.5 -39t121 -72t82.5 -116t32 -164q0 -197 -138 -305q-76 -59 -182.5 -78.5t-298.5 -19.5h-569z" />
<glyph unicode="&#x42d;" horiz-adv-x="1386" d="M119 1300q208 103 469 103q322 0 501 -183.5t179 -519.5q0 -343 -174 -532q-176 -191 -478 -191q-111 0 -256 29q-127 25 -223 76l45 151l584 -124q262 130 289 503h-447l-10 -190l-119 -10l-14 508l164 10l-13 -180h441q-11 239 -127 374.5t-332 135.5q-175 0 -287 -50 l-37 -309l-143 -14z" />
<glyph unicode="&#x42e;" horiz-adv-x="2158" d="M76 0l10 113l162 28v1098l-168 31l10 110h553l-12 -110l-172 -31v-471h280q24 368 277 535q147 100 375 100q308 0 478.5 -187t170.5 -520q0 -434 -273 -616q-148 -103 -378 -103q-291 0 -461 173q-171 177 -189 473h-280v-482l184 -28l-12 -113h-555zM963 686 q0 -257 104 -412q106 -157 332 -157q143 0 268 61q148 195 148 516q0 244 -107 406q-104 162 -326 162q-152 0 -266 -60q-153 -194 -153 -516z" />
<glyph unicode="&#x42f;" horiz-adv-x="1417" d="M61 0l11 113l143 28q153 179 264 404l-4 10q-141 37 -227 141t-86 267q0 417 526 417h651l-10 -110l-162 -31v-1098l172 -28l-10 -113h-563l12 113l180 28v1098h-213q-144 0 -270 -22q-94 -94 -94 -246q0 -146 90 -222.5t252 -76.5h141l-10 -107l-145 -28 q-141 -284 -347 -537h-301z" />
<glyph unicode="&#x430;" horiz-adv-x="1159" d="M109 276q0 74 32 132.5t82 89.5q50 32 119 47q67 17 120.5 21.5t141.5 4.5h174q0 148 -45.5 206.5t-167.5 58.5q-146 0 -219 -33l-20 -164l-146 -14l-20 254q210 88 440 88q369 0 369 -342v-496l127 -27l-11 -102h-276l-23 143h-14l-125 -137q-73 -24 -176 -24 q-172 0 -267 78t-95 216zM305 293q0 -79 52 -130.5t147 -51.5q186 0 274 172v168h-170q-139 0 -264 -23q-39 -51 -39 -135z" />
<glyph unicode="&#x431;" horiz-adv-x="1134" d="M109 598q0 340 140 529.5t400 222.5l305 41l-16 -172l-444 -60q-146 -118 -183 -360h15q106 127 305 127q188 0 296.5 -116t108.5 -337q0 -276 -174 -407q-121 -89 -293 -89q-229 0 -344.5 160.5t-115.5 460.5zM313 471q0 -163 73.5 -262.5t199.5 -99.5q80 0 176 47 q74 127 74 293q0 82 -18 144.5t-44.5 98t-63 57.5t-68 29.5t-64.5 7.5q-100 0 -189 -45q-76 -119 -76 -270z" />
<glyph unicode="&#x432;" horiz-adv-x="1134" d="M109 420v565q0 197 119 307.5t327 110.5q188 0 294.5 -92.5t106.5 -261.5q0 -211 -182 -291v-15q264 -73 264 -356q0 -210 -145 -319q-123 -91 -315 -91q-218 0 -343.5 115t-125.5 328zM293 422q0 -149 81.5 -231t215.5 -82q102 0 188 45q62 80 62 219q0 136 -82.5 208 t-222.5 72h-129l10 131h61q154 0 256 54q41 100 41 190q0 242 -242 242q-77 0 -159 -29q-80 -109 -80 -270v-549z" />
<glyph unicode="&#x433;" horiz-adv-x="1052" d="M104 258q0 202 273 264l360 80q21 44 21 96q0 136 -217 136q-115 0 -213 -33l-19 -152l-143 -14l-25 254q174 76 391 76q414 0 414 -267q0 -109 -71 -171.5t-213 -94.5l-336 -76q-27 -40 -27 -88q0 -69 66 -112t170 -43q128 0 215 34l20 170l143 15l25 -266 q-67 -39 -180 -64t-228 -25q-199 0 -312.5 72t-113.5 209z" />
<glyph unicode="&#x434;" horiz-adv-x="1181" d="M98 487q0 186 99 324q100 139 305 139q100 0 180 -24l129 -117h14l21 133h289l-11 -102l-118 -27v-758q0 -236 -148 -354q-116 -88 -293 -88q-184 0 -293 86q-106 81 -106 201h192q0 -73 70 -113q71 -41 154 -41q98 0 168 43q65 92 65 262v90h-12q-104 -116 -279 -116 q-201 0 -315 129q-111 132 -111 333zM297 485q0 -145 74 -235t202 -90q154 0 242 131v385q-114 135 -274 135q-89 0 -166 -41q-78 -116 -78 -285z" />
<glyph unicode="&#x435;" horiz-adv-x="1077" d="M98 473q0 272 178 404q116 88 293 88q191 0 304.5 -106t113.5 -284q0 -68 -22 -145l-672 -2q7 -148 94 -225.5t227 -77.5q167 0 283 96l53 -63q-114 -181 -379 -181q-223 0 -350 136q-123 138 -123 360zM293 545h528q-5 138 -72.5 216.5t-185.5 78.5q-111 0 -194 -45 q-67 -98 -76 -250z" />
<glyph unicode="&#x436;" horiz-adv-x="1755" d="M57 0l11 102l122 25q189 169 324 354l-303 332l-133 27l10 102h473l-10 -100l-133 -29l284 -305l-10 -96q-151 -219 -368 -412h-267zM631 1278l10 102l309 23l23 -117v-1157l141 -27l-10 -102h-467l10 102l137 27v1122zM1055 422l10 96l268 295l-139 29l10 100h473 l-10 -102l-123 -27l-303 -332q141 -194 324 -354l133 -25l-10 -102h-254q-232 206 -379 422z" />
<glyph unicode="&#x437;" horiz-adv-x="1044" d="M90 881q215 84 418 84q178 0 291 -64q114 -65 114 -201q0 -85 -44 -127.5t-134 -68.5v-12q203 -56 203 -232q0 -130 -107.5 -206.5t-285.5 -76.5q-108 0 -240 27q-137 28 -203 66l48 133l477 -115q49 26 80.5 74.5t31.5 103.5q0 158 -252 158q-66 0 -141 -10l10 145 q78 -10 150 -10q114 0 188 22q25 55 25 109q0 76 -60 116t-165 40q-145 0 -224 -33l-20 -164l-139 -14z" />
<glyph unicode="&#x438;" d="M39 840l10 102l297 23l31 -152v-446q0 -238 192 -238q151 0 244 152v532l-158 27l11 102l305 23l30 -152v-684l150 -27l-10 -102h-297l-23 143h-14l-123 -137q-74 -24 -164 -24q-170 0 -251 93t-81 259v479z" />
<glyph unicode="&#x439;" d="M39 840l10 102l297 23l31 -152v-446q0 -238 192 -238q151 0 244 152v532l-158 27l11 102l305 23l30 -152v-684l150 -27l-10 -102h-297l-23 143h-14l-123 -137q-74 -24 -164 -24q-170 0 -251 93t-81 259v479zM213 1360l160 12q18 -48 54.5 -79t79.5 -38.5t85.5 1 t77.5 39.5t51 77l108 -12q-26 -110 -109.5 -172t-195.5 -62q-114 0 -200.5 62.5t-110.5 171.5z" />
<glyph unicode="&#x43a;" horiz-adv-x="1204" d="M61 0l11 102l139 27v1122l-150 27l11 102l305 23l24 -117v-1157l142 -27l-11 -102h-471zM483 430l11 94l286 291l-137 27l10 100h473l-10 -102l-123 -27l-323 -326q158 -206 344 -360l133 -25l-10 -102h-258q-230 194 -396 430z" />
<glyph unicode="&#x43b;" d="M31 0l10 102l123 27l270 684l-131 27l10 102h420l316 -813l133 -27l-13 -102h-446l10 102l119 27l-250 659h-12l-252 -659l162 -27l-11 -102h-458z" />
<glyph unicode="&#x43c;" horiz-adv-x="1654" d="M47 0l10 102l140 27l77 684l-155 27l10 102h432l262 -737h13l260 737h436l-4 -102l-150 -27l78 -684l150 -27l-11 -102h-317l-78 737h-12l-256 -737h-221l-267 748h-12l-65 -619l125 -27l-11 -102h-434z" />
<glyph unicode="&#x43d;" horiz-adv-x="1251" d="M76 0l10 102l139 27v684l-149 27l10 102l299 23l31 -152v-274h434v274l-150 27l11 102l297 23l30 -152v-684l150 -27l-10 -102h-328v416h-434v-287l155 -27l-10 -102h-485z" />
<glyph unicode="&#x43e;" horiz-adv-x="1153" d="M98 471q0 277 183 410q122 84 288 84q221 0 355 -134q131 -131 131 -360q0 -281 -181 -410q-122 -84 -292 -84q-223 0 -353.5 133t-130.5 361zM299 477q0 -183 83.5 -275.5t219.5 -92.5q106 0 174 47q78 132 78 307q0 190 -88 278q-87 90 -207 90q-100 0 -180 -45 q-80 -121 -80 -309z" />
<glyph unicode="&#x43f;" horiz-adv-x="1251" d="M76 0l10 102l139 27v684l-149 27l10 102l295 23l27 -172h14l123 143q85 29 174 29q172 0 245.5 -88.5t73.5 -262.5v-485l150 -27l-10 -102h-328v582q0 229 -186 229q-152 0 -248 -152v-530l155 -27l-10 -102h-485z" />
<glyph unicode="&#x440;" horiz-adv-x="1224" d="M68 -365l10 103l139 26v1049l-149 27l10 102l289 23l26 -156h15l127 117q80 22 163 22q115 0 204 -43.5t134 -118.5q90 -137 90 -313q0 -126 -45.5 -236t-128.5 -176q-101 -79 -235 -79q-187 0 -295 141h-14v-359l170 -26l-11 -103h-499zM408 272q85 -155 268 -155 q89 0 168 43q80 136 80 307q0 155 -70 243.5t-201 88.5q-157 0 -245 -123v-404z" />
<glyph unicode="&#x441;" horiz-adv-x="1058" d="M98 473q0 284 195 414q122 78 291 78q191 0 356 -80l-14 -305l-135 -13l-31 230q-71 32 -185 32q-112 0 -198 -45q-78 -113 -78 -301q0 -169 88 -266.5t231 -97.5q76 0 159 27t138 71l56 -65q-111 -175 -387 -175q-229 0 -359 136q-127 136 -127 360z" />
<glyph unicode="&#x442;" horiz-adv-x="1824" d="M76 0l10 102l139 27v684l-149 27l10 102l295 23l27 -168h12l117 135q67 33 165 33q214 0 273 -170h12l119 137q67 33 172 33q336 0 336 -359v-477l149 -27l-10 -102h-330v590q0 104 -47.5 162.5t-138.5 58.5q-146 0 -229 -127q4 -46 4 -109v-446l155 -27l-10 -102h-330 v590q0 221 -176 221q-76 0 -136.5 -40.5t-98.5 -106.5v-535l155 -27l-10 -102h-485z" />
<glyph unicode="&#x443;" horiz-adv-x="1136" d="M25 840l10 102h274l285 -799h14l266 670l-178 27l11 102h352l10 -102l-377 -910q-67 -165 -155 -241t-220 -76q-77 0 -127 20l15 115q139 0 213 27q50 69 112 215l-6 10h-73l-293 813z" />
<glyph unicode="&#x444;" horiz-adv-x="1425" d="M98 473q0 268 189 401q126 91 301 91h30v286l-155 27l10 102l309 23l25 -117v-321h37q212 0 348 -136q137 -134 137 -358q0 -272 -186 -403q-130 -91 -305 -91h-29l-2 -213l149 -26l-10 -103h-483l10 103l145 26v213h-36q-212 0 -349 134q-135 135 -135 362zM295 471 q0 -180 90 -270q93 -90 197 -90h36v720h-30q-125 0 -191 -38q-102 -138 -102 -322zM807 111h31q115 0 192 41q100 138 100 319q0 178 -90 268q-89 92 -196 92h-37v-720z" />
<glyph unicode="&#x445;" horiz-adv-x="1200" d="M51 0l10 102l121 27l299 344l-288 340l-136 27l11 102h249l299 -352l193 229l-145 27l10 96h469l-10 -102l-123 -27l-291 -338l293 -346l137 -27l-10 -102h-252l-303 360l-201 -239l145 -27l-10 -94h-467z" />
<glyph unicode="&#x446;" horiz-adv-x="1228" d="M39 840l10 102l297 23l31 -152v-446q0 -238 192 -238q151 0 244 152v532l-158 27l11 102l305 23l30 -152v-684h146l-14 -360l-136 -15l-30 246h-123l-23 143h-14l-123 -137q-74 -24 -164 -24q-170 0 -251 93t-81 259v479z" />
<glyph unicode="&#x447;" horiz-adv-x="1214" d="M39 840l10 102l299 23l25 -117v-197q0 -241 194 -241q148 0 242 110v293l-154 27l11 102l307 23l24 -117v-719l150 -27l-10 -102h-498l10 102l160 27v254h-14q-126 -123 -295 -123q-170 0 -243 89.5t-73 262.5v201z" />
<glyph unicode="&#x448;" horiz-adv-x="1787" d="M39 840l10 102l297 23l31 -152v-459q0 -225 188 -225q148 0 230 129q-7 61 -7 109v446l-149 27l10 102l295 23l31 -152v-455q0 -105 44.5 -167t133.5 -62q72 0 134 42.5t99 109.5v532l-155 27l10 102l305 23l29 -152v-684l149 -27l-10 -102h-297l-22 143h-15l-116 -135 q-68 -26 -162 -26q-221 0 -279 163h-12l-119 -137q-71 -26 -166 -26q-173 0 -255.5 91t-82.5 257v483z" />
<glyph unicode="&#x449;" horiz-adv-x="1804" d="M39 840l10 102l297 23l31 -152v-459q0 -225 188 -225q148 0 230 129q-7 61 -7 109v446l-149 27l10 102l295 23l31 -152v-455q0 -105 44.5 -167t133.5 -62q72 0 134 42.5t99 109.5v532l-155 27l10 102l305 23l29 -152v-684h145l-14 -360l-135 -15l-31 246h-121l-22 143 h-15l-116 -135q-68 -26 -164 -26q-217 0 -275 163h-12l-119 -137q-74 -26 -168 -26q-340 0 -340 348v483z" />
<glyph unicode="&#x44a;" horiz-adv-x="1314" d="M51 942h686l-10 -102l-139 -27v-188h198q431 0 431 -314q0 -158 -115 -235q-113 -76 -316 -76h-536l10 102l139 27v690h-172l-30 -221l-131 -14zM588 129h131q170 0 262 25q37 67 37 149q0 100 -69.5 146.5t-217.5 46.5h-143v-367z" />
<glyph unicode="&#x44b;" horiz-adv-x="1632" d="M76 0l10 102l139 27v684l-149 27l10 102h479l-10 -102l-139 -27v-188h209q178 0 280.5 -78t102.5 -234q0 -158 -113 -237q-113 -76 -317 -76h-502zM416 129h94q172 0 264 25q37 67 37 151q0 98 -58.5 144.5t-181.5 46.5h-155v-367zM1077 840l10 102h480l-11 -102 l-139 -27v-684l150 -27l-11 -102h-475l11 102l135 27v684z" />
<glyph unicode="&#x44c;" horiz-adv-x="1146" d="M76 0l10 102l139 27v684l-149 27l10 102h479l-10 -102l-139 -27v-188h200q431 0 431 -314q0 -158 -115 -235q-110 -76 -316 -76h-540zM416 129h133q173 0 262 25q39 68 39 149q0 100 -69.5 146.5t-217.5 46.5h-147v-367z" />
<glyph unicode="&#x44d;" horiz-adv-x="1028" d="M98 881q159 84 351 84q221 0 352 -124.5t131 -353.5q0 -237 -131 -374q-133 -136 -334 -136q-213 0 -358 89l34 127l439 -99q136 98 151 326l-375 -19l11 131h366q-7 147 -83 224.5t-203 77.5q-106 0 -179 -31l-30 -215l-131 -15z" />
<glyph unicode="&#x44e;" horiz-adv-x="1667" d="M96 0l10 102l140 27v1122l-150 27l10 102l300 23l28 -152v-712h209q21 232 168 342q116 84 283 84q221 0 348 -133t127 -361q0 -278 -176 -410q-116 -84 -285 -84q-203 0 -326.5 116.5t-136.5 322.5h-211v-287l144 -27l-11 -102h-471zM834 475q0 -177 79 -271.5 t197 -94.5q93 0 182 47q76 125 76 307q0 190 -82 278q-84 90 -190 90q-105 0 -185 -45q-77 -124 -77 -311z" />
<glyph unicode="&#x44f;" horiz-adv-x="1150" d="M61 0l11 102l137 27q90 103 160 238q-254 46 -254 276q0 299 430 299h538l-10 -102l-139 -27v-684l149 -27l-10 -102h-469l10 102l131 27v684h-153q-158 0 -244 -25q-37 -64 -37 -133q0 -180 240 -180h113l-11 -104l-92 -15q-91 -190 -229 -356h-271z" />
<glyph unicode="&#x450;" horiz-adv-x="1077" d="M98 473q0 272 178 404q116 88 293 88q191 0 304.5 -106t113.5 -284q0 -68 -22 -145l-672 -2q7 -148 94 -225.5t227 -77.5q167 0 283 96l53 -63q-114 -181 -379 -181q-223 0 -350 136q-123 138 -123 360zM244 1397l133 131l268 -322l-80 -80zM293 545h528 q-5 138 -72.5 216.5t-185.5 78.5q-111 0 -194 -45q-67 -98 -76 -250z" />
<glyph unicode="&#x451;" horiz-adv-x="1077" d="M98 473q0 272 178 404q116 88 293 88q191 0 304.5 -106t113.5 -284q0 -68 -22 -145l-672 -2q7 -148 94 -225.5t227 -77.5q167 0 283 96l53 -63q-114 -181 -379 -181q-223 0 -350 136q-123 138 -123 360zM293 545h528q-5 138 -72.5 216.5t-185.5 78.5q-111 0 -194 -45 q-67 -98 -76 -250zM330 1126v203l174 12v-202zM627 1126v203l172 12v-202z" />
<glyph unicode="&#x452;" horiz-adv-x="1163" d="M76 0l10 102l139 27v901h-149l10 103h139v129l-149 22l10 96l307 23l23 -117v-153h282l-10 -103h-272v-297h12l117 144q70 28 160 28q337 0 337 -350v-199q0 -169 -85 -262.5t-224 -93.5h-74l11 109q82 0 133 60.5t51 172.5v180q0 230 -203 230q-148 0 -235 -152v-471 l135 -27l-10 -102h-465z" />
<glyph unicode="&#x453;" horiz-adv-x="1052" d="M104 258q0 202 273 264l360 80q21 44 21 96q0 136 -217 136q-115 0 -213 -33l-19 -152l-143 -14l-25 254q174 76 391 76q414 0 414 -267q0 -109 -71 -171.5t-213 -94.5l-336 -76q-27 -40 -27 -88q0 -69 66 -112t170 -43q128 0 215 34l20 170l143 15l25 -266 q-67 -39 -180 -64t-228 -25q-199 0 -312.5 72t-113.5 209zM453 1206l268 322l133 -131l-322 -271z" />
<glyph unicode="&#x454;" horiz-adv-x="1048" d="M98 473q0 284 195 414q122 78 291 78q195 0 352 -80l-14 -305l-134 -13l-30 230q-63 32 -183 32q-127 0 -213 -45q-69 -103 -75 -258l372 21l15 -131h-381q19 -138 104 -217.5t209 -79.5q76 0 159 27t138 71l53 -65q-108 -175 -378 -175q-221 0 -351 136 q-129 135 -129 360z" />
<glyph unicode="&#x455;" horiz-adv-x="1054" d="M98 690q0 148 127 219q106 56 291 56q195 0 387 -76l-26 -234l-142 -12l-22 164q-91 31 -211 31q-82 0 -176 -17q-45 -54 -45 -112q0 -68 57 -95.5t223 -54.5q153 -23 236 -55q87 -31 129.5 -86.5t48.5 -151.5q0 -140 -121 -217q-113 -72 -322 -72q-235 0 -421 82l26 250 l144 15l20 -183q90 -37 240 -37q93 0 196 25q43 52 43 115q0 69 -54 99t-204 58l-137 27q-1 0 -111 33q-68 24 -98 51q-78 70 -78 178z" />
<glyph unicode="&#x456;" horiz-adv-x="636" d="M88 0l10 102l140 27v684l-150 27l10 102l297 23l31 -152v-684l149 -27l-10 -102h-477zM221 1106v221l201 16v-223z" />
<glyph unicode="&#x457;" horiz-adv-x="641" d="M84 1126v203l164 12v-202zM92 0l10 102l140 27v684l-150 27l10 102l297 23l31 -152v-684l150 -27l-11 -102h-477zM334 1126v203l166 12v-202z" />
<glyph unicode="&#x458;" horiz-adv-x="589" d="M63 -365l9 107q94 37 137 86q29 95 29 293v692l-150 27l10 102l295 23l35 -174v-648q0 -271 -76 -381q-71 -103 -264 -149zM211 1106v221l203 16v-223z" />
<glyph unicode="&#x459;" horiz-adv-x="1714" d="M31 0l10 102l123 27l469 684l-137 27l10 102h635l-11 -102l-126 -27v-264h229q175 0 274 -51q117 -54 117 -213q0 -285 -416 -285h-391v784h-12l-447 -655l158 -27l-10 -102h-475zM1004 129h139q169 0 254 27q35 59 35 120q0 83 -57.5 114.5t-200.5 31.5h-170v-293z" />
<glyph unicode="&#x45a;" horiz-adv-x="1732" d="M76 0l10 102l139 27v684l-149 27l10 102l299 23l31 -152v-264h420v264l-148 27l10 102h478l-11 -102l-139 -27v-264h227q195 0 292 -59t97 -205q0 -285 -415 -285h-391v426h-420v-297l155 -27l-10 -102h-485zM1026 129h133q173 0 258 27q35 53 35 120q0 84 -56.5 115 t-199.5 31h-170v-293z" />
<glyph unicode="&#x45b;" horiz-adv-x="1253" d="M76 0l10 102l139 27v901h-149l10 103h139v129l-149 22l10 96l307 23l23 -117v-153h282l-10 -103h-272v-297h12l117 144q70 28 160 28q337 0 337 -362v-414l150 -27l-10 -102h-328v510q0 242 -203 242q-148 0 -235 -152v-471l155 -27l-10 -102h-485z" />
<glyph unicode="&#x45c;" horiz-adv-x="1204" d="M61 0l11 102l139 27v1122l-150 27l11 102l305 23l24 -117v-1157l142 -27l-11 -102h-471zM483 430l11 94l286 291l-137 27l10 100h473l-10 -102l-123 -27l-323 -326q158 -206 344 -360l133 -25l-10 -102h-258q-230 194 -396 430zM584 1206l268 322l133 -131l-321 -271z " />
<glyph unicode="&#x45d;" d="M39 840l10 102l297 23l31 -152v-446q0 -238 192 -238q151 0 244 152v532l-158 27l11 102l305 23l30 -152v-684l150 -27l-10 -102h-297l-23 143h-14l-123 -137q-74 -24 -164 -24q-170 0 -251 93t-81 259v479zM256 1397l133 131l268 -322l-79 -80z" />
<glyph unicode="&#x45e;" horiz-adv-x="1136" d="M25 840l10 102h274l285 -799h14l266 670l-178 27l11 102h352l10 -102l-377 -910q-67 -165 -155 -241t-220 -76q-77 0 -127 20l15 115q139 0 213 27q50 69 112 215l-6 10h-73l-293 813zM238 1360l159 12q18 -48 54.5 -79t79.5 -38.5t85.5 1t77.5 39.5t51 77l109 -12 q-26 -110 -109.5 -172t-195.5 -62q-114 0 -200.5 62.5t-110.5 171.5z" />
<glyph unicode="&#x45f;" d="M39 840l10 102l297 23l31 -152v-446q0 -238 192 -238q151 0 244 152v532l-158 27l11 102l305 23l30 -152v-684l150 -27l-10 -102h-297l-23 143h-14l-213 -229l8 -12q63 -11 101 -53.5t38 -108.5q0 -91 -73 -148t-189 -57l-63 14l10 76q166 0 166 111q0 90 -129 90l-31 45 l105 111l-9 12l-51 -17q-289 37 -289 357v479z" />
<glyph unicode="&#x490;" horiz-adv-x="1198" d="M76 1268l10 112h844l35 211l141 15l16 -367h-655v-1098l231 -28l-10 -113h-604l10 113l162 28v1098z" />
<glyph unicode="&#x491;" horiz-adv-x="1046" d="M104 252q0 204 265 266l360 80q41 103 -7.5 166t-160.5 63q-98 0 -173 -50t-99 -136l-131 -14l-23 323l180 15l-10 -125l10 -6q36 62 117.5 96.5t183.5 34.5q144 0 234 -69t90 -196q0 -110 -69.5 -172.5t-215.5 -95.5l-338 -76q-49 -104 15 -174q63 -69 194 -69 q127 0 217 34l21 170l143 15l23 -266q-148 -89 -410 -89q-193 0 -304.5 71t-111.5 204z" />
<glyph unicode="&#x2000;" horiz-adv-x="983" />
<glyph unicode="&#x2001;" horiz-adv-x="1966" />
<glyph unicode="&#x2002;" horiz-adv-x="983" />
<glyph unicode="&#x2003;" horiz-adv-x="1966" />
<glyph unicode="&#x2004;" horiz-adv-x="655" />
<glyph unicode="&#x2005;" horiz-adv-x="491" />
<glyph unicode="&#x2006;" horiz-adv-x="327" />
<glyph unicode="&#x2007;" horiz-adv-x="327" />
<glyph unicode="&#x2008;" horiz-adv-x="245" />
<glyph unicode="&#x2009;" horiz-adv-x="393" />
<glyph unicode="&#x200a;" horiz-adv-x="109" />
<glyph unicode="&#x2010;" horiz-adv-x="952" d="M125 594l80 141h483l119 23l20 -27l-79 -143h-484l-119 -23z" />
<glyph unicode="&#x2011;" horiz-adv-x="952" d="M125 594l80 141h483l119 23l20 -27l-79 -143h-484l-119 -23z" />
<glyph unicode="&#x2012;" horiz-adv-x="952" d="M125 594l80 141h483l119 23l20 -27l-79 -143h-484l-119 -23z" />
<glyph unicode="&#x2013;" horiz-adv-x="1124" d="M125 594l80 141h655l119 23l18 -27l-79 -143h-654l-119 -23z" />
<glyph unicode="&#x2014;" horiz-adv-x="1642" d="M125 598l80 137h1175l117 23l21 -27l-80 -139h-1174l-119 -25z" />
<glyph unicode="&#x2018;" horiz-adv-x="425" d="M213 1139q0 90 52 167.5t122 104.5l31 -43q-64 -58 -64 -135q0 -71 52 -92l-13 -129h-147q-33 44 -33 127z" />
<glyph unicode="&#x2019;" horiz-adv-x="423" d="M135 1024q64 58 64 135q0 71 -52 92l13 129h147q33 -44 33 -127q0 -90 -52 -167.5t-122 -104.5z" />
<glyph unicode="&#x201a;" horiz-adv-x="423" d="M135 -227q64 58 64 135q0 71 -52 92l13 129h147q33 -44 33 -127q0 -90 -52 -167.5t-122 -104.5z" />
<glyph unicode="&#x201c;" horiz-adv-x="718" d="M133 1163q0 91 52 168.5t122 104.5l31 -43q-64 -58 -64 -136q0 -71 52 -92l-13 -129h-147q-33 44 -33 127zM428 1163q0 91 52 168.5t122 104.5l31 -43q-64 -58 -64 -136q0 -71 52 -92l-13 -129h-147q-33 44 -33 127z" />
<glyph unicode="&#x201d;" horiz-adv-x="718" d="M135 1024q64 58 64 135q0 71 -52 92l13 129h147q33 -44 33 -127q0 -90 -52 -167.5t-122 -104.5zM430 1024q64 58 64 135q0 71 -52 92l13 129h147q33 -44 33 -127q0 -90 -52 -167.5t-122 -104.5z" />
<glyph unicode="&#x201e;" horiz-adv-x="718" d="M135 -227q64 58 64 135q0 71 -52 92l13 129h147q33 -44 33 -127q0 -90 -52 -167.5t-122 -104.5zM430 -227q64 58 64 135q0 71 -52 92l13 129h147q33 -44 33 -127q0 -90 -52 -167.5t-122 -104.5z" />
<glyph unicode="&#x2020;" horiz-adv-x="817" d="M76 862l10 164h225l-6 367l135 24l23 -24l-6 -367h284l-10 -123l-274 -16l-15 -1100l-84 -25l-32 25l-21 1012l39 67v13z" />
<glyph unicode="&#x2021;" horiz-adv-x="817" d="M76 156l10 163h219v480l39 67v13l-268 -17l10 164h219v367l135 24l23 -24v-367h278l-10 -123l-268 -16v-568h278l-10 -124l-307 -19v-14l39 -56v-319l-135 -23l-23 23v381z" />
<glyph unicode="&#x2022;" horiz-adv-x="591" d="M102 293l25 366h352l10 -10l-26 -366h-350z" />
<glyph unicode="&#x2026;" horiz-adv-x="1241" d="M92 0l14 207h213l-14 -207h-213zM489 0l15 207h213l-15 -207h-213zM889 0l14 207h213l-14 -207h-213z" />
<glyph unicode="&#x202f;" horiz-adv-x="393" />
<glyph unicode="&#x2030;" horiz-adv-x="2263" d="M76 971q0 165 75.5 263.5t219.5 98.5q145 0 221 -99t76 -263q0 -166 -76.5 -268.5t-220.5 -102.5t-219.5 102t-75.5 269zM242 975q0 -266 141 -266q50 0 82 16q37 73 37 236q0 264 -142 264q-50 0 -81 -17q-37 -70 -37 -233zM319 -33l781 1374l119 19l22 -19l-780 -1374 l-117 -18zM901 346q0 165 75.5 264t219.5 99q145 0 221 -99.5t76 -263.5q0 -155 -74 -264q-73 -105 -223 -105q-144 0 -219.5 101t-75.5 268zM1067 352q0 -266 141 -266q50 0 82 14q37 78 37 236q0 264 -143 264q-53 0 -82 -16q-35 -72 -35 -232zM1595 346q0 165 75.5 264 t219.5 99t219.5 -99t75.5 -264q0 -155 -74 -264q-71 -105 -221 -105q-144 0 -219.5 101t-75.5 268zM1761 352q0 -266 142 -266q50 0 82 14q34 75 34 236q0 264 -141 264q-53 0 -82 -16q-35 -65 -35 -232z" />
<glyph unicode="&#x2039;" horiz-adv-x="649" d="M174 401v82l320 348l77 -57l-217 -323v-15l217 -323l-75 -60z" />
<glyph unicode="&#x203a;" horiz-adv-x="649" d="M78 113l217 323v15l-217 323l78 57l319 -348v-82l-321 -348z" />
<glyph unicode="&#x2044;" horiz-adv-x="325" d="M-301 -33l780 1374l125 19l23 -19l-779 -1374l-127 -18z" />
<glyph unicode="&#x205f;" horiz-adv-x="491" />
<glyph unicode="&#x2070;" horiz-adv-x="716" d="M57 1212q0 168 117 248q74 51 180 51q139 0 222 -81t83 -218q0 -173 -118 -254q-70 -49 -179 -49q-141 0 -223 81t-82 222zM207 1210q0 -95 44 -147.5t118 -52.5q47 0 96 22q45 65 45 176q-1 97 -47.5 151t-116.5 54q-50 0 -94 -24q-45 -62 -45 -179z" />
<glyph unicode="&#x2071;" horiz-adv-x="401" d="M51 909l6 80l80 15v385l-86 14l6 78l203 16l19 -108v-385l86 -15l-7 -80h-307zM131 1573v145l145 11v-146z" />
<glyph unicode="&#x2074;" horiz-adv-x="794" d="M55 1153q86 71 178 250q95 185 109 293h150q-15 -112 -99 -271q-83 -156 -182 -245l6 -15h270v181l43 94h99v-275h110l-10 -90h-100v-71l-43 -95h-99v166h-426z" />
<glyph unicode="&#x2075;" horiz-adv-x="643" d="M55 932l6 117l316 -50q69 48 69 146q0 141 -208 141h-160l24 410h459l-10 -123l-334 20l-14 -207l78 11q138 14 222.5 -48t84.5 -194q0 -124 -82.5 -192t-235.5 -68q-100 0 -215 37z" />
<glyph unicode="&#x2076;" horiz-adv-x="690" d="M55 1247q0 178 97 307q99 129 270 144l133 12l-12 -117l-228 -26q-112 -100 -112 -307q0 -122 43.5 -193.5t130.5 -71.5q48 0 80 19q37 58 37 145q0 83 -49.5 121.5t-131.5 30.5q-25 -3 -47 -11l-12 11l10 61q56 39 139 39q102 0 167 -62.5t65 -177.5q0 -128 -80.5 -202 t-206.5 -74q-139 0 -216 96.5t-77 255.5z" />
<glyph unicode="&#x2077;" horiz-adv-x="722" d="M55 1696h607l6 -92q-126 -144 -195 -334q-73 -198 -76 -361h-147q3 162 76 353q70 186 188 313l-6 14h-315l-19 -125l-106 -14z" />
<glyph unicode="&#x2078;" horiz-adv-x="698" d="M55 1114q0 125 125 213v8q-106 66 -106 172q0 110 82 156q83 47 196 47q117 0 191.5 -48t74.5 -140q0 -114 -112 -195v-8q139 -74 139 -203q0 -108 -81.5 -164.5t-211.5 -56.5q-135 0 -216 55.5t-81 163.5zM195 1124q0 -64 47.5 -97.5t122.5 -33.5q57 0 100 19 q33 42 33 92q0 74 -66 110q-34 22 -56 32t-79 30l-16 6q-86 -77 -86 -158zM213 1524q0 -36 31 -72q39 -34 57 -43l94 -35l21 -8q67 85 67 152q0 102 -137 102q-54 0 -104 -16q-29 -50 -29 -80z" />
<glyph unicode="&#x2079;" horiz-adv-x="690" d="M55 1432q0 131 82.5 204.5t216.5 73.5q139 0 210 -88t71 -244q0 -182 -90 -319q-89 -135 -244 -150l-162 -14l15 119l225 22q110 104 110 332q0 242 -163 242q-47 0 -86 -17q-43 -55 -43 -147q0 -80 40.5 -123t108.5 -43q36 0 80 12l12 -10l-10 -63q-58 -37 -139 -37 q-101 0 -167.5 67.5t-66.5 182.5z" />
<glyph unicode="&#x207a;" horiz-adv-x="681" d="M72 1272l8 90h215v215h90v-215h225l-8 -90h-217v-217h-90v217h-223z" />
<glyph unicode="&#x207b;" horiz-adv-x="692" d="M72 1272l8 90h541l-9 -90h-540z" />
<glyph unicode="&#x207c;" horiz-adv-x="720" d="M72 1163l8 90h569l-8 -90h-569zM72 1380l8 90h569l-8 -90h-569z" />
<glyph unicode="&#x207d;" horiz-adv-x="403" d="M100 1307q0 186 64 317q64 134 129 199l63 -41v-31q-49 -58 -86 -178t-37 -266t37 -266.5t86 -178.5v-28l-63 -41q-64 58 -129 194q-64 134 -64 320z" />
<glyph unicode="&#x207e;" horiz-adv-x="403" d="M45 834v28q49 58 87 178.5t38 266.5t-38 265.5t-87 178.5v31l64 41q65 -65 129 -199q65 -133 65 -317t-65 -320t-129 -194z" />
<glyph unicode="&#x207f;" horiz-adv-x="770" d="M45 909l6 80l80 15v385l-86 14l6 78l201 16l16 -106h11l71 88q47 18 109 18q98 0 144 -50t46 -159v-284l86 -15l-6 -80h-225v351q0 122 -98 122q-81 0 -134 -77v-301l88 -15l-6 -80h-309z" />
<glyph unicode="&#x2080;" horiz-adv-x="763" d="M55 66q0 173 80 294q83 121 248 121q153 0 239.5 -106t86.5 -295q0 -172 -80 -293t-244 -121q-155 0 -242.5 107.5t-87.5 292.5zM211 78q0 -143 44.5 -226t137.5 -83q53 0 101 26q59 109 59 275q0 142 -45 226.5t-137 84.5q-59 0 -99 -27q-61 -110 -61 -276z" />
<glyph unicode="&#x2081;" horiz-adv-x="542" d="M55 297l219 170h103v-684l112 -14l-10 -88h-379l11 88l118 14v420l23 78l-10 10l-144 -66z" />
<glyph unicode="&#x2082;" horiz-adv-x="688" d="M55 -238q156 113 275 250q121 139 121 250q0 119 -140 119q-59 0 -108 -19l-19 -112l-102 -12l-16 194q125 49 266 49q130 0 204 -49.5t74 -148.5q0 -130 -112 -263q-114 -136 -256 -229l2 -14l391 24l-10 -120h-564z" />
<glyph unicode="&#x2083;" horiz-adv-x="661" d="M55 436q116 45 254 45q132 0 205.5 -49t73.5 -147q0 -136 -125 -170v-15q143 -34 143 -198q0 -111 -78 -173.5t-223 -62.5q-111 0 -223 37l6 115l320 -47q55 46 55 129q0 137 -207 137h-37l14 98l181 19q32 43 32 104q0 123 -141 123q-62 0 -115 -16l-16 -117l-102 -10z " />
<glyph unicode="&#x2084;" horiz-adv-x="794" d="M55 -76q86 71 178 250q95 185 109 293h150q-15 -110 -99 -270q-84 -158 -182 -246l6 -14h270v180l43 94h99v-274h110l-10 -91h-100v-71l-43 -94h-99v165h-426z" />
<glyph unicode="&#x2085;" horiz-adv-x="643" d="M55 -297l6 117l316 -49q69 48 69 145q0 141 -208 141h-160l24 410h459l-10 -123l-334 21l-14 -207l78 10q138 14 222.5 -48t84.5 -194q0 -124 -82.5 -192t-235.5 -68q-100 0 -215 37z" />
<glyph unicode="&#x2086;" horiz-adv-x="690" d="M55 18q0 179 97 308q98 128 270 143l133 12l-12 -116l-228 -27q-112 -100 -112 -307q0 -122 43 -193t131 -71q50 0 80 18q37 58 37 145q0 83 -49.5 121.5t-131.5 30.5q-30 -4 -47 -10l-12 10l10 61q56 39 139 39q102 0 167 -62.5t65 -176.5q0 -128 -80.5 -202.5 t-206.5 -74.5q-139 0 -216 96.5t-77 255.5z" />
<glyph unicode="&#x2087;" horiz-adv-x="722" d="M55 467h607l6 -92q-126 -144 -195 -334q-73 -198 -76 -360h-147q3 161 76 352q70 186 188 313l-6 14h-315l-19 -124l-106 -15z" />
<glyph unicode="&#x2088;" horiz-adv-x="698" d="M55 -115q0 125 125 213v8q-106 66 -106 173q0 109 82 155q83 47 196 47q117 0 191.5 -48t74.5 -140q0 -114 -112 -195v-8q139 -74 139 -203q0 -108 -81.5 -164.5t-211.5 -56.5q-135 0 -216 55.5t-81 163.5zM195 -104q0 -64 47.5 -98t122.5 -34q57 0 100 19q33 42 33 92 q0 71 -66 113q-53 31 -135 59l-16 6q-86 -80 -86 -157zM213 295q0 -36 31 -72q39 -34 57 -43l94 -35q2 -2 21 -8q67 85 67 152q0 102 -137 102q-54 0 -104 -16q-29 -50 -29 -80z" />
<glyph unicode="&#x2089;" horiz-adv-x="690" d="M55 203q0 131 82.5 204.5t216.5 73.5q139 0 210 -87.5t71 -243.5q0 -183 -90 -320q-88 -134 -244 -149l-162 -15l15 119l225 22q110 104 110 332q0 242 -163 242q-49 0 -86 -16q-43 -55 -43 -148q0 -80 40.5 -123t108.5 -43q36 0 80 12l12 -10l-10 -63q-58 -37 -139 -37 q-101 0 -167.5 67.5t-66.5 182.5z" />
<glyph unicode="&#x208a;" horiz-adv-x="681" d="M72 27l8 90h215v215h90v-215h225l-8 -90h-217v-217h-90v217h-223z" />
<glyph unicode="&#x208b;" horiz-adv-x="692" d="M72 27l8 90h541l-9 -90h-540z" />
<glyph unicode="&#x208c;" horiz-adv-x="720" d="M72 -78l8 90h569l-8 -90h-569zM72 139l8 90h569l-8 -90h-569z" />
<glyph unicode="&#x208d;" horiz-adv-x="403" d="M100 72q0 186 64 317q64 134 129 199l63 -41v-31q-49 -58 -86 -178t-37 -266t37 -266.5t86 -178.5v-28l-63 -41q-64 58 -129 194q-64 134 -64 320z" />
<glyph unicode="&#x208e;" horiz-adv-x="403" d="M45 -373q49 58 87 178.5t38 266.5t-38 265.5t-87 178.5v31l64 41q65 -65 129 -199q65 -133 65 -317t-65 -320t-129 -194l-64 41v28z" />
<glyph unicode="&#x20ac;" horiz-adv-x="1187" d="M51 412l19 123h104v116h-123l19 123h110q31 224 176 353.5t377 129.5q183 0 338 -73l-41 -281h-135v193q-77 26 -180 26q-121 0 -228 -49q-101 -125 -122 -299h647l-19 -123h-635v-116h617l-19 -123h-579q30 -137 126 -220t234 -83q183 0 299 104l64 -86 q-129 -150 -387 -150q-214 0 -355 123q-139 121 -174 312h-133z" />
<glyph unicode="&#x2116;" horiz-adv-x="2082" d="M66 0l10 113l151 28v1098l-161 31l10 110h368l580 -1036h14v895l-190 31l10 110h535l-11 -110l-151 -31v-1239h-207l-590 1051h-12v-910l196 -28l-8 -113h-544zM1409 0l10 133h574l-11 -133h-573zM1409 664q0 168 117 251q71 50 172 50q134 0 214.5 -81.5t80.5 -217.5 q0 -172 -119 -254q-68 -47 -172 -47q-132 0 -212.5 80.5t-80.5 218.5zM1575 668q0 -91 34 -148t99 -57q41 0 80 22q37 75 37 172q0 209 -135 209q-41 0 -76 -24q-39 -62 -39 -174z" />
<glyph unicode="&#x2122;" horiz-adv-x="1693" d="M76 1380h579l-10 -213l-84 -8l-16 135h-119v-456l96 -15l-6 -71h-307l6 71l90 15v456h-121l-16 -127l-82 -8zM752 752l6 71l71 15v456l-77 17l6 69h258l145 -444l15 -66h12l16 66l152 444h260l-6 -69l-72 -17v-456l76 -15l-6 -71h-269l7 67l75 17v305l6 104h-12 l-162 -493h-151l-158 493h-12l6 -104v-305l82 -15l-8 -69h-260z" />
<glyph unicode="&#x2202;" horiz-adv-x="1138" d="M106 410q0 206 113 313q114 111 285 111q140 0 235 -62l-10 -96q-53 16 -154 16q-115 0 -206 -45q-68 -109 -68 -233q0 -138 72.5 -217.5t187.5 -79.5q94 0 176 55q101 183 101 414q0 179 -58 322t-164 222l-376 52l14 151l215 -24q268 -30 416 -240q147 -209 147 -500 q0 -259 -123 -426q-120 -166 -362 -166q-201 0 -321 114.5t-120 318.5z" />
<glyph unicode="&#x220f;" horiz-adv-x="1562" d="M76 0l10 113l162 28v1098l-172 31l10 110h1401l-10 -110l-164 -31v-1098l174 -28l-10 -113h-574l10 113l191 28v1094h-645v-1094l203 -28l-11 -113h-575z" />
<glyph unicode="&#x2211;" horiz-adv-x="1320" d="M76 0l10 113l107 28l393 555v15l-389 528l-117 31l10 110h1112l-14 -426l-137 -16l-37 301h-602l374 -506v-43l-389 -549h633l37 308l139 14l15 -463h-1145z" />
<glyph unicode="&#x2212;" horiz-adv-x="1134" d="M121 608l12 127h881l-15 -127h-878z" />
<glyph unicode="&#x221a;" horiz-adv-x="1058" d="M25 666l10 102h258l174 -707h12l387 1430h168l-456 -1602h-230l-190 750z" />
<glyph unicode="&#x221e;" horiz-adv-x="1585" d="M106 559q0 125 91 213q88 88 223 88q99 0 185 -50.5t190 -156.5q71 71 114 105q49 40 122.5 71t142.5 31q135 0 220 -81.5t85 -209.5q0 -134 -95 -223q-91 -88 -225 -88q-86 0 -170 47.5t-196 159.5q-83 -81 -164 -139q-98 -68 -213 -68q-132 0 -221 86q-89 89 -89 215z M250 571q0 -84 52 -139t128 -55q48 0 105 31q54 29 89.5 58.5t90.5 88.5q-99 104 -168.5 146t-159.5 42q-41 0 -94 -12q-43 -73 -43 -160zM874 563q108 -103 179 -147q62 -39 155 -39q46 0 80 12q47 89 47 172q0 84 -48 133t-122 49q-68 0 -135 -44t-156 -136z" />
<glyph unicode="&#x222b;" horiz-adv-x="755" d="M76 -365l12 101l238 151q30 151 12 293l-109 772q-34 232 84 387q120 153 342 193l23 -23l-10 -100l-240 -154q-30 -159 -12 -288l108 -772q35 -236 -84 -390q-119 -155 -342 -192z" />
<glyph unicode="&#x2248;" horiz-adv-x="1251" d="M121 461q83 170 274 170q80 0 148 -25q36 -12 39 -14q77 -29 84 -33q136 -62 225 -72l145 111h27l65 -57q-82 -172 -276 -172q-72 0 -131 18l-57 19l-25 10q-14 10 -55 24q-134 63 -226 72l-145 -113h-27zM123 799q86 170 276 170q47 0 125 -19q13 -1 38.5 -10t33.5 -14 q62 -26 72 -29q145 -62 223 -72l147 113h27l65 -59q-83 -170 -274 -170q-103 0 -268 71q-142 62 -228 72l-145 -113h-27z" />
<glyph unicode="&#x2260;" horiz-adv-x="1165" d="M121 436l12 127h332l104 215h-448l12 127h498l114 236l138 18l20 -18l-112 -236h256l-15 -127h-305l-102 -215h422l-15 -127h-469l-112 -235l-138 -17l-22 17l112 235h-282z" />
<glyph unicode="&#x2264;" horiz-adv-x="1110" d="M121 348l16 113l768 528l62 -84l-625 -424l6 -14l643 8l-16 -127h-854zM123 0l14 127h854l-14 -127h-854z" />
<glyph unicode="&#x2265;" horiz-adv-x="1110" d="M121 348l16 127l627 -8l4 14l-623 424l60 84l776 -528l-16 -113h-844zM123 0l14 127h854l-14 -127h-854z" />
<glyph unicode="&#x25ca;" horiz-adv-x="1009" d="M76 690l321 791h228l307 -789l-322 -790h-223zM236 721l272 -680h12l252 623l-272 677h-13z" />
<glyph unicode="&#x25fc;" horiz-adv-x="942" d="M0 0v942h942v-942h-942z" />
<glyph unicode="&#xf0000;" horiz-adv-x="1523" d="M168 690q0 248 172 420q174 174 422 174q249 0 420 -174q174 -171 174 -420q0 -248 -174 -422q-172 -172 -420 -172q-164 0 -306.5 82.5t-219.5 214.5l163 264h-34l-146 -231q-51 105 -51 264zM399 690l166 -100v364zM598 293l393 133l-196 330l-197 -99v-364zM598 690 l461 264h-397v131h-64v-395zM958 360l134 -67l-66 100zM1026 791h66v96h-66v-96z" />
<glyph horiz-adv-x="0" />
<glyph horiz-adv-x="681" />
<glyph horiz-adv-x="397" />
<glyph horiz-adv-x="1206" d="M98 504q0 245 135 383q138 141 369 141q233 0 371 -141q137 -140 137 -385q0 -240 -137 -383q-136 -142 -369 -142q-229 0 -368 142q-138 141 -138 385zM307 514q0 -215 92 -307t219 -92q116 0 203 43q78 128 78 325q0 216 -90 312t-215 96q-118 0 -207 -45 q-80 -130 -80 -332z" />
<glyph horiz-adv-x="751" d="M23 829l342 177h137v-859l219 -30l-10 -117h-643l10 117l235 30v517l29 122l-8 13l-277 -74z" />
<glyph horiz-adv-x="985" d="M72 113q256 134 422 284q172 156 172 316q0 85 -54.5 131.5t-156.5 46.5q-107 0 -183 -31l-28 -192l-135 -13l-21 295q194 78 393 78q188 0 292 -73t104 -212q0 -181 -156 -337q-154 -157 -371 -265l2 -12h557l-20 -297l-135 -14l-21 182h-653z" />
<glyph horiz-adv-x="980" d="M72 950q203 78 383 78q190 0 296.5 -78.5t106.5 -232.5q0 -226 -194 -273v-14q103 -27 162 -104.5t59 -202.5q0 -172 -116 -266.5t-339 -94.5q-184 0 -332 56l11 149l464 -65q113 76 113 221q0 117 -86 167t-254 50h-53l14 137l299 33q60 69 60 178q0 100 -59.5 151.5 t-164.5 51.5q-103 0 -188 -33l-27 -188l-135 -15z" />
<glyph horiz-adv-x="1163" d="M70 156q120 117 260 397q142 284 168 453h182q-20 -170 -145 -422q-120 -246 -265 -400l6 -10h449v178l27 180l155 13v-371h178l-10 -129h-168v-96l-26 -172l-156 -15v283h-645z" />
<glyph horiz-adv-x="952" d="M72 -180l8 147l467 -63q115 71 115 235q0 129 -89 179.5t-282 50.5h-187l41 637h680l-28 -332l-138 -17l-20 205h-338l-25 -352l158 14q197 0 309.5 -91t112.5 -275q0 -186 -120 -291t-341 -105q-161 0 -323 58z" />
<glyph horiz-adv-x="1042" d="M98 522q-2 102 19.5 198t68 180.5t112.5 150.5t157.5 109.5t199.5 56.5l197 20l-12 -162l-334 -31q-104 -75 -161.5 -209.5t-57.5 -304.5q0 -193 72.5 -303t209.5 -110q81 0 140 30q63 92 63 242q0 234 -250 234q-70 0 -135 -21l-16 16l12 82q88 58 217 58 q160 0 260.5 -93.5t100.5 -261.5q0 -200 -119 -313t-303 -113q-218 0 -330 154q-111 153 -111 391z" />
<glyph horiz-adv-x="1036" d="M53 1006h922l8 -132q-174 -201 -285 -462q-109 -261 -133 -502l-35 -133l-178 -15q9 257 125 574q117 311 301 516l-6 10h-526l-31 -198l-141 -17z" />
<glyph horiz-adv-x="1069" d="M98 324q0 199 195 338v12q-86 52 -127 115.5t-41 158.5q0 86 36.5 150.5t100.5 97.5q119 61 277 61q170 0 282 -69q115 -68 115 -223q0 -179 -174 -316v-12q211 -111 211 -313q0 -173 -125 -261q-122 -88 -309 -88q-189 0 -316 86q-125 88 -125 263zM283 334 q0 -108 73.5 -162.5t196.5 -54.5q91 0 168 30q59 65 59 156q9 88 -86 174q-17 17 -58 38.5t-67 31.5l-73 31l-70 28q-143 -134 -143 -272zM307 969q0 -49 27 -101q17 -27 78 -69q68 -38 108 -54l62 -24l61 -23q119 140 119 265q0 89 -54 127t-173 38q-115 0 -179 -24 q-49 -73 -49 -135z" />
<glyph horiz-adv-x="1042" d="M82 604q0 201 125 311q125 113 323 113q209 0 312.5 -130.5t103.5 -369.5q0 -288 -137 -501q-138 -215 -387 -242l-209 -23l14 164l328 33q94 79 147 236q56 157 56 340t-61.5 268.5t-200.5 85.5q-94 0 -154 -31q-70 -88 -70 -242q0 -129 67.5 -190t182.5 -61 q64 0 137 18l15 -14l-12 -84q-88 -58 -218 -58q-161 0 -261.5 99t-100.5 278z" />
<glyph horiz-adv-x="763" d="M55 987q0 174 80 295q83 121 248 121q152 0 239 -106.5t87 -295.5q0 -173 -80 -294q-79 -119 -244 -119q-155 0 -242.5 107t-87.5 292zM211 999q0 -143 44.5 -226t137.5 -83q51 0 101 27q59 109 59 274q0 142 -45 227t-137 85q-59 0 -99 -27q-61 -110 -61 -277z" />
<glyph horiz-adv-x="542" d="M55 1219l219 170h103v-684l112 -15l-10 -88h-379l11 88l118 15v419l23 78l-10 10l-144 -65z" />
<glyph horiz-adv-x="688" d="M55 684q156 113 275 250q121 139 121 250q0 119 -140 119q-59 0 -108 -19l-19 -113l-102 -12l-16 195q125 49 266 49q129 0 203.5 -49.5t74.5 -149.5q0 -129 -112 -262q-114 -136 -256 -229l2 -15l391 25l-10 -121h-564z" />
<glyph horiz-adv-x="661" d="M55 1358q116 45 254 45q132 0 205.5 -49.5t73.5 -147.5q0 -136 -125 -170v-14q143 -34 143 -199q0 -111 -78 -173t-223 -62q-111 0 -223 37l6 114l320 -47q55 46 55 129q0 137 -207 137h-37l14 99l181 18q32 43 32 105q0 123 -141 123q-59 0 -115 -17l-16 -117l-102 -10z " />
<glyph horiz-adv-x="794" d="M55 846q86 71 178 250q95 185 109 293h150q-15 -112 -99 -271q-84 -158 -182 -246l6 -14h270v180l43 95h99v-275h110l-10 -90h-100v-72l-43 -94h-99v166h-426z" />
<glyph horiz-adv-x="643" d="M55 625l6 116l316 -49q69 48 69 146q0 141 -208 141h-160l24 410h459l-10 -123l-334 20l-14 -207l78 11q138 14 222.5 -48t84.5 -194q0 -124 -82.5 -192t-235.5 -68q-100 0 -215 37z" />
<glyph horiz-adv-x="690" d="M55 940q0 178 97 307q99 129 270 144l133 12l-12 -117l-228 -26q-112 -100 -112 -308q0 -122 43 -193t131 -71q48 0 80 19q37 58 37 145q0 83 -49.5 121.5t-131.5 30.5q-24 -4 -47 -11l-12 11l10 61q56 39 139 39q102 0 167 -62.5t65 -177.5q0 -128 -80.5 -202 t-206.5 -74q-139 0 -216 96.5t-77 255.5z" />
<glyph horiz-adv-x="722" d="M55 1389h607l6 -93q-127 -145 -195 -333q-73 -198 -76 -361h-147q3 161 76 352q70 187 188 314l-6 14h-315l-19 -125l-106 -14z" />
<glyph horiz-adv-x="698" d="M55 807q0 125 125 213v8q-106 66 -106 172q0 110 82 156q83 47 196 47q117 0 191.5 -48t74.5 -141q0 -113 -112 -194v-8q139 -74 139 -203q0 -108 -81.5 -164.5t-211.5 -56.5q-135 0 -216 55.5t-81 163.5zM195 817q0 -64 47.5 -97.5t122.5 -33.5q57 0 100 19q33 42 33 92 q0 74 -66 110q-34 22 -56 32t-79 30l-16 6q-86 -77 -86 -158zM213 1217q0 -36 31 -72q39 -34 57 -43l94 -35l21 -8q67 85 67 151q0 103 -137 103q-51 0 -104 -17q-29 -50 -29 -79z" />
<glyph horiz-adv-x="690" d="M55 1124q0 131 82.5 205t216.5 74q139 0 210 -88t71 -244q0 -182 -90 -319q-89 -135 -244 -150l-162 -14l15 119l225 22q110 104 110 332q0 242 -163 242q-47 0 -86 -17q-43 -55 -43 -147q0 -80 40.5 -123t108.5 -43q36 0 80 12l12 -10l-10 -64q-58 -37 -139 -37 q-101 0 -167.5 67.5t-66.5 182.5z" />
<glyph horiz-adv-x="763" d="M55 385q0 174 80 295q83 121 248 121q152 0 239 -106.5t87 -295.5q0 -174 -80 -295q-78 -118 -244 -118q-155 0 -242.5 107t-87.5 292zM211 397q0 -143 44.5 -226t137.5 -83q51 0 101 27q59 109 59 274q0 142 -45 226.5t-137 84.5q-60 0 -99 -26q-61 -110 -61 -277z" />
<glyph horiz-adv-x="542" d="M55 616l219 170h103v-684l112 -14l-10 -88h-379l11 88l118 14v420l23 78l-10 10l-144 -65z" />
<glyph horiz-adv-x="688" d="M55 82q156 113 275 250q121 139 121 250q0 118 -140 118q-61 0 -108 -18l-19 -113l-102 -12l-16 195q125 49 266 49q129 0 203.5 -49.5t74.5 -149.5q0 -129 -112 -262q-114 -136 -256 -229l2 -15l391 25l-10 -121h-564z" />
<glyph horiz-adv-x="661" d="M55 756q116 45 254 45q132 0 205.5 -49.5t73.5 -147.5q0 -136 -125 -170v-14q143 -34 143 -199q0 -111 -78 -173t-223 -62q-111 0 -223 37l6 114l320 -47q55 46 55 129q0 137 -207 137h-37l14 99l181 18q32 43 32 105q0 122 -141 122q-62 0 -115 -16l-16 -117l-102 -10z " />
<glyph horiz-adv-x="794" d="M55 244q86 71 178 250q95 185 109 292h150q-15 -110 -99 -270q-84 -158 -182 -246l6 -14h270v180l43 94h99v-274h110l-10 -90h-100v-72l-43 -94h-99v166h-426z" />
<glyph horiz-adv-x="643" d="M55 23l6 116l316 -49q69 48 69 146q0 141 -208 141h-160l24 409h459l-10 -122l-334 20l-14 -207l78 10q139 14 223 -47.5t84 -193.5q0 -124 -82.5 -192t-235.5 -68q-100 0 -215 37z" />
<glyph horiz-adv-x="690" d="M55 338q0 178 97 307q98 128 270 143l133 13l-12 -117l-228 -27q-112 -100 -112 -307q0 -122 43 -193t131 -71q50 0 80 18q37 58 37 146q0 83 -49.5 121t-131.5 30q-30 -4 -47 -10l-12 10l10 62q56 39 139 39q102 0 167 -62.5t65 -177.5q0 -128 -80.5 -202t-206.5 -74 q-139 0 -216 96.5t-77 255.5z" />
<glyph horiz-adv-x="722" d="M55 786h607l6 -92q-126 -144 -195 -334q-73 -198 -76 -360h-147q3 161 76 352q70 187 188 314l-6 14h-315l-19 -125l-106 -14z" />
<glyph horiz-adv-x="698" d="M55 205q0 125 125 213v8q-106 66 -106 172q0 110 82 156q83 47 196 47q117 0 191.5 -48t74.5 -141q0 -113 -112 -194v-8q139 -74 139 -203q0 -108 -81.5 -164.5t-211.5 -56.5q-135 0 -216 55.5t-81 163.5zM195 215q0 -64 47.5 -97.5t122.5 -33.5q59 0 100 18q33 42 33 93 q0 74 -66 110q-34 22 -56 32t-79 30l-16 6q-86 -77 -86 -158zM213 614q0 -35 31 -71q39 -34 57 -43l94 -35l21 -8q67 85 67 151q0 103 -137 103q-51 0 -104 -17q-29 -50 -29 -80z" />
<glyph horiz-adv-x="690" d="M55 522q0 131 82.5 205t216.5 74q139 0 210 -88t71 -244q0 -182 -90 -319q-89 -135 -244 -150l-162 -14l15 118l225 23q110 104 110 332q0 241 -163 241q-49 0 -86 -16q-43 -55 -43 -147q0 -80 40.5 -123t108.5 -43q36 0 80 12l12 -10l-10 -64q-58 -37 -139 -37 q-101 0 -167.5 67.5t-66.5 182.5z" />
<glyph horiz-adv-x="1173" d="M20 0l11 102l82 27l313 748l-137 26l10 103h416l350 -877l88 -27l-10 -102h-432l8 98l153 27l-71 178h-445l-71 -178l159 -27l-6 -98h-418zM403 420h355l-166 448h-14z" />
<glyph horiz-adv-x="1118" d="M76 0l10 102l117 27v748l-127 26l10 103h514q391 0 391 -250q0 -82 -37 -133.5t-114 -92.5v-12q182 -68 182 -244q0 -119 -80 -190q-104 -84 -324 -84h-542zM389 129h150q181 0 258 21q32 49 32 133q0 168 -219 168h-133l10 116h52q129 0 219 23q49 46 49 133 q0 90 -59.5 122t-196.5 32h-162v-748z" />
<glyph horiz-adv-x="1091" d="M100 506q0 314 215 446q125 76 310 76q187 0 352 -74l-12 -297l-134 -14l-26 227q-65 33 -191 33q-108 0 -206 -39q-51 -58 -83 -154t-32 -198q0 -179 96 -295q98 -113 254 -113q171 0 293 107l63 -76q-126 -153 -391 -153q-235 0 -371.5 139.5t-136.5 384.5z" />
<glyph horiz-adv-x="1200" d="M76 0l12 102l115 27v748l-127 26l12 103h461q246 0 403 -121q156 -120 156 -379q0 -297 -197 -426q-124 -80 -327 -80h-508zM391 129h123q165 0 287 29q114 138 114 348q0 182 -101 276.5t-292 94.5h-131v-748z" />
<glyph horiz-adv-x="1085" d="M76 0l10 102l117 27v748l-127 26l10 103h883l-15 -316l-116 -14l-29 201h-422v-320h199l-8 105l133 10l-13 -359l-92 -10l-14 139h-205v-313h434l29 205l119 12l14 -346h-907z" />
<glyph horiz-adv-x="1038" d="M76 0l10 102l117 23v752l-127 26l10 103h879l-15 -316l-123 -14l-26 201h-414v-332h195l-9 108l136 11l-13 -351l-94 -10l-12 129h-203v-307l174 -23l-10 -102h-475z" />
<glyph horiz-adv-x="1169" d="M100 506q0 314 222 444q135 78 311 78q195 0 360 -76l-14 -290l-131 -15l-27 221q-90 35 -198 35q-105 0 -211 -41q-119 -131 -119 -358q0 -182 90 -291t254 -109q105 0 203 39v219l-244 25l10 100h496l-10 -100l-93 -25v-262q-142 -118 -378 -118q-249 0 -385 139 t-136 385z" />
<glyph horiz-adv-x="1265" d="M76 0l10 102l117 27v748l-127 26l10 103h453l-13 -103l-135 -26v-308h483v308l-145 26l8 103h453l-12 -103l-115 -26v-748l127 -27l-12 -102h-449l10 102l135 27v311h-483v-311l146 -27l-11 -102h-450z" />
<glyph horiz-adv-x="593" d="M76 0l10 102l117 25v754l-127 22l10 103h432l-10 -103l-117 -22v-754l127 -25l-10 -102h-432z" />
<glyph horiz-adv-x="610" d="M57 -233l11 96q87 34 137 90q28 79 28 225v705l-133 20l11 103h432l-11 -103l-110 -20v-676q0 -230 -129 -344q-78 -78 -217 -113z" />
<glyph horiz-adv-x="1169" d="M76 0l10 102l117 27v748l-127 26l10 103h428l-10 -103l-113 -26v-748l129 -27l-10 -102h-434zM473 449l6 94l326 334l-121 26l10 103h434l-10 -103l-112 -26l-353 -363q148 -199 361 -385l119 -27l-9 -102h-245q-229 198 -406 449z" />
<glyph horiz-adv-x="1001" d="M76 0l10 102l117 27v748l-127 26l10 103h463l-10 -103l-148 -26v-748h363l28 211l129 12l15 -352h-850z" />
<glyph horiz-adv-x="1601" d="M53 0l10 102l115 27l70 748l-129 26l10 103h410l252 -816h14l256 816h418l-11 -103l-118 -26l73 -748l127 -27l-10 -102h-432l10 98l125 27l-59 725h-10l-267 -850h-237l-258 848h-13l-61 -723l135 -25l-10 -100h-410z" />
<glyph horiz-adv-x="1236" d="M66 0l10 102l117 27v748l-127 26l10 103h309l500 -725h10v596l-156 26l11 103h430l-11 -103l-114 -26v-877h-176l-517 752h-12v-623l156 -27l-10 -102h-430z" />
<glyph horiz-adv-x="1234" d="M100 504q0 318 217 450q121 74 304 74q242 0 377 -138.5t135 -385.5q0 -322 -213 -455q-123 -72 -299 -72q-246 0 -383.5 140.5t-137.5 386.5zM303 502q0 -188 79 -296t243 -108q106 0 202 41q105 132 105 365q0 80 -17 148.5t-53 127.5t-100.5 93t-151.5 34 q-120 0 -202 -43q-105 -132 -105 -362z" />
<glyph horiz-adv-x="1103" d="M76 0l10 102l117 27v748l-127 26l10 103h516q183 0 299 -76q117 -74 117 -240q0 -168 -121 -254q-100 -74 -258 -74h-39l-127 23l10 107h66q147 0 221 22q51 71 51 166q0 197 -260 197h-172v-748l152 -27l-11 -102h-454z" />
<glyph horiz-adv-x="1234" d="M100 504q0 318 217 450q121 74 304 74q242 0 377 -138.5t135 -385.5q0 -322 -213 -455q-105 -63 -258 -72q-31 -61 -2.5 -107t104.5 -46h110l-10 -84q-79 -31 -176 -31q-86 0 -139 40t-53 108q0 37 14 75l43 48l-6 10q-208 19 -327.5 155.5t-119.5 358.5zM303 502 q0 -188 79 -296t243 -108q106 0 202 41q105 132 105 365q0 80 -17 148.5t-53 127.5t-100.5 93t-151.5 34q-120 0 -202 -43q-105 -132 -105 -362z" />
<glyph horiz-adv-x="1130" d="M76 0l10 102l117 27v748l-127 26l10 103h504q83 0 152.5 -14t132.5 -46t99 -93.5t36 -147.5q0 -153 -115 -236q-55 -44 -125 -57l-4 -11q77 -160 197 -274l120 -25l-10 -102h-235q-168 196 -260 387l-113 27l10 104h96q113 0 193 25q51 54 51 153q0 181 -250 181h-176 v-748l129 -27l-10 -102h-432z" />
<glyph horiz-adv-x="1044" d="M119 748q0 170 155 237q90 43 250 43q190 0 367 -65l-25 -256l-131 -13l-20 185q-98 26 -197 26q-101 0 -174 -20q-43 -58 -43 -109q0 -75 92 -121q71 -28 90 -34l119 -33q92 -25 153.5 -51t108.5 -61.5t68.5 -84t21.5 -112.5q0 -179 -157 -250q-119 -52 -308 -52 q-198 0 -368 72l22 283l131 10l21 -203q79 -33 203 -33q120 0 209 27q47 47 47 121q0 52 -52 100q-17 17 -63 35l-70 27q-15 6 -88 26l-139 45q-50 20 -111 56q-112 69 -112 205z" />
<glyph horiz-adv-x="1136" d="M76 1006h985l-14 -340l-132 -13l-26 224h-225v-748l157 -27l-10 -102h-494l11 102l147 27v748h-227l-27 -211l-131 -13z" />
<glyph horiz-adv-x="1239" d="M76 903l10 103h449l-11 -103l-143 -26v-469q0 -151 58.5 -226.5t201.5 -75.5q128 0 219 60q33 73 33 252v459l-154 26l11 103h419l-10 -103l-104 -26v-453q0 -231 -102.5 -339t-342.5 -108q-222 0 -319.5 104t-97.5 327v469z" />
<glyph horiz-adv-x="1124" d="M20 903l11 103h436l-10 -101l-146 -26l250 -695h14l267 695l-158 26l10 101h408l-10 -103l-82 -26l-348 -877h-218l-331 877z" />
<glyph horiz-adv-x="1515" d="M20 903l11 103h407l-10 -101l-139 -26l149 -652h13l223 779h182l211 -779h12l164 652l-147 26l10 101h389l-10 -103l-82 -26l-227 -877h-215l-199 745h-14l-207 -745h-217l-211 877z" />
<glyph horiz-adv-x="1204" d="M43 0l10 102l92 27l338 387l-321 361l-103 26l11 103h448l-10 -95l-121 -26l229 -267l228 267l-133 26l10 95h426l-10 -103l-93 -26l-321 -371l336 -377l102 -27l-10 -102h-457l11 92l129 29l-246 280l-242 -280l139 -29l-10 -92h-432z" />
<glyph horiz-adv-x="1167" d="M20 903l11 103h448l-10 -101l-141 -26l258 -383h12l270 383l-153 26l10 101h420l-10 -103l-88 -24l-377 -521v-229l159 -27l-10 -102h-497l10 102l149 27v229l-360 521z" />
<glyph horiz-adv-x="1034" d="M76 135l669 729l-6 13h-469l-30 -213l-129 -13l-15 355h838l24 -144l-661 -721l6 -12h463l31 227l131 15l14 -371h-842z" />
<glyph horiz-adv-x="1173" d="M20 0l11 102l82 27l313 748l-137 26l10 103h416l350 -877l88 -27l-10 -102h-432l8 98l153 27l-71 178h-445l-71 -178l159 -27l-6 -98h-418zM403 420h355l-166 448h-14z" />
<glyph horiz-adv-x="1132" d="M76 0l10 102l117 27v748l-127 26l10 103h856l-14 -306l-129 -12l-29 189h-381v-748h146q159 0 262 23q41 59 41 137q0 88 -64.5 132t-173.5 44h-123l10 115h148q94 0 184 -23q88 -22 149.5 -91t61.5 -169q0 -144 -106 -225q-58 -41 -137.5 -56.5t-217.5 -15.5h-493z" />
<glyph horiz-adv-x="1118" d="M76 0l10 102l117 27v748l-127 26l10 103h514q391 0 391 -250q0 -82 -37 -133.5t-114 -92.5v-12q182 -68 182 -244q0 -119 -80 -190q-104 -84 -324 -84h-542zM389 129h150q181 0 258 21q32 49 32 133q0 168 -219 168h-133l10 116h52q129 0 219 23q49 46 49 133 q0 90 -59.5 122t-196.5 32h-162v-748z" />
<glyph horiz-adv-x="993" d="M76 903l10 103h852l-14 -320l-129 -12l-27 203h-367v-748l160 -27l-10 -102h-465l10 102l117 27v748z" />
<glyph horiz-adv-x="1150" d="M20 129h101l299 748l-137 26l10 103h401l332 -877h102l-14 -324l-131 -12l-20 207h-777l-20 -195l-131 -12zM287 129h555l-262 721h-15z" />
<glyph horiz-adv-x="1085" d="M76 0l10 102l117 27v748l-127 26l10 103h883l-15 -316l-116 -14l-29 201h-422v-320h199l-8 105l133 10l-13 -359l-92 -10l-14 139h-205v-313h434l29 205l119 12l14 -346h-907z" />
<glyph horiz-adv-x="1673" d="M35 0l10 102l117 27q176 176 315 389l-309 359l-119 26l10 103h435l-11 -103l-110 -26l286 -336l-10 -101q-145 -231 -348 -440h-266zM606 0l10 102l127 27v748l-114 26l10 103h410l-11 -103l-104 -26v-748l137 -27l-10 -102h-455zM1016 455l8 94l279 328l-121 26l10 103 h432l-10 -103l-109 -26l-309 -359q145 -222 315 -389l127 -27l-10 -102h-254q-218 225 -358 455z" />
<glyph horiz-adv-x="991" d="M90 963q177 65 373 65q191 0 296 -65t105 -197q0 -154 -155 -221v-13q180 -58 180 -233q0 -148 -107.5 -235t-281.5 -87q-80 0 -205 23q-118 22 -180 55l43 133l420 -96q122 70 122 201q0 170 -243 170q-59 0 -127 -8l10 141q172 -23 297 8q47 59 47 141t-62 122t-169 40 q-111 0 -193 -28l-20 -187l-129 -12z" />
<glyph horiz-adv-x="1251" d="M61 903l11 103h438l-10 -103l-129 -26v-635h12l469 764h324l-11 -103l-116 -26v-750l127 -25l-11 -102h-438l10 102l129 25v631h-14l-465 -758h-199v877z" />
<glyph horiz-adv-x="1251" d="M61 903l11 103h438l-10 -103l-129 -26v-635h12l469 764h324l-11 -103l-116 -26v-750l127 -25l-11 -102h-438l10 102l129 25v631h-14l-465 -758h-199v877zM332 1376l160 13q18 -48 54.5 -79t79.5 -38.5t85.5 1t77.5 39.5t51 77l108 -13q-26 -110 -109.5 -171.5 t-195.5 -61.5q-114 0 -200.5 62t-110.5 171z" />
<glyph horiz-adv-x="1169" d="M76 0l10 102l117 27v748l-127 26l10 103h428l-10 -103l-113 -26v-748l129 -27l-10 -102h-434zM473 449l6 94l326 334l-121 26l10 103h434l-10 -103l-112 -26l-353 -363q148 -199 361 -385l119 -27l-9 -102h-245q-229 198 -406 449z" />
<glyph horiz-adv-x="1155" d="M20 0l11 102l82 27l303 748l-140 26l11 103h405l348 -877l93 -27l-11 -102h-432l10 102l148 27l-273 707h-14l-274 -707l157 -27l-10 -102h-414z" />
<glyph horiz-adv-x="1601" d="M53 0l10 102l115 27l70 748l-129 26l10 103h410l252 -816h14l256 816h418l-11 -103l-118 -26l73 -748l127 -27l-10 -102h-432l10 98l125 27l-59 725h-10l-267 -850h-237l-258 848h-13l-61 -723l135 -25l-10 -100h-410z" />
<glyph horiz-adv-x="1265" d="M76 0l10 102l117 27v748l-127 26l10 103h453l-13 -103l-135 -26v-308h483v308l-145 26l8 103h453l-12 -103l-115 -26v-748l127 -27l-12 -102h-449l10 102l135 27v311h-483v-311l146 -27l-11 -102h-450z" />
<glyph horiz-adv-x="1234" d="M100 504q0 318 217 450q121 74 304 74q242 0 377 -138.5t135 -385.5q0 -322 -213 -455q-123 -72 -299 -72q-246 0 -383.5 140.5t-137.5 386.5zM303 502q0 -188 79 -296t243 -108q106 0 202 41q105 132 105 365q0 80 -17 148.5t-53 127.5t-100.5 93t-151.5 34 q-120 0 -202 -43q-105 -132 -105 -362z" />
<glyph horiz-adv-x="1232" d="M76 0l10 102l117 25v750l-127 26l10 103h1071l-10 -103l-115 -26v-750l125 -25l-10 -102h-440l10 102l125 25v750h-451v-750l135 -25l-10 -102h-440z" />
<glyph horiz-adv-x="1103" d="M76 0l10 102l117 27v748l-127 26l10 103h516q183 0 299 -76q117 -74 117 -240q0 -168 -121 -254q-100 -74 -258 -74h-39l-127 23l10 107h66q147 0 221 22q51 71 51 166q0 197 -260 197h-172v-748l152 -27l-11 -102h-454z" />
<glyph horiz-adv-x="1091" d="M100 506q0 314 215 446q125 76 310 76q187 0 352 -74l-12 -297l-134 -14l-26 227q-65 33 -191 33q-108 0 -206 -39q-51 -58 -83 -154t-32 -198q0 -179 96 -295q98 -113 254 -113q171 0 293 107l63 -76q-126 -153 -391 -153q-235 0 -371.5 139.5t-136.5 384.5z" />
<glyph horiz-adv-x="1136" d="M76 1006h985l-14 -340l-132 -13l-26 224h-225v-748l157 -27l-10 -102h-494l11 102l147 27v748h-227l-27 -211l-131 -13z" />
<glyph horiz-adv-x="1120" d="M25 903l10 103h430l-10 -103l-144 -26l236 -498h28l250 498l-159 26l10 103h424l-10 -103l-78 -26l-348 -697q-98 -198 -308 -198q-80 0 -133 16l10 117h48q87 0 139 10q50 44 96 137h-117l-286 615z" />
<glyph horiz-adv-x="1499" d="M100 494q0 300 205 432q127 80 305 80h49v71l-133 29l11 96h436l-10 -96l-123 -29v-71h49q238 0 374 -139t136 -375q0 -303 -203 -435q-121 -80 -305 -80h-55q-27 -249 -263 -290l-20 16l10 96q53 21 80 56q12 50 12 122h-45q-240 0 -375 138t-135 379zM295 487 q0 -163 76 -276t239 -113h49v785h-41q-122 0 -204 -33q-119 -125 -119 -363zM840 98h41q115 0 202 35q119 143 119 361q0 158 -78 274q-77 115 -235 115h-49v-785z" />
<glyph horiz-adv-x="1204" d="M43 0l10 102l92 27l338 387l-321 361l-103 26l11 103h448l-10 -95l-121 -26l229 -267l228 267l-133 26l10 95h426l-10 -103l-93 -26l-321 -371l336 -377l102 -27l-10 -102h-457l11 92l129 29l-246 280l-242 -280l139 -29l-10 -92h-432z" />
<glyph horiz-adv-x="1261" d="M76 0l10 102l117 27v748l-127 26l10 103h451l-11 -103l-135 -26v-748h469v748l-145 26l10 103h451l-11 -103l-114 -26v-748h147l-14 -324l-127 -14l-27 209h-954z" />
<glyph horiz-adv-x="1193" d="M55 903l11 103h434l-11 -103l-129 -26v-218q0 -235 232 -235q123 0 209 57v396l-139 26l10 103h444l-10 -103l-115 -26v-748l125 -27l-10 -102h-465l10 102l150 27v244h-13q-122 -84 -278 -84q-160 0 -249 89t-89 255v244z" />
<glyph horiz-adv-x="1640" d="M80 0l10 102l113 27v748l-123 26l10 103h416l-10 -103l-105 -26v-748h334v748l-115 26l11 103h407l-10 -103l-105 -26v-748h336v748l-116 26l10 103h418l-11 -103l-112 -26v-748l123 -27l-11 -102h-1470z" />
<glyph horiz-adv-x="1665" d="M76 0l10 102l113 27v748l-123 26l10 103h418l-10 -103l-107 -26v-748h334v748l-115 26l10 103h410l-10 -103l-107 -26v-748h336v748l-115 26l11 103h415l-10 -103l-112 -26v-748h157l-14 -330l-131 -14l-27 215h-1343z" />
<glyph horiz-adv-x="1253" d="M55 1006h627l-10 -103l-115 -26v-748h119q164 0 254 23q41 65 41 141q0 89 -63.5 135.5t-170.5 46.5h-92l10 123h117q99 0 182 -27q91 -27 151 -98t60 -174q0 -146 -106 -227q-58 -43 -145.5 -57.5t-254.5 -14.5h-415l8 102l115 27v756h-142l-28 -199l-127 -12z" />
<glyph horiz-adv-x="1552" d="M76 903l10 103h434l-10 -103l-119 -26v-748h113q151 0 235 23q39 68 39 141q0 90 -62.5 136t-170.5 46h-64l11 123h88q56 0 109.5 -9t106 -31t92 -55.5t63.5 -85.5t24 -118q0 -145 -107 -227q-55 -43 -138.5 -57.5t-240.5 -14.5h-411l10 102l115 27v748zM1034 0l10 102 l115 25v754l-125 22l10 103h431l-11 -103l-114 -22v-754l125 -25l-11 -102h-430z" />
<glyph horiz-adv-x="1087" d="M76 903l10 103h434l-10 -103l-119 -26v-748h119q166 0 256 23q39 59 39 141q0 90 -63 136t-171 46h-90l11 123h116q156 0 275 -72q118 -69 118 -227q0 -146 -106 -227q-59 -43 -146.5 -57.5t-252.5 -14.5h-418l10 102l115 27v748z" />
<glyph horiz-adv-x="1095" d="M104 950q162 78 367 78q253 0 388.5 -132.5t135.5 -383.5t-134 -393t-369 -142q-219 0 -373 80l45 131l452 -94q166 94 187 346h-299l-8 -131l-103 -10l-12 373l135 10l-6 -125h295q-8 162 -90.5 254t-233.5 92q-132 0 -205 -33l-26 -215l-131 -14z" />
<glyph horiz-adv-x="1691" d="M76 0l10 102l117 27v750l-127 24l10 103h434l-10 -103l-119 -24v-310h203q21 265 209 385q118 74 287 74q237 0 369 -138.5t132 -383.5q0 -155 -55.5 -274.5t-157.5 -182.5q-116 -72 -286 -72q-221 0 -352 123t-148 340h-201v-311l129 -27l-10 -102h-434zM791 504 q0 -187 76 -296.5t229 -109.5q104 0 194 41q99 138 99 365q0 172 -74 287q-73 116 -234 116q-111 0 -190 -43q-100 -129 -100 -360z" />
<glyph horiz-adv-x="1128" d="M61 0l11 102l112 25q97 121 170 264q-102 32 -163.5 111t-61.5 198t64 189q62 68 142.5 92.5t199.5 24.5h518l-11 -103l-118 -26v-750l125 -25l-11 -102h-442l10 102l129 25v750h-145q-134 0 -199 -15q-65 -62 -65 -162q0 -202 243 -202h84l-10 -101l-102 -24 q-114 -219 -242 -373h-238z" />
<glyph horiz-adv-x="210" d="M16 1266l13 114h133q33 -42 33 -110q0 -65 -35 -121.5t-90 -83.5l-35 43q39 33 39 88q0 52 -58 70z" />
<glyph horiz-adv-x="516" d="M76 -219q0 61 35.5 110.5t101.5 73.5v35h166v-14q-75 -26 -117.5 -73t-42.5 -101q0 -44 40.5 -74.5t96.5 -30.5h82l-10 -88l-111 -20q-114 0 -177.5 50.5t-63.5 131.5z" />
<glyph horiz-adv-x="221" d="M16 -231l15 112h149q25 -42 25 -96q0 -61 -31.5 -114.5t-81.5 -78.5l-39 43q29 29 29 70q0 26 -18 45t-48 19z" />
<glyph horiz-adv-x="1173" d="M20 0l11 102l82 27l313 748l-137 26l10 103h416l350 -877l88 -27l-10 -102h-432l8 98l153 27l-71 178h-445l-71 -178l159 -27l-6 -98h-418zM403 420h355l-166 448h-14zM504 1235l268 321l133 -131l-321 -270z" />
<glyph horiz-adv-x="1173" d="M20 0l11 102l82 27l313 748l-137 26l10 103h416l350 -877l88 -27l-10 -102h-432l8 98l153 27l-71 178h-445l-71 -178l159 -27l-6 -98h-418zM274 1389l160 12q18 -48 54.5 -79t79.5 -38.5t85.5 1t77.5 39.5t51 77l109 -12q-26 -110 -109.5 -172t-195.5 -62 q-114 0 -201 62.5t-111 171.5zM403 420h355l-166 448h-14z" />
<glyph horiz-adv-x="1173" d="M20 0l11 102l82 27l313 748l-137 26l10 103h416l350 -877l88 -27l-10 -102h-432l8 98l153 27l-71 178h-445l-71 -178l159 -27l-6 -98h-418zM283 1229l241 313h121l242 -313l-74 -74l-215 207h-27l-215 -207zM403 420h355l-166 448h-14z" />
<glyph horiz-adv-x="1173" d="M20 0l11 102l82 27l313 748l-137 26l10 103h416l350 -877l88 -27l-10 -102h-432l8 98l153 27l-71 178h-445l-71 -178l159 -27l-6 -98h-418zM350 1155v203l174 12v-203zM403 420h355l-166 448h-14zM647 1155v203l172 12v-203z" />
<glyph horiz-adv-x="1173" d="M20 0l11 102l82 27l313 748l-137 26l10 103h416l350 -877l88 -27l-10 -102h-432l8 98l153 27l-71 178h-445l-71 -178l159 -27l-6 -98h-418zM264 1425l133 131l269 -321l-80 -80zM403 420h355l-166 448h-14z" />
<glyph horiz-adv-x="1173" d="M20 0l11 102l82 27l313 748l-137 26l10 103h416l350 -877l88 -27l-10 -102h-432l8 98l153 27l-71 178h-445l-71 -178l159 -27l-6 -98h-418zM291 1155l12 129h578l-15 -129h-575zM403 420h355l-166 448h-14z" />
<glyph horiz-adv-x="1173" d="M20 0l11 102l82 27l313 748l-137 26l10 103h416l350 -877l88 -27l-10 -102q-67 -26 -107.5 -71.5t-40.5 -90.5q0 -43 37 -72.5t88 -29.5h74l-10 -80l-99 -18q-100 0 -159.5 49t-59.5 120q0 57 35.5 107t95.5 74v12h-286l8 98l153 27l-71 178h-445l-71 -178l159 -27 l-6 -98h-418zM403 420h355l-166 448h-14z" />
<glyph horiz-adv-x="1173" d="M20 0l11 102l82 27l313 748l-137 26l10 103h416l350 -877l88 -27l-10 -102h-432l8 98l153 27l-71 178h-445l-71 -178l159 -27l-6 -98h-418zM395 1341q0 78 55.5 132.5t133.5 54.5q79 0 134.5 -54.5t55.5 -132.5t-55 -132t-135 -54q-78 0 -133.5 54t-55.5 132zM403 420 h355l-166 448h-14zM490 1342q0 -41 26 -70q26 -26 67.5 -26t67.5 26q29 29 29 70t-29 67q-26 29 -67.5 29t-67.5 -29q-26 -26 -26 -67z" />
<glyph horiz-adv-x="1173" d="M20 0l11 102l82 27l313 748l-137 26l10 103h416l350 -877l88 -27l-10 -102h-432l8 98l153 27l-71 178h-445l-71 -178l159 -27l-6 -98h-418zM262 1198q0 74 46 121t128 47q41 0 94 -16q35 -9 114 -38t106 -36l75 92l80 -45q0 -75 -46 -121.5t-126 -46.5q-47 0 -96 14 q-38 10 -117.5 40t-99.5 36l-76 -92zM403 420h355l-166 448h-14z" />
<glyph horiz-adv-x="1091" d="M100 506q0 314 215 446q125 76 310 76q187 0 352 -74l-12 -297l-134 -14l-26 227q-65 33 -191 33q-108 0 -206 -39q-51 -58 -83 -154t-32 -198q0 -179 96 -295q98 -113 254 -113q171 0 293 107l63 -76q-126 -153 -391 -153q-235 0 -371.5 139.5t-136.5 384.5zM530 1235 l269 321l133 -131l-322 -270z" />
<glyph horiz-adv-x="1091" d="M100 506q0 314 215 446q125 76 310 76q187 0 352 -74l-12 -297l-134 -14l-26 227q-65 33 -191 33q-108 0 -206 -39q-51 -58 -83 -154t-32 -198q0 -179 96 -295q98 -113 254 -113q171 0 293 107l63 -76q-126 -153 -391 -153q-235 0 -371.5 139.5t-136.5 384.5zM299 1468 l74 74l215 -207h26l215 207l74 -74l-241 -313h-121z" />
<glyph horiz-adv-x="1091" d="M100 506q0 314 215 446q125 76 310 76q187 0 352 -74l-12 -297l-134 -14l-26 227q-65 33 -191 33q-108 0 -206 -39q-51 -58 -83 -154t-32 -198q0 -179 96 -295q98 -113 254 -113q171 0 293 107l63 -76q-125 -149 -370 -158l-68 -83l6 -13q195 -9 195 -141q0 -87 -75 -145 t-191 -58l-97 12l11 70q217 0 217 100q0 84 -185 84l-28 41l110 136q-184 21 -305 163q-119 140 -119 363z" />
<glyph horiz-adv-x="1091" d="M100 506q0 314 215 446q125 76 310 76q187 0 352 -74l-12 -297l-134 -14l-26 227q-65 33 -191 33q-108 0 -206 -39q-51 -58 -83 -154t-32 -198q0 -179 96 -295q98 -113 254 -113q171 0 293 107l63 -76q-126 -153 -391 -153q-235 0 -371.5 139.5t-136.5 384.5zM293 1229 l242 313h120l242 -313l-74 -74l-215 207h-26l-215 -207z" />
<glyph horiz-adv-x="1091" d="M100 506q0 314 215 446q125 76 310 76q187 0 352 -74l-12 -297l-134 -14l-26 227q-65 33 -191 33q-108 0 -206 -39q-51 -58 -83 -154t-32 -198q0 -179 96 -295q98 -113 254 -113q171 0 293 107l63 -76q-126 -153 -391 -153q-235 0 -371.5 139.5t-136.5 384.5zM504 1155 v203l174 12v-203z" />
<glyph horiz-adv-x="1200" d="M76 0l12 102l115 27v748l-127 26l12 103h461q246 0 403 -121q156 -120 156 -379q0 -297 -197 -426q-124 -80 -327 -80h-508zM186 1468l74 74l215 -207h27l215 207l74 -74l-242 -313h-121zM391 129h123q165 0 287 29q114 138 114 348q0 182 -101 276.5t-292 94.5h-131 v-748z" />
<glyph horiz-adv-x="1200" d="M76 0l12 102l115 27v317h-117l10 115h107v316l-127 26l12 103h428q249 0 412 -105q180 -113 180 -395q0 -297 -197 -426q-121 -80 -362 -80h-473zM391 129h144q156 0 266 29q114 138 114 348q0 182 -101 276.5t-292 94.5h-131v-316h242l-10 -115h-232v-317z" />
<glyph horiz-adv-x="1085" d="M76 0l10 102l117 27v748l-127 26l10 103h883l-15 -316l-116 -14l-29 201h-422v-320h199l-8 105l133 10l-13 -359l-92 -10l-14 139h-205v-313h434l29 205l119 12l14 -346h-907zM463 1235l268 321l133 -131l-321 -270z" />
<glyph horiz-adv-x="1085" d="M76 0l10 102l117 27v748l-127 26l10 103h883l-15 -316l-116 -14l-29 201h-422v-320h199l-8 105l133 10l-13 -359l-92 -10l-14 139h-205v-313h434l29 205l119 12l14 -346h-907zM246 1389l160 12q18 -48 54.5 -79t79.5 -38.5t85.5 1t77.5 39.5t51 77l108 -12 q-26 -110 -109.5 -172t-195.5 -62q-114 0 -200.5 62.5t-110.5 171.5z" />
<glyph horiz-adv-x="1085" d="M76 0l10 102l117 27v748l-127 26l10 103h883l-15 -316l-116 -14l-29 201h-422v-320h199l-8 105l133 10l-13 -359l-92 -10l-14 139h-205v-313h434l29 205l119 12l14 -346h-907zM254 1468l74 74l215 -207h26l215 207l74 -74l-242 -313h-120z" />
<glyph horiz-adv-x="1085" d="M76 0l10 102l117 27v748l-127 26l10 103h883l-15 -316l-116 -14l-29 201h-422v-320h199l-8 105l133 10l-13 -359l-92 -10l-14 139h-205v-313h434l29 205l119 12l14 -346h-907zM254 1229l242 313h120l242 -313l-74 -74l-215 207h-26l-215 -207z" />
<glyph horiz-adv-x="1085" d="M76 0l10 102l117 27v748l-127 26l10 103h883l-15 -316l-116 -14l-29 201h-422v-320h199l-8 105l133 10l-13 -359l-92 -10l-14 139h-205v-313h434l29 205l119 12l14 -346h-907zM322 1155v203l174 12v-203zM618 1155v203l173 12v-203z" />
<glyph horiz-adv-x="1085" d="M76 0l10 102l117 27v748l-127 26l10 103h883l-15 -316l-116 -14l-29 201h-422v-320h199l-8 105l133 10l-13 -359l-92 -10l-14 139h-205v-313h434l29 205l119 12l14 -346h-907zM469 1155v203l174 12v-203z" />
<glyph horiz-adv-x="1085" d="M76 0l10 102l117 27v748l-127 26l10 103h883l-15 -316l-116 -14l-29 201h-422v-320h199l-8 105l133 10l-13 -359l-92 -10l-14 139h-205v-313h434l29 205l119 12l14 -346h-907zM236 1425l133 131l268 -321l-80 -80z" />
<glyph horiz-adv-x="1085" d="M76 0l10 102l117 27v748l-127 26l10 103h883l-15 -316l-116 -14l-29 201h-422v-320h199l-8 105l133 10l-13 -359l-92 -10l-14 139h-205v-313h434l29 205l119 12l14 -346h-907zM262 1155l12 129h578l-14 -129h-576z" />
<glyph horiz-adv-x="1085" d="M76 0l10 102l117 27v748l-127 26l10 103h883l-15 -316l-116 -14l-29 201h-422v-320h199l-8 105l133 10l-13 -359l-92 -10l-14 139h-205v-313h434l29 205l119 12l14 -346q-147 -68 -147 -162q0 -43 37 -72.5t88 -29.5h73l-10 -80l-98 -18q-100 0 -159.5 49t-59.5 120 q0 57 35.5 107t95.5 74v12h-762z" />
<glyph horiz-adv-x="1200" d="M76 0l12 102l115 27v317h-127l10 115h117v316l-127 26l12 103h428q249 0 412 -105q180 -113 180 -395q0 -297 -197 -426q-121 -80 -362 -80h-473zM391 129h144q156 0 266 29q114 138 114 348q0 182 -101 276.5t-292 94.5h-131v-316h232l-11 -115h-221v-317z" />
<glyph horiz-adv-x="1169" d="M100 506q0 314 222 444q135 78 311 78q195 0 360 -76l-14 -290l-131 -15l-27 221q-90 35 -198 35q-105 0 -211 -41q-119 -131 -119 -358q0 -182 90 -291t254 -109q105 0 203 39v219l-244 25l10 100h496l-10 -100l-93 -25v-262q-142 -118 -378 -118q-249 0 -385 139 t-136 385zM305 1389l160 12q18 -48 54.5 -79t79.5 -38.5t85.5 1t77.5 39.5t51 77l109 -12q-26 -110 -110 -172t-196 -62q-114 0 -200.5 62.5t-110.5 171.5z" />
<glyph horiz-adv-x="1169" d="M100 506q0 314 222 444q135 78 311 78q195 0 360 -76l-14 -290l-131 -15l-27 221q-90 35 -198 35q-105 0 -211 -41q-119 -131 -119 -358q0 -182 90 -291t254 -109q105 0 203 39v219l-244 25l10 100h496l-10 -100l-93 -25v-262q-142 -118 -378 -118q-249 0 -385 139 t-136 385zM313 1229l242 313h121l242 -313l-74 -74l-215 207h-27l-215 -207z" />
<glyph horiz-adv-x="1169" d="M100 506q0 314 222 444q135 78 311 78q195 0 360 -76l-14 -290l-131 -15l-27 221q-90 35 -198 35q-105 0 -211 -41q-119 -131 -119 -358q0 -182 90 -291t254 -109q105 0 203 39v219l-244 25l10 100h496l-10 -100l-93 -25v-262q-142 -118 -378 -118q-249 0 -385 139 t-136 385zM520 -231l15 112h149q25 -42 25 -96q0 -61 -31.5 -114.5t-81.5 -78.5l-39 43q29 29 29 70q0 26 -18 45t-48 19z" />
<glyph horiz-adv-x="1169" d="M100 506q0 314 222 444q135 78 311 78q195 0 360 -76l-14 -290l-131 -15l-27 221q-90 35 -198 35q-105 0 -211 -41q-119 -131 -119 -358q0 -182 90 -291t254 -109q105 0 203 39v219l-244 25l10 100h496l-10 -100l-93 -25v-262q-142 -118 -378 -118q-249 0 -385 139 t-136 385zM528 1155v203l174 12v-203z" />
<glyph horiz-adv-x="1265" d="M76 0l10 102l117 27v444h-127l10 111h117v193l-127 26l10 103h453l-13 -103l-135 -26v-193h483v193l-145 26l8 103h453l-12 -103l-115 -26v-193h125l-10 -111h-115v-444l127 -27l-12 -102h-449l10 102l135 27v176h-483v-176l146 -27l-11 -102h-450zM391 414h483v159h-483 v-159z" />
<glyph horiz-adv-x="1265" d="M76 0l10 102l117 27v748l-127 26l10 103h453l-13 -103l-135 -26v-308h483v308l-145 26l8 103h453l-12 -103l-115 -26v-748l127 -27l-12 -102h-449l10 102l135 27v311h-483v-311l146 -27l-11 -102h-450zM334 1229l241 313h121l242 -313l-74 -74l-215 207h-26l-215 -207z " />
<glyph horiz-adv-x="593" d="M76 0l10 102l117 25v754l-127 22l10 103h432l-10 -103l-117 -22v-754l127 -25l-10 -102h-432zM217 1235l268 321l133 -131l-321 -270z" />
<glyph horiz-adv-x="593" d="M39 1368l143 12q34 -100 142 -100q111 0 137 100l92 -12q-13 -104 -80 -158.5t-172 -54.5q-104 0 -174 55t-88 158zM76 0l10 102l117 25v754l-127 22l10 103h432l-10 -103l-117 -22v-754l127 -25l-10 -102h-432z" />
<glyph horiz-adv-x="593" d="M43 1217l201 272h121l198 -272l-71 -62l-175 154h-28l-174 -154zM76 0l10 102l117 25v754l-127 22l10 103h432l-10 -103l-117 -22v-754l127 -25l-10 -102h-432z" />
<glyph horiz-adv-x="593" d="M76 0l10 102l117 25v754l-127 22l10 103h432l-10 -103l-117 -22v-754l127 -25l-10 -102h-432zM90 1155v203l166 12v-203zM346 1155v203l164 12v-203z" />
<glyph horiz-adv-x="593" d="M-25 1425l134 131l268 -321l-80 -80zM76 0l10 102l117 25v754l-127 22l10 103h432l-10 -103l-117 -22v-754l127 -25l-10 -102h-432z" />
<glyph d="M76 0l10 102l117 25v754l-127 22l10 103h432l-10 -103l-117 -22v-754l127 -25l-10 -102h-432zM645 -233l10 96q89 35 138 90q28 79 28 225v705l-133 20l10 103h432l-10 -103l-110 -20v-676q0 -230 -129 -344q-78 -78 -217 -113z" />
<glyph horiz-adv-x="593" d="M63 1155l15 129h463l-15 -129h-463zM76 0l10 102l117 25v754l-127 22l10 103h432l-10 -103l-117 -22v-754l127 -25l-10 -102h-432z" />
<glyph horiz-adv-x="593" d="M76 0l10 102l117 25v754l-127 22l10 103h432l-10 -103l-117 -22v-754l127 -25l-10 -102q-70 -25 -110 -70.5t-40 -91.5q0 -43 37 -72.5t88 -29.5h74l-10 -80l-98 -18q-100 0 -160 49t-60 120q0 57 35.5 107t95.5 74v12h-284z" />
<glyph horiz-adv-x="593" d="M29 1200q0 73 43 116.5t121 43.5q84 0 233 -88l76 90l76 -47q0 -71 -43 -117q-43 -43 -123 -43q-78 0 -234 90l-76 -90zM76 0l10 102l117 25v754l-127 22l10 103h432l-10 -103l-117 -22v-754l127 -25l-10 -102h-432z" />
<glyph horiz-adv-x="610" d="M57 -233l11 96q87 34 137 90q28 79 28 225v705l-133 20l11 103h432l-11 -103l-110 -20v-676q0 -230 -129 -344q-78 -78 -217 -113zM63 1217l201 272h119l201 -272l-72 -62l-174 154h-29l-174 -154z" />
<glyph horiz-adv-x="1169" d="M76 0l10 102l117 27v748l-127 26l10 103h428l-10 -103l-113 -26v-748l129 -27l-10 -102h-434zM473 449l6 94l326 334l-121 26l10 103h434l-10 -103l-112 -26l-353 -363q148 -199 361 -385l119 -27l-9 -102h-245q-229 198 -406 449zM526 -231l15 112h149q25 -42 25 -96 q0 -61 -31.5 -114.5t-81.5 -78.5l-39 43q29 29 29 70q0 26 -18 45t-48 19z" />
<glyph horiz-adv-x="1001" d="M76 0l10 102l117 27v748l-127 26l10 103h463l-10 -103l-148 -26v-748h363l28 211l129 12l15 -352h-850zM221 1235l268 321l134 -131l-322 -270z" />
<glyph horiz-adv-x="1001" d="M0 1468l74 74l215 -207h26l215 207l74 -74l-242 -313h-120zM76 0l10 102l117 27v748l-127 26l10 103h463l-10 -103l-148 -26v-748h363l28 211l129 12l15 -352h-850z" />
<glyph horiz-adv-x="1001" d="M76 0l10 102l117 27v748l-127 26l10 103h463l-10 -103l-148 -26v-748h363l28 211l129 12l15 -352h-850zM391 -231l15 112h149q25 -42 25 -96q0 -61 -31.5 -114.5t-81.5 -78.5l-39 43q29 29 29 70q0 26 -18 45t-48 19z" />
<glyph horiz-adv-x="1001" d="M76 0l10 102l117 27v748l-127 26l10 103h463l-10 -103l-148 -26v-748h363l28 211l129 12l15 -352h-850zM553 528v189l145 12v-188z" />
<glyph horiz-adv-x="1001" d="M76 0l10 102l117 27v225l-127 -63l10 125l117 59v402l-127 26l10 103h463l-10 -103l-148 -26v-316l213 107l-10 -125l-203 -105v-309h363l28 211l129 12l15 -352h-850z" />
<glyph horiz-adv-x="1236" d="M66 0l10 102l117 27v748l-127 26l10 103h309l500 -725h10v596l-156 26l11 103h430l-11 -103l-114 -26v-877h-176l-517 752h-12v-623l156 -27l-10 -102h-430zM492 1235l268 321l133 -131l-322 -270z" />
<glyph horiz-adv-x="1236" d="M66 0l10 102l117 27v748l-127 26l10 103h309l500 -725h10v596l-156 26l11 103h430l-11 -103l-114 -26v-877h-176l-517 752h-12v-623l156 -27l-10 -102h-430zM283 1468l73 74l215 -207h27l215 207l74 -74l-242 -313h-121z" />
<glyph horiz-adv-x="1236" d="M66 0l10 102l117 27v748l-127 26l10 103h309l500 -725h10v596l-156 26l11 103h430l-11 -103l-114 -26v-877h-176l-517 752h-12v-623l156 -27l-10 -102h-430zM522 -231l15 112h149q25 -42 25 -96q0 -61 -31.5 -114.5t-81.5 -78.5l-39 43q29 29 29 70q0 26 -18 45t-48 19z " />
<glyph horiz-adv-x="1236" d="M66 0l10 102l117 27v748l-127 26l10 103h309l500 -725h10v596l-156 26l11 103h430l-11 -103l-114 -26v-877h-176l-517 752h-12v-623l156 -27l-10 -102h-430zM264 1198q0 74 46 121t128 47q41 0 94 -16q35 -9 114 -38t106 -36l75 92l80 -45q0 -75 -46 -121.5t-126 -46.5 q-47 0 -96 14q-38 10 -117.5 40t-99.5 36l-76 -92z" />
<glyph horiz-adv-x="1234" d="M100 504q0 318 217 450q121 74 304 74q242 0 377 -138.5t135 -385.5q0 -322 -213 -455q-123 -72 -299 -72q-246 0 -383.5 140.5t-137.5 386.5zM303 502q0 -188 79 -296t243 -108q106 0 202 41q105 132 105 365q0 80 -17 148.5t-53 127.5t-100.5 93t-151.5 34 q-120 0 -202 -43q-105 -132 -105 -362zM528 1235l269 321l133 -131l-322 -270z" />
<glyph horiz-adv-x="1234" d="M100 504q0 318 217 450q121 74 304 74q242 0 377 -138.5t135 -385.5q0 -322 -213 -455q-123 -72 -299 -72q-246 0 -383.5 140.5t-137.5 386.5zM299 1389l160 12q18 -48 54.5 -79t79.5 -38.5t85.5 1t77.5 39.5t51 77l108 -12q-26 -110 -109.5 -172t-195.5 -62 q-114 0 -200.5 62.5t-110.5 171.5zM303 502q0 -188 79 -296t243 -108q106 0 202 41q105 132 105 365q0 80 -17 148.5t-53 127.5t-100.5 93t-151.5 34q-120 0 -202 -43q-105 -132 -105 -362z" />
<glyph horiz-adv-x="1234" d="M100 504q0 318 217 450q121 74 304 74q242 0 377 -138.5t135 -385.5q0 -322 -213 -455q-123 -72 -299 -72q-246 0 -383.5 140.5t-137.5 386.5zM303 502q0 -188 79 -296t243 -108q106 0 202 41q105 132 105 365q0 80 -17 148.5t-53 127.5t-100.5 93t-151.5 34 q-120 0 -202 -43q-105 -132 -105 -362zM328 1229l241 313h121l242 -313l-74 -74l-215 207h-27l-215 -207z" />
<glyph horiz-adv-x="1234" d="M100 504q0 318 217 450q121 74 304 74q242 0 377 -138.5t135 -385.5q0 -322 -213 -455q-123 -72 -299 -72q-246 0 -383.5 140.5t-137.5 386.5zM303 502q0 -188 79 -296t243 -108q106 0 202 41q105 132 105 365q0 80 -17 148.5t-53 127.5t-100.5 93t-151.5 34 q-120 0 -202 -43q-105 -132 -105 -362zM395 1155v203l174 12v-203zM692 1155v203l172 12v-203z" />
<glyph horiz-adv-x="1234" d="M100 504q0 318 217 450q121 74 304 74q242 0 377 -138.5t135 -385.5q0 -322 -213 -455q-123 -72 -299 -72q-246 0 -383.5 140.5t-137.5 386.5zM303 502q0 -188 79 -296t243 -108q106 0 202 41q105 132 105 365q0 80 -17 148.5t-53 127.5t-100.5 93t-151.5 34 q-120 0 -202 -43q-105 -132 -105 -362zM307 1425l133 131l269 -321l-80 -80z" />
<glyph horiz-adv-x="1234" d="M100 504q0 318 217 450q121 74 304 74q242 0 377 -138.5t135 -385.5q0 -322 -213 -455q-123 -72 -299 -72q-246 0 -383.5 140.5t-137.5 386.5zM303 502q0 -188 79 -296t243 -108q106 0 202 41q105 132 105 365q0 80 -17 148.5t-53 127.5t-100.5 93t-151.5 34 q-120 0 -202 -43q-105 -132 -105 -362zM373 1235l227 321l102 -88v-55l-249 -258zM711 1235l225 321l133 -118l-281 -283z" />
<glyph horiz-adv-x="1234" d="M100 504q0 318 217 450q121 74 304 74q242 0 377 -138.5t135 -385.5q0 -322 -213 -455q-123 -72 -299 -72q-246 0 -383.5 140.5t-137.5 386.5zM303 502q0 -188 79 -296t243 -108q106 0 202 41q105 132 105 365q0 80 -17 148.5t-53 127.5t-100.5 93t-151.5 34 q-120 0 -202 -43q-105 -132 -105 -362zM330 1155l12 129h578l-15 -129h-575z" />
<glyph horiz-adv-x="1234" d="M100 504q0 318 217 450q121 74 304 74q242 0 377 -138.5t135 -385.5q0 -322 -213 -455q-123 -72 -299 -72q-246 0 -383.5 140.5t-137.5 386.5zM303 502q0 -188 79 -296t243 -108q106 0 202 41q105 132 105 365q0 80 -17 148.5t-53 127.5t-100.5 93t-151.5 34 q-120 0 -202 -43q-105 -132 -105 -362zM307 1198q0 74 46 121t128 47q41 0 94 -16q35 -9 114 -38t106 -36l75 92l80 -45q0 -75 -46 -121.5t-126 -46.5q-47 0 -96 14q-38 10 -117.5 40t-99.5 36l-76 -92z" />
<glyph horiz-adv-x="1130" d="M76 0l10 102l117 27v748l-127 26l10 103h504q83 0 152.5 -14t132.5 -46t99 -93.5t36 -147.5q0 -153 -115 -236q-55 -44 -125 -57l-4 -11q77 -160 197 -274l120 -25l-10 -102h-235q-168 196 -260 387l-113 27l10 104h96q113 0 193 25q51 54 51 153q0 181 -250 181h-176 v-748l129 -27l-10 -102h-432zM455 1235l268 321l133 -131l-321 -270z" />
<glyph horiz-adv-x="1130" d="M76 0l10 102l117 27v748l-127 26l10 103h504q83 0 152.5 -14t132.5 -46t99 -93.5t36 -147.5q0 -153 -115 -236q-55 -44 -125 -57l-4 -11q77 -160 197 -274l120 -25l-10 -102h-235q-168 196 -260 387l-113 27l10 104h96q113 0 193 25q51 54 51 153q0 181 -250 181h-176 v-748l129 -27l-10 -102h-432zM233 1468l74 74l215 -207h27l215 207l74 -74l-242 -313h-121z" />
<glyph horiz-adv-x="1130" d="M76 0l10 102l117 27v748l-127 26l10 103h504q83 0 152.5 -14t132.5 -46t99 -93.5t36 -147.5q0 -153 -115 -236q-55 -44 -125 -57l-4 -11q77 -160 197 -274l120 -25l-10 -102h-235q-168 196 -260 387l-113 27l10 104h96q113 0 193 25q51 54 51 153q0 181 -250 181h-176 v-748l129 -27l-10 -102h-432zM483 -231l15 112h149q25 -42 25 -96q0 -61 -31.5 -114.5t-81.5 -78.5l-39 43q29 29 29 70q0 26 -18 45t-48 19z" />
<glyph horiz-adv-x="1044" d="M119 748q0 170 155 237q90 43 250 43q190 0 367 -65l-25 -256l-131 -13l-20 185q-98 26 -197 26q-101 0 -174 -20q-43 -58 -43 -109q0 -75 92 -121q71 -28 90 -34l119 -33q92 -25 153.5 -51t108.5 -61.5t68.5 -84t21.5 -112.5q0 -179 -157 -250q-119 -52 -308 -52 q-198 0 -368 72l22 283l131 10l21 -203q79 -33 203 -33q120 0 209 27q47 47 47 121q0 52 -52 100q-17 17 -63 35l-70 27q-15 6 -88 26l-139 45q-50 20 -111 56q-112 69 -112 205zM453 1235l268 321l133 -131l-322 -270z" />
<glyph horiz-adv-x="1044" d="M119 748q0 170 155 237q90 43 250 43q190 0 367 -65l-25 -256l-131 -13l-20 185q-98 26 -197 26q-101 0 -174 -20q-43 -58 -43 -109q0 -75 92 -121q71 -28 90 -34l119 -33q92 -25 153.5 -51t108.5 -61.5t68.5 -84t21.5 -112.5q0 -179 -157 -250q-119 -52 -308 -52 q-198 0 -368 72l22 283l131 10l21 -203q79 -33 203 -33q120 0 209 27q47 47 47 121q0 52 -52 100q-17 17 -63 35l-70 27q-15 6 -88 26l-139 45q-50 20 -111 56q-112 69 -112 205zM231 1468l74 74l215 -207h27l215 207l74 -74l-242 -313h-121z" />
<glyph horiz-adv-x="1044" d="M119 748q0 170 155 237q90 43 250 43q190 0 367 -65l-25 -256l-131 -13l-20 185q-98 26 -197 26q-101 0 -174 -20q-43 -58 -43 -109q0 -75 92 -121q71 -28 90 -34l119 -33q92 -25 153.5 -51t108.5 -61.5t68.5 -84t21.5 -112.5q0 -179 -157 -250q-98 -43 -230 -52l-71 -88 l8 -14q198 -9 198 -143q0 -89 -76 -148t-196 -59l-98 12l10 70q221 0 221 104q0 86 -188 86l-29 41l115 139q-193 6 -340 72l22 283l131 10l21 -203q79 -33 203 -33q120 0 209 27q47 47 47 121q0 52 -52 100q-17 17 -63 35l-70 27q-15 6 -88 26l-139 45q-50 20 -111 56 q-112 69 -112 205z" />
<glyph horiz-adv-x="1044" d="M119 748q0 170 155 237q90 43 250 43q190 0 367 -65l-25 -256l-131 -13l-20 185q-98 26 -197 26q-101 0 -174 -20q-43 -58 -43 -109q0 -75 92 -121q71 -28 90 -34l119 -33q92 -25 153.5 -51t108.5 -61.5t68.5 -84t21.5 -112.5q0 -179 -157 -250q-119 -52 -308 -52 q-198 0 -368 72l22 283l131 10l21 -203q79 -33 203 -33q120 0 209 27q47 47 47 121q0 52 -52 100q-17 17 -63 35l-70 27q-15 6 -88 26l-139 45q-50 20 -111 56q-112 69 -112 205zM223 1229l242 313h121l241 -313l-73 -74l-215 207h-27l-215 -207z" />
<glyph horiz-adv-x="1136" d="M76 1006h985l-14 -332l-127 -12l-29 215h-232v-316h177l-11 -115h-166v-317l162 -27l-10 -102h-494l11 102l149 27v317h-174l10 115h164v316h-231l-29 -203l-127 -12z" />
<glyph horiz-adv-x="1136" d="M76 1006h985l-14 -340l-132 -13l-26 224h-225v-748l157 -27l-10 -102h-494l11 102l147 27v748h-227l-27 -211l-131 -13zM264 1468l74 74l215 -207h27l215 207l73 -74l-241 -313h-121z" />
<glyph horiz-adv-x="1136" d="M76 1006h985l-14 -340l-132 -13l-26 224h-225v-748l157 -27l-10 -102h-494l11 102l147 27v748h-227l-27 -211l-131 -13zM467 -231l14 112h150q24 -41 24 -96q0 -61 -31 -114.5t-81 -78.5l-39 43q28 28 28 70q0 26 -18 45t-47 19z" />
<glyph horiz-adv-x="1239" d="M76 903l10 103h449l-11 -103l-143 -26v-469q0 -151 58.5 -226.5t201.5 -75.5q128 0 219 60q33 73 33 252v459l-154 26l11 103h419l-10 -103l-104 -26v-453q0 -231 -102.5 -339t-342.5 -108q-222 0 -319.5 104t-97.5 327v469zM549 1235l268 321l133 -131l-321 -270z" />
<glyph horiz-adv-x="1239" d="M76 903l10 103h449l-11 -103l-143 -26v-469q0 -151 58.5 -226.5t201.5 -75.5q128 0 219 60q33 73 33 252v459l-154 26l11 103h419l-10 -103l-104 -26v-453q0 -231 -102.5 -339t-342.5 -108q-222 0 -319.5 104t-97.5 327v469zM326 1389l159 12q23 -60 73.5 -92t104 -31 t102.5 33t69 90l108 -12q-26 -110 -109.5 -172t-195.5 -62q-114 0 -200.5 62.5t-110.5 171.5z" />
<glyph horiz-adv-x="1239" d="M76 903l10 103h449l-11 -103l-143 -26v-469q0 -151 58.5 -226.5t201.5 -75.5q128 0 219 60q33 73 33 252v459l-154 26l11 103h419l-10 -103l-104 -26v-453q0 -231 -102.5 -339t-342.5 -108q-222 0 -319.5 104t-97.5 327v469zM334 1229l241 313h121l242 -313l-74 -74 l-215 207h-26l-215 -207z" />
<glyph horiz-adv-x="1239" d="M76 903l10 103h449l-11 -103l-143 -26v-469q0 -151 58.5 -226.5t201.5 -75.5q128 0 219 60q33 73 33 252v459l-154 26l11 103h419l-10 -103l-104 -26v-453q0 -231 -102.5 -339t-342.5 -108q-222 0 -319.5 104t-97.5 327v469zM406 1155v203l174 12v-203zM702 1155v203 l172 12v-203z" />
<glyph horiz-adv-x="1239" d="M76 903l10 103h449l-11 -103l-143 -26v-469q0 -151 58.5 -226.5t201.5 -75.5q128 0 219 60q33 73 33 252v459l-154 26l11 103h419l-10 -103l-104 -26v-453q0 -231 -102.5 -339t-342.5 -108q-222 0 -319.5 104t-97.5 327v469zM315 1425l134 131l268 -321l-80 -80z" />
<glyph horiz-adv-x="1239" d="M76 903l10 103h449l-11 -103l-143 -26v-469q0 -151 58.5 -226.5t201.5 -75.5q128 0 219 60q33 73 33 252v459l-154 26l11 103h419l-10 -103l-104 -26v-453q0 -231 -102.5 -339t-342.5 -108q-222 0 -319.5 104t-97.5 327v469zM379 1235l227 321l103 -88v-55l-250 -258z M717 1235l225 321l133 -118l-280 -283z" />
<glyph horiz-adv-x="1239" d="M76 903l10 103h449l-11 -103l-143 -26v-469q0 -151 58.5 -226.5t201.5 -75.5q128 0 219 60q33 73 33 252v459l-154 26l11 103h419l-10 -103l-104 -26v-453q0 -231 -102.5 -339t-342.5 -108q-222 0 -319.5 104t-97.5 327v469zM340 1155l12 129h578l-15 -129h-575z" />
<glyph horiz-adv-x="1239" d="M76 903l10 103h449l-11 -103l-143 -26v-469q0 -151 58.5 -226.5t201.5 -75.5q128 0 219 60q33 73 33 252v459l-154 26l11 103h419l-10 -103l-104 -26v-453q0 -196 -75.5 -302.5t-244.5 -135.5q-67 -26 -105 -68t-38 -90q0 -40 37 -67t88 -27h74l-11 -78l-100 -18 q-103 0 -160 44.5t-57 118.5q0 53 32.5 98t92.5 68v10q-211 6 -303 109.5t-92 321.5v469z" />
<glyph horiz-adv-x="1239" d="M76 903l10 103h449l-11 -103l-143 -26v-469q0 -151 58.5 -226.5t201.5 -75.5q128 0 219 60q33 73 33 252v459l-154 26l11 103h419l-10 -103l-104 -26v-453q0 -231 -102.5 -339t-342.5 -108q-222 0 -319.5 104t-97.5 327v469zM446 1341q0 78 55.5 132.5t133.5 54.5 q79 0 134.5 -54.5t55.5 -132.5t-55 -132t-135 -54q-78 0 -133.5 54t-55.5 132zM541 1342q0 -41 26 -70q26 -26 67.5 -26t67.5 26q29 29 29 70t-29 67q-26 29 -67.5 29t-67.5 -29q-26 -26 -26 -67z" />
<glyph horiz-adv-x="1239" d="M76 903l10 103h449l-11 -103l-143 -26v-469q0 -151 58.5 -226.5t201.5 -75.5q128 0 219 60q33 73 33 252v459l-154 26l11 103h419l-10 -103l-104 -26v-453q0 -231 -102.5 -339t-342.5 -108q-222 0 -319.5 104t-97.5 327v469zM313 1198q0 74 46 121t128 47q42 0 95 -16 q35 -9 113.5 -38t105.5 -36l76 92l79 -45q0 -75 -46 -121.5t-126 -46.5q-47 0 -96 14q-38 10 -117.5 40t-99.5 36l-76 -92z" />
<glyph horiz-adv-x="1515" d="M20 903l11 103h407l-10 -101l-139 -26l149 -652h13l223 779h182l211 -779h12l164 652l-147 26l10 101h389l-10 -103l-82 -26l-227 -877h-215l-199 745h-14l-207 -745h-217l-211 877zM475 1229l242 313h121l241 -313l-73 -74l-215 207h-27l-215 -207z" />
<glyph horiz-adv-x="1167" d="M20 903l11 103h448l-10 -101l-141 -26l258 -383h12l270 383l-153 26l10 101h420l-10 -103l-88 -24l-377 -521v-229l159 -27l-10 -102h-497l10 102l149 27v229l-360 521zM512 1235l268 321l133 -131l-321 -270z" />
<glyph horiz-adv-x="1167" d="M20 903l11 103h448l-10 -101l-141 -26l258 -383h12l270 383l-153 26l10 101h420l-10 -103l-88 -24l-377 -521v-229l159 -27l-10 -102h-497l10 102l149 27v229l-360 521zM291 1229l241 313h121l242 -313l-74 -74l-215 207h-26l-215 -207z" />
<glyph horiz-adv-x="1167" d="M20 903l11 103h448l-10 -101l-141 -26l258 -383h12l270 383l-153 26l10 101h420l-10 -103l-88 -24l-377 -521v-229l159 -27l-10 -102h-497l10 102l149 27v229l-360 521zM358 1155v203l174 12v-203zM655 1155v203l172 12v-203z" />
<glyph horiz-adv-x="1034" d="M76 135l669 729l-6 13h-469l-30 -213l-129 -13l-15 355h838l24 -144l-661 -721l6 -12h463l31 227l131 15l14 -371h-842zM432 1235l268 321l134 -131l-322 -270z" />
<glyph horiz-adv-x="1034" d="M76 135l669 729l-6 13h-469l-30 -213l-129 -13l-15 355h838l24 -144l-661 -721l6 -12h463l31 227l131 15l14 -371h-842zM211 1468l74 74l215 -207h26l215 207l74 -74l-242 -313h-120z" />
<glyph horiz-adv-x="1034" d="M76 135l669 729l-6 13h-469l-30 -213l-129 -13l-15 355h838l24 -144l-661 -721l6 -12h463l31 227l131 15l14 -371h-842zM426 1155v203l174 12v-203z" />
</font>
</defs>
</svg>
