<?xml version="1.0" standalone="no"?>
<!DOCTYPE svg PUBLIC "-//W3C//DTD SVG 1.1//EN" "http://www.w3.org/Graphics/SVG/1.1/DTD/svg11.dtd" >
<svg xmlns="http://www.w3.org/2000/svg">
<metadata></metadata>
<defs>
<font id="basilregular" horiz-adv-x="1212" >
<font-face units-per-em="2048" ascent="1638" descent="-410" />
<missing-glyph horiz-adv-x="397" />
<glyph horiz-adv-x="0" />
<glyph unicode="&#xd;" horiz-adv-x="681" />
<glyph unicode=" "  horiz-adv-x="397" />
<glyph unicode="&#x09;" horiz-adv-x="397" />
<glyph unicode="&#xa0;" horiz-adv-x="397" />
<glyph unicode="!" horiz-adv-x="518" d="M141 0l15 201h200l-14 -201h-201zM160 952l24 428h195l-66 -1015h-125z" />
<glyph unicode="&#x22;" horiz-adv-x="688" d="M129 1380h147l7 -47l-27 -358l-102 -14zM403 1380h156l-29 -405l-102 -14z" />
<glyph unicode="#" horiz-adv-x="1118" d="M100 375l15 125h157l41 264h-163l16 125h166l33 213h143l-33 -213h244l33 213h141l-33 -213h158l-17 -125h-159l-39 -264h166l-17 -125h-168l-32 -213h-144l33 213h-244l-30 -213h-146l33 213h-154zM416 500h243l39 264h-241z" />
<glyph unicode="$" horiz-adv-x="1050" d="M92 860q0 178 160 262q76 37 186 47l-16 213l180 15l-22 -228q156 -8 307 -69l-23 -260l-135 -13l-16 179q-109 35 -209.5 34.5t-175.5 -28.5q-43 -49 -43 -121q0 -63 41 -106.5t80.5 -60.5t150.5 -54q23 -8 35 -13q90 -29 143 -51t110.5 -62t84 -97.5t26.5 -137.5 q0 -190 -161 -270q-90 -47 -209 -55l18 -213l-180 -15l20 226q-180 6 -323 77l24 289l136 12l14 -206q84 -41 215 -41q113 0 203 28q49 61 49 150q0 47 -16.5 79.5t-62.5 59.5t-84 42t-124 44q-63 20 -98 33.5t-87 36t-82 46t-59.5 57.5t-43 76t-13.5 95z" />
<glyph unicode="%" horiz-adv-x="1574" d="M76 971q0 158 72.5 260t222 102t223.5 -102.5t74 -259.5q0 -160 -74 -265.5t-223.5 -105.5t-222 105.5t-72.5 265.5zM242 975q0 -266 141 -266q51 0 82 16q37 74 37 236q-1 264 -144 264q-53 0 -79 -17q-37 -72 -37 -233zM319 -33l781 1374l125 19l22 -19l-778 -1374 l-125 -18zM907 346q0 158 73 260.5t222.5 102.5t223 -102.5t73.5 -260.5t-73.5 -263.5t-223 -105.5t-222.5 105.5t-73 263.5zM1073 352q0 -266 141 -266q49 0 84 14q35 76 35 238q0 262 -143 262q-53 0 -80 -16q-37 -68 -37 -232z" />
<glyph unicode="&#x26;" horiz-adv-x="1445" d="M104 365q0 231 238 358v12q-160 135 -160 303q0 152 132 223.5t304 71.5q201 0 396 -73l-21 -299l-135 -11l-27 215q-92 27 -206 27q-133 0 -207 -27q-39 -59 -39 -129q0 -115 158 -266l454 -424h13q68 119 67 289l-131 29l10 104h430l-10 -109l-137 -28 q0 -225 -119 -402l100 -92l152 -28l-8 -109h-254l-107 100q-158 -123 -387 -123q-219 0 -362.5 101.5t-143.5 286.5zM301 381q0 -129 97.5 -196.5t236.5 -67.5q154 0 256 86l-436 426q-154 -88 -154 -248z" />
<glyph unicode="'" horiz-adv-x="413" d="M129 1380h156l-29 -405l-102 -14z" />
<glyph unicode="(" horiz-adv-x="643" d="M174 596q0 164 35 313.5t88 254t99 170t89 106.5l82 -54v-40q-74 -88 -143.5 -286t-69.5 -464q0 -264 70 -459.5t143 -286.5v-38l-82 -58q-43 41 -89 106.5t-99 170t-88 254t-35 311.5z" />
<glyph unicode=")" horiz-adv-x="643" d="M76 -150q74 88 142.5 285t68.5 461q0 266 -68.5 463.5t-142.5 286.5v40l82 54q43 -41 89 -106.5t99 -170t88 -254t35 -313.5q0 -162 -35 -311.5t-88 -254t-99 -170t-89 -106.5l-82 58v38z" />
<glyph unicode="*" horiz-adv-x="907" d="M125 1016l51 149l217 -102l10 8l-26 238h158l-31 -240l10 -8l217 102l49 -151l-237 -43l-6 -15l165 -176l-127 -94l-118 215h-15l-114 -211l-129 92l168 174l-7 15z" />
<glyph unicode="+" horiz-adv-x="1122" d="M121 608l12 127h365v363h127v-363h379l-15 -127h-364v-364h-127v364h-377z" />
<glyph unicode="," horiz-adv-x="464" d="M92 -219q78 63 78 151q0 70 -61 97l10 178h176q45 -47 45 -150q0 -106 -61.5 -197t-139.5 -130z" />
<glyph unicode="-" horiz-adv-x="952" d="M125 594l80 141h483l119 23l20 -27l-79 -143h-484l-119 -23z" />
<glyph unicode="." horiz-adv-x="444" d="M92 0l14 207h213l-14 -207h-213z" />
<glyph unicode="/" horiz-adv-x="784" d="M45 -72l535 1524l137 18l22 -18l-534 -1524l-137 -18z" />
<glyph unicode="0" horiz-adv-x="1255" d="M102 655q0 131 29 248t88.5 215.5t163.5 156.5t242 58q250 0 389 -178t139 -493q0 -133 -28.5 -250t-87 -217.5t-164 -159t-244.5 -58.5q-250 0 -388.5 183.5t-138.5 494.5zM311 657q0 -236 83 -388t249 -152q98 0 193 55q109 180 108 481q0 225 -84 382t-246 157 q-113 0 -188 -49q-115 -184 -115 -486z" />
<glyph unicode="1" horiz-adv-x="835" d="M55 1040l357 269h131v-1168l211 -37l-11 -104h-620l10 104l217 37v791l29 121l-4 12l-264 -115z" />
<glyph unicode="2" horiz-adv-x="1073" d="M57 119q119 88 226.5 185t212 213t167 236.5t62.5 225.5q0 213 -252 213q-123 0 -203 -35l-26 -205l-140 -14l-24 313q197 82 420 82q199 0 322.5 -81t123.5 -251q0 -152 -104.5 -320.5t-239.5 -294.5t-295 -234l6 -15h490l28 199l140 16l24 -352h-929z" />
<glyph unicode="3" horiz-adv-x="1052" d="M59 1260q193 74 414 73q209 0 330 -83t121 -251q0 -231 -215 -284v-13q109 -27 176 -113t67 -231q0 -178 -121.5 -279.5t-357.5 -101.5q-199 0 -371 58l9 153l526 -67q113 82 113 241q0 246 -365 246h-61l14 148l324 28q66 72 65 187q0 221 -260 221q-131 0 -219 -27 l-27 -213l-137 -14z" />
<glyph unicode="4" horiz-adv-x="1210" d="M61 424q119 125 252 411.5t162 473.5h201q-23 -170 -149 -426t-259 -434l8 -11h451v207l59 232h119v-439h219l-10 -125h-209v-180l187 -29l-11 -104h-569l10 104l197 29v180h-649z" />
<glyph unicode="5" horiz-adv-x="1021" d="M61 35l11 155l506 -69q139 84 139 268q0 248 -352 248h-267l39 672h756l-29 -351l-139 -16l-25 221h-401l-23 -387l175 10q219 0 344 -96t125 -289q0 -199 -126 -311.5t-370 -112.5q-197 0 -363 58z" />
<glyph unicode="6" horiz-adv-x="1124" d="M102 571q0 295 155 502t452 240l190 20l-14 -168l-365 -37q-106 -80 -161.5 -222t-55.5 -320q0 -209 78 -339t231 -130q80 0 148 33q74 106 74 266q0 276 -279 276q-72 0 -152 -20l-16 14l14 86q96 61 238 62q170 0 282.5 -102.5t112.5 -303.5q0 -211 -128 -331 t-328 -120q-238 0 -357 168t-119 426z" />
<glyph unicode="7" horiz-adv-x="1089" d="M53 1309h973l8 -131q-209 -244 -326.5 -568.5t-129.5 -609.5h-199q8 279 128 600.5t316 552.5l-6 10h-569l-31 -209l-143 -16z" />
<glyph unicode="8" horiz-adv-x="1159" d="M102 342q0 209 215 358v13q-92 53 -140 119.5t-48 171.5q0 92 41 159.5t110.5 103.5t145.5 51t160 15q184 0 309 -73.5t125 -237.5q0 -188 -191 -336v-12q111 -55 170.5 -132t59.5 -200q0 -182 -133 -273.5t-338 -91.5q-209 0 -347.5 90.5t-138.5 274.5zM299 352 q0 -119 88 -177t215 -58q109 0 186 33q66 72 66 172q0 41 -10 73.5t-38 61t-48.5 48t-68.5 42t-70.5 33t-83 33t-76.5 28.5q-160 -145 -160 -289zM326 1026q0 -27 6 -50.5t21.5 -45t27.5 -37.5t42 -33.5t45 -27t55 -25.5t55.5 -22.5t61.5 -23t60 -22.5q131 143 131 279 q0 96 -61 139t-188 43q-125 0 -199 -26q-57 -78 -57 -148z" />
<glyph unicode="9" horiz-adv-x="1124" d="M90 879q0 217 134 335.5t343 118.5q236 0 345.5 -149.5t109.5 -405.5q0 -141 -33 -270t-98.5 -240.5t-181 -184.5t-269.5 -87l-209 -19l15 168l358 33q104 80 160.5 240t56.5 358q0 416 -286 416q-90 0 -164 -31q-80 -100 -80 -268q0 -158 79 -226.5t201 -68.5 q82 0 152 23l16 -17l-16 -88q-94 -59 -236 -59q-170 0 -283.5 109.5t-113.5 312.5z" />
<glyph unicode=":" horiz-adv-x="477" d="M125 0l14 207h213l-14 -207h-213zM125 762l14 207h213l-14 -207h-213z" />
<glyph unicode=";" horiz-adv-x="464" d="M92 -219q78 63 78 151q0 70 -61 97l10 178h176q45 -47 45 -150q0 -106 -61.5 -197t-139.5 -130zM106 762l15 207h213l-15 -207h-213z" />
<glyph unicode="&#x3c;" horiz-adv-x="1101" d="M88 608l12 123l832 334l49 -98l-721 -291v-14l723 -300l-51 -116z" />
<glyph unicode="=" horiz-adv-x="1165" d="M121 436l12 127h914l-15 -127h-911zM121 778l12 127h914l-15 -127h-911z" />
<glyph unicode="&#x3e;" horiz-adv-x="1101" d="M121 362l721 300v14l-721 291l49 98l846 -334l-15 -123l-831 -362z" />
<glyph unicode="?" horiz-adv-x="925" d="M100 1321q182 78 387 78q387 0 387 -281q0 -78 -35.5 -152.5t-62 -105.5t-102.5 -112q-92 -98 -141.5 -188.5t-49.5 -215.5h-118l-9 29q0 244 168 442q6 8 35 42t37 45t27.5 40t26.5 47.5t14.5 46t7.5 56.5q0 170 -209 170q-96 0 -182 -29l-27 -186l-133 -13zM315 0 l15 201h200l-14 -201h-201z" />
<glyph unicode="@" horiz-adv-x="1687" d="M145 375q0 346 203 545q190 184 508 184q334 0 510 -196.5t176 -551.5q0 -202 -55 -356h-443l-16 113h-10l-96 -109q-51 -18 -125 -18q-125 0 -193.5 62.5t-68.5 170.5q0 61 24.5 106.5t58 70t87 37.5t93.5 16.5t93 3.5h131q0 111 -38 160t-134 49q-86 0 -139 -25 l-17 -117l-106 -10l-17 186q158 68 293 68q297 0 297 -289v-375l193 21q29 119 28 233q0 182 -51 320.5t-176 227.5t-313 89q-252 0 -432 -151q-102 -174 -103 -447q0 -172 53.5 -303t139.5 -202.5t181 -106.5t196 -35q111 0 225.5 40t193.5 114l60 -64 q-80 -98 -218.5 -149.5t-287.5 -51.5q-137 0 -261 46.5t-224.5 134.5t-160 232.5t-59.5 326.5zM674 236q0 -59 40 -103.5t109 -44.5q135 0 199 135v133h-123q-133 0 -199 -18q-27 -37 -26 -102z" />
<glyph unicode="A" horiz-adv-x="1519" d="M20 0l11 113l116 28l435 1098l-195 31l10 110h502l473 -1239l125 -28l-10 -113h-545l10 113l205 28l-104 277h-607l-108 -277l217 -28l-10 -113h-525zM500 553h501l-239 659h-12z" />
<glyph unicode="B" horiz-adv-x="1400" d="M76 0l10 113l162 28v1098l-172 31l10 110h698q211 0 343.5 -77.5t132.5 -258.5q0 -117 -57.5 -199.5t-151.5 -121.5v-14q245 -70 245 -334q0 -174 -112 -269q-127 -106 -451 -106h-657zM455 141h215q246 0 362 35q47 76 47 207q0 254 -317 254h-217l10 129h113 q203 0 315 39q66 68 66 201q0 139 -89.5 186t-267.5 47h-237v-1098z" />
<glyph unicode="C" horiz-adv-x="1390" d="M119 696q0 422 280 602q162 104 402 105q246 0 454 -96l-12 -408l-143 -14l-37 325q-102 49 -270 50q-158 0 -295 -60q-74 -80 -119 -217t-45 -285q0 -260 136 -420.5t345 -160.5q104 0 214 41.5t188 115.5l73 -86q-84 -106 -221 -158.5t-293 -52.5q-301 0 -479 194 t-178 525z" />
<glyph unicode="D" horiz-adv-x="1536" d="M76 0l12 113l160 28v1098l-172 31l12 110h596q158 0 288 -37.5t235.5 -116.5t165 -215.5t59.5 -318.5q0 -203 -71 -351t-192 -232q-162 -109 -448 -109h-645zM459 141h178q236 0 410 47q161 185 161 502q0 272 -148.5 410.5t-414.5 138.5h-186v-1098z" />
<glyph unicode="E" horiz-adv-x="1341" d="M76 0l10 113l162 28v1098l-172 31l10 110h1137l-15 -426l-137 -16l-37 301h-579v-483h299l-11 153l164 11l-16 -490l-111 -10l-20 198h-305v-477h596l36 308l140 14l14 -463h-1165z" />
<glyph unicode="F" horiz-adv-x="1286" d="M76 0l10 113l162 28v1098l-172 31l10 110h1124l-14 -428l-141 -14l-39 301h-561v-496h297l-11 154l164 10l-14 -485l-111 -8l-20 190h-305v-463l239 -28l-10 -113h-608z" />
<glyph unicode="G" horiz-adv-x="1492" d="M119 696q0 211 74.5 364.5t209.5 237.5q168 104 402 105q248 0 467 -96l-15 -400l-141 -14l-39 315q-109 51 -272 52q-160 0 -303 -62q-168 -190 -168 -504q0 -256 124 -415.5t353 -159.5q152 0 291 63v332l-340 31l12 112h651l-10 -110l-133 -33v-381 q-190 -156 -485 -156q-328 0 -503 194t-175 525z" />
<glyph unicode="H" horiz-adv-x="1603" d="M76 0l10 113l162 28v1098l-172 31l10 110h582l-11 -110l-198 -31v-471h686v471l-207 31l10 110h580l-10 -110l-162 -31v-1098l172 -28l-10 -113h-580l10 113l197 28v482h-686v-482l209 -28l-11 -113h-581z" />
<glyph unicode="I" horiz-adv-x="708" d="M76 0l10 113l162 28v1098l-172 31l10 110h545l-10 -110l-162 -31v-1098l172 -28l-10 -113h-545z" />
<glyph unicode="J" horiz-adv-x="747" d="M43 -303l10 110q145 55 217 130q31 98 31 307v995l-180 31l10 110h539l-11 -110l-147 -31v-971q0 -293 -141 -432q-98 -106 -305 -162z" />
<glyph unicode="K" horiz-adv-x="1486" d="M76 0l10 113l162 28v1098l-172 31l10 110h541l-11 -110l-157 -31v-1098l184 -28l-12 -113h-555zM543 643l10 105l475 491l-162 31l13 110h557l-13 -110l-159 -31l-510 -526q225 -301 528 -572l170 -28l-10 -113h-320q-340 307 -579 643z" />
<glyph unicode="L" horiz-adv-x="1253" d="M76 0l10 113l162 28v1098l-172 29l10 112h588l-12 -112l-203 -29v-1098h522l39 308l143 14l13 -463h-1100z" />
<glyph unicode="M" horiz-adv-x="2013" d="M53 0l10 113l168 28l80 1098l-190 31l10 110h502l360 -1179h11l374 1179h506l-10 -110l-180 -31l86 -1098l180 -28l-10 -113h-570l11 109l188 28l-72 1049h-12l-371 -1186h-268l-358 1182h-11l-77 -1045l202 -28l-12 -109h-547z" />
<glyph unicode="N" horiz-adv-x="1566" d="M66 0l10 113l162 28v1098l-172 31l10 110h375l698 -1061h12v920l-205 31l11 110h546l-10 -110l-164 -31v-1239h-196l-713 1077h-12v-936l213 -28l-10 -113h-555z" />
<glyph unicode="O" horiz-adv-x="1595" d="M119 696q0 426 284 607q160 100 394 100q324 0 502 -187.5t178 -521.5q0 -211 -73 -369.5t-206 -244.5q-159 -103 -397 -103q-326 0 -504 192.5t-178 526.5zM344 694q0 -256 119.5 -416.5t363.5 -160.5q131 0 271 61q72 90 112.5 227.5t40.5 282.5q0 246 -120.5 410 t-360.5 164q-141 0 -268 -60q-158 -188 -158 -508z" />
<glyph unicode="P" horiz-adv-x="1388" d="M76 0l10 113l162 28v1098l-172 31l10 110h649q113 0 206 -20.5t173 -67.5t125 -133t45 -205q0 -223 -156 -340q-129 -98 -337 -98h-74l-176 31l10 110h127q211 0 317 39q70 111 70 250q0 293 -375 293h-233v-1098l231 -28l-10 -113h-602z" />
<glyph unicode="Q" horiz-adv-x="1597" d="M119 696q0 426 284 607q160 100 394 100q324 0 502 -187.5t178 -521.5q0 -211 -73 -369.5t-206 -244.5q-137 -88 -336 -100q-20 -41 -20 -95q0 -125 176 -125h117l-11 -110q-100 -35 -211 -35q-113 0 -184.5 54.5t-71.5 150.5q0 49 19 98l53 62v8q-293 20 -451.5 207.5 t-158.5 500.5zM344 694q0 -256 119.5 -416.5t363.5 -160.5q131 0 271 61q72 90 112.5 227.5t40.5 282.5q0 246 -120.5 410t-360.5 164q-141 0 -268 -60q-158 -188 -158 -508z" />
<glyph unicode="R" horiz-adv-x="1427" d="M76 0l10 113l162 28v1098l-172 29l10 112h592q119 0 212 -14t186 -54t145.5 -125t52.5 -212q0 -178 -96.5 -277.5t-239.5 -126.5l-4 -10q45 -104 131 -227t160 -193l164 -28l-13 -113h-311q-242 291 -358 553l-154 29l10 112h146q178 0 276 39q70 100 70 225 q0 281 -353 281h-245v-1098l182 -28l-10 -113h-553z" />
<glyph unicode="S" horiz-adv-x="1282" d="M119 1034q0 215 196 309q125 59 324 60q242 0 463 -86l-31 -359l-143 -14l-21 273q-136 40 -271 40h-7q-133 0 -226 -30q-67 -81 -67 -164q0 -47 22.5 -85t49 -60.5t90 -48t100.5 -38t125 -37t147.5 -46t126 -57.5t106.5 -77t66.5 -103t26.5 -138q0 -227 -199 -326 q-143 -70 -383 -70q-270 0 -489 97l31 383l143 10l20 -287q127 -53 302 -53q150 0 276 39q70 72 70 182q0 47 -20.5 85t-46.5 61.5t-85 49t-97 39t-122 38.5q-88 27 -144.5 47t-127 56t-110.5 76t-67.5 100.5t-27.5 133.5z" />
<glyph unicode="T" horiz-adv-x="1413" d="M76 1380h1261l-14 -428l-141 -14l-39 301h-330v-1098l213 -28l-10 -113h-629l10 113l205 28v1098h-332l-37 -287l-143 -14z" />
<glyph unicode="U" horiz-adv-x="1560" d="M76 1270l10 110h565l-10 -110l-199 -31v-686q0 -209 73 -318.5t282 -109.5q195 0 323 94q41 121 41 348v672l-211 31l11 110h538l-10 -110l-146 -31v-672q0 -295 -129 -442.5t-444 -147.5q-291 0 -415 142.5t-124 433.5v686z" />
<glyph unicode="V" horiz-adv-x="1435" d="M20 1270l11 110h547l-13 -110l-207 -31l359 -1020h12l375 1020l-219 31l10 110h520l-12 -110l-109 -31l-465 -1239h-243l-445 1239z" />
<glyph unicode="W" horiz-adv-x="1941" d="M20 1270l11 110h514l-10 -110l-195 -31l213 -967h10l307 1108h217l291 -1108h13l231 967l-201 31l11 110h487l-10 -110l-109 -31l-307 -1239h-238l-280 1073h-12l-297 -1073h-240l-285 1239z" />
<glyph unicode="X" horiz-adv-x="1531" d="M43 0l10 113l117 26l459 572l-439 528l-127 31l11 110h569l-10 -104l-187 -31l330 -403l320 403l-195 31l10 104h543l-12 -110l-115 -31l-432 -537l465 -561l127 -28l-10 -113h-576l10 104l195 31l-361 436l-348 -436l205 -31l-10 -104h-549z" />
<glyph unicode="Y" horiz-adv-x="1480" d="M20 1268l11 112h555l-11 -110l-206 -33l374 -584h13l385 584l-213 33l10 110h520l-10 -112l-109 -31l-503 -739v-357l219 -28l-11 -113h-634l10 113l207 28v357l-486 739z" />
<glyph unicode="Z" horiz-adv-x="1290" d="M76 152l901 1075l-8 12h-654l-36 -311l-144 -15l-14 467h1057l36 -159l-892 -1069l10 -11h655l39 338l141 15l15 -494h-1069z" />
<glyph unicode="[" horiz-adv-x="593" d="M174 -213v1616h344l-10 -113l-160 -28v-1336l170 -26l-10 -113h-334z" />
<glyph unicode="\" horiz-adv-x="786" d="M45 1452l127 33l25 -12l542 -1545l-127 -30l-24 12z" />
<glyph unicode="]" horiz-adv-x="593" d="M76 -213l10 113l160 28v1336l-170 26l10 113h334v-1616h-344z" />
<glyph unicode="^" horiz-adv-x="897" d="M51 741v29l336 610h125l334 -612v-27h-137l-260 486h-15l-260 -486h-123z" />
<glyph unicode="_" horiz-adv-x="907" d="M0 -250l10 127h897l-10 -127h-897z" />
<glyph unicode="`" horiz-adv-x="600" d="M100 1397l133 131l269 -322l-80 -80z" />
<glyph unicode="a" horiz-adv-x="1159" d="M109 276q0 78 33.5 135.5t80.5 87t120 47t129 21.5t132 4h174q0 145 -45 205t-168 60q-143 0 -219 -33l-20 -164l-146 -14l-20 254q213 88 440 88q369 0 369 -342v-496l127 -27l-11 -102h-276l-23 143h-14l-125 -137q-71 -24 -168 -24h-8q-174 0 -268 78.5t-94 215.5z M305 293q0 -76 50.5 -129t148.5 -53q184 0 274 172v168h-170q-151 0 -264 -23q-39 -53 -39 -135z" />
<glyph unicode="b" horiz-adv-x="1232" d="M76 0l10 102l139 27v1122l-149 27l10 102l307 23l23 -117v-487h12l123 123q77 28 157 28h5q115 0 200.5 -45t132 -118.5t68 -153.5t21.5 -164q0 -203 -114 -345t-304 -142q-195 0 -303 161h-13l-24 -143h-301zM416 291q43 -90 118.5 -132t155.5 -42q76 0 154 37 q88 137 88 317q0 150 -68.5 239t-201.5 89q-154 0 -246 -140v-368z" />
<glyph unicode="c" horiz-adv-x="1058" d="M98 473q0 285 195 414q119 78 291 78q193 0 356 -80l-14 -305l-135 -13l-31 230q-76 32 -179 32h-6q-111 0 -198 -45q-78 -111 -78 -301q0 -172 89 -268t230 -96q76 0 159 26.5t138 71.5l56 -65q-111 -174 -387 -175q-229 0 -357.5 135.5t-128.5 360.5z" />
<glyph unicode="d" horiz-adv-x="1196" d="M98 485q0 268 168 394q99 71 236 71q199 0 301 -151h12v452l-156 27l11 102l307 23l29 -152v-1122l129 -27l-11 -102h-278l-23 143h-14l-125 -137q-79 -24 -150 -24h-6q-211 0 -320.5 146t-109.5 357zM297 475q0 -160 72.5 -259t193.5 -99q84 0 151.5 50t100.5 118v360 q-90 166 -283 166q-82 0 -157 -41q-78 -113 -78 -295z" />
<glyph unicode="e" horiz-adv-x="1077" d="M98 473q0 272 178 404q117 88 293 88q193 0 305.5 -106.5t112.5 -283.5v-6q0 -68 -22 -139l-672 -2q8 -152 97 -227.5t224 -75.5q168 0 283 96l53 -63q-115 -180 -379 -181q-225 0 -349 136.5t-124 359.5zM293 545h528q-4 137 -71.5 216t-186.5 79q-109 0 -194 -45 q-66 -96 -76 -250z" />
<glyph unicode="f" horiz-adv-x="743" d="M88 0l10 102l140 27v666l-150 -11l10 158h181v12l-41 66q-6 25 -7 80q0 137 92.5 224t258.5 87q111 0 190 -31l-10 -104q-207 0 -299 -27q-51 -72 -51 -223v-84h258l-11 -121l-233 -16v-676l188 -27l-10 -102h-516z" />
<glyph unicode="g" horiz-adv-x="1175" d="M90 -108.5q0 124.5 111 196.5v14q-37 43 -37 105q0 113 94 203v12q-117 72 -117 223q0 154 123 237t297 83q139 0 238 -50l278 50l29 -150h-178l-6 -12q72 -76 71 -174q0 -145 -125 -222t-297 -77q-113 0 -198 35q-41 -45 -41 -111q0 -84 82 -84h284q416 0 416 -254 q0 -86 -47 -148.5t-128 -95t-167 -46t-184 -13.5q-242 0 -370 77t-128 201.5zM274 -96q0 -174 320 -174q162 0 293 32q31 49 31 117q0 158 -240 158h-354q-49 -61 -50 -133zM332 649q0 -96 69.5 -150.5t182.5 -54.5q123 0 182 41q37 82 37 150q0 96 -66.5 155.5t-185.5 59.5 q-102 0 -180 -43q-39 -70 -39 -158z" />
<glyph unicode="h" horiz-adv-x="1253" d="M76 0l10 102l139 27v1122l-149 27l10 102l307 23l23 -117v-510h12l117 144q73 28 154 28h6q338 0 337 -362v-457l150 -27l-10 -102h-328v551q0 244 -203 244q-150 0 -235 -152v-514l155 -27l-10 -102h-485z" />
<glyph unicode="i" horiz-adv-x="636" d="M88 0l10 102l140 27v684l-150 27l10 102l297 23l31 -152v-684l149 -27l-10 -102h-477zM221 1106v221l201 16v-223z" />
<glyph unicode="j" horiz-adv-x="589" d="M63 -365l9 107q94 37 137 86q29 90 29 293v692l-150 27l10 102l295 23l35 -174v-648q0 -270 -76 -381q-72 -102 -264 -149zM211 1106v221l203 16v-223z" />
<glyph unicode="k" horiz-adv-x="1204" d="M61 0l11 102l139 27v1122l-150 27l11 102l305 23l24 -117v-1157l142 -27l-11 -102h-471zM483 430l11 94l286 291l-137 27l10 100h473l-10 -102l-123 -27l-323 -326q158 -203 344 -360l133 -25l-10 -102h-258q-225 190 -396 430z" />
<glyph unicode="l" horiz-adv-x="643" d="M88 0l10 102l140 27v1122l-150 27l10 102l299 23l29 -152v-1122l149 -27l-10 -102h-477z" />
<glyph unicode="m" horiz-adv-x="1824" d="M76 0l10 102l139 27v684l-149 27l10 102l295 23l27 -168h12l117 135q70 33 165 33q215 0 273 -170h12l119 137q70 33 172 33q336 0 336 -359v-477l149 -27l-10 -102h-330v590q0 102 -47 161.5t-139 59.5q-145 0 -229 -127q4 -35 4 -109v-446l155 -27l-10 -102h-330v590 q0 221 -176 221q-80 0 -140 -43t-95 -104v-535l155 -27l-10 -102h-485z" />
<glyph unicode="n" horiz-adv-x="1251" d="M76 0l10 102l139 27v684l-149 27l10 102l295 23l27 -172h14l123 143q80 29 174 29q178 0 248.5 -92.5t70.5 -258.5v-485l150 -27l-10 -102h-328v582q0 229 -186 229q-154 0 -248 -152v-530l155 -27l-10 -102h-485z" />
<glyph unicode="o" horiz-adv-x="1153" d="M98 471q0 279 183 410q119 84 288 84q223 0 354.5 -133.5t131.5 -360.5q0 -281 -181 -410q-119 -84 -292 -84q-223 0 -353.5 132.5t-130.5 361.5zM299 477.5q0 -190.5 87 -279.5t216 -89q106 0 174 47q78 129 78 307q0 190 -87 279t-208 89q-98 0 -180 -45 q-80 -118 -80 -308.5z" />
<glyph unicode="p" horiz-adv-x="1224" d="M68 -365l10 103l139 26v1049l-149 27l10 102l289 23l26 -156h15l127 117q73 22 156 22h7q117 0 205 -44t134 -116.5t67.5 -151.5t21.5 -163q0 -123 -45 -233.5t-129 -178.5q-99 -79 -232 -79h-3q-186 0 -295 141h-14v-359l170 -26l-11 -103h-499zM408 272 q85 -155 266 -155h2q88 0 168 43q80 135 80 307q0 152 -69 242t-202 90q-156 0 -245 -123v-404z" />
<glyph unicode="q" d="M98 481q0 272 166 396q99 73 232 73h4q197 0 311 -151h14l23 143h289l-11 -104l-120 -25v-1049l131 -26l-11 -103h-481l10 103l160 26v345h-12l-117 -109q-84 -18 -145 -18q-217 0 -330 141t-113 358zM297 475q0 -162 74.5 -260t203.5 -98q152 0 240 135v387 q-97 172 -283 172q-82 0 -157 -41q-78 -113 -78 -295z" />
<glyph unicode="r" horiz-adv-x="1007" d="M76 0l10 102l139 27v684l-149 27l10 102l295 23l27 -170v-41h14l113 149q111 61 258 62q80 0 147 -13l-25 -329l-135 -13l-20 195q-252 0 -344 -244v-432l180 -27l-10 -102h-510z" />
<glyph unicode="s" horiz-adv-x="1054" d="M98 690q0 150 127 219q104 55 291 56q193 0 387 -76l-26 -234l-142 -12l-22 164q-90 31 -211 31q-94 0 -176 -17q-45 -55 -45 -112q0 -72 63.5 -98.5t216.5 -51.5q78 -12 126 -22.5t109.5 -33t95.5 -51t58.5 -76.5t24.5 -110q0 -141 -121 -217q-111 -72 -322 -72 q-233 0 -421 82l26 250l144 15l20 -183q92 -37 240 -37q98 0 196 25q43 53 43 115q0 72 -58 101.5t-200 55.5q-94 18 -136 27.5t-110.5 33t-98.5 50.5t-54.5 72t-24.5 106z" />
<glyph unicode="t" horiz-adv-x="776" d="M61 784l11 158h153l35 248l129 14v-262h330l-10 -119l-320 -18v-438q0 -129 69.5 -192.5t239.5 -63.5l-10 -111q-76 -16 -156 -16q-154 0 -243.5 90t-89.5 252v379l41 75v15z" />
<glyph unicode="u" d="M39 840l10 102l297 23l31 -152v-446q0 -238 192 -238q152 0 244 152v532l-158 27l11 102l305 23l30 -152v-684l150 -27l-10 -102h-297l-23 143h-14l-123 -137q-71 -24 -157 -24h-7q-176 0 -254 97t-78 255v479z" />
<glyph unicode="v" horiz-adv-x="1193" d="M25 840l10 102h274l289 -799h12l252 670l-170 27l10 102h467l-10 -102l-123 -27l-311 -813h-268l-299 813z" />
<glyph unicode="w" horiz-adv-x="1677" d="M25 840l10 102h274l191 -774h12l227 774h174l263 -774h10l162 645l-156 27l10 102h451l-11 -102l-122 -27l-211 -813h-242l-236 717h-12l-207 -717h-245l-209 813z" />
<glyph unicode="x" horiz-adv-x="1200" d="M51 0l10 102l121 27l299 344l-288 340l-136 27l11 102h249l299 -352l193 229l-145 27l10 96h469l-10 -102l-123 -27l-291 -338l293 -346l137 -27l-10 -102h-252l-303 360l-201 -239l145 -27l-10 -94h-467z" />
<glyph unicode="y" horiz-adv-x="1136" d="M25 840l10 102h274l285 -799h14l266 670l-178 27l11 102h352l10 -102l-377 -910q-66 -162 -152.5 -239.5t-222.5 -77.5q-74 0 -127 20l15 115q139 0 213 27q55 78 112 215l-6 10h-73l-293 813z" />
<glyph unicode="z" horiz-adv-x="1056" d="M88 102l617 703l-5 14h-403l-31 -190l-139 -15l-14 328h833l21 -102l-623 -703l6 -14h420l31 211l139 12l14 -346h-845z" />
<glyph unicode="{" horiz-adv-x="729" d="M127 532l10 123q80 0 117 63.5t37 203.5v184q0 143 81 220t228 77h53l-10 -111q-178 0 -178 -198v-234q0 -123 -56.5 -185.5t-119.5 -72.5v-16q63 -10 119.5 -72.5t56.5 -185.5v-232q0 -199 188 -198l-10 -113h-43q-147 0 -228 78t-81 221v182q0 139 -40 202.5t-124 63.5 z" />
<glyph unicode="|" horiz-adv-x="442" d="M145 -213v1606l131 24l21 -24v-1606l-129 -25z" />
<glyph unicode="}" horiz-adv-x="729" d="M76 -215l10 113q178 0 178 198v232q0 123 55.5 185t120.5 75v14q-66 12 -121 74.5t-55 185.5v232q0 199 -188 198l10 111h45q147 0 227 -77t80 -220v-184q0 -266 164 -267l-10 -120q-154 0 -154 -267v-184q0 -143 -79.5 -221t-227.5 -78h-55z" />
<glyph unicode="~" horiz-adv-x="1234" d="M125 635q80 176 270 176q96 0 260 -72q135 -61 215 -71l146 110h26l66 -61q-78 -176 -268 -176q-96 -1 -260 71q-133 59 -215 74l-146 -113h-26z" />
<glyph unicode="&#xa2;" horiz-adv-x="1026" d="M102 451q0 272 187 395q82 55 196 67l-16 232l180 14l-22 -241q154 -12 280 -76l-12 -289l-139 -14l-29 217q-68 31 -168 30q-111 0 -194 -41q-72 -106 -72 -284q0 -164 86 -253t223 -89q72 0 152 24.5t131 67.5l51 -66q-92 -141 -299 -163l18 -211l-180 -15l21 226 q-186 20 -290 146t-104 323z" />
<glyph unicode="&#xa3;" horiz-adv-x="1085" d="M96 0l10 100q88 45 132.5 167t21.5 255h-156l11 121h121q-31 131 -31 215q0 188 115.5 293.5t316.5 105.5q184 0 344 -81l-23 -302l-135 -14l-18 223q-78 33 -180 33q-109 0 -183 -45q-53 -86 -53 -219q0 -88 37 -209h371l-11 -121h-335q14 -102 -10.5 -207.5 t-90.5 -167.5v-12l668 6l-14 -141h-908z" />
<glyph unicode="&#xa5;" horiz-adv-x="1155" d="M20 1135l9 100h442l-10 -98l-146 -29l263 -428h12l276 428l-153 29l10 98h410l-9 -100l-80 -27l-292 -438h272l-10 -123h-350v-113h360l-10 -121h-350v-188l157 -25l-6 -100h-498l9 100l147 25v188h-323l10 121h313v113h-323l10 123h229l-280 438z" />
<glyph unicode="&#xa8;" horiz-adv-x="620" d="M76 1126v203l174 12v-202zM373 1126v203l172 12v-202z" />
<glyph unicode="&#xa9;" horiz-adv-x="1519" d="M145 698q0 291 182.5 458t477.5 167q285 0 428 -147.5t143 -356.5q0 -213 -143 -339t-350 -126q-106 0 -194.5 34t-150 117t-61.5 204q0 145 84 226t234 81q121 0 233 -51l-10 -213l-98 -9l-19 160q-45 23 -121 23q-49 0 -108 -25q-57 -66 -58 -196q0 -125 87 -188.5 t229 -63.5q98 0 182 32q53 53 87 139.5t34 178.5q0 66 -20.5 131t-67.5 133t-141.5 110t-225.5 42q-227 0 -387 -123q-100 -160 -100 -381q0 -147 50 -260t133 -175.5t176 -93t192 -30.5q154 0 278 67l49 -76q-158 -92 -348 -92q-131 0 -249.5 40t-215 116t-154 202 t-57.5 285z" />
<glyph unicode="&#xab;" horiz-adv-x="980" d="M174 401v82l320 348l77 -57l-217 -323v-15l217 -323l-75 -60zM506 401v82l319 348l78 -57l-219 -323v-15l219 -323l-76 -60z" />
<glyph unicode="&#xad;" horiz-adv-x="952" d="M125 594l80 141h483l119 23l20 -27l-79 -143h-484l-119 -23z" />
<glyph unicode="&#xae;" horiz-adv-x="1560" d="M145 688q0 297 180.5 466t471.5 169q299 0 459.5 -170t160.5 -471q0 -158 -53 -291h-389l-150 215h-135v-131l70 -14l-8 -70h-263l9 70l65 14v445l-74 14l9 72h329q106 0 184.5 -47.5t78.5 -153.5q0 -141 -138 -174l113 -158l182 19q25 90 25 184q0 246 -120 394.5 t-372 148.5q-229 0 -389 -123q-100 -160 -100 -385q0 -145 46 -257t124 -174.5t167 -93t187 -30.5q147 0 270 67l50 -76q-158 -92 -340 -92q-272 0 -461 165t-189 468zM690 692h109q72 0 127 15q37 41 37 96q0 117 -187 117h-86v-228z" />
<glyph unicode="&#xb4;" horiz-adv-x="552" d="M76 1206l268 322l133 -131l-321 -271z" />
<glyph unicode="&#xb8;" horiz-adv-x="552" d="M76 -502l10 76q242 0 242 113q0 92 -205 92l-33 45l182 223l80 -47l-98 -121l8 -14q215 -10 215 -156q0 -96 -82 -160.5t-213 -64.5z" />
<glyph unicode="&#xbb;" horiz-adv-x="980" d="M78 113l217 323v15l-217 323l78 57l319 -348v-82l-321 -348zM408 113l219 323v15l-217 323l75 57l322 -348v-82l-322 -348z" />
<glyph unicode="&#x2c6;" horiz-adv-x="755" d="M76 1200l241 313h121l242 -313l-74 -74l-215 207h-26l-215 -207z" />
<glyph unicode="&#x2da;" horiz-adv-x="530" d="M76 1313q0 78 55 132t133 54q80 0 135.5 -54t55.5 -132t-55.5 -132.5t-135.5 -54.5q-78 0 -133 54.5t-55 132.5zM170 1313q0 -41 26.5 -68.5t67.5 -27.5t68.5 27.5t27.5 68.5t-27.5 68.5t-68.5 27.5t-67.5 -27.5t-26.5 -68.5z" />
<glyph unicode="&#x2dc;" horiz-adv-x="796" d="M76 1169q0 72 45 120t129 48q45 0 95 -15t113.5 -40t104.5 -35l76 92l80 -45q0 -74 -45 -121t-127 -47q-45 0 -96.5 14.5t-116 40t-101.5 36.5l-75 -93z" />
<glyph unicode="&#x400;" horiz-adv-x="1341" d="M76 0l10 113l162 28v1098l-172 31l10 110h1137l-15 -426l-137 -16l-37 301h-579v-483h299l-11 153l164 11l-16 -490l-111 -10l-20 198h-305v-477h596l36 308l140 14l14 -463h-1165zM377 1786l133 131l268 -322l-80 -79z" />
<glyph unicode="&#x401;" horiz-adv-x="1341" d="M76 0l10 113l162 28v1098l-172 31l10 110h1137l-15 -426l-137 -16l-37 301h-579v-483h299l-11 153l164 11l-16 -490l-111 -10l-20 198h-305v-477h596l36 308l140 14l14 -463h-1165zM463 1516v202l174 13v-203zM760 1516v202l172 13v-203z" />
<glyph unicode="&#x402;" horiz-adv-x="1597" d="M76 1380h1190l-15 -399l-139 -14l-37 272h-301v-549h14l117 144q84 27 185 26q180 0 262 -96t82 -299v-332q0 -190 -96.5 -312t-270.5 -136l-27 22l11 107q86 14 132 93t46 197v328q0 123 -49.5 200t-157.5 77q-156 0 -248 -154v-414l191 -28l-11 -113h-585l10 113 l190 28v1098h-303l-37 -258l-139 -14z" />
<glyph unicode="&#x403;" horiz-adv-x="1259" d="M76 1268l10 112h1098l-17 -428l-141 -14l-37 301h-522v-1098l231 -28l-10 -113h-604l10 113l162 28v1098zM565 1595l269 322l133 -131l-322 -270z" />
<glyph unicode="&#x404;" horiz-adv-x="1388" d="M119 696q0 338 177 522.5t499 184.5q250 0 467 -96l-15 -408l-143 -14l-37 325q-100 49 -270 50q-166 0 -305 -60q-70 -74 -114 -193.5t-50 -256.5h436l-8 170l162 10l-15 -508l-117 -10l-12 200h-442q23 -227 154.5 -361t324.5 -134q102 0 213.5 38.5t189.5 106.5 l74 -86q-82 -98 -220 -148.5t-292 -50.5q-301 0 -479 194t-178 525z" />
<glyph unicode="&#x405;" horiz-adv-x="1282" d="M119 1034q0 215 196 309q125 59 324 60q242 0 463 -86l-31 -359l-143 -14l-21 273q-139 41 -278 40q-133 0 -226 -30q-68 -82 -67 -166q0 -45 22.5 -83t49 -60.5t90 -48t100.5 -38t125 -37t147.5 -46t126 -57.5t106.5 -77t66.5 -103t26.5 -138q0 -227 -199 -326 q-143 -70 -383 -70q-270 0 -489 97l31 383l143 10l20 -287q127 -53 302 -53q150 0 276 39q70 72 70 182q0 47 -20.5 85t-46.5 61.5t-85 49t-97 39t-122 38.5q-88 27 -144.5 47t-127 56t-110.5 76t-67.5 100.5t-27.5 133.5z" />
<glyph unicode="&#x406;" horiz-adv-x="708" d="M76 0l10 113l162 28v1098l-172 31l10 110h545l-10 -110l-162 -31v-1098l172 -28l-10 -113h-545z" />
<glyph unicode="&#x407;" horiz-adv-x="708" d="M76 0l10 113l162 28v1098l-172 31l10 110h545l-10 -110l-162 -31v-1098l172 -28l-10 -113h-545zM127 1565v202l174 13v-203zM424 1565v202l172 13v-203z" />
<glyph unicode="&#x408;" horiz-adv-x="747" d="M43 -303l10 110q145 55 217 130q31 98 31 307v995l-180 31l10 110h539l-11 -110l-147 -31v-971q0 -293 -141 -432q-98 -106 -305 -162z" />
<glyph unicode="&#x409;" horiz-adv-x="2162" d="M20 0l11 113l123 28l718 1098l-184 31l10 110h750l-10 -110l-162 -31v-1098h147q248 0 363 39q57 88 57 201q0 250 -344 250h-135l10 137h162q98 0 184 -17.5t166 -58.5t126 -118.5t46 -186.5q0 -186 -135 -289q-80 -61 -186.5 -79.5t-296.5 -18.5h-572l11 113l192 28 v1063h-12l-692 -1063l202 -28l-10 -113h-539z" />
<glyph unicode="&#x40a;" horiz-adv-x="2162" d="M76 0l10 113l158 28v1098l-168 31l10 110h565l-10 -110l-188 -31v-471h612v471l-197 31l11 110h569l-10 -110l-164 -31v-1098h166q229 0 346 39q55 90 55 201q0 250 -344 250h-133l10 137h162q98 0 184 -17.5t166 -58.5t126 -118.5t46 -186.5q0 -184 -137 -289 q-80 -59 -186.5 -78.5t-294.5 -19.5h-572l11 113l186 28v482h-612v-482l198 -28l-10 -113h-565z" />
<glyph unicode="&#x40b;" horiz-adv-x="1644" d="M76 1380h1190l-15 -383l-139 -14l-37 256h-301v-553h14l117 143q90 29 185 29q180 0 262 -90t82 -272v-355l149 -28l-10 -113h-344v461q0 244 -205 244q-158 0 -250 -152v-412l199 -28l-10 -113h-594l10 113l190 28v1098h-303l-37 -242l-139 -14z" />
<glyph unicode="&#x40c;" horiz-adv-x="1486" d="M76 0l10 113l162 28v1098l-172 31l10 110h541l-11 -110l-157 -31v-1098l184 -28l-12 -113h-555zM543 643l10 105l475 491l-162 31l13 110h557l-13 -110l-159 -31l-510 -526q225 -301 528 -572l170 -28l-10 -113h-320q-340 307 -579 643zM680 1595l268 322l133 -131 l-321 -270z" />
<glyph unicode="&#x40d;" horiz-adv-x="1589" d="M61 1268l11 112h555l-13 -112l-174 -29v-960h13l655 1101h405l-10 -112l-162 -29v-1098l172 -28l-10 -113h-575l10 113l197 28v953h-15l-651 -1094h-236v1239zM504 1786l133 131l268 -322l-80 -79z" />
<glyph unicode="&#x40e;" horiz-adv-x="1441" d="M25 1270l10 110h547l-11 -110l-204 -31l333 -758h37l357 758l-228 31l11 110h544l-10 -110l-108 -31l-474 -1001q-123 -260 -374 -261q-94 0 -166 23l12 131h68q113 0 168 14q68 57 137 203h-131l-400 891zM406 1749l159 12q23 -59 72 -91t106.5 -32t103.5 32t66 91 l109 -12q-27 -113 -112 -173t-193 -60q-111 0 -199 60t-112 173z" />
<glyph unicode="&#x40f;" horiz-adv-x="1585" d="M76 0l10 113l162 28v1098l-172 31l10 110h578l-11 -110l-194 -31v-1098h667v1098l-204 31l10 110h577l-10 -110l-164 -31v-1098l174 -28l-10 -113h-608l-25 -270l-141 -17l-31 287h-618z" />
<glyph unicode="&#x410;" horiz-adv-x="1519" d="M20 0l11 113l116 28l435 1098l-195 31l10 110h502l473 -1239l125 -28l-10 -113h-545l10 113l205 28l-104 277h-607l-108 -277l217 -28l-10 -113h-525zM500 553h501l-239 659h-12z" />
<glyph unicode="&#x411;" horiz-adv-x="1394" d="M76 0l10 113l162 28v1098l-172 31l10 110h1079l-12 -419l-141 -13l-39 291h-514v-1098h186q246 0 373 39q55 84 55 217q0 254 -342 254h-186l10 137h213q96 0 182 -18t166 -59t127 -120t47 -188q0 -195 -137 -305q-78 -61 -185.5 -79.5t-283.5 -18.5h-608z" />
<glyph unicode="&#x412;" horiz-adv-x="1400" d="M76 0l10 113l162 28v1098l-172 31l10 110h698q211 0 343.5 -77.5t132.5 -258.5q0 -117 -57.5 -199.5t-151.5 -121.5v-14q246 -70 245 -336q0 -172 -112 -267q-127 -106 -451 -106h-657zM455 141h215q246 0 362 35q47 76 47 207q0 254 -317 254h-217l10 129h113 q203 0 315 39q66 68 66 201q0 139 -89.5 186t-267.5 47h-237v-1098z" />
<glyph unicode="&#x413;" horiz-adv-x="1259" d="M76 1268l10 112h1098l-17 -428l-141 -14l-37 301h-522v-1098l231 -28l-10 -113h-604l10 113l162 28v1098z" />
<glyph unicode="&#x414;" horiz-adv-x="1484" d="M31 141h121l419 1098l-198 31l10 110h496l452 -1239h121l-12 -411l-142 -17l-30 287h-1049l-31 -270l-143 -17zM340 141h784l-376 1057h-15z" />
<glyph unicode="&#x415;" horiz-adv-x="1341" d="M76 0l10 113l162 28v1098l-172 31l10 110h1137l-15 -426l-137 -16l-37 301h-579v-483h299l-11 153l164 11l-16 -490l-111 -10l-20 198h-305v-477h596l36 308l140 14l14 -463h-1165z" />
<glyph unicode="&#x416;" horiz-adv-x="2160" d="M35 0l10 113l156 28q266 258 479 578l-459 520l-168 29l10 112h562l-11 -112l-155 -29l434 -500l-10 -104q-233 -354 -518 -635h-330zM778 0l10 113l187 28v1098l-162 29l10 112h525l-11 -112l-151 -29v-1098l196 -28l-10 -113h-594zM1270 645l10 105l422 489l-166 29 l10 112h563l-12 -112l-158 -29l-458 -520q203 -311 479 -578l166 -28l-10 -113h-320q-311 311 -526 645z" />
<glyph unicode="&#x417;" horiz-adv-x="1236" d="M104 1319q227 84 478 84q242 0 381 -88t139 -268q0 -115 -57.5 -197t-161.5 -115v-12q250 -62 250 -322q0 -197 -138.5 -310.5t-357.5 -113.5q-117 0 -265.5 30t-234.5 75l51 158l557 -134q174 104 175 283q0 121 -89.5 188.5t-246.5 67.5q-80 0 -172 -14l10 166 q106 -4 147 -4q158 0 265 32q61 78 61 201q0 121 -86 178.5t-234 57.5q-168 0 -276 -41l-20 -267l-144 -16z" />
<glyph unicode="&#x418;" horiz-adv-x="1589" d="M61 1268l11 112h555l-13 -112l-174 -29v-960h13l655 1101h405l-10 -112l-162 -29v-1098l172 -28l-10 -113h-575l10 113l197 28v953h-15l-651 -1094h-236v1239z" />
<glyph unicode="&#x419;" horiz-adv-x="1589" d="M61 1268l11 112h555l-13 -112l-174 -29v-960h13l655 1101h405l-10 -112l-162 -29v-1098l172 -28l-10 -113h-575l10 113l197 28v953h-15l-651 -1094h-236v1239zM514 1749l160 12q23 -59 72 -91t106 -32t103.5 32t66.5 91l108 -12q-27 -113 -111.5 -173t-193.5 -60 q-111 0 -198.5 60t-112.5 173z" />
<glyph unicode="&#x41a;" horiz-adv-x="1486" d="M76 0l10 113l162 28v1098l-172 31l10 110h541l-11 -110l-157 -31v-1098l184 -28l-12 -113h-555zM543 643l10 105l475 491l-162 31l13 110h557l-13 -110l-159 -31l-510 -526q225 -301 528 -572l170 -28l-10 -113h-320q-340 307 -579 643z" />
<glyph unicode="&#x41b;" horiz-adv-x="1490" d="M20 0l11 113l119 28l419 1098l-196 31l10 110h496l467 -1239l124 -28l-10 -113h-540l12 113l198 28l-380 1041h-15l-391 -1041l211 -28l-10 -113h-525z" />
<glyph unicode="&#x41c;" horiz-adv-x="2013" d="M53 0l10 113l168 28l80 1098l-190 31l10 110h502l360 -1179h11l374 1179h506l-10 -110l-180 -31l86 -1098l180 -28l-10 -113h-570l11 109l188 28l-72 1049h-12l-371 -1186h-268l-358 1182h-11l-77 -1045l202 -28l-12 -109h-547z" />
<glyph unicode="&#x41d;" horiz-adv-x="1603" d="M76 0l10 113l162 28v1098l-172 31l10 110h582l-11 -110l-198 -31v-471h686v471l-207 31l10 110h580l-10 -110l-162 -31v-1098l172 -28l-10 -113h-580l10 113l197 28v482h-686v-482l209 -28l-11 -113h-581z" />
<glyph unicode="&#x41e;" horiz-adv-x="1595" d="M119 696q0 426 284 607q160 100 394 100q324 0 502 -187.5t178 -521.5q0 -211 -73 -369.5t-206 -244.5q-159 -103 -397 -103q-326 0 -504 192.5t-178 526.5zM344 694q0 -256 119.5 -416.5t363.5 -160.5q131 0 271 61q72 90 112.5 227.5t40.5 282.5q0 246 -120.5 410 t-360.5 164q-141 0 -268 -60q-158 -188 -158 -508z" />
<glyph unicode="&#x41f;" horiz-adv-x="1562" d="M76 0l10 113l162 28v1098l-172 31l10 110h1401l-10 -110l-164 -31v-1098l174 -28l-10 -113h-574l10 113l191 28v1094h-645v-1094l203 -28l-11 -113h-575z" />
<glyph unicode="&#x420;" horiz-adv-x="1388" d="M76 0l10 113l162 28v1098l-172 31l10 110h649q113 0 206 -20.5t173 -67.5t125 -133t45 -205q0 -223 -156 -340q-129 -98 -337 -98h-74l-176 31l10 110h127q211 0 317 39q70 111 70 250q0 293 -375 293h-233v-1098l231 -28l-10 -113h-602z" />
<glyph unicode="&#x421;" horiz-adv-x="1390" d="M119 696q0 422 280 602q162 104 402 105q246 0 454 -96l-12 -408l-143 -14l-37 325q-102 49 -270 50q-158 0 -295 -60q-74 -80 -119 -217t-45 -285q0 -260 136 -420.5t345 -160.5q104 0 214 41.5t188 115.5l73 -86q-84 -106 -221 -158.5t-293 -52.5q-301 0 -479 194 t-178 525z" />
<glyph unicode="&#x422;" horiz-adv-x="1413" d="M76 1380h1261l-14 -428l-141 -14l-39 301h-330v-1098l213 -28l-10 -113h-629l10 113l205 28v1098h-332l-37 -287l-143 -14z" />
<glyph unicode="&#x423;" horiz-adv-x="1441" d="M25 1270l10 110h547l-11 -110l-204 -31l333 -758h37l357 758l-228 31l11 110h544l-10 -110l-108 -31l-474 -1001q-123 -260 -374 -261q-94 0 -166 23l12 131h68q113 0 168 14q68 57 137 203h-131l-400 891z" />
<glyph unicode="&#x424;" horiz-adv-x="1912" d="M119 682q0 408 268 584q166 109 404 108h63v113l-190 33l10 104h573l-10 -104l-180 -33v-113h63q319 0 496.5 -187.5t177.5 -508.5q0 -195 -67.5 -349.5t-198.5 -242.5q-160 -109 -406 -109h-71q-16 -168 -98.5 -256t-202.5 -108l-25 22l10 113q57 31 103 80 q10 59 14 149h-61q-319 0 -495.5 188.5t-176.5 516.5zM338 672q0 -115 24.5 -212.5t77 -176t141.5 -122.5t210 -44h63v1114h-55q-174 0 -293 -51q-168 -182 -168 -508zM1057 117h57q158 0 293 57q166 205 166 508q0 231 -111.5 390t-341.5 159h-63v-1114z" />
<glyph unicode="&#x425;" horiz-adv-x="1531" d="M43 0l10 113l117 26l459 572l-439 528l-127 31l11 110h569l-10 -104l-187 -31l330 -403l320 403l-195 31l10 104h543l-12 -110l-115 -31l-432 -537l465 -561l127 -28l-10 -113h-576l10 104l195 31l-361 436l-348 -436l205 -31l-10 -104h-549z" />
<glyph unicode="&#x426;" horiz-adv-x="1599" d="M76 0l10 113l162 28v1098l-172 31l10 110h578l-11 -110l-194 -31v-1098h667v1098l-204 31l10 110h577l-10 -110l-164 -31v-1098h201l-16 -411l-142 -17l-32 287h-1270z" />
<glyph unicode="&#x427;" horiz-adv-x="1503" d="M59 1270l11 110h544l-10 -110l-178 -31v-330q0 -348 317 -348q164 0 301 84v594l-190 31l10 110h563l-10 -110l-162 -31v-1098l172 -28l-10 -113h-583l10 113l200 28v375h-12q-158 -106 -370 -106q-211 0 -329 117.5t-118 342.5v369z" />
<glyph unicode="&#x428;" horiz-adv-x="2078" d="M80 0l10 113l158 28v1098l-168 31l10 110h549l-10 -110l-170 -31v-1098h475v1098l-166 31l12 110h531l-11 -110l-155 -31v-1098h475v1098l-178 31l10 110h547l-10 -110l-160 -31v-1098l170 -28l-10 -113h-1909z" />
<glyph unicode="&#x429;" horiz-adv-x="2091" d="M76 0l10 113l160 28v1098l-170 31l10 110h549l-10 -110l-170 -31v-1098h475v1098l-164 31l10 110h529l-11 -110l-153 -31v-1098h475v1098l-178 31l10 110h547l-10 -110l-160 -31v-1098h200l-14 -424l-141 -14l-39 297h-1755z" />
<glyph unicode="&#x42a;" horiz-adv-x="1570" d="M51 1380h783l-11 -110l-164 -31v-1098h166q252 0 369 39q55 90 55 217q0 270 -342 271h-157l10 137h184q96 0 182 -19.5t166 -61.5t127 -125t47 -196q0 -190 -137 -305q-78 -63 -195.5 -80.5t-324.5 -17.5h-530l10 113l162 28v1098h-209l-39 -287l-140 -14z" />
<glyph unicode="&#x42b;" horiz-adv-x="1943" d="M76 0l10 113l162 28v1098l-172 31l10 110h563l-10 -110l-180 -31v-1098h123q246 0 374 39q55 90 56 217q0 270 -344 271h-119l10 137h148q76 0 145.5 -11.5t139 -39t120.5 -71.5t83 -115.5t32 -164.5q0 -195 -135 -305q-80 -61 -190.5 -79.5t-293.5 -18.5h-532zM1309 0 l10 113l166 28v1098l-176 31l10 110h555l-10 -110l-170 -31v-1098l180 -28l-10 -113h-555z" />
<glyph unicode="&#x42c;" horiz-adv-x="1368" d="M76 0l10 113l162 28v1098l-172 29l10 112h565l-10 -112l-182 -29v-1098h159q246 0 373 39q55 84 56 215q0 147 -96.5 210t-245.5 63h-158l10 137h184q78 0 147.5 -11.5t139.5 -39t121 -71.5t83 -115.5t32 -164.5q0 -197 -138 -305q-80 -61 -190.5 -79.5t-290.5 -18.5 h-569z" />
<glyph unicode="&#x42d;" horiz-adv-x="1386" d="M119 1300q205 102 469 103q322 0 501 -183.5t179 -519.5q0 -342 -174 -532.5t-478 -190.5q-121 0 -256 29t-223 76l45 151l584 -124q260 129 289 503h-447l-10 -190l-119 -10l-14 508l164 10l-13 -180h441q-10 231 -124 370.5t-335 139.5q-176 0 -287 -50l-37 -309 l-143 -14z" />
<glyph unicode="&#x42e;" horiz-adv-x="2158" d="M76 0l10 113l162 28v1098l-168 31l10 110h553l-12 -110l-172 -31v-471h280q25 369 277 535q152 100 375 100q309 0 479 -187.5t170 -519.5q0 -434 -273 -616q-147 -103 -378 -103q-291 0 -461 173.5t-189 472.5h-280v-482l184 -28l-12 -113h-555zM963 686 q0 -254 104.5 -411.5t331.5 -157.5q141 0 268 61q147 195 148 516q0 244 -105.5 406t-327.5 162q-156 0 -266 -60q-154 -193 -153 -516z" />
<glyph unicode="&#x42f;" horiz-adv-x="1417" d="M61 0l11 113l143 28q150 174 264 404l-4 10q-133 35 -223 136.5t-90 271.5q0 417 526 417h651l-10 -110l-162 -31v-1098l172 -28l-10 -113h-563l12 113l180 28v1098h-213q-152 0 -270 -22q-94 -94 -94 -246q0 -147 91 -223t251 -76h141l-10 -107l-145 -28 q-143 -289 -347 -537h-301z" />
<glyph unicode="&#x430;" horiz-adv-x="1159" d="M109 276q0 78 33.5 135.5t80.5 87t120 47t129 21.5t132 4h174q0 145 -45 205t-168 60q-143 0 -219 -33l-20 -164l-146 -14l-20 254q213 88 440 88q369 0 369 -342v-496l127 -27l-11 -102h-276l-23 143h-14l-125 -137q-74 -25 -176 -24q-174 0 -268 78.5t-94 215.5z M305 293q0 -76 50.5 -129t148.5 -53q184 0 274 172v168h-170q-151 0 -264 -23q-39 -53 -39 -135z" />
<glyph unicode="&#x431;" horiz-adv-x="1134" d="M109 598q0 344 142 531.5t398 220.5l305 41l-16 -172l-444 -60q-145 -117 -183 -360h15q104 127 305 127q182 0 293.5 -114t111.5 -339q0 -276 -174 -407q-119 -88 -293 -89q-231 0 -345.5 162t-114.5 459zM313 471q0 -162 73 -262t200 -100q82 0 176 47q74 127 74 293 q0 100 -26 171.5t-68 105.5t-81.5 47t-82.5 13q-96 0 -189 -45q-76 -118 -76 -270z" />
<glyph unicode="&#x432;" horiz-adv-x="1134" d="M109 420v565q0 199 119.5 308.5t326.5 109.5q186 0 293.5 -92t107.5 -262q0 -211 -182 -291v-15q264 -74 264 -356q0 -211 -145 -319q-121 -90 -315 -91q-213 0 -341 113t-128 330zM293 422q0 -152 83 -232.5t214 -80.5q98 0 188 45q61 80 61.5 219t-83.5 209.5 t-221 70.5h-129l10 131h61q158 0 256 54q41 98 41 190q0 242 -242 242q-82 0 -159 -29q-80 -108 -80 -270v-549z" />
<glyph unicode="&#x433;" horiz-adv-x="1052" d="M104 258q0 203 273 264l360 80q20 43 21 96q0 135 -217 136q-111 0 -213 -33l-19 -152l-143 -14l-25 254q176 76 391 76q414 0 414 -267q0 -113 -73.5 -174t-210.5 -92l-336 -76q-27 -39 -27 -88q0 -70 65.5 -112.5t170.5 -42.5q127 0 215 34l20 170l143 15l25 -266 q-66 -39 -178.5 -64t-229.5 -25q-195 0 -310.5 71t-115.5 210z" />
<glyph unicode="&#x434;" horiz-adv-x="1181" d="M98 487q0 186 98.5 324.5t305.5 138.5q100 0 180 -24l129 -117h14l21 133h289l-11 -102l-118 -27v-758q0 -238 -148 -354q-117 -88 -293 -88q-184 0 -291.5 85t-107.5 202h192q0 -74 70 -114t154 -40q96 0 168 43q66 92 65 262v90h-12q-104 -117 -279 -116 q-203 0 -314.5 130t-111.5 332zM297 485q0 -143 72.5 -234t203.5 -91q154 0 242 131v385q-115 135 -274 135q-90 0 -166 -41q-78 -113 -78 -285z" />
<glyph unicode="&#x435;" horiz-adv-x="1077" d="M98 473q0 272 178 404q117 88 293 88q193 0 305.5 -106.5t112.5 -283.5q1 -71 -22 -145l-672 -2q8 -152 97 -227.5t224 -75.5q168 0 283 96l53 -63q-115 -180 -379 -181q-225 0 -349 136.5t-124 359.5zM293 545h528q-4 137 -71.5 216t-186.5 79q-109 0 -194 -45 q-66 -96 -76 -250z" />
<glyph unicode="&#x436;" horiz-adv-x="1755" d="M57 0l11 102l122 25q193 172 324 354l-303 332l-133 27l10 102h473l-10 -100l-133 -29l284 -305l-10 -96q-150 -217 -368 -412h-267zM631 1278l10 102l309 23l23 -117v-1157l141 -27l-10 -102h-467l10 102l137 27v1122zM1055 422l10 96l268 295l-139 29l10 100h473 l-10 -102l-123 -27l-303 -332q137 -190 324 -354l133 -25l-10 -102h-254q-225 199 -379 422z" />
<glyph unicode="&#x437;" horiz-adv-x="1044" d="M90 881q211 84 418 84q176 0 290.5 -63.5t114.5 -201.5q0 -90 -48 -132t-130 -64v-12q203 -56 203 -232q0 -131 -108.5 -207t-284.5 -76q-109 0 -240 27t-203 66l48 133l477 -115q47 25 79.5 73t32.5 105q0 158 -252 158q-74 0 -141 -10l10 145q72 -10 150 -10 q119 0 188 22q25 53 25 109q0 78 -61.5 117t-163.5 39q-139 0 -224 -33l-20 -164l-139 -14z" />
<glyph unicode="&#x438;" d="M39 840l10 102l297 23l31 -152v-446q0 -238 192 -238q152 0 244 152v532l-158 27l11 102l305 23l30 -152v-684l150 -27l-10 -102h-297l-23 143h-14l-123 -137q-74 -25 -164 -24q-176 0 -254 97t-78 255v479z" />
<glyph unicode="&#x439;" d="M39 840l10 102l297 23l31 -152v-446q0 -238 192 -238q152 0 244 152v532l-158 27l11 102l305 23l30 -152v-684l150 -27l-10 -102h-297l-23 143h-14l-123 -137q-74 -25 -164 -24q-176 0 -254 97t-78 255v479zM213 1360l160 12q23 -59 72 -91t106 -32t103.5 32t66.5 91 l108 -12q-27 -113 -111.5 -173.5t-193.5 -60.5q-111 0 -198.5 60.5t-112.5 173.5z" />
<glyph unicode="&#x43a;" horiz-adv-x="1204" d="M61 0l11 102l139 27v1122l-150 27l11 102l305 23l24 -117v-1157l142 -27l-11 -102h-471zM483 430l11 94l286 291l-137 27l10 100h473l-10 -102l-123 -27l-323 -326q158 -203 344 -360l133 -25l-10 -102h-258q-225 190 -396 430z" />
<glyph unicode="&#x43b;" d="M31 0l10 102l123 27l270 684l-131 27l10 102h420l316 -813l133 -27l-13 -102h-446l10 102l119 27l-250 659h-12l-252 -659l162 -27l-11 -102h-458z" />
<glyph unicode="&#x43c;" horiz-adv-x="1654" d="M47 0l10 102l140 27l77 684l-155 27l10 102h432l262 -737h13l260 737h436l-4 -102l-150 -27l78 -684l150 -27l-11 -102h-317l-78 737h-12l-256 -737h-221l-267 748h-12l-65 -619l125 -27l-11 -102h-434z" />
<glyph unicode="&#x43d;" horiz-adv-x="1251" d="M76 0l10 102l139 27v684l-149 27l10 102l299 23l31 -152v-274h434v274l-150 27l11 102l297 23l30 -152v-684l150 -27l-10 -102h-328v416h-434v-287l155 -27l-10 -102h-485z" />
<glyph unicode="&#x43e;" horiz-adv-x="1153" d="M98 471q0 279 183 410q119 84 288 84q223 0 354.5 -133.5t131.5 -360.5q0 -281 -181 -410q-119 -84 -292 -84q-223 0 -353.5 132.5t-130.5 361.5zM299 477.5q0 -190.5 87 -279.5t216 -89q106 0 174 47q78 129 78 307q0 190 -87 279t-208 89q-98 0 -180 -45 q-80 -118 -80 -308.5z" />
<glyph unicode="&#x43f;" horiz-adv-x="1251" d="M76 0l10 102l139 27v684l-149 27l10 102l295 23l27 -172h14l123 143q80 29 174 29q178 0 248.5 -92.5t70.5 -258.5v-485l150 -27l-10 -102h-328v582q0 229 -186 229q-154 0 -248 -152v-530l155 -27l-10 -102h-485z" />
<glyph unicode="&#x440;" horiz-adv-x="1224" d="M68 -365l10 103l139 26v1049l-149 27l10 102l289 23l26 -156h15l127 117q76 23 163 22q117 0 205 -44t134 -116.5t67.5 -151.5t21.5 -163q0 -123 -45 -233.5t-129 -178.5q-100 -80 -235 -79q-186 0 -295 141h-14v-359l170 -26l-11 -103h-499zM408 272q86 -156 268 -155 q88 0 168 43q80 135 80 307q0 152 -69 242t-202 90q-156 0 -245 -123v-404z" />
<glyph unicode="&#x441;" horiz-adv-x="1058" d="M98 473q0 285 195 414q119 78 291 78q193 0 356 -80l-14 -305l-135 -13l-31 230q-78 33 -185 32q-111 0 -198 -45q-78 -111 -78 -301q0 -172 89 -268t230 -96q76 0 159 26.5t138 71.5l56 -65q-111 -174 -387 -175q-229 0 -357.5 135.5t-128.5 360.5z" />
<glyph unicode="&#x442;" horiz-adv-x="1824" d="M76 0l10 102l139 27v684l-149 27l10 102l295 23l27 -168h12l117 135q70 33 165 33q215 0 273 -170h12l119 137q70 33 172 33q336 0 336 -359v-477l149 -27l-10 -102h-330v590q0 102 -47 161.5t-139 59.5q-145 0 -229 -127q4 -35 4 -109v-446l155 -27l-10 -102h-330v590 q0 221 -176 221q-80 0 -140 -43t-95 -104v-535l155 -27l-10 -102h-485z" />
<glyph unicode="&#x443;" horiz-adv-x="1136" d="M25 840l10 102h274l285 -799h14l266 670l-178 27l11 102h352l10 -102l-377 -910q-66 -162 -152.5 -239.5t-222.5 -77.5q-74 0 -127 20l15 115q139 0 213 27q55 78 112 215l-6 10h-73l-293 813z" />
<glyph unicode="&#x444;" horiz-adv-x="1425" d="M98 473q0 270 189 401q123 90 301 91h30v286l-155 27l10 102l309 23l25 -117v-321h37q213 0 349 -135.5t136 -358.5q0 -270 -186 -403q-125 -90 -305 -91h-29l-2 -213l149 -26l-10 -103h-483l10 103l145 26v213h-36q-213 0 -348.5 134.5t-135.5 361.5zM295 471 q0 -180 91 -270t196 -90h36v720h-30q-119 0 -191 -38q-102 -137 -102 -322zM807 111h31q115 0 192 41q100 141 100 319t-90 269t-196 91h-37v-720z" />
<glyph unicode="&#x445;" horiz-adv-x="1200" d="M51 0l10 102l121 27l299 344l-288 340l-136 27l11 102h249l299 -352l193 229l-145 27l10 96h469l-10 -102l-123 -27l-291 -338l293 -346l137 -27l-10 -102h-252l-303 360l-201 -239l145 -27l-10 -94h-467z" />
<glyph unicode="&#x446;" horiz-adv-x="1228" d="M39 840l10 102l297 23l31 -152v-446q0 -238 192 -238q152 0 244 152v532l-158 27l11 102l305 23l30 -152v-684h146l-14 -360l-136 -15l-30 246h-123l-23 143h-14l-123 -137q-74 -25 -164 -24q-176 0 -254 97t-78 255v479z" />
<glyph unicode="&#x447;" horiz-adv-x="1214" d="M39 840l10 102l299 23l25 -117v-197q0 -242 194 -241q145 0 242 110v293l-154 27l11 102l307 23l24 -117v-719l150 -27l-10 -102h-498l10 102l160 27v254h-14q-125 -123 -295 -123q-176 0 -246 94.5t-70 257.5v201z" />
<glyph unicode="&#x448;" horiz-adv-x="1787" d="M39 840l10 102l297 23l31 -152v-459q0 -225 188 -225q145 0 230 129q-6 51 -7 109v446l-149 27l10 102l295 23l31 -152v-455q0 -100 43 -164.5t135 -64.5q76 0 137.5 44t95.5 108v532l-155 27l10 102l305 23l29 -152v-684l149 -27l-10 -102h-297l-22 143h-15l-116 -135 q-70 -27 -162 -26q-221 0 -279 163h-12l-119 -137q-74 -27 -166 -26q-178 0 -258 94t-80 254v483z" />
<glyph unicode="&#x449;" horiz-adv-x="1804" d="M39 840l10 102l297 23l31 -152v-459q0 -225 188 -225q145 0 230 129q-6 51 -7 109v446l-149 27l10 102l295 23l31 -152v-455q0 -100 43 -164.5t135 -64.5q76 0 137.5 44t95.5 108v532l-155 27l10 102l305 23l29 -152v-684h145l-14 -360l-135 -15l-31 246h-121l-22 143 h-15l-116 -135q-70 -27 -164 -26q-217 0 -275 163h-12l-119 -137q-76 -27 -168 -26q-340 0 -340 348v483z" />
<glyph unicode="&#x44a;" horiz-adv-x="1314" d="M51 942h686l-10 -102l-139 -27v-188h198q430 0 431 -314q0 -158 -115 -235q-115 -76 -316 -76h-536l10 102l139 27v690h-172l-30 -221l-131 -14zM588 129h131q174 0 262 25q37 68 37 149q0 100 -69.5 146.5t-217.5 46.5h-143v-367z" />
<glyph unicode="&#x44b;" horiz-adv-x="1632" d="M76 0l10 102l139 27v684l-149 27l10 102h479l-10 -102l-139 -27v-188h209q172 0 277.5 -75t105.5 -237q0 -158 -113 -237q-113 -76 -317 -76h-502zM416 129h94q176 0 264 25q37 68 37 151q0 98 -58.5 144.5t-181.5 46.5h-155v-367zM1077 840l10 102h480l-11 -102 l-139 -27v-684l150 -27l-11 -102h-475l11 102l135 27v684z" />
<glyph unicode="&#x44c;" horiz-adv-x="1146" d="M76 0l10 102l139 27v684l-149 27l10 102h479l-10 -102l-139 -27v-188h200q430 0 431 -314q0 -158 -115 -235q-111 -76 -316 -76h-540zM416 129h133q176 0 262 25q39 72 39 149q0 100 -69.5 146.5t-217.5 46.5h-147v-367z" />
<glyph unicode="&#x44d;" horiz-adv-x="1028" d="M98 881q156 84 351 84q217 0 350 -122t133 -356q0 -238 -131 -374t-334 -136q-213 0 -358 89l34 127l439 -99q137 98 151 326l-375 -19l11 131h366q-8 150 -85 226t-201 76q-106 0 -179 -31l-30 -215l-131 -15z" />
<glyph unicode="&#x44e;" horiz-adv-x="1667" d="M96 0l10 102l140 27v1122l-150 27l10 102l300 23l28 -152v-712h209q23 233 168 342q115 84 283 84q221 0 348 -133.5t127 -360.5q0 -279 -176 -410q-115 -84 -285 -84q-203 0 -326 116t-137 323h-211v-287l144 -27l-11 -102h-471zM834 475q0 -186 82.5 -276t193.5 -90 q94 0 182 47q76 125 76 307q0 190 -82 279t-190 89q-100 0 -185 -45q-77 -123 -77 -311z" />
<glyph unicode="&#x44f;" horiz-adv-x="1150" d="M61 0l11 102l137 27q90 102 160 238q-254 45 -254 276q0 299 430 299h538l-10 -102l-139 -27v-684l149 -27l-10 -102h-469l10 102l131 27v684h-153q-160 0 -244 -25q-37 -63 -37 -133q0 -180 240 -180h113l-11 -104l-92 -15q-92 -190 -229 -356h-271z" />
<glyph unicode="&#x450;" horiz-adv-x="1077" d="M98 473q0 272 178 404q117 88 293 88q193 0 305.5 -106.5t112.5 -283.5q1 -71 -22 -145l-672 -2q8 -152 97 -227.5t224 -75.5q168 0 283 96l53 -63q-115 -180 -379 -181q-225 0 -349 136.5t-124 359.5zM244 1397l133 131l268 -322l-80 -80zM293 545h528q-4 137 -71.5 216 t-186.5 79q-109 0 -194 -45q-66 -96 -76 -250z" />
<glyph unicode="&#x451;" horiz-adv-x="1077" d="M98 473q0 272 178 404q117 88 293 88q193 0 305.5 -106.5t112.5 -283.5q1 -71 -22 -145l-672 -2q8 -152 97 -227.5t224 -75.5q168 0 283 96l53 -63q-115 -180 -379 -181q-225 0 -349 136.5t-124 359.5zM293 545h528q-4 137 -71.5 216t-186.5 79q-109 0 -194 -45 q-66 -96 -76 -250zM330 1126v203l174 12v-202zM627 1126v203l172 12v-202z" />
<glyph unicode="&#x452;" horiz-adv-x="1163" d="M76 0l10 102l139 27v901h-149l10 103h139v129l-149 22l10 96l307 23l23 -117v-153h282l-10 -103h-272v-297h12l117 144q68 29 160 28q338 0 337 -350v-199q0 -174 -87 -265t-222 -91h-74l11 109q80 0 132 59t52 174v180q0 229 -203 230q-150 0 -235 -152v-471l135 -27 l-10 -102h-465z" />
<glyph unicode="&#x453;" horiz-adv-x="1052" d="M104 258q0 203 273 264l360 80q20 43 21 96q0 135 -217 136q-111 0 -213 -33l-19 -152l-143 -14l-25 254q176 76 391 76q414 0 414 -267q0 -113 -73.5 -174t-210.5 -92l-336 -76q-27 -39 -27 -88q0 -70 65.5 -112.5t170.5 -42.5q127 0 215 34l20 170l143 15l25 -266 q-66 -39 -178.5 -64t-229.5 -25q-195 0 -310.5 71t-115.5 210zM453 1206l268 322l133 -131l-322 -271z" />
<glyph unicode="&#x454;" horiz-adv-x="1048" d="M98 473q0 285 195 414q119 78 291 78q197 0 352 -80l-14 -305l-134 -13l-30 230q-68 33 -183 32q-123 0 -213 -45q-70 -104 -75 -258l372 21l15 -131h-381q18 -139 104 -218t209 -79q76 0 159 26.5t138 71.5l53 -65q-106 -174 -378 -175q-221 0 -350.5 135.5 t-129.5 360.5z" />
<glyph unicode="&#x455;" horiz-adv-x="1054" d="M98 690q0 150 127 219q104 55 291 56q193 0 387 -76l-26 -234l-142 -12l-22 164q-90 31 -211 31q-94 0 -176 -17q-45 -55 -45 -112q0 -72 63.5 -98.5t216.5 -51.5q78 -12 126 -22.5t109.5 -33t95.5 -51t58.5 -76.5t24.5 -110q0 -141 -121 -217q-111 -72 -322 -72 q-233 0 -421 82l26 250l144 15l20 -183q92 -37 240 -37q98 0 196 25q43 53 43 115q0 72 -58 101.5t-200 55.5q-94 18 -136 27.5t-110.5 33t-98.5 50.5t-54.5 72t-24.5 106z" />
<glyph unicode="&#x456;" horiz-adv-x="636" d="M88 0l10 102l140 27v684l-150 27l10 102l297 23l31 -152v-684l149 -27l-10 -102h-477zM221 1106v221l201 16v-223z" />
<glyph unicode="&#x457;" horiz-adv-x="641" d="M84 1126v203l164 12v-202zM92 0l10 102l140 27v684l-150 27l10 102l297 23l31 -152v-684l150 -27l-11 -102h-477zM334 1126v203l166 12v-202z" />
<glyph unicode="&#x458;" horiz-adv-x="589" d="M63 -365l9 107q94 37 137 86q29 90 29 293v692l-150 27l10 102l295 23l35 -174v-648q0 -270 -76 -381q-72 -102 -264 -149zM211 1106v221l203 16v-223z" />
<glyph unicode="&#x459;" horiz-adv-x="1714" d="M31 0l10 102l123 27l469 684l-137 27l10 102h635l-11 -102l-126 -27v-264h229q88 0 152.5 -11.5t122 -39t87 -80.5t29.5 -133q0 -285 -416 -285h-391v784h-12l-447 -655l158 -27l-10 -102h-475zM1004 129h139q168 0 254 27q35 59 35 120q0 84 -58.5 115t-199.5 31h-170 v-293z" />
<glyph unicode="&#x45a;" horiz-adv-x="1732" d="M76 0l10 102l139 27v684l-149 27l10 102l299 23l31 -152v-264h420v264l-148 27l10 102h478l-11 -102l-139 -27v-264h227q184 0 286.5 -56.5t102.5 -207.5q0 -285 -415 -285h-391v426h-420v-297l155 -27l-10 -102h-485zM1026 129h133q172 0 258 27q35 53 35 120 q0 84 -57.5 115t-198.5 31h-170v-293z" />
<glyph unicode="&#x45b;" horiz-adv-x="1253" d="M76 0l10 102l139 27v901h-149l10 103h139v129l-149 22l10 96l307 23l23 -117v-153h282l-10 -103h-272v-297h12l117 144q68 29 160 28q338 0 337 -362v-414l150 -27l-10 -102h-328v510q0 242 -203 242q-150 0 -235 -152v-471l155 -27l-10 -102h-485z" />
<glyph unicode="&#x45c;" horiz-adv-x="1204" d="M61 0l11 102l139 27v1122l-150 27l11 102l305 23l24 -117v-1157l142 -27l-11 -102h-471zM483 430l11 94l286 291l-137 27l10 100h473l-10 -102l-123 -27l-323 -326q158 -203 344 -360l133 -25l-10 -102h-258q-225 190 -396 430zM584 1206l268 322l133 -131l-321 -271z " />
<glyph unicode="&#x45d;" d="M39 840l10 102l297 23l31 -152v-446q0 -238 192 -238q152 0 244 152v532l-158 27l11 102l305 23l30 -152v-684l150 -27l-10 -102h-297l-23 143h-14l-123 -137q-74 -25 -164 -24q-176 0 -254 97t-78 255v479zM256 1397l133 131l268 -322l-79 -80z" />
<glyph unicode="&#x45e;" horiz-adv-x="1136" d="M25 840l10 102h274l285 -799h14l266 670l-178 27l11 102h352l10 -102l-377 -910q-66 -162 -152.5 -239.5t-222.5 -77.5q-74 0 -127 20l15 115q139 0 213 27q55 78 112 215l-6 10h-73l-293 813zM238 1360l159 12q23 -59 72 -91t106.5 -32t103.5 32t66 91l109 -12 q-27 -113 -112 -173.5t-193 -60.5q-111 0 -199 60.5t-112 173.5z" />
<glyph unicode="&#x45f;" d="M39 840l10 102l297 23l31 -152v-446q0 -238 192 -238q152 0 244 152v532l-158 27l11 102l305 23l30 -152v-684l150 -27l-10 -102h-297l-23 143h-14l-213 -229l8 -12q61 -10 100 -52.5t39 -109.5q0 -90 -73.5 -147.5t-188.5 -57.5l-63 14l10 76q166 0 166 111 q0 90 -129 90l-31 45l105 111l-9 12l-51 -17q-289 37 -289 357v479z" />
<glyph unicode="&#x490;" horiz-adv-x="1198" d="M76 1268l10 112h844l35 211l141 15l16 -367h-655v-1098l231 -28l-10 -113h-604l10 113l162 28v1098z" />
<glyph unicode="&#x491;" horiz-adv-x="1046" d="M104 252q0 205 265 266l360 80q41 104 -8 166.5t-160 62.5q-96 0 -172 -49t-100 -137l-131 -14l-23 323l180 15l-10 -125l10 -6q37 63 119 97t182 34q139 0 231.5 -67t92.5 -198q0 -113 -70.5 -174t-214.5 -94l-338 -76q-49 -104 14.5 -173.5t194.5 -69.5q125 0 217 34 l21 170l143 15l23 -266q-147 -88 -410 -89q-188 0 -302 70t-114 205z" />
<glyph unicode="&#x2000;" horiz-adv-x="958" />
<glyph unicode="&#x2001;" horiz-adv-x="1917" />
<glyph unicode="&#x2002;" horiz-adv-x="958" />
<glyph unicode="&#x2003;" horiz-adv-x="1917" />
<glyph unicode="&#x2004;" horiz-adv-x="639" />
<glyph unicode="&#x2005;" horiz-adv-x="479" />
<glyph unicode="&#x2006;" horiz-adv-x="319" />
<glyph unicode="&#x2007;" horiz-adv-x="319" />
<glyph unicode="&#x2008;" horiz-adv-x="239" />
<glyph unicode="&#x2009;" horiz-adv-x="383" />
<glyph unicode="&#x200a;" horiz-adv-x="106" />
<glyph unicode="&#x2010;" horiz-adv-x="952" d="M125 594l80 141h483l119 23l20 -27l-79 -143h-484l-119 -23z" />
<glyph unicode="&#x2011;" horiz-adv-x="952" d="M125 594l80 141h483l119 23l20 -27l-79 -143h-484l-119 -23z" />
<glyph unicode="&#x2012;" horiz-adv-x="952" d="M125 594l80 141h483l119 23l20 -27l-79 -143h-484l-119 -23z" />
<glyph unicode="&#x2013;" horiz-adv-x="1124" d="M125 594l80 141h655l119 23l18 -27l-79 -143h-654l-119 -23z" />
<glyph unicode="&#x2014;" horiz-adv-x="1642" d="M125 598l80 137h1175l117 23l21 -27l-80 -139h-1174l-119 -25z" />
<glyph unicode="&#x2018;" horiz-adv-x="425" d="M213 1139q0 94 53 169.5t121 102.5l31 -43q-63 -59 -64 -135q0 -72 52 -92l-13 -129h-147q-33 47 -33 127z" />
<glyph unicode="&#x2019;" horiz-adv-x="423" d="M135 1024q63 59 64 135q0 72 -52 92l13 129h147q33 -47 33 -127q0 -94 -53.5 -169.5t-120.5 -102.5z" />
<glyph unicode="&#x201a;" horiz-adv-x="423" d="M135 -227q63 59 64 135q0 72 -52 92l13 129h147q33 -47 33 -127q0 -94 -53.5 -170t-120.5 -102z" />
<glyph unicode="&#x201c;" horiz-adv-x="718" d="M133 1163q0 94 53.5 170t120.5 103l31 -43q-63 -59 -64 -136q0 -72 52 -92l-13 -129h-147q-33 47 -33 127zM428 1163q0 94 53.5 170t120.5 103l31 -43q-63 -59 -64 -136q0 -72 52 -92l-13 -129h-147q-33 47 -33 127z" />
<glyph unicode="&#x201d;" horiz-adv-x="718" d="M135 1024q63 59 64 135q0 72 -52 92l13 129h147q33 -47 33 -127q0 -94 -53.5 -169.5t-120.5 -102.5zM430 1024q63 59 64 135q0 72 -52 92l13 129h147q33 -47 33 -127q0 -94 -53.5 -169.5t-120.5 -102.5z" />
<glyph unicode="&#x201e;" horiz-adv-x="718" d="M135 -227q63 59 64 135q0 72 -52 92l13 129h147q33 -47 33 -127q0 -94 -53.5 -170t-120.5 -102zM430 -227q63 59 64 135q0 72 -52 92l13 129h147q33 -47 33 -127q0 -94 -53.5 -170t-120.5 -102z" />
<glyph unicode="&#x2026;" horiz-adv-x="1241" d="M92 0l14 207h213l-14 -207h-213zM489 0l15 207h213l-15 -207h-213zM889 0l14 207h213l-14 -207h-213z" />
<glyph unicode="&#x202f;" horiz-adv-x="383" />
<glyph unicode="&#x2039;" horiz-adv-x="649" d="M174 401v82l320 348l77 -57l-217 -323v-15l217 -323l-75 -60z" />
<glyph unicode="&#x203a;" horiz-adv-x="649" d="M78 113l217 323v15l-217 323l78 57l319 -348v-82l-321 -348z" />
<glyph unicode="&#x205f;" horiz-adv-x="479" />
<glyph unicode="&#x20ac;" horiz-adv-x="1187" d="M51 412l19 123h104v116h-123l19 123h110q31 221 174.5 352t378.5 131q180 0 338 -73l-41 -281h-135v193q-80 27 -180 26q-119 0 -228 -49q-100 -125 -122 -299h647l-19 -123h-635v-116h617l-19 -123h-579q29 -135 125 -219t235 -84q182 0 299 104l64 -86 q-129 -150 -387 -150q-213 0 -354.5 123t-174.5 312h-133z" />
<glyph unicode="&#x2122;" horiz-adv-x="1693" d="M76 1380h579l-10 -213l-84 -8l-16 135h-119v-456l96 -15l-6 -71h-307l6 71l90 15v456h-121l-16 -127l-82 -8zM752 752l6 71l71 15v456l-77 17l6 69h258l145 -444l15 -66h12l16 66l152 444h260l-6 -69l-72 -17v-456l76 -15l-6 -71h-269l7 67l75 17v305l6 104h-12 l-162 -493h-151l-158 493h-12l6 -104v-305l82 -15l-8 -69h-260z" />
<glyph unicode="&#x25fc;" horiz-adv-x="942" d="M0 0v942h942v-942h-942z" />
</font>
</defs>
</svg>
