<?xml version="1.0" standalone="no"?>
<!DOCTYPE svg PUBLIC "-//W3C//DTD SVG 1.1//EN" "http://www.w3.org/Graphics/SVG/1.1/DTD/svg11.dtd" >
<svg xmlns="http://www.w3.org/2000/svg">
<metadata></metadata>
<defs>
<font id="parsekcttregular" horiz-adv-x="937" >
<font-face units-per-em="2048" ascent="1638" descent="-410" />
<missing-glyph horiz-adv-x="718" />
<glyph unicode="&#xd;" horiz-adv-x="718" />
<glyph unicode=" "  horiz-adv-x="718" />
<glyph unicode="&#x09;" horiz-adv-x="718" />
<glyph unicode="&#xa0;" horiz-adv-x="718" />
<glyph unicode="!" horiz-adv-x="901" d="M115 41q0 39 34.5 104.5t63.5 65.5q33 0 71 -34t38 -60q0 -33 -33 -99.5t-60 -66.5q-31 0 -72.5 28.5t-41.5 61.5zM223 449q0 106 183 391q149 233 292 401q27 29 45 43q29 20 64 21q31 0 73 -27t42 -49q0 -16 -127 -180q-117 -152 -238 -332q-70 -104 -145 -281 q-49 -115 -86 -114q-37 0 -70 36.5t-33 90.5z" />
<glyph unicode="&#x22;" horiz-adv-x="716" d="M201 1016l26 276q14 160 88 226q49 45 123 45q43 0 70 -19.5t27 -60.5q0 -43 -25 -101q-16 -39 -47 -90l-162 -276h-100zM610 1016l27 276q8 90 37 152q55 119 174 119q45 0 71.5 -22.5t26.5 -57.5q0 -31 -8 -58q-16 -53 -64 -133l-163 -276h-101z" />
<glyph unicode="#" horiz-adv-x="1433" d="M307 410l31 172h231l66 366h-232l31 172h232l61 342h125l-61 -342h278l59 342h125l-61 -342h233l-30 -172h-234l-65 -366h233l-31 -172h-233l-59 -342h-125l61 342h-278l-62 -342h-123l60 342h-232zM694 582h279l65 366h-278z" />
<glyph unicode="$" horiz-adv-x="1730" d="M229 381v22q0 39 48.5 105.5t80.5 66.5q68 0 83.5 -30.5t103.5 -38.5l121 256q-39 0 -78 12q-127 39 -127 146q0 117 80 206q119 135 389 189q53 121 55 123q31 51 82 51q45 0 74 -12l-68 -142l113 4l41 2q23 49 45 95.5t78 46.5h36t41 -6l-71 -150q82 0 142.5 -38 t60.5 -83q0 -59 -41 -106q-66 -76 -209 -76q14 18 14 41q0 12 -26.5 19.5t-51.5 7.5l-100 -211q68 -25 110 -68q74 -72 74 -178q0 -123 -131 -238q-139 -123 -362 -174l-117 -246q-37 -4 -65.5 13.5t-28.5 40.5q0 25 6 45q14 49 63 139h-65q-49 0 -82 10l-109 -225 q-39 -4 -66.5 11.5t-27.5 45.5q0 35 76 187q-119 14 -162 59q-29 29 -29 78zM627 985q0 -23 40 -38t81 -11l71 149q-88 -12 -140 -37.5t-52 -62.5zM674 492l63 -5l84 -2l121 254l-65 4l-82 9zM879 924l143 -15l92 195l-67 2l-84 -6zM963 494q78 29 98 38q84 43 84 93 q0 37 -18.5 66.5t-55.5 29.5z" />
<glyph unicode="%" horiz-adv-x="1798" d="M172 1079q0 133 191.5 283.5t353.5 150.5q43 0 75.5 -24.5t32.5 -44.5q0 -12 -4 -23q-10 -24 -10 -26q43 -20 53 -62q2 -8 2 -24q0 -23 -2 -33q-8 -53 -26 -98q-27 -66 -84 -144q-4 -10 -6.5 -12t-2.5 -4q0 -14 13.5 -27.5t34.5 -13.5q25 0 55.5 15.5t36.5 15.5 q23 0 22 -17q0 -29 -74.5 -65.5t-142.5 -36.5l-41 2q-55 -57 -126.5 -90t-153.5 -33q-106 0 -158 115q-39 86 -39 196zM305 985q0 -39 14 -61q23 -35 80 -35q43 0 87 15t114 52q-16 37 -16 68q0 29 10 64.5t24.5 70.5t47.5 96q25 47 24 62q0 14 -20 14q-80 0 -217 -114 q-147 -125 -148 -232zM317 -197q-6 14 19 45l1200 1661q16 20 25 21q8 0 16 -14l37 -97q2 -8 -5.5 -21.5t-15.5 -25.5l-1204 -1659q-2 -4 -7 -8t-13 -10q-14 0 -21 16zM891 -68q0 133 191.5 284t355.5 151q41 0 73.5 -26t32.5 -44q0 -12 -4 -23q-10 -24 -10 -26 q41 -16 51 -55q4 -14 4 -64q0 -43 -25.5 -100.5t-86.5 -141.5q-4 -10 -6.5 -12t-2.5 -4q0 -41 49 -41q27 0 53.5 15.5t37.5 15.5q23 0 22 -17q0 -29 -70.5 -65.5t-146.5 -36.5l-41 2q-74 -74 -158 -104q-57 -20 -123 -21q-100 0 -153 113q-43 90 -43 200zM1026 -162 q0 -41 12 -61q23 -35 80 -35q39 0 87 15.5t114 52.5q-16 37 -16 67q0 70 65 195q20 37 30.5 60.5t10.5 37.5t-20 14q-86 0 -220 -114q-143 -123 -143 -232z" />
<glyph unicode="&#x26;" horiz-adv-x="1476" d="M139 311q0 113 88 217q104 125 369 263q-4 20 -4 42.5v34.5q0 238 196 394q166 131 334 131q80 0 141.5 -53.5t69.5 -118.5v-39q-16 -117 -192 -232q-57 -37 -307 -164q27 -166 102 -309q96 63 158 119q47 43 141 141q29 -35 29 -78q0 -102 -111 -239q-53 -63 -104 -125 q10 -20 26 -37q25 -25 47 -25q8 0 30 7.5t32 7.5l8 -8q4 -6 0 -23q-12 -55 -75.5 -136t-96.5 -81q-29 0 -82 55q-45 47 -74 90q-113 -92 -192 -135q-109 -57 -207 -57q-135 0 -230.5 116.5t-95.5 241.5zM322 315q0 -37 20 -53t59 -16q90 0 160 22.5t176 79.5 q-33 55 -64.5 141t-43.5 164q-147 -90 -232 -188q-76 -88 -75 -150zM813 940q88 49 186 129q129 104 152 166q6 12 6 31q0 10 -6 20q-14 25 -47 25q-90 0 -176 -97q-101 -112 -115 -274z" />
<glyph unicode="'" horiz-adv-x="327" d="M201 1016l28 276q16 160 95 226q53 45 131 45q51 0 76.5 -23.5t25.5 -56.5q0 -37 -15.5 -77t-60.5 -114l-172 -276h-108z" />
<glyph unicode="(" horiz-adv-x="948" d="M229 307q0 285 117 584q98 252 252 448q141 180 225 181q45 0 102.5 -42t96.5 -108q-291 -236 -467 -670q-168 -414 -168 -833l6 -150l-94 -55q-29 100 -49.5 297t-20.5 348z" />
<glyph unicode=")" horiz-adv-x="948" d="M29 -188q293 240 469 669q168 410 168 834l-7 149l93 45q29 -88 49 -177t20 -179v-279q0 -285 -114 -583q-98 -258 -248 -449q-141 -180 -232 -180q-45 0 -104.5 48t-93.5 102z" />
<glyph unicode="*" horiz-adv-x="1245" d="M307 1098l2 10l51 125q6 14 12.5 18t45.5 4l211 19l-119 227q-2 6 -4 8q-8 12 -8 25q0 18 12 31l78 49q12 6 28.5 2t26.5 -21l143 -266l162 246q4 8 12.5 18.5t24.5 12.5h14l27 -11l51 -41l13 -12v-16q-8 -16 -13 -25l-141 -227l264 -19q14 0 29.5 -6t15.5 -28 q0 -16 -4 -21l-65 -70q-20 -20 -31 -20l-17 2h-18l-215 18l147 -280l15 -37v-18q-4 -16 -15 -23l-63 -39q-10 -8 -25 -8q-27 0 -39 25l-153 276l-150 -254q-8 -16 -17 -30.5t-22 -14.5q-20 2 -24 6l-76 55q-10 14 -10 23v16l6 13l4 10l170 262l-283 -18q-23 -2 -34 -2 q-18 0 -19 6z" />
<glyph unicode="+" horiz-adv-x="1576" d="M143 573v115h574v574h114v-574h574v-115h-574v-573h-114v573h-574z" />
<glyph unicode="," horiz-adv-x="483" d="M113 -162q0 35 28.5 53.5t28.5 67.5q0 25 -20.5 47t-20.5 51q0 61 56.5 132t105.5 71q31 0 40 -18.5t9 -48.5v-23q0 -68 -86 -206t-127 -138z" />
<glyph unicode="-" horiz-adv-x="1208" d="M258 326q0 -18 33 -19h524q39 0 47 15l56 88q8 14 1.5 25t-30.5 11h-524h-15q-20 0 -33 -16l-53 -86q-6 -10 -6 -18z" />
<glyph unicode="." horiz-adv-x="505" d="M143 37q0 63 60.5 145t107.5 82q18 0 31 -12q20 -20 20 -64q0 -68 -59 -141.5t-108 -73.5q-10 0 -23 7q-29 16 -29 57z" />
<glyph unicode="/" horiz-adv-x="1642" d="M172 -246q-2 10 1 16.5t20 30.5l1198 1659q12 16 24 21h8l11 -13l34 -98q5 -14 -18 -45l-1204 -1659q-14 -18 -23 -18q-18 6 -20 14z" />
<glyph unicode="0" horiz-adv-x="1140" d="M29 360q0 229 164 457q143 201 359 335t378 134q10 0 22 -4t35 -18q55 -35 100 -109q53 -86 54 -180q0 -324 -277.5 -670t-523.5 -346q-115 0 -205 98q-106 115 -106 303zM211 281q0 -70 23.5 -119t76.5 -49q135 0 307 182q150 158 269 381t119 338q0 61 -56 61 q-33 0 -90 -27.5t-90 -54.5l-27 19q-225 -88 -383 -316q-150 -215 -149 -415z" />
<glyph unicode="1" horiz-adv-x="800" d="M29 213q0 125 100 314.5t285 418.5q53 66 79.5 102.5t26.5 53.5q0 16 -26 16q-25 0 -105 -31q-60 -22 -117 -45v72q45 31 201 117q186 102 219 102t56.5 -40t23.5 -79q0 -35 -43 -110q-135 -217 -250 -416q-133 -229 -182 -340q-70 -156 -70 -264v-38.5t4 -45.5 q-117 10 -165 78q-37 49 -37 135z" />
<glyph unicode="2" horiz-adv-x="1273" d="M0 227q0 78 106 181q147 141 469 301q229 113 297 155q170 106 170 189q0 23 -12 34q-20 20 -72 21q-117 0 -296 -51t-232 -113q74 -18 108 -38.5t48 -49.5q-98 0 -158 -12q-147 -31 -152 -31q-43 0 -43 61q0 76 37 158q47 104 129 158q96 61 250 100t266 39 q156 0 203 -80q41 -72 41 -225q0 -113 -80 -205q-66 -76 -209 -162q-53 -31 -288 -155q-399 -211 -400 -264q0 -25 11.5 -29t37.5 -4q244 0 408 33q127 39 256 77q14 -12 14 -16v-14q-33 -166 -184 -240q-131 -63 -365 -63q-188 0 -262 38q-98 51 -98 207z" />
<glyph unicode="3" horiz-adv-x="1302" d="M-115 113q0 53 46 121.5t124 97.5q10 -76 90 -107q49 -18 125 -18h23q205 0 370.5 90t165.5 186q0 63 -79.5 100.5t-208.5 37.5q-90 0 -169 -11.5t-118 -11.5q-25 0 -32 7t-7 42q0 158 135 191q131 20 221 34q293 49 422 121q100 55 101 117q0 66 -100.5 75t-176.5 9 q-190 0 -278 -33q-66 -25 -66 -57q0 -12 32 -28.5t44 -26.5l-217 -19q-82 25 -82 82q0 96 141 166q178 88 506 88q209 0 279 -90q41 -53 41 -166q0 -147 -115 -217t-422 -113q-47 -6 -92 -10q-47 -8 -47 -27q0 -18 31.5 -20t66.5 -2q131 -12 223 -74q109 -72 109 -178 q0 -193 -228.5 -343.5t-519.5 -150.5q-139 0 -238.5 41t-99.5 97z" />
<glyph unicode="4" horiz-adv-x="1222" d="M0 530v52q20 137 268 348q221 188 465 317q104 57 168 84q123 53 184 53q31 0 31 -43q0 -37 -22 -57q25 -20 34 -47t9 -53q0 -47 -50 -113q-199 -260 -303 -457l197 19l25 2q8 0 12 -5t6 -7q0 -27 -49 -99.5t-78 -99.5q-51 -12 -82 -17.5t-133 -17.5q-12 -39 -18.5 -89 t-6.5 -95q0 -16 5.5 -31.5t15.5 -38.5q-45 -51 -86 -84q-61 -51 -94 -51q-27 0 -44.5 45t-17.5 127q0 51 9.5 99t27.5 100q-29 0 -129 -5.5t-213 -5.5q-63 0 -82 19q-33 33 -49 151zM211 612q0 -18 17.5 -23t37.5 -5l74 4l207 8q84 139 164 244q55 74 147 180 q123 143 205 244q-82 -20 -176 -68q-152 -76 -320 -207q-88 -70 -211 -192q-145 -145 -145 -185z" />
<glyph unicode="5" horiz-adv-x="1136" d="M-86 152q0 76 113.5 146.5t191.5 70.5q16 0 21 -21q0 -31 -70 -45t-70 -41q0 -12 16.5 -22.5t33 -13.5t32.5 -3q20 0 31 2q215 20 422 172q190 139 190 234q0 35 -37 57q-49 31 -145 31q-63 0 -132 -10.5t-128 -32.5q-39 -14 -60.5 -20.5t-54.5 -6.5q-29 0 -40 13.5 t-25 66.5l-33 133q49 127 174 268q92 104 221 207l156 -2h100q117 0 170 3t146 20q-18 -55 -41 -96q-45 -78 -127 -156h-445q-63 -41 -114 -107q-61 -78 -62 -139q63 16 148.5 27.5t156.5 11.5q172 0 240 -111q45 -74 45 -190q0 -238 -281 -436q-272 -193 -573 -193 q-88 0 -125 33q-45 39 -45 150z" />
<glyph unicode="6" horiz-adv-x="1097" d="M29 377q0 133 65 274q86 186 283 379q109 106 246 197q170 111 268 110q49 0 85.5 -8t63.5 -20q-109 -57 -217 -131q-137 -92 -241 -193q-127 -123 -189 -240q51 39 131 76q102 47 168 47q72 0 131.5 -79.5t59.5 -161.5q0 -166 -192.5 -396.5t-346.5 -230.5 q-111 0 -213 123t-102 254zM238 326q0 -63 14 -106.5t47 -43.5q59 0 115 41q68 49 151.5 154.5t120.5 197.5q27 68 27 121q0 66 -68 66q-82 0 -219 -119q-127 -108 -168 -188q-10 -33 -15 -70t-5 -53z" />
<glyph unicode="7" horiz-adv-x="1011" d="M115 41q0 180 164 391q37 47 323 346q190 199 227 322v20q-6 10 -25.5 14.5t-76.5 4.5q-254 0 -383 -41q-92 -47 -182 -94q-18 0 -19 34q0 145 115 224q98 66 291 90q133 16 381 16q90 0 121 -22q47 -35 47 -146v-41q-223 -223 -279 -280q-78 -78 -135 -160 q-100 -139 -176 -285q-88 -166 -88 -241q0 -47 6 -70t35 -31q-35 -35 -138.5 -96.5t-140.5 -61.5q-25 0 -46 33t-21 74z" />
<glyph unicode="8" horiz-adv-x="1085" d="M29 188q0 158 377 514q-59 74 -99 148q-63 117 -63 207t49 168q70 113 223 176q195 82 506 82q84 0 108 -4q70 -12 70 -49q0 -57 -47 -127q-53 -80 -117 -86l4 -27q0 -57 -145 -197q-168 -160 -260 -252q41 -68 66.5 -132t25.5 -130q0 -215 -139 -352 q-129 -127 -299 -127q-113 0 -186.5 60.5t-73.5 127.5zM188 215q0 -35 22.5 -48t65.5 -13q94 0 170 86t76 194q0 39 -13 71.5t-42 65.5q-88 -78 -172 -178q-106 -127 -107 -178zM457 1061q0 -55 14 -94q22 -64 88 -138q248 213 334 295q59 55 59 66q0 39 -186 39 q-156 0 -240 -55q-70 -47 -69 -113z" />
<glyph unicode="9" horiz-adv-x="1038" d="M57 819q0 158 291 387.5t504 229.5q51 0 102.5 -51.5t83.5 -120.5q4 -29 -9 -55.5t-50 -65.5q-27 -27 -90 -72q-43 -31 -55 -31l-11 9q0 6 6 14l29 29q61 61 62 96q0 6 -12.5 8t-26.5 2q-33 0 -78 -14q-84 -27 -218 -102.5t-220 -163.5q-106 -109 -107 -207 q0 -39 18.5 -51.5t67.5 -12.5q100 0 283 127q170 133 178 139l108 93q18 16 52 16q16 0 37.5 -7t21.5 -18q2 -29 2 -36q0 -8 -10 -25l-608 -842q-25 -35 -97.5 -83t-99.5 -48t-27 23q0 20 32 95t52 87q23 8 33 10q23 8 41 29l14 24l15 19l366 504q-150 -119 -176 -138 q-160 -117 -242 -116q-88 0 -175 116.5t-87 202.5z" />
<glyph unicode=":" horiz-adv-x="598" d="M115 37q0 61 60.5 144t109.5 83q25 0 38 -21.5t13 -54.5q0 -68 -59.5 -141.5t-108.5 -73.5q-29 0 -41 20.5t-12 43.5zM264 582q0 55 56.5 141t111.5 86q18 0 31 -12q20 -20 20 -64q0 -57 -57 -136t-111 -79q-16 0 -30 12q-21 19 -21 52z" />
<glyph unicode=";" horiz-adv-x="595" d="M115 -162q0 35 28.5 53.5t28.5 67.5q0 25 -20.5 47t-20.5 51q0 45 49 119q57 84 113 84q31 0 40 -18.5t9 -48.5v-23q0 -68 -86 -206t-127 -138zM262 582q0 55 56.5 141t111.5 86q18 0 31 -12q20 -20 20 -64q0 -57 -57 -136t-111 -79q-16 0 -30 12q-21 19 -21 52z" />
<glyph unicode="&#x3c;" horiz-adv-x="1484" d="M143 631l1108 700l62 -96l-942 -604l940 -604l-60 -99z" />
<glyph unicode="=" horiz-adv-x="1634" d="M143 416v114h1319v-114h-1319zM143 731v115h1319v-115h-1319z" />
<glyph unicode="&#x3e;" horiz-adv-x="1484" d="M172 1235l61 96l1108 -700l-1108 -703l-59 99l942 604z" />
<glyph unicode="?" horiz-adv-x="870" d="M205 41q0 39 34.5 104.5t63.5 65.5q33 0 70 -33t37 -61q0 -33 -33 -99.5t-60 -66.5q-41 0 -84 39q-29 27 -28 51zM274 1145q0 94 70 162q109 106 352 106q193 0 269 -67q49 -45 49 -123q0 -121 -70 -234q-49 -80 -178 -213q-186 -193 -229 -241q-27 -29 -51.5 -121 t-59.5 -92q-41 0 -76 60t-35 107q0 70 97 162q23 20 184 152q307 244 307 274q0 55 -62.5 91t-142.5 36q-119 0 -189.5 -13t-70.5 -48q0 -23 34 -27t34 -33q0 -12 -25 -12q-94 0 -131 8q-76 16 -76 66z" />
<glyph unicode="@" horiz-adv-x="1773" d="M205 739q0 334 221 570q233 248 588 247q315 0 518 -176q213 -186 213 -495q0 -207 -98 -363q-115 -180 -310 -180q-139 0 -211 74q-49 51 -63 129h-8q-76 -92 -151 -135t-152 -43q-106 0 -180 87t-74 232q0 197 157.5 365t348.5 168q125 0 200 -82l23 63h231l-170 -590 q-14 -47 -14 -78q0 -35 19.5 -64.5t64.5 -29.5q94 0 178 97q109 125 109 348q0 262 -185 422q-176 152 -444 151q-305 0 -495.5 -204.5t-190.5 -512.5q0 -281 182 -461t459 -180q119 0 176 8q102 14 225 66l27 -94q-74 -35 -160 -53q-119 -27 -268 -27q-352 0 -570 233 q-197 211 -196 508zM743 684q0 -82 30 -120t75 -38q96 0 194 138q109 150 109 325q0 70 -16 103q-23 43 -80 43q-123 0 -224 -172q-88 -152 -88 -279z" />
<glyph unicode="A" horiz-adv-x="1447" d="M-156 -90q0 49 78 157.5t148 165.5h88l254 273l-166 -19q-14 -4 -25.5 -5t-46.5 -1q-47 0 -47 35q0 25 60.5 107t91 105.5t75.5 35.5q61 18 154 18l4 -51l109 10q158 180 417 408q303 264 488 356q31 -18 42 -43.5t11 -58.5q0 -35 -2 -46t-10 -28l-273 -534l127 14 q20 2 27 2q10 0 16 -6t6 -21q0 -27 -19 -82t-46 -105t-57.5 -65.5t-87.5 -15.5h-39t-43 2q-78 -154 -103.5 -208t-25.5 -74q0 -16 11 -25.5t23 -9.5q41 0 98.5 63.5t94.5 63.5q20 0 20 -13q0 -16 -59 -84q-41 -47 -80 -86q-90 -86 -110 -100q-61 -45 -125 -45q-96 0 -119 72 q-6 18 -6 41q0 27 6 51q14 72 67 170l101 184l-424 -4l-455 -481q-29 -29 -106.5 -79t-110.5 -58q-9 -2 -15 -2t-10 2zM752 750l329 30l271 516q-164 -119 -310 -247q-174 -156 -290 -299z" />
<glyph unicode="B" horiz-adv-x="1505" d="M217 1024q0 78 105 188q96 102 188 146q127 59 343 92t407 33q215 0 323 -103q82 -78 82 -180q0 -141 -154 -237q-123 -78 -358 -136q-61 -14 -414 -84v-10q195 -43 285 -69q162 -49 248 -107q104 -70 104 -160q0 -123 -257 -262t-490 -139q-186 0 -291 84 q-92 74 -92 168q0 90 147 282q51 68 125 150q-92 12 -119 20q-63 20 -63 60q0 66 160.5 76t169.5 12q86 86 174 172q98 88 276 108q-45 -45 -145 -137q-49 -45 -135 -143q360 45 530 131q139 70 139 156q0 74 -52 109.5t-155 35.5q-139 0 -354 -36t-309 -91v-59l-330 -95 q-31 -10 -53 -10q-35 0 -35 35zM514 348q0 -41 47 -78q57 -45 148 -45q143 0 302.5 72t159.5 137q0 92 -266 166q-77 22 -239 53q-43 -51 -88 -129q-63 -111 -64 -176z" />
<glyph unicode="C" horiz-adv-x="1265" d="M16 37q0 168 87 382t229 408q172 229 399 424q285 244 463 244q78 0 140.5 -56.5t62.5 -121.5q0 -115 -45 -236q-68 -178 -234 -376q-61 -74 -192 -183q-162 -133 -228 -133q-23 0 -46 32t-31 66q53 111 131 209q71 91 143 144q16 -8 37 -9q92 0 198 175q98 162 99 260 q2 27 2 41q0 27 -7 43t-30 16q-84 0 -299 -186q-238 -205 -401 -457q-203 -309 -203 -567q0 -145 58.5 -218t178.5 -73q106 0 224 57q150 72 329 240q68 63 129 131q70 78 86 78q20 0 21 -23q0 -76 -172 -249t-381 -302q-238 -149 -387 -149h-2q-135 0 -236 88 q-123 109 -123 301z" />
<glyph unicode="D" horiz-adv-x="1642" d="M246 1034q0 152 43 223q35 59 127 103q143 68 339.5 106.5t370.5 38.5q227 0 373 -73q246 -125 246 -437q0 -303 -234 -549q-195 -205 -510 -333q-276 -113 -495 -113q-74 0 -111 33q-51 45 -51 157q0 102 105 279q72 121 245 356q240 324 283 385l18 -133 q-246 -322 -352 -492.5t-106 -250.5q0 -61 36.5 -84t108.5 -23q315 0 616 195q338 217 338 508q0 129 -106 196q-133 84 -451 84q-182 0 -354 -38.5t-172 -75.5q0 -8 30.5 -21.5t57.5 -21.5q-94 -33 -170 -55.5t-135 -34.5q-25 -4 -39 -5q-14 0 -21 5q-20 10 -25 27.5 t-5 43.5z" />
<glyph unicode="E" horiz-adv-x="1404" d="M45 137q0 152 150 262q115 84 337 164q175 60 349 119v16q-201 20 -400 43q-174 45 -174 211q0 203 278.5 360.5t643.5 157.5q131 0 195.5 -17t111.5 -58v-160q-12 -23 -45 -41q-137 -63 -342 -174q14 51 45 88q25 29 63 53q-37 16 -72.5 22.5t-80.5 6.5 q-217 0 -401.5 -85t-184.5 -196q0 -45 64 -71q102 -43 354 -43l143 6h31.5t32.5 2q27 0 70.5 -5t43.5 -59q0 -18 -12 -30l-74 -95q-14 -18 -129.5 -19t-334.5 -73q-203 -66 -330 -186q-106 -102 -107 -176q0 -39 77 -65.5t153 -26.5q205 0 438 94q186 76 385 207 q-12 -150 -72 -240q-47 -74 -147 -133q-111 -68 -234 -111q-185 -67 -367 -67h-5q-242 0 -340 61q-113 70 -113 258z" />
<glyph unicode="F" horiz-adv-x="1376" d="M102 -211q12 63 113.5 178t171.5 135.5t109 57.5t225 256q-137 -12 -189.5 -16.5t-113.5 -4.5h-101q-29 0 -36 7.5t-7 29.5q0 135 143.5 187.5t493.5 52.5q76 94 201 268q133 184 197 283q-164 0 -357.5 -38t-289.5 -104l102 -51q-35 -8 -81 -15t-79 -7q-27 0 -53.5 -1 t-50.5 -1q-72 0 -86 2q-66 8 -66 51q0 14 4 22l56 156q47 133 446 215q307 63 553 64l123 -3q82 0 243.5 7.5t213.5 7.5q-27 -199 -111 -268q-57 -47 -182 -48l-123 5l-103 2q-88 -117 -147 -193q-70 -88 -258 -354l127 6q66 0 65 -39q0 -152 -135 -174q-100 -12 -198 -25 q-102 -119 -205 -235q-182 -205 -303 -311q-174 -156 -260 -156q-41 0 -52 29v22z" />
<glyph unicode="G" horiz-adv-x="1443" d="M160 406q0 205 147 423q135 199 359 361q195 139 423 232.5t367 93.5q61 0 90 -26t29 -114v-41q-16 -66 -161.5 -161t-246.5 -113q4 8 58 67q37 41 37 66q0 4 -35 4q-72 0 -226 -84q-125 -68 -235 -151q-182 -139 -311 -310.5t-129 -290.5q0 -53 28.5 -75.5t71.5 -22.5 q63 0 211.5 104.5t374.5 307.5q84 78 170 170q103 112 142 112h1q39 0 75 -19t36 -65q0 -18 -10.5 -40.5t-24.5 -45.5l-395 -673q129 78 258 161q145 96 157 97l9 -8v-13q-4 -18 -205 -166q-160 -117 -361 -299q-178 -250 -313 -358q-100 -82 -170 -82q-16 0 -33.5 15.5 t-17.5 31.5q0 106 138 267t253 208q45 92 135 252q72 129 156 311q-538 -411 -646 -411h-1q-76 0 -136 67q-70 80 -69 218z" />
<glyph unicode="H" horiz-adv-x="1765" d="M188 950q0 158 91 258q53 59 129 92q154 70 354 117q244 57 469 58q178 0 203 -5q110 -18 110 -183q0 -54 -18 -90t-58 -79l-366 -411l319 38q37 47 140.5 167t224.5 251t135 131q8 0 12 -16t4 -41q0 -47 -79 -141q-152 -178 -271 -351q31 4 59.5 4.5t45.5 0.5h59l57 -2 l-139 -256l-63 2q-45 0 -91.5 -2.5t-93.5 -8.5q-47 -61 -94 -123q-74 -104 -74 -198l2 -64l-178 -98q-6 16 -11 37.5t-5 34.5q0 86 57.5 199.5t136.5 205.5q-156 -20 -190 -24q-113 -12 -205 -13q-90 -82 -184 -190q-135 -156 -135 -215q0 -10 8 -35q-51 0 -91 36t-40 66 q0 35 52 107t200 229l-72 -2q-90 0 -117 27q-18 18 -18 72q0 35 35 94q27 45 59 88q0 -37 37 -50.5t158 -13.5q51 0 80.5 5.5t78.5 23.5l344 369q29 31 64 82q51 74 51 106q0 33 -24.5 45t-51.5 12q-143 0 -356 -51q-260 -61 -352 -147q-10 -20 -11 -37l5 -23l-349 -172 q-18 14 -30.5 34t-12.5 50z" />
<glyph unicode="I" horiz-adv-x="1017" d="M160 821q0 76 84 193q41 57 138 163.5t241 198.5q160 102 262 103q92 0 170 -45q94 -55 94 -138q0 -78 -29 -172q-45 -147 -172 -383q-84 -158 -147 -258q-88 -135 -174 -268q2 -8 2 -18q0 -43 -42 -112q-52 -85 -87 -85q-29 0 -60 29q-37 35 -37 71q0 223 152 420 q141 156 285 314q153 185 153 376q0 74 -67 74q-98 0 -279.5 -152.5t-255.5 -287.5l43 4q27 0 48.5 -4t56.5 -13q-61 -37 -136 -100q-49 -41 -71 -41q-51 0 -111.5 47t-60.5 84z" />
<glyph unicode="J" horiz-adv-x="1089" d="M-70 -553q0 113 117 264q94 123 262 264q125 106 277 209q66 100 172 299q129 240 198 404q94 221 95 313v33q0 23 -9.5 34t-40.5 11q-150 0 -356 -248q-219 -262 -219 -483q0 -23 1 -44.5t15 -21.5q51 0 111 56q-51 -84 -143 -179q-112 -114 -173 -114h-1q-23 0 -43 20 q-29 27 -29 76q0 156 61 322q82 223 267 430q127 141 290.5 244.5t270.5 103.5q53 0 110.5 -49.5t57.5 -110.5q0 -94 -95 -313q-84 -197 -196 -404q-92 -170 -176 -301q61 29 118.5 54.5t75.5 25.5q20 0 29 -6q2 -4 4 -6q0 -8 -119 -80q-79 -50 -237 -154 q-313 -408 -480 -567q-113 -109 -163 -109q-14 0 -23 2q-29 8 -29 25z" />
<glyph unicode="K" horiz-adv-x="1710" d="M188 934q0 55 20.5 113.5t57.5 121.5l223 134l-4 -19v-20q4 -10 17.5 -11.5t23.5 0.5q57 14 201 70q238 90 375 90q68 0 117 -72q41 -59 41 -106q0 -41 -19 -66l-186 -243l778 377q8 -27 8 -58q0 -49 -25.5 -92t-68.5 -76q-59 -45 -140 -92t-141 -70q-6 23 -21 42.5 t-30 19.5q-23 0 -46 -7t-50 -20l-371 -178l-84 -113l582 -385q145 -96 145 -294q0 -45 -10 -82q-8 -10 -16 -21l-865 580l-174 -215l-4 -11l4 -10l4 -12q-109 -131 -168 -180q-35 -29 -59 -29q-29 0 -29 29q0 41 58 125q76 111 291 360q-12 18 -15.5 37.5t-5.5 32.5 q2 31 2 39q0 25 23 55q10 14 41 45l192 94l223 299q37 49 37 66q0 27 -35 26q-45 0 -155 -45q-76 -31 -262 -114q-242 -109 -342 -150q-78 -31 -99 -31q-33 0 -36 25t-3 41z" />
<glyph unicode="L" horiz-adv-x="1392" d="M-41 14q0 39 96 187q37 55 74 104q45 16 125 30.5t195 14.5q225 326 335 477q121 168 209 275q106 131 232 256q168 168 227 168q33 0 66.5 -45t33.5 -99q0 -49 -34 -135q-27 -68 -54 -110l-86 -140q-47 -86 -47 -147q0 -14 8 -43l-252 -195q-14 -10 -22 -10 q-27 0 -27 55q0 88 47 185q27 55 98.5 157.5t93 139.5t21.5 55l-6 12q-10 8 -30 0q-51 -20 -203 -207q-141 -174 -281 -368q-109 -152 -203 -293q188 0 236.5 -46t95.5 -91q109 -49 432 -49l-163 -177q-33 -35 -57.5 -44t-61.5 -9q-43 0 -156 39q-92 31 -160 51 q-131 39 -178 51q-125 33 -215 33q-147 0 -223 -28q-78 -35 -156 -68z" />
<glyph unicode="M" horiz-adv-x="2115" d="M45 129q0 170 68 313q53 115 120 162q25 18 118 47t126 29l10 -4q-66 -68 -120 -162q-61 -104 -76 -240q133 154 323.5 359t282.5 293q111 104 293 252q241 194 292 194h1q37 0 65.5 -62.5t28.5 -113.5q0 -57 -76 -168q-90 -127 -178 -254q-125 -191 -201 -373 q113 125 197 220q117 131 164 178q82 84 211 198q188 170 297 248q96 70 139 70q18 0 53 -35t35 -55v-23q0 -27 -6 -41q-135 -168 -273 -323q-59 -68 -118 -162q-100 -160 -129 -215q-70 -135 -70 -234q0 -82 29 -123q22 -32 57 -32h2q43 0 102.5 33.5t153.5 115.5 q43 37 45 39q27 20 41 21q23 0 23 -19q0 -14 -34 -54t-91 -93q-109 -100 -221 -166q-127 -74 -213 -74q-53 0 -99 47q-55 57 -55 158q0 135 82 297q51 100 129 203q59 78 117.5 155.5t58.5 100.5q0 16 -20 16q-23 0 -82 -47q-76 -61 -217 -205q-205 -211 -338 -401 q-168 -242 -195 -242q-33 0 -54.5 18.5t-21.5 69.5q0 172 101 375q59 119 202 330q129 190 154 256l2 14q0 20 -35 20q-63 0 -238.5 -151.5t-371.5 -374.5q-72 -80 -143 -168q-86 -106 -191 -244q-51 -66 -77.5 -88t-53.5 -22q-27 2 -47 2q-49 0 -60 12q-18 23 -18 123z" />
<glyph unicode="N" horiz-adv-x="1656" d="M188 993q0 111 123 232q109 107 246 166q0 -23 12.5 -41.5t32.5 -18.5t41 10q131 68 188 95q96 45 187 45q82 0 117 -45q26 -32 26 -89q0 -27 -5 -48t-17 -50q-41 -102 -109 -217q-43 -70 -86 -139q-59 -102 -137 -221q-41 -63 -41 -86q0 -4 8 -19q10 0 80 74 q170 178 293 305q90 94 254 228q221 180 285 180q39 0 70.5 -59.5t31.5 -106.5q0 -59 -248 -412q-143 -203 -228 -354.5t-85 -212.5q0 -57 19.5 -84t47.5 -27q33 0 64 15q53 25 133 98q25 23 72 72q31 33 47 32q14 0 22 -10q2 -4 4 -6q0 -20 -61 -90q-76 -86 -152 -154 q-123 -109 -206.5 -158t-135.5 -49q-47 0 -83.5 43t-36.5 117q0 115 88 293q66 129 229 387q51 82 133 203q74 111 74 135l-12 10q-55 0 -269 -192q-184 -166 -309 -309q-141 -162 -291 -379q-90 -131 -123 -131q-14 0 -39 12q-35 18 -59 39q-31 27 -31 49q0 29 64 125 q131 201 205 323q117 197 178 320q114 223 114 315v33q-6 27 -51 27q-53 0 -180 -74q-70 -43 -80 -49q-78 -49 -250 -178q-98 -74 -135 -74q-12 0 -20.5 22.5t-8.5 77.5z" />
<glyph unicode="O" horiz-adv-x="1273" d="M131 420q0 262 201 508q158 195 418 348q215 127 350 147q16 2 28 2t19 -2q47 -10 96 -80q41 -57 62 -120q-61 -6 -105.5 -22.5t-83.5 -39.5q18 2 27 2q90 0 147.5 -57t57.5 -170q0 -315 -293 -622.5t-594 -307.5q-45 0 -80 9.5t-76 35.5q-80 53 -127 156.5t-47 212.5z M313 274q0 -72 41 -116q35 -39 78 -39q111 0 295 143.5t320 331.5q149 206 149 350q0 63 -22 95t-80 32q-117 0 -287 -123q-139 -102 -252 -237l-49 20q-76 -78 -134.5 -215t-58.5 -242z" />
<glyph unicode="P" horiz-adv-x="1585" d="M213 -61q0 12 4 36q12 53 90 185q72 119 131 196q-51 12 -94 50t-43 79q0 68 59 115q84 65 285 96l328 486q-160 0 -355.5 -39t-377.5 -109q82 279 303 371q164 68 540 68q272 0 412 -84q193 -117 193 -406q0 -250 -276.5 -467t-606.5 -217q-45 0 -94 3t-179 20l-67 -111 q-14 -25 -14 -49q0 -23 14 -45q-76 -127 -105 -174q-51 -80 -84 -80h-30q-18 6 -29 39q-4 25 -4 37zM725 596q0 -25 42 -40t77 -15q221 0 418 86q274 121 274 350q0 129 -162 176q-98 29 -282 29l-306 -469l64 4h33l30 2q20 0 26.5 -6t8.5 -21q0 -18 -17.5 -25.5t-49.5 -7.5 h-52q-37 0 -70.5 -7t-33.5 -56z" />
<glyph unicode="Q" horiz-adv-x="1423" d="M98 25q4 35 4 53q0 113 64 180q74 78 225 78h68q336 244 348 252q240 180 369 307q176 174 204 295q4 25 4 37q0 8 -6 26.5t-23.5 25.5t-45.5 7q-133 0 -359.5 -103.5t-333.5 -205.5q43 -12 72 -25.5t47 -46.5q-121 -20 -198 -57q-145 -70 -181 -70q-27 0 -50 81t-23 147 q0 59 112 143q80 59 217.5 133t298 129t283.5 66q14 2 25.5 2h15.5q16 0 34.5 -1t37.5 -1q119 0 188 -93q59 -78 59 -172q0 -125 -157 -288q-123 -127 -367 -306q-205 -145 -409 -288q66 -8 389 -58q119 -18 190 -18q63 0 113.5 9t105.5 24l-61 -185q-20 -59 -67.5 -84.5 t-186.5 -25.5q-104 0 -219 16q-55 8 -233.5 39t-250.5 31q-111 0 -178 -25q-57 -27 -114 -53q-10 0 -11 25z" />
<glyph unicode="R" horiz-adv-x="1714" d="M188 31q0 16 5.5 30.5t17.5 32.5l227 379q-59 18 -76.5 28.5t-17.5 20.5q0 74 25 105q55 69 245 102l340 485q-405 -45 -405 -96q0 -6 26 -14q92 -27 103 -33q-74 -14 -149.5 -25.5t-131.5 -11.5h-30q-49 0 -68 8q-35 14 -35 58q0 92 37 153q66 109 234 170 q219 80 604 80q393 0 575 -108q131 -78 131 -187q0 -184 -137 -301q-90 -76 -241.5 -124t-473.5 -107q-231 -43 -295 -58l498 -196q258 -102 320 -160q53 -51 53 -170v-59q0 -49 -17 -49q-31 0 -39 4l-958 434l-197 -328q-29 -31 -63 -57q-49 -37 -76 -37q-31 0 -31 31z M782 766q512 102 725 209q164 80 164 166q0 49 -65.5 72.5t-147.5 23.5q-123 0 -195.5 -3t-160.5 -13z" />
<glyph unicode="S" horiz-adv-x="1531" d="M160 119q0 94 53 157.5t158 83.5h17h13q-4 -6 -6 -14t-2 -16q0 -23 31 -39.5t82 -16.5q164 0 446 66q350 82 351 176q0 55 -90.5 99t-284.5 85q-354 70 -422 106t-68 142q0 166 50.5 247t228.5 167t413 129q178 33 330 33q115 0 173.5 -34t58.5 -106q0 -96 -35 -133 q-16 -16 -109 -59q-63 -29 -190 -102q-43 -25 -105 -52q18 43 52 80q44 49 110 86q-72 31 -158 31q-197 0 -405.5 -100.5t-208.5 -180.5q0 -43 80 -67q33 -10 86 -21q322 -63 477 -143q184 -94 184 -236q0 -90 -79 -196q-70 -92 -179 -141q-156 -72 -347 -110t-367 -38h-43 q-125 0 -189 16q-106 27 -106 101z" />
<glyph unicode="T" horiz-adv-x="1347" d="M215 1057q0 12 6 24l55 136q37 86 259 151q174 51 403 79t338 28l123 -2q82 0 243.5 7t212.5 7q-23 -178 -108 -238q-55 -39 -182 -39l-228 9q-90 -86 -182 -213q-111 -154 -299 -474q-80 -135 -108 -186q-80 -139 -135.5 -245.5t-86.5 -137.5q-22 -22 -62 -22h-3h-33 q-57 0 -80 26q-49 61 -49 256q0 68 38 182.5t81 159.5q31 33 135 82q51 14 102 31q0 -29 -63.5 -109t-63.5 -188q0 -39 8.5 -74t38.5 -82q143 258 287 511t316 487q-164 0 -358 -38t-290 -104l103 -51q-35 -8 -81 -15t-79 -7q-27 0 -52.5 -1t-49.5 -1q-70 0 -86 2 q-70 10 -70 49z" />
<glyph unicode="U" horiz-adv-x="1767" d="M188 907v23q0 102 70 182q82 94 305 182q113 45 189 64q121 31 264 31h87t76 -4.5t62.5 -13.5t20.5 -42v-29v-24q-4 -16 -5 -23q-25 -133 -63 -184q-106 -113 -240 -262q-96 -106 -190 -213q-104 -129 -115 -225v-47q4 -39 33 -39q33 0 68 26q104 96 223 191 q274 219 489 424q33 31 254 256q84 86 113 86q23 0 46 -42t23 -75q0 -27 -40 -76q-63 -76 -127 -149q-98 -121 -205 -287q-125 -193 -180 -324q-41 -98 -41 -157q0 -41 14 -57.5t39 -16.5q61 0 180 88t154 88q37 0 37 -27q0 -18 -58 -65q-12 -8 -131 -98 q-201 -145 -266 -152h-23q-66 6 -108.5 80t-42.5 174q0 47 31.5 114.5t103.5 184.5q109 170 217 340q-76 -70 -348 -342q-223 -225 -344 -326q-174 -145 -258 -145q-51 0 -108.5 71.5t-57.5 131.5q0 61 57 163q47 84 105 154q98 119 245 256q109 100 218 203q94 94 94 135 q0 23 -30 30t-77 7q-170 0 -346 -78q-162 -72 -162 -125q0 -10 39.5 -25.5t100.5 -27.5q-12 -2 -91 -19q-114 -24 -160 -24h-3h-31q-45 0 -68 8q-39 14 -39 51z" />
<glyph unicode="V" horiz-adv-x="1548" d="M188 862q0 102 50 164q78 98 337 242q111 59 297 125q204 71 299 71h3q59 0 96 -59q30 -47 30 -109q0 -47 -71 -141q-137 -180 -228 -321q-154 -238 -218 -375t-64 -230q0 -43 17.5 -65.5t35.5 -22.5q55 0 156 109q47 51 80 94l344 457q23 29 47 62.5t24 117.5 q63 137 136 213q61 63 100 63q20 0 20 -28q0 -70 -61.5 -194t-136.5 -228l-430 -584q-76 -102 -168 -180q-109 -92 -181 -92q-59 0 -112 76q-59 84 -60 200q0 166 142 412q156 254 311 508q0 25 -25 24q-25 -4 -36 -4q-76 0 -237 -90t-243 -188q45 -10 60.5 -12.5t46.5 -2.5 q23 0 42.5 -4t35.5 -8q-47 -18 -184.5 -56t-180.5 -38q-53 0 -63.5 17.5t-10.5 76.5z" />
<glyph unicode="W" horiz-adv-x="2002" d="M188 967q0 172 103 272q82 82 266 139v-16q0 -25 41 -25t192.5 43t204.5 43q78 0 129 -47q76 -72 76 -235q0 -55 -55 -152q-90 -156 -316 -391q-96 -102 -129 -147q-49 -70 -49 -123q0 -35 8 -35q33 0 269 217q207 190 323 313q162 174 326 351q73 77 99 77h1 q45 0 73 -40t28 -87q0 -18 -22.5 -54t-84.5 -112q-188 -233 -295 -413q-114 -193 -114 -297q0 -30 5 -50t17 -20q29 0 45 6q88 33 261 214.5t267.5 334t94.5 238.5v22q0 35 -6 70q70 78 92 100q35 37 57 37q20 0 30.5 -10t10.5 -39q-2 -23 -2 -33q0 -117 -72 -284 q-84 -197 -256 -431q-92 -125 -245 -266q-199 -182 -297 -182q-61 0 -125 63.5t-64 133.5q0 66 51.5 226.5t98.5 258.5q-258 -279 -430 -436q-133 -123 -209 -170q-47 -29 -74 -29q-51 0 -101.5 66.5t-50.5 134.5q0 127 156 313q53 63 170 182q172 172 236 250 q92 111 92 162q0 23 -31 36t-70 13q-121 0 -254 -53q-57 -23 -221 -111q-129 -70 -196 -86q-27 -8 -39 0q-14 8 -15 58z" />
<glyph unicode="X" horiz-adv-x="1505" d="M188 899q0 78 21 154q29 106 88 155q106 84 334 170q256 98 418 99q68 0 94 -25t26 -70l-28 -495l415 426q16 16 24.5 23t21.5 14q12 0 23 -11.5t11 -38.5q0 -43 -34 -100q-25 -39 -54 -72l-69 -20l-342 -360l-33 -422v-127q0 -37 19.5 -57.5t39.5 -20.5q37 0 83 56 t130 56q20 -6 21 -18q0 -59 -168 -179t-225 -120q-51 0 -78 47t-27 113l37 512l-617 -578q-20 -20 -35.5 -29.5t-37.5 -9.5q-25 0 -28 14.5t-3 32.5q0 61 68 154q59 80 135 143l133 50l389 360l23 391v72q0 43 -41 43q-47 0 -170 -45q-98 -37 -170 -72q-39 -18 -109 -63 t-70 -60q0 -6 38 -13t67 -15q-37 -27 -133 -60t-139 -33q-47 0 -48 29z" />
<glyph unicode="Y" horiz-adv-x="1521" d="M188 852q0 80 21.5 145.5t71.5 106.5q98 80 370 205q322 147 477 147q45 0 65.5 -18.5t20.5 -67.5q0 -61 -43 -146t-167 -266q-117 -168 -234 -335q-98 -143 -109.5 -177t-11.5 -49q0 -14 8.5 -22t40.5 -8q68 0 176 88q86 70 271 256q324 328 418 419q35 -6 61.5 -38.5 t26.5 -69.5q0 -20 -11 -31q-80 -92 -165 -221q-117 -174 -215 -360q-125 -240 -224 -500q82 76 185 139q121 76 198 90q33 6 49.5 7t16.5 -7q0 -10 -172 -151q-117 -96 -244 -224q-94 -94 -184 -208q-102 -131 -121 -131q-27 0 -55.5 24.5t-51.5 71.5q12 86 62 205 q74 178 221 424q63 109 127 219q109 193 109 206q-31 -25 -62 -49q-113 -123 -199 -204q-166 -156 -352 -285q-31 -20 -57.5 -31.5t-50.5 -11.5q-12 0 -43 24q-66 51 -66 82q0 78 123 289q94 160 182 281q137 190 172 241q127 186 127 238q0 14 -20 14q-70 0 -369 -166 q-53 -29 -368 -215q-2 16 -3.5 31.5t-1.5 38.5z" />
<glyph unicode="Z" horiz-adv-x="1306" d="M188 -440q0 53 93 166q76 92 155.5 157.5t176 131t200.5 126.5q117 68 236 138q4 25 4 32q0 59 -41 91t-105 32q-135 0 -285.5 -86t-299.5 -174q-4 0 -4.5 11.5t1.5 23.5q0 20 -1 40.5t-1 41.5q0 84 56 135q66 61 321 197q563 295 563 428q0 33 -18 51q-24 26 -76 26h-4 q-72 0 -152.5 -24.5t-275.5 -110.5q-143 -63 -252 -129q-133 -82 -278 -209q-10 55 -11 95q0 199 177 358q150 135 385 219q209 74 378 74q168 0 248 -90q59 -68 60 -172q0 -100 -88 -205q-76 -88 -203 -174q-84 -55 -234 -137q14 2 39 2h39q88 0 152.5 -79t64.5 -206 q80 45 111 45q6 -2 11 -4t5 -16q0 -18 -127 -93q-35 -172 -153 -333q-66 -88 -186.5 -204t-266.5 -210q-180 -117 -276 -117q-66 0 -107 60q-31 45 -31 92zM373 -406q0 -24 42 -24h3q127 0 334 205q215 213 274 418q-307 -197 -475 -347q-119 -106 -160 -184 q-18 -37 -18 -68z" />
<glyph unicode="[" horiz-adv-x="1204" d="M172 -170q0 80 141 446q135 350 293 699q170 373 242 465q47 59 102.5 73.5t237.5 14.5q98 0 159.5 -6t61.5 -21q0 -66 -69.5 -104.5t-182.5 -38.5h-100q-147 -227 -354 -697.5t-318 -834.5q70 0 149.5 3t176.5 5q18 0 38.5 -1t20.5 -9q0 -92 -101.5 -127t-326.5 -35 q-53 31 -106 78q-63 57 -64 90z" />
<glyph unicode="\" horiz-adv-x="1001" d="M0 1455q-2 5 4 15l51 91q8 10 13 10h8q2 0 8 -6t12 -19l891 -1843q10 -18 14.5 -28.5t-2.5 -20.5l-47 -84q-14 -12 -22 -12q-4 0 -9.5 7t-9.5 15l-897 1843q-12 27 -14 32z" />
<glyph unicode="]" horiz-adv-x="1204" d="M0 -313q0 51 43 88q66 55 209 55h98q162 252 377 750q201 463 297 782q-74 0 -193.5 -4t-132.5 -4h-30q-31 0 -31 10q0 20 40 72.5t60.5 61.5t125 19.5t204.5 10.5q53 -33 104 -80q66 -59 66 -90q0 -68 -141.5 -437.5t-294.5 -709.5q-172 -383 -240 -463 q-47 -55 -105.5 -70.5t-234.5 -15.5q-133 0 -177 6t-44 19z" />
<glyph unicode="^" horiz-adv-x="1224" d="M172 881l455 602l454 -602h-168l-286 374l-287 -374h-168z" />
<glyph unicode="_" horiz-adv-x="1798" d="M0 -434h1798v-139h-1798v139z" />
<glyph unicode="`" horiz-adv-x="534" d="M229 1087v46q6 37 45 36q55 0 146 -86q82 -80 115 -143l-93 -20q-51 37 -90 53t-110 37q-4 14 -7.5 39.5t-5.5 37.5z" />
<glyph unicode="a" horiz-adv-x="946" d="M0 248q0 102 92 213q72 86 191 166q94 61 217 118q139 63 209 64q47 0 73.5 -24.5t26.5 -49.5q0 -18 -19.5 -36.5t-37.5 -34.5q14 -29 30 -56q12 -27 13 -53q0 -23 -21 -55q-33 -49 -55 -84q-29 -45 -57 -90q-27 -49 -27 -88q0 -43 22.5 -61.5t51.5 -18.5q37 0 145 67 q6 4 51 37q20 14 31 14l10 -12q0 -18 -127 -141q-82 -80 -137 -117q-68 -45 -121 -45q-43 0 -76.5 27.5t-33.5 81.5q0 76 36 157q23 51 48 103q-199 -203 -308 -281q-70 -49 -108 -49q-51 0 -85 83t-34 165zM117 231q0 -18 5 -34.5t21 -22.5q4 -2 11.5 -2t17.5 2 q96 23 264 170.5t168 206.5q0 12 -10 19.5t-33 7.5q-137 0 -290.5 -116t-153.5 -231z" />
<glyph unicode="b" horiz-adv-x="772" d="M29 203q0 164 59 323q51 137 141 271q61 90 165 204.5t255 245.5q184 160 242 160q20 0 36.5 -22.5t16.5 -53.5q0 -72 -129 -266q-96 -145 -211 -287q-100 -125 -180 -213q-135 -147 -215 -198l-8 -78q-2 -41 -2 -60q0 -25 2 -36q0 -33 12 -56q20 -37 61 -37 q43 0 88.5 43t63.5 97q-27 33 -27 79q0 98 117 209q106 100 170 101q18 0 27.5 -15.5t9.5 -35.5q-2 -33 -2 -43q0 -45 -45 -132q-37 -70 -76 -118q37 -18 80 -19q47 0 81 17.5t52 27.5v-86q-37 -25 -76 -40t-82 -15q-57 0 -108 31q-113 -129 -160 -170q-106 -94 -194 -94 q-66 0 -107 51q-57 70 -57 215zM240 502q82 76 181 189.5t187 228.5q61 80 107 147q69 103 69 138q0 24 -20 24q-23 0 -70 -41q-55 -49 -157 -164q-90 -104 -150 -197q-106 -165 -147 -325z" />
<glyph unicode="c" horiz-adv-x="694" d="M0 254q0 154 192.5 336t366.5 182q35 0 58.5 -14.5t23.5 -46.5q0 -45 -72 -162q-78 -127 -127 -127q-16 0 -18 28.5t-37 43.5q-8 4 -27 0q-61 -14 -148 -105.5t-87 -161.5q0 -47 37 -80q47 -43 135 -43q70 0 139 31q20 8 86 49q49 31 96.5 67t57.5 36q18 0 18 -21 q0 -14 -26 -47q-41 -49 -152 -143q-76 -66 -137 -101q-80 -45 -146 -45q-111 0 -178 117q-55 96 -55 207z" />
<glyph unicode="d" d="M0 225q0 109 29 178q45 106 166 193q66 47 205 104.5t202 57.5q57 0 78 -78q104 221 217 397q121 188 166 189q23 0 49.5 -14.5t26.5 -34.5q0 -45 -101 -211q-86 -141 -145 -215q-96 -123 -160 -271q-69 -160 -69 -291q0 -51 17 -74.5t48 -23.5q41 0 100 41q29 20 91 74 q18 16 36 35q18 14 35 14q16 0 17 -33q0 -66 -148.5 -187.5t-232.5 -121.5q-57 0 -91 37t-34 121q0 98 37 196q-180 -197 -293 -268q-61 -39 -103 -39q-51 0 -97 76t-46 149zM156 238q0 -33 2 -39q10 -27 41 -27q33 0 84 35q78 53 209 178q59 57 90.5 100t31.5 74l-2 14 q-4 4 -10 6.5t-29 2.5q-57 0 -157 -50q-82 -41 -147.5 -87t-89 -101t-23.5 -106z" />
<glyph unicode="e" horiz-adv-x="653" d="M0 172q0 201 178 399.5t350 198.5q68 0 99 -37q23 -27 22 -63q0 -104 -160 -233t-307 -154q-1 -12 -1 -23q0 -61 28 -97q33 -42 94 -42q31 0 66 12q59 20 141 74q39 25 81 56.5t50 31.5q12 0 12 -31q0 -23 -65 -88q-47 -47 -99 -88q-119 -102 -174 -126.5t-118 -24.5 q-80 0 -136 57q-61 66 -61 178zM182 358q78 20 178 95q119 88 119 155q0 53 -43 54q-70 0 -146.5 -99t-107.5 -205z" />
<glyph unicode="f" horiz-adv-x="593" d="M-201 -399q0 135 74 305q57 131 150 264q-23 27 -34.5 58.5t-11.5 62.5q0 47 33 84t82 37q111 80 199 182q12 14 260 360q4 6 111 166q82 123 116 123q18 0 31.5 -14.5t13.5 -67.5q0 -127 -127 -291q-4 -4 -219 -241l-201 -305q39 -33 68 -80t37 -97q106 20 156 82 q29 37 71 52h17q4 -2 7 -6.5t5 -6.5q0 -39 -83 -111.5t-165 -101.5q0 -219 -196 -440q-178 -199 -299 -199q-35 0 -65 51.5t-30 133.5zM-14 -246v-69q0 -33 8 -64t22 -31q63 0 154.5 161t91.5 288q-53 0 -94 13.5t-66 29.5q-47 -55 -81.5 -154.5t-34.5 -173.5zM158 170 q16 -12 38.5 -19.5t63.5 -7.5q-10 31 -18 62q-11 26 -25 49z" />
<glyph unicode="g" d="M0 281q0 164 297 331q270 154 451 154q49 0 82.5 -46t33.5 -159q0 -43 -20 -74l-307 -483l350 162q12 8 33 8q18 0 18 -18q0 -23 -20 -33l-441 -232l-47 -86q-113 -205 -129 -231q-117 -195 -197 -195q-16 0 -28 9q-45 31 -45 161q0 195 86 277q47 45 272 143 q41 78 60 111q29 51 104 178q-293 -252 -371 -252q-61 0 -121.5 104.5t-60.5 170.5zM98 -436v-35q63 8 113 88q4 6 74 137l55 103q-113 -37 -177.5 -121t-64.5 -172zM156 211q0 -23 10 -31q8 -8 24 -8q78 0 306.5 177t228.5 235q-4 6 -6 8q-10 10 -19 10q-51 0 -167.5 -49 t-201.5 -108.5t-122 -100.5q-53 -61 -53 -133z" />
<glyph unicode="h" horiz-adv-x="833" d="M0 82v53q0 188 33 271q57 141 311 477q162 211 301 359.5t189 148.5q45 -14 57 -45v-21q-10 -47 -150 -240q-53 -76 -174 -233q-68 -86 -217 -256q-158 -181 -221 -236l-2 -43q0 -33 6 -60.5t31 -27.5q14 0 121 121q68 76 155 150q57 47 146 104q104 68 137 68 q18 0 41.5 -36t23.5 -61q0 -14 -34 -51q-63 -66 -99 -112q-51 -68 -72.5 -113t-21.5 -70q0 -47 16.5 -65.5t43.5 -18.5q31 0 76.5 27t87.5 63.5t53 36.5q20 0 20 -16q0 -18 -40 -58t-122 -108q-98 -80 -108 -88q-68 -47 -121 -47q-45 0 -70.5 31.5t-25.5 72.5 q0 49 20.5 101.5t69.5 130.5q33 49 65 100q16 27 17 35q-6 4 -12.5 6t-12.5 2q-25 0 -65 -35q-76 -63 -238 -243q-82 -90 -88 -99q-53 -55 -86 -55q-16 0 -28.5 17.5t-12.5 62.5z" />
<glyph unicode="i" horiz-adv-x="497" d="M0 205q0 141 149.5 318t245.5 177q33 0 43 -24q4 -10 4 -47q0 -72 -71.5 -152t-202.5 -139q-10 -27 -10 -59v-25q0 -80 41 -111q30 -22 78 -22h4q39 0 76.5 15.5t109.5 62.5q18 14 25 18q18 14 34 14q20 0 21 -18q0 -68 -146.5 -167t-230.5 -99q-80 0 -125 73.5 t-45 184.5zM412 854q0 66 49 115t110 49q37 0 53.5 -22.5t16.5 -63.5q0 -55 -35 -100.5t-84 -59.5q-12 -4 -41 -4q-25 0 -43 16q-27 23 -26 70z" />
<glyph unicode="j" horiz-adv-x="622" d="M-57 -625q0 92 28 166q61 158 248 326l148 432q12 37 17 64.5t5 52.5q0 6 -7 11t-17 5q-31 0 -129 -55l-232 -133q-4 16 -6 33.5t-2 56.5q0 18 1 39.5t17 64.5q80 59 256 143.5t232 84.5q61 0 61 -72q0 -10 -5 -29.5t-15 -52.5l-178 -522l198 164q45 37 49 36 q8 0 14.5 -4t8.5 -6q0 -10 -10.5 -26.5t-20.5 -26.5l-317 -332l-88 -215q-27 -51 -95 -145q-88 -121 -124 -121q-12 0 -24.5 19.5t-12.5 41.5zM487 848q0 63 43 120.5t101 57.5q29 0 47 -12q31 -20 31 -70q0 -53 -30 -103.5t-75 -66.5l-41 -6q-31 0 -53.5 18.5t-22.5 61.5z " />
<glyph unicode="k" horiz-adv-x="915" d="M0 133q0 262 117 442q43 66 196 252q172 205 340 359q152 139 211 139q51 0 51 -35q0 -31 -106 -164q-117 -147 -305 -354q-154 -166 -221 -240q-109 -119 -158 -190q-10 -25 -10 -45q0 -51 18 -51q25 0 129 119q94 111 232 221q164 131 258 145h26q33 -8 56.5 -66.5 t23.5 -109.5t-104.5 -143t-294.5 -205q25 -49 62.5 -80t86.5 -31q27 0 60 19q49 27 129 100q12 10 43.5 32.5t42.5 22.5q14 0 14 -28q0 -63 -157.5 -184t-231.5 -121q-78 0 -141 75q-29 33 -78 127q-14 27 -19 31q-16 20 -30 20q-18 0 -35 -16q-37 -39 -82 -96 q-61 -78 -88 -78q-18 0 -26.5 29.5t-8.5 103.5zM332 324q25 -12 44 -31t38 -41q53 35 145 115q117 102 117 141q0 27 -31 27q-49 0 -166 -86q-88 -66 -147 -125z" />
<glyph unicode="l" horiz-adv-x="561" d="M57 272q0 162 99 336q63 111 200 275q150 178 279 276q100 78 143 78q14 0 15 -31q-2 -33 -2 -47q0 -43 -27 -115q-41 -109 -137 -253q-59 -92 -115 -152q-113 -123 -281 -223l-12 -74v-74q0 -94 41 -135q29 -29 66 -29q20 0 51 15q41 20 119 76q31 23 63 47q16 10 25 10 q20 0 20 -21q0 -57 -184 -176q-170 -110 -216 -110h-1q-51 0 -90 61q-55 86 -56 266zM252 516q123 72 236.5 204t140.5 243q6 23 6 47q0 16 -6 16q-49 0 -176 -168q-138 -182 -201 -342z" />
<glyph unicode="m" horiz-adv-x="1331" d="M0 193q0 96 22.5 145t116.5 174q45 59 64 80q51 53 112 53q72 0 72 -27t-39 -75q-10 -14 -74 -82q-129 -143 -129 -168q1 -35 15 -68q63 66 143 140q98 92 240 202q72 57 135 93t102 36q33 0 41 -21.5t8 -56.5q0 -16 -10 -46.5t-37 -69.5q-78 -109 -94 -133 q-25 -35 -24 -50l12 -16q16 0 100 70q70 57 123 110q35 35 144.5 104.5t144.5 69.5q29 0 47 -43t18 -86q0 -16 -24 -39q-94 -86 -111 -108q-25 -35 -45 -70q-33 -59 -33 -94q0 -61 62 -61q72 0 100.5 60t114.5 60l14 -8v-18q-18 -63 -179 -184t-224 -121q-33 0 -60 16 q-37 23 -37 68q0 51 10.5 89t39.5 93q23 45 55 98q14 23 18 35l2 16l-10 11q-20 0 -97 -57.5t-124 -102.5q-72 -74 -141.5 -142.5t-110.5 -68.5q-59 0 -59 70q0 14 11 50t49 96t77 122q14 25 14 33q0 33 -45 32q-72 0 -241 -178q-39 -43 -117 -153q-49 -72 -80 -72t-51 33 q-31 49 -31 160z" />
<glyph unicode="n" horiz-adv-x="907" d="M0 193v55q0 59 35 119q8 14 86 118q63 86 76 101q53 59 118 59q41 0 57.5 -11t16.5 -30q0 -23 -32.5 -57.5t-63.5 -67.5t-89.5 -97.5t-58.5 -88.5q1 -37 15 -70q55 59 154.5 150.5t172.5 148.5q123 96 188.5 135t104.5 39q35 0 43 -24.5t8 -53.5q0 -70 -73 -159l-66 -78 q-41 -51 -59.5 -89t-18.5 -75q0 -61 64 -61q39 0 72.5 19.5t74.5 55.5q29 25 37 31q18 14 29 14q16 0 16 -26q0 -53 -164.5 -179t-240.5 -126q-49 0 -74 31.5t-25 80.5q0 29 9.5 66t42.5 88q25 39 75 100q35 43 35 60q0 12 -10 22t-33 10q-43 0 -100 -44t-143 -134 q-39 -43 -117 -153q-49 -72 -80 -72q-45 0 -63.5 62.5t-18.5 130.5z" />
<glyph unicode="o" horiz-adv-x="739" d="M0 270q0 145 175 312.5t331 167.5q43 0 77.5 -19.5t34.5 -40.5q0 -8 -4 -24.5t-6 -26.5q41 -12 53.5 -44t12.5 -69q0 -33 -4 -48t-6 -23q-10 -51 -28 -90t-48 -91l-6 -16q0 -10 13 -22.5t34 -12.5q25 0 47 18.5t41 18.5q23 0 22 -14q0 -27 -69.5 -71t-137.5 -50h-40 q-66 -80 -133.5 -115t-135.5 -35q-109 0 -172 107q-51 88 -51 188zM141 188q0 -57 41 -77q20 -10 62 -11q49 0 98 27q35 18 80 59q-10 23 -15.5 35t-5.5 31q0 76 19.5 130t42 102t22.5 57q0 20 -30 20q-31 0 -97 -47q-51 -37 -92 -78q-63 -63 -94 -118.5t-31 -129.5z" />
<glyph unicode="p" horiz-adv-x="954" d="M-143 -383q0 33 22 125q14 59 39 141q70 129 193 238l239 442l-317 -278q-31 -29 -43 -29q-16 4 -17 8v17q8 25 215 221q137 131 207 213q51 61 125 166.5t148 105.5q29 0 47 -10t18 -23l-4 -6q-84 -53 -187.5 -237.5t-158.5 -272.5q74 76 192 158q139 96 201 96 q39 0 66 -22q35 -31 35 -90q0 -104 -121 -242q-96 -111 -221 -197q59 -24 126 -24h5q104 0 200 80q14 12 41 43q18 20 29 20q18 0 18 -12q0 -18 -23.5 -47t-62.5 -68q-98 -92 -245 -145q-127 -45 -238 -45q-113 0 -221 80q-57 -125 -139 -320q-74 -176 -119 -176 q-20 0 -34.5 26.5t-14.5 63.5zM250 178q43 20 94 21q49 0 100 -31q80 55 143.5 134t76.5 128q2 10 2 18t-2 13q-10 33 -52 33q-59 0 -174 -107q-100 -92 -188 -209z" />
<glyph unicode="q" horiz-adv-x="931" d="M0 281q0 152 269.5 318.5t473.5 166.5q51 0 80 -41q37 -51 37 -164q0 -25 -5 -45t-13 -29l-252 -333q27 -23 80 -23q72 0 125 63.5t67 63.5q12 -4 12 -10v-17q-6 -49 -70.5 -108.5t-125.5 -81.5q6 -16 8 -42t2 -46q0 -109 -223 -336t-309 -227q-29 0 -45 18 q-23 25 -23 76q0 102 49 184q20 33 150 205q147 195 258 385q-164 -152 -256 -209q-68 -43 -111 -43q-61 0 -119.5 104.5t-58.5 170.5zM154 221q0 -27 8 -33l24 -6q82 0 308.5 173t226.5 237q0 20 -25 20q-49 0 -172 -55t-194 -102q-117 -80 -146.5 -124t-29.5 -110z M283 -365v-57q76 29 174 148.5t98 185.5q0 109 -37 143q-96 -139 -190 -278q-39 -70 -45 -142z" />
<glyph unicode="r" horiz-adv-x="696" d="M29 348q0 74 35.5 116t35.5 68q0 8 -8 17q-20 18 -20 33q0 59 80.5 149t142.5 90q20 0 20 -22l-6 -31q0 -37 45 -37l105 12q61 12 83.5 16.5t39.5 4.5q25 0 39 -23q23 -35 22 -75q0 -45 -57.5 -100.5t-69.5 -69.5q-72 -88 -100.5 -145.5t-28.5 -94.5q0 -78 80 -78 q57 0 106.5 57.5t102.5 57.5q10 0 14 -6t6 -15q0 -16 -80 -92q-59 -55 -96 -86q-59 -45 -123.5 -71.5t-126.5 -26.5q-41 0 -69 31q-35 37 -35 100q0 78 65 170q14 18 80 98q27 31 68 78q49 55 49 76q0 20 -28.5 26.5t-47.5 6.5q-113 0 -143 -19q-20 -12 -47 -76 q-35 -82 -86 -122q-24 -9 -47 -17z" />
<glyph unicode="s" horiz-adv-x="751" d="M0 303q0 33 20.5 64.5t61.5 31.5q86 0 145 -118q27 -55 62 -56q51 0 98 54q55 63 55 159v84q-6 51 -24 96l-201 -178l-51 66l229 209q-2 10 -2 30q0 33 15 56q6 8 33.5 33.5t60.5 56.5q23 18 37 18q37 0 72.5 -109.5t35.5 -189.5q0 -94 -62.5 -208.5t-170.5 -208.5 q27 -10 51 -11q25 0 55 13q57 23 148 88q59 45 69 45l15 -11q0 -61 -187.5 -189t-253.5 -128q-80 0 -192 102q-119 109 -119 201z" />
<glyph unicode="t" horiz-adv-x="563" d="M0 127q0 66 55 174q72 139 244 373l-195 2q-27 0 -20 18q6 14 25.5 46t37.5 61q37 55 66 66.5t133 11.5h76q92 133 148.5 177t125.5 44q25 0 46.5 -4t21.5 -15q0 -23 -64.5 -87t-126.5 -126l60 -2l55 -2h33h8q25 -4 25 -20q0 -12 -13 -27q-14 -12 -18 -18l-84 -90 q-18 -20 -32.5 -31.5t-37.5 -11.5l-137 4q-104 -150 -141 -215q-68 -121 -68 -205q0 -106 96 -107q16 0 50 15q55 23 131 78q31 23 61 45q12 8 25 8q16 0 16 -23q0 -16 -67 -78q-59 -53 -93 -77q-106 -80 -172 -117q-86 -47 -153 -47q-43 0 -74 35q-43 47 -43 145z" />
<glyph unicode="u" horiz-adv-x="884" d="M0 276q0 98 117 271q127 186 231 186q35 0 60.5 -13t25.5 -32q0 -66 -119 -168q-63 -55 -168 -123q-12 -31 -12 -59q0 -53 19.5 -82t44.5 -29q33 0 112 60q63 47 99 82l364 360q23 23 35 23q25 0 38 -33t13 -80v-18q0 -14 -8 -25l-182 -199q-29 -33 -43 -57 q-25 -47 -25 -96q0 -37 12.5 -60.5t40.5 -23.5q20 0 53 13t64 30q47 27 70.5 44t25.5 17q16 0 17 -16q0 -35 -161 -164t-222 -129q-37 0 -58 25q-26 30 -26 86q0 35 10 95t21 105q-82 -106 -168 -184q-98 -88 -156 -88q-53 0 -89 86t-36 196z" />
<glyph unicode="v" horiz-adv-x="798" d="M0 319q0 90 61 185q20 33 84 110.5t107 104.5q31 18 67 18q33 0 53.5 -11t20.5 -38q0 -18 -26 -67q-18 -33 -45 -74q-41 -61 -72 -94q-39 -43 -90 -74q-10 -20 -16.5 -53t-6.5 -78q0 -35 16.5 -62.5t36.5 -27.5q35 0 129.5 70.5t133.5 115.5q-2 10 -2 33q0 20 2 31 q10 59 107 188t147 129q23 0 45 -18.5t22 -42.5q0 -47 -49 -138.5t-115 -158.5q0 -33 16.5 -53.5t51.5 -20.5h12q27 0 53.5 15.5t34.5 15.5q20 0 21 -25q0 -12 -17 -29q-4 -4 -28 -22q-63 -49 -111 -49q-35 0 -67.5 14t-57.5 53q-104 -137 -186 -207q-72 -59 -119 -59 q-68 0 -137 96q-76 104 -76 223z" />
<glyph unicode="w" horiz-adv-x="1177" d="M0 276q0 119 39 189q14 27 100 123q104 115 174 164q55 39 93 39q29 0 58.5 -16.5t29.5 -41.5q0 -31 -50.5 -103.5t-81.5 -101.5l-114 -118q-33 -29 -68 -43q-30 -49 -30 -120q0 -40 17 -64.5t36 -24.5q18 0 69 59l426 477q20 27 60 27q18 0 44.5 -11.5t31.5 -25.5v-12 q-33 -162 -108 -209t-101 -209q-4 -29 -4 -43q0 -8 4 -25q12 -49 39 -49q29 0 84 60q42 45 83 108q-4 18 -4 53t23.5 77t86 119t69.5 83q45 47 79 47q29 0 49.5 -15.5t20.5 -52.5q0 -35 -20 -94q-8 -23 -24.5 -59.5t-37.5 -71.5q-27 -45 -61 -86q23 -61 71 -61q25 0 48.5 15 t35.5 15l11 -10q0 -39 -62.5 -88t-107.5 -49q-29 0 -62 16.5t-57 53.5q-133 -152 -217 -207q-55 -37 -101 -37q-37 0 -75.5 39t-38.5 90q0 45 8 98t18 94q-76 -90 -153 -163q-115 -111 -160 -111q-59 0 -107 59q-63 78 -63 217z" />
<glyph unicode="x" horiz-adv-x="802" d="M0 27q0 37 39 102.5t80 75.5l80 12l139 137q8 51 8 99q0 76 -12 105.5t-43 29.5q-18 0 -41 -14.5t-31 -20.5l-123 -90q-6 -6 -13 -8t-13 -2q-10 0 -17 10q-4 6 0 20q12 41 158.5 169t200.5 128q43 0 69 -32q39 -47 39 -144l-2 -61l211 155q18 12 27 17q20 10 30 10 q16 0 17 -16q0 -23 -21 -47q-27 -27 -30 -31l-238 -215l-16 -211q-4 -35 5 -52.5t34 -17.5q27 0 87 46t78 46q20 0 21 -22q0 -35 -166 -164t-201 -129q-12 0 -20 6q-27 18 -27 62q10 66 19.5 130t9.5 132q-66 -86 -156 -154q-119 -88 -168 -88q-14 0 -14 27z" />
<glyph unicode="y" horiz-adv-x="882" d="M0 233q0 84 28.5 152t88.5 147q43 57 131 138q109 98 153 98q29 0 55.5 -24.5t26.5 -45.5q0 -55 -112.5 -175.5t-182.5 -145.5q-23 -39 -34 -64.5t-11 -54.5q0 -25 11.5 -39t21.5 -14q31 0 238 164q88 70 139 114.5t119 114.5q55 55 110 113q18 18 35 18q39 0 39 -78 q0 -29 -14 -61q-6 -14 -25 -45l-297 -471q-31 -47 -35 -60v-14l9 -6q12 0 41 22l280 242q4 2 19.5 14.5t19.5 14.5h18q6 -2 8.5 -7.5t2.5 -7.5q0 -12 -17 -28l-360 -377q-82 -86 -230 -264q-80 -98 -108 -99q-18 0 -23.5 43t-5.5 95q0 23 23.5 62.5t52.5 84.5l193 350 q10 20 10 33q0 8 -6 10t-17 -6q-129 -98 -189.5 -137t-86.5 -39q-35 0 -77 96.5t-42 136.5z" />
<glyph unicode="z" horiz-adv-x="739" d="M0 -61q14 119 104 208q23 23 195 154q135 103 209 209q-57 -31 -162.5 -54.5t-173.5 -23.5q-45 0 -68.5 23.5t-23.5 74.5q0 45 83 128t134 83q25 0 25 -30l-3 -15q0 -14 12.5 -26.5t45.5 -12.5q88 0 125 14.5t106 14.5q16 0 27 -31l27 -92q4 -14 4 -45q0 -53 -226 -221 q-45 -33 -159 -115q14 6 34.5 10.5t57.5 4.5q10 0 23.5 -5.5t29.5 -19.5q18 -23 39.5 -43t56.5 -20q33 0 72 28q29 20 78 70q12 12 25.5 24.5t23.5 12.5q18 0 18 -23q0 -37 -118 -164q-125 -135 -181 -135q-35 0 -81 14.5t-78.5 35t-49.5 28.5q-37 18 -67 18 q-37 0 -90.5 -34.5t-73.5 -44.5z" />
<glyph unicode="{" horiz-adv-x="1173" d="M172 -10q0 47 11.5 105.5t52.5 152.5q6 12 81 164q33 66 33 98q0 53 -22.5 104.5t-22.5 63.5q0 10 60.5 18.5t82 46t39.5 150.5q12 74 25 121q74 291 193 405q88 86 217 86h57q59 -6 98 -18t39 -27q0 -37 -43 -47q-129 -31 -201 -141q-94 -250 -141 -377 q-88 -234 -287 -297q33 -47 51.5 -86t18.5 -82q0 -49 -4 -93t-16 -85q-37 -113 -58 -176q-39 -123 -39 -180q0 -61 29 -121q31 -55 63 -113q-80 31 -157 59q-160 115 -160 269z" />
<glyph unicode="|" horiz-adv-x="815" d="M344 -573v2156h127v-2156h-127z" />
<glyph unicode="}" horiz-adv-x="1142" d="M57 -295q0 12 45 31q123 47 148.5 71.5t48.5 63.5q33 57 70 166q57 174 94 231q70 109 207 148q-33 49 -45 69q-23 43 -23 78q0 223 64 373q47 117 55 139q27 78 27 146v63q-4 55 -28 112.5t-46 116.5q41 -14 84 -26q92 -51 138 -107.5t60.5 -119t14.5 -132.5 q0 -88 -23 -159q-6 -18 -42 -103.5t-105 -212.5q-45 -82 -45 -123q0 -55 37 -86q12 -10 24 -24t12 -27q0 -12 -69 -43q-39 -16 -55 -37q-29 -35 -42.5 -100.5t-21.5 -103.5q-70 -299 -182 -392q-68 -55 -217 -55q-70 0 -127.5 13.5t-57.5 29.5z" />
<glyph unicode="~" horiz-adv-x="1429" d="M143 614q57 98 148 158q100 66 221 66q86 0 178 -39q84 -39 170 -78q37 -14 72 -23.5t63 -9.5q55 0 109 43q43 35 78 96l75 -57q-45 -90 -118 -152q-92 -78 -197 -77q-72 0 -133 18q-37 10 -123 51t-131 58q-70 27 -117 26q-57 0 -115.5 -33.5t-103.5 -103.5z" />
<glyph horiz-adv-x="1538" d="M217 1061l4 20l55 136q51 127 447 200q303 57 573 58q55 0 145.5 6t123.5 6q96 0 139 -35q51 -43 51 -152q0 -57 -12 -72.5t-33 -15.5q-104 0 -231.5 6.5t-135.5 6.5q-96 -88 -169 -193q-31 -43 -125 -196q-80 -131 -146 -222q147 82 271 132.5t174 50.5q63 0 90 -31 q20 -23 20 -57q0 -98 -94 -299q-84 -180 -170 -299q-74 -100 -168 -179q-121 -98 -205 -98q-45 0 -80.5 25.5t-35.5 46.5q0 14 45 24q135 31 241 152q74 84 142 207q80 143 79 219q0 39 -2 47q-8 31 -57 31q-74 0 -152.5 -23.5t-179.5 -85.5q-90 -164 -176 -321.5 t-127 -157.5q-63 0 -127.5 105.5t-64.5 191.5q0 57 26.5 142t65.5 128q29 29 113.5 72t115.5 43l10 -8q0 -154 -64.5 -156t-64.5 -135q0 -82 47 -156q143 258 287 511t316 487q-215 0 -431.5 -52.5t-216.5 -89.5q0 -12 41 -29.5t62 -21.5q-35 -8 -81 -15t-79 -7h-59 q-197 0 -197 53z" />
<glyph horiz-adv-x="1347" d="M215 1057q0 12 6 24l55 136q37 86 259 151q174 51 403 79t338 28l123 -2q82 0 243.5 7t212.5 7q-23 -178 -108 -238q-55 -39 -182 -39l-228 9q-90 -86 -182 -213q-111 -154 -299 -474q-80 -135 -108 -186q-80 -139 -135.5 -245.5t-86.5 -137.5q-23 -23 -65 -22h-33 q-57 0 -80 26q-49 61 -49 256q0 68 38 182.5t81 159.5q31 33 135 82q51 14 102 31q0 -29 -63.5 -109t-63.5 -188q0 -39 8.5 -74t38.5 -82q143 258 287 511t316 487q-164 0 -358 -38t-290 -104l103 -51q-35 -8 -81 -15t-79 -7q-27 0 -52.5 -1t-49.5 -1q-70 0 -86 2 q-70 10 -70 49z" />
<glyph horiz-adv-x="1710" d="M188 934q0 55 20.5 113.5t57.5 121.5l223 134l-4 -19v-20q4 -10 17.5 -11.5t23.5 0.5q57 14 201 70q238 90 375 90q68 0 117 -72q41 -59 41 -106q0 -41 -19 -66l-186 -243l778 377q8 -27 8 -58q0 -49 -25.5 -92t-68.5 -76q-59 -45 -140 -92t-141 -70q-6 23 -21 42.5 t-30 19.5q-23 0 -46 -7t-50 -20l-371 -178l-84 -113l582 -385q145 -96 145 -294q0 -45 -10 -82q-8 -10 -16 -21l-865 580l-174 -215l-4 -11l4 -10l4 -12q-109 -131 -168 -180q-35 -29 -59 -29q-29 0 -29 29q0 41 58 125q76 111 291 360q-12 18 -15.5 37.5t-5.5 32.5 q2 31 2 39q0 25 23 55q10 14 41 45l192 94l223 299q37 49 37 66q0 27 -35 26q-45 0 -155 -45q-76 -31 -262 -114q-242 -109 -342 -150q-78 -31 -99 -31q-33 0 -36 25t-3 41z" />
<glyph horiz-adv-x="1538" d="M215 1057q0 12 6 24l55 136q51 127 447 200q303 57 573 58q55 0 145.5 6t123.5 6q96 0 139 -35q51 -43 51 -152q0 -57 -12 -72.5t-33 -15.5q-104 0 -231 6.5t-136 6.5q-96 -88 -169 -193q-31 -43 -125 -196q-80 -131 -146 -222q96 53 244 113q176 72 246 72 q35 0 50 -25.5t15 -66.5q0 -33 -18 -68q-8 -14 -23 -37q-31 -49 -106 -137q-129 -152 -129 -225q0 -39 20.5 -54.5t59.5 -15.5q55 0 125.5 47t144.5 98q20 0 20 -28q0 -63 -208.5 -205.5t-303.5 -142.5q-55 0 -81.5 20.5t-26.5 73.5q0 74 47 162q27 51 88 133 q45 59 64.5 86.5t32 47t18.5 31t6 27.5q0 37 -18.5 51.5t-45.5 14.5q-72 0 -155 -33q-63 -25 -148 -76l-250 -440q-10 -16 -12 -21q-14 -18 -41 -18q-66 0 -129 110.5t-63 186.5q0 90 32 170q23 57 60 100q23 25 114 74q102 55 123 39q6 -12 -18.5 -42t-44 -67t-39.5 -73 q-25 -55 -25 -115q0 -82 47 -156q143 258 287 511t316 487q-164 0 -358 -38t-290 -104l103 -51q-35 -8 -81 -15t-79 -7q-27 0 -52.5 -1t-49.5 -1q-70 0 -86 2q-70 10 -70 49z" />
<glyph horiz-adv-x="1767" d="M188 907v23q0 102 70 182q82 94 305 182q113 45 189 64q121 31 264 31q147 0 196.5 -12.5t49.5 -47.5q0 -125 -78 -250q-49 -78 -170 -207q-154 -164 -205 -223q-147 -170 -160 -280v-47q4 -39 33 -39q33 0 68 26q104 96 223 191q274 219 489 424q33 31 254 256 q84 86 113 86q23 0 46 -42t23 -75q0 -27 -40 -76q-63 -76 -127 -149q-98 -121 -205 -287q-125 -193 -180 -324q-41 -98 -41 -157q0 -41 14 -57.5t39 -16.5q61 0 180 88t154 88q37 0 37 -27q0 -18 -58 -65q-12 -8 -131 -98q-201 -145 -266 -152h-23q-66 6 -108.5 80 t-42.5 174q0 47 31.5 114.5t103.5 184.5q109 170 217 340q-76 -70 -348 -342q-223 -225 -344 -326q-174 -145 -258 -145q-51 0 -108.5 71.5t-57.5 131.5q0 84 104 233q88 127 199 234q135 125 270 249q145 141 146 195q0 23 -30 30t-77 7q-170 0 -346 -78 q-162 -72 -162 -125q0 -10 39.5 -25.5t100.5 -27.5q-12 -2 -91 -19q-119 -25 -163 -24h-31q-45 0 -68 8q-39 14 -39 51zM535 -424q0 41 28 88q10 16 55 78l236 315h84l-107 -333q-39 -121 -53 -144q-51 -84 -157 -84q-43 0 -64.5 23.5t-21.5 56.5z" />
<glyph horiz-adv-x="833" d="M-125 -375l21 60q16 -6 32.5 -8.5t38.5 -2.5q86 0 201 111q86 84 164 197q63 92 121 202q76 147 75 217q0 33 -10 33q-27 0 -121 -90q-82 -78 -209 -217q-37 -43 -73 -84q-41 -41 -74 -41q-25 0 -33 26.5t-8 53.5v149q0 104 78 250q90 168 350 514h-113q-35 0 -34 6 q0 23 6 31l47 72q12 16 35 16h20h146q109 127 184.5 196.5t114.5 74.5q45 -14 57 -45v-21q-6 -25 -53 -98q-27 -43 -72 -107h205q29 0 28 -10q0 -6 -10 -27l-47 -73q-10 -14 -45 -15h-221q-90 -125 -246 -309q-195 -231 -301 -326l-2 -43q0 -33 6 -60.5t31 -27.5 q8 0 104 105q76 82 203 190q41 33 119 84q98 63 133 64q23 0 41 -33t18 -64q0 -45 -69 -178q-78 -150 -191 -323q-180 -276 -346 -400q-109 -80 -178 -80q-86 0 -123 31z" />
<glyph horiz-adv-x="899" d="M0 213q0 96 23.5 164.5t111.5 212.5q33 51 84 117q74 92 98 92q20 0 36 -48.5t16 -95.5q0 -35 -13 -51q-51 -45 -123 -137q-49 -63 -55 -74q-43 -66 -43 -123l4 -37q152 195 351.5 353.5t287.5 158.5q29 0 49.5 -30.5t20.5 -73.5q0 -76 -14 -131q-20 -82 -78 -127 q-43 0 -85 18.5t-42 44.5q0 8 18 23q8 4 12 8q14 14 21 35v23q-8 18 -33 18q-51 0 -158 -92q-80 -70 -137 -135q78 -27 150 -125q66 -90 110 -90q61 0 122 78.5t149 78.5q16 0 16 -20q0 -23 -74 -103q-63 -70 -96 -96q-47 -37 -94 -61q-76 -41 -129 -41q-111 0 -133 100 q-29 123 -144 166l-163 -201l-17 -12q-16 0 -32.5 56.5t-16.5 156.5z" />
<glyph horiz-adv-x="833" d="M0 82v147q0 100 66 230q96 188 368 536h-151q-35 0 -35 6q0 8 1 16.5t5 14.5l47 72q10 14 25.5 15t29.5 1h179q109 127 184.5 196.5t114.5 74.5q45 -14 57 -45v-21q-6 -25 -53 -98q-27 -44 -72 -107h172q29 0 29 -10q0 -6 -11 -27l-45 -73q-8 -14 -47 -15h-192 q-152 -197 -250 -313q-63 -76 -172 -190q-61 -66 -123 -132v-43q0 -33 6 -60.5t31 -27.5q12 0 102 101q78 86 176 172q76 63 142 106q53 35 100 56q16 8 39 8q18 0 41.5 -36t23.5 -61q0 -14 -55 -71q-78 -84 -102 -119q-70 -94 -70 -156q0 -47 16.5 -65.5t43.5 -18.5 q31 0 76.5 27t87.5 63.5t53 36.5q20 0 20 -16q0 -23 -78 -92q-70 -61 -112 -98q-63 -55 -114.5 -83t-84.5 -28q-35 0 -61 29q-35 39 -35 110q0 31 15 62.5t22 44.5q33 66 88 147q45 68 45 78q-6 4 -12.5 6t-12.5 2q-31 0 -96.5 -60.5t-181.5 -191.5q-160 -178 -183 -178 q-35 0 -46 19.5t-11 58.5z" />
<glyph unicode="&#xa1;" horiz-adv-x="1521" d="M188 852q0 80 21.5 145.5t71.5 106.5q98 80 370 205q322 147 477 147q45 0 65.5 -18.5t20.5 -67.5q0 -61 -43 -146t-167 -266q-117 -168 -234 -335q-98 -143 -109.5 -177t-11.5 -49q0 -14 8.5 -22t40.5 -8q68 0 176 88q86 70 271 256q324 328 418 419q35 -6 61.5 -38.5 t26.5 -69.5q0 -20 -11 -31q-80 -92 -165 -221q-117 -174 -215 -360q-125 -240 -224 -500q82 76 185 139q121 76 198 90q33 6 49.5 7t16.5 -7q0 -10 -172 -151q-117 -96 -244 -224q-94 -94 -184 -208q-102 -131 -121 -131q-27 0 -55.5 24.5t-51.5 71.5q12 86 62 205 q74 178 221 424q63 109 127 219q109 193 109 206q-51 -45 -103 -90q-33 -31 -225 -219q-68 -66 -184 -153q-156 -119 -209 -119q-12 0 -43 24q-66 51 -66 82q0 94 174 373q68 109 131 197q137 190 172 241q127 186 127 238q0 14 -20 14q-70 0 -369 -166q-53 -29 -368 -215 q-2 16 -3.5 31.5t-1.5 38.5zM1366 1421q0 20 1 40.5t13 47.5q82 96 129 142.5t66 46.5q14 0 14 -31q-8 -27 -10 -38t-2 -19v-13q0 -20 3 -31.5t11 -21.5q31 -37 103 -37q160 0 186.5 64.5t149.5 64.5q4 0 7 -4t5 -6q0 -76 -218 -194.5t-341 -118.5q-41 0 -74 22 q-43 31 -43 86z" />
<glyph unicode="&#xa2;" horiz-adv-x="882" d="M0 233q0 84 28.5 152t88.5 147q43 57 131 138q109 98 153 98q29 0 55.5 -24.5t26.5 -45.5q0 -55 -112.5 -175.5t-182.5 -145.5q-23 -39 -34 -64.5t-11 -54.5q0 -25 11.5 -39t21.5 -14q31 0 238 164q88 70 139 114.5t119 114.5q55 55 110 113q18 18 35 18q39 0 39 -78 q0 -29 -14 -61q-6 -14 -25 -45l-297 -471q-31 -47 -35 -60v-14l9 -6q12 0 41 22l280 242q4 2 19.5 14.5t19.5 14.5h18q6 -2 8.5 -7.5t2.5 -7.5q0 -12 -17 -28l-360 -377q-82 -86 -230 -264q-80 -98 -108 -99q-18 0 -23.5 43t-5.5 95q0 23 23.5 62.5t52.5 84.5l193 350 q10 20 10 33q0 8 -6 10t-17 -6q-129 -98 -189.5 -137t-86.5 -39q-35 0 -77 96.5t-42 136.5zM555 946v25q6 33 59.5 66.5t85.5 33.5q20 0 21 -14l-10 -45l-2 -29q0 -23 16 -35t41 -12q55 0 67.5 44t116.5 44q17 -6 19 -10q6 -6 6 -25q0 -43 -131 -124t-174 -81q-68 0 -97 62 q-18 41 -18 100z" />
<glyph unicode="&#xa3;" horiz-adv-x="1089" d="M-70 -553q0 113 117 264q94 123 262 264q125 106 277 209q66 100 172 299q129 240 198 404q94 221 95 313v33q0 23 -9.5 34t-40.5 11q-150 0 -356 -248q-219 -262 -219 -483q0 -23 1 -44.5t15 -21.5q51 0 111 56q-51 -84 -143 -179q-113 -115 -174 -114q-23 0 -43 20 q-29 27 -29 76q0 156 61 322q82 223 267 430q127 141 290.5 244.5t270.5 103.5q53 0 110.5 -49.5t57.5 -110.5q0 -94 -95 -313q-84 -197 -196 -404q-92 -170 -176 -301q61 29 118.5 54.5t75.5 25.5q20 0 29 -6q2 -4 4 -6q0 -8 -119 -80q-79 -50 -237 -154 q-313 -408 -480 -567q-113 -109 -163 -109q-14 0 -23 2q-29 8 -29 25z" />
<glyph unicode="&#xa4;" horiz-adv-x="1830" d="M307 221l209 207q-47 61 -74 123q-47 109 -47 237q0 104 28 190.5t93 170.5l-209 207l123 123l207 -209q61 47 123 73q109 47 237 48q104 0 190.5 -28t170.5 -93l207 209l123 -123l-209 -207q47 -61 73 -123q47 -109 47 -238q0 -104 -27.5 -190t-92.5 -170l209 -207 l-123 -123l-207 209q-61 -47 -123 -74q-109 -47 -238 -47q-104 0 -190 28t-170 93l-207 -209zM541 788q0 -188 135 -323t323 -135t323.5 135t135.5 323q0 190 -134 324.5t-325 134.5q-190 0 -324 -134.5t-134 -324.5z" />
<glyph unicode="&#xa5;" horiz-adv-x="1447" d="M215 1057q0 12 6 24l55 136q35 86 259 151q174 51 403 79t338 28l207 -5q147 0 226 17.5t122 71.5q27 31 41 94t41 63q16 0 24 -8q18 -16 19 -61q0 -203 -76 -327t-221 -124q-51 0 -102.5 6t-71.5 8l-148 9q-90 -86 -182 -213q-111 -154 -299 -474q-80 -135 -108 -186 q-80 -139 -135.5 -245.5t-86.5 -137.5q-23 -23 -65 -22h-33q-57 0 -80 26q-49 61 -49 256q0 68 38 182.5t81 159.5q31 33 135 82q51 14 102 31q0 -29 -63.5 -109t-63.5 -188q0 -39 8.5 -74t38.5 -82q143 258 287 511t316 487q-164 0 -358 -38t-290 -104l103 -51 q-35 -8 -81 -15t-79 -7q-27 0 -52.5 -1t-49.5 -1q-70 0 -86 2q-70 10 -70 49z" />
<glyph unicode="&#xa6;" horiz-adv-x="598" d="M115 37q0 61 60.5 144t109.5 83q25 0 38 -21.5t13 -54.5q0 -68 -59.5 -141.5t-108.5 -73.5q-29 0 -41 20.5t-12 43.5zM264 582q0 55 56.5 141t111.5 86q18 0 31 -12q20 -20 20 -64q0 -57 -57 -136t-111 -79q-16 0 -30 12q-21 19 -21 52z" />
<glyph unicode="&#xa7;" horiz-adv-x="1370" d="M193 63q0 37 30 91q20 35 47 67q39 41 176 58q-29 -20 -51 -47t-22 -39q0 -41 53 -56q29 -8 74 -8q127 0 194.5 21.5t67.5 58.5q0 35 -119 113q-102 68 -147 100q-150 111 -186 165t-36 126q0 84 84 159q54 48 134 89q-25 31 -40.5 60.5t-15.5 57.5q0 102 84 183 q129 123 416 122q109 0 168 -14q94 -23 94 -80q0 -39 -31.5 -89t-56.5 -73q-14 -14 -43 -26q-49 -20 -125 -21q23 12 49.5 41t26.5 45q0 27 -23 41q-31 20 -104 21q-135 0 -198.5 -23.5t-63.5 -56.5t119 -111q72 -47 145 -100q117 -84 164 -139q59 -70 59 -154 q0 -100 -119 -188q-43 -31 -100 -60q23 -23 40 -55.5t17 -60.5q0 -98 -86 -181q-131 -127 -413 -127q-133 0 -187 17q-76 23 -75 73zM457 797q0 -55 141 -164q119 -88 238 -174q33 23 64.5 48t31.5 56q0 59 -164 179t-213 157q-31 -18 -57 -41q-41 -35 -41 -61z" />
<glyph unicode="&#xa8;" horiz-adv-x="1404" d="M45 137q0 152 150 262q115 84 337 164q175 60 349 119v16q-197 23 -394 47q-176 51 -176 248q0 174 264 322q279 156 654 155q131 0 195.5 -17t111.5 -58v-160q-12 -23 -45 -41q-137 -63 -342 -174q14 51 45 88q25 29 63 53q-37 16 -72.5 22.5t-80.5 6.5 q-217 0 -401.5 -85t-184.5 -196q0 -45 64 -71q102 -43 354 -43l143 6h32.5t33.5 2q27 0 39 -2q25 0 48 -12.5t23 -38.5q0 -129 -149 -150q-94 -12 -188 -22q-324 -61 -506 -207q-141 -113 -142 -211q0 -45 97.5 -65.5t234.5 -20.5q135 0 251 38t243 111q63 37 227 146 q0 -217 -170 -355q-133 -106 -356 -159q-158 -37 -299 -37q-244 0 -340 59q-113 70 -113 260zM684 1677q0 76 54.5 136.5t125.5 60.5q41 0 61.5 -29.5t20.5 -72.5q0 -63 -39 -119t-96 -72q-16 -4 -49 -4q-29 0 -49 18q-29 27 -29 82zM1167 1677q0 76 54.5 136.5t128.5 60.5 q39 0 59.5 -29.5t20.5 -72.5q0 -63 -39.5 -119t-96.5 -72q-10 -2 -24.5 -3t-22.5 -1q-39 0 -59.5 28.5t-20.5 71.5z" />
<glyph unicode="&#xa9;" horiz-adv-x="2113" d="M307 760q0 334 234.5 568.5t568.5 234.5t568.5 -234.5t234.5 -568.5q0 -332 -235.5 -567.5t-567.5 -235.5t-567.5 235.5t-235.5 567.5zM424 760q0 -289 200.5 -496t485.5 -207q283 0 482.5 206t199.5 497q0 293 -197.5 497.5t-484.5 204.5q-283 0 -484.5 -205.5 t-201.5 -496.5zM623 762q0 227 161 362q145 121 357 121q72 0 162 -31q18 -6 39.5 -15t37.5 -9q20 0 31.5 15.5t13.5 33.5h48l14 -305l-57 -2q-18 90 -74 151q-70 76 -172 76q-137 0 -211 -125q-63 -109 -64 -270q0 -221 119 -313q76 -59 189 -60q84 0 147 42t106 118 l60 -31q-51 -123 -162 -189.5t-246 -66.5q-209 0 -350 135q-150 143 -149 363z" />
<glyph unicode="&#xaa;" horiz-adv-x="1419" d="M160 37q0 231 143 516q137 274 359 504q102 106 202 192q131 113 240 172q133 74 233 74q88 0 150.5 -84t62.5 -188q0 -84 -51 -203q-61 -141 -131 -141q-31 0 -74 30.5t-43 63.5q43 63 78 139t35 160q2 25 2 41q0 29 -8 43t-37 14q-66 0 -213 -117q-61 -49 -137 -118 q-102 -96 -212 -244t-169 -262q86 29 167 49t148 20h54.5t54.5 2q33 0 80 -5t92 -23.5t45 -40.5q0 -51 -51 -117q-31 -39 -54 -39q-70 16 -148.5 27.5t-182.5 11.5q-82 0 -149 -4t-126 -16q-39 -90 -62.5 -176.5t-23.5 -161.5q0 -145 58.5 -218t179.5 -73q106 0 223 57 q150 72 330 240q68 63 129 131q70 78 86 78q20 0 20 -23q0 -76 -172 -249t-381 -302q-240 -150 -389 -149q-135 0 -235 88q-123 109 -123 301z" />
<glyph unicode="&#xab;" horiz-adv-x="1011" d="M139 494l375 284q16 12 45 13q33 0 33 -31q0 -25 -12 -41l-242 -266l-43 -306q-6 -49 -29 -61q-8 -4 -26 -4q-10 0 -17.5 11t-11.5 32zM502 494l377 284q18 12 43 13q33 0 32 -31q0 -31 -10 -41l-242 -266l-45 -306q-8 -51 -28 -63q-4 -2 -27 -2q-16 0 -20 16.5t-7 26.5z " />
<glyph unicode="&#xac;" horiz-adv-x="1662" d="M143 573v115h1348v-366h-115v249z" />
<glyph unicode="&#xad;" horiz-adv-x="1208" d="M258 326q0 8 6 18l53 86q12 16 33 16h15h524q23 0 30 -11t-1 -25l-56 -88q-8 -15 -47 -15h-524q-33 0 -33 19z" />
<glyph unicode="&#xae;" horiz-adv-x="1613" d="M410 1178q0 250 176 426t426 176q246 0 424 -176.5t178 -425.5q0 -250 -176 -426.5t-426 -176.5t-426 176.5t-176 426.5zM496 1178q0 -215 150.5 -365.5t365.5 -150.5q213 0 364.5 151.5t151.5 364.5t-151.5 364.5t-364.5 151.5t-364.5 -151.5t-151.5 -364.5zM717 846v35 h12q20 0 27 2q31 12 30 67v482q0 45 -16 56t-41 11h-12v35h315q111 0 164 -23q96 -41 96 -151q0 -68 -39 -119t-110 -59l123 -228q18 -35 38.5 -51t45.5 -22v-35h-209l-164 325h-21v-221q0 -45 21 -61q10 -8 37 -8h12v-35h-309zM956 1223q78 0 120 35.5t42 99.5q0 43 -18 74 q-29 47 -88 47l-56 -2v-254z" />
<glyph unicode="&#xaf;" horiz-adv-x="1009" d="M160 834q0 115 180 301q80 84 162 149q104 86 219 141.5t192 55.5q76 0 155 -57.5t79 -131.5q0 -61 -21 -137q-39 -145 -153.5 -363.5t-190.5 -334.5q-150 -229 -157 -242q4 -14 4 -39q0 -37 -49.5 -106.5t-81.5 -69.5q-29 0 -60 29q-37 35 -37 71q0 223 152 420 q141 156 285 314q154 186 153 378q0 72 -67 72q-98 0 -279.5 -152.5t-255.5 -287.5q25 4 45 4q31 0 45.5 -2t57.5 -15q-61 -37 -136 -100q-49 -41 -71 -41q-49 0 -109.5 47t-60.5 97zM530 1663q0 76 54.5 136.5t128.5 60.5q39 0 59.5 -30t20.5 -73q0 -63 -39.5 -118.5 t-96.5 -71.5q-10 -2 -24.5 -3t-22.5 -1q-39 0 -59.5 28.5t-20.5 71.5zM1014 1663q0 76 54 136.5t128 60.5q39 0 59.5 -30t20.5 -73q0 -63 -39 -118.5t-96 -71.5q-10 -2 -24.5 -3t-22.5 -1q-39 0 -59.5 28.5t-20.5 71.5z" />
<glyph unicode="&#xb0;" horiz-adv-x="688" d="M319 1311q0 96 67 162.5t163 66.5t162.5 -66.5t66.5 -162.5t-66.5 -163t-162.5 -67t-163 67t-67 163zM406 1311q0 -61 40.5 -102.5t102.5 -41.5q68 0 105.5 46.5t37.5 97.5q0 57 -43 100t-100 43q-49 0 -92 -35q-51 -42 -51 -108z" />
<glyph unicode="&#xb1;" horiz-adv-x="1576" d="M143 -29v115h1262v-115h-1262zM143 774v115h574v573h114v-573h574v-115h-574v-573h-114v573h-574z" />
<glyph unicode="&#xb2;" horiz-adv-x="1017" d="M160 821q0 76 84 193q41 57 138 163.5t241 198.5q160 102 262 103q92 0 170 -45q94 -55 94 -138q0 -78 -29 -172q-45 -147 -172 -383q-84 -158 -147 -258q-88 -135 -174 -268q12 -45 -40 -130t-87 -85q-29 0 -60 29q-37 35 -37 71q0 223 152 420q141 156 285 314 q154 186 153 378q0 72 -67 72q-98 0 -279.5 -152.5t-255.5 -287.5l43 4q27 0 48.5 -4t56.5 -13q-61 -37 -136 -100q-49 -41 -71 -41q-51 0 -111.5 47t-60.5 84z" />
<glyph unicode="&#xb3;" horiz-adv-x="497" d="M0 205q0 141 149.5 318t245.5 177q33 0 43 -24q4 -10 4 -47q0 -72 -71.5 -152t-202.5 -139q-10 -27 -10 -59v-25q0 -80 41 -111q31 -23 82 -22q39 0 76.5 15.5t109.5 62.5q18 14 25 18q18 14 34 14q20 0 21 -18q0 -68 -146.5 -167t-230.5 -99q-80 0 -125 73.5t-45 184.5z M412 854q0 66 49 115t110 49q37 0 53.5 -22.5t16.5 -63.5q0 -55 -35 -100.5t-84 -59.5q-12 -4 -41 -4q-25 0 -43 16q-27 23 -26 70z" />
<glyph unicode="&#xb4;" horiz-adv-x="735" d="M0 76q0 61 132 268t132 330q0 6 -7 14t-11 17.5t-4 23.5q0 18 6 37q18 61 82 61q31 0 63.5 -6t74.5 -11t65.5 -6t52.5 -1q33 -2 47 -2q57 0 89 18.5t62 57.5q4 4 31 53q15 24 35 24q18 0 23.5 -17t5.5 -38q0 -96 -45 -178q-63 -115 -189 -115q-29 0 -80 14.5t-63 16.5 l-37 2q-59 0 -96 -148.5t-88 -279.5q-35 -88 -60.5 -135t-50.5 -79t-45 -32q-12 0 -31 12q-57 45 -80 72q-14 18 -14 27z" />
<glyph unicode="&#xb5;" horiz-adv-x="1026" d="M-258 -229q0 51 51 116q76 92 152 183q129 160 245 342q70 113 144 227.5t106 114.5q23 0 52.5 -46t29.5 -77q0 -8 -30 -43l-150 -170q-27 -31 -38 -49.5t-11 -38.5q0 -45 8 -73t31 -28q35 0 119 60q70 49 100 80l364 360q23 23 35 23q31 0 41 -41t10 -90q0 -15 -8 -25 l-182 -195q-33 -37 -52.5 -81t-19.5 -76q0 -27 10.5 -53.5t26.5 -26.5q37 0 96 31q135 70 138 69q16 0 16 -16q0 -35 -160.5 -164t-222.5 -129q-51 0 -72 45q-12 27 -12 70q0 37 10.5 94t22.5 102q-115 -143 -199 -211q-76 -61 -127 -61q-37 0 -71.5 52t-47.5 138 q-76 -254 -110 -329q-82 -180 -189 -181q-53 0 -79.5 29t-26.5 68z" />
<glyph unicode="&#xb6;" horiz-adv-x="1536" d="M0 -174q0 68 40 105.5t99 37.5q47 0 74 -26q16 -16 33 -56q10 -25 17 -40t16 -15q33 0 102 113q104 170 344 653q-158 35 -241 148.5t-83 285.5q0 162 146 279q176 141 495 141h641h33q25 0 25 -8q0 -10 -5 -23.5t-18 -31.5q-23 -35 -52.5 -54.5t-84.5 -19.5h-301 q-281 -422 -522 -914q-254 -518 -285 -565q-123 -195 -276 -194q-96 0 -146.5 55t-50.5 129z" />
<glyph unicode="&#xb8;" horiz-adv-x="653" d="M0 172q0 201 178 399.5t350 198.5q68 0 99 -37q23 -27 22 -63q0 -104 -160 -233t-307 -154q-6 -78 27 -120t94 -42q31 0 66 12q59 20 141 74q39 25 81 56.5t50 31.5q12 0 12 -31q0 -23 -65 -88q-47 -47 -99 -88q-119 -102 -174 -126.5t-118 -24.5q-80 0 -136 57 q-61 66 -61 178zM182 358q78 20 178 95q119 88 119 155q0 53 -43 54q-70 0 -146.5 -99t-107.5 -205zM295 942q0 59 49 112.5t109 53.5q23 0 43 -16q29 -25 28 -70q0 -55 -34.5 -102.5t-83.5 -59.5q-8 -2 -21.5 -2h-19.5q-27 0 -46 19q-25 25 -24 65zM618 942 q0 61 48.5 113.5t109.5 52.5q29 0 49.5 -20.5t20.5 -65.5q0 -55 -35 -102.5t-84 -59.5q-6 -2 -20.5 -2h-20.5q-27 0 -47.5 20.5t-20.5 63.5z" />
<glyph unicode="&#xb9;" horiz-adv-x="2105" d="M225 172q0 182 115 455q100 240 250 452q113 162 197.5 264.5t109.5 102.5q86 0 111 -70q14 -41 14 -172v-129q0 -31 -33 -305q-18 -154 -18 -344q57 201 139 412q109 276 217 446q133 209 244 209q33 0 48 -13.5t15 -31.5l4 -186q-86 0 -176 -101q-141 -158 -332 -581 q-76 -170 -133 -357q-68 -223 -108 -223q-35 0 -79 44t-49 64.5t-5 36.5q0 18 2 29q27 209 33 262q29 223 43 350q23 209 22 281q0 59 -39 59q-98 0 -253.5 -406.5t-155.5 -635.5q0 -20 2 -42t6 -42h-23q-66 0 -106 29q-61 43 -62 143zM1226 71.5q5 14.5 9 22.5l31 62 q14 23 16 22h10h45h330h25q25 0 24 -10q0 -8 -12 -31l-31 -61q-14 -23 -16 -23h-10h-375l-37 2q-14 2 -9 16.5zM1356 508q0 190 129 387q121 184 219 184q59 0 115.5 -85t56.5 -175q0 -205 -123 -381q-113 -162 -207 -162q-57 0 -121 72q-69 78 -69 160zM1446 489 q8 -25 22 -32q16 -8 43 0q84 25 176.5 142.5t92.5 215.5q0 39 -4 48t-21 16q-18 6 -39 0q-78 -23 -168 -142t-102 -209q-4 -27 0 -39z" />
<glyph unicode="&#xba;" horiz-adv-x="784" d="M0 291q10 8 14 8l11 -4q6 -2 38 -2h31q18 96 73.5 172t176.5 162q66 47 159 86t163 39q55 0 86.5 -26t31.5 -60q0 -45 -79.5 -121t-129.5 -84h-16q-29 8 -33 44t-41 36q-47 0 -139 -81t-123 -157q117 14 182.5 40t126.5 50q16 0 27.5 -33.5t11.5 -62.5q0 -55 -147 -76 q-74 -10 -213 -10q12 -51 65.5 -80t116.5 -29q119 0 225.5 69t149.5 69l14 -13q0 -23 -53 -69q-45 -39 -125 -97q-66 -43 -129 -73q-100 -49 -162 -49q-41 0 -77 16q-125 53 -142 246q-35 0 -57 20q-37 33 -37 70z" />
<glyph unicode="&#xbb;" horiz-adv-x="1069" d="M115 113q0 33 10 43l242 264l43 307q4 25 10 37q14 27 45 27q20 0 29 -41l73 -369l-377 -285q-23 -14 -43 -14q-33 0 -32 31zM477 113q0 27 10 43l244 264l43 307q6 45 20.5 54.5t34.5 9.5q23 0 29 -41l72 -369l-377 -285q-18 -14 -43 -14q-33 0 -33 31z" />
<glyph unicode="&#xbc;" horiz-adv-x="622" d="M-57 -625q0 92 28 166q61 158 248 326l148 432q12 37 17 64.5t5 52.5q0 6 -7 11t-17 5q-31 0 -129 -55l-232 -133q-4 16 -6 33.5t-2 56.5q0 18 1 39.5t17 64.5q80 59 256 143.5t232 84.5q61 0 61 -72q0 -10 -5 -29.5t-15 -52.5l-178 -522l198 164q45 37 49 36 q8 0 14.5 -4t8.5 -6q0 -10 -10.5 -26.5t-20.5 -26.5l-317 -332l-88 -215q-27 -51 -95 -145q-88 -121 -124 -121q-12 0 -24.5 19.5t-12.5 41.5zM487 848q0 63 43 120.5t101 57.5q29 0 47 -12q31 -20 31 -70q0 -53 -30 -103.5t-75 -66.5l-41 -6q-31 0 -53.5 18.5t-22.5 61.5z " />
<glyph unicode="&#xbd;" horiz-adv-x="1531" d="M160 119q0 94 53 157.5t158 83.5h17h13q-4 -6 -6 -14t-2 -16q0 -23 31 -39.5t82 -16.5q164 0 446 66q350 82 351 176q0 55 -90.5 99t-284.5 85q-354 70 -422 106t-68 142q0 166 50.5 247t228.5 167t413 129q178 33 330 33q115 0 173.5 -34t58.5 -106q0 -96 -35 -133 q-16 -16 -109 -59q-63 -29 -190 -102q-43 -25 -105 -52q18 43 52 80q44 49 110 86q-72 31 -158 31q-197 0 -405.5 -100.5t-208.5 -180.5q0 -43 80 -67q33 -10 86 -21q322 -63 477 -143q184 -94 184 -236q0 -90 -79 -196q-70 -92 -179 -141q-156 -72 -347 -110t-367 -38h-43 q-125 0 -189 16q-106 27 -106 101z" />
<glyph unicode="&#xbe;" horiz-adv-x="751" d="M0 303q0 33 20.5 64.5t61.5 31.5q86 0 145 -118q27 -55 62 -56q51 0 98 54q55 63 55 159v84q-6 51 -24 96l-201 -178l-51 66l229 209q-2 10 -2 30q0 33 15 56q6 8 33.5 33.5t60.5 56.5q23 18 37 18q37 0 72.5 -109.5t35.5 -189.5q0 -94 -62.5 -208.5t-170.5 -208.5 q27 -10 51 -11q25 0 55 13q57 23 148 88q59 45 69 45l15 -11q0 -61 -187.5 -189t-253.5 -128q-80 0 -192 102q-119 109 -119 201z" />
<glyph unicode="&#xbf;" horiz-adv-x="546" d="M0 205q0 141 149.5 318t245.5 177q33 0 43 -24q4 -10 4 -47q0 -72 -71.5 -152t-202.5 -139l-10 -31q-2 -8 -2 -22q0 -20 2 -31q10 -80 47 -111q27 -23 76 -22q39 0 76.5 15.5t109.5 62.5q18 14 25 18q18 14 34 14q20 0 21 -18q0 -68 -146.5 -167t-230.5 -99 q-80 0 -125 73.5t-45 184.5zM195 854q0 66 49 115t110 49q37 0 53.5 -22.5t16.5 -63.5q0 -55 -35 -100.5t-84 -59.5q-12 -4 -41 -4q-25 0 -43 16q-27 23 -26 70zM479 854q0 66 47 115t113 49q70 0 70 -86q0 -55 -35 -100.5t-84 -59.5q-14 -4 -41 -4q-25 0 -43 16 q-27 23 -27 70z" />
<glyph unicode="&#xc0;" horiz-adv-x="1447" d="M-156 -90q0 49 78 157.5t148 165.5h88l254 273l-166 -19q-14 -4 -25.5 -5t-46.5 -1q-47 0 -47 35q0 25 60.5 107t91 105.5t75.5 35.5q61 18 154 18l4 -51l109 10q158 180 417 408q303 264 488 356q31 -18 42 -43.5t11 -58.5q0 -35 -2 -46t-10 -28l-273 -534l127 14 q20 2 27 2q10 0 16 -6t6 -21q0 -27 -19 -82t-46 -105t-57.5 -65.5t-87.5 -15.5h-39t-43 2q-78 -154 -103.5 -208t-25.5 -74q0 -16 11 -25.5t23 -9.5q41 0 98.5 63.5t94.5 63.5q20 0 20 -13q0 -16 -59 -84q-41 -47 -80 -86q-90 -86 -110 -100q-61 -45 -125 -45q-96 0 -119 72 q-6 18 -6 41q0 27 6 51q14 72 67 170l101 184l-424 -4l-455 -481q-29 -29 -106.5 -79t-110.5 -58q-18 -4 -25 0zM752 750l329 30l271 516q-164 -119 -310 -247q-174 -156 -290 -299z" />
<glyph unicode="&#xc1;" horiz-adv-x="1341" d="M217 553q29 57 55 92q16 20 45 47q39 16 104 37t120 35q162 207 299 297q100 66 186 65q16 0 26.5 -1t28.5 -7q-111 -76 -182 -141q-82 -76 -158 -172q49 10 120 14t130 4q47 0 101.5 -14t89.5 -31q63 -29 84 -73q14 -31 14 -78q0 -172 -88 -262q-43 -45 -162 -129 t-231 -146q-166 -90 -244 -90q-96 0 -186 88q-96 94 -97 203q0 90 54 182q33 57 116 160q-76 -16 -126 -34.5t-99 -45.5zM287 1008q0 176 219 295q176 94 471 143q225 37 438 37q57 0 125 -10q29 -55 47.5 -97.5t28.5 -79.5l-74 2q-168 0 -376 -25.5t-351 -70.5 q-117 -37 -158 -76q-27 -25 -26 -55q0 -23 4 -35l-246 -80q-18 -6 -38.5 -11t-26.5 -5q-23 0 -30 21.5t-7 46.5zM526 328q0 -51 32 -90t79 -39q53 0 145 45q72 37 144 73q84 43 146.5 99.5t62.5 95.5q0 57 -95 94q-117 47 -340 47l-65 -2q-59 -104 -84 -182t-25 -141z" />
<glyph unicode="&#xc2;" horiz-adv-x="1505" d="M217 1024q0 78 105 188q96 102 188 146q127 59 343 92t407 33q215 0 323 -103q82 -78 82 -180q0 -141 -154 -237q-123 -78 -358 -136q-61 -14 -414 -84v-10q195 -43 285 -69q162 -49 248 -107q104 -70 104 -160q0 -123 -257 -262t-490 -139q-186 0 -291 84 q-92 74 -92 168q0 90 147 282q51 68 125 150q-92 12 -119 20q-63 20 -63 60q0 66 160.5 76t169.5 12q86 86 174 172q98 88 276 108q-45 -45 -145 -137q-49 -45 -135 -143q360 45 530 131q139 70 139 156q0 74 -52 109.5t-155 35.5q-139 0 -354 -36t-309 -91v-59l-330 -95 q-31 -10 -53 -10q-35 0 -35 35zM514 348q0 -41 47 -78q57 -45 148 -45q143 0 302.5 72t159.5 137q0 92 -266 166q-77 22 -239 53q-43 -51 -88 -129q-63 -111 -64 -176z" />
<glyph unicode="&#xc3;" horiz-adv-x="1347" d="M215 1057q0 12 6 24l55 136q37 86 259 151q174 51 403 79t338 28l123 -2q82 0 243.5 7t212.5 7q-23 -178 -108 -238q-55 -39 -182 -39l-228 9q-90 -86 -182 -213q-111 -154 -299 -474q-80 -135 -108 -186q-80 -139 -135.5 -245.5t-86.5 -137.5q-23 -23 -65 -22h-33 q-57 0 -80 26q-49 61 -49 256q0 68 38 182.5t81 159.5q31 33 135 82q51 14 102 31q0 -29 -63.5 -109t-63.5 -188q0 -39 8.5 -74t38.5 -82q143 258 287 511t316 487q-164 0 -358 -38t-290 -104l103 -51q-35 -8 -81 -15t-79 -7q-27 0 -52.5 -1t-49.5 -1q-70 0 -86 2 q-70 10 -70 49z" />
<glyph unicode="&#xc4;" horiz-adv-x="1642" d="M246 1034q0 172 51 239.5t217 127.5q287 104 612 104q223 0 373 -75q246 -125 246 -435q0 -303 -234 -549q-195 -205 -510 -333q-276 -113 -495 -113q-74 0 -111 33q-51 45 -51 157q0 102 105 279q72 121 245 356q240 324 283 385l18 -133q-246 -322 -352 -492.5 t-106 -250.5q0 -61 36.5 -84t108.5 -23q311 0 614 195q340 217 340 508q0 145 -135 211.5t-440 66.5q-102 0 -181 -10t-214 -41q-39 -8 -70 -19.5t-41 -29.5l-2 -12q0 -10 30.5 -23.5t57.5 -19.5q-94 -33 -170 -55.5t-135 -34.5q-25 -4 -39 -5q-14 0 -21 5q-20 10 -25 27.5 t-5 43.5z" />
<glyph unicode="&#xc5;" horiz-adv-x="1404" d="M45 137q0 152 150 262q115 84 337 164q175 60 349 119v16q-201 20 -400 43q-174 45 -174 211q0 203 278.5 360.5t643.5 157.5q131 0 195.5 -17t111.5 -58v-160q-12 -23 -45 -41q-137 -63 -342 -174q14 51 45 88q25 29 63 53q-37 16 -72.5 22.5t-80.5 6.5 q-217 0 -401.5 -85t-184.5 -196q0 -45 64 -71q102 -43 354 -43l143 6h31.5t32.5 2q27 0 70.5 -5t43.5 -59q0 -18 -12 -30l-74 -95q-14 -18 -129.5 -19t-334.5 -73q-203 -66 -330 -186q-106 -102 -107 -176q0 -39 77 -65.5t153 -26.5q205 0 438 94q186 76 385 207 q-12 -150 -72 -240q-47 -74 -147 -133q-111 -68 -234 -111q-188 -68 -372 -67q-242 0 -340 61q-113 70 -113 258z" />
<glyph unicode="&#xc6;" horiz-adv-x="2297" d="M184 958q0 12 4 37q25 154 81.5 215.5t211.5 114.5q227 74 423 112t321 38q166 0 200 -7q113 -20 113 -184q0 -53 -17.5 -86t-58.5 -80l-366 -411l319 38q78 96 264 306q217 244 238 243q6 0 10 -17t4 -40q0 -41 -114 -176q-100 -119 -236 -316q31 4 58.5 4.5t43.5 0.5 h62l74 -2q90 106 178 202q129 139 223 221q121 104 170 105q39 0 39 -45q0 -49 -108.5 -137t-170.5 -88q-80 -111 -102 -144q-47 -68 -82 -133q82 -18 152 -55l-107 -223q-25 18 -81 36.5t-75 8.5q-29 -16 -57.5 -129t-28.5 -152q0 -78 24 -106.5t79 -28.5q84 0 139 61 q158 176 203 193h18q2 0 11 -10q2 -4 4 -7q0 -18 -64 -98q-74 -88 -131 -158q-72 -88 -152.5 -143t-150.5 -55q-76 0 -135 47q-74 57 -74 164q0 98 47 225q39 102 94 193l-82 2q-82 0 -184 -11q-98 -127 -123 -172q-45 -78 -45 -149q0 -43 4 -64l-180 -98q-6 16 -11 37.5 t-5 34.5q0 86 67 215q59 113 129 190q-217 -29 -263 -33t-134 -4q-188 -180 -266 -290q-53 -76 -53 -115q0 -10 8 -35q-51 0 -91 36t-40 66q0 51 141 215q39 45 113 121l-72 -2q-72 0 -103.5 12.5t-31.5 32.5q0 37 30.5 114t63.5 122q0 -39 35 -50.5t160 -11.5q87 0 157 29 l344 367q41 45 68 82q47 68 47 106q0 47 -32 58.5t-91 11.5q-141 0 -336 -54q-223 -61 -325 -145q-10 -16 -11 -37l6 -22l-350 -172q-27 23 -37 49q-4 20 -4 30z" />
<glyph unicode="&#xc7;" horiz-adv-x="1560" d="M188 182q0 51 86 149.5t136 98.5q16 0 18 -16q-4 -29 -42 -74t-38 -98q0 -70 90 -97q68 -20 187 -20q158 0 360 96q215 102 215 201q0 88 -186 129q-70 14 -187 31q-139 10 -200 14q-109 10 -109 47q0 49 42 73.5t118 24.5q223 0 530 113q326 119 326 229q0 47 -57 78 q-76 41 -242 41q-147 0 -342 -54t-211 -126v-29l-326 -119q-31 -12 -59 -12q-33 0 -33 33q0 180 223 330q276 186 748 186q260 0 371 -82q86 -63 86 -176q0 -137 -174 -250q-135 -88 -373 -158q-164 -49 -338 -77v-9q346 0 452.5 -63.5t106.5 -241.5q0 -199 -297 -352 q-264 -137 -516 -137q-186 0 -275.5 85t-89.5 232z" />
<glyph unicode="&#xc8;" horiz-adv-x="1767" d="M188 907v23q0 102 70 182q82 94 305 182q113 45 189 64q121 31 264 31h87t76 -4.5t62.5 -13.5t20.5 -42v-29v-24q-4 -16 -5 -23q-25 -133 -63 -184q-106 -113 -240 -262q-96 -106 -190 -213q-104 -129 -115 -225v-47q4 -39 33 -39q33 0 68 26q104 96 223 191 q274 219 489 424q33 31 254 256q84 86 113 86q23 0 46 -42t23 -75q0 -27 -40 -76q-63 -76 -127 -149q-98 -121 -205 -287q-125 -193 -180 -324q-41 -98 -41 -157q0 -41 14 -57.5t39 -16.5q61 0 180 88t154 88q37 0 37 -27q0 -18 -58 -65q-12 -8 -131 -98 q-201 -145 -266 -152h-23q-66 6 -108.5 80t-42.5 174q0 47 31.5 114.5t103.5 184.5q109 170 217 340q-76 -70 -348 -342q-223 -225 -344 -326q-174 -145 -258 -145q-51 0 -108.5 71.5t-57.5 131.5q0 61 57 163q47 84 105 154q98 119 245 256q109 100 218 203q94 94 94 135 q0 23 -30 30t-77 7q-170 0 -346 -78q-162 -72 -162 -125q0 -10 39.5 -25.5t100.5 -27.5q-12 -2 -91 -19q-119 -25 -163 -24h-31q-45 0 -68 8q-39 14 -39 51z" />
<glyph unicode="&#xc9;" horiz-adv-x="1945" d="M188 930q0 86 68 172q78 98 213 153q190 78 344 111q109 23 201 23q154 0 200 -10.5t46 -49.5q0 -162 -109 -301q-27 -35 -139 -156q-213 -231 -240 -262q-125 -152 -125 -241q0 -57 9.5 -72.5t31.5 -15.5q23 0 283 219q377 315 602 522q141 129 213 207q35 37 41 37 q27 0 48 -43t21 -74q0 -20 -139 -191q-117 -143 -231 -321q-82 -129 -137 -238q-84 -166 -84 -243q0 -74 55 -74q66 0 168 88t162 88q37 0 36 -27q0 -18 -194.5 -166.5t-282.5 -148.5q-63 0 -107 75t-44 179q0 49 30 115q25 53 113 192q104 166 211 332q-51 -45 -348 -332 q-233 -225 -363 -327q-186 -150 -268 -150q-45 0 -91 76t-46 123q0 59 57 163q47 88 102.5 155t209.5 208q178 164 237 225q113 115 113 160q0 23 -30 30t-77 7q-172 0 -346 -78q-162 -72 -162 -125q0 -16 62 -35q68 -16 76 -18q-61 -12 -137 -27.5t-117 -15.5 q-72 0 -104 18.5t-32 63.5zM1401 1423q0 41 2 53.5t12 32.5l209 183q-6 -18 -9 -35t-3 -31q0 -68 27.5 -93.5t89.5 -25.5q55 0 128.5 27t127.5 57q2 2 33.5 23.5t45.5 21.5q12 -6 13 -10q0 -78 -215 -193.5t-342 -115.5q-45 0 -76 20q-43 29 -43 86z" />
<glyph unicode="&#xca;" horiz-adv-x="1710" d="M188 934q0 55 20.5 113.5t57.5 121.5l223 134l-4 -19v-20q4 -10 17.5 -11.5t23.5 0.5q57 14 201 70q238 90 375 90q68 0 117 -72q41 -59 41 -106q0 -41 -19 -66l-186 -243l778 377q8 -27 8 -58q0 -49 -25.5 -92t-68.5 -76q-59 -45 -140 -92t-141 -70q-6 23 -21 42.5 t-30 19.5q-23 0 -46 -7t-50 -20l-371 -178l-84 -113l582 -385q145 -96 145 -294q0 -45 -10 -82q-8 -10 -16 -21l-865 580l-174 -215l-4 -11l4 -10l4 -12q-109 -131 -168 -180q-35 -29 -59 -29q-29 0 -29 29q0 41 58 125q76 111 291 360q-12 18 -15.5 37.5t-5.5 32.5 q2 31 2 39q0 25 23 55q10 14 41 45l192 94l223 299q37 49 37 66q0 27 -35 26q-45 0 -155 -45q-76 -31 -262 -114q-242 -109 -342 -150q-78 -31 -99 -31q-33 0 -36 25t-3 41z" />
<glyph unicode="&#xcb;" horiz-adv-x="1445" d="M45 129q0 150 41 256q35 92 113 184q45 55 129 83t141 28q4 0 9 -1t9 -3q0 -4 -45 -58q-33 -41 -57 -79q-33 -55 -51 -99q-35 -84 -43 -166q143 164 323 359q193 207 283 293q123 119 311 268q225 178 275 178q37 0 65.5 -62.5t28.5 -113.5q0 -31 -156 -264 q-98 -147 -164 -256q-88 -147 -143 -268q-63 -139 -63 -213q0 -45 17 -73t33.5 -34t37.5 -6q10 0 35 4q74 18 154.5 95t111.5 81h12h8q6 -2 10 -14v-15q-14 -49 -225 -210q-229 -174 -325 -175q-47 0 -84 33q-49 43 -50 123q0 109 78 285q109 246 391 678l17.5 31.5 t7.5 21.5q0 20 -35 20q-147 0 -610 -526q-51 -57 -141 -168q-115 -141 -193 -244q-51 -66 -77.5 -88t-53.5 -22q-27 2 -47 2q-49 0 -60 12q-18 23 -18 123z" />
<glyph unicode="&#xcc;" horiz-adv-x="2115" d="M45 129q0 170 68 313q53 115 120 162q25 18 118 47t126 29l10 -4q-66 -68 -120 -162q-61 -104 -76 -240q133 154 323.5 359t282.5 293q111 104 293 252q242 195 293 194q37 0 65.5 -62.5t28.5 -113.5q0 -57 -76 -168q-90 -127 -178 -254q-125 -191 -201 -373 q113 125 197 220q117 131 164 178q82 84 211 198q188 170 297 248q96 70 139 70q18 0 53 -35t35 -55v-23q0 -27 -6 -41q-135 -168 -273 -323q-59 -68 -118 -162q-100 -160 -129 -215q-70 -135 -70 -234q0 -82 29 -123q23 -33 59 -32q43 0 102.5 33.5t153.5 115.5 q43 37 45 39q27 20 41 21q23 0 23 -19q0 -14 -34 -54t-91 -93q-109 -100 -221 -166q-127 -74 -213 -74q-53 0 -99 47q-55 57 -55 158q0 135 82 297q51 100 129 203q59 78 117.5 155.5t58.5 100.5q0 16 -20 16q-23 0 -82 -47q-76 -61 -217 -205q-205 -211 -338 -401 q-168 -242 -195 -242q-33 0 -54.5 18.5t-21.5 69.5q0 172 101 375q59 119 202 330q129 190 154 256l2 14q0 20 -35 20q-63 0 -238.5 -151.5t-371.5 -374.5q-72 -80 -143 -168q-86 -106 -191 -244q-51 -66 -77.5 -88t-53.5 -22q-27 2 -47 2q-49 0 -60 12q-18 23 -18 123z" />
<glyph unicode="&#xcd;" horiz-adv-x="1765" d="M188 950q0 158 91 258q53 59 129 92q154 70 354 117q244 57 469 58q178 0 203 -5q111 -18 110 -186q0 -51 -18.5 -87t-57.5 -79l-366 -411l319 38q37 47 140.5 167t224.5 251t135 131q8 0 12 -16t4 -41q0 -47 -79 -141q-152 -178 -271 -351q31 4 59.5 4.5t45.5 0.5h59 l57 -2l-139 -256l-63 2q-45 0 -91.5 -2.5t-93.5 -8.5q-47 -61 -94 -123q-74 -104 -74 -198l2 -64l-178 -98q-6 16 -11 37.5t-5 34.5q0 86 57.5 199.5t136.5 205.5q-156 -20 -190 -24q-113 -12 -205 -13q-90 -82 -184 -190q-135 -156 -135 -215q0 -10 8 -35q-51 0 -91 36 t-40 66q0 35 52 107t200 229l-72 -2q-90 0 -117 27q-18 18 -18 72q0 35 35 94q27 45 59 88q0 -37 37 -50.5t158 -13.5q51 0 80.5 5.5t78.5 23.5l344 369q29 31 64 82q51 74 51 106q0 33 -24.5 45t-51.5 12q-143 0 -356 -51q-260 -61 -352 -147q-10 -20 -11 -37l5 -23 l-349 -172q-18 14 -30.5 34t-12.5 50z" />
<glyph unicode="&#xce;" horiz-adv-x="1273" d="M131 420q0 262 201 508q158 195 418 348q215 127 350 147q33 4 47 0q47 -10 96 -80q41 -57 62 -120q-61 -6 -105.5 -22.5t-83.5 -39.5q18 2 27 2q90 0 147.5 -57t57.5 -170q0 -315 -293 -622.5t-594 -307.5q-45 0 -80 9.5t-76 35.5q-80 53 -127 156.5t-47 212.5zM313 274 q0 -72 41 -116q35 -39 78 -39q111 0 295 143.5t320 331.5q150 207 149 352q0 61 -22.5 93t-79.5 32q-117 0 -287 -123q-139 -102 -252 -237l-49 20q-76 -78 -134.5 -215t-58.5 -242z" />
<glyph unicode="&#xcf;" horiz-adv-x="1656" d="M188 993q0 111 123 232q109 107 246 166q0 -23 12.5 -41.5t32.5 -18.5t41 10q131 68 188 95q96 45 187 45q82 0 117 -45q27 -33 26 -93q0 -23 -5 -44t-17 -50q-35 -90 -131 -256q-78 -135 -138 -223q-66 -98 -67 -102q-37 -57 -37 -82q0 -4 8 -19q10 0 80 74 q170 178 293 305q90 94 254 228q221 180 285 180q39 0 70.5 -59.5t31.5 -106.5q0 -68 -121 -236q-256 -362 -354 -530q-86 -147 -86 -213q0 -57 19.5 -84t47.5 -27q33 0 64 15q53 25 133 98q25 23 72 72q31 33 47 32q14 0 22 -10q2 -4 4 -6q0 -20 -61 -90q-76 -86 -152 -154 q-123 -109 -206.5 -158t-135.5 -49q-47 0 -83.5 43t-36.5 117q0 115 88 293q66 129 229 387q51 82 133 203q74 111 74 135l-12 10q-55 0 -269 -192q-184 -166 -309 -309q-141 -162 -291 -379q-90 -131 -123 -131q-14 0 -39 12q-35 18 -59 39q-31 27 -31 49q0 29 64 125 q131 201 205 323q117 197 178 320q115 225 114 317v31q-6 27 -51 27q-53 0 -180 -74q-70 -43 -80 -49q-78 -49 -250 -178q-98 -74 -135 -74q-12 0 -20.5 22.5t-8.5 77.5z" />
<glyph unicode="&#xd0;" horiz-adv-x="1585" d="M213 -61q0 12 4 36q12 53 90 185q72 119 131 196q-51 12 -94 50t-43 79q0 68 59 115q84 65 285 96l328 486q-160 0 -355.5 -39t-377.5 -109q82 279 303 371q164 68 540 68q272 0 412 -84q193 -117 193 -406q0 -250 -276.5 -467t-606.5 -217q-45 0 -94 3t-179 20l-67 -111 q-14 -25 -14 -49q0 -23 14 -45q-76 -127 -105 -174q-51 -80 -84 -80h-30q-18 6 -29 39q-4 25 -4 37zM725 596q0 -25 42 -40t77 -15q221 0 418 86q274 121 274 350q0 129 -162 176q-98 29 -282 29l-306 -469l64 4h33l30 2q20 0 26.5 -6t8.5 -21q0 -18 -17.5 -25.5t-49.5 -7.5 h-52q-37 0 -70.5 -7t-33.5 -56z" />
<glyph unicode="&#xd1;" horiz-adv-x="1265" d="M16 37q0 168 87 382t229 408q172 229 399 424q285 244 463 244q78 0 140.5 -56.5t62.5 -121.5q0 -115 -45 -236q-68 -178 -234 -376q-61 -74 -192 -183q-162 -133 -228 -133q-23 0 -46 32t-31 66q53 111 131 209q71 91 143 144q16 -8 37 -9q92 0 198 175q98 162 99 260 q2 27 2 41q0 27 -7 43t-30 16q-84 0 -299 -186q-238 -205 -401 -457q-203 -309 -203 -567q0 -145 58.5 -218t178.5 -73q106 0 224 57q150 72 329 240q68 63 129 131q70 78 86 78q20 0 21 -23q0 -76 -172 -249t-381 -302q-240 -150 -389 -149q-135 0 -236 88 q-123 109 -123 301z" />
<glyph unicode="&#xd2;" horiz-adv-x="2220" d="M188 1010q0 131 27 180q4 8 53 51l144 129l-2 -27q0 -12 7 -19t19 -7q14 0 27 6q98 31 203 86q184 98 233 98q70 0 117 -51q61 -66 61 -145q0 -41 -56 -199t-99 -252q338 338 512 473q123 94 180 94q25 0 54.5 -31.5t29.5 -54.5q0 -70 -58.5 -217t-177.5 -391 q203 186 408 375q174 160 256 225q94 76 127 76q25 0 61.5 -57.5t36.5 -81.5q0 -31 -41 -84q-74 -90 -139 -172q-209 -258 -293 -402q-109 -182 -109 -315q0 -72 20.5 -116t57.5 -44q43 0 142 64q82 53 139 104q6 4 31.5 30.5t42.5 26.5q27 0 26 -18q0 -88 -252 -252 q-238 -154 -307 -153q-57 0 -106 59q-55 66 -56 158q0 119 58 245q41 88 131 217q70 98 112 164q76 115 76 133q-57 -35 -115 -67q-139 -113 -317 -320q-80 -92 -213 -264q-123 -156 -164 -203q-72 -80 -104 -79q-29 0 -51 65q-14 41 -23 98v56q8 45 59 116q92 119 170 228 q109 150 144 200q72 106 117 198.5t45 150.5q0 49 -13 49q-72 0 -241 -189q-141 -156 -320 -397q-94 -127 -248 -350q-29 -45 -63 -88q-55 -70 -80 -70q-29 0 -75 68.5t-46 93.5q0 31 55 111q8 10 142 194q115 158 198 295q100 164 144 281q29 78 28 127q0 31 -4 42t-32 11 q-70 0 -228 -105q-240 -158 -344 -209q-68 -33 -90 -32q-12 0 -19.5 19.5t-7.5 64.5z" />
<glyph unicode="&#xd3;" horiz-adv-x="1521" d="M188 852q0 80 21.5 145.5t71.5 106.5q98 80 370 205q322 147 477 147q45 0 65.5 -18.5t20.5 -67.5q0 -61 -43 -146t-167 -266q-117 -168 -234 -335q-98 -143 -109.5 -177t-11.5 -49q0 -14 8.5 -22t40.5 -8q68 0 176 88q86 70 271 256q324 328 418 419q35 -6 61.5 -38.5 t26.5 -69.5q0 -20 -11 -31q-80 -92 -165 -221q-117 -174 -215 -360q-125 -240 -224 -500q82 76 185 139q121 76 198 90q33 6 49.5 7t16.5 -7q0 -10 -172 -151q-117 -96 -244 -224q-94 -94 -184 -208q-102 -131 -121 -131q-27 0 -55.5 24.5t-51.5 71.5q12 86 62 205 q74 178 221 424q63 109 127 219q109 193 109 206q-31 -25 -62 -49q-113 -123 -199 -204q-166 -156 -352 -285q-31 -20 -57.5 -31.5t-50.5 -11.5q-12 0 -43 24q-66 51 -66 82q0 78 123 289q94 160 182 281q137 190 172 241q127 186 127 238q0 14 -20 14q-70 0 -369 -166 q-53 -29 -368 -215q-2 16 -3.5 31.5t-1.5 38.5z" />
<glyph unicode="&#xd4;" horiz-adv-x="2041" d="M45 217q0 160 165 408.5t349 384.5q154 115 404.5 223t379.5 108q76 0 109 -69q20 -45 21 -111q0 -55 -123 -135q-115 -74 -228 -108q14 12 36 47.5t22 50.5q0 18 -33 22h-23q-94 -10 -270 -116q-145 -86 -264 -183q-186 -147 -293 -321q-84 -139 -84 -223 q0 -39 17.5 -50.5t50.5 -11.5h26q57 0 135 35q109 49 246 156q170 133 371 346q119 129 137 143q76 61 172 61l-256 -436q301 285 510 443q244 184 342 184q49 0 114.5 -95.5t65.5 -176.5q0 -131 -157 -349q-129 -178 -271 -301q-78 -70 -174 -131q-86 -55 -127 -55 q-45 0 -86 55.5t-41 100.5q0 119 150 254q135 123 209 122q18 -6 18 -14q0 -10 -72 -76q-45 -41 -77 -100q-25 -49 -48 -98q-35 -80 -34 -111q0 -31 6 -31q25 0 127 111q80 86 131 152q92 117 184 233q115 168 115 291v24q0 31 -55 31q-88 0 -357 -229q-205 -176 -481 -455 q-227 -229 -313 -334l-277 -491q-4 -6 -8 -15q-14 -18 -33 -18q-27 0 -48.5 83t-21.5 159q0 88 78 200q102 150 361 381l155 303q-199 -209 -430 -354q-221 -139 -336 -139q-43 0 -114.5 88t-71.5 137z" />
<glyph unicode="&#xd5;" horiz-adv-x="1505" d="M188 899q0 78 21 154q29 106 88 155q106 84 334 170q256 98 418 99q68 0 94 -25t26 -70l-28 -495l415 426q16 16 24.5 23t21.5 14q12 0 23 -11.5t11 -38.5q0 -43 -34 -100q-25 -39 -54 -72l-69 -20l-342 -360l-33 -422v-127q0 -37 19.5 -57.5t39.5 -20.5q37 0 83 56 t130 56q20 -6 21 -18q0 -59 -168 -179t-225 -120q-51 0 -78 47t-27 113l37 512l-617 -578q-20 -20 -35.5 -29.5t-37.5 -9.5q-25 0 -28 14.5t-3 32.5q0 61 68 154q59 80 135 143l133 50l389 360l23 391v72q0 43 -41 43q-47 0 -170 -45q-98 -37 -170 -72q-39 -18 -109 -63 t-70 -60q0 -6 38 -13t67 -15q-37 -27 -133 -60t-139 -33q-47 0 -48 29z" />
<glyph unicode="&#xd6;" horiz-adv-x="1767" d="M188 967q0 123 101 213q76 68 229.5 131t254.5 87.5t243 24.5q154 0 200 -11t46 -48q0 -127 -76 -248q-45 -72 -172 -207q-207 -221 -240 -262q-113 -139 -125 -244v-47q4 -20 12.5 -30.5t32.5 -10.5q31 0 56 21q4 4 45 49q78 84 182 166t211 166q158 129 332 297 l159 157q129 129 150 129q23 0 46 -41.5t23 -72.5q0 -29 -40 -76q-63 -72 -127 -143q-98 -121 -207 -293q-137 -217 -189 -348q-31 -80 -30 -136q0 -37 14 -61.5t33 -24.5q59 0 138 69t161 142q25 0 24 -73q0 -14 -115.5 -211t-138.5 -228q-166 -233 -309 -323 q-119 -76 -246 -76q-61 0 -96 27.5t-35 58.5q0 33 86 178q94 160 142 160l12 -10q-6 -16 -14 -25q-18 -25 -21 -26q-10 -16 -10 -33q0 -35 15.5 -48.5t47.5 -13.5q92 0 191 66q141 94 266 305q-47 -43 -106.5 -67.5t-92.5 -24.5q-59 0 -105 72.5t-46 154.5q0 70 129 306.5 t135 248.5q-76 -66 -322 -295q-205 -193 -313 -278q-158 -125 -231 -125q-59 0 -110.5 72.5t-51.5 128.5q0 84 96 223q106 152 299 327q158 141 199 183q125 125 125 176q0 20 -32 29.5t-75 9.5q-174 0 -348 -78q-160 -72 -160 -125q0 -12 30 -24.5t110 -28.5 q-70 -16 -149 -30.5t-130 -14.5q-61 0 -84 16q-29 23 -29 68z" />
<glyph unicode="&#xd7;" horiz-adv-x="1710" d="M188 897q0 172 234 322q258 166 620 165q119 0 162 -28q35 -23 35 -80q0 -92 -132 -286.5t-132 -268.5q0 -45 20 -45q29 0 97.5 32.5t121.5 67.5q211 139 353 285q100 106 200 213q20 0 47 -35t27 -59q0 -25 -39 -74q-115 -139 -227 -279q-100 -135 -162 -239 q-129 -223 -129 -361q0 -57 20.5 -95t43.5 -38q18 0 170 119q74 57 139 57q27 0 26 -12q0 -23 -32 -57q-41 -39 -54 -51q-111 -111 -221 -179q-90 -55 -143 -55t-104.5 53.5t-51.5 112.5q0 150 187 487q67 123 137 246q-74 -53 -227 -174q-127 -100 -185 -135 q-88 -53 -153 -53q-41 0 -76 47t-35 86q0 111 166 307q86 102 102 125q49 66 49 92q0 18 -28.5 35.5t-69.5 17.5q-139 0 -272 -49q-164 -59 -240 -168q45 -12 74 -26.5t47 -28.5l-303 -45q-33 -6 -47.5 4t-14.5 47z" />
<glyph unicode="&#xd8;" horiz-adv-x="2211" d="M188 991q0 123 84 207q63 66 188.5 120t241.5 85q166 45 312 45q152 0 199 -10.5t47 -48.5q0 -88 -41 -209q-61 -184 -201 -381q-55 -78 -128 -170t-73 -103q0 -18 23 -18q29 0 147.5 90t251.5 219q154 147 277 311q72 104 145 209q55 76 92 76q31 0 46.5 -53t15.5 -113 q0 -51 -23 -84q-68 -86 -147 -202q-203 -289 -277 -426q-66 -123 -65 -201q0 -39 6 -39q47 0 182 127q166 156 336 405q121 174 241 351q63 88 130 163q14 18 24 28.5t19 10.5q39 0 69.5 -48t30.5 -97q0 -14 -2 -21q-125 -174 -211 -313q-123 -197 -189 -354 q-82 -195 -81 -334q0 -74 69 -74q80 0 189 72q41 29 53 37q35 25 49 24q12 0 18 -12q0 -2 2 -8q0 -68 -186 -186.5t-272 -118.5q-39 0 -93.5 44t-54.5 85q0 86 53 226.5t166 361.5l-32 -35q-98 -106 -197 -213q-160 -168 -285 -279q-160 -141 -221 -141q-27 0 -58.5 42 t-31.5 87q0 72 113 313q82 174 151 301q-143 -147 -297 -297q-197 -190 -323 -303q-160 -139 -193 -139q-20 0 -54 53t-34 92q0 6 232 293q184 231 239 316q154 231 154 370q0 59 -5 70.5t-42 11.5q-186 0 -367 -84q-160 -74 -160 -118q0 -14 60 -33q41 -12 80 -19 q-66 -16 -129.5 -29.5t-124.5 -13.5q-94 0 -123 29q-14 14 -15 53z" />
<glyph unicode="&#xd9;" horiz-adv-x="2211" d="M188 991q0 127 88 213q74 72 232 135q94 39 203 66q168 43 301 43q156 0 200.5 -12.5t44.5 -46.5q0 -102 -61 -261q-68 -170 -178 -329q-55 -78 -128 -170t-73 -103q0 -18 23 -18q31 0 137 82q117 90 262 227q156 147 277 311q72 104 143 209q53 76 94 76q33 0 47.5 -51 t14.5 -115q0 -49 -29 -92q-70 -90 -141 -194q-203 -289 -277 -426q-66 -123 -65 -201q0 -39 6 -39q27 0 75 35q68 47 168 155q125 135 275 342q121 174 241 351q63 88 130 163q12 16 26 33q6 6 17 6q39 0 69.5 -48t30.5 -97q0 -14 -2 -21q-111 -152 -205 -307 q-123 -201 -190 -360q-84 -199 -84 -334q0 -74 65 -74q76 0 215 92q23 4 47 11q0 -18 -103.5 -196.5t-148.5 -242.5q-170 -240 -307 -325q-117 -74 -248 -74q-63 0 -97 27.5t-34 58.5q0 39 100.5 188.5t127.5 149.5l10 -4q-4 -20 -8 -25q-12 -12 -19 -20q-16 -23 -16 -45 q0 -37 16.5 -49.5t44.5 -12.5q104 0 211 80q125 94 248 291q-29 -27 -90.5 -58.5t-93.5 -31.5q-41 0 -94.5 41t-53.5 82q0 82 217 588l-30 -35q-215 -244 -375 -396q-141 -133 -225 -190q-70 -47 -103 -47q-27 0 -58.5 42t-31.5 87q0 53 72 221q86 203 190 393 q-145 -150 -295 -297q-188 -184 -323 -303q-160 -139 -193 -139q-20 0 -54 53t-34 92q0 20 131 166q119 131 229.5 292t182.5 306q86 176 86 258q0 25 -12.5 32t-38.5 7q-188 0 -365 -78q-162 -72 -162 -124q0 -14 60 -33q41 -12 80 -19q-66 -16 -129.5 -29.5t-126.5 -13.5 q-74 0 -105 16.5t-31 65.5z" />
<glyph unicode="&#xda;" horiz-adv-x="1193" d="M188 979q0 119 150 256q127 117 266 170q-10 -8 -14 -19.5t-4 -19.5q2 -16 2 -20q14 -2 28 -3q39 10 130.5 52.5t146.5 60.5q82 27 162 27q86 0 123 -45q27 -33 26 -80q0 -33 -37 -82q-115 -133 -217 -254q-152 -180 -237 -356q-100 -203 -101 -371q0 -72 20.5 -100.5 t53.5 -28.5q51 0 139 100q59 68 109 144q80 121 107.5 186.5t27.5 112.5q2 27 2 43q0 33 -11 44t-34 11t-61 -16.5t-56 -30.5q39 76 165 165t198 89q35 0 44 -31t9 -100q0 -66 -25 -138q-12 -35 -55 -131q-109 -238 -330 -432q-207 -182 -331 -182q-63 0 -111 45 q-59 55 -59 156q0 215 114 426q43 80 213 311q117 160 117 244q0 8 -17.5 12t-33.5 4q-51 0 -121 -27q-53 -20 -104 -49q-127 -72 -228 -166q-74 -70 -106 -69q-27 0 -43.5 21.5t-16.5 70.5z" />
<glyph unicode="&#xdb;" horiz-adv-x="1658" d="M188 268q0 96 91 271q76 145 208 338q115 164 232 307q-152 -109 -168 -119q-125 -82 -229 -82h-23q-18 4 -27 4q227 160 387 301q188 166 203 166q41 0 77 -57.5t36 -104.5q0 -23 -27 -55q-88 -92 -164 -180q-225 -258 -323 -465q-80 -168 -80 -307q0 -45 13.5 -82 t31.5 -37q66 0 190 137q141 154 205 332q-29 -8 -45 -8q-59 0 -78 41q-10 23 -10 80q0 47 139.5 151.5t208.5 104.5q29 0 53.5 -45.5t24.5 -98.5q184 123 281 199q115 90 207 198q41 53 54 67.5t21 14.5q39 0 76 -45t37 -90q0 -10 -68 -108q-182 -270 -317 -539 q-119 -236 -119 -332q0 -43 21.5 -69.5t46.5 -26.5q39 0 114 59q57 45 105 97q2 2 47 55q29 33 41 33q25 0 25 -17q0 -88 -217.5 -290.5t-311.5 -202.5q-47 0 -90 45t-43 104q0 90 37 207t123 277q100 184 233 395q45 72 45 78q-41 -33 -139 -105q-119 -86 -252 -157 q-90 -223 -319 -461q-238 -246 -379 -246q-66 0 -125.5 79t-59.5 189z" />
<glyph unicode="&#xdc;" horiz-adv-x="980" d="M160 268q0 152 198 453q166 237 332 477q-137 -119 -224 -167t-171 -48h-25q-18 4 -26 4q227 160 387 301q188 166 203 166q29 0 65.5 -40t36.5 -66q0 -68 -176 -277q-135 -160 -201 -252q-106 -147 -158.5 -290.5t-52.5 -243.5q0 -45 13.5 -82t31.5 -37q78 0 242 199 q178 217 178 383q0 49 -16 49q-23 0 -103 -37q-18 -6 -35 -12q0 57 155 156.5t194 99.5q27 0 51 -37t24 -74q0 -139 -143 -361q-131 -203 -312.5 -367.5t-283.5 -164.5q-66 0 -125 79t-59 189z" />
<glyph unicode="&#xdd;" horiz-adv-x="1628" d="M188 1004q0 242 306 362q223 88 507 88q350 0 506 -158q119 -121 119 -321q0 -27 -3 -57.5t-5 -45.5q37 -10 43 -14q45 -20 96 -65q2 -8 2 -27q0 -25 -7 -44.5t-21 -39.5q-72 49 -142 57q-90 -272 -307 -456q-176 -150 -414 -228q-188 -61 -356 -61q-139 0 -195 31 q-68 37 -67 133q0 43 16 112q55 -10 103.5 -17t91.5 -7q324 0 606 127q324 145 422 397q-35 6 -67.5 9t-61.5 3q-197 0 -334 -39q-102 -29 -180 -81q20 -16 42.5 -35t37.5 -45q-170 18 -246 39q-150 39 -150 112q0 76 214 136.5t413 60.5q104 0 157.5 -4t182.5 -23 q0 168 -205 236q-141 47 -370 47q-180 0 -306 -47q-66 -25 -147 -82q25 -10 54.5 -19.5t68.5 -15.5q-86 -63 -182 -92q-63 -18 -111 -19q-74 0 -92.5 18.5t-18.5 74.5z" />
<glyph unicode="&#xde;" horiz-adv-x="2535" d="M188 961v34q0 166 95 244q66 55 269.5 118.5t380.5 89.5t367 26h99q72 0 105.5 -39t33.5 -150q0 -51 -19.5 -89t-54.5 -77l-368 -411q119 16 212 25t177 9q96 193 278 357q150 135 336 229q156 80 262 96q33 4 49 0q45 -12 95 -80q41 -57 61 -120q-61 -6 -105 -22.5 t-83 -39.5q8 2 16 2h12q90 0 146.5 -58t56.5 -169q0 -313 -294 -621.5t-591 -308.5q-45 0 -79.5 9.5t-75.5 35.5q-78 53 -126 153.5t-48 215.5l6 65q-133 0 -283 -16q-246 -27 -264 -29q-121 -113 -225 -241q-94 -117 -94 -164q0 -10 8 -35q-51 0 -90 35t-39 67 q0 49 106 174q47 55 146 162l-72 -2q-72 0 -103.5 12.5t-31.5 32.5q0 37 30.5 114t63.5 122q0 -39 36 -50.5t159 -11.5q88 0 157 29l344 367q47 51 76 94q39 59 39 94q0 47 -30.5 58.5t-92.5 11.5q-152 0 -346.5 -55.5t-314.5 -143.5q-10 -16 -11 -37l6 -22l-350 -172 q-23 18 -30 36.5t-7 45.5zM1577 274q0 -80 45 -122q35 -33 74 -33q197 0 479.5 311t282.5 516q0 61 -20.5 93t-82.5 32q-117 0 -284 -123q-145 -106 -254 -237l-50 20q-72 -76 -131 -212t-59 -245z" />
<glyph unicode="&#xdf;" horiz-adv-x="1323" d="M-98 29q0 109 61 159q113 84 227 172q18 -25 60 -24q14 0 32.5 9t61.5 34l600 340l25 45q-49 -4 -338 -43q-123 -16 -185 -16q-193 0 -192 208q0 199 275.5 420t545.5 221q156 0 236 -141q57 -102 57 -219q0 -33 -22 -76q-76 -115 -142 -223q10 2 49 4t60 6h18 q8 -6 8 -20q0 -29 -43 -58q-104 -61 -206 -122q-70 -139 -105 -238.5t-35 -155.5q0 -41 23.5 -57t54.5 -16q35 0 98 49q25 18 93 80q49 51 63 65q37 39 55 39q29 0 29 -20q0 -59 -236.5 -255t-326.5 -196q-49 0 -76 30.5t-27 75.5q0 80 53.5 228.5t118.5 249.5l-831 -572 q-29 -18 -54.5 -35.5t-41.5 -17.5q-31 0 -37 17.5t-6 52.5zM440 887q0 -14 9.5 -31.5t44 -29t63.5 -11.5q55 0 102.5 6t75.5 8l281 33l149 285q12 20 19.5 45t7.5 51q0 47 -29.5 64.5t-66.5 17.5q-154 0 -382.5 -136t-267.5 -267q-6 -18 -6 -35z" />
<glyph unicode="&#xe0;" horiz-adv-x="946" d="M0 248q0 102 92 213q72 86 191 166q94 61 217 118q139 63 209 64q47 0 73.5 -24.5t26.5 -49.5q0 -18 -19.5 -36.5t-37.5 -34.5q14 -29 30 -56q12 -27 13 -53q0 -23 -21 -55q-33 -49 -55 -84q-29 -45 -57 -90q-27 -49 -27 -88q0 -43 22.5 -61.5t51.5 -18.5q37 0 145 67 q6 4 51 37q20 14 31 14l10 -12q0 -18 -127 -141q-82 -80 -137 -117q-68 -45 -121 -45q-43 0 -76.5 27.5t-33.5 81.5q0 76 36 157q23 51 48 103q-199 -203 -308 -281q-70 -49 -108 -49q-51 0 -85 83t-34 165zM117 231q0 -18 5 -34.5t21 -22.5q8 -4 29 0q96 23 264 170.5 t168 206.5q0 12 -10 19.5t-33 7.5q-137 0 -290.5 -116t-153.5 -231z" />
<glyph unicode="&#xe1;" horiz-adv-x="663" d="M0 248q0 170 113 395q139 279 352 377q45 20 160 45q47 10 104 39q8 4 37 30.5t41 26.5t20.5 -21.5t8.5 -41.5v-60q0 -37 -9 -53q-14 -33 -61 -51q-23 -10 -101.5 -23.5t-140.5 -29.5q-141 -39 -221 -101q-108 -82 -139 -219q94 84 217 141.5t205 57.5q70 0 94 -58 q16 -39 16 -135q0 -72 -28 -127q-37 -70 -152 -190q-152 -160 -250 -217q-55 -33 -98 -33q-61 0 -114.5 90t-53.5 158zM158 252q0 -25 8.5 -51.5t28.5 -26.5q27 0 96 45q49 33 94 68q92 74 158.5 155.5t66.5 118.5q0 33 -43 33q-59 0 -147 -43q-68 -33 -119 -74 q-72 -53 -107.5 -110.5t-35.5 -114.5z" />
<glyph unicode="&#xe2;" horiz-adv-x="772" d="M29 203q0 164 59 323q51 137 141 271q61 90 165 204.5t255 245.5q184 160 242 160q20 0 36.5 -22.5t16.5 -53.5q0 -72 -129 -266q-96 -145 -211 -287q-100 -125 -180 -213q-135 -147 -215 -198l-8 -78q-2 -41 -2 -60q0 -25 2 -36q0 -33 12 -56q20 -37 61 -37 q43 0 88.5 43t63.5 97q-27 33 -27 79q0 98 117 209q106 100 170 101q18 0 27.5 -15.5t9.5 -35.5q-2 -33 -2 -43q0 -45 -45 -132q-37 -70 -76 -118q37 -18 80 -19q47 0 81 17.5t52 27.5v-86q-37 -25 -76 -40t-82 -15q-57 0 -108 31q-113 -129 -160 -170q-106 -94 -194 -94 q-66 0 -107 51q-57 70 -57 215zM240 502q82 76 181 189.5t187 228.5q61 80 107 147q70 104 69 139q0 23 -20 23q-23 0 -70 -41q-55 -49 -157 -164q-90 -104 -150 -197q-106 -165 -147 -325z" />
<glyph unicode="&#xe3;" horiz-adv-x="626" d="M0 381q0 70 197.5 208t291.5 138q23 0 37 -25l31 -57q6 -10 6 -35q0 -61 -112.5 -182t-112.5 -197q0 -37 23.5 -49t58.5 -12q59 0 114.5 57.5t83.5 57.5l9 -11q0 -23 -70 -98q-53 -59 -98 -98q-68 -59 -113 -88q-84 -53 -153 -53q-51 0 -77 33.5t-26 90.5 q0 90 102.5 217.5t208.5 256.5q0 20 -30 20q-20 0 -41 -4q-66 -14 -156 -74q-37 -25 -96 -78q-39 -35 -58 -34q-10 0 -20 16z" />
<glyph unicode="&#xe4;" d="M0 281q0 164 297 331q270 154 451 154q49 0 82.5 -46t33.5 -159q0 -43 -20 -74l-307 -483l350 162q12 8 33 8q18 0 18 -18q0 -23 -20 -33l-441 -232l-47 -86q-113 -205 -129 -231q-117 -195 -197 -195q-16 0 -28 9q-45 31 -45 161q0 195 86 277q47 45 272 143 q41 78 60 111q29 51 104 178q-293 -252 -371 -252q-61 0 -121.5 104.5t-60.5 170.5zM98 -436v-35q63 8 113 88q4 6 74 137l55 103q-113 -37 -177.5 -121t-64.5 -172zM156 211q0 -23 10 -31q8 -8 24 -8q78 0 306.5 177t228.5 235q-4 6 -6 8q-10 10 -19 10q-51 0 -167.5 -49 t-201.5 -108.5t-122 -100.5q-53 -61 -53 -133z" />
<glyph unicode="&#xe5;" horiz-adv-x="653" d="M0 172q0 201 178 399.5t350 198.5q68 0 99 -37q23 -27 22 -63q0 -104 -160 -233t-307 -154q-6 -78 27 -120t94 -42q31 0 66 12q59 20 141 74q39 25 81 56.5t50 31.5q12 0 12 -31q0 -23 -65 -88q-47 -47 -99 -88q-119 -102 -174 -126.5t-118 -24.5q-80 0 -136 57 q-61 66 -61 178zM182 358q78 20 178 95q119 88 119 155q0 53 -43 54q-70 0 -146.5 -99t-107.5 -205z" />
<glyph unicode="&#xe6;" horiz-adv-x="1476" d="M0 61q0 57 23.5 125t52.5 68q8 0 28.5 -12.5t51.5 -12.5q119 0 278 131q150 123 184 222q6 12 7 26q0 10 -6.5 17.5t-22.5 7.5q-55 0 -172 -56.5t-231 -146.5q-20 23 -30.5 57.5t-10.5 65.5q0 35 10 70q66 53 209 102t233 49q74 0 90.5 -24.5t16.5 -108.5l-6 -47 q102 37 188 119q61 57 182 215q31 12 107 35q41 6 84 12q0 -18 -90 -131q-139 -172 -179 -226q-61 -84 -123 -180q-49 -78 -120 -200q121 88 292 222t240 181q113 76 160 76q31 0 31 -47q0 -74 -60 -148q-66 -82 -149 -82q-27 0 -39 3t-33 14q-70 -47 -133 -115 q-84 -90 -84 -145q0 -33 13.5 -40t43.5 -7q121 0 207 73.5t121 73.5l12 -12q0 -72 -162.5 -205t-226.5 -133q-45 0 -82 43q-45 53 -45 141q0 47 10 80q-147 -98 -221 -184q-43 -49 -112 -170q-39 -70 -78 -137.5t-62 -67.5q-16 0 -19 21.5t-3 39.5v25v65q0 33 2 42.5 t20 37.5l422 662q-43 -27 -74.5 -44.5t-76.5 -37.5q-121 -160 -287 -297q-201 -166 -330 -166q-33 0 -42 14.5t-9 46.5z" />
<glyph unicode="&#xe7;" horiz-adv-x="716" d="M-172 -547q0 90 47 163t145 157q2 2 230 182q2 8 2 29.5v33.5q0 51 -38 95.5t-95 54.5l37 137q115 43 237 117q168 100 168 166q0 27 -41 26q-43 0 -113.5 -21.5t-127.5 -47.5q-90 -41 -185 -111q-31 -23 -43 -22q-10 0 -14 35.5t-4 66.5q0 51 36.5 89t131 77t183.5 62.5 t146 23.5q78 0 115 -86q27 -61 27 -123q0 -63 -108.5 -161.5t-244.5 -170.5q43 -35 62.5 -82t19.5 -104q102 57 220 127q61 37 77 37q18 0 19 -31q0 -25 -135 -109q-115 -72 -183 -112q-51 -195 -235 -400q-176 -197 -281 -196q-27 0 -41 30.5t-14 67.5zM-70 -481 q0 -29 11 -29q49 0 150 128t136 241q-141 -111 -188 -156q-109 -106 -109 -184z" />
<glyph unicode="&#xe8;" horiz-adv-x="884" d="M0 276q0 98 117 271q127 186 231 186q35 0 60.5 -13t25.5 -32q0 -66 -119 -168q-63 -55 -168 -123q-12 -31 -12 -59q0 -53 19.5 -82t44.5 -29q33 0 112 60q63 47 99 82l364 360q23 23 35 23q25 0 38 -33t13 -80v-18q0 -14 -8 -25l-182 -199q-29 -33 -43 -57 q-25 -47 -25 -96q0 -37 12.5 -60.5t40.5 -23.5q20 0 53 13t64 30q47 27 70.5 44t25.5 17q16 0 17 -16q0 -35 -161 -164t-222 -129q-37 0 -58 25q-27 31 -26 90q0 31 10.5 91t20.5 105q-82 -106 -168 -184q-98 -88 -156 -88q-53 0 -89 86t-36 196z" />
<glyph unicode="&#xe9;" horiz-adv-x="921" d="M0 270q0 63 15.5 107.5t82.5 138.5q82 119 109 148q66 70 139 69q35 0 60.5 -13t25.5 -32q0 -66 -119 -168q-63 -55 -168 -123q-12 -31 -12 -59q0 -45 15.5 -78t46.5 -33t86 37q68 45 127 105l364 360q23 23 35 23q25 0 38 -33t13 -80v-18q0 -14 -8 -25l-182 -199 q-29 -33 -43 -57q-25 -47 -25 -96q0 -35 13.5 -59.5t41.5 -24.5q90 0 96.5 52t114.5 52q16 0 17 -16q0 -14 -22.5 -41t-63.5 -62q-127 -111 -197 -153q-59 -37 -100 -37q-37 0 -58 25q-27 31 -26 90q0 31 10 91t20 105q-63 -86 -141 -162q-113 -111 -174 -110q-47 0 -82 53 q-49 74 -49 223zM502 946q0 45 48 85t91 40q25 0 25 -22q0 -12 -5.5 -33t-5.5 -31q0 -25 16.5 -37t45.5 -12q39 0 91 44t89 44q15 0 21 -10q2 -4 4 -19q0 -47 -130 -129t-174 -82q-27 0 -49 13q-68 35 -67 149z" />
<glyph unicode="&#xea;" horiz-adv-x="899" d="M0 213q0 96 23.5 164.5t111.5 212.5q33 51 84 117q74 92 98 92q20 0 36 -48.5t16 -95.5q0 -35 -13 -51q-51 -45 -123 -137q-49 -63 -55 -74q-43 -66 -43 -123l4 -37q152 195 351.5 353.5t287.5 158.5q29 0 49.5 -30.5t20.5 -73.5q0 -76 -14 -131q-20 -82 -78 -127 q-43 0 -85 18.5t-42 44.5q0 8 18 23q8 4 12 8q14 14 21 35v23q-8 18 -33 18q-51 0 -158 -92q-80 -70 -137 -135q78 -27 150 -125q66 -90 110 -90q61 0 122 78.5t149 78.5q16 0 16 -20q0 -23 -74 -103q-63 -70 -96 -96q-47 -37 -94 -61q-76 -41 -129 -41q-111 0 -133 100 q-29 123 -144 166l-163 -201l-17 -12q-16 0 -32.5 56.5t-16.5 156.5z" />
<glyph unicode="&#xeb;" horiz-adv-x="894" d="M0 121q0 72 53 175t101 103q23 0 22 -12l-10 -29q-14 -35 -18.5 -73.5t-4.5 -73.5q0 -23 3.5 -37t11.5 -14q10 0 139 143q84 94 162 164q39 37 137 108q129 96 164 97q20 0 37.5 -41t17.5 -70q0 -14 -41 -63q-47 -57 -74 -95q-39 -53 -57 -86q-33 -55 -33 -94 q0 -20 15.5 -35.5t48.5 -15.5q61 0 112.5 65.5t92.5 65.5q16 0 16 -22q0 -20 -64 -91q-55 -59 -83 -84q-109 -98 -113 -100q-63 -49 -115 -49q-47 0 -77.5 39t-30.5 119q0 41 26 98q41 86 133 203q-150 -61 -233 -258q-68 -158 -262 -158q-29 0 -52.5 36t-23.5 85z" />
<glyph unicode="&#xec;" horiz-adv-x="1306" d="M0 143q0 63 62.5 165t103.5 102q8 0 12 -5.5t6 -7.5q0 -6 -17 -60t-17 -120q0 -55 12 -55q10 0 143 160q78 94 151.5 162.5t168.5 142.5q123 96 151 96q27 0 45.5 -25.5t18.5 -89.5q0 -23 -13.5 -47t-38.5 -53q-70 -86 -98 -141.5t-28 -87.5v-21q264 248 387 340 q86 66 118 66q25 0 46.5 -40t21.5 -73q0 -37 -51 -88t-66 -68q-39 -49 -55 -76q-39 -61 -39 -104q0 -41 25 -59q16 -12 38 -13q27 0 64 22.5t61 49.5q35 39 48.5 53.5t25.5 14.5q20 0 21 -19q0 -23 -31 -61q-10 -14 -49 -56q-74 -80 -148 -133q-96 -70 -164 -69 q-59 0 -83.5 28.5t-24.5 79.5q0 82 96 217q63 88 84 144q-133 -84 -262 -203q-39 -37 -172 -168q-70 -70 -94 -70q-20 0 -29.5 36t-9.5 89q0 45 88 174q53 78 76 129q14 33 14 52q0 20 -10 20q-20 0 -115 -121q-123 -156 -192 -227q-123 -125 -199 -125q-37 0 -59.5 41 t-22.5 102z" />
<glyph unicode="&#xed;" horiz-adv-x="972" d="M0 -31q0 113 88 252q82 131 182 199l150 280q-51 -43 -154 -112q-123 -84 -162 -92h-12l-6 8q0 6 109 94q90 74 192 174q70 70 114 120t79 50q47 0 61 -12t14 -33q-20 -33 -75 -127q-66 -113 -146 -287q61 10 129 11l58 -7q68 115 112 177q78 104 121 104q31 0 36 -43 t5 -70q0 -41 -4 -47q-37 -29 -105 -106q-33 -37 -65 -88q-47 -72 -53 -117v-33q6 -27 21.5 -38t39.5 -11q27 0 49 6q51 14 99 55q63 57 81 58q14 0 15 -23q0 -23 -84 -104q-59 -59 -96 -90q-57 -51 -103 -78q-66 -39 -121 -39q-53 0 -77.5 29.5t-24.5 62.5q0 57 30.5 136 t90.5 186l-31 4q-47 0 -101.5 -16.5t-93.5 -45.5q-90 -158 -178 -315q-86 -139 -141 -139q-27 0 -35 21.5t-8 45.5z" />
<glyph unicode="&#xee;" horiz-adv-x="739" d="M0 270q0 145 175 312.5t331 167.5q43 0 77.5 -19.5t34.5 -40.5q0 -8 -4 -24.5t-6 -26.5q41 -12 53.5 -44t12.5 -69q0 -33 -4 -48t-6 -23q-10 -51 -28 -90t-48 -91l-6 -16q0 -10 13 -22.5t34 -12.5q25 0 47 18.5t41 18.5q23 0 22 -14q0 -27 -69.5 -71t-137.5 -50h-40 q-66 -80 -133.5 -115t-135.5 -35q-109 0 -172 107q-51 88 -51 188zM141 188q0 -57 41 -77q20 -10 62 -11q49 0 98 27q35 18 80 59q-10 23 -15.5 35t-5.5 31q0 76 19.5 130t42 102t22.5 57q0 20 -30 20q-31 0 -97 -47q-51 -37 -92 -78q-63 -63 -94 -118.5t-31 -129.5z" />
<glyph unicode="&#xef;" horiz-adv-x="907" d="M0 193v55q0 59 35 119q8 14 86 118q63 86 76 101q53 59 118 59q41 0 57.5 -11t16.5 -30q0 -18 -18 -41q-49 -49 -64 -63q-162 -184 -162 -207q1 -37 15 -70q55 59 154.5 150.5t172.5 148.5q123 96 188.5 135t104.5 39q35 0 43 -24.5t8 -53.5q0 -70 -73 -159l-66 -78 q-41 -51 -59.5 -89t-18.5 -75q0 -61 64 -61q39 0 72.5 19.5t74.5 55.5q29 25 37 31q18 14 29 14q16 0 16 -26q0 -53 -164.5 -179t-240.5 -126q-49 0 -74 31.5t-25 80.5q0 29 9.5 66t42.5 88q25 39 75 100q35 43 35 60q0 12 -10 22t-33 10q-43 0 -100 -44t-143 -134 q-39 -43 -117 -153q-49 -72 -80 -72q-45 0 -63.5 62.5t-18.5 130.5z" />
<glyph unicode="&#xf0;" horiz-adv-x="954" d="M-143 -383q0 33 22 125q14 59 39 141q70 129 193 238l239 442l-317 -278q-31 -29 -43 -29q-16 4 -17 8v17q8 25 215 221q137 131 207 213q51 61 125 166.5t148 105.5q29 0 47 -10t18 -23l-4 -6q-84 -53 -187.5 -237.5t-158.5 -272.5q74 76 192 158q139 96 201 96 q39 0 66 -22q35 -31 35 -90q0 -104 -121 -242q-96 -111 -221 -197q61 -25 131 -24q104 0 200 80q14 12 41 43q18 20 29 20q18 0 18 -12q0 -18 -23.5 -47t-62.5 -68q-98 -92 -245 -145q-127 -45 -238 -45q-113 0 -221 80q-57 -125 -139 -320q-74 -176 -119 -176 q-20 0 -34.5 26.5t-14.5 63.5zM250 178q43 20 94 21q49 0 100 -31q80 55 143.5 134t76.5 128q4 20 0 31q-10 33 -52 33q-59 0 -174 -107q-100 -92 -188 -209z" />
<glyph unicode="&#xf1;" horiz-adv-x="694" d="M0 254q0 154 192.5 336t366.5 182q35 0 58.5 -14.5t23.5 -46.5q0 -45 -72 -162q-78 -127 -127 -127q-16 0 -18 28.5t-37 43.5q-8 4 -27 0q-61 -14 -148 -105.5t-87 -161.5q0 -47 37 -80q47 -43 135 -43q70 0 139 31q20 8 86 49q49 31 96.5 67t57.5 36q18 0 18 -21 q0 -14 -26 -47q-41 -49 -152 -143q-76 -66 -137 -101q-80 -45 -146 -45q-111 0 -178 117q-55 96 -55 207z" />
<glyph unicode="&#xf2;" horiz-adv-x="1331" d="M0 193q0 119 41 186q8 14 80 107.5t100 117.5q51 43 119 43q23 0 36 -12t13 -27q0 -23 -40 -66.5t-83 -91t-86 -96.5q-35 -43 -35 -69q0 -16 6.5 -35t8.5 -25q123 127 305 279q231 193 301 192q45 0 57 -28q6 -14 6 -50q0 -23 -7 -41t-21 -42q-43 -80 -84 -136 q-53 -72 -53 -80l12 -16q12 0 57 41q92 84 170 145q31 25 133 91q123 78 152 77q31 0 49 -38.5t18 -79.5q0 -23 -34 -56q-72 -66 -76 -71q-33 -37 -66 -93q-39 -66 -39 -102q0 -61 62 -61q72 0 100.5 60t114.5 60l14 -8v-18q-18 -63 -179 -184t-224 -121q-33 0 -60 16 q-37 23 -37 68q0 51 10.5 89t39.5 93q20 39 53 98q23 39 22 51q0 12 -18 13q-18 0 -109 -72q-72 -57 -104 -90q-74 -74 -147 -145q-72 -66 -115 -66q-16 0 -32.5 18.5t-16.5 51.5q0 14 11 50t49 96t77 122q14 25 14 33q0 33 -45 32q-72 0 -241 -178q-39 -43 -117 -153 q-49 -72 -80 -72t-51 33q-31 49 -31 160zM549 809q0 102 246 201q217 86 354 86q68 0 101.5 -29t17.5 -55l-60 -99q-31 14 -67.5 19.5t-102.5 5.5q-102 0 -237 -53q-162 -64 -232 -160q-20 18 -20 84z" />
<glyph unicode="&#xf3;" horiz-adv-x="882" d="M0 233q0 84 28.5 152t88.5 147q43 57 131 138q109 98 153 98q29 0 55.5 -24.5t26.5 -45.5q0 -55 -112.5 -175.5t-182.5 -145.5q-23 -39 -34 -64.5t-11 -54.5q0 -25 11.5 -39t21.5 -14q31 0 238 164q88 70 139 114.5t119 114.5q55 55 110 113q18 18 35 18q39 0 39 -78 q0 -29 -14 -61q-6 -14 -25 -45l-297 -471q-31 -47 -35 -60v-14l9 -6q12 0 41 22l280 242q4 2 19.5 14.5t19.5 14.5h18q6 -2 8.5 -7.5t2.5 -7.5q0 -12 -17 -28l-360 -377q-82 -86 -230 -264q-80 -98 -108 -99q-18 0 -23.5 43t-5.5 95q0 23 23.5 62.5t52.5 84.5l193 350 q10 20 10 33q0 8 -6 10t-17 -6q-129 -98 -189.5 -137t-86.5 -39q-35 0 -77 96.5t-42 136.5z" />
<glyph unicode="&#xf4;" horiz-adv-x="1314" d="M0 233q0 94 31 160q45 94 170 195q88 70 207 127q135 66 206 65q41 0 63.5 -26.5t37.5 -124.5l143 311q12 33 35 33q25 0 51.5 -37t26.5 -70q0 -8 -4 -20l-197 -361q59 53 168 119q131 80 188 80q41 0 68 -49q20 -39 20 -96q0 -51 -16 -109.5t-61 -136.5q29 0 63.5 7 t73.5 26q63 33 72 32q8 -2 17 -7t9 -23q0 -14 -9 -25.5t-47 -34t-85 -39.5q-72 -25 -164 -32q-84 -90 -166 -154q-125 -96 -209 -96q-35 0 -47 14t-12 53q0 90 113.5 174t257.5 84q29 55 43 99.5t14 77.5q0 39 -35 51q-14 4 -43 0q-80 -16 -178 -96t-129 -140l-373 -749 q-4 -8 -8 -19q-10 -20 -27 -20q-10 0 -20 6q-29 18 -29 51q0 8 7 37t14.5 168t300.5 471l43 100q-186 -160 -310 -239q-109 -70 -163 -70q-63 0 -87 66.5t-24 166.5zM164 205q0 -35 20 -35q29 0 116 47t134 84q127 106 172 161.5t45 96.5q0 35 -21.5 48.5t-47.5 13.5 q-53 0 -132 -47.5t-149 -114.5q-86 -82 -117 -152q-20 -47 -20 -102z" />
<glyph unicode="&#xf5;" horiz-adv-x="802" d="M0 27q0 37 39 102.5t80 75.5l80 12l139 137q8 51 8 99q0 76 -12 105.5t-43 29.5q-18 0 -41 -14.5t-31 -20.5l-123 -90q-6 -6 -13 -8t-13 -2q-10 0 -17 10q-4 6 0 20q12 41 158.5 169t200.5 128q43 0 69 -32q39 -47 39 -144l-2 -61l211 155q18 12 27 17q20 10 30 10 q16 0 17 -16q0 -23 -21 -47q-27 -27 -30 -31l-238 -215l-16 -211q-4 -35 5 -52.5t34 -17.5q27 0 87 46t78 46q20 0 21 -22q0 -35 -166 -164t-201 -129q-12 0 -20 6q-27 18 -27 62q10 66 19.5 130t9.5 132q-66 -86 -156 -154q-119 -88 -168 -88q-14 0 -14 27z" />
<glyph unicode="&#xf6;" horiz-adv-x="913" d="M0 233q0 121 102 297q119 203 244 203q86 0 86 -45q0 -43 -59 -113q-78 -90 -228 -178q-10 -35 -10 -59q0 -49 12.5 -79t32.5 -30q39 0 123 56q72 47 109 84l360 360q16 16 24.5 18.5t12.5 4.5q25 0 38 -35t13 -78v-18q-6 -23 -8 -25l-184 -199q-35 -39 -52.5 -77.5 t-17.5 -75.5q0 -31 13.5 -57.5t50.5 -26.5q70 0 107.5 52t96.5 52q12 0 14.5 -9t4.5 -19q0 -137 -97 -328q-113 -221 -284 -352q-43 -33 -88 -33q-31 0 -62 14q-43 78 -43 187q10 55 69.5 84.5t139.5 29.5q-12 -18 -22.5 -40.5t-10.5 -43.5q0 -18 1.5 -37.5t7.5 -42.5 q76 66 123 163t63 208q-37 -31 -92 -60.5t-90 -29.5q-51 0 -72 45q-12 27 -12 70q0 41 10 94t27 102q-104 -123 -181 -190q-92 -82 -149 -82q-43 0 -78 55q-45 70 -45 184z" />
<glyph unicode="&#xf7;" horiz-adv-x="696" d="M29 348q0 74 35.5 116t35.5 68q0 8 -8 17q-20 18 -20 33q0 59 80.5 149t142.5 90q20 0 20 -22l-6 -31q0 -37 45 -37l105 12q61 12 83.5 16.5t39.5 4.5q25 0 39 -23q23 -35 22 -75q0 -45 -57.5 -100.5t-69.5 -69.5q-72 -88 -100.5 -145.5t-28.5 -94.5q0 -78 80 -78 q57 0 106.5 57.5t102.5 57.5q10 0 14 -6t6 -15q0 -16 -80 -92q-59 -55 -96 -86q-59 -45 -123.5 -71.5t-126.5 -26.5q-41 0 -69 31q-35 37 -35 100q0 78 65 170q14 18 80 98q27 31 68 78q49 55 49 76q0 20 -28.5 26.5t-47.5 6.5q-113 0 -143 -19q-20 -12 -47 -76 q-35 -82 -86 -122q-24 -9 -47 -17z" />
<glyph unicode="&#xf8;" horiz-adv-x="1261" d="M0 244q0 141 123 309q113 156 201 178q8 2 22 2q20 0 31 -2q20 0 39.5 -5t19.5 -38q0 -66 -109.5 -163t-176.5 -113q-10 -45 -13.5 -67.5t-3.5 -41.5q0 -23 12.5 -43t28.5 -20q41 0 209 149q145 129 242 236q68 76 84 92q51 53 71 53t41 -24.5t21 -49.5q0 -41 -27 -75 q-88 -82 -156 -154q-127 -137 -127 -191q0 -14 11.5 -30.5t19.5 -16.5q18 0 33 9q47 23 92 55q55 41 148 123q113 102 172 168q53 66 106 131q23 23 41 22q31 0 50.5 -28.5t19.5 -59.5q0 -25 -42 -68.5t-85 -86.5q-76 -82 -111 -136q-41 -63 -41 -106q0 -51 31 -76 q23 -18 55 -18q37 0 90.5 39t108.5 82q31 0 31 -15q0 -57 -143.5 -182t-223.5 -125q-49 0 -78 23q-47 35 -47 116q0 33 7 68t20 78q-61 -88 -140 -158q-92 -84 -149 -84q-45 0 -82 53t-37 131q0 19 2 29q-90 -113 -150.5 -163t-105.5 -50q-49 0 -92 78t-43 166z" />
<glyph unicode="&#xf9;" horiz-adv-x="1282" d="M0 244q0 141 123 309q113 156 201 178q8 2 22 2q20 0 31 -2q20 0 39.5 -5t19.5 -38q0 -66 -109 -163t-177 -113q-2 -6 -9.5 -50.5t-7.5 -58.5q0 -35 13.5 -50t31.5 -15q20 0 68 32q55 39 135 111q55 47 76 65q33 29 53 52l72 84l43 43q57 63 77 86q55 59 78 59 q20 0 41 -24.5t21 -49.5q0 -55 -74 -125q-86 -82 -92 -88q-94 -98 -125 -157q-16 -33 -16 -64q0 -33 30 -33q29 0 117 64q106 78 199 162q66 59 172 192q72 90 102 90q31 0 50.5 -28.5t19.5 -59.5q0 -27 -49 -76q-86 -88 -121 -129q-41 -51 -72 -102q-37 -61 -37 -98 q0 -84 88 -84q41 0 78 20q6 4 59 41q33 25 52 37q6 2 12 6q12 0 14 -9t4 -19q0 -137 -96 -328q-113 -225 -285 -352q-43 -33 -88 -33q-31 0 -61 14q-43 78 -43 187q8 53 58 84.5t124 31.5q18 -2 27 -2q-12 -18 -22.5 -40.5t-10.5 -43.5q0 -18 1 -37.5t7 -42.5q72 61 123 168 q45 94 64 203q-37 -31 -92.5 -60.5t-90.5 -29.5q-39 0 -68.5 42t-29.5 107q0 25 8 64t19 74q-61 -88 -140 -158q-92 -84 -149 -84q-45 0 -82 53t-37 131q0 18 2 29q-90 -113 -150.5 -163t-105.5 -50q-49 0 -92 78t-43 166z" />
<glyph unicode="&#xfa;" horiz-adv-x="808" d="M0 637v16q6 53 72 95q82 51 207 51l88 -6q61 -12 106 -19.5t96 -7.5q33 0 50.5 4t29.5 8q14 0 31.5 -39t17.5 -75q0 -25 -68.5 -62t-158.5 -133q-57 -59 -106.5 -145t-49.5 -136q0 -33 9.5 -51t33.5 -18q27 0 57.5 18.5t49.5 40.5q-10 35 -10 64q0 84 55 157.5t119 73.5 q39 0 59.5 -28.5t20.5 -63.5q0 -41 -22.5 -97.5t-53.5 -99.5q23 -14 37 -14q31 0 52 11.5t40.5 31.5t32.5 20l14 -10q4 -8 0 -28q-14 -49 -57 -91.5t-88 -42.5t-69.5 6.5t-47.5 24.5q-55 -47 -97 -70.5t-83 -23.5q-59 0 -103.5 66.5t-44.5 148.5q0 156 107 291 q39 49 100 104q45 41 45 47q0 4 -11 7.5t-34 3.5q-117 0 -178 -37q-47 -29 -47 -62l6 -24q-14 -2 -30.5 -3t-24.5 -1q-72 0 -109 24.5t-43 73.5z" />
<glyph unicode="&#xfb;" horiz-adv-x="1044" d="M0 471q0 16 42 29.5t67 25.5q47 25 206 138q63 45 134 106q39 35 55 35q29 0 51 -25q31 -35 45 -100q-84 -51 -104 -64q-88 -55 -140 -120q-61 -78 -88 -134q-35 -72 -35 -141q0 -55 13.5 -77.5t32.5 -22.5q14 0 29.5 12t27.5 29q0 154 76 239q61 70 135 70 q35 0 45 -26.5t10 -63.5q0 -31 -4 -47q88 49 166 170q139 217 184 217q18 0 38 -40t20 -69q0 -33 -37 -71q-98 -106 -105 -113q-43 -47 -67.5 -97t-24.5 -91t10.5 -63.5t44.5 -22.5q57 0 111.5 50t81.5 50q25 0 24 -14q0 -59 -152.5 -175t-199.5 -116q-61 0 -88 49 q-16 31 -16 61q0 113 49 207q-20 -18 -35 -24q-39 -16 -47 -21q-51 -78 -145.5 -149.5t-145.5 -71.5q-53 0 -98 86t-45 178q0 47 10 86t45 109q-25 -6 -72 -13.5t-77 -7.5q-27 0 -27 33z" />
<glyph unicode="&#xfc;" horiz-adv-x="706" d="M0 471q0 18 44 31.5t67 23.5q47 20 100 58q33 20 104 75q59 45 129 107q45 39 60 39q29 0 51 -25q31 -35 45 -100q-53 -31 -104 -62q-78 -49 -138.5 -118.5t-92.5 -137t-32 -141.5q0 -53 13.5 -76.5t32.5 -23.5q16 0 41.5 20.5t33.5 36.5q-8 27 -8 64q0 94 63.5 162.5 t122.5 68.5q35 0 52.5 -26.5t17.5 -65.5q0 -51 -21.5 -105.5t-52.5 -91.5q23 -14 39 -14q31 0 52.5 11.5t41 31.5t31.5 20l15 -10q4 -8 0 -28q-14 -45 -50 -84q-45 -49 -98 -50q-43 0 -71.5 9.5t-45.5 21.5q-29 -29 -73 -55q-59 -37 -93 -37q-51 0 -98 72q-53 80 -53 186 q0 63 9 103.5t40 97.5q-23 -6 -70 -13.5t-77 -7.5q-27 0 -27 33z" />
<glyph unicode="&#xfd;" horiz-adv-x="804" d="M0 100q0 18 78 103q39 43 49 43q20 0 45 -29t66 -29q29 0 65.5 15.5t73.5 40.5q-27 0 -65 15t-46 38q-4 10 0 37q6 23 20.5 57.5t26.5 34.5q6 0 13 -6q29 -31 44 -41t49.5 -24.5t63.5 -22.5q57 45 115 108q78 88 78 135q0 27 -22.5 40.5t-49.5 13.5q-82 0 -221 -70 q-53 -27 -94 -53q-57 -37 -68 -37q-18 0 -59 57.5t-41 73.5t88 66q33 18 110 57q59 27 123 47q88 27 154 27q98 0 145 -88q35 -63 35 -150q0 -47 -33.5 -108.5t-107.5 -157.5q20 -8 49 -13.5t45 -3.5q12 4 16 0l5 -8q0 -23 -32 -58.5t-61 -35.5q-31 0 -57.5 9.5t-44.5 15.5 q-86 -90 -186.5 -149.5t-178.5 -59.5q-49 0 -119.5 39t-70.5 71z" />
<glyph unicode="&#xfe;" horiz-adv-x="1095" d="M0 193q0 115 43 186q47 66 78 110q57 86 104 121t90 35h25q25 0 37 -10t12 -29q0 -18 -27 -49q-41 -45 -69 -76q-55 -61 -94 -106q-53 -61 -54 -82q0 -37 15 -70q53 57 115.5 115.5t158.5 140.5q78 96 201 180q137 94 227 95q43 0 78 -23.5t35 -40.5q0 -8 -4 -24.5 t-6 -26.5q41 -12 53 -44t12 -69q0 -33 -4 -48t-6 -23q-10 -51 -27.5 -90t-48.5 -91l-6 -16q0 -35 45 -35q23 0 49.5 18.5t40.5 18.5q23 0 23 -14q0 -27 -70 -71t-137 -50h-41q-121 -150 -268 -150q-98 0 -154.5 78t-56.5 217v39q-80 -80 -193 -225q-66 -84 -94 -84 q-33 0 -53 35q-29 49 -29 158zM498 238q0 -94 39 -123q18 -14 63 -15q35 0 80 18.5t98 67.5q-10 23 -15 35t-5 31q0 39 9 82t24.5 83t35.5 83q14 29 15 41q0 20 -27 20q-33 0 -92 -41q-43 -31 -80 -63q-63 -59 -96 -103q-49 -66 -49 -116z" />
<glyph unicode="&#xff;" horiz-adv-x="868" d="M-143 -158q0 29 50 108t77 101q16 -18 43 -26q8 -2 24 -5q51 0 137 80q45 41 123 133q-92 -43 -166 -43q-59 0 -75 21q-25 33 -25 162q0 49 33 100q51 80 188 197q82 72 188.5 124t159.5 52q51 0 71 -46t20 -157q0 -51 -29 -99t-113 -128q72 20 127 52t105 62 q6 -18 6 -24v-35q0 -49 -5 -63.5t-57 -45.5q-59 -39 -90 -80.5t-31 -84.5t46 -43q33 0 124 61q43 29 58 29q23 0 22 -27q0 -45 -140 -131t-196 -86q-43 0 -65.5 18.5t-26.5 37t-4 36.5t5 46t33 83t58 92q-14 -10 -41.5 -24.5t-46.5 -20.5q-168 -252 -292 -360 q-113 -96 -209 -96q-35 0 -60.5 8t-25.5 22zM172 410q0 -25 21.5 -36.5t54.5 -11.5q72 0 105.5 3.5t78.5 19.5q88 96 123 154q25 41 25 69q0 16 -15.5 21.5t-32.5 5.5q-90 0 -225 -81t-135 -144z" />
<glyph unicode="&#x152;" horiz-adv-x="2039" d="M188 942q0 90 37 178q49 115 137 162q135 66 310 115q279 78 557 78q178 0 203 -5q111 -18 110 -186q0 -51 -18.5 -87t-57.5 -79l-366 -411q115 16 151 20q102 14 152 14q336 406 420 500q98 111 121 111q12 0 17 -17.5t5 -44.5q0 -317 -143 -461q-135 -92 -271 -182 q-145 -115 -145 -362q0 -57 17.5 -91t39.5 -34q78 0 238 213q170 225 170 375q0 49 -19 49q-23 0 -102 -37q-18 -6 -35 -12q0 35 143.5 145.5t206.5 110.5q27 0 51.5 -37t24.5 -74q0 -137 -145 -361q-133 -205 -309 -364q-184 -168 -287 -168q-63 0 -122.5 79t-59.5 189 q0 55 16 106.5t43 100.5l-420 -35q-90 -82 -184 -190q-135 -156 -135 -215q0 -10 8 -35q-51 0 -91 36t-40 66q0 35 52 107t200 229l-72 -2q-90 0 -117 27q-18 18 -18 72q0 35 35 94q27 45 59 88q0 -37 37 -50.5t158 -13.5q51 0 80.5 5.5t78.5 23.5l344 369q29 31 64 82 q51 74 51 106q0 33 -24.5 45t-51.5 12q-143 0 -356 -51q-260 -61 -352 -147q-10 -20 -11 -37l5 -23l-349 -172q-41 31 -41 76z" />
<glyph unicode="&#x153;" horiz-adv-x="1134" d="M0 -31q0 113 88 252q82 131 182 199l150 280q-51 -43 -154 -112q-123 -84 -162 -92h-12l-6 8q0 10 92 84q78 61 168 145q100 92 174 182q23 27 60 27q74 0 73 -22q0 -14 -49 -101q-100 -174 -180 -336q35 6 65.5 8.5t73.5 2.5l49 -7q45 78 121 164q94 106 141 107 q66 0 93 -111q-125 -70 -209 -176q-96 -123 -96 -250q0 -53 13 -76.5t32 -23.5q16 0 41.5 20.5t33.5 36.5q-8 27 -8 64q0 100 74 170q63 59 129 59q18 0 36.5 -23.5t18.5 -66.5q0 -45 -20.5 -97.5t-53.5 -99.5q23 -14 37 -14q31 0 52.5 11.5t41 31.5t31.5 20l15 -10 q4 -8 0 -28q-14 -49 -57.5 -91.5t-88.5 -42.5t-69.5 6.5t-47.5 24.5q-47 -39 -92 -65.5t-73 -26.5q-57 0 -103.5 85t-46.5 216q0 33 10.5 67.5t14.5 47.5q-129 0 -220 -60q-90 -158 -178 -315q-86 -139 -141 -139q-27 0 -35 21.5t-8 45.5z" />
<glyph unicode="&#x160;" horiz-adv-x="1648" d="M45 145q0 111 28.5 195t100.5 188q47 70 107 103q80 45 213 45q-53 -74 -105 -146q-76 -117 -92 -256q143 164 324 359q193 207 282 293q123 119 311 268q225 178 275 178q37 0 65.5 -62.5t28.5 -113.5q0 -31 -49 -106q-68 -104 -256 -342q-109 -141 -178 -304 q-76 -176 -76 -309q0 -45 13.5 -83t31.5 -38q90 0 251 222.5t161 359.5q0 12 -2 31.5t-17 19.5q-23 0 -102 -37q-18 -6 -35 -12q0 37 142.5 145.5t207.5 108.5q27 0 51.5 -35t24.5 -76q0 -135 -140.5 -351t-312.5 -374q-182 -168 -286 -168q-66 0 -125.5 79t-59.5 190 q0 131 140 393q115 215 247 391q20 27 46 67t26 52q0 20 -35 20q-68 0 -229 -141q-121 -106 -291 -287q-131 -141 -203 -227q-117 -145 -161.5 -204.5t-84.5 -111t-61.5 -64.5t-46.5 -13q-27 2 -45 2q-45 0 -59 16q-25 29 -25 135z" />
<glyph unicode="&#x161;" horiz-adv-x="1017" d="M0 154q0 66 54.5 155.5t97.5 89.5q8 0 12 -2l8 -4q-18 -43 -32.5 -88t-14.5 -84q0 -14 11 -37.5t20 -23.5q14 0 112 110q131 145 286 273.5t204 128.5q10 0 32.5 -42t22.5 -59q0 -37 -134 -130t-134 -263q0 -57 11 -78.5t34 -21.5q16 0 40.5 20.5t35.5 36.5q-8 27 -9 64 q0 88 65.5 157.5t135.5 69.5q23 0 40 -21.5t17 -66.5q0 -43 -21.5 -100.5t-53.5 -96.5q23 -14 39 -14q31 0 52 11.5t39.5 30.5t33.5 19l14 -8q4 -6 0 -28q-14 -51 -57 -92.5t-89 -41.5q-47 0 -71 6.5t-47 24.5q-43 -39 -87 -65.5t-77 -26.5q-61 0 -106.5 88t-45.5 211 q0 20 5.5 39.5t15.5 52.5q-90 -68 -291 -282q-61 -66 -94 -66q-29 0 -51.5 44t-22.5 110z" />
<glyph unicode="&#x178;" horiz-adv-x="886" d="M0 276q0 98 117 271q127 186 231 186q35 0 60.5 -13t25.5 -32q0 -66 -119 -168q-63 -55 -168 -123q-12 -31 -12 -59q0 -53 19.5 -82t44.5 -29q33 0 112 60q63 47 99 82l364 360q23 23 35 23q25 0 38 -33t13 -80v-18q0 -14 -8 -25l-182 -199q-29 -33 -43 -57 q-25 -47 -25 -96q0 -37 12.5 -60.5t40.5 -23.5q20 0 53 13t64 30q47 27 70.5 44t25.5 17q6 -2 12.5 -6t6.5 -10q0 -49 -167 -171t-218 -122q-37 0 -58 25q-27 31 -26 90q0 31 10.5 91t20.5 105q-82 -106 -168 -184q-98 -88 -156 -88q-53 0 -89 86t-36 196zM102 -328 q0 33 56 107l112 147h64l-31 -162q-16 -84 -61 -118q-33 -27 -84 -27q-23 0 -39.5 16.5t-16.5 36.5z" />
<glyph unicode="&#x192;" horiz-adv-x="626" d="M0 381q0 70 197.5 208t291.5 138q23 0 37 -25l31 -57q6 -10 6 -35q0 -61 -112.5 -182t-112.5 -197q0 -37 23.5 -49t58.5 -12q59 0 114.5 57.5t83.5 57.5l9 -11q0 -23 -70 -98q-53 -59 -98 -98q-68 -59 -113 -88q-84 -53 -153 -53q-51 0 -77 33.5t-26 90.5 q0 90 102.5 217.5t208.5 256.5q0 20 -30 20q-20 0 -41 -4q-66 -14 -156 -74q-37 -25 -96 -78q-39 -35 -58 -34q-10 0 -20 16z" />
<glyph unicode="&#x2000;" />
<glyph unicode="&#x2001;" horiz-adv-x="1874" />
<glyph unicode="&#x2002;" />
<glyph unicode="&#x2003;" horiz-adv-x="1874" />
<glyph unicode="&#x2004;" horiz-adv-x="624" />
<glyph unicode="&#x2005;" horiz-adv-x="468" />
<glyph unicode="&#x2006;" horiz-adv-x="312" />
<glyph unicode="&#x2007;" horiz-adv-x="312" />
<glyph unicode="&#x2008;" horiz-adv-x="234" />
<glyph unicode="&#x2009;" horiz-adv-x="374" />
<glyph unicode="&#x200a;" horiz-adv-x="104" />
<glyph unicode="&#x2010;" horiz-adv-x="1208" d="M258 326q0 -18 33 -19h524q39 0 47 15l56 88q8 14 1.5 25t-30.5 11h-524h-15q-20 0 -33 -16l-53 -86q-6 -10 -6 -18z" />
<glyph unicode="&#x2011;" horiz-adv-x="1208" d="M258 326q0 -18 33 -19h524q39 0 47 15l56 88q8 14 1.5 25t-30.5 11h-524h-15q-20 0 -33 -16l-53 -86q-6 -10 -6 -18z" />
<glyph unicode="&#x2012;" horiz-adv-x="1208" d="M258 326q0 -18 33 -19h524q39 0 47 15l56 88q8 14 1.5 25t-30.5 11h-524h-15q-20 0 -33 -16l-53 -86q-6 -10 -6 -18z" />
<glyph unicode="&#x2013;" horiz-adv-x="1662" d="M143 573v115h1348v-115h-1348z" />
<glyph unicode="&#x2014;" horiz-adv-x="2150" d="M143 440q0 8 7 19l53 86q12 16 33 16h14h1724q33 0 33 -20q0 -6 -6 -17l-55 -88q-10 -14 -45 -14h-1725q-33 0 -33 18z" />
<glyph unicode="&#x2018;" horiz-adv-x="483" d="M285 1067v25q0 57 87 200.5t126 143.5l14 -13q0 -27 -28.5 -49t-28.5 -69q0 -25 20.5 -51.5t20.5 -49.5q0 -51 -52 -123q-57 -80 -110 -80q-31 0 -40 17.5t-9 48.5z" />
<glyph unicode="&#x2019;" horiz-adv-x="483" d="M283 1014q0 29 28.5 51t28.5 70q0 25 -20.5 47t-20.5 51q0 61 56.5 132t105.5 71q31 0 41 -19.5t10 -44.5q0 -63 -84 -217t-131 -154z" />
<glyph unicode="&#x201a;" horiz-adv-x="483" d="M113 -162q0 35 28.5 53.5t28.5 67.5q0 25 -20.5 47t-20.5 51q0 61 56.5 132t105.5 71q31 0 40 -18.5t9 -48.5v-23q0 -68 -86 -206t-127 -138z" />
<glyph unicode="&#x201c;" horiz-adv-x="749" d="M285 1090q0 66 86 206t129 140l14 -13q0 -39 -28.5 -53t-28.5 -67q0 -35 19.5 -56.5t19.5 -44.5q0 -51 -52 -123q-57 -80 -110 -80q-16 0 -32.5 21.5t-16.5 69.5zM549 1090q0 63 86 204.5t129 141.5l14 -13q0 -8 -28.5 -40.5t-28.5 -79.5q0 -27 19.5 -46.5t19.5 -54.5 q0 -51 -51 -123q-57 -80 -111 -80q-16 0 -32.5 21.5t-16.5 69.5z" />
<glyph unicode="&#x201d;" horiz-adv-x="749" d="M285 1014q0 2 26 45q14 23 22.5 37t8.5 39q0 29 -8 43q-12 14 -19 22q-12 19 -12 33q0 59 57.5 131t104.5 72q31 0 40 -17.5t9 -48.5v-24q0 -63 -89 -204t-126 -141zM549 1014q0 2 26 45q14 23 22.5 37t8.5 39q0 31 -19.5 48t-19.5 50q0 59 57.5 131t104.5 72 q31 0 40 -17.5t9 -48.5v-24q0 -63 -89 -204t-126 -141z" />
<glyph unicode="&#x201e;" horiz-adv-x="749" d="M111 -162q0 2 26 45q14 23 22.5 37t8.5 39q0 29 -8 43q-12 14 -19 23q-12 18 -12 32q0 59 57.5 131t104.5 72q51 0 51 -65q0 -59 -82 -209q-88 -160 -135 -160zM375 -162q0 55 28.5 63.5t28.5 59.5q0 27 -8 41q-12 14 -18 23q-13 16 -13 32q0 59 57.5 131t104.5 72 q31 0 41 -20.5t10 -49.5q0 -63 -87 -213.5t-130 -150.5z" />
<glyph unicode="&#x2020;" horiz-adv-x="1505" d="M172 -242q0 193 180 537q162 309 340 518q-88 0 -157.5 -7t-188.5 -26q0 82 31 151.5t90 137.5q78 18 177 25.5t196 7.5h51q158 229 239 315q57 59 87 60q29 0 28 -78q0 -61 -69 -166q-47 -72 -119 -152q92 -18 176 -50t158 -77l-86 -155q-23 -43 -47.5 -55.5 t-63.5 -12.5q-41 0 -123 27q-106 35 -207 47q-170 -229 -272 -457q-76 -168 -107 -317q-18 -90 -18 -152l2 -104l-274 -113q-8 20 -13 35q-10 33 -10 61z" />
<glyph unicode="&#x2021;" horiz-adv-x="2004" d="M172 20q0 29 70 140q57 90 100 145q70 27 144.5 36t168.5 9l131 180h-63q-37 0 -82 -7t-94 -7q23 57 50.5 82t66 30t65.5 5q45 -2 68 -2l55 -4q96 139 190 266q115 156 183 235q98 117 227 244q162 158 207 158q35 0 76 -43t41 -88q0 -55 -29 -123q-35 -84 -135 -250 q-27 -43 -43 -80q-25 -55 -25 -96q0 -14 8 -43l-252 -195q-14 -10 -22 -10q-27 0 -27 55q0 94 56 201q10 20 90 141q63 96 92 144q23 37 22 51l-6 12q-35 0 -157 -135q-113 -125 -228 -270q-96 -123 -147 -197q74 -20 80 -22q123 -41 123 -84q0 -27 -19 -27q-12 0 -61 12 q-93 23 -181 39l-127 -184q182 0 240.5 -46t114.5 -91q113 -49 409 -49l-166 -177q-33 -35 -56 -44t-60 -9q-227 0 -363 55q-291 119 -366 119q-143 0 -224 -28q-68 -35 -135 -68q-4 4 -4 6q-6 10 -6 14z" />
<glyph unicode="&#x2022;" horiz-adv-x="774" d="M143 645q0 96 66.5 162.5t163.5 66.5q96 0 162.5 -66.5t66.5 -162.5t-66.5 -162.5t-162.5 -66.5t-163 66.5t-67 162.5z" />
<glyph unicode="&#x2026;" horiz-adv-x="1722" d="M143 37q0 63 60.5 145t107.5 82q18 0 31 -12q20 -20 20 -64q0 -68 -59 -141.5t-108 -73.5q-10 0 -23 7q-29 16 -29 57zM707 37q0 61 62 144t108 83q18 0 30 -12q20 -20 21 -64q0 -68 -59.5 -141.5t-108.5 -73.5q-20 0 -36.5 16.5t-16.5 47.5zM1272 37q0 61 62.5 144 t107.5 83q18 0 31 -12q20 -20 20 -64q0 -68 -59.5 -141.5t-108.5 -73.5q-20 0 -36.5 16.5t-16.5 47.5z" />
<glyph unicode="&#x202f;" horiz-adv-x="374" />
<glyph unicode="&#x2030;" horiz-adv-x="2609" d="M172 1079q0 133 191.5 283.5t353.5 150.5q43 0 75.5 -24.5t32.5 -44.5q0 -12 -4 -23q-10 -24 -10 -26q43 -20 53 -62q2 -8 2 -24q0 -23 -3 -37.5t-5 -30.5t-12 -46t-41 -82t-51 -79q-4 -10 -6.5 -12t-2.5 -4q0 -14 13.5 -27.5t34.5 -13.5q25 0 55.5 15.5t36.5 15.5 q23 0 22 -17q0 -29 -74.5 -65.5t-142.5 -36.5l-41 2q-55 -57 -126.5 -90t-153.5 -33q-106 0 -158 115q-39 86 -39 196zM303 -199q-6 16 19 47l1200 1659q6 8 9 13.5t15 7.5q8 0 17 -12l36 -99q5 -10 -20 -45l-1204 -1659q-8 -12 -15 -16q-4 0 -6 -2q-14 0 -20 16zM305 985 q0 -39 14 -61q23 -35 80 -35q43 0 87 15t114 52q-16 37 -16 68q0 43 24 109q16 45 39 86q43 78 43 98q0 14 -20 14q-80 0 -217 -114q-147 -125 -148 -232zM891 -68q0 133 191.5 284t355.5 151q41 0 73.5 -26t32.5 -44q0 -12 -4 -23q-10 -24 -10 -26q41 -16 51 -55 q4 -14 4 -64q0 -43 -11 -72.5t-67 -117.5l-34 -52q-6 -8 -7 -24q0 -33 47 -33q41 0 90.5 18.5t98.5 57.5l-4 39q0 117 172 278q180 170 334 170q43 0 78.5 -19.5t35.5 -39.5q0 -14 -3 -22.5t-7 -18.5l-2 -10q33 -8 49.5 -35t16.5 -76q0 -33 -9.5 -73t-28 -87t-48.5 -92 l-7 -16q0 -37 48 -37q27 0 54 19.5t34 19.5q23 0 22 -17q0 -37 -80 -78.5t-127 -41.5h-41q-72 -86 -149 -123q-57 -27 -119 -27q-96 0 -154 82q-39 55 -53 131q-72 -45 -115 -65q-80 -39 -129 -39q-39 0 -59 2t-43 14q-74 -74 -158 -104q-57 -20 -123 -21q-100 0 -153 113 q-43 90 -43 200zM1026 -162q0 -41 12 -61q23 -35 80 -35q39 0 87 15.5t114 52.5q-16 37 -16 67q0 33 9 63.5t26.5 68.5t44 90.5t26.5 70.5q0 14 -20 14q-86 0 -220 -114q-143 -123 -143 -232zM1839 -166q0 -39 19 -59q27 -29 84 -29q41 0 84 19.5t94 64.5q-10 23 -15.5 35 t-5.5 31q0 72 21 133q8 23 43 110q16 41 16 58q0 8 -27 8q-88 0 -200.5 -135.5t-112.5 -235.5z" />
<glyph unicode="&#x2039;" horiz-adv-x="649" d="M139 494l375 284q16 12 45 13q33 0 33 -31q0 -25 -12 -41l-242 -266l-43 -306q-6 -49 -29 -61q-8 -4 -26 -4q-10 0 -17.5 11t-11.5 32z" />
<glyph unicode="&#x203a;" horiz-adv-x="706" d="M115 113q0 27 10 43l244 264l43 307q6 45 20 54.5t35 9.5q23 0 29 -41l71 -369l-377 -285q-18 -14 -43 -14q-33 0 -32 31z" />
<glyph unicode="&#x205f;" horiz-adv-x="468" />
<glyph unicode="&#x2122;" horiz-adv-x="2115" d="M410 1266l18 209h625l18 -209h-35q-23 86 -57.5 115.5t-95.5 29.5h-58v-477q0 -61 16.5 -87t73.5 -26h15v-35h-379v35q68 0 90 33q14 20 14 80v477h-57q-68 0 -100.5 -32.5t-53.5 -112.5h-34zM1143 786v35q68 0 90 33q14 20 14 80v393q0 63 -14 88t-76 25h-14v35h278 l215 -443l219 443h261v-35q-68 0 -91 -33q-14 -20 -14 -80v-393q0 -57 17.5 -85t87.5 -28v-35h-359v35q55 0 74 35q12 23 12 78v362l-252 -514h-22l-250 510v-358q0 -63 16.5 -88t69.5 -25v-35h-262z" />
<glyph unicode="&#x2219;" horiz-adv-x="247" d="M86 510q0 63 60.5 145t107.5 82q18 0 31 -12q20 -20 20 -63q0 -68 -59.5 -142t-108.5 -74q-10 0 -22 7q-29 16 -29 57z" />
<glyph unicode="&#x25fc;" horiz-adv-x="778" d="M0 0v778h778v-778h-778z" />
<glyph horiz-adv-x="0" />
</font>
</defs>
</svg>
