<?xml version="1.0" standalone="no"?>
<!DOCTYPE svg PUBLIC "-//W3C//DTD SVG 1.1//EN" "http://www.w3.org/Graphics/SVG/1.1/DTD/svg11.dtd" >
<svg xmlns="http://www.w3.org/2000/svg">
<metadata></metadata>
<defs>
<font id="roscherkdlregular" horiz-adv-x="0" >
<font-face units-per-em="2048" ascent="1638" descent="-410" />
<missing-glyph horiz-adv-x="573" />
<glyph unicode="&#xd;" horiz-adv-x="718" />
<glyph unicode=" "  horiz-adv-x="573" />
<glyph unicode="&#x09;" horiz-adv-x="573" />
<glyph unicode="&#xa0;" horiz-adv-x="573" />
<glyph unicode="&#x22;" horiz-adv-x="573" d="M160 1016l20 276q2 16 7.5 53t17.5 76q16 53 50 97.5t95 44.5q35 0 55.5 -20.5t20.5 -59.5q0 -47 -17.5 -95.5t-39.5 -95.5l-129 -276h-80zM487 1016l21 276q10 119 41 175.5t65 76.5q16 10 33 14.5t31 4.5q39 0 58.5 -25t19.5 -55v-1v-1q0 -16 -7.5 -57.5t-50.5 -131.5 l-131 -276h-80z" />
<glyph unicode="#" horiz-adv-x="1146" d="M246 410l24 172h185l53 366h-186l24 172h186l50 342h98l-49 -342h223l47 342h100l-49 -342h187l-25 -172h-186l-51 -366h186l-25 -172h-186l-49 -342h-98l49 342h-224l-49 -342h-98l47 342h-184zM555 582h223l51 366h-223z" />
<glyph unicode="$" horiz-adv-x="1384" d="M182 397v3v3q0 14 5.5 32t11.5 34q10 20 21 38.5t22 33.5q12 16 24.5 25t20.5 9t15 -3t13 -7q6 -6 13.5 -12l17.5 -14q14 -10 34.5 -19.5t53.5 -13.5l98 256q-12 2 -31.5 6t-39.5 12q-35 16 -63.5 48t-28.5 92q0 33 10 86t47 110q39 57 113.5 111.5t203.5 87.5 q6 16 11.5 31.5t9.5 29.5q16 47 34.5 80t53.5 33q16 0 30.5 -3t28.5 -9l-53 -142q29 2 59.5 3t63.5 3q14 39 23.5 65t17.5 42q10 20 22.5 27.5t34.5 7.5q14 0 29.5 -1t32.5 -5l-58 -150q59 0 99.5 -27.5t54.5 -60.5q4 -8 6 -16.5t2 -16.5q0 -14 -6 -35.5t-18 -44.5 q-16 -33 -42 -60.5t-59 -33.5q-12 -2 -21 -4l-18 -4h-16h-18q6 10 8 18.5t2 14.5q0 20 -19.5 28.5t-42.5 6.5l-80 -211q12 -6 25.5 -14.5t28.5 -18.5q35 -29 64.5 -81t29.5 -132v-9v-10q-10 -125 -122 -236.5t-273 -156.5l-95 -246q0 2 -1 2.5t-3 0.5h-3h-1q-27 0 -46 15 t-19 36v1v3q0 10 6 48t49 132q-55 -2 -78.5 1t-40.5 9l-86 -225h-4h-2h-4h-4q-23 0 -42.5 14.5t-19.5 42.5q0 27 15.5 68t46.5 119q-74 12 -105.5 38.5t-42.5 55.5q-4 16 -5 31.5t-1 27.5zM500 981q4 -16 26.5 -29.5t48.5 -15.5h5.5h5.5h7h5l57 149q-49 -8 -79.5 -20 t-47.5 -27q-18 -16 -23 -31.5t-5 -21.5v-3v-1zM539 492q31 -2 60.5 -4.5t55.5 -2.5l99 254q-33 2 -61.5 5.5t-57.5 7.5zM702 924q14 -2 28.5 -3t29.5 -3q14 -2 28.5 -4.5t28.5 -4.5l74 195q-29 4 -59.5 2t-61.5 -6zM770 494q10 4 28.5 12t39.5 20q29 16 53 41t24 58v5v5 q-2 33 -17 60.5t-42 25.5z" />
<glyph unicode="%" horiz-adv-x="1437" d="M137 1079q0 8 1 16.5t1 16.5q14 98 91 188.5t165 147.5q49 31 95.5 48t82.5 17q25 0 46.5 -14t31.5 -31q4 -6 6 -12t2 -12q0 -4 -1 -9t-3 -12q0 -2 -1 -4t-1 -4t-1 -5t-1 -5q-2 -2 -3 -4t-1 -6q12 -6 21.5 -17.5t13.5 -21.5q4 -6 6 -11.5t2 -11.5q2 -6 2 -12v-12v-16.5 t-2 -16.5q-6 -47 -23.5 -103.5t-64.5 -138.5q-2 -2 -3 -5t-1 -5q-2 -2 -2 -5v-5q2 -14 11 -25.5t26 -11.5q14 0 22.5 5t14.5 11h1h1q6 6 14 10.5t21 4.5q10 0 14 -5.5t4 -11.5t-2 -12t-6 -12q-18 -29 -65.5 -52.5t-98.5 -25.5h-7h-5h-5.5t-5.5 2h-6h-6q-37 -45 -95 -84 t-128 -39t-105.5 70.5t-46.5 156.5q-4 20 -5 42t-1 42zM244 985q0 -8 1 -19.5t3 -21.5q6 -20 21.5 -37.5t49.5 -17.5h9.5t9.5 2q31 2 63.5 18.5t77.5 46.5q-8 18 -10 37t-2 37q0 29 6 58.5t19 66.5q12 35 20 54.5t16 33.5q14 27 18.5 44.5t4.5 29.5q0 4 -3 7t-7 5q-2 2 -3 2 h-3q-25 0 -54.5 -16.5t-60.5 -42.5q-35 -29 -69 -69t-58 -83q-23 -37 -36 -71.5t-13 -63.5zM252 -186q0 4 4 12l12 24l961 1659q2 2 3 5.5t3 5.5q2 4 5 7t7 3q6 0 8 -2t5 -6v-2t2 -2v-1v-1l28 -97v-1v-1v-1v-1q0 -4 -1 -9t-3 -11q-2 -2 -3 -5.5t-3 -7.5q-2 -2 -3 -5t-3 -5 l-963 -1659q-2 0 -4 -2l-4 -4q-2 -4 -5 -7l-3 -3h-3t-1 2q-4 0 -7 4t-5 10l-25 90q0 2 -1 3t-1 4v3v1zM713 -66q0 10 1 21.5t3 21.5q16 92 92 180.5t162 143.5q49 31 95 48.5t83 17.5q25 0 43 -12.5t29 -26.5q6 -8 10 -16.5t4 -14.5q0 -4 -1 -9t-3 -12q0 -2 -1 -4t-1 -4 t-1 -5t-1 -5q-2 -2 -3 -4t-1 -6q16 -8 30.5 -34t14.5 -85q0 -47 -21.5 -103.5t-68.5 -136.5q-4 -6 -5.5 -11t-1.5 -9q0 -14 10.5 -24.5t24.5 -12.5h1h3q12 0 23.5 5t19.5 9q10 6 17.5 11.5t11.5 5.5q10 0 14 -5t4 -12q0 -6 -2 -12t-6 -12q-18 -29 -66 -52.5t-102 -25.5h-3 h-3h-5h-7q-2 2 -5 2h-7q-70 -90 -130.5 -107.5t-95.5 -17.5q-61 0 -95 57.5t-48 124.5q-6 37 -9 71t-3 60zM819 -160q0 -8 1 -19t3 -22q4 -20 19.5 -37.5t50.5 -17.5q29 0 66.5 13.5t95.5 54.5v-2q-6 20 -10.5 38.5t-4.5 36.5q0 39 13.5 82t40.5 105q16 37 24 60.5t8 37.5 q0 4 -3 7t-7 5q-2 2 -3 2h-3q-20 0 -58 -21.5t-79 -56.5q-57 -51 -105.5 -120.5t-48.5 -145.5z" />
<glyph unicode="&#x26;" horiz-adv-x="1179" d="M111 311q0 125 74.5 222.5t164.5 168.5q33 25 64.5 47.5t60.5 41.5v19v17q-2 10 -2 19.5v17.5q0 178 76 293t168 172q49 33 97 48.5t83 15.5h7h5q55 -6 102.5 -57.5t53.5 -114.5q0 -2 1 -5.5t1 -5.5v-5v-5v-4v-4q-2 -4 -2 -6v-4q-8 -76 -62.5 -140.5t-115.5 -111.5 q-41 -31 -78 -54.5t-64 -39.5q-10 -6 -19 -11.5t-15 -11.5q-10 -6 -20.5 -12t-24.5 -15q4 -35 12 -75.5t20 -83.5q10 -39 22.5 -77t27.5 -73q37 31 64.5 55.5t49.5 49.5q10 12 20.5 23t20.5 24q18 23 39 49.5t45 58.5q10 -16 16.5 -34.5t6.5 -43.5q0 -37 -12.5 -79.5 t-32.5 -85.5q-16 -35 -37 -69t-43 -65q-4 -6 -8.5 -11t-8.5 -11q-2 0 -3 -2l-1 -2q-6 -8 -12 -17.5t-14 -21.5q2 -4 5 -11.5t9 -15.5q8 -12 19.5 -23.5t25.5 -11.5q8 0 13 3.5t10 5.5q8 4 14 5t12 1q2 0 3 -1t1 -3t1 -2t1 -2l1 -1t1 -3v-4v-1v-7t-2 -7q-4 -16 -14 -44 t-27 -56q-8 -18 -19 -37t-22 -35q-16 -18 -29.5 -31.5t-25.5 -13.5q-10 0 -24.5 11.5t-28.5 27.5q-8 10 -16.5 20.5t-14.5 20.5q-14 18 -24.5 35.5t-16.5 29.5q-4 -6 -10 -11t-10 -9q-66 -66 -141.5 -118t-157.5 -52q-88 0 -148.5 69.5t-89.5 155.5q-10 35 -16 69t-6 62z M256 315q0 -37 16.5 -53t46.5 -16q41 0 102.5 15t168.5 87q-16 35 -31.5 77t-28.5 87q-10 37 -17 73t-11 68q-31 -25 -58.5 -49t-50.5 -49q-66 -66 -101.5 -129.5t-35.5 -110.5zM649 940q35 23 57.5 43.5t43.5 38.5l7 7l7 7t8 8.5t8 8.5q12 10 28.5 27.5t35.5 37.5 q6 10 14 19.5t16 17.5q16 23 28.5 43.5t17.5 36.5q2 4 3 9t3 11v5.5v5.5v5t-2 5q0 2 -1 5t-3 5q-4 8 -12.5 15.5t-16.5 9.5h-4h-4q-20 0 -46 -12.5t-53 -34.5q-45 -43 -86 -123t-49 -201z" />
<glyph unicode="'" horiz-adv-x="262" d="M160 1016l22 276q2 18 7.5 54t17.5 75q16 53 52 97.5t103 44.5q41 0 61.5 -25t20.5 -55q0 -33 -13 -79t-46 -112l-139 -276h-86z" />
<glyph unicode="(" horiz-adv-x="757" d="M182 307q0 287 78 535t172 415q68 123 130.5 193t94.5 70q14 0 31 -7.5t33 -19.5q27 -20 52.5 -53t43.5 -70q-80 -80 -153.5 -198.5t-131.5 -245.5q-27 -57 -49 -114.5t-41 -111.5q-10 -33 -24.5 -76.5t-28.5 -99.5q-35 -141 -63.5 -345t-12.5 -460v-2l-75 -55 q-12 55 -21.5 110.5t-15.5 110.5q-12 111 -15.5 218.5t-3.5 205.5z" />
<glyph unicode=")" horiz-adv-x="757" d="M23 -186q2 2 80.5 96t172.5 280q31 61 63 135t60 156q70 205 107 459t20 524l74 45q20 -72 34.5 -158.5t20.5 -197.5q2 -35 3 -69.5t1 -69.5t-1 -70t-3 -70q-16 -283 -92 -528.5t-162 -411.5q-66 -127 -126 -198.5t-95 -71.5q-14 0 -31.5 8.5t-33.5 22.5 q-27 23 -50.5 53.5t-41.5 65.5z" />
<glyph unicode="*" horiz-adv-x="995" d="M246 1098v4v6v1v1v1v1l41 121q0 2 1 3t1 3q4 8 10 11t35 5l168 19l-94 227q0 2 -1 3l-1 1l-2 1l-1 1q-2 4 -4 9.5t-2 17.5q0 16 2 21.5t7 9.5h1h1l61 49q4 2 7 3t7 1q2 0 5.5 -1t5.5 -3q6 -2 12 -7t8 -12l115 -266l129 246q0 2 1 3l1 1v1v1q4 8 9 15.5t17 9.5h7.5h5.5 t4 -1t6 -1l4 -4l2 -1l3 -3l1 -1l41 -41q2 0 3 -2t3 -4t3 -4l1 -2l1 -1t1 -3v-3v-1v-1v-3q-2 -2 -2 -3v-1q-2 -10 -3 -14.5t-5 -6.5q0 -2 -1 -2t-1 -2l-112 -227l210 -19q2 0 7.5 -1t9.5 -1q8 -4 14 -11t6 -21v-4.5v-4.5q0 -4 -1 -7t-3 -5l-51 -70l-2 -2l-2 -2v-1v-1l-1 -1 t-1 -3l-1 -1l-3 -3t-5 -4t-10 -2h-4t-2 2h-4h-4h-1h-3h-1h-1h-3h-5l-172 18l119 -280q0 -2 2 -7t2 -9q2 -8 4 -13.5t2 -7.5t1 -3l1 -1v-3v-3v-1v-3q-2 -2 -2 -3v-1q0 -8 -3 -13.5t-7 -9.5l-52 -39q-4 -4 -9 -6t-11 -2q-8 0 -17.5 7t-13.5 18l-123 276l-119 -254l-4 -8l-4 -8 q-4 -10 -9 -19.5t-13 -9.5h-5h-5q-2 2 -5.5 3t-5.5 3l-61 55l-1 2q-1 3 -3 5q-2 4 -3 7t-1 9v7v5v1v1v1v1q2 4 3 7.5t3 5.5q2 4 2 6v4l137 262l-227 -18h-5h-6q-4 -2 -7 -2h-5h-4t-4 2q-4 0 -7 1t-3 3z" />
<glyph unicode="+" horiz-adv-x="1261" d="M115 573v115h458v574h91v-574h458v-115h-458v-573h-91v573h-458z" />
<glyph unicode="," horiz-adv-x="385" d="M90 -160q0 8 3 14.5t5 12.5q14 20 25.5 43.5t11.5 50.5q0 18 -5 28.5t-11 20.5q0 2 -1 2t-1 2q-6 8 -10.5 18.5t-4.5 24.5q0 16 5.5 38t13.5 42q16 39 38.5 72t49.5 45q6 2 11 4t11 2q25 0 32 -17.5t7 -37.5v-11.5v-9.5v-7v-7q0 -33 -20.5 -90t-79.5 -164 q-33 -61 -49.5 -74.5t-20.5 -13.5h-1t-3 2q-2 0 -4 3t-2 7z" />
<glyph unicode="-" horiz-adv-x="966" d="M205 328q0 4 2 8l4 8l43 86q4 10 10 13t15 3h4h4h3h1h420q14 0 20 -6t6 -16v-7t-4 -7l-45 -88q-2 -8 -11 -11.5t-26 -3.5h-420q-10 0 -18 5t-8 16z" />
<glyph unicode="." horiz-adv-x="403" d="M115 37q0 18 7 45t19 55q14 35 35 67t41 48q8 6 15.5 9t15.5 3q4 0 9 -1t9 -5q8 -6 15.5 -22.5t7.5 -47.5q0 -18 -5 -38.5t-14 -43.5q-14 -35 -35.5 -68.5t-44.5 -47.5q-8 -6 -17 -10.5t-17 -4.5q-4 0 -8.5 1t-10.5 6q-8 4 -15 17t-7 38z" />
<glyph unicode="/" horiz-adv-x="1312" d="M137 -240q0 6 4 16.5t13 26.5l958 1657q6 10 8 13.5t4 5.5q2 0 3 1l1 1h1h1h2h1q2 0 3 1t1 -1h2l1 -2t3 -4v-1q0 -1 2 -1l1 -1q1 -2 1 -4l27 -98q0 -2 1 -3l1 -1v-3v-3q-2 -4 -4.5 -11.5t-12.5 -23.5l-962 -1659l-2 -2t-2 -4q-4 -4 -7.5 -7t-7.5 -3q-6 0 -9 2t-5 6 q0 2 -1 3t-1 3l-25 90v5v1z" />
<glyph unicode="0" horiz-adv-x="911" d="M23 360q0 254 124.5 454t276.5 321q90 72 176 111.5t143 39.5q10 0 20.5 -6t18.5 -12q2 0 3 -1l3 -3q10 -8 22.5 -21.5t25.5 -32.5q29 -41 52 -101t23 -134q0 -258 -119.5 -495.5t-265.5 -377.5q-70 -68 -136 -104.5t-120 -36.5q-20 0 -43.5 8t-50.5 25q-57 37 -105 127 t-48 239zM168 281q0 -6 1 -31t7 -53q6 -31 22.5 -57.5t49.5 -26.5q47 0 103.5 43t115.5 114q61 74 119.5 169.5t105.5 193.5q49 106 80 206.5t31 174.5q0 29 -10.5 45t-32.5 16q-14 0 -34.5 -8t-43.5 -23q-14 -8 -28.5 -19t-28.5 -21l-5.5 -5.5l-5.5 -5.5l-20 19 q-141 -70 -257 -236t-155 -352q-6 -37 -10 -73t-4 -70z" />
<glyph unicode="1" horiz-adv-x="638" d="M23 213q0 27 44 211t285 559q29 43 46.5 73.5t17.5 45.5q0 6 -6.5 10t-12.5 6h-1h-3t-21.5 -5t-82.5 -36q-2 -2 -4 -3t-4 -1l-3 -1q-2 -1 -4 -1q-10 -6 -22 -12t-35 -17v72q16 14 56 43t89 62q4 4 9.5 8t11.5 8q57 37 106.5 67.5t63.5 30.5q20 0 34.5 -21.5t20.5 -47.5 q4 -14 6 -26.5t2 -23.5q0 -14 -17 -70.5t-120 -256.5q-174 -352 -236.5 -528.5t-62.5 -295.5q0 -16 1 -31.5t3 -31.5q-94 12 -127.5 72.5t-33.5 140.5z" />
<glyph unicode="2" horiz-adv-x="1017" d="M0 227q0 49 79 172t380 310q31 18 73.5 43.5t88.5 54.5q66 45 126 97t78 108q4 10 6.5 20t2.5 21q0 4 -1.5 10l-3.5 14q-4 10 -18 20.5t-45 10.5q-33 0 -87 -10.5t-114 -28.5q-70 -23 -132 -54.5t-89 -70.5q59 -18 85 -38.5t38 -49.5q-47 2 -82 -5t-61 -17 q-6 -2 -12.5 -4.5t-12.5 -4.5q-20 -8 -39.5 -10t-38.5 -2h-3h-1q-12 4 -21.5 19.5t-9.5 41.5q0 12 2 29t7 33q2 10 4 21.5t4 19.5q6 20 10 34.5t6 18.5q0 2 1 3t1 3q6 18 13.5 37t15.5 35q23 41 66.5 80t134.5 76q115 47 177 56t103 9q74 0 134.5 -38t60.5 -267 q0 -160 -113 -264.5t-256 -198.5q-10 -8 -22.5 -15t-24.5 -16q-10 -8 -21.5 -15t-21.5 -13q-168 -111 -245 -167t-77 -97q0 -27 12.5 -31t26.5 -2q88 8 158 19.5t121 21.5q129 27 179 48t73 21q4 0 7 -5t5 -11v-3v-3v-1v-3v-3v-1q-29 -186 -157 -243.5t-283 -57.5 q-143 0 -215 42t-72 201z" />
<glyph unicode="3" horiz-adv-x="1040" d="M-88 113q0 18 6 46.5t21 57.5q16 35 40.5 65.5t63.5 49.5q6 -72 57.5 -96.5t110.5 -28.5h11h11q137 0 241 56t153 124q18 25 27.5 49.5t9.5 46.5q0 8 -4.5 26.5t-22.5 41.5q-20 25 -67.5 47.5t-137.5 22.5q-57 0 -74.5 -3.5t-25.5 -7.5h-2q-10 -6 -33 -9t-94 -3 q-20 0 -25.5 8t-5.5 41q0 133 55.5 165t130.5 44q8 0 17.5 1t17.5 3q158 27 258.5 65t153.5 79q37 29 53 56t16 50q0 45 -43 62.5t-94 19.5q-18 2 -37.5 2h-35.5h-5.5h-5.5q-119 0 -181 -19.5t-83 -41.5q-6 -8 -9 -15.5t-3 -13.5t5 -11.5t11 -9.5q2 0 3 -1l3 -3l1 -1t3 -1 q8 -4 16.5 -10t18.5 -18q-39 -6 -83 -10.5t-91 -8.5q-20 6 -34.5 20.5t-22.5 30.5q-4 8 -6 16.5t-2 14.5q0 96 126 175t392 79q158 0 204 -66.5t50 -146.5q2 -10 2 -21.5v-21.5q0 -139 -88 -213t-342 -117q-4 0 -8.5 -1t-10.5 -1q-4 0 -10 -1t-12 -1q-27 -4 -48.5 -11 t-21.5 -22q0 -10 5 -14t12 -4q4 -2 8 -2h6q119 2 216 -68.5t97 -185.5q0 -20 -2 -40.5t-8 -41.5q-37 -154 -197.5 -282t-390.5 -128q-106 0 -176 35t-86 78q-2 4 -3 10t-1 13z" />
<glyph unicode="4" horiz-adv-x="976" d="M0 530v7.5v7.5v6v6v12v13q8 68 61.5 153.5t135.5 175.5q70 78 152.5 153t168.5 136q16 12 33.5 24.5t34.5 22.5q16 10 34.5 22.5t36.5 24.5q16 10 32 19.5t32 17.5q41 23 80 38t67 15q16 0 20.5 -8t4.5 -18v-7v-10q0 -4 -1 -8t-1 -8t-1 -8t-1 -8q-2 -6 -5 -12.5 t-10 -12.5q8 -8 13.5 -18.5t9.5 -20.5q8 -16 10 -32.5t2 -28.5q0 -6 -1 -12.5t-1 -12.5q-6 -31 -27.5 -65.5t-52.5 -87.5q-39 -66 -90 -159t-110 -233l157 19h1t3 2h2h5h1h3h3h1q6 -2 11 -5t5 -7q0 -12 -12 -42t-31 -63q-4 -8 -9 -17t-11 -20q-10 -16 -20.5 -31.5 t-18.5 -25.5q-10 -4 -19.5 -6t-19.5 -4q-6 -2 -13.5 -4t-15.5 -2q-16 -4 -40.5 -8.5t-63.5 -10.5q-12 -45 -16.5 -81t-4.5 -66q0 -33 5.5 -58.5t11.5 -48.5q-8 -10 -20.5 -26.5t-28.5 -34.5q-6 -8 -14.5 -17.5t-16.5 -17.5q-18 -16 -34.5 -27.5t-29.5 -11.5q-2 0 -4 1t-4 1 q-16 10 -28.5 51t-12.5 119q0 25 2 49.5t6 50.5q4 25 9.5 49.5t11.5 49.5q-27 0 -44.5 -1t-33.5 -1q-8 0 -17.5 -1t-19.5 -1q-8 0 -15 -1t-14 -1h-2h-2q-6 0 -14 -1.5t-18 -1.5h-44t-49 -2q-47 -2 -68.5 22t-35.5 148zM168 612q0 -14 7 -19t18 -7q4 -2 9 -2h9h1h1h10h8 q6 2 14.5 3t24.5 1l166 8q6 10 11.5 21.5t11.5 21.5q90 176 168 294t100 150q6 8 12 16.5t11 16.5l3 3l1 1q18 27 39.5 58.5t56.5 85.5q-35 -10 -134.5 -62.5t-262.5 -212.5q-16 -16 -55.5 -59t-82.5 -96q-8 -8 -15 -17.5t-15 -17.5q-47 -59 -82 -111.5t-35 -75.5z" />
<glyph unicode="5" horiz-adv-x="909" d="M-66 152q0 53 39 98t86 74q35 23 67 34t48 11q10 0 13 -4.5t3 -8.5v-2v-4v-1v-1q0 -2 -1 -4t-3 -2q-4 -4 -11 -7t-21 -11q-4 -2 -14.5 -7.5t-20.5 -11.5t-18.5 -13t-14.5 -16q-2 -2 -4 -6t-2 -8q0 -2 1 -7t7 -11q4 -6 13.5 -10.5t23.5 -8.5q2 0 5 -1t5 -1h5h5h12.5 t12.5 2q31 4 61.5 13.5t61.5 21.5q84 35 161.5 94.5t131.5 122.5q35 41 54 81t19 73q0 6 -1 14t-5 14q-10 23 -41.5 41.5t-97.5 18.5q-16 0 -34.5 -1t-37.5 -5q-37 -4 -71.5 -13.5t-65.5 -23.5q-12 -6 -22.5 -10t-20.5 -9q-10 -4 -22.5 -6t-26.5 -2q-18 0 -28.5 11.5 t-18.5 50.5q-2 4 -3 9t-1 9l-27 133q27 88 76 170t102 152q37 47 73 86t65 67q137 -4 230 -3t177 16q12 0 25.5 3t25.5 5q-8 -39 -35.5 -103.5t-99.5 -148.5h-356q-4 -4 -8 -7t-9 -7q-29 -29 -55.5 -67t-44.5 -77q-10 -23 -16 -45t-6 -43q10 4 25 7t32 7q23 4 46.5 9.5 t47.5 7.5q25 4 48.5 6t43.5 2q117 0 164 -68.5t59 -152.5q2 -20 3.5 -41t1.5 -39q0 -201 -143.5 -355.5t-315.5 -224.5q-59 -23 -116.5 -35t-108.5 -12q-66 0 -99 36t-33 145z" />
<glyph unicode="6" horiz-adv-x="876" d="M23 377q0 121 58 289t220 364q20 25 51 58.5t66 68.5q31 29 63.5 57.5t65.5 51.5q43 33 86 52t80 19q45 0 73.5 -9t44.5 -19q-39 -27 -81.5 -58.5t-87.5 -68.5q-104 -86 -199.5 -198t-149.5 -239q8 8 17.5 16.5t19.5 14.5q23 18 48.5 33.5t50.5 28.5q29 14 55 22t49 8 q6 0 13 -2t16 -4q41 -18 76.5 -77.5t43.5 -127.5q2 -8 2.5 -15t0.5 -15q0 -49 -25 -125t-66 -158q-49 -98 -115.5 -186t-136.5 -129q-23 -14 -44 -21.5t-44 -7.5q-18 0 -38.5 7t-40.5 22q-63 43 -117.5 139t-54.5 209zM188 326q0 -57 12.5 -103.5t37.5 -46.5q29 0 81 35 t134 164q72 109 94 186.5t22 128.5q0 35 -12 50.5t-41 15.5q-27 0 -63.5 -23.5t-77.5 -60.5q-27 -25 -51.5 -52.5t-47.5 -56.5q-25 -31 -43 -60.5t-28 -53.5q-2 -4 -3 -10.5t-3 -14.5q-4 -18 -7.5 -44t-3.5 -54z" />
<glyph unicode="7" horiz-adv-x="808" d="M90 41q0 86 36 182t91 195q35 66 77 130t83 124q102 143 187 259t100 169v7v5v1v3v3v1q-2 8 -18.5 13.5t-63.5 5.5q-115 0 -192 -17.5t-122 -38.5q-35 -16 -54 -30.5t-28 -20.5q-16 -14 -30.5 -21t-26.5 -7q-6 0 -10 10t-4 24q0 203 152.5 262.5t334.5 65.5q37 2 72 2h69 q66 0 102 -29.5t32 -179.5q-10 -14 -18.5 -24.5t-14.5 -18.5q-2 0 -3 -2l-1 -2q-4 -4 -8.5 -9t-10.5 -11q-145 -168 -215.5 -280t-91.5 -153q-14 -27 -33.5 -66.5t-40.5 -84.5q-10 -20 -18 -39.5t-16 -40.5q-29 -68 -49.5 -132.5t-20.5 -102.5q0 -37 5 -57.5t13 -29.5 q4 -8 8.5 -10t6.5 -4q-8 -10 -20.5 -22.5t-26.5 -24.5q-12 -12 -27.5 -23.5t-30.5 -21.5q-37 -27 -70.5 -45t-48.5 -18q-4 0 -8 2l-8 4q-14 12 -26.5 36.5t-12.5 61.5z" />
<glyph unicode="8" horiz-adv-x="868" d="M23 188q0 78 66.5 197t234.5 317q-10 14 -20.5 33t-22.5 39q-23 45 -44.5 97.5t-33.5 107.5q-4 18 -6 38.5t-2 39.5q0 33 10 86t45 110q51 86 180 158t387 72h3h3h18.5h20.5q35 -2 65.5 -12.5t30.5 -40.5q0 -16 -6 -43t-18 -56q-16 -39 -43 -73.5t-64 -40.5q0 -4 1 -7.5 t1 -7.5q2 -4 2 -7v-7q0 -37 -18 -66.5t-39 -54.5l-3 -3l-3 -3q-88 -102 -141.5 -169t-63.5 -81q-8 -8 -13 -15.5t-11 -13.5v-2q-6 -8 -13.5 -17t-17.5 -22q6 -12 15 -30.5t20 -44.5q14 -35 26.5 -82t12.5 -105q0 -193 -78 -305.5t-172 -150.5q-27 -12 -52.5 -17.5 t-50.5 -5.5q-88 0 -147 59.5t-59 128.5zM150 215q0 -23 14 -42t57 -19q70 0 121 66.5t68 144.5q4 18 6 35.5t2 33.5q0 39 -11.5 73t-33.5 64q-16 -18 -44 -52t-57 -73q-10 -14 -21 -29.5t-20 -29.5q-35 -51 -58 -97t-23 -75zM365 1061q0 -37 11 -91.5t70 -140.5 q12 12 20.5 21.5t14.5 19.5h1h1q4 6 10.5 13.5t12.5 15.5q6 6 10 12.5t10 12.5q0 2 1 3l3 3q12 14 28.5 31.5l49.5 52.5q98 102 126 135t28 41q0 16 -39 27.5t-111 11.5q-102 0 -156.5 -34t-76.5 -75q-6 -14 -10 -29.5t-4 -29.5z" />
<glyph unicode="9" horiz-adv-x="829" d="M45 819q0 45 18.5 94.5t49.5 100.5q51 82 128.5 159.5t159.5 137.5q80 55 154 90t125 35q39 0 75 -41t58 -90q4 -10 8 -20.5t8 -20.5v-5.5v-7.5q0 -27 -16 -60.5t-63 -84.5q-4 -4 -12.5 -13.5t-20.5 -17.5l-5 -5l-5 -5q-12 -10 -23.5 -17.5t-17.5 -7.5h-1t-3 2 q-2 0 -3.5 2.5t-1.5 4.5q0 8 8.5 18t18.5 20q0 2 1 3.5t3 3.5q4 4 6 8t6 8q16 25 25.5 46.5t9.5 31.5q0 6 -6 8t-14 2h-5h-5q-20 0 -46 -8t-51 -23q-14 -6 -28.5 -14t-28.5 -16q-29 -16 -51.5 -31.5t-32.5 -24.5q-18 -12 -39.5 -28.5t-42.5 -36.5q-68 -59 -124 -139 t-56 -166q0 -41 18.5 -52.5t50.5 -11.5q29 0 91.5 32t175.5 138q33 33 58.5 54.5t43.5 41.5l86 93q4 4 10 7t13 5q6 2 10 3t8 1q2 0 9 -1t16 -3q8 -4 16 -9t8 -12v-13t2 -9v-7v-5q0 -4 -2 -10.5t-8 -16.5l-485 -842q-2 -4 -6.5 -8t-6.5 -10q-8 -8 -16 -16.5t-16 -16.5 q-12 -14 -24.5 -24.5t-20.5 -16.5q-25 -18 -40.5 -27.5t-27.5 -9.5q-8 0 -14.5 5t-6.5 18q0 12 5.5 36.5t15.5 51.5q12 35 28.5 64.5t32.5 35.5q12 4 24.5 11.5t27.5 35.5q6 14 8 17.5t4 5.5l1 1t1 3l295 504l-25.5 -25.5t-27.5 -28.5q-10 -8 -19.5 -18t-19.5 -18 q-68 -66 -132.5 -115t-111.5 -49q-14 0 -29.5 6t-29.5 18q-37 27 -72 79t-55 108q-10 29 -16.5 56.5t-6.5 51.5z" />
<glyph unicode=":" horiz-adv-x="477" d="M90 37q0 18 7 45t22 55q14 37 35.5 69t42.5 46q8 6 15 9t15 3h4t5 -2q12 -4 22 -20.5t10 -53.5q0 -18 -5 -38.5t-13 -43.5q-14 -37 -37 -70.5t-47 -47.5q-8 -6 -16.5 -9.5t-16.5 -3.5q-2 0 -5 1t-7 1q-10 6 -20.5 20.5t-10.5 39.5zM211 582q0 18 5 41.5t15 46.5 q12 33 30 61.5t36 48.5q12 12 24.5 20.5t22.5 8.5h4t4 -2q12 -2 22.5 -18.5t10.5 -55.5q0 -14 -3 -30.5t-7 -30.5q-12 -39 -34 -76t-46 -57q-10 -10 -21.5 -15.5t-21.5 -5.5q-2 0 -6 1t-6 3q-12 4 -20.5 18.5t-8.5 41.5z" />
<glyph unicode=";" horiz-adv-x="475" d="M90 -160q0 6 2 11.5t4 9.5l3 3t1 3q14 20 25.5 43.5t11.5 50.5q0 18 -5 28.5t-11 20.5q0 2 -1 2t-1 2q-6 8 -10.5 18.5t-4.5 24.5q0 16 5.5 37t13.5 41q14 33 32.5 61.5t39.5 45.5q10 8 20 13t18 5q25 0 32 -17.5t7 -37.5v-11.5v-9.5v-7v-7q0 -33 -20.5 -90t-79.5 -164 q-33 -61 -49.5 -74.5t-20.5 -13.5h-2t-2 2q-4 2 -6 4t-2 6zM209 582q0 18 6 41.5t14 46.5q14 33 32 63.5t38 48.5q12 12 23.5 19.5t21.5 7.5q4 0 7 -1t7 -3q10 -4 18.5 -20.5t8.5 -51.5q0 -14 -3 -30.5t-7 -30.5q-12 -39 -34 -75t-46 -56q-12 -10 -23.5 -16.5t-21.5 -6.5 q-2 0 -6 1t-6 3q-12 4 -20.5 18.5t-8.5 41.5z" />
<glyph unicode="&#x3c;" horiz-adv-x="1187" d="M115 631l884 700l50 -96l-754 -604l754 -604l-50 -99z" />
<glyph unicode="=" horiz-adv-x="1306" d="M115 416v114h1054v-114h-1054zM115 731v115h1054v-115h-1054z" />
<glyph unicode="&#x3e;" horiz-adv-x="1187" d="M137 1235l49 96l887 -700l-887 -703l-47 99l754 604z" />
<glyph unicode="?" horiz-adv-x="696" d="M164 41q0 10 5 32.5t13 49.5q10 27 22.5 51.5t26.5 32.5q2 2 5.5 3t5.5 1q6 0 14 -3t16 -7q18 -10 35 -30.5t21 -43.5v-5v-5q0 -12 -5.5 -33t-13.5 -41q-4 -14 -10 -28.5t-14 -24.5q-8 -16 -16.5 -26.5t-14.5 -10.5v-2q-8 2 -16.5 5t-18.5 9q-16 10 -30.5 25.5 t-20.5 32.5q-2 4 -3 9t-1 9zM219 1145q0 18 5 53t26 74q27 53 97.5 97t209.5 44q119 0 171 -33.5t69 -74.5q10 -23 12 -44.5t2 -37.5q0 -111 -35 -185.5t-82 -142.5q-8 -12 -17 -24.5t-18 -24.5q-55 -78 -77.5 -108.5t-38.5 -53.5q-8 -12 -18.5 -24.5t-24.5 -32.5 q-80 -100 -103.5 -141.5t-27.5 -71.5v-14.5v-14.5v-4v-4v-8v-9q-2 -14 -7.5 -26t-21.5 -12h-3h-3q-23 4 -43.5 38.5t-30.5 75.5q-4 14 -6 27.5t-2 25.5q0 88 102.5 191.5t225.5 222.5q6 6 13 13.5t13 13.5q39 39 67.5 65.5t41.5 53.5q2 6 4 13t2 15q0 10 -3 23.5t-11 27.5 q-16 29 -52.5 52.5t-97.5 23.5h-12h-13q-70 -2 -126 -14t-56 -47q0 -14 5 -20.5t14 -10.5l1 -1l1 -1q2 -2 6 -4l8 -4q6 -2 10 -5t6 -7q0 -2 1 -3.5t1 -3.5q0 -8 -3 -11t-7 -3h-1t-3 2h-3h-1q-10 2 -22.5 3t-26.5 3q-6 0 -11.5 1t-11.5 1q-35 4 -64.5 16.5t-29.5 49.5z" />
<glyph unicode="@" horiz-adv-x="1417" d="M164 739q0 31 2 61.5t6 61.5q31 260 191.5 477t447.5 217q270 0 427 -192.5t157 -478.5q0 -209 -85 -376t-241 -167q-94 0 -141 46t-66 99q-4 14 -7 28.5t-5 29.5h-6q-57 -86 -117.5 -132t-126.5 -46q-92 0 -147.5 91t-55.5 228q0 35 5.5 72t15.5 73q41 145 145.5 266.5 t239.5 121.5q47 0 87 -18.5t73 -63.5h4l14 63h184l-135 -590q-4 -23 -7 -42t-3 -36q0 -45 15.5 -65.5t33.5 -26.5q4 0 8 -1t8 -1q16 0 36 6.5t38 20.5q59 39 107.5 142.5t48.5 275.5q0 244 -137.5 408.5t-366.5 164.5q-270 0 -409.5 -222t-139.5 -495q0 -256 136.5 -448.5 t377.5 -192.5h20.5h20.5q61 2 129 16.5t152 57.5l20 -94q-12 -6 -28.5 -14.5t-34.5 -16.5q-47 -18 -116 -32.5t-163 -14.5q-272 0 -442 214t-170 525zM594 684q0 -78 21.5 -113.5t48.5 -42.5q4 -2 7 -2h7q20 0 46 15.5t52 44.5q53 57 98.5 161.5t45.5 241.5q0 66 -14.5 106 t-61.5 40q-72 0 -134.5 -93.5t-93.5 -203.5q-10 -41 -16 -80t-6 -74z" />
<glyph unicode="A" horiz-adv-x="1157" d="M-121 -88q0 20 10.5 49t26.5 57q4 10 10 21.5t11 21.5q12 20 22 38t18 30t15.5 22.5t11.5 20.5q2 4 5 8t7 8q6 10 16.5 21.5t22.5 23.5h70l203 273l-131 -19q-4 0 -7.5 -1t-7.5 -1q-6 -2 -15 -3t-28 -1h-8t-8 2q-8 2 -15.5 9.5t-7.5 23.5q0 8 9.5 28.5t48.5 90.5 q4 8 9 16t9 17q29 47 71 77.5t159 36.5l4 -51l86 10q45 66 106.5 143t128.5 156l74 82t74 80q94 98 184 179t158 124q20 -14 28 -33.5t11 -37.5q2 -8 2 -15.5v-15.5v-36t-2 -21q-2 -4 -3.5 -8.5t-3.5 -8.5l-219 -534l103 14q6 2 12 2h8q10 0 14.5 -5t4.5 -22v-11t-2 -11 q-2 -10 -5.5 -21.5t-9.5 -23.5q-2 -12 -8 -27.5t-12 -38.5q-2 -12 -5.5 -23.5t-5.5 -19.5q-10 -49 -39.5 -68.5t-146.5 -21.5q-61 -145 -82.5 -200.5t-21.5 -81.5q0 -14 5 -21.5t13 -11.5q2 0 5 -1t5 -1q23 0 41.5 15t36.5 32q2 4 4 6l4 4q39 43 50.5 56.5t17.5 13.5 q8 0 12 -3t4 -10q0 -12 -18.5 -40.5t-42.5 -61.5q-4 -4 -7 -8t-5 -8q-23 -31 -42.5 -54.5t-27.5 -33.5q-16 -18 -31.5 -35t-30.5 -31q-20 -18 -42.5 -30.5t-51.5 -12.5h-12t-12 2q-23 4 -43.5 19.5t-28.5 50.5q-2 10 -3 20t-1 21v12t2 14q0 6 1 12.5t1 12.5q4 27 9 47t12 41 q6 18 15 37.5t19 44.5l80 184l-340 -4l-362 -481q-8 -10 -26.5 -26.5t-41.5 -37.5q-6 -4 -11 -9t-11 -9q-23 -18 -44.5 -33.5t-35.5 -19.5q-4 -2 -7 -2h-8h-3t-3 2q-4 2 -4 6v8zM600 750l264 30l217 516q-53 -47 -115.5 -109.5t-127.5 -133.5q-63 -70 -125 -147t-113 -156z " />
<glyph unicode="B" horiz-adv-x="1204" d="M172 1024q0 29 14.5 65.5t36.5 75.5q27 41 60.5 82t68.5 72q14 10 28.5 20.5t27.5 18.5q63 37 144 61.5t167 38.5q78 14 152.5 19.5t136.5 5.5q131 0 199.5 -50.5t95.5 -111.5q16 -33 22 -65.5t6 -55.5q0 -137 -103.5 -220t-226.5 -128q-61 -23 -119.5 -38t-103.5 -26 q-57 -14 -107 -25t-81 -20v-10q41 -10 90 -24.5t98 -30.5q121 -43 221.5 -109.5t100.5 -171.5q0 -12 -2 -25.5t-6 -25.5q-29 -86 -134.5 -167t-226.5 -130q-61 -25 -120.5 -38t-108.5 -13q-121 0 -188.5 48t-94.5 108q-12 25 -17 49t-5 45q0 23 30.5 118t186.5 314h-3t-3 2 q-10 2 -22.5 4t-27.5 4q-33 6 -61.5 21.5t-28.5 48.5q0 31 17.5 44t38.5 17q10 2 19 3t17 1q16 2 37 4t41 5q6 2 12.5 3t14.5 1q18 2 36.5 5t30.5 5q143 178 198.5 223t94.5 49q4 0 8.5 1t8.5 1h3h3q4 0 7 1t7 1h2q4 0 10.5 1t18.5 3q-20 -27 -33.5 -42t-25.5 -29l-2 -1 l-3 -3q-4 -4 -8 -9.5t-10 -11.5q-25 -29 -56.5 -67.5t-86.5 -116.5q182 29 291.5 69.5t164.5 86.5q45 35 62.5 69.5t17.5 61.5q0 12 -1 25.5t-7 29.5q-10 33 -45 61.5t-113 28.5q-45 0 -110.5 -8t-136.5 -23q-86 -16 -165 -41.5t-118 -54.5v-59l-264 -95q-12 -4 -23.5 -7 t-21.5 -3t-18.5 7.5t-8.5 27.5zM410 348q0 -4 1 -9t1 -9q8 -39 48 -72t105 -33q31 0 68 7.5t76 21.5q76 25 142.5 69t80.5 91q2 4 3 9t1 11q0 57 -70.5 99t-154.5 71q-51 16 -98.5 28.5t-80.5 20.5q-10 -14 -21 -33.5t-24 -39.5q-14 -27 -27.5 -54.5t-23.5 -54.5 q-12 -33 -19 -64.5t-7 -58.5z" />
<glyph unicode="C" horiz-adv-x="1011" d="M12 37v4v4q0 51 31 258t221 524q33 55 87.5 132t119.5 159q49 63 104.5 124t112.5 110q70 63 138.5 103t127.5 40q6 0 12.5 -1t12.5 -1q51 -12 94 -62.5t43 -113.5q0 -94 -43 -252t-180 -360q-16 -27 -41 -58t-53 -63q-16 -20 -36 -41t-40 -39q-47 -49 -92 -82t-74 -33 q-16 0 -29.5 20.5t-21.5 45.5q-4 8 -6 16l-4 16q31 82 74.5 159t91.5 134q12 16 26 31.5t27 28.5q6 -4 13 -6.5t15 -2.5q18 0 38 11.5t40 31.5q37 39 73 102.5t58 133.5q14 41 22.5 81t8.5 75v8v10t1 12.5t1 14.5q-2 20 -7 37.5t-24 17.5q-55 0 -144 -81t-185 -208 q-78 -104 -152 -228t-129 -253q-51 -117 -82 -229.5t-31 -210.5q0 -25 1 -55.5t8 -61.5q12 -63 51 -117.5t131 -54.5q16 0 34.5 2t35.5 8q90 23 177 93.5t158 150.5q49 53 89 105.5t67 88.5q23 31 34 43.5t19 12.5t12.5 -6.5t4.5 -16.5q0 -33 -64.5 -132t-163.5 -212 q-59 -66 -126.5 -129t-137.5 -115q-70 -49 -136.5 -79.5t-125.5 -30.5h-5h-7q-102 6 -188.5 102t-86.5 285z" />
<glyph unicode="D" horiz-adv-x="1312" d="M197 1006v12v12v1v3q0 182 53 258t215 131q20 8 42.5 15.5t47.5 13.5q14 4 22.5 6t14.5 4h1h1q4 2 8 3t8 3q53 16 117 26.5t174 10.5q39 0 85 -5t91 -17q119 -33 218.5 -140.5t99.5 -347.5q0 -330 -210 -572.5t-460 -350.5q-84 -35 -166 -53.5t-156 -18.5h-14t-14 2 q-39 6 -70 44t-31 144q0 47 37 162t191 393q35 66 56.5 103t39.5 65q2 2 3 4.5t3 4.5q10 16 20.5 33.5t24.5 37.5q12 18 22.5 34.5t20.5 33.5q2 2 3 4t3 4q16 29 36 60.5t46 80.5l15 -133q-205 -338 -286 -501.5t-81 -241.5q0 -57 23.5 -79t52.5 -26q10 -2 21.5 -2h19.5 q63 0 146 21.5t169 64.5q168 84 308.5 240t140.5 377v17t-2 18q-8 92 -95.5 168.5t-349.5 76.5q-117 0 -216 -22.5t-152 -48.5q-25 -10 -38.5 -21.5t-13.5 -21.5q0 -4 4.5 -8.5t10.5 -8.5q4 -4 10 -7l14 -7t16.5 -7t14.5 -5q-61 -27 -104 -44.5t-82 -29.5q-14 -4 -28.5 -8 t-29.5 -8q-8 -2 -15 -3.5t-15 -1.5h-4.5h-4.5t-4 1.5t-4 3.5q-12 8 -17 19t-7 24z" />
<glyph unicode="E" horiz-adv-x="1122" d="M35 137q0 47 24.5 104.5t73.5 116.5q66 78 173.5 151t258.5 122q31 10 50.5 16t33.5 10l7 3.5t8 3.5q10 4 19 8t22 10v16q-25 4 -43.5 6.5t-34.5 4.5h-12.5t-12.5 2q-8 0 -17.5 1t-19.5 1q-25 2 -53.5 4t-56.5 6q-80 12 -144.5 60t-64.5 169q0 23 3 45.5t11 44.5 q47 160 244.5 294t478.5 134q104 0 156.5 -17t89.5 -58v-160q-4 -8 -8 -15.5t-11 -13.5q-12 -10 -34.5 -23.5t-63.5 -33.5q-35 -18 -56.5 -31.5t-39.5 -25.5q-4 -2 -8 -5.5t-9 -7.5l-12 -8t-12 -10q-6 -4 -11.5 -8t-9.5 -9l-1 -1t-3 -1q-6 -4 -14 -9t-18 -13q4 16 16 49 t47 68q4 6 11 12l14 12q-6 4 -12.5 7t-12.5 6q-23 8 -46.5 12t-51.5 4q-168 0 -296 -71.5t-163 -157.5q-4 -12 -7 -25.5t-3 -26.5q0 -8 1 -15t5 -15q14 -31 82.5 -57.5t245.5 -26.5q20 0 38.5 1t38.5 3q8 0 18.5 1t18.5 1q10 0 20.5 1t22.5 1h20.5t20.5 -2q29 -2 44.5 -20.5 t15.5 -41.5q0 -8 -3.5 -15l-7.5 -15l-59 -95q-6 -10 -21.5 -13t-42.5 -5q-201 -12 -351 -93t-228 -175q-39 -45 -58.5 -88t-19.5 -80q0 -31 34 -51.5t73 -30.5q23 -4 43 -7t34 -3q33 0 67 4t69 10q133 31 266 107.5t256 179.5q-8 -152 -52 -233t-122 -138q-6 -4 -11.5 -8 t-9.5 -6q-143 -102 -272 -133t-193 -31q-168 0 -265 55t-97 262z" />
<glyph unicode="F" horiz-adv-x="1099" d="M80 -218q0 1 2 3v3v3q2 16 8 33.5t14 34.5q10 25 25.5 48t30.5 44q25 33 46 56.5t30 33.5q23 27 37 39t24 16q4 2 8 3t8 3q2 0 3 1t3 1t3.5 1t3.5 1q4 2 8 3.5t8 3.5q23 12 55.5 49t108.5 149q4 6 8 12.5t6 10.5q0 2 1 2h1q8 12 18.5 27.5t34.5 52.5q-68 -8 -107.5 -12.5 t-72.5 -6.5q-14 0 -29.5 -1t-31.5 -1h-12.5h-14.5h-24.5h-28.5q-25 2 -30 9.5t-5 27.5q0 12 1 25.5t5 25.5q12 47 59.5 91t161.5 67q35 6 55.5 10t39.5 6q10 2 20 3.5t25 1.5q23 2 56.5 4t86.5 6q29 47 64.5 106.5t72.5 122.5q6 8 11.5 17.5t9.5 17.5q47 82 89 157.5 t71 129.5q-47 -2 -114 -9.5t-138 -23.5q-78 -16 -149 -43t-118 -66l82 -51q-47 -12 -81.5 -17t-45.5 -5h-16h-16h-8.5h-6.5q-17 -1 -34 -1q-40 0 -76 4q-47 5 -47 43v11v6q0 2 1 5t1 5l45 156q8 31 24.5 51.5t46.5 40.5q12 6 26.5 14.5t31.5 16.5q27 12 57.5 26.5t65.5 28.5 q94 37 229 69t317 32h16.5h16.5h6h8q12 -2 24.5 -2.5t27.5 -0.5q31 0 65.5 1.5t67.5 1.5q66 2 127 5t106 7q-23 -203 -79 -257t-121 -59h-17.5h-17.5q-20 0 -40 1t-42 4h-8h-9h-31.5t-49.5 2l-19.5 -32.5t-13.5 -23.5l-1 -1l-1 -1q-4 -6 -9.5 -14t-11.5 -19 q-10 -18 -19 -32.5t-18 -26.5l-1 -1t-1 -3q-12 -20 -26.5 -45t-36.5 -66q-20 -37 -33.5 -59.5t-24.5 -42.5q-2 0 -2 -1v-1q-8 -12 -15 -24.5t-17 -28.5t-17.5 -28.5t-15.5 -25.5l-1 -1q-1 -1 -1 -3q-8 -14 -17.5 -29.5t-21.5 -37.5q23 2 37 3t26 1h3.5h3.5q6 0 14 1t16 1 q29 2 41.5 -4t12.5 -35q0 -90 -33 -128t-72 -48q-16 -4 -31.5 -6t-27.5 -2q-16 -2 -43 -5.5t-60 -9.5q-23 -33 -38 -54t-29 -42v-1q0 -1 -2 -1q-8 -12 -16.5 -24.5t-18.5 -28.5q-23 -37 -75 -110t-118 -152q-18 -23 -36.5 -44.5t-38.5 -43.5q-72 -82 -137.5 -140.5 t-104.5 -58.5h-5t-5 2q-10 2 -19.5 9t-11.5 18q-2 2 -2 5v7v1z" />
<glyph unicode="G" horiz-adv-x="1155" d="M127 406q0 225 123 431.5t270 342.5q4 2 7 5l5 5q61 55 135 108.5t148 96.5q96 53 187.5 87t160.5 34q39 0 63.5 -19.5t33.5 -114.5q2 -8 2 -15v-13v-9.5t-2 -9.5q-4 -23 -27 -54.5t-57 -63.5q-29 -29 -63 -55.5t-69 -49.5q-29 -18 -57.5 -31.5t-52.5 -19.5q6 12 11 21.5 t9 15.5t8.5 10t8.5 8l3 3l1 1q25 25 29 44.5t4 29.5q0 4 -5.5 5t-11.5 -1h-2h-4h-4q-33 0 -80 -23.5t-96 -58.5q-18 -12 -36.5 -25.5t-35.5 -27.5q-37 -27 -68.5 -54.5t-52.5 -45.5q-8 -8 -16 -15.5t-16 -15.5q-61 -63 -120 -138t-104 -153q-43 -74 -69.5 -145.5 t-26.5 -133.5q0 -55 23.5 -76.5t56.5 -21.5q47 0 131 68.5t176 165.5q20 23 43 46t43 46q84 94 152.5 178t97.5 123q4 6 9 13t12 14q10 16 24 28t31 12q6 0 17 -2t22 -6q18 -8 33.5 -25.5t15.5 -50.5q0 -8 -3 -19t-7 -24q-2 -6 -3 -11t-4 -11q-4 -6 -6 -11l-4 -10l-317 -673 q123 90 175 135t79 69q39 35 55 44.5t25 9.5q2 0 3 -2l3 -6l1 -1q1 -2 1 -4v-3v-1v-1v-1q-2 0 -2 -1v-1q-2 -14 -44 -64t-247 -241q-33 -31 -56.5 -51.5t-43.5 -40.5q-4 -4 -7.5 -7t-7.5 -7q-10 -12 -22.5 -24.5t-24.5 -27.5q-168 -293 -257 -366.5t-130 -73.5q-2 0 -6 1 t-6 3q-12 6 -20.5 17.5t-8.5 25.5q0 41 21.5 97.5t56.5 117.5q35 59 79 116.5t91 96.5q16 16 32.5 27.5t32.5 19.5q4 12 8.5 21.5t8.5 17.5q2 2 2 3v1q10 25 22.5 53.5t32.5 75.5q27 55 68 150.5t92 238.5q-43 -41 -69.5 -66.5t-49.5 -49.5q-2 0 -3 -2t-3 -2l-16.5 -16.5 t-16.5 -18.5q-135 -137 -217 -196.5t-143 -59.5q-12 0 -27.5 5t-32.5 15q-39 25 -71.5 88.5t-32.5 176.5z" />
<glyph unicode="H" horiz-adv-x="1411" d="M150 950q0 18 6 66.5t24 101.5q14 43 36 82t54 64q41 33 104.5 61.5t131.5 52.5q59 20 113.5 36t95.5 24q27 6 48 11t42 9q37 8 77 12.5t101 4.5h24.5h22.5h17q96 1 140 -21q48 -24 48 -170q0 -57 -19.5 -95t-41.5 -71l-293 -411q41 6 104.5 16t151.5 22 q70 109 106.5 161t65.5 95l1 1l1 2q6 8 12 17t12 17q117 156 152 206t49 50q6 0 9 -17t3 -40q0 -29 -12 -52.5t-27 -43.5q0 -2 -1 -3l-1 -1q-2 -2 -3 -4.5t-3 -4.5q-33 -47 -59.5 -90t-52.5 -84q-10 -18 -20.5 -35.5t-20.5 -35.5q-18 -31 -38 -66t-40 -72q30 3 72 5 q11 0 25 1q34 0 79 -3l-111 -256q-25 2 -49 2h-49q-27 -2 -51.5 -4.5t-48.5 -6.5q-29 -47 -53.5 -87t-41.5 -79q-20 -41 -30.5 -84t-10.5 -92v-21t3 -22l-144 -98q0 4 -1 8t-3 8q-2 12 -5 29.5t-1 40.5q0 59 29.5 156.5t124.5 234.5q-80 -14 -159 -22.5t-157 -14.5 q-29 -33 -49.5 -59.5t-38.5 -50.5q-2 -4 -4 -6t-4 -7q-10 -12 -20.5 -26.5t-20.5 -28.5q-63 -92 -91 -139t-28 -84v-9t2 -10q0 -6 1 -11t3 -9q-35 2 -63.5 27.5t-38.5 54.5q0 6 -1 11t-1 9q0 37 44 111t157 225q-4 0 -9.5 -1t-9.5 -1h-11h-9q-23 0 -40.5 2t-29.5 4 q-4 2 -7 3t-5 1q-35 10 -40 32t-5 46v5v6q0 18 8 42.5t20 51.5q4 12 10.5 23.5t12.5 23.5q6 10 12 20.5t12 20.5q0 -33 25 -48.5t131 -15.5q35 0 60.5 6.5t50.5 14.5q4 2 9 4t9 4l275 369q4 4 17 23.5t28 45.5q6 10 11 19.5t9 17.5q10 23 18.5 44.5t8.5 37.5q0 27 -12.5 39 t-26.5 16q-6 0 -12.5 1t-10.5 1q-47 0 -117.5 -12t-146.5 -35q-94 -29 -178 -67.5t-125 -83.5q-2 -8 -5 -17.5t-3 -19.5v-5t2 -5q0 -4 1 -6.5t1 -6.5l-279 -172q-14 12 -24 33t-10 51z" />
<glyph unicode="I" horiz-adv-x="813" d="M127 821q0 35 13.5 76t35.5 82q14 29 31.5 57.5t36.5 55.5q16 23 30.5 44t28.5 40q18 25 41 51t49 55q35 35 73 68.5t79 62.5q43 29 84 47.5t78 18.5q10 0 20 -1t21 -3q63 -12 116.5 -60.5t53.5 -118.5q0 -39 -19.5 -151.5t-118.5 -349.5q-20 -47 -51 -117t-65 -141 q-6 -12 -12.5 -24.5t-10.5 -23.5q-25 -51 -48.5 -97t-43.5 -83q-8 -14 -13.5 -24.5t-11.5 -20.5v-2q-6 -10 -11 -20.5t-13 -26.5q2 -2 2 -6v-8q0 -16 -6.5 -40t-14.5 -48q-12 -29 -25.5 -55.5t-27.5 -41.5q-8 -8 -15 -12t-14 -4q-4 0 -8 1t-8 3q-18 8 -35.5 29.5t-23.5 44.5 q0 6 -1 11t-1 11q0 33 26.5 78t59.5 98q2 4 3 6.5t3 4.5q31 51 69.5 121.5t77.5 152.5q20 41 40 84t38 86q66 143 111 276.5t45 204.5q0 37 -13.5 54.5t-42.5 17.5q-37 0 -86 -32.5t-100 -84.5q-33 -31 -64.5 -66.5t-60.5 -72.5q-39 -51 -69.5 -99t-47.5 -85q6 2 15.5 3 t21.5 1q16 0 35.5 -3t46.5 -14q-70 -53 -106.5 -97t-59.5 -44q-12 0 -26.5 6t-30.5 17q-18 12 -36.5 30.5t-29.5 36.5q-6 10 -10 20.5t-4 20.5z" />
<glyph unicode="J" horiz-adv-x="870" d="M-53 -551q0 84 75.5 261t329.5 378q10 8 19.5 15.5t15.5 13.5q2 0 2 1t2 1q14 12 30.5 26.5t45.5 38.5q25 45 74 151.5t104 237.5q14 35 29.5 72t27.5 72q57 143 97.5 274t40.5 209v7v5q0 33 -5.5 49.5t-33.5 16.5q-35 0 -75 -22.5t-81 -61.5q-68 -66 -131 -165 t-106 -206q-31 -74 -49.5 -145.5t-18.5 -130.5v-4v-6v-5.5v-5.5q0 -16 2 -30.5t10 -14.5q10 0 28.5 8.5t39.5 24.5l10 10t12 13q-12 -23 -26.5 -48.5t-30.5 -50.5q-18 -27 -36.5 -52.5t-39.5 -47.5q-33 -41 -65.5 -67.5t-55.5 -26.5q-4 0 -9 1t-9 5q-14 8 -26.5 30.5 t-12.5 59.5q0 104 45 308t217 444q8 12 17.5 24t19.5 25q43 53 93 104t104 92q57 45 113.5 74t101.5 29q10 0 23.5 -5t27.5 -14q31 -18 56.5 -55t25.5 -86q0 -57 -23.5 -153.5t-60.5 -200.5q-16 -49 -33.5 -96.5t-36.5 -90.5q-10 -27 -21.5 -50t-21.5 -46q-14 -29 -22 -46 t-17 -34q0 -2 -1 -3t-1 -3q-4 -10 -8 -20.5t-10 -22.5q-10 -27 -37 -88t-80 -164q6 4 24.5 15.5t41.5 23.5q4 2 7 4t7 4q23 12 44.5 22.5t31.5 10.5q16 0 21 -4t5 -8q0 -8 -10 -18.5t-45 -32.5q-57 -39 -94 -69t-70 -58q-2 -2 -4 -3.5t-4 -3.5q-6 -6 -11 -10t-11 -8 q-6 -6 -14.5 -13.5t-20.5 -17.5q-295 -479 -393.5 -576.5t-118.5 -97.5q-4 0 -8.5 1.5t-8.5 1.5q-8 4 -16 9t-8 15z" />
<glyph unicode="K" horiz-adv-x="1368" d="M150 913v8.5v8.5v1v3q0 66 19 126t44 109l178 134q0 -2 -1 -8.5t-3 -12.5v-10v-8q0 -8 5 -11.5t11 -3.5h3h2q2 0 3 1t3 1t4 1l2 1q33 10 76 32t92 44q47 20 97 41t99 31q25 6 48.5 9t48.5 3q39 0 68.5 -35t43.5 -78q8 -16 11.5 -33.5t3.5 -31.5q0 -23 -4.5 -38t-12.5 -28 l-147 -243l622 377q4 -16 6.5 -32t2.5 -32q0 -86 -56.5 -142.5t-124.5 -105.5q-4 -2 -7 -5t-7 -5q-23 -16 -47.5 -32.5t-61.5 -33.5q-2 4 -4 10.5t-4 12.5q-6 14 -14 26.5t-19 12.5q-6 0 -15 -2t-19 -6q-4 -2 -9.5 -4t-9.5 -2q-6 -4 -12 -7.5t-10 -5.5l-297 -178l-68 -113 l465 -385q66 -51 91.5 -125.5t25.5 -166.5q0 -6 -1 -20.5t-3 -29.5q-2 -20 -6 -38q-4 -16 -8 -15h-1h-2l-692 578l-139 -215q-2 -2 -2 -5.5v-5.5v-4v-4l1 -1l1 -1q2 -2 2 -3v-1q0 -2 1 -4t1 -4q-6 -8 -10 -15.5t-8 -13.5q-2 -2 -3.5 -3t-1.5 -3q-6 -6 -11 -13t-11 -16 q-4 -8 -7 -12t-7 -8q-2 -2 -4.5 -5t-4.5 -7q-45 -63 -71.5 -88t-42.5 -25q-10 0 -16.5 9t-6.5 20q0 35 42 117.5t237 367.5q-14 25 -15.5 49.5t0.5 40.5v10v9q0 20 9.5 38.5t19.5 34.5q6 8 11 14.5t9 12.5l156 94l178 299q16 27 22.5 41t6.5 25v3v1q-2 8 -9 15t-18 7 q-59 0 -206.5 -90t-401.5 -219q-33 -14 -49 -22.5t-31 -8.5q-18 0 -24 14.5t-6 30.5z" />
<glyph unicode="L" horiz-adv-x="1114" d="M-31 10v3v1q0 16 16.5 57.5t37.5 86.5q4 6 7 13t7 13q20 41 38.5 75t26.5 46q8 4 21.5 9t30.5 12q33 10 84 18q41 6 93 6h27q39 68 69 122t58 103q0 2 1 4.5t3 4.5q16 31 35 62.5t37 66.5q25 43 92.5 155.5t151.5 241.5q16 25 33.5 49.5t33.5 48.5q88 129 168 223.5 t121 94.5q4 0 7 -1t8 -3q20 -10 38.5 -43t24.5 -70q0 -6 1 -13t1 -14q0 -23 -5 -51t-15 -59q-4 -18 -11.5 -38t-13.5 -38q-6 -16 -12 -31.5t-13 -27.5q-45 -92 -73.5 -148.5t-32.5 -105.5q-2 -6 -2 -11.5v-11.5v-6t2 -6q0 -10 1 -20.5t5 -20.5l-203 -195q-4 -4 -9 -7t-9 -3 q-10 2 -15.5 16.5t-5.5 38.5q0 76 24 143.5t52 123.5q10 20 21.5 39.5t19.5 35.5q59 106 75.5 142.5t16.5 52.5v3v1q-2 2 -3 5t-3 3l-1 1l-3 3h-3h-1h-4t-4 -2q-2 0 -4 -1t-4 -1q-35 -16 -110 -125.5t-157 -246.5q-10 -16 -20 -34t-21 -34q-84 -141 -152.5 -264t-88.5 -164 h5t7 -2q66 -6 142.5 -28.5t203.5 -78.5q86 -37 132 -53t85 -22q8 0 17.5 -1t19.5 -1l-131 -177q-2 0 -3 -2t-3 -2q-12 -18 -30.5 -32.5t-59.5 -14.5q-49 0 -128 38t-257 95q-4 2 -7 3t-8 1q-37 14 -75.5 24.5t-89.5 10.5q-74 0 -125.5 -15t-85.5 -32q-35 -18 -55.5 -33.5 t-35.5 -15.5q-2 0 -4 3t-4 7z" />
<glyph unicode="M" horiz-adv-x="1691" d="M35 129q0 131 27.5 227.5t60.5 157.5q16 33 33.5 55.5t29.5 34.5q6 6 16.5 12.5t22.5 12.5t27.5 12t30.5 10q31 12 59.5 20.5t38.5 8.5q4 0 6 -1t2 -3v-7t-2 -5q-6 -23 -29.5 -48.5t-50.5 -72.5q-23 -41 -45 -105.5t-31 -163.5q37 53 65 92.5t54 73.5q2 4 4 7.5t6 7.5 q8 12 18.5 24.5t20.5 26.5q6 8 10.5 15t8.5 14h2q8 12 18.5 27.5t28.5 39.5q18 25 110.5 138.5t204.5 244.5q12 14 24.5 28.5t27.5 28.5q113 129 214 229.5t138 100.5h3h3q16 -6 33.5 -39t25.5 -69q6 -18 8.5 -36t2.5 -32v-1v-1q0 -37 -30 -88t-95 -174q-12 -23 -23.5 -45.5 t-23.5 -44.5q-53 -102 -102.5 -208t-90.5 -233q33 47 50.5 72l31.5 45q6 6 11 14.5t11 16.5q37 53 115 152.5t170 207.5q16 18 31.5 36t30.5 36q117 131 218 232.5t138 101.5q4 0 7 -1t7 -1q20 -10 39 -42t19 -71q0 -4 -1 -9t-1 -9q0 -2 -1 -4t-1 -4t-1.5 -5.5t-1.5 -7.5 q-37 -55 -65.5 -99t-56.5 -85q-2 -4 -4.5 -7t-4.5 -5q-18 -29 -37.5 -56.5t-41.5 -58.5q-16 -23 -33 -48.5t-33 -51.5q-29 -51 -58.5 -107.5t-56.5 -114.5q-35 -80 -58.5 -158.5t-23.5 -142.5q0 -82 20.5 -118.5t51.5 -36.5q29 0 69 27.5t103 88.5l21.5 21.5l13.5 13.5 q0 2 1 3l1 1q2 2 4 5.5t4 5.5q20 23 33.5 33t21.5 10h4h1q4 -2 8 -6.5t6 -8.5v-1v-3q0 -8 -12.5 -28.5t-28.5 -43.5q-2 -2 -4 -6t-6 -6q-16 -23 -30.5 -41t-18.5 -22q-10 -12 -21.5 -24.5t-24.5 -24.5q-33 -33 -69.5 -65t-73.5 -58q-41 -31 -82 -48.5t-76 -17.5 q-6 0 -23.5 5t-35.5 22q-25 20 -44 61t-19 115q0 127 50 260t138 274q84 133 102.5 170t18.5 52q0 8 -4 12t-13 4q-14 0 -63 -44t-176 -208q-131 -166 -215 -299t-131 -221q-39 -70 -53.5 -94.5t-24.5 -26.5h-1h-1q-4 0 -10.5 1t-12.5 3q-14 6 -26.5 23.5t-12.5 58.5 q0 106 49.5 242.5t143.5 345.5q113 250 144.5 310.5t31.5 76.5q0 10 -9 15t-20 5q-23 0 -64.5 -33.5t-86.5 -78.5l-19.5 -19.5l-19.5 -19.5q-35 -37 -64.5 -72t-48.5 -55q-82 -96 -194.5 -258t-257.5 -402q-35 -59 -54.5 -80.5t-33.5 -25.5q-8 -4 -16.5 -3t-18.5 1 q-4 2 -9.5 2h-9.5h-7h-5q-27 0 -39 15.5t-12 117.5z" />
<glyph unicode="N" horiz-adv-x="1325" d="M150 993q0 96 60 182.5t134 145.5q27 23 52.5 40t47.5 30q0 -25 11.5 -42.5t25.5 -17.5q4 0 8.5 1t8.5 1l8 4l8 4q18 10 34.5 20.5t33.5 22.5q10 6 21 13.5t22 13.5q43 29 88 49.5t100 20.5q66 0 88.5 -36t24.5 -81v-5v-5q0 -23 -3 -43.5t-5 -34.5q-2 -10 -4.5 -16.5 t-4.5 -10.5q-14 -47 -46 -124.5t-70 -159.5q-8 -20 -17.5 -40t-19.5 -38q-20 -41 -40 -80t-38 -72q-49 -88 -57.5 -115.5t-8.5 -33.5v-2v-2q0 -6 2 -10.5t4 -4.5q8 0 19.5 13.5t26.5 33.5q2 4 5 7.5t5 7.5v1v1q10 14 23.5 31.5t39.5 52.5l17.5 21t15.5 20q16 20 34.5 44.5 l55.5 73.5q45 57 74 94.5t55 67.5q4 4 7 7.5t5 7.5q18 20 38 40.5t44 47.5q12 12 41 41.5t66 62.5q6 6 14 13.5t17 13.5q37 35 72.5 59.5t54.5 24.5q23 0 40 -29t27 -63q6 -20 10.5 -41t4.5 -33q0 -45 -32 -112.5t-112 -205.5q-221 -381 -263 -510t-42 -151q0 -57 15.5 -84 t37.5 -27q29 0 58.5 21.5t56.5 48.5l3 3l3 3q61 59 84 94t37 43q2 2 5 3t5 1q8 0 13.5 -3t7.5 -7q2 -2 2 -3v-3q0 -14 -16.5 -45t-80.5 -109q-164 -199 -242.5 -247t-105.5 -48q-39 0 -67.5 44.5t-28.5 113.5q0 78 36 189.5t87 228.5q20 47 42.5 93t43.5 89 q37 72 71.5 135.5t63.5 110.5q57 96 66.5 127t9.5 45q0 4 -2 6l-4 4h-3h-1q-18 0 -63.5 -28.5t-190.5 -200.5q-152 -182 -237 -313.5t-114 -182.5q-94 -164 -127.5 -222t-54.5 -64h-3h-3q-4 0 -8 1t-8 3t-8.5 4t-8.5 4q-6 4 -12 9t-14 11q-16 14 -30.5 31.5t-14.5 36.5 q0 16 10 42t28 60q176 330 293 596.5t117 386.5q0 25 -5 41.5t-36 16.5q-16 0 -43 -13.5t-55 -31.5q-8 -4 -16.5 -10.5t-16.5 -10.5q-25 -16 -44 -31.5t-32 -25.5q-14 -10 -26.5 -20.5t-24.5 -20.5q-8 -8 -17.5 -15.5t-17.5 -15.5q-27 -23 -52.5 -47.5t-55.5 -56.5 q-43 -45 -71 -60.5t-44 -15.5q-2 0 -5 2t-5 8q-4 10 -8 30.5t-4 59.5z" />
<glyph unicode="O" horiz-adv-x="1017" d="M104 420q0 254 140.5 472t310.5 355q88 74 174 119t150 57q6 2 12 2h10h4h4t4 -1t5 -1q6 -2 11 -5t11 -7q25 -18 47.5 -57t38.5 -80q6 -12 10 -25.5t6 -25.5q-49 -6 -84.5 -22.5t-64.5 -39.5q6 2 12 2h13q72 -2 115.5 -61.5t43.5 -165.5q0 -72 -18.5 -154t-50.5 -166 q-88 -229 -264.5 -419.5t-374.5 -190.5q-27 0 -48.5 4t-41.5 17q-8 4 -16.5 10t-18.5 14q-49 43 -81 109.5t-46 140.5q-6 31 -9.5 60.5t-3.5 58.5zM250 274q0 -57 17.5 -90.5t39.5 -50.5q10 -8 19.5 -11t17.5 -3q51 0 110.5 37t120.5 98q68 66 133.5 153t116.5 179 q59 100 95 196.5t36 163.5q0 59 -18 92t-64 33q-35 0 -74.5 -17.5t-78.5 -45.5q-45 -31 -88 -72t-82 -86q-33 -37 -60.5 -73t-48.5 -66l-39 20q-35 -45 -63.5 -108.5t-50.5 -130.5q-18 -59 -28.5 -117t-10.5 -101z" />
<glyph unicode="P" horiz-adv-x="1267" d="M168 -52q0 5 2 9q0 6 1 11t1 9q2 6 3 11.5t3 11.5q10 39 29.5 80t46.5 90q8 18 14 29.5t11 21.5l2 2q2 6 6 13.5t8 15.5q14 29 22.5 46t16.5 30q0 2 1 4t3 2q2 6 5 11t7 11q-8 2 -15 6.5t-16 8.5q-31 18 -55 49t-24 65q0 20 6 45t26 52q25 33 82.5 63.5t161.5 50.5 l262 486h-20q-54 0 -115 -8q-72 -10 -145 -29q-82 -20 -161 -49t-147 -62q66 287 227 363t449 76q201 0 342.5 -95.5t141.5 -394.5q0 -47 -11.5 -97t-31.5 -102q-74 -182 -254.5 -333.5t-409.5 -151.5q-18 0 -66.5 4t-150.5 19l-55 -111q0 -2 -1 -5t-3 -5q-2 -8 -5.5 -17.5 t-1.5 -21.5q0 -8 2.5 -20.5t8.5 -24.5q-14 -29 -21.5 -42.5t-11.5 -23.5l-2 -2q-2 -6 -5 -12t-7 -17q-47 -96 -71 -125.5t-32 -29.5h-3h-3h-9t-11 2t-12.5 11t-10.5 26q0 4 -1 8t-1 8q-2 6 -2 10v9v9zM580 596q0 -16 18 -29.5t41 -19.5q10 -4 18.5 -5t16.5 -1q47 0 103.5 9 t115.5 30q125 41 230.5 137t105.5 260v3v3q0 14 -2 40t-19 52q-24 43 -98 79q-60 29 -181 29q-27 0 -57 -1l-243 -469q27 4 37 4h14h5h5h14.5t8.5 2h7h9q16 0 21.5 -5t7.5 -9v-6.5v-4.5v-1v-1q0 -4 -4 -6t-15 -4q-10 -2 -25.5 -4t-39.5 -4q-6 0 -18.5 -2t-26.5 -8 q-18 -6 -33.5 -22.5t-15.5 -45.5z" />
<glyph unicode="Q" horiz-adv-x="1138" d="M80 14.5v32.5q0 2 1 4t1 4v11.5v11.5v15t2 16q4 86 54 156.5t173 70.5h56q55 51 147 132t193 177q53 51 104 104.5t96 108.5q76 86 129.5 172t67.5 160q2 8 2 16v17v12t-2 12q-6 25 -20.5 32t-28.5 7h-4h-4q-49 0 -112 -21.5t-128 -54.5q-49 -27 -98.5 -57.5t-92.5 -60.5 q-39 -31 -71.5 -61t-52.5 -54q10 -4 18 -7t16 -7q25 -10 38.5 -22.5t23.5 -35.5q-45 -8 -81 -22.5t-71 -32.5q-12 -6 -23.5 -12.5t-23.5 -12.5q-63 -35 -80.5 -41t-23.5 -6q-16 0 -28.5 39t-20.5 88q-4 29 -7.5 55.5t-3.5 45.5q0 20 8.5 39.5t24.5 41.5q23 31 55.5 62 t69.5 59q27 20 53.5 39t46.5 33q29 20 58.5 37.5t60.5 34.5q98 53 191.5 85.5t160.5 39.5q23 2 45.5 2t44.5 -2q74 -6 117 -54.5t64 -105.5q10 -29 14 -55.5t4 -49.5q0 -59 -73.5 -207.5t-391.5 -429.5q-66 -57 -94.5 -81.5t-48.5 -42.5q-2 0 -2 -1v-1q-8 -6 -16.5 -13.5 t-18.5 -15.5q-14 -14 -26.5 -24.5t-24.5 -20.5t-23.5 -20.5t-27.5 -24.5q29 -4 52 -7.5t42 -7.5q16 -2 30.5 -5t28.5 -7q14 -2 29.5 -6t34.5 -8q6 -2 12 -3t12 -1q33 -8 68 -14.5t72 -10.5q20 -4 40.5 -5t40.5 -1q31 0 65 5t67 13q12 4 23 7.5t22 7.5l-50 -185 q-14 -49 -45.5 -78.5t-156.5 -29.5q-45 0 -89 3t-87 11q-31 4 -57.5 10.5t-51.5 10.5q-66 14 -119 27.5t-102 17.5q-14 2 -28.5 3t-29.5 1q-76 0 -110.5 -12.5t-52.5 -26.5q-6 -4 -10.5 -9t-10.5 -10q-8 -8 -18.5 -14t-30.5 -6q-6 0 -6 14.5z" />
<glyph unicode="R" horiz-adv-x="1370" d="M150 31q0 4 1 8t1 10q2 6 4 13.5t4 13.5t4 10l4 8l182 379q-47 18 -61.5 30.5t-14.5 18.5v7v8q-2 18 0 42.5t21 51.5q18 27 63 53.5t134 44.5l270 485q-61 -8 -112.5 -19t-90.5 -21q-57 -16 -89 -32t-32 -24q0 -4 8.5 -9t20.5 -9q6 -2 13 -5t16 -5q12 -4 24 -8.5 t21 -10.5q-12 -2 -24.5 -6t-29.5 -6q-20 -6 -42.5 -10.5t-45.5 -8.5q-23 -2 -43 -4t-39 -2h-5h-5h-7h-7q-31 0 -56.5 10.5t-25.5 55.5v1v1q0 29 6 81t43 107q53 80 197.5 146.5t451.5 66.5q276 0 400.5 -70.5t154.5 -156.5q4 -16 7.5 -33.5t3.5 -34.5q0 -274 -192.5 -369.5 t-424.5 -148.5q-10 -2 -18.5 -4t-16.5 -4q-14 -2 -28.5 -5t-28.5 -7t-28.5 -7.5t-28.5 -7.5h-5.5t-5.5 -2q-33 -6 -66.5 -14t-74.5 -21l399 -196q113 -55 174.5 -94t90.5 -74q27 -33 31 -71q2 -24 2 -54q0 -17 -1 -37v-16v-15q0 -37 -1 -56t-11 -19h-4h-2h-14.5t-10.5 4 l-768 432l-155 -328q-6 -8 -13.5 -16t-15.5 -19l-15 -15t-16 -13q-14 -14 -28.5 -22.5t-24.5 -8.5q-12 0 -18 5t-6 26zM625 766q422 106 566 201.5t144 173.5q0 45 -37.5 66.5t-83.5 25.5q-12 2 -24 3t-25 1q-33 0 -78 -1t-92 -3q-31 -2 -59.5 -5t-54.5 -7z" />
<glyph unicode="S" horiz-adv-x="1224" d="M127 119q0 20 4 50t16 60q14 41 49 78t99 53q6 2 12 3.5t8 1.5q4 0 4 -1.5v-3.5t-1 -6t-1 -8q-2 0 -2 -2v-4q-2 -2 -2 -5v-5q0 -27 28 -41.5t62 -14.5q49 0 128 12.5t165 35.5q129 35 236.5 86t107.5 108q0 61 -73.5 102t-161.5 66q-35 10 -70 18.5t-63 14.5 q-68 14 -117 28.5t-84 26.5q-90 35 -105.5 74t-15.5 102q0 115 18.5 192t98.5 146q20 18 47 36.5t59 39.5q31 18 63 34.5t62 28.5q143 61 274.5 80t194.5 19q82 0 120 -22.5t52 -51.5q8 -18 10.5 -35.5t2.5 -28.5v-1v-1q0 -59 -7.5 -89.5t-35.5 -57.5q-12 -10 -29.5 -21.5 t-42.5 -23.5q-39 -20 -68.5 -42t-58.5 -42q-18 -14 -32.5 -23.5t-28.5 -17.5q-2 -2 -6.5 -5t-8.5 -5q-6 -4 -14 -8.5t-19 -10.5q8 23 24.5 53.5t47.5 63.5q12 12 26.5 24.5t30.5 24.5q-25 14 -56.5 22.5t-67.5 8.5q-39 0 -84 -9t-93 -26q-82 -27 -156.5 -71t-117.5 -93 q-18 -20 -29.5 -40.5t-11.5 -41.5q0 -35 39 -55t100 -37q51 -14 116 -30.5t130 -40.5q12 -6 23.5 -10.5t23.5 -10.5q94 -41 162 -104.5t68 -178.5q0 -29 -12.5 -78t-43.5 -104q-25 -43 -61.5 -84t-89.5 -71q-20 -12 -47 -25.5t-62 -28.5q-82 -35 -200.5 -64.5t-262.5 -29.5 h-3h-3h-42.5t-47.5 2q-66 4 -120 27.5t-54 87.5z" />
<glyph unicode="T" horiz-adv-x="1077" d="M173 1069q1 6 3 12l45 136q25 76 153 129t277 84q109 23 208 34t161 11h18.5h16.5h5h5q10 -2 23.5 -2h29.5q31 0 63.5 1t67.5 1q66 2 127.5 5t106.5 7q-16 -168 -67.5 -218t-108.5 -57q-14 -2 -28.5 -2h-27.5q-14 0 -53 2t-129 7q-16 -18 -28.5 -35t-22.5 -33 q-6 -8 -11.5 -15.5t-9.5 -15.5q-10 -12 -18 -26.5t-18 -30.5q0 -2 -1 -3l-2 -1q-41 -68 -102 -178.5t-217 -444.5q-14 -29 -26.5 -55.5t-22.5 -50.5q-4 -6 -7 -12.5t-5 -12.5q-20 -45 -41 -93t-48 -112q-29 -68 -46 -98.5t-31 -42.5q-10 -6 -19.5 -9t-23.5 -5h-2h-5h-9 t-11 -2q-10 -2 -19.5 -3t-15.5 -1q-16 0 -27.5 17t-21.5 71q-12 66 -16 111.5t-4 84.5q0 29 6 70t18 82q8 39 20.5 75.5t24.5 65.5q6 14 13.5 27.5t13.5 21.5t24.5 23.5t40.5 32.5l13.5 9t15.5 11q27 16 51.5 29.5t36.5 13.5q4 0 6 -1t2 -5q0 -12 -16 -39t-35 -66 q-18 -39 -34.5 -88t-16.5 -104q0 -51 11 -89t26 -67q33 74 50 113t32 70q0 2 1 3t1 3q4 8 8 17t8 20q31 70 59.5 134t57.5 126q14 33 29.5 65.5t31.5 65.5q43 90 92.5 183t112.5 198q-47 -2 -113.5 -9.5t-138.5 -23.5q-76 -16 -148.5 -43t-117.5 -66l82 -51q-4 -2 -9 -3 t-10 -1q-6 -2 -12 -3t-12 -3q-23 -6 -44.5 -9t-41.5 -3h-21.5h-23.5q-4 0 -8.5 -1t-6.5 -1q-55 0 -101 6q-44 6 -44 42q0 9 1 15z" />
<glyph unicode="U" horiz-adv-x="1413" d="M150 907v6v7v5v5q6 125 74.5 200.5t150.5 122.5q18 12 37.5 22.5t38.5 18.5q12 6 23 12.5t26 12.5q53 27 126.5 48.5t184.5 21.5q127 0 162 -14.5t35 -45.5q0 -113 -40 -206t-87 -160q-6 -6 -11.5 -13.5t-9.5 -13.5q-162 -209 -247 -337t-95 -230q-2 -6 -2 -12.5v-12.5 v-5t2 -5v-6v-6q2 -14 7 -26.5t20 -12.5q4 0 9 1t9 3q33 12 76 65.5t139 147.5q74 74 216.5 227.5t299.5 345.5q14 18 28.5 36.5t29.5 37.5q51 66 73.5 92.5t36.5 26.5t25.5 -20.5t19.5 -45.5q4 -14 7.5 -27.5t3.5 -23.5q0 -47 -80 -147.5t-217 -364.5q-119 -227 -149 -332.5 t-30 -148.5t12.5 -57.5t24.5 -16.5h3h3q20 0 48 14.5t57 32.5q10 6 19.5 13.5t17.5 15.5q8 4 15 9t13 11q45 35 61.5 54.5t26.5 23.5q2 2 4.5 2h4.5q16 0 23 -8t7 -19q0 -23 -49 -67.5t-121 -110.5q-66 -59 -109.5 -95t-84.5 -40h-3h-3h-5h-8h-3t-3 2q-43 10 -78.5 78 t-35.5 172q0 76 63.5 204t218.5 435q-113 -129 -186.5 -219t-138.5 -172q-2 -2 -4.5 -5t-4.5 -5q-25 -33 -64.5 -83.5t-84.5 -103.5q-18 -23 -39 -44t-39 -42q-55 -59 -107.5 -98t-91.5 -39h-3h-3q-31 2 -59.5 38t-46.5 79q-10 23 -15.5 45t-5.5 39q0 33 13.5 76.5 t33.5 91.5q14 33 32 65.5t34 59.5l8 12l8 12q37 55 78 106.5t84 100.5q27 29 51.5 57.5t48.5 55.5q14 18 35 40.5t43 47.5q8 12 18.5 25.5t20.5 25.5q29 37 48.5 72.5t19.5 62.5q0 20 -19.5 27.5t-44.5 9.5h-11h-11q-98 0 -183.5 -34t-142.5 -75q-37 -29 -58.5 -54.5 t-21.5 -39.5q0 -4 3 -7t10 -7q8 -6 21 -12.5t26 -12.5q16 -4 29.5 -8t21.5 -6q-12 -4 -30.5 -9t-39.5 -10q-10 -2 -19 -5t-18 -5q-27 -6 -52 -10t-44 -4q-47 0 -69.5 10t-32.5 23q-6 8 -7 15t-1 11z" />
<glyph unicode="V" horiz-adv-x="1236" d="M150 862v3v3v4v2q2 68 34.5 145t210.5 204q27 18 60.5 40.5t72.5 45.5q37 20 75 39.5t77 37.5q72 35 139.5 56.5t118.5 21.5q33 0 46 -13t24 -36q2 -4 5 -9t5 -11q10 -20 16 -44t6 -59q0 -37 -28.5 -83t-81.5 -138q-266 -461 -311.5 -630t-45.5 -212q0 -35 10.5 -56 t20.5 -28q4 -2 7 -3t5 -1q18 0 43 18.5t50 47.5q14 18 30.5 38.5t30.5 41.5q8 14 17.5 28.5t17.5 28.5l276 457q12 23 21.5 38t15.5 29q10 18 14.5 43t6.5 70q14 41 29.5 76t29.5 61q39 70 74 104.5t55 34.5q4 0 9 -6t7 -14v-4v-4v-4v-4q0 -27 -8 -84.5t-65 -173.5 q-8 -18 -14.5 -28.5t-10.5 -21.5l-1 -1l-1 -1q-8 -16 -19.5 -36.5t-39.5 -67.5l-344 -584q-12 -23 -29.5 -48t-38.5 -52q-23 -31 -48.5 -59.5t-51.5 -53.5q-29 -25 -57.5 -41t-53.5 -16q-51 0 -94 82t-43 192q0 135 65.5 304t192.5 403q59 109 81.5 152.5t22.5 60.5 q0 16 -5 20t-13 4h-5t-5 -2h-3h-3q-4 0 -7.5 -1t-7.5 -1q-8 0 -14 -2l-12 -4q-8 -4 -18.5 -11t-26.5 -15q-25 -10 -51.5 -25.5t-53.5 -32.5q-37 -25 -72.5 -52.5t-66.5 -55.5q-23 -20 -40 -41t-30 -39q23 -6 37 -8t29 -4q4 0 8 -1.5t8 -1.5q8 0 14.5 -1t12.5 -3q8 0 17 -2 t22 -6q-23 -10 -40.5 -17t-33.5 -14q-8 -2 -14 -4t-15 -6q-6 -2 -13 -4t-15 -4q-63 -20 -95 -31.5t-57 -13.5h-4h-4q-47 0 -55 22q-5 16 -5 46q0 12 1 26z" />
<glyph unicode="W" horiz-adv-x="1601" d="M150 954v6.5v6.5q0 115 29.5 179t64.5 99q16 16 33.5 28.5t29.5 22.5q31 23 50.5 36.5t37.5 23.5q10 6 19.5 10t21.5 8q2 2 4 3t4 1v-16q0 -12 7.5 -17.5t17.5 -5.5q8 0 17.5 2t19.5 7q8 2 14 4l12 4q6 4 11.5 6t9.5 4q10 4 26.5 11t38.5 14q31 10 67 19t73 11q10 2 19 2 h18q8 0 17 -1t17 -3q49 -12 89 -71.5t40 -206.5q0 -49 -25.5 -113.5t-64.5 -132.5q-18 -31 -37.5 -61.5t-39.5 -59.5q-35 -53 -69 -99t-58 -77q-66 -84 -101 -140.5t-41 -107.5q-2 -6 -2 -11v-11v-6.5v-8.5q0 -8 1 -14t5 -6q18 0 53 31.5t93 99.5q6 6 10 11t8 9 q6 8 14.5 17.5t22.5 23.5q20 23 36.5 42.5t33.5 37.5l4 4l4 4q41 51 93 118t157 204q170 225 217 290.5t69 65.5q31 0 48.5 -25.5t25.5 -54.5q4 -12 5 -24t1 -23q0 -20 -18.5 -55t-67.5 -111q-12 -18 -59 -92.5t-102 -175.5q-20 -35 -40 -71.5t-36 -75.5q-39 -82 -64.5 -160 t-25.5 -137q0 -27 5 -47.5t13 -20.5q35 0 119 78t184 221q92 131 148.5 232.5t74.5 197.5q4 23 6.5 44.5t2.5 43.5q0 16 -1 34t-4 34q16 23 23.5 32t11.5 15q2 4 6.5 8t8.5 12q29 39 43 54.5t26 15.5q25 0 29 -18q3 -12 3 -27q0 -7 -1 -14v-2v-2v-9.5v-9.5 q0 -86 -55.5 -272.5t-206.5 -442.5q-23 -37 -54.5 -83t-68.5 -93q-25 -33 -51.5 -63.5t-52.5 -59.5q-57 -63 -112.5 -105t-94.5 -42q-8 0 -15.5 2t-15.5 4q-35 16 -66.5 55t-44.5 84q-4 12 -6 24.5t-2 25.5q0 37 13.5 102t31.5 137q4 20 10.5 41t12.5 41q14 51 27.5 95 t23.5 69q-354 -477 -455.5 -556t-113.5 -79q-4 0 -9.5 1t-9.5 3q-29 12 -53.5 49t-38.5 78q-6 18 -9 35.5t-3 34.5q0 117 88 253t221 304q8 10 16.5 21.5t18.5 21.5q8 12 17 23.5t18 23.5q57 76 101 146.5t44 113.5q0 4 -2 10t-6 13q-8 10 -25.5 18t-48.5 8 q-49 0 -108.5 -19.5t-122.5 -49.5q-45 -23 -89 -48.5t-83 -52.5q-6 -4 -12.5 -8t-12.5 -8q-51 -33 -71.5 -46.5t-36.5 -17.5q-4 -2 -9.5 -3t-9.5 -1h-2h-2q-2 2 -4 3t-4 1q-8 4 -10 17.5t-2 27.5z" />
<glyph unicode="X" horiz-adv-x="1204" d="M150 899q0 25 3 70t15 94q8 41 25.5 80t44.5 65q23 23 64.5 53.5t96.5 61.5q49 31 106.5 58.5t117.5 50.5q57 20 111 32.5t104 12.5q55 0 75.5 -27t20.5 -57v-5.5v-5.5l-23 -495l334 426q18 25 25.5 31t9.5 6h4t4 -2q8 -2 14.5 -13.5t6.5 -34.5q0 -8 -1 -17t-3 -19 q-6 -25 -17.5 -49.5t-23.5 -47.5q-8 -10 -14.5 -20t-12.5 -19l-55 -20l-273 -360l-26 -422v-127q0 -27 8 -44.5t18 -25.5q6 -4 11.5 -6t9.5 -2q20 0 44.5 15.5t57.5 43.5q41 35 52.5 44t15.5 9h1h1h1h3q4 0 7 -4t3 -14q0 -20 -28.5 -59t-69.5 -82l-33.5 -33.5t-34.5 -32.5 q-45 -37 -85 -63.5t-62 -26.5q-6 0 -16.5 3t-22.5 9q-18 14 -34 46q-12 25 -12 74q0 12 1 26l29 512l-494 -578q-2 -4 -5 -7t-7 -5q-10 -10 -21.5 -17.5t-23.5 -7.5q-18 0 -21.5 13.5t-3.5 25.5v2v1v3q0 27 9 55.5t24 59.5q14 29 32.5 58.5t38.5 56.5q14 20 30 37.5t28 29.5 l106 50l312 360l18 391v72q0 18 -7 30.5t-26 12.5q-31 0 -101.5 -30t-148.5 -77q-37 -23 -72.5 -48t-68.5 -52q-12 -10 -18 -19.5t-6 -13.5t6 -7t16 -5h1h1q2 0 4 -1t4 -1q4 0 7.5 -1t7.5 -1q2 -2 5 -2t7 -2q4 0 10 -2t15 -6q-6 -6 -16.5 -12.5t-22.5 -14.5 q-14 -8 -32 -16.5t-36 -16.5q-35 -14 -65.5 -23.5t-45.5 -9.5q-25 0 -31.5 5.5t-6.5 23.5z" />
<glyph unicode="Y" horiz-adv-x="1216" d="M150 856q0 68 11 115t25 78q12 27 23.5 40t13.5 15q29 29 81 67.5t118 79.5q39 25 80 48.5t82 43.5q90 49 176 81t141 32q37 0 53.5 -19.5t16.5 -66.5q0 -76 -61.5 -206t-262.5 -484q-68 -123 -91.5 -169t-31.5 -75q0 -2 -1 -6t-1 -6t-1 -4l-1 -2q0 -6 -1 -11.5t-1 -9.5 q0 -6 2 -12t4 -10q6 -6 15.5 -7t17.5 -1q25 0 121 75.5t360 419.5q10 12 18.5 24.5t16.5 22.5l4 4t2 5q33 41 70 89t100 123q6 -2 11.5 -5t11.5 -7q14 -12 26.5 -30.5t18.5 -38.5q2 -6 3 -12.5t1 -12.5q0 -8 -2 -16.5t-8 -16.5q-51 -76 -152.5 -258t-212.5 -473 q-29 -80 -59.5 -167t-59.5 -181q16 18 41 43t52 47q20 18 42.5 36.5t45.5 33.5q33 25 65.5 43t61.5 24q4 0 7 1t7 1l2 1t4 1q6 0 11 1t10 1q4 0 8 -1t4 -5q0 -29 -129 -148.5t-285 -330.5q-37 -49 -54.5 -74.5t-29.5 -46.5q-2 -2 -4 -5t-2 -5q-4 -4 -6 -8l-4 -8 q-27 -49 -40 -67.5t-24 -18.5q-10 0 -24.5 8t-30.5 30q-8 10 -15.5 24.5t-15.5 33.5q12 100 64.5 250.5t202.5 457.5q102 213 125.5 275.5t23.5 68.5q0 4 -17.5 -15t-39.5 -44l-1 -1q-1 -1 -1 -3q-16 -16 -29.5 -32.5t-20.5 -24.5l-14 -17.5t-12 -15.5q-14 -18 -33.5 -43 t-66.5 -80q-25 -31 -45.5 -54.5t-38.5 -45.5l-12.5 -12.5t-12.5 -14.5q-27 -29 -60.5 -60.5t-84.5 -74.5q-4 -4 -11.5 -9t-15.5 -10q-12 -8 -28.5 -15t-33.5 -9q-6 -2 -10 -2h-8q-27 0 -47.5 22.5t-20.5 85.5q0 53 42 156.5t100 216.5q12 25 24.5 47.5t24.5 44.5 q43 82 84 152.5t67 116.5q10 16 29 47.5t37 70.5q6 10 11 21.5t12 21.5q20 45 36.5 88t16.5 66q0 8 -4 11t-13 3q-33 0 -114.5 -49t-173.5 -113q-10 -8 -20.5 -15l-22.5 -15q-92 -63 -167 -119.5t-91 -69.5q-2 20 -3 39t-1 35z" />
<glyph unicode="Z" horiz-adv-x="1044" d="M150 -438q0 27 17 65.5t44 79.5q10 16 21.5 32.5t23.5 33.5q27 37 51.5 65.5t38.5 44.5q68 72 138.5 130.5t146.5 113.5q49 37 100 74t107 78q2 10 3 17t1 15q0 55 -30 85t-64 36q-6 0 -11.5 1t-11.5 1q-53 0 -151.5 -47t-219.5 -156q-43 -39 -62.5 -49t-27.5 -10h-3 t-1 2h-3h-1q-2 0 -2 3v7v12.5v12.5q0 10 1 19.5t1 17.5t1 15t1 15q0 29 2 52.5t10 46.5q18 47 85 104.5t233 163.5q217 141 317.5 236.5t100.5 171.5q0 6 -1 13t-4 15q-6 18 -23 33.5t-52 15.5q-47 0 -117 -26.5t-145 -65.5q-31 -16 -60 -32.5t-57 -34.5q-35 -20 -65.5 -40 t-55.5 -38q-14 -10 -26.5 -18.5t-24.5 -18.5l-13.5 -9l-13.5 -9q-37 -29 -80 -69t-108 -112q-2 23 -4 44.5t-2 41.5q0 233 172 400.5t376 228.5q51 14 102.5 22.5t98.5 8.5q133 0 188.5 -78t57.5 -172v-7v-5q0 -147 -123 -272.5t-268 -225.5q-8 -4 -15.5 -9l-13.5 -9 q12 4 22.5 4h18.5q90 0 141.5 -86t55.5 -189v-7v-5q27 20 44 30.5t33 12.5q2 2 5.5 2h5.5h2t4 -2t4 -6t2 -12v-4.5t-2 -4.5q-4 -12 -25.5 -28.5t-72.5 -55.5q-23 -131 -74 -235.5t-109 -183.5q-23 -33 -46 -63t-44 -54q-25 -29 -43 -51.5t-37 -40.5q-6 -6 -13 -13.5 t-13 -13.5q-25 -23 -56.5 -48.5t-80.5 -62.5q-4 -4 -9.5 -7t-11.5 -7q-41 -31 -83 -56.5t-87 -25.5q-39 0 -65.5 32t-36.5 69q-4 14 -6 26t-2 25zM297 -403q0 -8 7 -14.5t18 -8.5q2 0 6 -1t6 -1q37 0 100.5 45t130.5 119q80 90 151.5 208.5t102.5 248.5q-29 -23 -42 -34.5 t-23 -19.5h-2q-6 -6 -13.5 -11t-17.5 -13q-16 -12 -28.5 -21.5t-24.5 -19.5q-2 -2 -5.5 -4t-5.5 -4q-20 -16 -43.5 -39t-62.5 -60q-188 -193 -221 -270.5t-33 -99.5z" />
<glyph unicode="[" horiz-adv-x="962" d="M137 -168q0 66 43 244t197 633q74 217 128 360t103 246q16 35 33.5 65.5t36.5 59.5q4 6 8 13t8 11q29 39 75 51.5t181 12.5q82 0 119 -5t49 -12l6 -6t2 -4v-3v-3q0 -10 -1 -26.5t-9 -32.5q-16 -33 -74.5 -59.5t-197.5 -18.5q-47 -90 -81 -167t-63 -151q-12 -29 -22 -57.5 t-23 -58.5q-18 -55 -38.5 -115.5t-45.5 -130.5q-33 -96 -61.5 -176t-54.5 -158q-12 -37 -24.5 -75t-24.5 -79q-23 -76 -47.5 -163.5t-51.5 -198.5q45 2 82 4t72 2q25 2 51.5 2h54.5h4h4h1h4q12 0 23 -1t11 -9q0 -10 -7 -27.5t-17 -34.5q-4 -8 -9.5 -15t-9.5 -13 q-12 -18 -22 -30.5t-17 -14.5q-14 -6 -54 -12.5t-85 -10.5q-35 -2 -67.5 -3t-53.5 -1q-10 8 -25.5 20.5t-31.5 26.5q-14 14 -27.5 28.5t-23.5 29.5q-12 16 -19.5 32.5t-7.5 30.5z" />
<glyph unicode="\" horiz-adv-x="800" d="M0 1458v1v1v5t2 5l41 91q2 4 4 6t6 4h3h3t3 -1t1 -3q2 -2 4.5 -4t2.5 -7q2 -2 4 -5t2 -5l712 -1843q2 -2 4.5 -6t4.5 -8t3 -8.5t1 -8.5v-4v-4t-1 -4t-1 -4l-37 -86l-1 -1t-3 -1q-2 -4 -5 -6t-10 -2q-4 0 -6 4l-4 8q-2 2 -3 5t-1 5v-2l-719 1843q-6 14 -8 21.5t-2 13.5z " />
<glyph unicode="]" horiz-adv-x="962" d="M0 -311q0 12 6 27.5t17 31.5q18 31 50.5 56.5t73.5 27.5h26.5h33.5h20.5h18.5h20h13q47 90 80.5 165t64.5 148q10 29 21.5 57.5t21.5 57.5q20 57 41.5 118.5t46.5 131.5q33 92 60.5 170t52.5 154q12 39 25.5 78.5t25.5 80.5q25 78 49.5 168t50.5 201q-57 -4 -96 -5 t-74 -1h-11h-9q-16 -2 -33.5 -2h-38.5h-5h-5h-4h-4q-10 0 -20.5 1t-10.5 9q0 10 6 28.5t18 39.5q16 27 39 50t52 27q8 2 19 3t24 4q16 2 35.5 4t39.5 4q31 2 60.5 3t50.5 1q10 -8 26.5 -21.5t34.5 -31.5q10 -10 21.5 -22.5t21.5 -27.5q14 -16 23.5 -34.5t9.5 -32.5 q0 -63 -70.5 -297t-162.5 -500q-10 -31 -20.5 -59.5t-20.5 -57.5q-88 -254 -167 -457.5t-99 -236.5v-2q-4 -4 -8.5 -10t-8.5 -10q-35 -43 -84 -53.5t-172 -10.5q-113 0 -144.5 7t-31.5 18z" />
<glyph unicode="^" horiz-adv-x="978" d="M137 881l363 602l364 -602h-135l-229 374l-230 -374h-133z" />
<glyph unicode="_" horiz-adv-x="2048" />
<glyph unicode="`" horiz-adv-x="425" d="M180 1099.5v12.5v5t2 5v5v6q4 18 12.5 27t24.5 9q18 0 43 -16t49 -43q18 -20 38 -44t34 -48q14 -20 24.5 -40t18.5 -38l-74 -20q-43 39 -73.5 54t-53.5 23q-8 2 -13 4.5l-9 4.5q-2 2 -4 3t-6 1q-4 23 -6.5 38t-4.5 29v3v3v1v3q-2 6 -2 12.5z" />
<glyph unicode="a" horiz-adv-x="755" d="M0 248q0 80 38 150.5t83 123.5q31 37 59.5 63.5t44.5 41.5q16 14 39 31.5t49 35.5q20 14 44 28.5t46 29.5q45 25 88.5 41t73.5 16q27 0 46.5 -15.5t29.5 -33.5q2 -6 4 -12.5t2 -12.5q0 -12 -5 -21t-11 -16q-4 -6 -7 -9t-6 -5l-3 -3l-1 -1l-1 -1l-1 -1l-5 -5t-7 -9 q2 -2 3 -5.5t1 -7.5q6 -14 12.5 -27.5t10.5 -25.5q4 -10 6 -21.5t2 -21.5q0 -27 -17.5 -58.5t-44.5 -80.5q-27 -53 -46 -95t-19 -83q0 -33 10 -50.5t23 -23.5q8 -4 14 -5t10 -1q10 0 34 9t71 48q6 4 8 6l4 4q2 0 2 1v1l1 1t3 1q4 2 6 4.5t6 6.5t10.5 9t10.5 11q2 2 4 3t2 3 q6 4 10 7t11 3q4 0 6 -4t2 -8q0 -12 -27 -48t-98 -120q-57 -70 -102.5 -101.5t-79.5 -31.5q-4 0 -10.5 1t-10.5 1q-25 8 -46.5 31.5t-21.5 73.5q0 31 7.5 78t29.5 104q2 4 3 7t3 5q0 2 1.5 4t1.5 4q4 10 8 22.5t12 35.5q-12 -16 -20.5 -26.5t-14.5 -18.5q-2 -2 -2 -3t-2 -1 q-2 -4 -6 -8.5t-8 -8.5q-6 -6 -10.5 -12t-8.5 -10q-6 -8 -11 -15.5t-15 -19.5q-12 -14 -35 -41t-51 -57q-10 -10 -20.5 -19.5t-20.5 -19.5q-29 -29 -57.5 -49.5t-49.5 -20.5q-31 0 -51 44t-31 95q-6 31 -9 59.5t-3 49.5zM92 222q0 -5 2 -9q2 -12 7 -23.5t14 -15.5l1 -1t3 -1 h3h1h7t7 2q10 2 19.5 7t19.5 9q23 12 43.5 30t40.5 36q16 12 29.5 25.5l25.5 25.5t34 36t42 50q8 10 16.5 20.5t16.5 20.5q25 35 42 65.5t17 51.5q0 12 -6 17t-12 7q-4 2 -9 2.5t-7 0.5q-29 0 -68 -14.5t-80 -37.5q-78 -49 -143.5 -128t-65.5 -167v-9z" />
<glyph unicode="b" horiz-adv-x="616" d="M23 203q0 190 57 351t125 280q31 51 58.5 93t51.5 74q20 29 62.5 81.5t93.5 111.5q10 12 22.5 25.5t24.5 25.5q59 66 113.5 114t81.5 48q16 0 26.5 -19.5t14.5 -41.5v-7.5v-7.5q0 -70 -88 -241.5t-217 -366.5q-41 -61 -86.5 -122.5t-90.5 -119.5q-8 -10 -15 -20t-15 -21 q-10 -10 -20.5 -21t-20.5 -24q-8 -6 -16.5 -13t-18.5 -15q-2 -18 -3 -43t-3 -50v-43v-38q0 -8 1 -16.5t3 -16.5q4 -23 17.5 -41.5t37.5 -18.5q31 0 60.5 33t48.5 74q4 8 7 16t5 17q-12 16 -16.5 35.5t-4.5 43.5q0 25 9.5 54.5t23.5 60.5q20 39 48 76t57 65q25 25 49 39.5 t43 14.5q16 0 23.5 -14.5t7.5 -30.5v-3v-3q-2 -14 -3.5 -25.5t-1.5 -17.5q0 -20 -4 -38t-10 -34q-6 -12 -11 -24.5t-11 -24.5q-2 -6 -4.5 -11.5t-4.5 -11.5t-4 -11t-4 -11t-5 -13.5t-5 -13.5q-6 -12 -14.5 -26.5t-18.5 -30.5q4 -2 8.5 -4t6.5 -5q12 -6 23 -8t26 -2 q20 0 35.5 5t31.5 14q8 6 18.5 12t20.5 14v-86q-16 -14 -36.5 -26.5t-41.5 -20.5q-12 -4 -23 -6t-24 -2q-8 0 -32.5 5t-55.5 26q-8 -10 -15 -21.5t-13 -21.5q-59 -84 -123 -151.5t-131 -67.5q-10 0 -23.5 3t-26.5 11q-31 20 -56 75.5t-25 174.5zM190 502q43 51 116 147 t179 271q10 14 28.5 44.5t39.5 67.5q4 8 8 16.5t8 16.5q23 43 40.5 82t17.5 59v3v1q-2 6 -6.5 12.5t-10.5 6.5q-12 0 -27.5 -13.5t-33.5 -33.5q-4 -4 -9 -10.5t-10 -12.5q-8 -10 -16 -20.5t-14 -18.5q-18 -27 -63.5 -89t-96.5 -148q-45 -80 -86 -177.5t-64 -203.5z" />
<glyph unicode="c" horiz-adv-x="555" d="M0 254q0 25 4 48.5t10 47.5q29 102 104 197.5t156 154.5q47 33 91.5 51.5t80.5 18.5h8.5t8.5 -2q18 -2 33.5 -15.5t15.5 -43.5q0 -23 -12.5 -59t-32.5 -74q-8 -20 -19.5 -41t-23.5 -39q-20 -33 -39.5 -54.5t-32.5 -21.5q-6 0 -10 5t-6 13q-2 4 -4 9.5t-2 7.5q0 4 -2 8 l-4 8q-2 6 -6.5 12.5t-8.5 8.5q-2 2 -5 2h-7h-1h-3q-2 -2 -3 -2h-3q-14 -4 -30.5 -15.5t-33.5 -27.5q-25 -23 -48 -52.5t-40 -62.5q-16 -29 -26.5 -57.5t-10.5 -51.5q0 -10 2 -21t6 -22q10 -31 41 -55.5t91 -24.5q43 0 78.5 16.5t62.5 35.5q12 8 21.5 15t17.5 13 q68 53 89 78t34 25q6 0 10 -5.5t4 -15.5q0 -8 -5 -18t-13 -21q-20 -31 -51 -70.5t-109 -115.5l-21.5 -21.5t-29.5 -25.5q-29 -23 -65 -42.5t-75 -19.5q-68 0 -107.5 56.5t-58.5 126.5q-10 39 -15 75.5t-5 63.5z" />
<glyph unicode="d" horiz-adv-x="749" d="M0 210v15q0 57 11.5 133t68.5 156q14 20 33.5 40.5t42.5 41.5q14 12 41.5 31.5t62.5 40.5q16 8 32.5 17t35.5 20q45 23 86 38t67 15q23 0 38.5 -23.5t23.5 -54.5q20 55 41.5 108.5t44.5 102.5q70 160 132 267.5t89 107.5q4 0 10 -2t14 -4q12 -6 23.5 -17.5t11.5 -25.5 q0 -27 -24.5 -85.5t-55.5 -123.5q-6 -10 -11 -20.5t-9 -20.5q-31 -61 -58.5 -110.5t-37.5 -65.5t-19.5 -34t-19.5 -36q-35 -68 -68 -151t-53 -169q-10 -45 -16.5 -89t-6.5 -87q0 -6 1 -18t4 -25q4 -20 14 -35.5t33 -15.5q10 0 20 3t21 9q12 6 24 15.5t23 19.5 q18 14 30.5 28.5t14.5 16.5q35 41 50 56.5t28 15.5q8 0 10 -8t2 -25v-4t-2 -4q-2 -6 -8.5 -14.5t-16.5 -18.5q-2 -2 -3 -5t-3 -5l-1 -1t-1 -3q-4 -4 -8 -9t-10 -16q-4 -6 -7.5 -10t-5.5 -8l-2 -2v-2l-18 -22.5t-31 -37.5q-6 -6 -11 -13t-11 -13q-39 -45 -79 -82t-87 -37 q-37 0 -68 30.5t-31 125.5q0 33 4.5 74.5t14.5 86.5q2 8 5 17.5t5 17.5q-158 -215 -225.5 -261t-89.5 -46q-8 0 -15.5 3t-15.5 9q-29 23 -52.5 74t-29.5 109q-2 8 -2 15zM123 214q0 -3 2 -7q2 -12 9 -23.5t24 -11.5q18 0 65 33t170 180q49 59 74 101t25 73v8t-3 6 q-2 4 -8 6.5t-22 2.5q-23 0 -49.5 -10.5t-55.5 -26.5q-16 -8 -33.5 -19.5t-33.5 -23.5q-23 -14 -42.5 -29.5t-31.5 -28.5q-18 -14 -30.5 -30.5t-22.5 -32.5q-23 -41 -29 -80t-8 -63v-7.5v-9.5v-7z" />
<glyph unicode="e" horiz-adv-x="522" d="M0 172q0 47 12.5 101.5t32.5 111.5q53 137 150.5 254t203.5 129q6 2 11.5 2h11.5q45 0 65.5 -21.5t26.5 -48.5q2 -8 3 -15t1 -15q0 -33 -16.5 -73t-44.5 -81q-49 -74 -127 -138.5t-162 -88.5q-6 -2 -11 -3t-12 -3q-1 -14 -1 -28q0 -61 23 -91q28 -37 62 -41q2 -2 5.5 -2 h7.5q25 0 45 9t39 20q23 14 35 22t22 14q0 2 1 2t3 2q4 4 9 8.5t12 8.5q57 47 76.5 67.5t27.5 20.5h1t3 -2t4 -8t2 -21q0 -12 -15 -35.5t-36 -48.5q-4 -4 -7 -9t-7 -9q-20 -25 -39 -44.5t-25 -27.5t-11 -13l-9 -9q-2 -4 -5 -7.5t-8 -7.5q-4 -4 -7 -8t-7 -6 q-37 -39 -87 -69.5t-103 -30.5q-68 0 -112 62t-44 171zM145 358q20 6 46 22.5t55 37.5q29 23 56.5 50.5t45.5 55.5q16 20 25.5 43t9.5 41q0 29 -7 41.5t-28 12.5q-6 0 -11 -1.5t-11 -3.5q-39 -14 -76 -67t-66 -115q-12 -33 -22 -62.5t-17 -54.5z" />
<glyph unicode="f" horiz-adv-x="475" d="M-158 -397q0 31 3 63.5t10 63.5q14 82 41.5 161.5t58.5 147.5q16 37 31.5 70.5t29.5 60.5q-8 12 -12 24.5t-8 24.5q-6 18 -8 36.5t-2 35.5q0 6 1 12t1 12q6 37 28 68q20 29 54 29h4q86 78 134 147.5t71 108.5l3 6t3 4q4 6 8 14t12 23q8 14 15.5 25.5t13.5 21.5q2 2 3 4 l1 2q8 16 17.5 33.5t23.5 44.5q6 12 11 21.5t11 17.5v2q8 12 16.5 27.5t22.5 39.5q14 27 22.5 42.5t16.5 27.5v2q4 6 8.5 15.5t10.5 19.5q63 119 87.5 150.5t37.5 31.5h7t7 -4q8 -4 14 -21.5t6 -56.5q0 -82 -33.5 -159.5t-74.5 -139.5q-23 -37 -44.5 -66.5t-37.5 -50.5 q-23 -31 -36 -49t-25 -32q-6 -8 -11.5 -16.5t-13.5 -18.5l-160 -305q31 -33 50.5 -74t29.5 -84q0 -4 1 -9t1 -10q43 12 69.5 27.5t43.5 34.5q10 10 17 20.5t16 20.5q8 10 16 18t20 13l1 1l1 1h3h2h1h3q2 -2 3 -2h1q4 -2 6 -5.5t2 -7.5q0 -16 -16.5 -45.5t-45.5 -60.5 q-27 -33 -61.5 -61.5t-73.5 -45.5q-2 -45 -11 -93t-26 -97q-35 -100 -91 -195.5t-117 -158.5q-39 -43 -77 -68t-71 -25q-29 0 -52.5 53.5t-23.5 131.5zM-10 -263v-18v-8v-8q2 -4 2 -8v-8q0 -6 1 -18.5t3 -24.5q2 -20 5 -36t11 -16q14 0 39 26t53 71q33 53 62 124.5t39 147.5 q2 20 3 38.5t1 39.5q-14 0 -30.5 3t-33.5 7q-16 6 -31.5 13.5t-31.5 19.5q-25 -35 -45.5 -92.5t-32.5 -118.5q-4 -31 -8 -59.5t-4 -55.5q-2 -10 -2 -19zM125 170q10 -8 28.5 -16.5t53.5 -10.5q0 2 -1 4.5t-1 4.5v1v1q0 2 -1 6t-3 10q-2 16 -8.5 36.5t-20.5 47.5z" />
<glyph unicode="g" horiz-adv-x="749" d="M0 281q0 35 15.5 72.5t41.5 76.5q51 74 133 141.5t170 116.5q63 37 126 57.5t112 20.5q6 0 14.5 -2t16.5 -6q23 -12 42 -56.5t19 -140.5q0 -31 -4 -45t-10 -24q0 -2 -1 -4l-1 -1l-246 -483l281 162q2 0 3 1t5 3t8 3t10 1t10.5 -4t4.5 -14q0 -8 -3.5 -14.5t-5.5 -10.5 t-4 -5t-4 -3l-352 -232l-37 -86q-8 -16 -16.5 -34.5t-16.5 -38.5q-20 -45 -39.5 -90t-40.5 -84q-39 -76 -75.5 -126t-73.5 -50q-25 0 -37 32.5t-16 69.5q-2 18 -3 35.5t-1 31.5q0 205 65.5 277t147.5 106q8 2 13 5.5t11 5.5l1 1t3 1q8 4 18.5 10t26.5 14q29 68 62 139.5 t69 147.5q-125 -135 -190.5 -193.5t-106.5 -58.5q-10 0 -21 7t-24 20q-20 23 -40.5 59.5t-34.5 75.5q-10 31 -17.5 60.5t-7.5 52.5zM78 -469q27 4 45 21.5t35 48.5q14 29 30.5 67.5t38.5 87.5l43 101q-88 -33 -132 -103.5t-56 -150.5q-2 -18 -3 -36t-1 -36zM123 211 q0 -8 2 -17.5t6 -13.5q2 -2 5 -4t5 -2q2 -2 5.5 -2h5.5q14 0 76.5 44t136.5 106q20 18 41.5 37.5t42.5 37.5q55 53 93 103.5t38 83.5q0 2 -1 4t-1 4q-2 4 -6.5 7t-12.5 3q-23 0 -64.5 -17.5t-88.5 -43.5q-18 -10 -36 -20.5t-34 -22.5q-20 -12 -37.5 -25.5t-32.5 -26.5 q-2 -2 -5 -4t-5 -6q-51 -41 -92 -93t-41 -132z" />
<glyph unicode="h" horiz-adv-x="665" d="M0 82v13v14v13v13v24.5v24.5v37v35q4 92 52 216t222 411q68 113 108 174t75 108q4 6 8 11.5t8 9.5q16 23 34.5 46t41.5 52q49 61 72.5 83t42.5 24h1h1q10 -4 20 -11.5t16 -15.5q4 -6 6.5 -10t4.5 -8v-5.5v-7.5v-1v-3v-3v-1q-6 -37 -56.5 -130t-113.5 -198 q-8 -12 -15.5 -23t-15.5 -24q-45 -76 -88 -141.5t-72 -106.5q-4 -8 -8 -13t-8 -11v-1q0 -1 -2 -1q-4 -8 -11.5 -17.5t-17.5 -25.5q-29 -39 -45 -63.5t-31 -45.5q-2 -2 -2 -3t-2 -1q-10 -16 -23.5 -33.5t-31.5 -42.5q-10 -14 -18.5 -24t-14.5 -21q-4 -2 -6 -5t-4 -5 q-6 -8 -12 -14t-13 -15q-2 -12 -2 -23v-22q0 -33 6.5 -52t12.5 -25q4 -4 7 -6.5t5 -2.5t5 1t5 1q20 14 57.5 81t153.5 188q12 12 36 34.5t50 45.5q8 6 14.5 12t14.5 12q33 27 63.5 47.5t47.5 20.5q2 0 4 -1l6 -3q8 -4 16 -18.5t14 -28.5t9.5 -25.5t3.5 -20.5q0 -20 -31 -54 t-76 -109q-45 -72 -60 -115t-15 -68q0 -43 11 -60t23 -22q4 -2 7.5 -2h5.5q10 0 23 5.5t28 15.5q8 6 17 13t20 14q18 16 31.5 29.5t15.5 17.5q16 18 24.5 25t14.5 7h3t3 -2q4 -2 7 -6t3 -8q0 -10 -21.5 -43t-107.5 -123q-33 -35 -63.5 -64.5t-61.5 -48.5q-14 -10 -28.5 -15 t-30.5 -5q-33 0 -55.5 30.5t-22.5 71.5q0 25 7 55.5t17 63.5q8 25 18.5 48.5t20.5 43.5q2 6 5.5 11.5t5.5 9.5q10 23 18 38t16 27q16 27 23.5 44.5t7.5 25.5q0 4 -4 5t-10 3h-3h-3q-14 0 -54.5 -34.5t-162.5 -209.5q-72 -102 -103 -142t-53 -46h-4h-4t-5 1t-5 1 q-8 6 -14.5 22.5t-8.5 55.5z" />
<glyph unicode="i" horiz-adv-x="397" d="M0 193v7v5q0 29 2 55.5t8 52.5q16 74 64.5 152t146.5 188l3 3t1 3q16 14 39 27.5t51 13.5q23 0 30 -13t7 -30v-10v-10v-4v-4q0 -33 -15 -74t-46 -82q-27 -37 -66 -70.5t-92 -64.5q-2 -8 -4 -15.5t-2 -15.5q-2 -10 -2 -19v-20v-7v-7q0 -66 18.5 -93.5t40.5 -33.5 q10 -4 20.5 -5t18.5 -1q23 0 65 19.5t105 76.5q2 0 3 1t1 3q6 4 11.5 7t11.5 3h3h3q4 -2 7 -5t3 -13q0 -8 -14 -33.5t-78 -97.5l-5 -5l-5 -5q-41 -47 -90 -85t-109 -38q-70 0 -101.5 75.5t-33.5 168.5zM328 854q0 6 1 13t1 16q8 51 43 93t84 42q29 0 42 -22.5t13 -63.5 q0 -53 -28.5 -99.5t-65.5 -60.5q-4 -2 -8 -3t-9 -1h-8h-8t-11 2t-14 6q-12 8 -22 26.5t-10 51.5z" />
<glyph unicode="j" horiz-adv-x="497" d="M-43 -612v6q0 42 25 160q26 127 192 315l119 430q12 47 15 72.5t3 44.5q0 6 -4 10t-10 4q-2 2 -3 2h-3q-14 0 -29.5 -7t-32.5 -19q-4 -2 -7 -4.5t-5 -4.5t-3 -2t-3 -2q-4 -4 -8 -6t-6 -4t-4.5 -3t-4.5 -3l-186 -133q0 6 -1 11t-1 9v32.5v37.5v30.5v28.5q2 10 4 21.5 t6 23.5q18 18 57 46t85 57q14 10 27.5 18t27.5 19q61 35 114.5 61.5t79.5 26.5q27 0 38.5 -19.5t11.5 -52.5q0 -10 -3.5 -28.5t-13.5 -53.5l-143 -522l160 164q18 20 26 28t12 8h4.5h4.5q4 -2 7 -4t3 -6v-4t-2 -6q0 -4 -2 -7t-4 -7q0 -4 -1 -6.5t-3 -4.5q-6 -8 -8.5 -11 t-4.5 -5v-1v-1l-254 -332l-71 -215q-8 -18 -23.5 -51t-36.5 -68q-8 -14 -16 -28.5t-16 -26.5q-25 -37 -45.5 -63.5t-34.5 -26.5q-8 0 -15.5 13.5t-11.5 27.5q0 6 -1 11t-1 9v4.5v6.5zM389 848q0 68 36 123t79 55q4 0 12 -1t16 -7q12 -8 22.5 -24.5t10.5 -49.5v-8v-8 q-4 -49 -25.5 -93t-56.5 -61q-4 -2 -8 -3t-8 -1q-4 -2 -8 -2h-8t-9.5 1t-11.5 3q-14 6 -27.5 23.5t-13.5 52.5z" />
<glyph unicode="k" horiz-adv-x="731" d="M0 133q0 119 13.5 204t45.5 163q29 72 76 148.5t115 178.5q25 37 68.5 99.5t97.5 130.5q14 18 28.5 35.5t26.5 35.5q68 80 128 138.5t91 58.5q18 0 28.5 -9t12.5 -22v-1v-3q0 -8 -43 -98t-295 -430q-18 -25 -29.5 -41t-21.5 -31h-1h-1q-6 -10 -13.5 -20.5t-17.5 -22.5 q-18 -27 -29.5 -41t-19.5 -26q-4 -6 -8 -11.5t-8 -11.5q-43 -57 -70 -95t-49 -73q-4 -8 -8 -15t-8 -16q-2 -4 -5.5 -8t-5.5 -8q-2 -12 -5 -26.5t-3 -30.5q0 -14 4 -26.5t12 -12.5q12 0 32 20.5t55 73.5q20 31 56 78t79 96q25 29 51.5 56.5t52.5 52.5q45 43 89 72.5t79 35.5 q4 2 7 2h5h1h3q2 -2 3.5 -2h3.5q18 -6 31.5 -35.5t21.5 -64.5q4 -20 7 -41t3 -35q0 -33 -25.5 -73t-66.5 -83q-23 -25 -49.5 -48t-52.5 -46q-35 -29 -67 -53.5t-58 -44.5q2 -4 4 -9l4 -10q16 -35 45 -63.5t65 -28.5q16 0 51 21.5t99 93.5q4 4 6 7t4 5l3 3l3 3q4 4 10.5 9.5 t14.5 13.5q0 2 1 3t3 1l5 5t7 5q2 2 6 3t7 1q6 0 9 -8t3 -20q0 -25 -15.5 -53.5t-39.5 -59.5q-23 -27 -49.5 -53.5t-55.5 -48.5q-49 -37 -91 -62.5t-60 -25.5q-53 0 -89 43t-61 96q-8 16 -14 31.5t-13 29.5q-2 4 -4 9.5t-4 11.5q-6 10 -13 20t-18 10q-8 0 -15 -5t-11 -11 q-51 -68 -74.5 -109.5t-42.5 -56.5q-4 -4 -9 -6t-11 -2q-16 0 -21.5 31.5t-5.5 101.5zM264 324q4 -2 6 -4.5t6 -6.5q12 -8 24.5 -23.5t29.5 -37.5q16 12 41.5 37.5l54.5 54.5q8 10 16.5 19.5t16.5 17.5q35 39 58.5 73.5t23.5 53.5q0 2 -1 5t-3 7t-7.5 9.5t-13.5 5.5 q-20 0 -54 -23t-71 -55q-12 -10 -24.5 -22.5l-24.5 -24.5q-23 -23 -43 -45.5t-35 -40.5z" />
<glyph unicode="l" horiz-adv-x="448" d="M45 272q0 145 51 270.5t111 223.5q20 33 39.5 61.5t38.5 55.5q125 182 216 268t122 86q10 0 10 -16.5v-36.5q-2 -6 -2 -12.5v-12.5q0 -33 -11.5 -81t-52.5 -146q-10 -29 -17 -45.5t-13 -28.5l-1 -2t-1 -4q-4 -8 -9.5 -17.5t-11.5 -21.5q-6 -8 -9 -13t-5 -12q-2 -4 -4 -7 t-4 -7l-7.5 -15t-7.5 -14l-3 -3t-1 -3q-6 -12 -15 -26.5t-26 -36.5q-35 -51 -91 -116.5t-157 -143.5q-2 -12 -4 -24.5t-4 -22.5q-2 -25 -2 -48.5v-52.5q0 -66 14.5 -99.5t30.5 -47.5q12 -10 23.5 -13.5t17.5 -3.5q12 0 32.5 11.5t41.5 27.5q6 4 13 9.5t13 9.5 q23 20 40.5 36.5t23.5 20.5q14 16 24.5 24.5t18.5 8.5q6 0 11 -6t5 -15q0 -8 -7 -19t-17 -24l-5 -5t-5 -7q-4 -6 -9.5 -11t-9.5 -9q-133 -137 -187.5 -173t-80.5 -36q-8 0 -22.5 6t-30.5 24q-25 27 -44.5 95.5t-19.5 199.5zM201 516q63 47 120.5 114.5t100.5 139.5 q31 51 51.5 100.5t28.5 92.5q2 6 3 12t1 12q2 6 2 11.5v11.5q0 8 -1 12t-5 4q-8 0 -30.5 -16.5t-49.5 -55.5q-27 -41 -56.5 -86t-60.5 -102q-27 -51 -53.5 -112.5t-50.5 -137.5z" />
<glyph unicode="m" horiz-adv-x="1064" d="M0 193q0 72 9 113.5t26 76.5q6 10 11 20.5t11 20.5q12 20 17.5 29.5t9.5 15.5q0 2 1 2h1q2 4 4 7t4 7q6 8 9 13.5t3 9.5q2 0 2 1l1 1q2 4 5 7t5 7q6 10 13 21.5t26 36.5l8 12t10 12q10 14 28.5 26.5t47.5 12.5t41 -7t16 -15v-1v-4q0 -16 -6 -32.5t-14 -28.5q-2 -4 -5 -7 t-5 -7q-6 -6 -11.5 -13.5t-11.5 -15.5t-11 -16.5t-12 -16.5q-12 -18 -19 -27.5t-13 -17.5q0 -2 -1 -4t-3 -4q-10 -10 -15.5 -17.5t-9.5 -13.5l-1 -1q-1 -1 -1 -3q-2 -4 -6 -9t-8 -13q-18 -27 -29.5 -44.5t-11.5 -33.5q0 -6 1 -14.5t3 -18.5t4 -19.5t4 -15.5q16 20 32.5 41 t30.5 39q66 78 128.5 144.5t115.5 117.5q98 96 137 112.5t52 16.5q23 0 31 -15t10 -34v-12v-12v-3v-2q0 -16 -3.5 -26t-5.5 -19l-1 -2l-1 -2q-2 -2 -3 -5t-1 -5q-2 -6 -4 -10t-2 -8q-2 -2 -2 -4t-2 -5q-2 -6 -5 -13t-9 -17q-2 -2 -3 -5t-4 -5q-2 -4 -3 -6.5t-3 -6.5t-4 -7 t-2 -7l-1 -1l-1 -1l-1 -1t-1 -3q-2 -2 -3 -4t-1 -4t-1 -2h-1q-2 -4 -5 -10.5t-9 -16.5q0 -2 -1 -4t-3 -2v-1v-1q-2 -2 -4.5 -5t-4.5 -10l-9 -15t-5 -11q-2 -2 -4 -5t-4 -8q-4 -6 -7 -11t-5 -9t-3.5 -9t-1.5 -12q0 -6 3.5 -11t7.5 -5q6 0 17 10.5t28 30.5q4 4 7 8t7 8v1t2 1 q4 6 10 12.5t15 16.5l9 9t5 6v2l4 4l4 4q25 25 36 35t17 16q2 0 3.5 1t1.5 3l5 5l7 7q8 10 33.5 34t56.5 50q8 6 15 12.5t16 12.5q33 27 63.5 46t46.5 19t27.5 -22.5t17.5 -48.5q2 -16 4 -31.5t2 -26.5v-3v-1q-2 -12 -17 -29.5t-46 -54.5q-8 -10 -18.5 -25.5t-20.5 -31.5 q-12 -16 -22.5 -34.5t-18.5 -37.5q-12 -25 -19.5 -49t-7.5 -45q0 -33 12.5 -47t37.5 -14q29 0 60.5 22.5t82.5 79.5q6 8 13 13t16 5h3t1 -2q2 0 5 -2t3 -4v-3v-1v-3v-3v-1v-3v-3v-1q-4 -14 -17.5 -34.5t-31.5 -43.5q-4 -6 -9.5 -12t-11.5 -13q-20 -25 -38.5 -44t-26.5 -27 q-78 -76 -121 -102.5t-68 -26.5q-6 0 -11 1t-11 3q-20 6 -37.5 24.5t-17.5 53.5q0 29 7 70.5t34 111.5q10 25 16 42t14 30l4 8l4 8q14 29 17.5 41t3.5 20v1v4l-4 4t-4 2q-8 0 -27.5 -12.5t-66.5 -59.5q-117 -117 -174.5 -204t-102.5 -95h-4h-4h-3h-3q-14 2 -27.5 18.5 t-13.5 51.5q0 12 3 28.5t9 30.5q2 12 7 23.5t9 21.5q4 12 9.5 22.5t9.5 18.5q41 82 56.5 109.5t17.5 44.5v1v1q0 2 -1 6t-1 8q-4 6 -11.5 12t-21.5 6q-10 0 -22.5 -4t-22.5 -10q-23 -14 -45.5 -38.5t-44.5 -51.5q-49 -61 -74 -95t-43 -63l-4 -8l-4 -8q-6 -10 -12.5 -21.5 t-12.5 -25.5q-10 -18 -20.5 -34.5t-18.5 -29.5q-6 -6 -13 -10t-13 -4t-13.5 2t-15.5 10q-12 14 -24.5 54t-12.5 127z" />
<glyph unicode="n" horiz-adv-x="724" d="M0 193v15v13v14.5v12.5q2 45 16.5 83t32.5 75q10 18 22.5 38.5t24.5 40.5q31 51 51.5 83t38.5 50q14 14 29.5 20.5t36.5 6.5q33 0 45 -10t14 -23v-4v-4q0 -8 -6 -23.5t-22 -31.5q-2 -2 -16.5 -20.5t-43.5 -61.5q-6 -10 -11 -17.5t-9 -11.5v-2v-2q-4 -2 -7 -6t-8 -10 q-4 -4 -14 -17.5t-22 -31.5q-2 -4 -6.5 -10.5t-8.5 -10.5q-8 -16 -15 -30.5t-7 -24.5q0 -6 1 -16.5t3 -20.5q2 -8 4 -17.5t4 -15.5q27 37 46.5 60.5t37.5 44.5q6 8 13 15t14 15q14 16 22 25.5t14 15.5l8.5 8.5t8.5 10.5q18 23 51 56.5t70 68.5l21 21t24 22q49 45 95 77.5 t71 32.5q20 0 28 -14t11 -33q2 -8 2 -16v-15q0 -49 -20.5 -90t-47.5 -79q-2 -6 -6 -11.5t-6 -9.5q-8 -12 -15.5 -23.5t-15.5 -23.5q-41 -68 -51 -105.5t-10 -58.5q0 -33 13 -47t36 -14q27 0 53.5 17t46.5 38q6 8 12 15t13 14q12 14 24 25t23 11h3t1 -2q4 -2 6 -7t2 -17 q0 -6 -1 -11.5t-5 -9.5q-2 -8 -8 -15t-15 -17q-16 -20 -37.5 -46t-46.5 -51q-16 -18 -32.5 -34.5t-34.5 -32.5q-39 -35 -78 -60.5t-66 -25.5h-7t-7 2q-25 4 -45 28.5t-20 79.5q0 18 7 59.5t33 94.5q4 6 7.5 13t7.5 14q29 47 51.5 78.5t22.5 54.5v5t-2 7q-2 8 -9.5 14 t-21.5 6q-6 0 -13.5 -2t-15.5 -4q-25 -10 -49.5 -33.5t-46.5 -50.5q-2 -4 -5 -7l-7 -7q-49 -61 -74 -95t-43 -63l-4 -8l-4 -8q-6 -10 -12.5 -21.5t-12.5 -25.5q-10 -18 -20.5 -34.5t-18.5 -29.5q-6 -6 -13 -10t-13 -4q-31 0 -45.5 47t-18.5 103q0 10 -1 21t-1 22z" />
<glyph unicode="o" horiz-adv-x="589" d="M0 270q0 25 4 49.5t12 49.5q27 90 92.5 174t137.5 137q43 33 84 51.5t73 18.5q29 0 49.5 -11.5t30.5 -23.5q4 -8 7.5 -14.5t3.5 -10.5v-8v-6q-2 -4 -2 -8v-9q0 -2 -2 -3l-1 -1q-2 -2 -2 -4v-4t-1 -4t-1 -4q23 -8 34 -24.5t16 -34.5q2 -16 3 -29.5t1 -24.5q0 -18 -2 -36.5 t-7 -34.5q-2 -8 -4 -18.5t-4 -18.5q-10 -37 -23.5 -74t-29.5 -70q-2 -4 -3 -8t-1 -8q0 -14 11 -24.5t26 -10.5q12 0 22.5 6.5t16.5 12.5q4 2 6 4l4 4q4 4 10 7t12 3q10 0 13.5 -4t3.5 -10q0 -10 -8.5 -23.5t-22.5 -29.5q-27 -25 -64.5 -45.5t-80.5 -22.5h-9.5h-11.5 q-59 -88 -114.5 -118t-100.5 -30q-66 0 -103.5 51.5t-56.5 114.5q-10 35 -14 69t-4 58zM113 188q0 -8 1 -17t5 -21q6 -18 23.5 -34t52.5 -16q20 0 57 16.5t84 69.5q-8 25 -12.5 48.5t-4.5 46.5q0 29 5.5 54t11.5 50q25 82 38 111.5t13 44.5q0 6 -5 11t-11 7q-2 2 -4 2h-5 q-12 0 -30.5 -12t-38.5 -29q-6 -6 -13.5 -12t-13.5 -12q-18 -18 -32.5 -35t-20.5 -25t-13 -17l-14 -18q-33 -45 -53 -95t-20 -118z" />
<glyph unicode="p" horiz-adv-x="761" d="M-113 -381q0 16 6.5 54t16.5 81q0 4 1 10.5t3 10.5q6 35 12 64.5t11 45.5q31 70 67.5 127.5t83.5 108.5l191 442l-254 -278q-12 -14 -18.5 -20.5l-8.5 -8.5h-3h-1h-3h-1q-2 2 -5 4t-3 4l-1 1t-1 3v3v1v1v3q2 2 2 4v1q18 76 123.5 174t226.5 286q16 23 30.5 46.5 t28.5 50.5q16 31 30.5 56.5t27.5 43.5q18 25 37.5 37t45.5 12q20 0 37 -10t17 -23v-3t-4 -3q-43 -35 -69 -78t-48 -94q-16 -39 -33.5 -81t-44.5 -89l-4 -8l-4 -8q-4 -8 -9 -18.5t-16 -30.5q-2 -4 -4 -8.5t-2 -8.5q-2 0 -2 -1v-1q-6 -14 -15 -31.5t-26 -52.5q14 18 44 50 t65 67q14 12 28.5 25.5t30.5 25.5q41 35 81 60.5t67 25.5q33 0 56 -26.5t23 -85.5q0 -39 -14 -82t-39 -88q-31 -57 -74 -111.5t-88 -99.5q-14 -16 -29.5 -30.5t-29.5 -27.5q27 -14 53.5 -19t52.5 -5q47 0 85 20.5t63 44.5q18 18 29.5 33.5t17.5 24.5q2 2 3 4t3 4q2 4 6 8 t9 4h1h3q4 -2 7 -5t3 -7v-1v-1q0 -6 -5 -24.5t-40 -59.5q-16 -20 -32.5 -38t-35.5 -34q-104 -96 -199.5 -120.5t-142.5 -24.5q-33 0 -71.5 13t-77.5 42q-6 6 -13.5 11t-13.5 12q-72 -197 -104.5 -308.5t-59.5 -154.5q-8 -16 -17 -23.5t-22 -7.5q-18 0 -28.5 24.5t-12.5 55.5 v5v5zM199 178q16 10 34.5 15.5t36.5 5.5q23 0 43.5 -7.5t40.5 -23.5q25 23 47.5 48.5t40.5 49.5q37 49 60.5 94.5t27.5 69.5q2 4 2 9v10v7t-2 5q-4 12 -14 22.5t-27 10.5q-27 0 -65.5 -33t-77.5 -80q-18 -18 -34.5 -40t-32.5 -44q-23 -31 -43.5 -61.5t-36.5 -57.5z" />
<glyph unicode="q" horiz-adv-x="745" d="M0 281q0 115 104.5 222t229.5 177q74 39 142.5 62.5t117.5 23.5q39 0 66.5 -45t27.5 -160q0 -4 -1 -18.5t-5 -30.5l-4 -12t-6 -13l-201 -333q10 -8 24.5 -15.5t39.5 -7.5q10 0 21 4t24 10q14 10 29.5 23.5t27.5 26.5q10 12 18.5 22t14.5 19q8 12 12 17t6 5h2t4 -2l2 -2 q2 -2 2 -6v-4v-4v-4.5v-4.5q-2 -16 -10 -35.5t-20 -37.5q-18 -29 -44 -55.5t-55 -45.5q-6 -4 -13 -8t-15 -8q2 -6 3 -11t1 -12q2 -6 2 -11v-9q0 -49 -19.5 -105.5t-52.5 -113.5q-31 -55 -68.5 -109.5t-78.5 -101.5q-63 -78 -122 -127t-83 -49q-20 0 -31.5 15t-15.5 34 q-4 14 -5 26.5t-1 18.5q0 12 1 24.5t1 24.5q10 82 63 187.5t193 334.5q10 18 20 35t19 31q6 12 13 24.5t13 24.5q10 18 20.5 39.5t20.5 46.5q-154 -174 -211 -213t-82 -39q-10 0 -20 6t-21 17q-20 23 -40.5 60.5t-34.5 78.5q-12 31 -18.5 60.5t-6.5 52.5zM123 213 q0 -6 1 -13t5 -12l8 -4t10 -2h3h2q23 2 48 17.5t70 50.5q20 16 60.5 52t83.5 79q10 10 21 21.5t22 21.5q49 51 83.5 98t34.5 70v4t-2 4q-2 4 -6 8t-10 4q-27 0 -75 -23.5t-101 -56.5q-16 -10 -32.5 -20t-33.5 -23q-27 -18 -50 -35.5t-42 -33.5q-76 -68 -88 -113t-12 -80v-3 v-3v-4v-4zM223 -391v-7t2 -8v-7v-7v-2q18 10 42 31.5t48 52.5q23 27 44.5 57.5t39.5 61.5q18 37 30.5 70.5t12.5 62.5q0 57 -5 89t-23 52q-8 -18 -15.5 -29.5t-13.5 -21.5q0 -2 -1 -3l-1 -1q-4 -4 -7 -10t-7 -13q-6 -10 -10.5 -17t-8.5 -13l-1 -1q-1 -1 -1 -3 q-8 -12 -17 -30.5t-30 -55.5q-6 -10 -11 -21.5t-11 -21.5q-23 -47 -39.5 -96.5t-16.5 -108.5z" />
<glyph unicode="r" horiz-adv-x="557" d="M23 348q0 8 3 21.5t9 29.5q2 4 3 7.5t3 7.5q27 55 33 80.5t6 37.5q0 4 -2 7.5t-4 5.5q0 2 -2 4l-2 2q-6 6 -9.5 12t-3.5 19q0 18 7.5 40.5t17.5 45.5q16 29 35.5 56.5t42.5 49.5q20 20 40.5 33.5t35.5 13.5q8 0 12 -6t4 -16q0 -6 -1 -10.5t-1 -6.5q-2 -2 -2 -3v-1 q-2 -4 -2 -6v-4t1 -6t1 -6q4 -10 12 -17.5t23 -7.5q10 0 23 2t44 8q49 10 74 16.5t41 6.5q12 0 18 -6t11 -13l1 -1t1 -3q10 -18 14 -35.5t4 -31.5q0 -27 -11 -48.5t-24 -39.5q-4 -4 -7 -9.5t-7 -9.5q-12 -14 -29.5 -37.5t-34.5 -50.5q-14 -20 -26.5 -42.5t-22.5 -45.5 q-18 -37 -30.5 -71.5t-12.5 -63.5q0 -43 19.5 -60.5t44.5 -17.5q12 0 29.5 8.5t33.5 22.5q8 6 17.5 13t17.5 14q12 12 22.5 22t18.5 18q4 6 11 11.5t18 5.5q6 0 10 -4t4 -10q2 -2 2 -3.5v-3.5q0 -10 -19.5 -35.5t-43.5 -54.5q-2 -4 -5.5 -7t-5.5 -7q-20 -23 -38.5 -43.5 t-28.5 -30.5q-68 -66 -120 -81t-81 -15q-33 0 -58.5 32.5t-25.5 96.5q0 47 15.5 87t33.5 73q8 14 16.5 26.5t14.5 22.5q6 12 12 20.5t10 16.5q0 2 1.5 3t3.5 3q8 12 18 27.5t31 42.5q41 57 48 77.5t7 22.5q0 18 -19.5 25.5t-41.5 7.5q-84 0 -107.5 -14.5t-34.5 -51.5 q-4 -6 -6 -13t-4 -16q-6 -18 -13 -34.5t-14 -30.5q-25 -45 -46 -61.5t-29 -16.5q-2 0 -3 1t-1 3z" />
<glyph unicode="s" horiz-adv-x="600" d="M0 303q0 8 1 18.5t5 20.5q6 20 19.5 38.5t40.5 18.5h3h1q12 0 26.5 -1t30.5 -11q16 -8 31.5 -28.5t25.5 -59.5q2 -6 4 -14.5t7 -16.5q6 -16 14 -29.5t20 -13.5q10 0 23.5 5.5t26.5 15.5q29 23 51 69.5t22 122.5v8.5v8.5v36.5t-2 36.5q0 23 -4 44.5t-12 45.5l-162 -178 l-41 66l184 209q-2 8 -2 15v15q0 25 6.5 42.5t14.5 27.5q4 4 7 8t5 6q6 6 9 10.5t5 6.5q0 2 1 2h1q0 2 1.5 3t3.5 3q4 6 7 9l5 5q0 2 1 2t3 2q2 0 4 2.5t4 4.5l7 7t3 5l1 1l1 1q2 2 3.5 3t3.5 3q4 4 9 7t11 3q20 0 38.5 -50t31.5 -111q8 -41 12 -78t4 -60 q0 -55 -19.5 -126.5t-60.5 -145.5q-23 -37 -48.5 -74t-57.5 -71q10 -4 19 -7.5t20 -3.5q31 2 71.5 28t110.5 91q16 16 24.5 21.5t14.5 5.5h1h3l4 -4t2 -7q0 -20 -30.5 -62t-77.5 -89q-20 -20 -42 -41t-44 -37q-45 -39 -87.5 -63.5t-70.5 -24.5q-18 0 -40 9t-42 24 q-37 27 -72 68.5t-59 88.5q-16 29 -25.5 59t-9.5 54z" />
<glyph unicode="t" horiz-adv-x="450" d="M0 127q0 66 33 147.5t106 217.5l4 8l4 8v1v1q4 6 7.5 13t9.5 18q6 10 10 18t10 19l1 1t1 3q10 20 22.5 41.5t29.5 50.5l-156 2q-8 0 -12 5t-2 13q0 12 6 28.5t16 35.5q4 6 7 11t7 11q12 23 22.5 38.5t12.5 17.5q25 35 59 40q24 4 77 4q21 0 47 -1h7h7q45 78 77.5 125 t63.5 69q18 14 38 20.5t42 6.5q4 0 11 -1t14 -3q10 -2 19 -5.5t9 -9.5q0 -8 -4 -19t-12 -22q-4 -8 -10 -15t-13 -15q-4 -4 -7 -8.5t-7 -8.5q-4 -6 -9 -11l-9 -9q-2 -2 -3 -4t-4 -4q-14 -16 -30.5 -38t-42.5 -59q16 -2 23 -2h16h5h7q10 -2 20.5 -2h18.5h7h7h6h6h1h2h3h1 q10 -2 15 -6t5 -14q0 -8 -7 -19.5t-17 -25.5l-68 -90q-2 -2 -4 -5.5t-4 -7.5q-8 -10 -19.5 -20t-27.5 -10h-21.5t-34.5 2q-18 0 -33.5 1t-21.5 1q-12 -23 -26.5 -48.5t-28.5 -54.5t-29.5 -58.5t-30.5 -59.5q-23 -53 -37 -103.5t-14 -95.5q0 -43 16.5 -75t59.5 -32 q12 0 50 19.5t122 97.5q10 10 18.5 17.5t14.5 9.5q2 2 4 2h4q6 0 10 -3t4 -20q0 -10 -15 -30.5t-34 -45.5l-8 -8l-8 -8q-20 -23 -39 -40t-25 -23q-82 -78 -144.5 -120t-115.5 -42h-7t-7 2q-29 6 -53.5 45t-24.5 131z" />
<glyph unicode="u" horiz-adv-x="706" d="M0 276q0 39 13.5 87.5t37.5 99.5q25 55 56.5 107.5t64.5 91.5q29 33 56.5 52t50.5 19h7t7 -2q18 -2 35.5 -14t17.5 -29q0 -20 -17.5 -55t-45.5 -74q-14 -20 -32 -41.5t-36 -40.5q-16 -16 -30.5 -29.5t-28.5 -21.5q-4 -2 -7.5 -5t-7.5 -5q-6 -4 -11 -8.5t-13 -10.5 q-2 -6 -3 -11t-3 -11q-2 -12 -3.5 -23.5t-1.5 -21.5q0 -43 15.5 -73t36.5 -30q14 0 30.5 9.5t38.5 29.5q4 4 9.5 8.5t9.5 8.5q2 0 3 1t1 3q16 12 32.5 29.5t45.5 52.5l290 360q2 2 3.5 4t3.5 4q4 6 9 10.5t13 4.5q4 0 7 -1t8 -6q10 -8 18 -34.5t8 -81.5v-19.5t-4 -7.5 q0 -2 -1 -3l-3 -3l-145 -199q-2 -2 -4.5 -6t-6.5 -6q-16 -25 -29.5 -60.5t-13.5 -80.5q0 -33 7.5 -50.5t15.5 -25.5q6 -6 12 -7t8 -1q10 0 24.5 6t29.5 14q6 2 12 6t12 9q8 6 15.5 11l13.5 9q39 29 49 39t14 10h3t1 -2q4 -2 6.5 -5t2.5 -9q0 -23 -26 -57.5t-63 -73.5 q-14 -14 -31.5 -30.5t-35.5 -31.5q-49 -43 -92 -70.5t-58 -27.5h-3h-3q-23 2 -42 26.5t-19 86.5q0 18 2 43.5t6 50.5q2 16 4 32.5t4 30.5q2 10 4 20.5t4 18.5q-127 -205 -184 -237.5t-76 -32.5q-39 0 -68.5 83t-29.5 197z" />
<glyph unicode="v" horiz-adv-x="638" d="M0 319q0 72 23.5 128.5t56.5 109.5q4 8 10 17.5t12 19.5q66 106 97.5 124.5t54.5 18.5q29 0 41 -9t16 -19q2 -6 2 -11.5v-9.5q0 -6 -1 -13t-3 -13q-4 -6 -6 -13.5t-6 -13.5l-3 -6t-1 -4v-2q-2 -4 -3 -7.5t-3 -7.5q-6 -16 -24.5 -54t-49.5 -83q-16 -25 -37.5 -48.5 t-48.5 -43.5q-8 -25 -13 -57.5t-5 -73.5q0 -31 10 -54.5t20 -31.5q4 -2 7.5 -3t5.5 -1q10 0 25.5 9t31.5 21q4 4 9 7.5t9 7.5q14 12 25.5 22.5t17.5 16.5q6 4 11.5 9t9.5 9q8 10 17 18.5t18 18.5q8 10 17 21.5t17 25.5v15.5v15.5q0 53 32 124.5t124 196.5q8 12 19.5 20.5 t29.5 8.5h4t6 -2q16 -4 29.5 -21.5t13.5 -37.5q0 -25 -16 -75t-43 -104q-16 -33 -33.5 -62.5t-38.5 -55.5q0 -33 14.5 -52.5t39.5 -21.5h6h4q6 0 13 3t16 5q8 4 15 8t13 8q2 0 3 1l1 1q2 2 5.5 3.5t5.5 1.5q4 0 9 -5.5t5 -11.5q2 -2 2 -4v-4q0 -12 -7 -21.5t-18 -17.5 q0 -2 -1 -3t-3 -1l-4 -4l-4 -4q-27 -25 -47 -37t-41 -12q-8 0 -18.5 2t-20.5 6q-16 6 -31.5 20.5t-29.5 38.5q-14 -23 -34 -52.5t-42 -61.5q-16 -23 -33.5 -45.5t-34.5 -40.5q-27 -29 -52 -47.5t-48 -18.5q-6 0 -12 1t-13 3q-47 20 -89 98t-54 168q0 12 -1 24.5t-1 24.5z " />
<glyph unicode="w" horiz-adv-x="942" d="M0 276q0 88 13.5 137.5t37.5 92.5q12 18 26.5 37.5t33.5 44.5q84 117 135 160t78 43q4 0 10 -1.5t10 -3.5q18 -6 33.5 -20t15.5 -33q0 -16 -10 -41.5t-25 -54.5q-6 -10 -10 -18.5t-10 -18.5q-14 -25 -26.5 -44t-20.5 -28l-1 -1l-1 -1q-2 -4 -6 -9t-13 -15 q-6 -8 -19 -28.5t-34 -41.5q-16 -20 -34.5 -37.5t-39.5 -27.5q-12 -25 -18 -54.5t-6 -70.5q0 -29 8 -47.5t16 -28.5q6 -4 10.5 -6t8.5 -2q8 0 21.5 14t33.5 45l340 477q2 4 4 6t4 5q8 8 17.5 12t23.5 4q4 0 10.5 -1t12.5 -3q14 -6 24.5 -14.5t12.5 -18.5v-5v-7 q-2 -14 -6.5 -27.5t-10.5 -26.5q-12 -29 -30.5 -57.5t-36.5 -62.5q-27 -45 -49.5 -103.5t-32.5 -140.5q-2 -8 -3 -18.5t-1 -20.5q0 -6 1 -13t3 -16q2 -18 9 -30.5t15 -16.5q2 -2 3 -2h3h1h1q6 0 35 20.5t97 147.5q-2 10 -2 21.5v21.5q0 31 8 58.5t22 54.5q10 18 21.5 36.5 t23.5 37.5q8 12 16.5 27.5t18.5 29.5q14 20 27.5 39.5t27.5 32.5q10 10 20.5 15t20.5 5h3h3q18 -2 34 -17.5t16 -50.5q0 -18 -4.5 -35.5t-8.5 -33.5q-10 -37 -27.5 -92.5t-52.5 -114.5q-6 -8 -11 -17.5t-11 -17.5q6 -25 20.5 -41t28.5 -18q2 -2 4 -2h4q16 0 23.5 5t11.5 11 h2q4 6 10.5 10t20.5 4h1t3 -2t3 -4t1 -4q0 -12 -6 -26.5t-16 -30.5q-14 -20 -36 -40t-44 -32q-8 -4 -17.5 -6t-17.5 -2t-17.5 2t-19.5 6q-14 8 -29.5 23.5t-27.5 38.5q-113 -156 -169.5 -199t-84.5 -43q-4 0 -10.5 1t-10.5 5q-27 10 -48 43t-23 72v3v3q0 16 2 38.5t4 47.5 q0 12 2 24.5t4 24.5q2 18 4 33.5t4 23.5q-12 -16 -37.5 -53t-56.5 -78q-10 -12 -19.5 -23t-19.5 -24q-35 -39 -65.5 -67.5t-51.5 -28.5q-10 0 -26.5 7t-32.5 22q-29 29 -52.5 87t-23.5 160z" />
<glyph unicode="x" horiz-adv-x="641" d="M0 23v1v3q0 14 5 34.5t13 40.5q10 25 23.5 47.5t28.5 38.5q6 6 12 10.5t12 6.5l64 12l112 137q2 12 2 22.5t2 20.5v9.5v11.5q0 8 1 16t1 19v23q0 54 -8 80q-10 32 -37 32q-14 0 -26 -9.5t-25 -21.5q-2 0 -3 -1l-3 -3l-98 -90q-6 -6 -11.5 -8t-9.5 -2t-7 2t-5 4q0 2 -1 3 l-1 1v1v3v3v1v7v5q6 23 31.5 60t60.5 73q14 16 27.5 31t27.5 27q43 45 83 75.5t57 30.5q6 0 13 -1t13 -5q24 -10 44 -49q18 -35 18 -109v-16v-26.5t-2 -30.5l168 155q2 2 7 5.5t9 7.5q2 2 5 4t5 4q6 2 11.5 4t9.5 2t8 -5t4 -11q0 -16 -8 -31.5t-17 -28.5q-4 -4 -8 -9t-8 -9 l-190 -215l-13 -211q-2 -29 4.5 -49.5t26.5 -20.5q12 0 27.5 11.5t40.5 31.5q6 6 10 9t6 8h1h1q0 2 2 3t4 3q4 6 9.5 10t11.5 8t11 6t9 2q6 0 10 -4t4 -10q2 -2 2.5 -4t0.5 -4q0 -8 -36 -51t-83 -95q-8 -8 -16.5 -16t-16.5 -16q-45 -45 -85 -79t-56 -34q-4 0 -8.5 1t-8.5 5 q-8 6 -15 20.5t-7 41.5q0 20 4 56t10 87q2 25 5 54.5t5 62.5q-20 -33 -41.5 -61.5t-44.5 -53.5q-55 -61 -105 -94t-69 -33q-4 0 -7 7t-3 16z" />
<glyph unicode="y" horiz-adv-x="704" d="M0 233q0 47 7 88t22 82q10 31 26.5 63t36.5 66q12 18 31.5 46t44.5 57q10 12 20.5 23.5t20.5 23.5q33 35 62.5 60.5t47.5 25.5q4 0 8.5 -1t8.5 -3q14 -6 27.5 -19.5t17.5 -29.5q2 -4 3 -8.5t1 -8.5q0 -23 -21.5 -65.5t-52.5 -89.5q-18 -25 -37.5 -49.5t-37.5 -47.5 q-23 -25 -45.5 -43t-40.5 -26q-12 -27 -19.5 -44.5t-11.5 -31.5q-2 -10 -3 -20.5t-1 -22.5q0 -18 5 -31.5t11 -19.5q2 0 4 -1t4 -1q8 0 46 24.5t182 173.5q51 51 76.5 80t43.5 54q2 2 4.5 5t4.5 5q6 8 13 18t15 21q6 6 10.5 11t8.5 11q6 8 13 16.5t17 22.5q16 18 23.5 28.5 t15.5 18.5q2 4 5.5 8.5t7.5 8.5q8 10 15 14t13 4q14 -2 22.5 -25.5t8.5 -52.5q0 -20 -5 -39.5t-11 -36.5q-4 -10 -8.5 -18t-6.5 -12l-237 -471q-14 -27 -19.5 -37t-7.5 -19l-1 -1t-1 -3l-1 -1q-1 -1 -1 -3v-3v-1v-1q0 -1 2 -1v-3v-1h1h1l3 -3l1 -1q8 0 16.5 5t16.5 15 l225 242q8 8 12.5 13t8.5 10q4 2 6 4t4 2q4 2 5 2h3h1h1h1h1q0 -2 1 -2h1q4 -2 6.5 -6.5t2.5 -8.5q0 -2 -1.5 -6t-3.5 -6q0 -2 -1 -4t-3 -4q0 -2 -1 -4t-3 -4l-289 -377q-4 -4 -8 -9l-8 -10v-2q-18 -23 -39.5 -51t-60.5 -92q-55 -90 -93 -143.5t-61 -53.5q-10 0 -14 22.5 t-6 51.5q-2 18 -2 35.5v28.5q0 27 18 60.5t43 86.5l154 348q4 8 6 16.5t2 16.5v3v3l-3 6t-3 0q-2 0 -5.5 -2t-7.5 -6q-94 -90 -146 -133t-75 -43q-8 0 -16 8t-17 25q-10 16 -19 40.5t-17 51.5q-10 33 -17.5 62.5t-7.5 45.5z" />
<glyph unicode="z" horiz-adv-x="589" d="M0 -59q8 82 45 146.5t82 111.5q23 25 45.5 45t40.5 37q49 45 98 96t95 133q-25 -16 -66 -32.5t-84 -26.5q-33 -8 -63.5 -13.5t-55.5 -5.5q-39 0 -53 19.5t-18 44.5q-2 8 -2.5 17t-0.5 17q0 18 9.5 39t21.5 43q14 23 30.5 42.5t35.5 37.5q23 20 43 34.5t35 14.5 q12 0 15 -7t3 -23v-4v-5q-2 -2 -2 -3v-3v-7t2 -7q2 -10 12.5 -17.5t32.5 -7.5q35 0 62.5 4.5t52.5 10.5q23 6 40 10t29 4q2 0 3 -1t4 -1q4 -4 8 -10t6 -15l1 -1t1 -3l20 -92q2 -6 3 -12t1 -14v-9.5v-9.5q0 -25 -34.5 -68.5t-81.5 -91.5q-10 -10 -20.5 -20t-20.5 -21 q-49 -47 -92 -83.5t-60 -51.5q6 4 12.5 6t12.5 5q12 2 25.5 3t23.5 1q12 0 23.5 -7.5t19.5 -17.5q4 -4 6 -8t6 -8q0 -2 1 -3l3 -3q10 -14 23.5 -27.5t38.5 -13.5q29 0 59.5 30.5t63.5 73.5q10 12 18 21.5t16 9.5h1h4q4 -2 7 -7.5t3 -15.5q0 -8 -13.5 -32.5t-68.5 -102.5 q-66 -88 -99.5 -125t-56.5 -37q-12 0 -29.5 4t-33.5 11q-16 6 -33.5 14t-30.5 18q-2 2 -5 4t-7 5q-18 16 -37.5 27t-44.5 11q-23 0 -43 -13t-41 -30q-6 -4 -11 -8t-9 -8l-3 -3t-4 -1q-4 -4 -9 -7t-11 -7z" />
<glyph unicode="{" horiz-adv-x="937" d="M137 -8q0 31 9.5 96.5t41.5 159.5q41 119 63.5 168t27.5 84v6v4q0 41 -5.5 63.5t-11.5 38.5q-2 4 -4 8.5t-4 6.5q-4 12 -7 23.5t-3 27.5q0 10 12 14t31 6h4t4 2q12 0 23.5 3.5t17.5 9.5q18 14 28.5 46t16.5 66q2 16 4 34t4 32q29 250 87.5 377t123.5 180q37 31 72 43 t65 14q6 2 12.5 2h12.5h5h5q2 -2 5 -2h5q8 0 15.5 -2t15.5 -4q31 -6 55.5 -16t24.5 -23q0 -4 -5 -9t-14 -9q-4 -4 -9 -6t-11 -6q-4 -2 -8 -4.5t-8 -4.5q-76 -41 -123 -115.5t-88 -242.5q-2 -14 -5.5 -27.5t-7.5 -27.5q-31 -131 -83 -246t-177 -164q10 -18 18.5 -37.5 t12.5 -38.5q12 -41 12 -86t-2 -96q0 -20 -1 -42t-1 -46q0 -51 -12 -98.5t-25 -92.5q-14 -45 -26.5 -84.5t-12.5 -78.5q0 -35 7.5 -63t15.5 -48q6 -12 10 -21.5t8 -15.5q2 -4 6.5 -12t8.5 -21q2 -2 3 -5t3 -5q4 -14 8 -25.5t4 -17.5q0 -4 -1 -4h-5q-10 0 -33.5 13.5 t-50.5 31.5q-8 6 -17.5 13.5t-17.5 13.5q-4 2 -7 5l-5 5q-10 8 -21.5 18.5t-21.5 22.5q-29 31 -51.5 80t-22.5 129z" />
<glyph unicode="|" horiz-adv-x="651" d="M274 -573v2156h103v-2156h-103z" />
<glyph unicode="}" horiz-adv-x="913" d="M45 -293q0 4 4 9t10 10q12 8 33 16t43 20q18 10 35.5 21.5t30.5 28.5q23 25 46 80t56 184q2 6 3 11t3 9q29 104 72 192.5t154 127.5q-8 14 -15.5 29.5t-13.5 29.5q-16 45 -23.5 90t-7.5 88q0 66 13.5 126.5t27.5 109.5q4 12 8 24.5t8 22.5q16 47 27.5 87t20.5 77 q6 29 11 58.5t7 62.5v8v8v8v8v15.5v15.5q-2 14 -4 27.5t-6 27.5q-6 29 -15.5 56.5t-19.5 54.5q-8 25 -11 40t-3 23q0 4 2 5.5t4 -0.5q12 0 37.5 -16.5t56.5 -41.5q18 -16 36.5 -34.5t33.5 -36.5q2 -4 4 -7.5t4 -5.5q12 -20 21.5 -40.5t15.5 -41.5q14 -47 18 -91t4 -75 q0 -41 -4 -74.5t-12 -66.5q-6 -29 -15.5 -58.5t-21.5 -64.5q-23 -66 -35 -100.5t-24 -61.5q-2 -2 -3.5 -5l-3.5 -7q0 -4 -2 -7t-4 -7q-20 -49 -33.5 -83t-13.5 -63t7 -47t18 -32q2 -2 5 -6.5t5 -6.5q16 -16 20.5 -27.5t4.5 -17.5q0 -10 -7.5 -15t-17.5 -11q-8 -2 -16.5 -6.5 t-18.5 -8.5l-12 -8t-12 -10q-16 -16 -26.5 -39t-16.5 -45q-2 -12 -4.5 -23.5t-4.5 -21.5q-2 -16 -5 -32.5t-7 -33.5q-61 -322 -132 -398.5t-191 -76.5q-45 0 -84 10.5t-56 20.5q-4 4 -6 7t-2 5z" />
<glyph unicode="~" horiz-adv-x="1142" d="M115 614q2 4 4 8.5t4 8.5q39 78 110.5 142.5t176.5 64.5q59 0 107 -22.5t93 -51.5q2 0 3 -1l1 -1q18 -10 37 -21.5t37 -19.5q47 -23 70.5 -28t36.5 -5q43 0 83 41t66 98l62 -57q-37 -88 -102.5 -158.5t-149.5 -70.5q-57 0 -104.5 19.5t-86.5 41.5l-6 3t-4 3 q-68 39 -115 62.5t-88 23.5q-14 0 -28.5 -3t-28.5 -11q-33 -14 -63.5 -46t-55.5 -77z" />
<glyph />
<glyph horiz-adv-x="1290" d="M328 1165v7.5v5.5v5v7q4 221 133 405.5t348 184.5q213 0 343 -181.5t138 -398.5v-10v-12v-12.5v-10.5q-8 -217 -138 -398.5t-343 -181.5q-219 0 -348 184.5t-133 405.5zM395 1178q0 -231 126 -370.5t276 -145.5h7h5h8h8q150 8 273 148t123 368q0 227 -123 367.5 t-273 148.5h-8h-8h-5h-7q-150 -6 -276 -145.5t-126 -370.5zM573 846v35h9h1h1h8t8 2q10 2 19.5 16t9.5 51v482q0 33 -8.5 47t-18.5 18q-4 2 -9 2h-9h-1h-1h-9v35h252h1h1q16 0 40 -1t51 -7q43 -12 78.5 -48t35.5 -118q0 -72 -32.5 -121t-86.5 -57l99 -228q2 -6 6 -14t10 -16 q10 -14 22.5 -26.5t28.5 -16.5v-35h-168l-131 325h-16v-221q0 -37 9 -51t20 -16q4 -2 8 -2h8h1h1h8v-35h-246zM764 1223q53 -4 79.5 18.5t39.5 48.5q8 23 9 42.5t1 25.5q0 10 -1 24.5t-5 30.5q-8 25 -25.5 45.5t-52.5 20.5h-17.5t-27.5 -2v-254z" />
<glyph horiz-adv-x="966" d="M205 328q0 4 2 8l4 8l43 86q4 10 10 13t15 3h4h4h3h1h420q14 0 20 -6t6 -16v-7t-4 -7l-45 -88q-2 -8 -11 -11.5t-26 -3.5h-420q-10 0 -18 5t-8 16z" />
<glyph horiz-adv-x="385" d="M225 1014q0 10 4 18t9 15q6 8 11 16t9 18q6 14 9 27.5t3 26.5q0 18 -5 29.5t-11 21.5q0 2 -1 2t-1 2q-6 8 -10 18.5t-4 24.5q0 16 5 37.5t15 42.5q14 37 36.5 68.5t47.5 45.5q6 4 13 6.5t14 2.5q20 0 28.5 -13.5t10.5 -27.5q2 -6 2 -12.5v-10.5q0 -35 -19.5 -98.5 t-85.5 -183.5q-33 -61 -47 -75t-20 -14q-4 0 -8.5 4.5t-4.5 8.5z" />
<glyph horiz-adv-x="1464" d="M246 221l166 207q-12 20 -22.5 40.5t-20.5 41.5q-33 78 -43.5 151.5t-10.5 126.5q0 55 11.5 134t50.5 163l16 32t19 32l-166 207l98 123l164 -209q14 14 28.5 26.5t30.5 22.5q63 45 125 58.5t105 13.5q41 0 99 -12.5t120 -51.5q18 -12 35.5 -26.5t33.5 -30.5l166 209 l99 -123l-168 -207q10 -16 18 -31.5t17 -32.5q39 -84 50 -162.5t11 -134.5q0 -53 -10.5 -126.5t-42.5 -151.5q-10 -20 -20.5 -40.5t-22.5 -41.5l168 -207l-99 -123l-166 209q-16 -16 -33.5 -30.5t-35.5 -26.5q-61 -39 -119.5 -51.5t-99.5 -12.5q-43 0 -104.5 13.5 t-125.5 58.5q-16 10 -30.5 22.5t-28.5 26.5l-164 -209zM432 788q0 -201 109.5 -325.5t240.5 -132.5h8.5h8.5h8h8q131 8 240.5 133t109.5 325q0 207 -112.5 332t-247.5 127h-3h-3h-8.5h-8.5q-131 -8 -240.5 -132t-109.5 -327z" />
<glyph />
<glyph horiz-adv-x="870" d="M-53 -551q0 84 75.5 261t329.5 378q10 8 19.5 15.5t15.5 13.5q2 0 2 1t2 1q14 12 30.5 26.5t45.5 38.5q25 45 74 151.5t104 237.5q14 35 29.5 72t27.5 72q57 143 97.5 274t40.5 209v7v5q0 33 -5.5 49.5t-33.5 16.5q-35 0 -75 -22.5t-81 -61.5q-68 -66 -131 -165 t-106 -206q-31 -74 -49.5 -145.5t-18.5 -130.5v-4v-6v-5.5v-5.5q0 -16 2 -30.5t10 -14.5q10 0 28.5 8.5t39.5 24.5l10 10t12 13q-12 -23 -26.5 -48.5t-30.5 -50.5q-18 -27 -36.5 -52.5t-39.5 -47.5q-33 -41 -65.5 -67.5t-55.5 -26.5q-4 0 -9 1t-9 5q-14 8 -26.5 30.5 t-12.5 59.5q0 104 45 308t217 444q8 12 17.5 24t19.5 25q43 53 93 104t104 92q57 45 113.5 74t101.5 29q10 0 23.5 -5t27.5 -14q31 -18 56.5 -55t25.5 -86q0 -57 -23.5 -153.5t-60.5 -200.5q-16 -49 -33.5 -96.5t-36.5 -90.5q-10 -27 -21.5 -50t-21.5 -46q-14 -29 -22 -46 t-17 -34q0 -2 -1 -3t-1 -3q-4 -10 -8 -20.5t-10 -22.5q-10 -27 -37 -88t-80 -164q6 4 24.5 15.5t41.5 23.5q4 2 7 4t7 4q23 12 44.5 22.5t31.5 10.5q16 0 21 -4t5 -8q0 -8 -10 -18.5t-45 -32.5q-57 -39 -94 -69t-70 -58q-2 -2 -4 -3.5t-4 -3.5q-6 -6 -11 -10t-11 -8 q-6 -6 -14.5 -13.5t-20.5 -17.5q-295 -479 -393.5 -576.5t-118.5 -97.5q-4 0 -8.5 1.5t-8.5 1.5q-8 4 -16 9t-8 15z" />
<glyph horiz-adv-x="1157" d="M172 1057q0 6 1 12t3 12l45 136q25 76 153 129t277 84q109 23 208 34t161 11q33 0 54.5 -1t37.5 -1h7h5q14 -2 28.5 -2.5t33.5 -0.5h30.5h30.5q82 4 155 31t91 127q0 2 1 6t1 6q2 6 2 12.5t2 12.5q4 18 10.5 34.5t20.5 16.5q2 0 6 -1t8 -3q8 -6 14.5 -20.5t6.5 -44.5 q0 -35 -4.5 -89.5t-16.5 -111.5q-20 -94 -69.5 -172t-147.5 -78h-21.5t-21.5 2q-18 0 -36.5 3t-41.5 7q-10 2 -18 3t-17 1q-8 0 -16 1t-16 1q-14 2 -30.5 2.5t-39.5 2.5q-16 -18 -28.5 -35t-22.5 -33q-6 -8 -11.5 -15.5t-9.5 -15.5q-10 -12 -18 -26.5t-18 -30.5q0 -2 -1 -3 l-2 -1q-41 -68 -102 -178.5t-217 -444.5q-14 -29 -26.5 -55.5t-22.5 -50.5q-4 -6 -7 -12.5t-5 -12.5q-20 -45 -41 -93t-48 -112q-29 -68 -46 -98.5t-31 -42.5q-10 -6 -19.5 -9t-23.5 -5h-2h-5h-9t-11 -2q-10 -2 -19.5 -3t-15.5 -1q-16 0 -27.5 17t-21.5 71q-12 66 -16 111.5 t-4 84.5q0 29 6 70t18 82q8 39 20.5 75.5t24.5 65.5q6 14 13.5 27.5t13.5 21.5t24.5 23.5t40.5 32.5l13.5 9t15.5 11q27 16 51.5 29.5t36.5 13.5q4 0 6 -1t2 -5q0 -12 -16 -39t-35 -66q-18 -39 -34.5 -88t-16.5 -104q0 -51 11 -89t26 -67q33 74 50 113t32 70q0 2 1 3t1 3 q4 8 8 17t8 20q31 70 59.5 134t57.5 126q14 33 29.5 65.5t31.5 65.5q43 90 92.5 183t112.5 198q-47 -2 -113.5 -9.5t-138.5 -23.5q-76 -16 -148.5 -43t-117.5 -66l82 -51q-4 -2 -9 -3t-10 -1q-6 -2 -12 -3t-12 -3q-23 -6 -44.5 -9t-41.5 -3h-21.5h-23.5q-4 0 -8.5 -1 t-6.5 -1q-55 0 -101 6t-44 45z" />
<glyph unicode="&#xa0;" horiz-adv-x="1261" d="M115 -29v115h1007v-115h-1007zM115 774v115h458v573h91v-573h458v-115h-458v-573h-91v573h-458z" />
<glyph unicode="&#xa4;" horiz-adv-x="1368" d="M150 913v8.5v8.5v1v3q0 66 19 126t44 109l178 134q0 -2 -1 -8.5t-3 -12.5v-10v-8q0 -8 5 -11.5t11 -3.5h3h2q2 0 3 1t3 1t4 1l2 1q33 10 76 32t92 44q47 20 97 41t99 31q25 6 48.5 9t48.5 3q39 0 68.5 -35t43.5 -78q8 -16 11.5 -33.5t3.5 -31.5q0 -23 -4.5 -38t-12.5 -28 l-147 -243l622 377q4 -16 6.5 -32t2.5 -32q0 -86 -56.5 -142.5t-124.5 -105.5q-4 -2 -7 -5t-7 -5q-23 -16 -47.5 -32.5t-61.5 -33.5q-2 4 -4 10.5t-4 12.5q-6 14 -14 26.5t-19 12.5q-6 0 -15 -2t-19 -6q-4 -2 -9.5 -4t-9.5 -2q-6 -4 -12 -7.5t-10 -5.5l-297 -178l-68 -113 l465 -385q66 -51 91.5 -125.5t25.5 -166.5q0 -6 -1 -20.5t-3 -29.5q-2 -20 -6.5 -37.5t-8.5 -15.5h-2l-692 578l-139 -215q-2 -2 -2 -5.5v-5.5v-4v-4l1 -1l1 -1q2 -2 2 -3v-1q0 -2 1 -4t1 -4q-6 -8 -10 -15.5t-8 -13.5q-2 -2 -3.5 -3t-1.5 -3q-6 -6 -11 -13t-11 -16 q-4 -8 -7 -12t-7 -8q-2 -2 -4.5 -5t-4.5 -7q-45 -63 -71.5 -88t-42.5 -25q-10 0 -16.5 9t-6.5 20q0 35 42 117.5t237 367.5q-14 25 -15.5 49.5t0.5 40.5v10v9q0 20 9.5 38.5t19.5 34.5q6 8 11 14.5t9 12.5l156 94l178 299q16 27 22.5 41t6.5 25v3v1q-2 8 -9 15t-18 7 q-59 0 -206.5 -90t-401.5 -219q-33 -14 -49 -22.5t-31 -8.5q-18 0 -24 14.5t-6 30.5z" />
<glyph unicode="&#xa6;" horiz-adv-x="1228" d="M172 1057q0 6 1 12t3 12l45 136q27 82 152 133t268 80q123 25 234.5 35t160.5 10q33 0 61.5 1t55.5 3q125 6 187.5 -12.5t62.5 -166.5q0 -61 -9.5 -74.5t-21.5 -13.5h-1h-1h-2q-63 2 -109.5 4.5t-89.5 4.5h-1h-3q-23 2 -45 3t-47 1q-16 -18 -28.5 -34.5t-22.5 -33.5 q-6 -6 -11 -14t-12 -17q-8 -14 -18 -29.5t-20 -33.5q-16 -29 -31 -51.5t-27 -42.5q-2 -6 -5 -11.5t-5 -9.5q-16 -27 -32.5 -58.5t-37.5 -74.5q-31 -66 -47 -98.5t-28 -57.5q-2 -2 -3.5 -4t-1.5 -4q-6 -8 -11 -17t-11 -20q23 14 51.5 35t61.5 41q18 10 35.5 21.5t33.5 19.5 q49 29 94 47.5t80 18.5q39 0 57.5 -16.5t24.5 -35.5q4 -10 5 -19t1 -17q0 -51 -19.5 -126t-47.5 -155q-12 -35 -26.5 -69.5t-29.5 -67.5q-25 -55 -47 -102.5t-41 -77.5q-8 -14 -17 -28.5t-19 -29.5q-29 -43 -65 -83t-71 -70q-35 -29 -66.5 -46.5t-60.5 -17.5q-4 0 -10 1 t-10 3q-18 4 -35.5 17.5t-28.5 27.5q-4 6 -6 11.5t-2 11.5q0 2 1 4t3 4q4 4 13.5 7t23.5 5q8 2 17.5 5.5t19.5 7.5q41 18 81 58t71 85q6 8 10 15l8 14q12 18 25.5 42.5t27.5 51.5t27.5 54.5t26.5 55.5q23 53 37 103.5t14 87.5q0 41 -7.5 59.5t-39.5 18.5q-47 0 -113 -21.5 t-154 -87.5q-125 -291 -165.5 -380t-65.5 -97h-5h-5q-41 0 -75 51t-54 113q-10 37 -17.5 71.5t-7.5 59.5q0 20 5 58t16 81q10 39 23 75t30 56q6 8 22.5 22.5t38.5 30.5q8 6 17.5 12.5t17.5 10.5q25 16 48.5 27.5t37.5 11.5q4 0 6 -2t2 -6v-3v-3q-4 -12 -15 -27.5t-26 -46.5 q-2 -2 -3 -4t-1 -6q-2 0 -2 -1v-3q-2 -2 -4 -6.5t-4 -10.5q0 -4 -3 -9t-5 -11q0 -2 -1 -5.5t-3 -5.5q-2 -6 -5 -12t-8 -14q-8 -23 -16 -55.5t-6 -71.5q0 -33 8 -72t29 -80q33 74 50 113t32 70q0 2 1 3t1 3q4 8 8 17t8 20q31 70 59.5 134t57.5 126q14 33 29.5 65.5t31.5 65.5 q43 90 92.5 183t112.5 198q-39 -2 -83 -6.5t-89 -12.5q-82 -12 -158.5 -32.5t-126.5 -41.5q-29 -14 -45 -26t-16 -23q0 -4 3 -8t9 -10q6 -4 15.5 -10t19.5 -11q10 -4 19.5 -7t15.5 -5q-4 -2 -9 -3t-10 -1q-6 -2 -12 -3t-12 -3q-23 -6 -44.5 -9t-41.5 -3h-21.5h-23.5 q-4 0 -8.5 -1t-6.5 -1q-55 0 -101 6t-44 45z" />
<glyph unicode="&#xa9;" horiz-adv-x="1689" d="M246 760v12v12q8 291 180 535t461 244q287 0 461 -244t182 -535v-12v-12v-23.5t-2 -21.5q-12 -285 -186.5 -520.5t-454.5 -235.5h-8.5h-10.5q-233 8 -427.5 225t-194.5 576zM338 760q0 -309 164 -499.5t362 -203.5h11.5h11.5h8h10q199 8 364 198.5t165 504.5 q0 319 -169 509.5t-372 192.5h-3h-3h-16.5t-18.5 -2q-193 -16 -353.5 -204.5t-160.5 -495.5zM498 762q0 219 119.5 351t293.5 132q35 0 64 -7t51 -15q14 -6 24.5 -11.5t16.5 -9.5q6 -2 10 -4l8 -4t8.5 -3t10.5 -1q16 0 24.5 15.5t10.5 33.5h39l10 -305l-45 -2q0 4 -8.5 39 t-28.5 73q-23 43 -60.5 79t-99.5 36q-106 0 -162.5 -115.5t-56.5 -279.5q0 -156 41 -233.5t90 -108.5q35 -20 66.5 -25.5t48.5 -5.5q66 0 116 40t87 120l47 -31q-39 -115 -125 -185.5t-201 -70.5q-178 0 -288.5 147.5t-110.5 350.5z" />
<glyph unicode="&#xad;" horiz-adv-x="966" d="M205 328q0 4 2 8l4 8l43 86q4 10 10 13t15 3h4h4h3h1h420q14 0 20 -6t6 -16v-7t-4 -7l-45 -88q-2 -8 -11 -11.5t-26 -3.5h-420q-10 0 -18 5t-8 16z" />
<glyph unicode="&#xae;" horiz-adv-x="1228" d="M172 1057q0 6 1 12t3 12l45 136q27 82 152 133t268 80q123 25 234.5 35t160.5 10q33 0 61.5 1t55.5 3q125 6 187.5 -12.5t62.5 -166.5q0 -61 -9.5 -74.5t-21.5 -13.5h-1h-1h-2q-63 2 -109.5 4.5t-89.5 4.5h-1h-3q-23 2 -45 3t-47 1q-16 -18 -28.5 -34.5t-22.5 -33.5 q-6 -6 -11 -14t-12 -17q-8 -14 -18 -29.5t-20 -33.5q-16 -29 -31 -51.5t-27 -42.5q-2 -6 -5 -11.5t-5 -9.5q-16 -27 -32.5 -58.5t-37.5 -74.5q-31 -66 -47 -98.5t-28 -57.5q-2 -2 -3.5 -4t-1.5 -4q-6 -8 -11 -17t-11 -20q18 12 57 36t86 50q16 8 31.5 16.5t30.5 16.5 q55 27 106 46.5t82 19.5q29 0 40 -25.5t11 -66.5q0 -29 -10 -55.5t-22 -49.5q-4 -8 -8.5 -15t-8.5 -14q-12 -20 -26.5 -42.5t-32.5 -49.5q-49 -70 -81 -129t-32 -112q0 -37 16.5 -53.5t47.5 -16.5q14 0 32.5 8t36.5 19q12 8 25.5 18t23.5 18q14 12 25.5 23.5l19.5 19.5 q12 16 25.5 27.5t28.5 11.5q8 0 12 -6t4 -22q0 -29 -25.5 -67t-66.5 -77q-27 -27 -57.5 -52t-63.5 -48q-61 -43 -116.5 -72.5t-80.5 -29.5q-43 0 -64.5 21.5t-21.5 70.5q0 76 30 145.5t67 130.5q2 4 5 9.5t5 9.5l16.5 27.5l22.5 37.5q0 2 1 3l1 1q12 18 21.5 36t15.5 30 q10 23 15 41t5 33q0 25 -13 37t-38 12q-29 0 -89 -18.5t-155 -90.5l-198 -440q-8 -14 -17.5 -25.5t-25.5 -11.5q-12 0 -20.5 3t-16.5 9l-3 3l-3 3q-84 94 -97.5 166t-13.5 103v4v4q0 72 16.5 132t34.5 99q6 12 12.5 21.5t10.5 17.5q6 8 22.5 22.5t36.5 28.5q8 8 17.5 14.5 t19.5 12.5q25 16 49.5 26.5t36.5 10.5h1h3t3 -1l1 -1v-3v-1v-3v-3q0 -4 -3 -10.5t-11 -14.5q-2 -4 -5 -7t-5 -7q-4 -4 -6 -10.5t-7 -12.5q-2 -4 -4 -9t-4 -11q0 -2 -1 -4t-1 -4l-1 -2l-1 -3q-2 -6 -5 -12t-7 -16q-2 -6 -6 -14.5t-6 -16.5q-12 -29 -20.5 -62.5t-8.5 -74.5 q0 -33 8 -72t29 -80q33 74 50 113t32 70q0 2 1 3t1 3q4 8 8 17t8 20q31 70 59.5 134t57.5 126q14 33 29.5 65.5t31.5 65.5q43 90 92.5 183t112.5 198q-47 -2 -113.5 -9.5t-138.5 -23.5q-76 -16 -148.5 -43t-117.5 -66l82 -51q-4 -2 -9 -3t-10 -1q-6 -2 -12 -3t-12 -3 q-23 -6 -44.5 -9t-41.5 -3h-21.5h-23.5q-4 0 -8.5 -1t-6.5 -1q-55 0 -101 6t-44 45z" />
<glyph unicode="&#xaf;" horiz-adv-x="593" d="M127 834q0 37 14.5 78.5t36.5 84.5q23 39 49.5 78t53.5 74q35 43 66.5 78t53.5 57q33 35 72 67.5t80 59.5q47 31 93 50.5t83 19.5h5h7q63 -6 116.5 -59.5t60.5 -116.5v-7.5v-5.5q0 -35 -6.5 -74.5t-16.5 -80.5q-8 -39 -19.5 -77t-23.5 -71q-29 -84 -91.5 -234.5 t-144.5 -316.5q-16 -31 -32.5 -61.5t-32.5 -61.5q-8 -14 -14.5 -26.5t-12.5 -22.5l-3 -6t-1 -4q-6 -8 -10 -18.5t-10 -22.5v-6v-8q0 -16 -5.5 -40t-15.5 -48q-10 -31 -25.5 -58.5t-31.5 -42.5q-6 -6 -12.5 -9t-12.5 -3q-4 0 -8 1t-8 3q-18 8 -35.5 29.5t-23.5 44.5 q0 6 -1.5 11t-1.5 11q0 33 27 78t60 98q2 4 3 6.5t3 4.5q31 51 68.5 119.5t76.5 148.5q20 41 40.5 86t41.5 90q63 143 108.5 276.5t45.5 204.5q0 37 -13.5 54.5t-42.5 17.5q-37 0 -86 -32.5t-100 -82.5q-31 -33 -62.5 -68.5t-60.5 -72.5q-39 -51 -69.5 -99t-47.5 -85 q6 2 14.5 3t20.5 1q16 0 35.5 -3t46.5 -14q-70 -53 -105.5 -97t-60.5 -44q-10 0 -25.5 6t-31.5 17q-31 18 -54.5 50t-23.5 71zM424 1663q0 76 41 131t88 64q4 2 8 2h8h7.5t5.5 -2q20 -6 35.5 -29t15.5 -72q0 -63 -31 -118.5t-78 -71.5q-4 -2 -11 -3t-13 -1h-5h-8h-7t-5 2 q-20 6 -35.5 28.5t-15.5 69.5zM811 1663q0 76 41 131t88 64q4 2 8 2h8t9.5 -1t9.5 -4q16 -8 30.5 -30.5t14.5 -67.5q0 -63 -31 -118.5t-78 -71.5q-4 -2 -11 -3t-13 -1h-5h-8h-7t-5 2q-20 6 -35.5 28.5t-15.5 69.5z" />
<glyph unicode="&#xb1;" />
<glyph unicode="&#xb4;" horiz-adv-x="587" d="M0 76q0 29 33 98.5t73 157.5q10 25 22.5 51.5t23.5 54.5q25 63 42 124t17 112q0 8 -2 11t-4 5q-2 0 -3 1t-1 3q-2 0 -3 1t-1 3t-1 5.5t-1 5.5q0 4 -1 9t-1 11q0 10 1 19.5t3 17.5q10 35 22 48t43 13q16 0 31.5 -2t30.5 -6q4 0 7 -1t5 -1q4 -2 9 -3t9 -1q6 -2 13.5 -2 t13.5 -2q10 0 19.5 -1t19.5 -1q12 -2 23.5 -2t23.5 -2h1h1q16 -2 34.5 -2t37.5 4q29 6 55.5 28.5t44.5 71.5q0 2 1 3t1 3q2 2 3 5.5t1 7.5q6 10 13.5 20t19.5 10t16 -10t6 -20v-11.5v-9.5v-3v-1q0 -20 -5 -58t-17 -81q-18 -57 -57 -105.5t-107 -48.5q-18 0 -35.5 5t-34.5 12 q-12 4 -23 8t-22 6q-8 2 -15 2h-15q-33 0 -43.5 -20.5t-18.5 -53.5q0 -4 -1 -7t-1 -7q-10 -49 -24.5 -110.5t-30.5 -127.5q-23 -86 -50.5 -165.5t-54.5 -129.5q-14 -20 -27.5 -33.5t-27.5 -13.5q-2 0 -7 2t-11 7q-4 4 -8.5 8t-8.5 8l-8 8l-8 8q-16 18 -28.5 36t-12.5 28z " />
<glyph unicode="&#xb6;" horiz-adv-x="1228" d="M0 -172q0 72 30.5 105.5t69.5 37.5h5.5h5.5q31 0 47 -15t26 -34q4 -10 7.5 -18t5.5 -15q2 -4 3 -8t3 -8q0 -2 1 -4t1 -4q4 -12 8 -21.5t8 -9.5q27 0 92.5 129t266.5 635q-117 33 -189 143.5t-72 290.5q0 33 8.5 73t24.5 79q45 100 159 184t323 84h512h8h6h23.5t9.5 -8 t-4.5 -20.5t-10.5 -24.5q0 -2 -1 -5t-3 -5q-14 -27 -35.5 -50.5t-74.5 -23.5h-240q-16 -29 -30.5 -56.5t-26.5 -54.5q-8 -14 -15.5 -28.5t-13.5 -28.5q-47 -98 -101.5 -227t-148.5 -361q-106 -256 -184 -449.5t-150 -310.5q-45 -76 -94 -115.5t-104 -39.5q-68 0 -103 40 t-47 89q-2 14 -4 28.5t-2 26.5z" />
<glyph unicode="&#xe3;" horiz-adv-x="499" d="M0 375v3v3q0 18 23.5 57t58.5 82q20 25 44 49.5t46 42.5q4 4 7 6.5t5 4.5q59 49 111.5 76.5t85.5 27.5q14 0 24.5 -6t14.5 -19l24 -57q4 -6 5.5 -12t1.5 -15q0 -23 -12.5 -49t-28.5 -53q-8 -10 -16.5 -21.5t-16.5 -21.5q-2 -2 -3 -4t-3 -4q-8 -10 -15.5 -21.5 t-15.5 -25.5q-18 -27 -33.5 -58.5t-25.5 -64.5q-4 -16 -7.5 -31.5t-3.5 -32.5q0 -37 15.5 -48t33.5 -13h8.5h8.5q12 0 24.5 6t26.5 17q10 6 19.5 14t19.5 16l19.5 19.5t15.5 17.5q14 14 21 19.5t12 5.5q2 0 4 -2t2 -4v-3v-2q0 -12 -16.5 -38.5t-37.5 -57.5q-4 -4 -7 -9 t-7 -9q-23 -29 -41 -52.5t-24 -29.5q-10 -10 -25.5 -27.5t-36.5 -36.5q-27 -23 -59.5 -44t-67.5 -29q-6 0 -12 -1t-12 -1q-45 0 -63.5 37.5t-18.5 84.5q0 78 53 169.5t145 207.5q4 6 8.5 12.5t10.5 12.5q6 8 12 19.5t12 21.5q2 8 4 15t2 16q0 10 -4 14t-10 6h-5h-5 q-18 0 -54 -12.5t-102 -65.5q-55 -45 -76.5 -73.5t-35.5 -36.5q-2 0 -5.5 -1t-5.5 -1q-8 0 -11 3t-5 7z" />
<glyph unicode="&#xe4;" horiz-adv-x="749" d="M0 281q0 35 15.5 72.5t41.5 76.5q51 74 133 141.5t170 116.5q63 37 126 57.5t112 20.5q6 0 14.5 -2t16.5 -6q23 -12 42 -56.5t19 -140.5q0 -31 -4 -45t-10 -24q0 -2 -1 -4l-1 -1l-246 -483l281 162q2 0 3 1t5 3t8 3t10 1t10.5 -4t4.5 -14q0 -8 -3.5 -14.5t-5.5 -10.5 t-4 -5t-4 -3l-352 -232l-37 -86q-8 -16 -16.5 -34.5t-16.5 -38.5q-20 -45 -39.5 -90t-40.5 -84q-39 -76 -75.5 -126t-73.5 -50q-25 0 -37 32.5t-16 69.5q-2 18 -3 35.5t-1 31.5q0 205 65.5 277t147.5 106q8 2 13 5.5t11 5.5l1 1t3 1q8 4 18.5 10t26.5 14q29 68 62 139.5 t69 147.5q-125 -135 -190.5 -193.5t-106.5 -58.5q-10 0 -21 7t-24 20q-20 23 -40.5 59.5t-34.5 75.5q-10 31 -17.5 60.5t-7.5 52.5zM78 -469q27 4 45 21.5t35 48.5q14 29 30.5 67.5t38.5 87.5l43 101q-88 -33 -132 -103.5t-56 -150.5q-2 -18 -3 -36t-1 -36zM123 211 q0 -8 2 -17.5t6 -13.5q2 -2 5 -4t5 -2q2 -2 5.5 -2h5.5q14 0 76.5 44t136.5 106q20 18 41.5 37.5t42.5 37.5q55 53 93 103.5t38 83.5q0 2 -1 4t-1 4q-2 4 -6.5 7t-12.5 3q-23 0 -64.5 -17.5t-88.5 -43.5q-18 -10 -36 -20.5t-34 -22.5q-20 -12 -37.5 -25.5t-32.5 -26.5 q-2 -2 -5 -4t-5 -6q-51 -41 -92 -93t-41 -132z" />
<glyph unicode="&#xeb;" horiz-adv-x="714" d="M0 106v6.5v8.5q0 23 4 48.5t12 51.5q10 41 27.5 80t36.5 64q10 16 21.5 25t21.5 9t13 -4t3 -8v-3v-1q0 -6 -2 -11t-6 -14q-12 -39 -14 -68.5t-2 -56.5v-5v-5v-6v-6v-8v-8q2 -12 4 -23.5t6 -11.5q10 0 29.5 23.5t46.5 64.5q80 117 130 175t93 105q2 2 4 3t2 4l11 11t12 11 q6 6 23.5 22.5t37.5 32.5q4 4 9 8.5t9 8.5q23 16 43.5 29.5t30.5 13.5q2 0 4 -1t4 -3q10 -8 17.5 -25.5t13.5 -38.5q2 -12 4 -23.5t2 -19.5t-7 -21.5t-17 -29.5q-2 -2 -3 -4t-3 -4q-6 -12 -13.5 -22.5t-11.5 -16.5q-2 -4 -5 -6t-3 -6q-2 0 -3 -1t-1 -4q-4 -4 -7.5 -11 t-9.5 -17t-10 -17.5t-6 -13.5q-2 -2 -2 -3t-2 -1q0 -2 -1 -4t-3 -4q-10 -16 -19.5 -34.5t-17.5 -37.5q-8 -23 -13.5 -43t-5.5 -37q0 -4 1 -8t1 -8q4 -12 15.5 -23.5t34.5 -11.5q12 0 27.5 8t29.5 21q10 8 21.5 18t21.5 21q10 10 19.5 21t15.5 20q4 4 7 8t7 8q4 2 7 4t7 2 t8.5 -6t4.5 -16t-7.5 -24.5t-23.5 -35.5q-8 -10 -13 -17t-12 -14q-2 -4 -5 -8t-7 -10q-12 -20 -20.5 -30.5t-16.5 -20.5l-1 -1l-1 -1q-2 -2 -4 -5t-4 -5t-4 -3.5t-2 -3.5l-2 -2l-2 -2q-2 -2 -5 -6t-7 -10q-6 -6 -19.5 -23.5t-34.5 -38.5q-16 -16 -34.5 -29.5t-36.5 -21.5 q-8 -6 -18.5 -8t-18.5 -2q-4 0 -10.5 1t-10.5 3q-25 8 -46 44t-21 108q0 43 12 75.5t27 61.5q6 12 12 22.5t10 20.5q6 12 11.5 21.5t9.5 19.5q2 2 3 5t3 5q8 14 17 30.5t24 39.5q-2 -2 -5 -3t-6 -3q-45 -25 -102 -84.5t-174 -214.5q-6 -8 -14.5 -19.5t-16.5 -21.5 q-6 -8 -13 -17.5t-15 -17.5q-12 -14 -25.5 -24.5t-26.5 -10.5q-20 0 -37.5 33t-21.5 73z" />
<glyph unicode="&#xec;" horiz-adv-x="1044" d="M0 143q0 20 5 44t13 49q10 33 24.5 62.5t31.5 53.5q16 25 31.5 41.5t25.5 16.5q6 0 11 -4.5t5 -8.5q0 -6 -1 -12t-3 -12q-2 -8 -5 -16.5t-5 -18.5q-6 -16 -10 -45t-4 -76v-8v-8q2 -14 4 -26.5t6 -12.5q10 0 27.5 25.5t48.5 70.5q61 98 91 138t52 69q2 0 3 1t1 3q4 4 7 8 t8 8q12 14 40.5 46t63.5 69q6 6 12 11t11 12q41 39 76.5 69.5t50.5 30.5q4 0 9 -2t11 -6q10 -8 20.5 -34t10.5 -73q0 -23 -10.5 -44t-22.5 -42q-2 -4 -4 -7t-4 -7q-55 -88 -79 -141.5t-24 -87.5v-21q12 14 20.5 23.5t16.5 17.5v3t2 1q4 6 10.5 13.5t12.5 15.5q20 27 55 66.5 t76 80.5q8 10 16 19.5t19 17.5q57 59 108 103.5t70 44.5q2 0 4 -1t6 -4q10 -6 20.5 -26.5t16.5 -42.5q2 -10 4 -20.5t2 -18.5q0 -23 -9 -39t-22 -33q-4 -4 -8 -9t-6 -9l-3 -3l-3 -3q-10 -12 -21.5 -26.5t-21.5 -31.5q-14 -23 -28.5 -47t-24.5 -49q-8 -23 -14.5 -44t-6.5 -42 q0 -33 10.5 -48t20.5 -20q6 -2 10 -3t8 -1q10 0 21.5 4.5t21.5 12.5q14 10 27.5 22.5t26.5 26.5q12 14 23 28.5t18 24.5q0 2 1 3l3 3q2 6 7 10.5t11 4.5t11 -4.5t5 -14.5q0 -12 -6 -27.5t-16 -29.5q-4 -8 -9 -15.5l-9 -13.5q-6 -8 -12.5 -16t-10.5 -15q-12 -16 -28.5 -36.5 t-34.5 -40.5q-23 -25 -48.5 -47.5t-50.5 -40.5q-23 -16 -45 -25.5t-43 -9.5q-39 0 -62.5 24.5t-23.5 81.5v15.5t2 15.5q6 51 32 104.5t58 114.5q8 12 13.5 21.5t11.5 19.5q6 12 11 24.5t9 26.5q2 4 3 9.5t3 9.5q-82 -66 -134 -121t-87 -100q-106 -125 -144 -171.5t-56 -46.5 q-16 0 -23.5 36t-7.5 87q0 29 18.5 70t51.5 104q47 84 59 127t12 54q0 4 -1 5t-3 -1q-20 -2 -95 -80t-171 -223q-57 -86 -87 -120t-54 -34q-27 0 -46.5 38t-19.5 105z" />
<glyph unicode="&#xf6;" horiz-adv-x="729" d="M0 233q0 41 12.5 96.5t34.5 112.5q33 90 83 170t103 109q10 6 21.5 9t21.5 3q29 0 45.5 -11t20.5 -26q2 -2 2 -4v-4q0 -20 -18.5 -57t-44.5 -76q-20 -27 -42 -52.5t-44 -45.5q-10 -10 -21.5 -19.5t-21.5 -15.5q-2 -2 -5.5 -4t-5.5 -2q-4 -4 -9 -7t-17 -12 q-4 -20 -6.5 -39.5t-2.5 -38.5q0 -39 10.5 -64.5t26.5 -25.5q14 0 37 13.5t47 31.5q8 6 16.5 13.5t16.5 13.5q25 20 43.5 39.5t24.5 28.5l288 360q2 2 4.5 4t4.5 4l5 5t7 6q2 2 5 3t5 1q16 0 24.5 -23.5t12.5 -52.5q2 -10 3 -19.5t1 -17.5v-9v-9q0 -2 -1 -5.5t-1 -7.5 q-2 -4 -3 -7t-3 -5l-148 -199q-4 -4 -8 -11t-8 -13q-14 -25 -26.5 -57.5t-12.5 -71.5q0 -6 1 -16.5t3 -22.5q4 -16 14.5 -30.5t32.5 -14.5q27 0 49.5 13t40.5 28q6 6 11.5 11t9.5 9q35 29 43 36t10 7h1h3q4 -2 7.5 -7t3.5 -21q0 -61 -25 -166t-78 -220q-37 -80 -87 -155.5 t-116 -136.5q-16 -16 -33.5 -24.5t-35.5 -8.5q-12 0 -24.5 4t-24.5 10q-20 45 -28.5 92t-6.5 95q8 55 51 84.5t92 31.5h2h4h4t5 -2h2h2h3h3q-14 -25 -21.5 -51.5t-7.5 -52.5q0 -14 3 -29.5t5 -30.5v-2q43 47 73 107.5t48 124.5q10 37 17.5 71.5t11.5 67.5q-8 -8 -19.5 -18.5 t-25.5 -20.5q-8 -6 -18.5 -12t-20.5 -12q-16 -10 -32.5 -17.5t-29.5 -7.5q-31 0 -45 21.5t-18 44.5q-2 14 -3 25t-1 22q0 18 2 39.5t4 44.5q4 31 10 60.5t12 51.5q-82 -123 -148.5 -196.5t-113.5 -73.5q-8 0 -18 4t-23 16q-20 23 -38.5 75t-18.5 142z" />
<glyph unicode="&#xf7;" horiz-adv-x="557" d="M23 348q0 8 3 21.5t9 29.5q2 4 3 7.5t3 7.5q27 55 33 80.5t6 37.5q0 4 -2 7.5t-4 5.5q0 2 -2 4l-2 2q-6 6 -9.5 12t-3.5 19q0 18 7.5 40.5t17.5 45.5q16 29 35.5 56.5t42.5 49.5q20 20 40.5 33.5t35.5 13.5q8 0 12 -6t4 -16q0 -6 -1 -10.5t-1 -6.5q-2 -2 -2 -3v-1 q-2 -4 -2 -6v-4t1 -6t1 -6q4 -10 12 -17.5t23 -7.5q10 0 23 2t44 8q49 10 74 16.5t41 6.5q12 0 18 -6t11 -13l1 -1t1 -3q10 -18 14 -35.5t4 -31.5q0 -27 -11 -48.5t-24 -39.5q-4 -4 -7 -9.5t-7 -9.5q-12 -14 -29.5 -37.5t-34.5 -50.5q-14 -20 -26.5 -42.5t-22.5 -45.5 q-18 -37 -30.5 -71.5t-12.5 -63.5q0 -43 19.5 -60.5t44.5 -17.5q12 0 29.5 8.5t33.5 22.5q8 6 17.5 13t17.5 14q12 12 22.5 22t18.5 18q4 6 11 11.5t18 5.5q6 0 10 -4t4 -10q2 -2 2 -3.5v-3.5q0 -10 -19.5 -35.5t-43.5 -54.5q-2 -4 -5.5 -7t-5.5 -7q-20 -23 -38.5 -43.5 t-28.5 -30.5q-68 -66 -120 -81t-81 -15q-33 0 -58.5 32.5t-25.5 96.5q0 47 15.5 87t33.5 73q8 14 16.5 26.5t14.5 22.5q6 12 12 20.5t10 16.5q0 2 1.5 3t3.5 3q8 12 18 27.5t31 42.5q41 57 48 77.5t7 22.5q0 18 -19.5 25.5t-41.5 7.5q-84 0 -107.5 -14.5t-34.5 -51.5 q-4 -6 -6 -13t-4 -16q-6 -18 -13 -34.5t-14 -30.5q-25 -45 -46 -61.5t-29 -16.5q-2 0 -3 1t-1 3z" />
<glyph unicode="&#xf8;" horiz-adv-x="1007" d="M0 244q0 16 1 32.5t5 32.5q12 84 51 164t82 139q35 49 68 81t51 38q4 2 9 2h9h12.5t12.5 -2h1h1h1h1q2 0 5 -1t7 -1q10 -2 20.5 -10t10.5 -31t-14.5 -54.5t-38.5 -64.5q-18 -27 -41 -53.5t-47 -46.5q-25 -23 -47.5 -37t-40.5 -20q-8 -51 -10.5 -75t-2.5 -34 q0 -25 10.5 -44t22.5 -19t35 16t45 41q6 4 10 8t11 8q20 20 37.5 39t25.5 29q12 16 20.5 25.5t14.5 17.5l1 1t3 1q4 6 8 10l10 10q10 12 18.5 21.5t14.5 17.5q2 0 3 1t1 3q16 18 37 46t66 90q55 76 81.5 110.5t41.5 34.5q4 0 7 -1t7 -3q12 -10 23.5 -28.5t11.5 -41.5 q0 -25 -5 -42t-14 -33q-8 -12 -19 -24.5t-26 -29.5q-8 -10 -16 -19t-17 -20q-63 -76 -106 -144.5t-43 -107.5q0 -4 1 -8t1 -8q2 -10 8 -20.5t15 -10.5q10 0 28.5 12.5t38.5 28.5q4 2 8 6.5t9 6.5q14 14 27 25t22 20l6 6l4 4v2q6 4 11 9t13 16q6 6 10.5 10t8.5 8l1 1t3 1 q8 10 19.5 23.5t35.5 40.5q10 10 18.5 19t14.5 17l3 3t3 4q12 14 25.5 32.5t36.5 48.5q41 57 51 74t12 25l1 1l1 1q2 6 7 13t22 28q2 2 3 4t3 4q6 6 12 10t15 4q20 0 35.5 -22.5t19.5 -50.5v-7.5v-7.5q0 -16 -9 -31.5t-20 -29.5q-2 -2 -4 -5t-4 -5q-14 -18 -36.5 -46 t-47.5 -61q-16 -23 -32.5 -47.5t-30.5 -48.5q-16 -33 -27.5 -63.5t-11.5 -59.5q0 -37 12 -57.5t27 -28.5q8 -4 16 -6t14 -2q29 0 47.5 18.5t34.5 42.5l1 1t1 3q16 20 32.5 38t41.5 18q10 0 17.5 -2.5t7.5 -12.5q0 -16 -26 -59t-62 -90q-23 -27 -45.5 -51.5t-47.5 -47.5 q-31 -25 -59.5 -41t-52.5 -16q-8 0 -20.5 2t-24.5 8q-20 10 -38 38t-18 89q0 14 2 35t7 43q2 12 5 24.5t5 24.5q0 4 1 9.5t3 9.5q-12 -20 -28.5 -46t-35.5 -51q-16 -25 -34.5 -47t-38.5 -41q-25 -25 -49.5 -41t-44.5 -16q-4 0 -9.5 1t-9.5 3q-29 12 -52.5 59.5t-23.5 118.5 v15.5v15.5q-78 -125 -125 -169t-80 -44t-61.5 55.5t-38.5 122.5q-4 16 -5 32.5t-1 33.5z" />
<glyph unicode="&#xfc;" horiz-adv-x="565" d="M0 471q0 12 9 19.5t26 13.5q10 4 24.5 9t28.5 13q12 6 22.5 13.5t22.5 15.5q27 20 55.5 45t63.5 59q29 29 43 43.5t27 26.5l1 1t3 1q2 4 5 7l7 7q29 35 43 47.5t20 12.5t14.5 -3t16.5 -9q14 -12 26.5 -39t20.5 -74q-82 -61 -121 -96t-59 -64l-12 -16t-11 -19 q-6 -8 -11 -18t-11 -23q-6 -10 -11 -20t-12 -21q-16 -33 -30.5 -75.5t-14.5 -106.5q0 -43 6.5 -64.5t14.5 -29.5q4 -4 8 -5t6 -1q6 0 12.5 3t14.5 9t16 16.5t15 18.5q0 4 1 6t3 4q-2 8 -3 16.5t-1 16.5q-2 6 -2.5 14t-0.5 17q0 70 30 125t65 82q14 12 28.5 18t26.5 6 q4 0 10 -2t15 -6q10 -8 20 -27.5t10 -56.5q0 -14 -1 -28.5t-5 -28.5q-6 -39 -20.5 -75t-32.5 -65q10 -8 20.5 -12t18.5 -4q16 0 28.5 8t22.5 19q4 4 8 9t6 9l3 3t1 3q4 6 10.5 10t12.5 4h3t1 -2q2 0 3 -2t3 -2q0 -2 1 -3l1 -1v-5v-7v-7v-9q-2 -8 -5 -17.5t-7 -17.5 q-16 -37 -44 -68t-63 -31h-3h-3q-16 0 -39.5 3.5t-48.5 27.5q-6 -6 -16 -18.5t-25 -24.5q-10 -8 -21 -16t-22 -17q-12 -6 -24.5 -11t-22.5 -5q-4 0 -9 1t-9 3q-39 16 -72 89t-33 165q0 37 3 69.5t14 63.5q4 16 10 32.5t14 35.5q-4 -2 -10 -3t-14 -3t-17.5 -4.5t-19.5 -4.5 q-16 -2 -31.5 -4t-26.5 -2q-8 0 -14 6.5t-6 26.5z" />
<glyph unicode="&#xfe;" horiz-adv-x="876" d="M0 193q0 86 15.5 136t33.5 81l8 12t9 12q2 2 3 5t3 5l1 1l1 1q2 4 5 10.5t9 16.5q8 14 20.5 35.5t49.5 73.5q2 4 5 7l7 7q12 16 31.5 31.5t50.5 17.5h9h9q2 0 8.5 -1t12.5 -3t13 -10t7 -25q0 -2 -1 -6t-1 -6q-2 -8 -6 -15.5t-10 -15.5q-2 -4 -5 -7t-5 -7l-1 -1l-1 -1 q-2 -4 -6.5 -9.5t-10.5 -13.5q-4 -6 -7 -10t-5 -8q-2 -2 -4 -5t-4 -5q-2 -4 -5 -7.5t-6 -7.5q-4 -4 -7 -10t-9 -14q-2 -4 -5 -7.5t-5 -7.5q-4 -6 -9 -14t-16 -20q-45 -57 -56 -81t-11 -34q0 -6 1 -16.5t3 -20.5q2 -8 4 -17.5t4 -15.5q37 49 85 107.5t134 148.5 q14 23 34.5 49.5t45.5 53.5q29 33 62.5 63.5t68.5 52.5q35 25 68.5 40.5t62.5 15.5q25 0 47.5 -13.5t34.5 -27.5q4 -6 6 -12.5t2 -10.5v-15t-2 -16q0 -2 -1 -3l-1 -1q-2 -2 -2 -4v-4t-1 -4t-1 -4q23 -8 34 -24.5t15 -34.5q4 -14 4 -27.5v-22.5v-3v-1q0 -18 -2 -36.5 t-6 -34.5q-2 -8 -4 -18.5t-4 -18.5q-10 -37 -23.5 -74t-29.5 -70q-2 -4 -3 -8t-1 -8q2 -14 12 -24.5t24 -10.5q12 0 22.5 6.5t20.5 12.5q8 6 15.5 12t13.5 6q10 0 14.5 -4t4.5 -10q0 -10 -8.5 -23.5t-24.5 -29.5q-25 -23 -63 -44.5t-79 -23.5h-12h-12q-43 -66 -96.5 -107 t-118.5 -41q-72 0 -108 53.5t-48 116.5q-8 35 -10 67t-2 56v39l-3 -3l-3 -3v-1v-1q-6 -6 -13.5 -13t-21.5 -24q-8 -8 -15.5 -16t-13.5 -17l-8 -12t-10 -12q-14 -20 -31.5 -50t-44.5 -79q-10 -18 -20.5 -34.5t-18.5 -29.5q-6 -6 -13 -10t-13 -4t-12.5 2t-14.5 8 q-14 14 -26.5 54t-12.5 129zM397 238q0 -80 18.5 -106t41.5 -30q6 -2 11 -2h11q29 0 65 19.5t79 66.5q-8 23 -13.5 44.5t-5.5 43.5q2 31 8 66t19 74q18 59 29.5 85.5t11.5 41.5q0 10 -4 14t-11 6h-3h-3q-16 0 -36.5 -14.5t-43.5 -34.5q-10 -8 -20 -18.5t-21 -20.5 q-14 -16 -27.5 -32.5t-23.5 -28.5q-6 -8 -11 -15.5t-11 -15.5q-23 -31 -41.5 -66.5t-18.5 -76.5z" />
<glyph unicode="&#x100;" />
<glyph unicode="&#x300;" />
<glyph unicode="&#x401;" horiz-adv-x="1122" d="M35 137q0 47 24.5 104.5t73.5 116.5q66 78 173.5 151t258.5 122q31 10 50.5 16t33.5 10l7 3.5t8 3.5q10 4 19 8t22 10v16q-25 4 -43.5 6.5t-34.5 4.5h-12.5t-12.5 2q-8 0 -17.5 1t-19.5 1q-27 2 -56.5 4t-62.5 8q-74 14 -136 70.5t-62 197.5q0 188 227 332.5t508 144.5 q104 0 156.5 -17t89.5 -58v-160q-4 -8 -8 -15.5t-11 -13.5q-12 -10 -34.5 -23.5t-63.5 -33.5q-35 -18 -56.5 -31.5t-39.5 -25.5q-4 -2 -8 -5.5t-9 -7.5l-12 -8t-12 -10q-6 -4 -11.5 -8t-9.5 -9l-1 -1t-3 -1q-6 -4 -14 -9t-18 -13q4 16 16 49t47 68q4 6 11 12l14 12 q-6 4 -12.5 7t-12.5 6q-23 8 -46.5 12t-51.5 4q-168 0 -296 -71.5t-163 -157.5q-4 -12 -7 -25.5t-3 -26.5q0 -8 1 -15t5 -15q14 -31 82.5 -57.5t245.5 -26.5q20 0 38.5 1t38.5 3q8 0 18.5 1t18.5 1q10 0 20.5 1t22.5 1h20.5t20.5 -2q4 0 11.5 -1t13.5 -5q12 -4 22.5 -14.5 t10.5 -30.5t-9.5 -43t-25.5 -48q-6 -8 -10.5 -16t-8.5 -14q-12 -16 -30.5 -23.5t-59.5 -9.5q-188 -8 -334.5 -88t-226.5 -174q-41 -47 -62.5 -92t-21.5 -82q0 -45 80 -65.5t186 -20.5q86 0 163 26.5t153 73.5q63 37 126.5 87t133.5 108q-14 -205 -116.5 -315.5 t-223.5 -164.5q-100 -45 -191.5 -57t-128.5 -12q-168 0 -265 54t-97 263zM547 1677q0 76 39 130.5t84 64.5q6 0 11 1t9 1h5h5q20 -4 38 -27.5t18 -74.5q0 -63 -31 -119t-78 -72q-8 -2 -18.5 -3t-20.5 -1q-4 0 -8 1t-8 1q-16 8 -30.5 30.5t-14.5 67.5zM934 1677 q0 76 41 131.5t88 63.5q4 2 8 2h8t9.5 -1t9.5 -3q16 -8 30.5 -30.5t14.5 -67.5q0 -63 -31 -119t-78 -72q-4 -2 -11 -3t-13 -1h-5.5h-7.5h-7t-5 2q-20 6 -35.5 28.5t-15.5 69.5z" />
<glyph unicode="&#x404;" horiz-adv-x="1134" d="M127 37q0 86 15.5 176t43.5 180q55 182 148.5 357.5t193.5 306.5q27 37 64 82t80 92q47 49 98 98t104 86q51 37 100.5 58.5t94.5 21.5q66 0 118 -82t52 -190q0 -29 -6 -66t-16 -74q-18 -74 -50 -136t-67 -68h-3h-3q-6 0 -13.5 2t-15.5 6q-20 8 -37.5 27.5t-26.5 39.5 q0 4 -1 9.5t-1 9.5q0 12 7.5 31.5t25.5 64.5q27 63 37 97t14 63q0 6 1 11t3 11q0 4 1.5 9.5t1.5 11.5q2 8 3 19.5t1 23.5v3v3q0 18 -7.5 33.5t-29.5 15.5q-20 0 -50 -17.5t-59 -41.5q-14 -10 -26.5 -22.5l-24.5 -24.5q-23 -20 -42 -42t-34 -36q-23 -25 -40 -44.5t-31 -37.5 q-4 -6 -8.5 -11.5t-8.5 -11.5q-20 -25 -41.5 -57.5t-54.5 -85.5q-4 -8 -9 -15.5t-10 -13.5q-25 -37 -47 -75.5t-45 -83.5q-14 -27 -27.5 -56.5t-27.5 -64.5q41 18 89 33.5t97 25.5q16 2 33 5t33 5q33 4 64.5 4t60.5 -4q10 -2 25.5 -5t31.5 -7q29 -8 53.5 -21.5t24.5 -33.5 q0 -10 -5 -30.5t-13 -43.5q-10 -27 -24.5 -49.5t-29.5 -30.5q-2 0 -5 -1t-5 -1q-6 0 -12 1t-12 1q-12 4 -26.5 8t-33.5 11q-27 6 -69.5 12t-112.5 6q-63 0 -118.5 -5t-100.5 -15q-33 -98 -51.5 -179.5t-18.5 -158.5q0 -25 1 -55.5t7 -61.5q12 -63 51 -117.5t132 -54.5 q16 0 34.5 2t34.5 8q90 23 177 93.5t159 150.5q49 53 89 105.5t67 88.5q23 31 34 43.5t19 12.5t12 -6.5t4 -16.5q0 -33 -64.5 -132t-162.5 -212q-59 -66 -127 -129t-137 -115q-70 -49 -136.5 -79.5t-125.5 -30.5h-5h-8q-102 6 -188 102t-86 285z" />
<glyph unicode="&#x406;" horiz-adv-x="813" d="M127 821q0 35 13.5 76t35.5 82q14 29 31.5 57.5t36.5 55.5q16 23 30.5 44t28.5 40q18 25 41 51t49 55q35 35 73 68.5t79 62.5q43 29 84 47.5t78 18.5q10 0 20 -1t21 -3q63 -12 116.5 -60.5t53.5 -118.5q0 -39 -19.5 -151.5t-118.5 -349.5q-20 -47 -51 -117t-65 -141 q-6 -12 -12.5 -24.5t-10.5 -23.5q-25 -51 -48.5 -97t-43.5 -83q-8 -14 -13.5 -24.5t-11.5 -20.5v-2q-6 -10 -11 -20.5t-13 -26.5q2 -2 2 -6v-8q0 -16 -6.5 -40t-14.5 -48q-12 -29 -25.5 -55.5t-27.5 -41.5q-8 -8 -15 -12t-14 -4q-4 0 -8 1t-8 3q-18 8 -35.5 29.5t-23.5 44.5 q0 6 -1 11t-1 11q0 33 26.5 78t59.5 98q2 4 3 6.5t3 4.5q31 51 69.5 121.5t77.5 152.5q20 41 40 84t38 86q66 143 111 276.5t45 204.5q0 37 -13.5 54.5t-42.5 17.5q-37 0 -86 -32.5t-100 -84.5q-33 -31 -64.5 -66.5t-60.5 -72.5q-39 -51 -69.5 -99t-47.5 -85q6 2 15.5 3 t21.5 1q16 0 35.5 -3t46.5 -14q-70 -53 -106.5 -97t-59.5 -44q-12 0 -26.5 6t-30.5 17q-18 12 -36.5 30.5t-29.5 36.5q-6 10 -10 20.5t-4 20.5z" />
<glyph unicode="&#x410;" horiz-adv-x="1157" d="M-121 -88q0 20 10.5 49t26.5 57q4 10 10 21.5t11 21.5q12 20 22 38t18 30t15.5 22.5t11.5 20.5q2 4 5 8t7 8q6 10 16.5 21.5t22.5 23.5h70l203 273l-131 -19q-4 0 -7.5 -1t-7.5 -1q-6 -2 -15 -3t-28 -1h-8t-8 2q-8 2 -15.5 9.5t-7.5 23.5q0 8 9.5 28.5t48.5 90.5 q4 8 9 16t9 17q29 47 71 77.5t159 36.5l4 -51l86 10q45 66 106.5 143t128.5 156l74 82t74 80q94 98 184 179t158 124q20 -14 28 -33.5t11 -37.5q2 -8 2 -15.5v-15.5v-36t-2 -21q-2 -4 -3.5 -8.5t-3.5 -8.5l-219 -534l103 14q6 2 12 2h8q10 0 14.5 -5t4.5 -22v-11t-2 -11 q-2 -10 -5.5 -21.5t-9.5 -23.5q-2 -12 -8 -27.5t-12 -38.5q-2 -12 -5.5 -23.5t-5.5 -19.5q-10 -49 -39.5 -68.5t-146.5 -21.5q-61 -145 -82.5 -200.5t-21.5 -81.5q0 -14 5 -21.5t13 -11.5q2 0 5 -1t5 -1q23 0 41.5 15t36.5 32q2 4 4 6l4 4q39 43 50.5 56.5t17.5 13.5 q8 0 12 -3t4 -10q0 -12 -18.5 -40.5t-42.5 -61.5q-4 -4 -7 -8t-5 -8q-23 -31 -42.5 -54.5t-27.5 -33.5q-16 -18 -31.5 -35t-30.5 -31q-20 -18 -42.5 -30.5t-51.5 -12.5h-12t-12 2q-23 4 -43.5 19.5t-28.5 50.5q-2 10 -3 20t-1 21v12t2 14q0 6 1 12.5t1 12.5q4 27 9 47t12 41 q6 18 15 37.5t19 44.5l80 184l-340 -4l-362 -481q-8 -10 -26.5 -26.5t-41.5 -37.5q-6 -4 -11 -9t-11 -9q-23 -18 -44.5 -33.5t-35.5 -19.5q-4 -2 -7 -2h-8h-3t-3 2q-4 2 -4 6v8zM600 750l264 30l217 516q-53 -47 -115.5 -109.5t-127.5 -133.5q-63 -70 -125 -147t-113 -156z " />
<glyph unicode="&#x411;" horiz-adv-x="1073" d="M172 553q23 55 44.5 88t37.5 51q18 10 35.5 18.5t34.5 14.5l20 8t21 8q14 4 30.5 10.5t36.5 12.5q137 223 232.5 292.5t154.5 69.5q12 0 24.5 -2t20.5 -6q-86 -74 -152.5 -149.5t-119.5 -163.5q25 6 55.5 9t63.5 7q20 0 41.5 1t40.5 1q12 0 27.5 -2t29.5 -6 q18 -4 34.5 -10t30.5 -12q8 -4 15.5 -7.5t13.5 -7.5q25 -14 40 -31.5t24 -33.5q12 -23 14 -45.5t2 -40.5q0 -129 -25.5 -185.5t-66.5 -99.5l-18.5 -18.5l-20.5 -20.5l-21.5 -21.5l-17.5 -17.5q-2 -2 -4 -3t-2 -3q-14 -12 -30.5 -26.5t-45.5 -36.5q-4 -2 -7 -5.5t-7 -5.5v-1 v-1q-6 -4 -12.5 -9t-18.5 -15q-135 -109 -195.5 -133.5t-89.5 -24.5q-18 0 -39.5 8t-44.5 25q-53 35 -97 103.5t-44 154.5q0 55 14.5 106.5t38.5 100.5q16 33 38 66.5t44 68.5q-55 -16 -99 -37t-81 -43zM229 994v14q0 154 82 229.5t221 132.5q66 27 161 50.5t196 39.5 q61 10 120.5 15.5t112.5 5.5q31 0 58.5 -2t50.5 -6q23 -51 34 -83t19 -61q2 -6 3 -11t3 -11q0 -2 1 -5.5t1 -5.5q-61 4 -150 -2t-184 -18q-84 -14 -165.5 -32.5t-141.5 -41.5q-57 -20 -102 -51t-45 -86q0 -6 1 -13.5t3 -15.5l-197 -80q-27 -10 -37 -13t-16 -3 q-14 0 -19.5 12.5t-7.5 26.5q-2 8 -2 15zM420 328q0 -55 27.5 -92t60.5 -37q20 0 41.5 9t44.5 21q2 0 5 1t5 3q8 4 14.5 7.5t12.5 5.5q2 2 4 3l2 1q10 6 21.5 13t29.5 20l7 7t7 5l2 1l3 1q6 4 13 9t17 11q6 4 12.5 7.5t10.5 7.5q2 2 4 3t4 3q10 6 20.5 15t26.5 24 q8 6 18.5 15t20.5 22q16 16 30.5 37.5t20.5 42.5q0 4 1 9t1 9t-1 9t-1 11q-16 51 -111.5 91.5t-285.5 27.5q-49 -106 -68.5 -183t-19.5 -140z" />
<glyph unicode="&#x412;" horiz-adv-x="1204" d="M172 1024q0 29 14.5 65.5t36.5 75.5q27 41 60.5 82t68.5 72q14 10 28.5 20.5t27.5 18.5q63 37 144 61.5t167 38.5q78 14 152.5 19.5t136.5 5.5q131 0 199.5 -50.5t95.5 -111.5q16 -33 22 -65.5t6 -55.5q0 -137 -103.5 -220t-226.5 -128q-61 -23 -119.5 -38t-103.5 -26 q-57 -14 -107 -25t-81 -20v-10q41 -10 90 -24.5t98 -30.5q121 -43 221.5 -109.5t100.5 -171.5q0 -12 -2 -25.5t-6 -25.5q-29 -86 -134.5 -167t-226.5 -130q-61 -25 -120.5 -38t-108.5 -13q-121 0 -188.5 48t-94.5 108q-12 25 -17 49t-5 45q0 23 30.5 118t186.5 314h-3t-3 2 q-10 2 -22.5 4t-27.5 4q-33 6 -61.5 21.5t-28.5 48.5q0 31 17.5 44t38.5 17q10 2 19 3t17 1q16 2 37 4t41 5q6 2 12.5 3t14.5 1q18 2 36.5 5t30.5 5q143 178 198.5 223t94.5 49q4 0 8.5 1t8.5 1h3h3q4 0 7 1t7 1h2q4 0 10.5 1t18.5 3q-20 -27 -33.5 -42t-25.5 -29l-2 -1 l-3 -3q-4 -4 -8 -9.5t-10 -11.5q-25 -29 -56.5 -67.5t-86.5 -116.5q182 29 291.5 69.5t164.5 86.5q45 35 62.5 69.5t17.5 61.5q0 12 -1 25.5t-7 29.5q-10 33 -45 61.5t-113 28.5q-45 0 -110.5 -8t-136.5 -23q-86 -16 -165 -41.5t-118 -54.5v-59l-264 -95q-12 -4 -23.5 -7 t-21.5 -3t-18.5 7.5t-8.5 27.5zM410 348q0 -4 1 -9t1 -9q8 -39 48 -72t105 -33q31 0 68 7.5t76 21.5q76 25 142.5 69t80.5 91q2 4 3 9t1 11q0 57 -70.5 99t-154.5 71q-51 16 -98.5 28.5t-80.5 20.5q-10 -14 -21 -33.5t-24 -39.5q-14 -27 -27.5 -54.5t-23.5 -54.5 q-12 -33 -19 -64.5t-7 -58.5z" />
<glyph unicode="&#x413;" horiz-adv-x="1077" d="M172 1057q0 6 1 12t3 12l45 136q25 76 153 129t277 84q109 23 208 34t161 11h18.5h16.5h5h5q10 -2 23.5 -2h29.5q31 0 63.5 1t67.5 1q66 2 127.5 5t106.5 7q-16 -168 -67.5 -218t-108.5 -57q-14 -2 -28.5 -2h-27.5q-14 0 -53 2t-129 7q-16 -18 -28.5 -35t-22.5 -33 q-6 -8 -11.5 -15.5t-9.5 -15.5q-10 -12 -18 -26.5t-18 -30.5q0 -2 -1 -3l-2 -1q-41 -68 -102 -178.5t-217 -444.5q-14 -29 -26.5 -55.5t-22.5 -50.5q-4 -6 -7 -12.5t-5 -12.5q-20 -45 -41 -93t-48 -112q-29 -68 -46 -98.5t-31 -42.5q-10 -6 -19.5 -9t-23.5 -5h-2h-5h-9 t-11 -2q-10 -2 -19.5 -3t-15.5 -1q-16 0 -27.5 17t-21.5 71q-12 66 -16 111.5t-4 84.5q0 29 6 70t18 82q8 39 20.5 75.5t24.5 65.5q6 14 13.5 27.5t13.5 21.5t24.5 23.5t40.5 32.5l13.5 9t15.5 11q27 16 51.5 29.5t36.5 13.5q4 0 6 -1t2 -5q0 -12 -16 -39t-35 -66 q-18 -39 -34.5 -88t-16.5 -104q0 -51 11 -89t26 -67q33 74 50 113t32 70q0 2 1 3t1 3q4 8 8 17t8 20q31 70 59.5 134t57.5 126q14 33 29.5 65.5t31.5 65.5q43 90 92.5 183t112.5 198q-47 -2 -113.5 -9.5t-138.5 -23.5q-76 -16 -148.5 -43t-117.5 -66l82 -51q-4 -2 -9 -3 t-10 -1q-6 -2 -12 -3t-12 -3q-23 -6 -44.5 -9t-41.5 -3h-21.5h-23.5q-4 0 -8.5 -1t-6.5 -1q-55 0 -101 6t-44 45z" />
<glyph unicode="&#x414;" horiz-adv-x="1312" d="M197 1006v12v12v1v3q0 188 60 269t278 141q18 4 28 7t19 7h1h1q6 2 11 4t11 4q8 2 16.5 5.5t18.5 5.5q39 12 99.5 20t160.5 8q217 0 319.5 -88t139.5 -194q23 -66 29 -126.5t6 -101.5q0 -328 -209 -570.5t-459 -350.5q-84 -35 -167 -54.5t-157 -19.5h-14t-14 2 q-39 6 -70 44t-31 144q0 47 37 162t191 393q35 66 56.5 103t39.5 65q2 2 3 4.5t3 4.5q10 16 20.5 33.5t24.5 37.5q12 18 22.5 34.5t20.5 33.5q2 2 3 4t3 4q16 29 36 60.5t46 80.5l15 -133q-205 -338 -286 -501.5t-81 -241.5q0 -57 23.5 -79t52.5 -26q10 -2 21.5 -2h19.5 q63 0 147 22.5t172 67.5q168 84 306.5 240t138.5 373q0 133 -99.5 205.5t-361.5 72.5q-80 0 -135.5 -7t-89.5 -17q-16 -4 -27.5 -7t-22.5 -8q-2 -2 -5 -2t-5 -2h-1h-1q-4 0 -7 -1l-9 -3q-8 -2 -20.5 -6t-24.5 -8q-23 -8 -40.5 -21.5t-17.5 -29.5q0 -4 4.5 -8.5t10.5 -8.5 t11 -7t11 -5q10 -6 19.5 -9t13.5 -5q-61 -27 -104 -44.5t-82 -29.5q-14 -4 -28.5 -8t-29.5 -8q-8 -2 -15 -3.5t-15 -1.5h-4.5h-4.5t-4 1.5t-4 3.5q-12 8 -17 19t-7 24z" />
<glyph unicode="&#x415;" horiz-adv-x="1122" d="M35 137q0 47 24.5 104.5t73.5 116.5q66 78 173.5 151t258.5 122q31 10 50.5 16t33.5 10l7 3.5t8 3.5q10 4 19 8t22 10v16q-25 4 -43.5 6.5t-34.5 4.5h-12.5t-12.5 2q-8 0 -17.5 1t-19.5 1q-25 2 -53.5 4t-56.5 6q-80 12 -144.5 60t-64.5 169q0 23 3 45.5t11 44.5 q47 160 244.5 294t478.5 134q104 0 156.5 -17t89.5 -58v-160q-4 -8 -8 -15.5t-11 -13.5q-12 -10 -34.5 -23.5t-63.5 -33.5q-35 -18 -56.5 -31.5t-39.5 -25.5q-4 -2 -8 -5.5t-9 -7.5l-12 -8t-12 -10q-6 -4 -11.5 -8t-9.5 -9l-1 -1t-3 -1q-6 -4 -14 -9t-18 -13q4 16 16 49 t47 68q4 6 11 12l14 12q-6 4 -12.5 7t-12.5 6q-23 8 -46.5 12t-51.5 4q-168 0 -296 -71.5t-163 -157.5q-4 -12 -7 -25.5t-3 -26.5q0 -8 1 -15t5 -15q14 -31 82.5 -57.5t245.5 -26.5q20 0 38.5 1t38.5 3q8 0 18.5 1t18.5 1q10 0 20.5 1t22.5 1h20.5t20.5 -2q29 -2 44.5 -20.5 t15.5 -41.5q0 -8 -3.5 -15l-7.5 -15l-59 -95q-6 -10 -21.5 -13t-42.5 -5q-201 -12 -351 -93t-228 -175q-39 -45 -58.5 -88t-19.5 -80q0 -31 34 -51.5t73 -30.5q23 -4 43 -7t34 -3q33 0 67 4t69 10q133 31 266 107.5t256 179.5q-8 -152 -52 -233t-122 -138q-6 -4 -11.5 -8 t-9.5 -6q-143 -102 -272 -133t-193 -31q-168 0 -265 55t-97 262z" />
<glyph unicode="&#x416;" horiz-adv-x="1837" d="M150 981v7v7q0 88 20 140.5t47 81.5q12 16 24.5 26t22.5 17q12 10 29.5 20t36.5 20q63 33 150 65t179 58q88 23 172 37.5t148 14.5h20.5h20.5q109 2 159 -21.5t50 -169.5q0 -57 -18.5 -94t-41.5 -72l-292 -411q39 6 102 16t151 22q63 98 102.5 154.5t72.5 101.5 q2 4 4 6.5t4 6.5q14 16 27.5 33.5t27.5 37.5l49.5 64.5t28.5 40.5v1t2 1q4 8 10 17.5t15 19.5q23 33 37 49t22 16q6 0 9 -17t3 -40q0 -25 -6 -41t-16 -33q-4 -8 -11.5 -16t-13.5 -19q-31 -43 -67.5 -100t-73.5 -121q-8 -16 -17.5 -31.5t-19.5 -31.5q-14 -25 -27.5 -49.5 t-27.5 -49.5q33 4 73.5 5.5t116.5 -2.5q29 43 62.5 92t70.5 98q16 23 32.5 45.5t33.5 42.5q80 102 150.5 176t107.5 74h3h1q10 -2 18.5 -14.5t8.5 -30.5t-10.5 -40t-28.5 -44q-16 -20 -37 -41t-41 -39q-31 -27 -59.5 -43t-45.5 -18q-27 -43 -46 -77t-36 -65q-4 -10 -9 -19 t-11 -20q-10 -20 -21.5 -43.5t-23.5 -52.5q29 -8 59.5 -21.5t61.5 -33.5l-86 -223q-4 4 -13.5 10t-21.5 12q-6 2 -12.5 6t-14.5 6q-12 6 -24.5 10.5t-22.5 4.5q-6 0 -9 -1t-7 -3q-4 -4 -9.5 -12.5t-9.5 -22.5q-8 -20 -15 -50t-13 -61q-10 -41 -15.5 -79t-5.5 -56v-4v-4 v-23.5t2 -29.5q6 -27 22.5 -50.5t57.5 -23.5q57 0 93 41t67 90l3 3l1 1q25 37 49.5 70.5t58.5 48.5q4 2 5.5 2h3.5h1h3q2 -2 3 -2h1l1 -1q1 -1 3 -1q0 -2 2 -4t4 -6v-2v-3q0 -10 -14.5 -39.5t-73.5 -113.5q-4 -6 -7 -11.5t-7 -9.5v-2q-6 -10 -13.5 -21t-19.5 -30 q-25 -35 -38 -54.5t-24 -31.5q-2 -2 -4 -3t-2 -3q-8 -8 -15 -16.5t-17 -18.5q-6 -8 -14.5 -16t-18.5 -17q-25 -25 -57.5 -45t-71.5 -20h-10.5t-10.5 2q-55 8 -101 60.5t-46 146.5q0 16 1 33.5t3 35.5q8 70 27.5 136.5t42.5 121.5q10 27 20 49.5t18 41.5q-51 4 -104 2 t-109 -11q-14 -25 -29.5 -49t-29.5 -49q-33 -55 -54.5 -112.5t-19.5 -125.5v-12t2 -12v-12.5v-12.5l-143 -98q-6 18 -9 39.5t-3 42.5q0 31 6 64.5t14 66.5q20 68 54 132.5t71 115.5q2 4 5 8t5 8q-80 -14 -159.5 -22.5t-157.5 -14.5q-27 -33 -46.5 -57.5t-35.5 -46.5 q0 -2 -2 -4t-2 -4q-6 -8 -13.5 -17.5t-13.5 -19.5q-10 -12 -15 -19.5t-9 -15.5h-1h-1l-4 -8t-7 -8q-57 -80 -81.5 -124t-24.5 -79q0 -8 2 -17.5t6 -19.5q-31 2 -58.5 23.5t-39.5 48.5q-4 8 -6 15t-2 15q0 25 24.5 70t57.5 94q6 10 12 20.5t14 20.5q29 43 55.5 79t40.5 52 q-12 -2 -25 -3t-28 -1h-3h-3q-39 2 -72.5 12.5t-33.5 34.5q0 18 7 50t19 65q4 14 9.5 28.5t11.5 26.5q6 20 14 38t14 28q-2 -41 28 -51.5t128 -10.5q18 0 34.5 1t31.5 6q14 4 28.5 9t30.5 13l276 367l1 1t1 3q4 6 10.5 16t22.5 35q4 6 8.5 12t8.5 15q8 12 15 26.5t13 28.5 q4 12 7.5 25.5t3.5 25.5q0 43 -20.5 55.5t-45.5 14.5h-12h-13h-4h-4q-47 0 -106.5 -10.5t-120.5 -30.5q-90 -27 -172 -69t-129 -89q-2 -4 -3 -8t-3 -8q0 -6 -1 -10.5t-1 -8.5q0 -6 1 -12t3 -12l-279 -172q-6 6 -10 11t-6 9q-12 18 -13 36.5t-1 45.5z" />
<glyph unicode="&#x417;" horiz-adv-x="1247" d="M150 182q0 43 25.5 82t57.5 76q10 10 20.5 21.5t18.5 21.5q16 16 25.5 27.5t17.5 17.5q4 0 7.5 1t5.5 1q4 0 8 -3t6 -13v-3v-3q-2 -10 -11 -23.5t-20 -32.5q-12 -23 -22 -49.5t-10 -60.5q0 -55 36.5 -80t81.5 -31q25 -4 50.5 -5t41.5 -1h5.5h5.5q37 0 92 15.5t115 41.5 q94 41 172.5 105.5t78.5 134.5q0 61 -56 92t-126 47q-31 6 -60.5 11.5t-53.5 9.5q-27 4 -53.5 7t-51.5 5q-6 0 -14 1t-15 1q-51 4 -82.5 11t-31.5 36q0 8 2 19.5t8 21.5q10 20 35.5 37.5t75.5 19.5q53 2 138 20.5t175 51.5q143 47 261 120t118 150q0 47 -52.5 83t-187.5 36 q-35 0 -88 -8t-113 -25q-92 -25 -167.5 -67.5t-73.5 -100.5v-4v-4l-260 -119q-12 -6 -24.5 -10t-22.5 -4q-12 0 -19.5 8.5t-7.5 26.5q0 43 18.5 101.5t59.5 117.5q76 113 241.5 205t456.5 92q213 0 289 -74.5t76 -183.5q0 -135 -116 -228.5t-255 -152.5 q-102 -43 -196.5 -68.5t-139.5 -35.5v-9q301 -29 374 -87t73 -218q0 -145 -114 -249.5t-251 -165.5q-80 -35 -155.5 -53.5t-129.5 -18.5q-127 0 -187 54t-83 118q-14 41 -18 80t-4 63z" />
<glyph unicode="&#x418;" horiz-adv-x="1413" d="M150 907v6v7v5v5q6 125 74.5 200.5t150.5 122.5q18 12 37.5 22.5t38.5 18.5q12 6 23 12.5t26 12.5q53 27 126.5 48.5t184.5 21.5q127 0 162 -14.5t35 -45.5q0 -113 -40 -206t-87 -160q-6 -6 -11.5 -13.5t-9.5 -13.5q-162 -209 -247 -337t-95 -230q-2 -6 -2 -12.5v-12.5 v-5t2 -5v-6v-6q2 -14 7 -26.5t20 -12.5q4 0 9 1t9 3q33 12 76 65.5t139 147.5q74 74 216.5 227.5t299.5 345.5q14 18 28.5 36.5t29.5 37.5q51 66 73.5 92.5t36.5 26.5t25.5 -20.5t19.5 -45.5q4 -14 7.5 -27.5t3.5 -23.5q0 -47 -80 -147.5t-217 -364.5q-119 -227 -149 -332.5 t-30 -148.5t12.5 -57.5t24.5 -16.5h3h3q20 0 48 14.5t57 32.5q10 6 19.5 13.5t17.5 15.5q8 4 15 9t13 11q45 35 61.5 54.5t26.5 23.5q2 2 4.5 2h4.5q16 0 23 -8t7 -19q0 -23 -49 -67.5t-121 -110.5q-66 -59 -109.5 -95t-84.5 -40h-3h-3h-5h-8h-3t-3 2q-43 10 -78.5 78 t-35.5 172q0 76 63.5 204t218.5 435q-113 -129 -186.5 -219t-138.5 -172q-2 -2 -4.5 -5t-4.5 -5q-25 -33 -64.5 -83.5t-84.5 -103.5q-18 -23 -39 -44t-39 -42q-55 -59 -107.5 -98t-91.5 -39h-3h-3q-31 2 -59.5 38t-46.5 79q-10 23 -15.5 45t-5.5 39q0 33 13.5 76.5 t33.5 91.5q14 33 32 65.5t34 59.5l8 12l8 12q37 55 78 106.5t84 100.5q27 29 51.5 57.5t48.5 55.5q14 18 35 40.5t43 47.5q8 12 18.5 25.5t20.5 25.5q29 37 48.5 72.5t19.5 62.5q0 20 -19.5 27.5t-44.5 9.5h-11h-11q-98 0 -183.5 -34t-142.5 -75q-37 -29 -58.5 -54.5 t-21.5 -39.5q0 -4 3 -7t10 -7q8 -6 21 -12.5t26 -12.5q16 -4 29.5 -8t21.5 -6q-12 -4 -30.5 -9t-39.5 -10q-10 -2 -19 -5t-18 -5q-27 -6 -52 -10t-44 -4q-47 0 -69.5 10t-32.5 23q-6 8 -7 15t-1 11z" />
<glyph unicode="&#x419;" horiz-adv-x="1556" d="M150 918.5v11.5q0 123 70.5 202.5t154.5 127.5q63 35 120.5 55t84.5 28q6 2 13 4.5t13 4.5q41 14 88 25.5t117 11.5q127 0 162 -12.5t35 -47.5q0 -84 -21.5 -153.5t-48.5 -118.5q-14 -29 -27.5 -49.5t-23.5 -32.5q-152 -197 -261.5 -348.5t-109.5 -257.5q0 -33 4 -60.5 t29 -27.5q4 0 8 1t8 1q27 10 66 58t145 159q268 281 370.5 398.5t168.5 203.5l3 3l3 3q4 6 9 13t11 14q59 78 82 104.5t37 26.5t26.5 -19.5t18.5 -44.5q4 -14 7.5 -29.5t3.5 -23.5q0 -49 -75 -139t-220 -373q-12 -25 -25.5 -52.5t-28.5 -56.5q-12 -25 -23 -50t-24 -52 q-33 -76 -55.5 -148.5t-22.5 -121.5q0 -39 11.5 -56.5t33.5 -17.5q23 0 49.5 14.5t53.5 34.5q12 8 23.5 18.5t23.5 20.5q37 33 68.5 60.5t46.5 27.5q12 0 20 -6t8 -21q0 -12 -21.5 -36.5t-86.5 -83.5l-15.5 -15.5l-9.5 -9.5q-2 0 -2 -1v-1q-2 -2 -5 -4t-7 -6 q-76 -74 -133.5 -115t-100.5 -41h-5t-5 2q-43 8 -77.5 78t-34.5 172v1v1q0 72 57 187.5t227 449.5q-125 -143 -215 -254t-153 -188q-25 -31 -59 -71t-72 -83q-20 -23 -43 -46.5t-46 -43.5q-55 -51 -107 -87t-89 -36q-8 0 -16.5 5t-16.5 13q-16 16 -31.5 44t-25.5 57 q-8 23 -13.5 43t-5.5 37q0 33 13.5 78t33.5 92q14 31 29.5 60.5t32.5 55.5q4 8 9 15.5t9 15.5q25 37 50.5 71t52.5 64q25 31 50 59.5t50 55.5q20 23 47 52.5t55 62.5q10 12 19.5 24.5t19.5 22.5q43 53 74 102t31 80q0 20 -19.5 27.5t-44.5 9.5h-11h-11q-96 0 -180 -34 t-140 -73q-41 -29 -63.5 -55.5t-22.5 -40.5v-3t2 -3q4 -8 19.5 -15.5t34.5 -13.5q18 -8 34.5 -13t18.5 -5q-14 -4 -31.5 -8t-36.5 -11q-6 0 -12 -2t-14 -4q-29 -8 -57.5 -13t-51.5 -5q-63 0 -83.5 18.5t-22.5 40.5q-2 6 -2 11.5zM1118 1440q0 8 1 17t3 18q0 8 3 17t5 17 l168 183q-6 -27 -9 -47.5t-3 -38.5q0 -57 27.5 -78t68.5 -21q25 0 53.5 8.5t57.5 22.5q35 14 67.5 36.5t61.5 45.5q12 10 18.5 13t10.5 3t7 -2t3 -8q0 -23 -31 -61.5t-80 -79.5q-37 -33 -80 -62.5t-88 -52.5q-45 -25 -88 -39t-80 -14q-47 0 -71.5 37t-24.5 86z" />
<glyph unicode="&#x41a;" horiz-adv-x="1368" d="M150 913v8.5v8.5v1v3q0 66 19 126t44 109l178 134q0 -2 -1 -8.5t-3 -12.5v-10v-8q0 -8 5 -11.5t11 -3.5h3h2q2 0 3 1t3 1t4 1l2 1q33 10 76 32t92 44q47 20 97 41t99 31q25 6 48.5 9t48.5 3q39 0 68.5 -35t43.5 -78q8 -16 11.5 -33.5t3.5 -31.5q0 -23 -4.5 -38t-12.5 -28 l-147 -243l622 377q4 -16 6.5 -32t2.5 -32q0 -86 -56.5 -142.5t-124.5 -105.5q-4 -2 -7 -5t-7 -5q-23 -16 -47.5 -32.5t-61.5 -33.5q-2 4 -4 10.5t-4 12.5q-6 14 -14 26.5t-19 12.5q-6 0 -15 -2t-19 -6q-4 -2 -9.5 -4t-9.5 -2q-6 -4 -12 -7.5t-10 -5.5l-297 -178l-68 -113 l465 -385q66 -51 91.5 -125.5t25.5 -166.5q0 -6 -1 -20.5t-3 -29.5q-2 -20 -6.5 -37.5t-8.5 -15.5h-2l-692 578l-139 -215q-2 -2 -2 -5.5v-5.5v-4v-4l1 -1l1 -1q2 -2 2 -3v-1q0 -2 1 -4t1 -4q-6 -8 -10 -15.5t-8 -13.5q-2 -2 -3.5 -3t-1.5 -3q-6 -6 -11 -13t-11 -16 q-4 -8 -7 -12t-7 -8q-2 -2 -4.5 -5t-4.5 -7q-45 -63 -71.5 -88t-42.5 -25q-10 0 -16.5 9t-6.5 20q0 35 42 117.5t237 367.5q-14 25 -15.5 49.5t0.5 40.5v10v9q0 20 9.5 38.5t19.5 34.5q6 8 11 14.5t9 12.5l156 94l178 299q16 27 22.5 41t6.5 25v3v1q-2 8 -9 15t-18 7 q-59 0 -206.5 -90t-401.5 -219q-33 -14 -49 -22.5t-31 -8.5q-18 0 -24 14.5t-6 30.5z" />
<glyph unicode="&#x41b;" horiz-adv-x="1155" d="M35 129q0 76 17.5 192.5t105.5 247.5q18 29 44.5 48.5t53.5 31.5q37 16 70.5 23.5t48.5 7.5h1h3q4 0 7 -1t3 -3q0 -10 -22.5 -38t-49.5 -79q-2 -4 -5 -9t-5 -11q-6 -12 -12 -26.5t-14 -31.5q-16 -41 -29.5 -93t-20.5 -114q37 53 65 92.5t54 73.5q2 4 4 7.5t6 7.5 q8 12 18.5 24.5t20.5 26.5q6 8 10.5 15t8.5 14h2q8 12 18.5 27.5t28.5 39.5q37 49 120 151.5t181 217.5q14 14 27.5 30.5t27.5 30.5q117 135 221.5 237.5t141.5 102.5h3h3q16 -6 33.5 -39t25.5 -69q6 -18 8.5 -36t2.5 -32v-1v-3q-2 -33 -26 -75t-73 -134 q-217 -403 -270 -569t-53 -219q0 -41 11 -66t23 -35q4 -2 7.5 -4t5.5 -4l12 -4t12 -2h7.5t7.5 2q2 0 6 1t6 3q16 4 33.5 14.5t36.5 24.5q14 12 29.5 24.5t27.5 26.5q23 20 41 40t31 34l8 8l4 4h3h3h3h3h2q2 0 4 -1t4 -3q0 -2 2.5 -4t2.5 -6q2 -2 2 -4v-4v-3t-2 -4 q-2 -8 -16.5 -30.5t-63.5 -77.5q-176 -193 -253 -234t-108 -41q-8 0 -20.5 3.5t-22.5 9.5q-25 14 -44 48t-19 93q0 96 69.5 304t305.5 659q10 16 15 30.5t5 22.5q0 10 -9 15t-20 5q-23 0 -63.5 -32.5t-83.5 -75.5l-19.5 -19.5l-19.5 -19.5q-37 -39 -68.5 -76t-48.5 -55 q-82 -98 -194.5 -259t-257.5 -401q-35 -59 -54.5 -80.5t-33.5 -25.5q-8 -4 -16.5 -3t-18.5 1q-4 2 -9.5 2h-9.5h-7h-5q-27 0 -39 15.5t-12 117.5z" />
<glyph unicode="&#x41c;" horiz-adv-x="1691" d="M35 129q0 131 27.5 227.5t60.5 157.5q16 33 33.5 55.5t29.5 34.5q6 6 16.5 12.5t22.5 12.5t27.5 12t30.5 10q31 12 59.5 20.5t38.5 8.5q4 0 6 -1t2 -3v-7t-2 -5q-6 -23 -29.5 -48.5t-50.5 -72.5q-23 -41 -45 -105.5t-31 -163.5q37 53 65 92.5t54 73.5q2 4 4 7.5t6 7.5 q8 12 18.5 24.5t20.5 26.5q6 8 10.5 15t8.5 14h2q8 12 18.5 27.5t28.5 39.5q18 25 110.5 138.5t204.5 244.5q12 14 24.5 28.5t27.5 28.5q113 129 214 229.5t138 100.5h3h3q16 -6 33.5 -39t25.5 -69q6 -18 8.5 -36t2.5 -32v-1v-1q0 -37 -30 -88t-95 -174q-12 -23 -23.5 -45.5 t-23.5 -44.5q-53 -102 -102.5 -208t-90.5 -233q33 47 50.5 72l31.5 45q6 6 11 14.5t11 16.5q37 53 115 152.5t170 207.5q16 18 31.5 36t30.5 36q117 131 218 232.5t138 101.5q4 0 7 -1t7 -1q20 -10 39 -42t19 -71q0 -4 -1 -9t-1 -9q0 -2 -1 -4t-1 -4t-1.5 -5.5t-1.5 -7.5 q-37 -55 -65.5 -99t-56.5 -85q-2 -4 -4.5 -7t-4.5 -5q-18 -29 -37.5 -56.5t-41.5 -58.5q-16 -23 -33 -48.5t-33 -51.5q-29 -51 -58.5 -107.5t-56.5 -114.5q-35 -80 -58.5 -158.5t-23.5 -142.5q0 -82 20.5 -118.5t51.5 -36.5q29 0 69 27.5t103 88.5l21.5 21.5l13.5 13.5 q0 2 1 3l1 1q2 2 4 5.5t4 5.5q20 23 33.5 33t21.5 10h4h1q4 -2 8 -6.5t6 -8.5v-1v-3q0 -8 -12.5 -28.5t-28.5 -43.5q-2 -2 -4 -6t-6 -6q-16 -23 -30.5 -41t-18.5 -22q-10 -12 -21.5 -24.5t-24.5 -24.5q-33 -33 -69.5 -65t-73.5 -58q-41 -31 -82 -48.5t-76 -17.5 q-6 0 -23.5 5t-35.5 22q-25 20 -44 61t-19 115q0 127 50 260t138 274q84 133 102.5 170t18.5 52q0 8 -4 12t-13 4q-14 0 -63 -44t-176 -208q-131 -166 -215 -299t-131 -221q-39 -70 -53.5 -94.5t-24.5 -26.5h-1h-1q-4 0 -10.5 1t-12.5 3q-14 6 -26.5 23.5t-12.5 58.5 q0 106 49.5 242.5t143.5 345.5q113 250 144.5 310.5t31.5 76.5q0 10 -9 15t-20 5q-23 0 -64.5 -33.5t-86.5 -78.5l-19.5 -19.5l-19.5 -19.5q-35 -37 -64.5 -72t-48.5 -55q-82 -96 -194.5 -258t-257.5 -402q-35 -59 -54.5 -80.5t-33.5 -25.5q-8 -4 -16.5 -3t-18.5 1 q-4 2 -9.5 2h-9.5h-7h-5q-27 0 -39 15.5t-12 117.5z" />
<glyph unicode="&#x41d;" horiz-adv-x="1411" d="M150 950q0 18 6 66.5t24 101.5q14 43 36 82t54 64q41 33 104.5 61.5t131.5 52.5q59 20 113.5 36t95.5 24q27 6 48 11t42 9q37 8 77 12.5t101 4.5h24.5h22.5q109 2 157 -21.5t48 -169.5q0 -57 -19.5 -95t-41.5 -71l-293 -411q41 6 104.5 16t151.5 22q70 109 106.5 161 t65.5 95l1 1l1 2q6 8 12 17t12 17q117 156 152 206t49 50q6 0 9 -17t3 -40q0 -29 -12 -52.5t-27 -43.5q0 -2 -1 -3l-1 -1q-2 -2 -3 -4.5t-3 -4.5q-33 -47 -59.5 -90t-52.5 -84q-10 -18 -20.5 -35.5t-20.5 -35.5q-18 -31 -38 -66t-40 -72q31 4 72.5 5.5t103.5 -2.5l-111 -256 q-25 2 -49 2h-49q-27 -2 -51.5 -4.5t-48.5 -6.5q-29 -47 -53.5 -87t-41.5 -79q-20 -41 -30.5 -84t-10.5 -92v-21t3 -22l-144 -98q0 4 -1 8t-3 8q-2 12 -5 29.5t-1 40.5q0 59 29.5 156.5t124.5 234.5q-80 -14 -159 -22.5t-157 -14.5q-29 -33 -49.5 -59.5t-38.5 -50.5 q-2 -4 -4 -6t-4 -7q-10 -12 -20.5 -26.5t-20.5 -28.5q-63 -92 -91 -139t-28 -84v-9t2 -10q0 -6 1 -11t3 -9q-35 2 -63.5 27.5t-38.5 54.5q0 6 -1 11t-1 9q0 37 44 111t157 225q-4 0 -9.5 -1t-9.5 -1h-11h-9q-23 0 -40.5 2t-29.5 4q-4 2 -7 3t-5 1q-35 10 -40 32t-5 46v5v6 q0 18 8 42.5t20 51.5q4 12 10.5 23.5t12.5 23.5q6 10 12 20.5t12 20.5q0 -33 25 -48.5t131 -15.5q35 0 60.5 6.5t50.5 14.5q4 2 9 4t9 4l275 369q4 4 17 23.5t28 45.5q6 10 11 19.5t9 17.5q10 23 18.5 44.5t8.5 37.5q0 27 -12.5 39t-26.5 16q-6 0 -12.5 1t-10.5 1 q-47 0 -117.5 -12t-146.5 -35q-94 -29 -178 -67.5t-125 -83.5q-2 -8 -5 -17.5t-3 -19.5v-5t2 -5q0 -4 1 -6.5t1 -6.5l-279 -172q-14 12 -24 33t-10 51z" />
<glyph unicode="&#x41e;" horiz-adv-x="1017" d="M104 420q0 254 140.5 472t310.5 355q88 74 174 119t150 57q6 2 12 2h10h4h4t4 -1t5 -1q6 -2 11 -5t11 -7q25 -18 47.5 -57t38.5 -80q6 -12 10 -25.5t6 -25.5q-49 -6 -84.5 -22.5t-64.5 -39.5q6 2 12 2h13q72 -2 115.5 -61.5t43.5 -165.5q0 -72 -18.5 -154t-50.5 -166 q-88 -229 -264.5 -419.5t-374.5 -190.5q-27 0 -48.5 4t-41.5 17q-8 4 -16.5 10t-18.5 14q-49 43 -81 109.5t-46 140.5q-6 31 -9.5 60.5t-3.5 58.5zM250 274q0 -57 17.5 -90.5t39.5 -50.5q10 -8 19.5 -11t17.5 -3q51 0 110.5 37t120.5 98q68 66 133.5 153t116.5 179 q59 100 95 196.5t36 163.5q0 59 -18 92t-64 33q-35 0 -74.5 -17.5t-78.5 -45.5q-45 -31 -88 -72t-82 -86q-33 -37 -60.5 -73t-48.5 -66l-39 20q-35 -45 -63.5 -108.5t-50.5 -130.5q-18 -59 -28.5 -117t-10.5 -101z" />
<glyph unicode="&#x41f;" horiz-adv-x="1325" d="M150 993q0 96 60 182.5t134 145.5q27 23 52.5 40t47.5 30q0 -25 11.5 -42.5t25.5 -17.5q4 0 8.5 1t8.5 1l8 4l8 4q18 10 34.5 20.5t33.5 22.5q10 6 21 13.5t22 13.5q43 29 88 49.5t100 20.5q66 0 88.5 -36t24.5 -81v-5v-5q0 -23 -3 -43.5t-5 -34.5q-2 -10 -4.5 -16.5 t-4.5 -10.5q-14 -47 -46 -124.5t-70 -159.5q-8 -20 -17.5 -40t-19.5 -38q-20 -41 -40 -80t-38 -72q-49 -88 -57.5 -115.5t-8.5 -33.5v-2v-2q0 -6 2 -10.5t4 -4.5q8 0 19.5 13.5t26.5 33.5q2 4 5 7.5t5 7.5v1v1q10 14 23.5 31.5t39.5 52.5l17.5 21t15.5 20q16 20 34.5 44.5 l55.5 73.5q45 57 74 94.5t55 67.5q4 4 7 7.5t5 7.5q18 20 38 40.5t44 47.5q12 12 41 41.5t66 62.5q6 6 14 13.5t17 13.5q37 35 72.5 59.5t54.5 24.5q23 0 40 -29t27 -63q6 -20 10.5 -41t4.5 -33q0 -45 -32 -112.5t-112 -205.5q-221 -381 -263 -510t-42 -151q0 -57 15.5 -84 t37.5 -27q29 0 58.5 21.5t56.5 48.5l3 3l3 3q61 59 84 94t37 43q2 2 5 3t5 1q8 0 13.5 -3t7.5 -7q2 -2 2 -3v-3q0 -14 -16.5 -45t-80.5 -109q-164 -199 -242.5 -247t-105.5 -48q-39 0 -67.5 44.5t-28.5 113.5q0 78 36 189.5t87 228.5q20 47 42.5 93t43.5 89 q37 72 71.5 135.5t63.5 110.5q57 96 66.5 127t9.5 45q0 4 -2 6l-4 4h-3h-1q-18 0 -63.5 -28.5t-190.5 -200.5q-152 -182 -237 -313.5t-114 -182.5q-94 -164 -127.5 -222t-54.5 -64h-3h-3q-4 0 -8 1t-8 3t-8.5 4t-8.5 4q-6 4 -12 9t-14 11q-16 14 -30.5 31.5t-14.5 36.5 q0 16 10 42t28 60q176 330 293 596.5t117 386.5q0 25 -5 41.5t-36 16.5q-16 0 -43 -13.5t-55 -31.5q-8 -4 -16.5 -10.5t-16.5 -10.5q-25 -16 -44 -31.5t-32 -25.5q-14 -10 -26.5 -20.5t-24.5 -20.5q-8 -8 -17.5 -15.5t-17.5 -15.5q-27 -23 -52.5 -47.5t-55.5 -56.5 q-43 -45 -71 -60.5t-44 -15.5q-2 0 -5 2t-5 8q-4 10 -8 30.5t-4 59.5z" />
<glyph unicode="&#x420;" horiz-adv-x="1267" d="M168 -52q0 5 2 9q0 6 1 11t1 9q2 6 3 11.5t3 11.5q10 39 29.5 80t46.5 90q8 18 14 29.5t11 21.5l2 2q2 6 6 13.5t8 15.5q14 29 22.5 46t16.5 30q0 2 1 4t3 2q2 6 5 11t7 11q-8 2 -15 6.5t-16 8.5q-31 18 -55 49t-24 65q0 20 6 45t26 52q25 33 82.5 63.5t161.5 50.5 l262 486q-63 2 -135 -8.5t-145 -28.5q-82 -20 -161 -49t-147 -62q66 287 227 363t449 76q201 0 342.5 -95.5t141.5 -394.5q0 -47 -11.5 -97t-31.5 -102q-74 -182 -254.5 -333.5t-409.5 -151.5q-18 0 -66.5 4t-150.5 19l-55 -111q0 -2 -1 -5t-3 -5q-2 -8 -5.5 -17.5 t-1.5 -21.5q0 -8 2.5 -20.5t8.5 -24.5q-14 -29 -21.5 -42.5t-11.5 -23.5l-2 -2q-2 -6 -5 -12t-7 -17q-47 -96 -71 -125.5t-32 -29.5h-3h-3h-9t-11 2t-12.5 11t-10.5 26q0 4 -1 8t-1 8q-2 6 -2 10v9v9zM580 596q0 -16 18 -29.5t41 -19.5q10 -4 18.5 -5t16.5 -1q47 0 103.5 9 t115.5 30q125 41 230.5 137t105.5 260v3v3q0 14 -2 40t-19 52q-25 43 -98.5 79t-237.5 28l-243 -469q27 4 37 4h14h5h5h14.5t8.5 2h7h9q16 0 21.5 -5t7.5 -9v-6.5v-4.5v-1v-1q0 -4 -4 -6t-15 -4q-10 -2 -25.5 -4t-39.5 -4q-6 0 -18.5 -2t-26.5 -8q-18 -6 -33.5 -22.5 t-15.5 -45.5z" />
<glyph unicode="&#x421;" horiz-adv-x="1011" d="M12 37v4v4q0 51 31 258t221 524q33 55 87.5 132t119.5 159q49 63 104.5 124t112.5 110q70 63 138.5 103t127.5 40q6 0 12.5 -1t12.5 -1q51 -12 94 -62.5t43 -113.5q0 -94 -43 -252t-180 -360q-16 -27 -41 -58t-53 -63q-16 -20 -36 -41t-40 -39q-47 -49 -92 -82t-74 -33 q-16 0 -29.5 20.5t-21.5 45.5q-4 8 -6 16l-4 16q31 82 74.5 159t91.5 134q12 16 26 31.5t27 28.5q6 -4 13 -6.5t15 -2.5q18 0 38 11.5t40 31.5q37 39 73 102.5t58 133.5q14 41 22.5 81t8.5 75v8v10t1 12.5t1 14.5q-2 20 -7 37.5t-24 17.5q-55 0 -144 -81t-185 -208 q-78 -104 -152 -228t-129 -253q-51 -117 -82 -229.5t-31 -210.5q0 -25 1 -55.5t8 -61.5q12 -63 51 -117.5t131 -54.5q16 0 34.5 2t35.5 8q90 23 177 93.5t158 150.5q49 53 89 105.5t67 88.5q23 31 34 43.5t19 12.5t12.5 -6.5t4.5 -16.5q0 -33 -64.5 -132t-163.5 -212 q-59 -66 -126.5 -129t-137.5 -115q-70 -49 -136.5 -79.5t-125.5 -30.5h-5h-7q-102 6 -188.5 102t-86.5 285z" />
<glyph unicode="&#x422;" horiz-adv-x="1775" d="M150 1010q0 121 15 159.5t36 57.5q0 2 1 2t1 2l5 5l5 5l115 129v-9v-9q0 -8 1 -16.5t5 -12.5q0 -2 3 -3t5 -3h3h3h5t5 2q2 0 5.5 1t5.5 3q39 14 75.5 35.5t71.5 44.5q59 39 110.5 71.5t92.5 32.5q47 0 75.5 -31.5t43.5 -68.5q12 -31 17 -59.5t5 -36.5q0 -25 -16.5 -90.5 t-36.5 -139.5q-4 -10 -7 -20t-5 -19q-16 -57 -33 -106t-25 -76q317 401 418.5 484t134.5 83q6 0 12.5 -3t12.5 -9q8 -8 16 -18.5t15 -20.5q6 -10 9 -18t3 -17q0 -27 -24.5 -139t-164.5 -469q43 49 72 82t55 64v2q10 10 19.5 20t19.5 23q213 246 323.5 365.5t143.5 119.5 q6 0 15.5 -10t19.5 -25q6 -10 13.5 -21.5t11.5 -23.5q8 -16 13 -31.5t5 -27.5q0 -33 -26.5 -74t-67.5 -104q-152 -233 -261.5 -432t-109.5 -363q0 -74 19.5 -117t42.5 -43t55.5 21.5t69.5 50.5q12 12 25 23.5t26 23.5q23 23 42 43t34 37q0 2 1 3t3 1q6 8 13 15t15 7t13.5 -4 t7.5 -10v-1v-3q0 -31 -38 -81t-95 -105q-23 -25 -48.5 -47.5t-52.5 -42.5q-66 -55 -125 -91t-88 -36h-5h-5q-45 8 -83 70.5t-38 144.5q0 111 35 210t78 181q10 18 19.5 36.5t19.5 34.5t29.5 53.5t44.5 78.5q0 4 2 7t4 7q29 51 50 96t21 55q0 2 -1 3.5t-5 1.5q-10 -2 -49 -33 t-125 -139q-16 -23 -31.5 -41.5t-29.5 -36.5q-4 -2 -6.5 -5t-4.5 -8q-45 -57 -99 -136t-161 -249q-14 -23 -28.5 -47t-30.5 -49q-6 -12 -13.5 -24.5t-15.5 -22.5q-37 -59 -71.5 -102t-59.5 -43q-16 0 -27.5 25.5t-17.5 58.5q-6 25 -9 46t-5 31q-2 8 -2 15.5v13.5v7t2 7v6.5 v6.5v3v3q10 51 54 119.5t130 218.5q96 170 170 315.5t74 233.5v8v10q0 10 -2 20.5t-8 10.5q-27 0 -137.5 -101.5t-352.5 -556.5q-152 -289 -205 -362.5t-67 -73.5q-8 0 -19.5 11.5t-23.5 29.5q-8 10 -16.5 23.5t-14.5 25.5q-10 20 -16.5 40t-6.5 32q0 20 27 76.5t131 236.5 q209 360 252 500.5t43 194.5v4v4v2q0 16 -3 29.5t-26 13.5q-20 0 -65 -26.5t-94 -61.5q-12 -8 -22.5 -15.5t-18.5 -15.5q-23 -16 -44.5 -32.5t-37.5 -30.5q-23 -20 -53.5 -46t-67.5 -51l-25.5 -17t-27.5 -18q-29 -16 -45.5 -24t-26.5 -8q-2 0 -4 1t-4 5q-6 8 -10 26.5 t-4 51.5z" />
<glyph unicode="&#x423;" horiz-adv-x="1216" d="M150 856q0 68 11 115t25 78q12 27 23.5 40t13.5 15q29 29 81 67.5t118 79.5q39 25 80 48.5t82 43.5q90 49 176 81t141 32q37 0 53.5 -19.5t16.5 -66.5q0 -76 -61.5 -206t-262.5 -484q-68 -123 -91.5 -169t-31.5 -75q0 -2 -1 -6t-1 -6t-1 -4l-1 -2q0 -6 -1 -11.5t-1 -9.5 q0 -6 2 -12t4 -10q6 -6 15.5 -7t17.5 -1q25 0 121 75.5t360 419.5q10 12 18.5 24.5t16.5 22.5l4 4t2 5q33 41 70 89t100 123q6 -2 11.5 -5t11.5 -7q14 -12 26.5 -30.5t18.5 -38.5q2 -6 3 -12.5t1 -12.5q0 -8 -2 -16.5t-8 -16.5q-51 -76 -152.5 -258t-212.5 -473 q-29 -80 -59.5 -167t-59.5 -181q16 18 41 43t52 47q20 18 42.5 36.5t45.5 33.5q33 25 65.5 43t61.5 24q4 0 7 1t7 1l2 1t4 1q6 0 11 1t10 1q4 0 8 -1t4 -5q0 -29 -129 -148.5t-285 -330.5q-37 -49 -54.5 -74.5t-29.5 -46.5q-2 -2 -4 -5t-2 -5q-4 -4 -6 -8l-4 -8 q-27 -49 -40 -67.5t-24 -18.5q-10 0 -24.5 8t-30.5 30q-8 10 -15.5 24.5t-15.5 33.5q12 100 64.5 250.5t202.5 457.5q102 213 125.5 275.5t23.5 68.5q0 4 -17.5 -15t-39.5 -44l-1 -1q-1 -1 -1 -3q-16 -16 -29.5 -32.5t-20.5 -24.5l-14 -17.5t-12 -15.5q-14 -18 -33.5 -43 t-66.5 -80q-25 -31 -45.5 -54.5t-38.5 -45.5l-12.5 -12.5t-12.5 -14.5q-27 -29 -60.5 -60.5t-84.5 -74.5q-4 -4 -11.5 -9t-15.5 -10q-12 -8 -28.5 -15t-33.5 -9q-6 -2 -10 -2h-8q-27 0 -47.5 22.5t-20.5 85.5q0 53 42 156.5t100 216.5q12 25 24.5 47.5t24.5 44.5 q43 82 84 152.5t67 116.5q10 16 29 47.5t37 70.5q6 10 11 21.5t12 21.5q20 45 36.5 88t16.5 66q0 8 -4 11t-13 3q-33 0 -114.5 -49t-173.5 -113q-10 -8 -20.5 -15l-22.5 -15q-92 -63 -167 -119.5t-91 -69.5q-2 20 -3 39t-1 35z" />
<glyph unicode="&#x424;" horiz-adv-x="1632" d="M35 217q0 76 33.5 182.5t93.5 216.5q55 111 129 214.5t155 179.5q29 27 69 57.5t87 60.5q39 27 82 53.5t86 51.5q86 45 167 76.5t136 31.5q43 0 64.5 -29.5t29.5 -66.5q6 -25 8.5 -48t2.5 -36q0 -20 -16.5 -45.5t-43.5 -52.5q-20 -20 -43.5 -41t-48.5 -37 q-27 -18 -52.5 -33.5t-45.5 -21.5q-2 0 -4 -1t-4 -3q-4 0 -8.5 -2t-14.5 -6q4 4 9 12t12 18q2 6 5 12.5t7 12.5q4 12 8 23.5t4 19.5t-5 13t-11 7q-2 0 -4 1t-4 1h-2h-3h-3h-1h-4h-6q-39 -6 -89 -32.5t-101 -65.5q-25 -16 -48.5 -34.5t-46.5 -37.5q-43 -35 -80.5 -69.5 t-62.5 -59.5q-178 -176 -239.5 -331.5t-61.5 -212.5q0 -47 18.5 -54.5t47.5 -7.5h5h5q23 0 189.5 95.5t451.5 498.5q20 29 33.5 46.5t23.5 27.5q6 6 11.5 10t11.5 8t14 9.5t18 11.5q12 6 21.5 12t19.5 10q12 4 24.5 8t29.5 4l-205 -436q250 293 427 460t255 167q8 0 16 -4 t17 -10q27 -20 51 -64.5t41 -93.5q8 -27 13 -52.5t5 -47.5q0 -61 -27.5 -140.5t-72.5 -163.5q-31 -57 -67 -112t-72 -107q-27 -37 -52.5 -68.5t-50.5 -58.5q-12 -12 -35.5 -36.5t-52.5 -51.5q-10 -10 -21.5 -19t-21.5 -20q-33 -23 -61.5 -40t-49.5 -17q-14 0 -24 7t-19 18 q-4 6 -8 11t-10 11q-4 6 -8 11.5t-6 9.5q-12 16 -18.5 34.5t-6.5 51.5q0 29 9.5 61.5t25.5 65.5q25 49 58.5 95t70.5 81q35 33 66.5 53t56.5 20h3h3q4 -2 6 -5t2 -9q0 -16 -4 -24.5t-12 -16.5q-20 -16 -60.5 -56t-85.5 -190q-2 -6 -3 -10t-3 -8q0 -2 -1 -5t-1 -5 q-2 -10 -5 -18.5t-5 -16.5t-3 -16.5t-1 -18.5v-5v-5q0 -8 1 -14.5t3 -6.5q10 0 40 34t62 79q4 4 8.5 9t6.5 12q31 43 56.5 79.5t33.5 49.5q4 6 8 13t8 13q84 133 153.5 257t69.5 241v6v6q0 25 -5 34t-40 9q-37 0 -100 -55t-215 -228q-14 -16 -26.5 -29.5t-22.5 -25.5 q0 -2 -1 -2t-1 -2q-20 -23 -44 -48.5t-65 -70.5q-98 -106 -207.5 -234t-238.5 -321l-221 -493q-4 -10 -12.5 -20.5t-20.5 -10.5h-3t-3 2q-14 10 -26.5 61.5t-18.5 110.5q-2 16 -3 33.5t-1 34.5q0 82 70.5 213t279.5 366l125 303q-53 -72 -116 -139t-126 -127 q-109 -100 -210 -162.5t-161 -62.5q-12 0 -26.5 9t-28.5 26q-14 16 -28.5 37.5t-26.5 44.5q-16 33 -27.5 61.5t-11.5 44.5z" />
<glyph unicode="&#x425;" horiz-adv-x="1204" d="M150 899q0 25 3 70t15 94q8 41 25.5 80t44.5 65q23 23 64.5 53.5t96.5 61.5q49 31 106.5 58.5t117.5 50.5q57 20 111 32.5t104 12.5q55 0 75.5 -27t20.5 -57v-5.5v-5.5l-23 -495l334 426q18 25 25.5 31t9.5 6h4t4 -2q8 -2 14.5 -13.5t6.5 -34.5q0 -8 -1 -17t-3 -19 q-6 -25 -17.5 -49.5t-23.5 -47.5q-8 -10 -14.5 -20t-12.5 -19l-55 -20l-273 -360l-26 -422v-127q0 -27 8 -44.5t18 -25.5q6 -4 11.5 -6t9.5 -2q20 0 44.5 15.5t57.5 43.5q41 35 52.5 44t15.5 9h1h1h1h3q4 0 7 -4t3 -14q0 -20 -28.5 -59t-69.5 -82l-33.5 -33.5t-34.5 -32.5 q-45 -37 -85 -63.5t-62 -26.5q-6 0 -16.5 3t-22.5 9q-18 14 -33.5 46t-11.5 100l29 512l-494 -578q-2 -4 -5 -7t-7 -5q-10 -10 -21.5 -17.5t-23.5 -7.5q-18 0 -21.5 13.5t-3.5 25.5v2v1v3q0 27 9 55.5t24 59.5q14 29 32.5 58.5t38.5 56.5q14 20 30 37.5t28 29.5l106 50 l312 360l18 391v72q0 18 -7 30.5t-26 12.5q-31 0 -101.5 -30t-148.5 -77q-37 -23 -72.5 -48t-68.5 -52q-12 -10 -18 -19.5t-6 -13.5t6 -7t16 -5h1h1q2 0 4 -1t4 -1q4 0 7.5 -1t7.5 -1q2 -2 5 -2t7 -2q4 0 10 -2t15 -6q-6 -6 -16.5 -12.5t-22.5 -14.5q-14 -8 -32 -16.5 t-36 -16.5q-35 -14 -65.5 -23.5t-45.5 -9.5q-25 0 -31.5 5.5t-6.5 23.5z" />
<glyph unicode="&#x426;" horiz-adv-x="1413" d="M150 950v15v1v1q0 127 74.5 206.5t187.5 137.5q45 23 82.5 42t74.5 31q53 20 109.5 29.5t132.5 9.5q127 0 162 -13t35 -46q0 -125 -46.5 -222.5t-101.5 -168.5q-164 -211 -248 -337t-94 -233q-2 -8 -2 -16v-16q0 -25 8 -40.5t31 -15.5q14 0 24.5 6.5t20.5 18.5 q8 8 16.5 19.5t18.5 25.5q31 41 60.5 69.5t56.5 55.5q8 6 14 12t12 13q0 2 1 2h1q25 23 55.5 55.5t100.5 107.5q18 20 35.5 39t36.5 37q2 4 6 7t6 8q43 47 89 99t105 124l129 157q59 74 82 101.5t37 27.5q12 0 24.5 -19t20.5 -44q4 -14 7.5 -28.5t3.5 -22.5 q0 -51 -80 -143.5t-219 -368.5q-117 -231 -147 -336t-30 -148q0 -33 11.5 -59.5t27.5 -26.5h3h3q2 -2 5.5 -2h7.5q18 0 58 18.5t120 82.5q33 25 46 33t15 6q0 -8 -29.5 -77t-68.5 -147q-2 -4 -3 -8t-3 -8q-31 -61 -58.5 -117.5t-39.5 -79.5q-94 -166 -201 -282.5 t-244 -116.5q-45 0 -71.5 23.5t-32.5 52.5v5v5q0 20 15 56t36 75q4 10 9 19.5t9 17.5q20 35 39 64.5t27 42.5q6 10 9 14t7 8q0 2 2 4t4 6q10 20 16.5 25.5t8.5 5.5q4 0 6 -3t2 -7t-2 -9.5t-8 -15.5q-2 -2 -4 -5t-4 -7q-6 -8 -11.5 -20.5t-5.5 -26.5v-12.5t2 -12.5 q2 -14 13.5 -25.5t36.5 -11.5q66 0 162 75t202 294q-6 -8 -13 -14t-16 -13q-41 -35 -77.5 -49t-53.5 -14q-6 0 -11 1t-11 5q-37 18 -67.5 81.5t-30.5 137.5q0 39 25.5 114t60.5 157q4 14 10 27t12 28q33 76 61.5 139.5t41.5 89.5q-53 -57 -120 -136t-139 -163 q-10 -12 -21 -25.5t-22 -25.5q-117 -137 -224 -242.5t-167 -105.5q-33 0 -60.5 33.5t-43.5 74.5q-12 27 -18.5 52.5t-6.5 40.5q0 61 35 138t88 154q27 41 56.5 82t58.5 78q41 53 81 99.5t72 82.5q16 16 36 39t40 47q10 12 20.5 25.5t20.5 28.5q29 37 48.5 72.5t19.5 62.5 q0 20 -19.5 28.5t-44.5 10.5h-11h-11q-98 0 -181 -34t-141 -73q-39 -29 -61.5 -55.5t-22.5 -40.5q0 -2 15.5 -16.5t95.5 -36.5q-12 -4 -27.5 -8.5t-32.5 -8.5q-18 -4 -35.5 -9t-33.5 -7q-25 -6 -49.5 -9t-44.5 -3q-49 0 -66.5 16t-21.5 37q-2 6 -2 14z" />
<glyph unicode="&#x427;" horiz-adv-x="1368" d="M150 877v9v9v1v1q0 41 17 89t50 97q76 113 231.5 207t385.5 94q109 0 133 -30.5t24 -77.5q0 -51 -31.5 -113.5t-74.5 -136.5q-8 -14 -17.5 -33.5t-19.5 -40.5q-10 -20 -18.5 -41.5t-16.5 -44.5q-14 -39 -24.5 -77.5t-10.5 -67.5v-7v-7q2 -10 6 -20.5t11 -10.5 q12 0 36.5 12t51.5 29q6 4 13 7t13 7q18 12 35 24.5t27 20.5q246 205 316.5 333t105.5 157q6 4 10 6t10 2q4 0 10.5 -4t14.5 -10q8 -10 16 -23.5t12 -28.5q4 -8 5.5 -15t1.5 -13q0 -25 -20.5 -56.5t-68.5 -97.5q-33 -47 -64.5 -96t-59.5 -96q-102 -172 -168 -333t-66 -274 q0 -43 9 -72.5t22 -43.5q4 -8 10 -12.5t10 -4.5h1h3q10 0 50 15.5t139 115.5q25 25 36 35t19 10q10 0 15.5 -3t5.5 -9q0 -12 -12.5 -33.5t-30.5 -44.5q-4 -4 -8.5 -9t-8.5 -11q-14 -18 -28.5 -33.5t-22.5 -26.5q-96 -106 -152.5 -144t-97.5 -38q-8 0 -18.5 3t-20.5 9 q-33 18 -59.5 59.5t-26.5 92.5q0 35 6 75t17 79q8 37 18 72.5t23 66.5q10 35 22 64.5t21 49.5q27 57 39 85t22 51q2 0 2 1v1q6 10 11.5 20t11.5 25q2 4 3 7t3 5q4 8 8 15.5t8 15.5q10 23 21.5 47t23.5 53q-10 -8 -17 -15t-16 -14q0 -2 -1 -2t-1 -2q-8 -6 -16 -14l-18 -18 q-6 -8 -12.5 -13.5t-10.5 -11.5h-1t-1 -2q-12 -12 -29.5 -28.5t-58.5 -57.5q-82 -78 -146.5 -131t-123.5 -53q-4 0 -7.5 1t-7.5 1q-23 10 -41 36.5t-28 59.5q-2 8 -3 17.5t-1 17.5q0 88 39.5 147.5t87.5 112.5q47 53 87 113.5t40 150.5v4t-3 6q-4 16 -26.5 29.5t-50.5 13.5 q-33 0 -69 -5t-73 -17q-80 -25 -152.5 -74t-115.5 -121q25 -8 43.5 -17t30.5 -20q8 -4 14 -9t10 -9l-243 -45q-2 0 -4 -1l-2 -1h-4.5h-4.5q-18 0 -25 10t-9 23z" />
<glyph unicode="&#x428;" horiz-adv-x="1769" d="M150 991q0 109 44 169.5t107 109.5q59 49 149.5 91t184.5 64q45 10 90 16.5t86 6.5q125 0 161 -12.5t36 -46.5q0 -78 -58.5 -289t-283.5 -543q-4 -8 -8.5 -15t-4.5 -16q0 -6 4.5 -11t10.5 -7h2h2q14 0 55 36t88 83q8 6 15.5 14t15.5 16q4 4 7 8.5t7 8.5q285 307 365 475 t116 227q12 18 25.5 27.5t34.5 9.5q12 0 18 -8t11 -19q2 -6 3 -11t1 -9q2 -16 5 -29.5t5 -25.5q2 -14 4 -29.5t2 -34.5v-28.5t-4 -22.5q-2 -12 -11.5 -28.5t-25.5 -43.5q-262 -426 -315.5 -594t-53.5 -196v-4v-4v-1v-1q0 -12 1 -20.5t6 -8.5q23 0 137 117.5t276 414.5 q63 111 108.5 196t88.5 157q16 29 32.5 56.5t34.5 55.5q8 12 16.5 24.5t16.5 24.5q6 10 11.5 18.5t9.5 12.5t7 6t7 2q20 0 30.5 -10t18.5 -27q2 -2 3 -4t1 -4q4 -10 9.5 -18t9.5 -17q4 -12 7 -24t3 -27v-16t-4 -19q-8 -14 -14.5 -25t-12.5 -22q0 -2 -1 -3l-1 -1 q-8 -14 -18.5 -31.5t-28.5 -46.5q-168 -285 -238.5 -518t-70.5 -354q0 -39 13 -56.5t42 -17.5q10 0 20.5 1t20.5 5q31 8 61.5 30t69.5 54q27 23 39 32t21 11h1h1q6 0 10 -4t6 -10v-3v-3q0 -20 -29.5 -60t-74.5 -83q-25 -23 -50.5 -45.5t-52.5 -40.5q-45 -31 -87 -52.5 t-73 -21.5q-8 0 -18 4t-21 10q-18 10 -35.5 28.5t-29.5 39.5q-6 12 -10 23.5t-4 21.5v3v3q0 33 21.5 145.5t154.5 436.5l-27 -35q-37 -49 -93 -126t-122 -159q-12 -18 -26.5 -36.5t-30.5 -37.5q-88 -111 -168 -191.5t-121 -80.5q-4 0 -8 1t-8 3q-16 10 -31 33.5t-21 50.5 q-2 10 -4 20.5t-2 18.5q0 41 27.5 130t66.5 189q6 18 12.5 35t12.5 33q27 70 52.5 129t41.5 98q-147 -188 -251.5 -308t-162.5 -181q-16 -18 -25 -28.5t-18 -18.5q-4 -6 -9 -11.5t-11 -11.5q-27 -29 -42 -46t-30 -32l-2 -2q-8 -10 -19 -21l-26 -26q-33 -33 -42 -43t-13 -10 t-10 4t-11 10q-10 12 -19 30.5t-17 39.5q-6 16 -9.5 32.5t-3.5 28.5v1v1q0 14 14.5 35t49.5 72q250 365 343 565.5t93 304.5q0 55 -5 68.5t-34 13.5q-20 0 -41.5 -2t-42.5 -6q-76 -14 -146.5 -45t-119.5 -66q-33 -23 -51.5 -45t-18.5 -38q0 -2 1 -5.5t5 -5.5q6 -6 20.5 -13 t29.5 -11q18 -8 34.5 -12.5t20.5 -4.5q-49 -14 -88 -25.5t-78 -15.5q-8 0 -17.5 -1t-19.5 -1h-6h-8h-15.5h-17.5q-25 2 -44 18.5t-19 63.5z" />
<glyph unicode="&#x429;" horiz-adv-x="1769" d="M150 971.5v15.5v1v3q0 145 76.5 221t179.5 127q16 8 38.5 18.5t47.5 20.5q53 20 116.5 39t128.5 27q18 2 36 3t36 1q127 0 162 -12.5t35 -46.5q0 -106 -73 -325.5t-267 -506.5q-4 -8 -8.5 -15t-4.5 -16q0 -6 4.5 -11t10.5 -7h2h2q4 0 10 4t16 12l3 3t4 1v1v1q4 2 8 5.5 t10 9.5q10 8 18.5 14t16.5 12q4 2 7 5.5t5 5.5q16 14 35.5 34.5t54.5 57.5q326 352 411 535.5t122 201.5q2 0 4 1t4 1q20 0 30.5 -30.5t14.5 -67.5q2 -18 3 -35.5t1 -32.5q0 -18 -1 -32.5t-5 -26.5q-6 -12 -13.5 -27.5t-21.5 -36.5q-262 -424 -315.5 -594t-53.5 -196v-4v-4 v-1v-1q0 -12 1 -20.5t6 -8.5q16 0 110 86t303 446q63 111 108.5 196t88.5 159q18 33 36.5 63.5t39.5 61.5q6 8 12 17t12 17q6 10 11.5 18.5t9.5 12.5t7 6t7 2q16 0 27.5 -9t17.5 -19q0 -2 2 -4t2 -5q6 -10 10 -18t11 -16q6 -12 10 -26.5t4 -33.5q0 -8 -1 -16t-5 -19 q-8 -14 -14.5 -25t-10.5 -20q-2 -2 -2 -3v-1q-8 -14 -17 -29.5t-26 -41.5q-14 -25 -29.5 -51.5t-29.5 -53.5q-39 -76 -78 -161t-72 -171q-45 -123 -74.5 -239.5t-29.5 -204.5q0 -33 10 -53.5t43 -20.5q16 0 40 7.5t48 19.5q16 8 32.5 18.5t31.5 20.5l12 8t10 8 q14 10 23.5 16.5t11.5 4.5q0 -10 -29.5 -78t-66.5 -146l-4 -8l-4 -8q-31 -63 -57.5 -119.5t-39.5 -77.5q-96 -168 -201.5 -283.5t-242.5 -115.5q-45 0 -70.5 21.5t-32.5 46.5q0 6 -1 10t-1 8q0 23 17.5 67t93.5 167q12 20 17.5 28t9.5 15q0 2 1 3l1 1q23 39 31 48t10 9 q4 0 6 -1t2 -3v-3v-3v-6v-4q-2 0 -3 -3.5t-3 -5.5q-2 -4 -5 -7t-8 -9q-4 -8 -9 -19.5t-5 -29.5q0 -35 11.5 -47.5t23.5 -14.5h7h7q68 0 163 75t204 294q-14 -14 -31.5 -28.5t-36.5 -26.5q-23 -14 -44 -23.5t-36 -9.5q-10 0 -20 4t-23 10q-18 12 -36.5 30.5t-28.5 39.5 q-4 10 -7 19.5t-3 17.5q0 45 10 103.5t31 121.5q18 55 28 86t19 53q0 4 1 6.5t3 6.5q6 14 12 29.5t14 35.5q4 10 8.5 20.5t8.5 18.5v2q8 20 17 44t22 61l-25 -35q-2 -4 -6 -8.5t-6 -8.5t-4 -6l-4 -4q-8 -10 -16.5 -20.5t-14.5 -18.5q-2 -4 -5 -8t-7 -8q-12 -18 -27.5 -40 t-42.5 -58q-20 -29 -42 -58t-42 -55q-113 -143 -212 -240.5t-132 -97.5q-4 0 -8 1t-8 3q-16 10 -31 33.5t-21 50.5q-2 10 -4 20.5t-2 18.5q0 39 27.5 128t64.5 187q6 16 11.5 31.5t11.5 32.5q29 72 54.5 135t41.5 100q-145 -188 -249.5 -308t-164.5 -183q-14 -16 -23 -25.5 t-18 -19.5q-4 -4 -9 -10.5t-11 -12.5q-25 -29 -40 -45t-30 -31q0 -2 -1 -2t-1 -2l-21 -21l-26 -26q-33 -33 -42 -43t-13 -10t-10 4t-11 10q-10 12 -19 30.5t-17 39.5q-6 16 -9.5 32.5t-3.5 28.5q0 14 14.5 36t49.5 73q297 432 367.5 649t70.5 264q0 29 -12.5 34t-28.5 5 q-106 0 -192 -33.5t-144 -72.5q-39 -29 -61.5 -55.5t-22.5 -40.5q0 -2 1 -5.5t5 -5.5q6 -6 20.5 -13t29.5 -11q18 -8 34.5 -12.5t20.5 -4.5q-45 -14 -83 -24t-73 -15q-12 -2 -24.5 -3t-24.5 -1q-55 0 -77.5 14.5t-26.5 32.5q-4 8 -4 15.5z" />
<glyph unicode="&#x42a;" horiz-adv-x="954" d="M150 979q0 31 8 62.5t24 62.5q35 72 95.5 139.5t128.5 114.5q18 14 38.5 26.5t38.5 20.5q-10 -10 -13 -20.5t-3 -20.5v-5t2 -5v-4v-4t2 -3.5t6 -1.5q10 0 38 11.5t83 44.5q8 4 15.5 8t15.5 10q45 25 98 46.5t117 21.5q49 0 73.5 -21.5t34.5 -48.5q6 -16 8.5 -30.5 t2.5 -24.5v-3v-3q-4 -45 -51.5 -108.5t-151.5 -221.5q-125 -188 -198 -372.5t-73 -354.5q0 -63 13.5 -90t27.5 -35q6 -2 10.5 -3t8.5 -1q18 0 39.5 17.5t42.5 43.5q14 18 28.5 39t28.5 41q16 29 31.5 55.5t25.5 47.5q8 14 16.5 29.5t16.5 31.5q12 27 24.5 53.5t22.5 53.5 q12 35 20.5 67.5t8.5 63.5v8v10v9v12q0 23 -6 41t-29 18q-8 0 -20.5 -4t-24.5 -10q-8 -4 -16 -9.5t-17 -11.5l-7 -7t-7 -5q8 20 28.5 49t45.5 57q23 25 47 48.5t49 43.5q33 25 63.5 40.5t55.5 15.5q31 0 37 -39t6 -92q0 -63 -15.5 -122t-35.5 -110q-2 -10 -5.5 -19t-7.5 -18 q-16 -45 -30.5 -76.5t-26.5 -58.5q-4 -8 -9 -16t-9 -17q-4 -8 -9.5 -16t-9.5 -16q-20 -35 -53 -81t-72 -95q-31 -35 -62.5 -70t-64.5 -66q-49 -45 -96 -73.5t-86 -28.5q-12 0 -25.5 4t-29.5 14q-31 18 -56.5 62.5t-25.5 120.5q0 158 72.5 351t240.5 517q29 57 36 79.5 t7 33.5q0 8 -8 11t-19 5h-7h-7q-18 0 -38.5 -6t-43.5 -14q-18 -8 -35.5 -17.5t-31.5 -17.5q-8 -6 -16.5 -11.5t-14.5 -9.5q-113 -80 -163 -147.5t-87 -83.5q-4 -2 -9 -3t-9 -1h-3h-4q-14 2 -27 21.5t-13 70.5z" />
<glyph unicode="&#x42b;" horiz-adv-x="1327" d="M150 268q0 68 46 210.5t214 430.5q8 12 13 20.5t11 16.5q0 2 1 3t1 3l13.5 22.5t17.5 31.5q12 20 22.5 38.5t18.5 34.5q2 2 4 5t4 8q12 20 25.5 41.5t31.5 50.5q-59 -55 -106 -97.5t-92 -68.5q-29 -16 -58.5 -24.5t-62.5 -8.5h-11h-14q-2 0 -5 1t-7 1q33 31 83 77t103 99 l13.5 13.5l13.5 13.5q51 51 97 99t75 83q33 39 52.5 60.5t33.5 21.5q6 0 12.5 -3t10.5 -7q18 -14 34.5 -42t24.5 -59q4 -12 6 -25t2 -26q0 -27 -22.5 -57.5t-67.5 -89.5q-199 -260 -292 -483.5t-93 -376.5q0 -47 11.5 -83t25.5 -36q27 0 68 38t84 97q41 57 79.5 130 t65.5 147q6 14 10 28.5t8 28.5q-12 -6 -24.5 -8t-22.5 -2q-29 0 -41 21.5t-16 45.5q-2 14 -2 26.5v22.5v3v4q0 20 16.5 47.5t40.5 56.5q20 20 43 40.5t47 39.5q39 31 76 51.5t55 20.5q23 0 40.5 -35t21.5 -76q2 -8 2 -16.5v-16.5q53 43 99 83t85 77q57 55 107.5 111.5 t97.5 125.5q35 53 46 67.5t15 14.5t9.5 -1t9.5 -3q20 -10 39.5 -38.5t27.5 -59.5q2 -8 3.5 -16.5t1.5 -16.5v-3v-3q-2 -12 -11.5 -26.5t-21.5 -36.5q-31 -55 -70 -130t-78 -159q-16 -35 -32.5 -70t-32.5 -69q-63 -143 -110.5 -276.5t-47.5 -205.5q0 -35 10.5 -56.5 t22.5 -31.5q4 -4 10 -6t10 -2q18 0 42 17.5t48 41.5q10 10 20.5 21.5t20.5 21.5q25 29 44.5 53.5t29.5 39.5q10 16 18.5 29.5t14.5 17.5q2 0 4 1t4 1q10 0 15.5 -5.5t5.5 -11.5q0 -25 -40 -94t-100 -147q-23 -31 -47 -60.5t-51 -56.5q-51 -57 -100 -95t-84 -38q-8 0 -17.5 3 t-19.5 9q-27 16 -48.5 52t-21.5 83q0 66 14.5 151t59.5 202q0 2 1 3t1 3q20 51 41.5 101t42.5 99q72 160 131 276t59 122q0 12 -64.5 -61.5t-248.5 -200.5q-6 -20 -13 -40t-16 -38q-47 -119 -117.5 -231.5t-146.5 -200.5t-147.5 -142.5t-118.5 -54.5q-57 0 -102 81t-45 187z " />
<glyph unicode="&#x42c;" horiz-adv-x="784" d="M127 268q0 82 38 185.5t93 210.5q16 33 32.5 64.5t33.5 62.5q2 2 3 5t3 5q35 63 53 96t33 59q8 14 16 28.5t19 33.5q14 23 25 42l22 38q2 2 3 5t3 7q10 18 21.5 39.5t25.5 48.5q-72 -80 -128 -129t-110 -70q-20 -8 -40.5 -11t-41.5 -3h-17t-19 2q33 29 83 76t103 100 q6 6 13 12.5t14 12.5q51 51 97 99t75 83q33 41 52 62.5t34 21.5q6 0 14 -3t14 -9q14 -12 27.5 -28.5t19.5 -35.5q2 -8 4.5 -16t2.5 -14q0 -53 -39 -121t-113 -174q-27 -37 -59.5 -88.5t-67.5 -110.5q-51 -88 -98 -193.5t-72 -211.5q-10 -41 -15 -82t-5 -82q0 -47 10 -83 t24 -36q29 0 66 35t78 90q31 43 62.5 97t58.5 110q31 70 51 136t20 114v8v10q-2 10 -4 20.5t-8 10.5t-11 -2t-12 -4q-8 -4 -17 -12.5t-17 -16.5q-14 -12 -26.5 -22.5t-18.5 -10.5q-2 0 -5.5 4t-3.5 15q0 16 27 49.5t65 72.5q12 14 28 27.5t30 26.5q37 33 72.5 56.5 t56.5 23.5q16 0 31.5 -23t23.5 -49q2 -10 4 -20.5t2 -18.5q0 -68 -41 -179.5t-106 -232.5q-47 -92 -105.5 -179t-117.5 -155q-59 -66 -115.5 -106.5t-106.5 -40.5q-57 0 -102 81t-45 187z" />
<glyph unicode="&#x42d;" horiz-adv-x="1302" d="M150 1004q0 199 145 300t321 134q47 8 94.5 12t90.5 4q248 0 352 -105.5t133 -230.5q8 -37 11 -73.5t3 -69.5q0 -18 -1 -36.5t-3 -35.5q0 -8 -1 -15t-1 -16q23 -8 50.5 -26.5t60.5 -52.5q2 -6 2 -12.5v-12.5q0 -16 -5 -36.5t-18 -49.5q-33 29 -60.5 41t-53.5 16 q-63 -238 -182 -384t-250 -226q-129 -80 -247 -106.5t-181 -26.5q-109 0 -160 33.5t-51 128.5q0 23 4 51.5t10 60.5q45 -10 92 -16t98 -6q35 0 70 3t72 7q207 35 391 163t254 349q-33 6 -69 10t-72 4q-104 -2 -202.5 -32.5t-170.5 -89.5q14 -14 24.5 -23.5t16.5 -20.5 q6 -6 10 -13t8 -15q2 -2 3 -4t1 -4q-20 2 -41.5 5t-42.5 7q-88 16 -159.5 46t-71.5 93t123 117.5t270 73.5q29 2 55.5 4t53.5 2q51 0 86 -1t65 -5q14 -2 27.5 -4t30.5 -5q18 -4 28.5 -6t18.5 -2q0 -2 1 -2h3t5 -1t5 -1q0 152 -117.5 211.5t-257.5 69.5q-23 0 -43 1t-41 1 q-106 0 -177 -22.5t-114 -49.5q-25 -16 -42 -31.5t-29 -25.5q35 -18 59.5 -25.5t38.5 -9.5q-76 -70 -139.5 -90.5t-95.5 -20.5q-57 0 -72.5 18.5t-15.5 74.5z" />
<glyph unicode="&#x42e;" horiz-adv-x="2027" d="M150 981v7v7q0 231 139 304t342 116q6 0 12 1t12 3q18 4 30.5 7.5t23.5 5.5h3h1q6 2 13 4t15 4q14 4 26.5 6t23.5 6q23 4 46 7t62 5q27 2 60.5 4t80.5 5q18 2 38 2t40 -2q57 -4 84 -40t27 -149q0 -37 -10.5 -76t-47.5 -90l-294 -411q74 12 132 20t111 12q16 0 33.5 1 t34.5 1q59 147 145 261t178 198q117 104 222.5 158.5t154.5 64.5q6 2 12.5 2h10.5h9t7 -2q6 -2 11.5 -5t11.5 -7q25 -18 47 -57t39 -80q6 -12 10 -25.5t6 -25.5q-49 -6 -86 -22.5t-65 -39.5q6 2 12 2h14q72 0 116 -62.5t44 -164.5q0 -72 -17.5 -153t-50.5 -165 q-88 -229 -266 -420.5t-375 -191.5q-25 0 -47 4t-43 17q-8 6 -17 11t-18 13q-63 53 -101 150.5t-38 208.5v19t2 20q0 8 1 18t3 18q-33 0 -61.5 -2t-57.5 -4q-59 -6 -128.5 -15t-190.5 -24q-27 -31 -46.5 -56.5t-35.5 -49.5q-4 -4 -8 -9.5t-6 -9.5q-8 -12 -17.5 -25.5 t-19.5 -27.5q-70 -96 -96.5 -144t-26.5 -83v-8t2 -9q0 -6 2 -10l4 -8q-35 2 -63.5 27.5t-38.5 54.5q0 6 -1 11t-1 9q0 43 52 123t150 213q-12 -2 -25 -3t-28 -1h-3h-3q-39 2 -72.5 12.5t-33.5 34.5q0 18 7 50t19 65q4 14 9.5 28.5t11.5 26.5q6 20 14 38t14 28 q-2 -41 30 -51.5t126 -10.5q18 0 34.5 1t31.5 6q14 4 28.5 9t30.5 13l276 367l1 1t1 3q4 6 10.5 16t22.5 35q4 6 11.5 16.5t13.5 24.5q8 12 14 25.5t10 27.5q2 10 4.5 20.5t2.5 18.5q0 45 -21.5 57.5t-48.5 12.5h-9h-12h-4h-4q-45 0 -96 -8.5t-104 -22.5q-94 -27 -182.5 -71 t-145.5 -97q-2 -4 -3 -8t-3 -8q0 -6 -1 -10.5t-1 -8.5q0 -6 1 -12t3 -12l-279 -172q-6 6 -10 11t-6 9q-12 18 -13 36.5t-1 45.5zM1262 274q0 -57 16 -89.5t35 -47.5q12 -10 23.5 -14t19.5 -4q49 0 120.5 47t147.5 125q78 80 149.5 180t120.5 205q33 70 52.5 139.5 t19.5 130.5q0 59 -17.5 92t-64.5 33q-35 0 -72.5 -15.5t-74.5 -41.5q-47 -33 -93.5 -76t-84.5 -90q-33 -37 -59.5 -73t-47.5 -64l-39 20q-37 -47 -67.5 -114.5t-51.5 -139.5q-16 -55 -24 -107.5t-8 -95.5z" />
<glyph unicode="&#x42f;" horiz-adv-x="1056" d="M-78 2q0 6 1 12t1 11v3v1q0 8 1 15t1 13q0 20 2 37t9 31q8 27 32.5 57.5t77.5 79.5q8 8 18.5 17.5t20.5 19.5q23 20 41 37.5t25 23.5q10 -14 21 -19t26 -5h4t6 2q12 2 26.5 13t38.5 28l480 340l20 45q-27 -2 -46 -6t-36 -8q-12 -2 -25.5 -5.5t-27.5 -7.5 q-104 -25 -165.5 -28.5t-106.5 -3.5h-5.5h-5.5q-86 0 -119.5 55t-33.5 153q0 20 3 42t7 44q33 147 157 281.5t265 208.5q59 31 116.5 48t108.5 17q88 0 136 -59t71 -131q16 -51 21.5 -98t5.5 -72q0 -51 -36 -114.5t-95 -184.5q14 2 22 3t16 1h3h4h4t4 2h4h4q6 0 12 1t13 3h3 t1 2h3h1h3h1q2 -2 3 -2h1q4 -2 5 -8t1 -12q0 -20 -12 -34.5t-27 -25.5q-4 -2 -7 -4t-5 -4q-33 -20 -70 -48t-80 -64q-82 -207 -96 -287t-14 -107q0 -33 11 -48t26 -21q6 -2 13 -3t11 -1q12 0 23.5 6t23.5 16q8 6 16.5 14.5t18.5 16.5q2 4 5 7l7 7l13.5 13.5l11.5 11.5l1 1 l1 1q12 12 27.5 29.5t44.5 54.5q23 31 35 43t20 12q10 0 16.5 -6t6.5 -14q0 -37 -36 -89.5t-87 -109.5q-25 -25 -52.5 -51.5t-54.5 -48.5q-72 -63 -135 -107.5t-86 -44.5q-6 0 -16.5 3t-20.5 9q-16 10 -30.5 33t-14.5 61q0 39 5 78t14 78q6 18 11 39t11 39q0 2 1 5t3 7 q16 47 35.5 101.5t56.5 130.5l-663 -572q-29 -23 -43.5 -36t-26.5 -15h-1h-3q-20 0 -27.5 13.5t-9.5 27.5zM352 879q0 -4 1 -8.5t3 -8.5q6 -16 19.5 -25.5t25.5 -15.5q12 -4 23.5 -5t19.5 -1q39 0 67 3t52 7q2 0 4 1t6 1q2 0 6.5 1t8.5 1l223 33l121 285q8 16 14 41.5 t6 54.5q0 39 -17 57.5t-38 22.5q-6 2 -11 2h-9q-43 0 -92.5 -16.5t-100.5 -44.5q-68 -39 -132.5 -91.5t-111.5 -107.5q-33 -39 -54 -75t-30 -68q-2 -8 -3 -17.5t-1 -17.5v-4v-4z" />
<glyph unicode="&#x430;" horiz-adv-x="755" d="M0 248q0 80 38 150.5t83 123.5q31 37 59.5 63.5t44.5 41.5q16 14 39 31.5t49 35.5q20 14 44 28.5t46 29.5q45 25 88.5 41t73.5 16q27 0 46.5 -15.5t29.5 -33.5q2 -6 4 -12.5t2 -12.5q0 -12 -5 -21t-11 -16q-4 -6 -7 -9t-6 -5l-3 -3l-1 -1l-1 -1l-1 -1l-5 -5t-7 -9 q2 -2 3 -5.5t1 -7.5q6 -14 12.5 -27.5t10.5 -25.5q4 -10 6 -21.5t2 -21.5q0 -27 -17.5 -58.5t-44.5 -80.5q-27 -53 -46 -95t-19 -83q0 -33 10 -50.5t23 -23.5q8 -4 14 -5t10 -1q10 0 34 9t71 48q6 4 8 6l4 4q2 0 2 1v1l1 1t3 1q4 2 6 4.5t6 6.5t10.5 9t10.5 11q2 2 4 3t2 3 q6 4 10 7t11 3q4 0 6 -4t2 -8q0 -12 -27 -48t-98 -120q-57 -70 -102.5 -101.5t-79.5 -31.5q-4 0 -10.5 1t-10.5 1q-25 8 -46.5 31.5t-21.5 73.5q0 31 7.5 78t29.5 104q2 4 3 7t3 5q0 2 1.5 4t1.5 4q4 10 8 22.5t12 35.5q-12 -16 -20.5 -26.5t-14.5 -18.5q-2 -2 -2 -3t-2 -1 q-2 -4 -6 -8.5t-8 -8.5q-6 -6 -10.5 -12t-8.5 -10q-6 -8 -11 -15.5t-15 -19.5q-12 -14 -35 -41t-51 -57q-10 -10 -20.5 -19.5t-20.5 -19.5q-29 -29 -57.5 -49.5t-49.5 -20.5q-31 0 -51 44t-31 95q-6 31 -9 59.5t-3 49.5zM92 222q0 -5 2 -9q2 -12 7 -23.5t14 -15.5l1 -1t3 -1 h3h1h7t7 2q10 2 19.5 7t19.5 9q23 12 43.5 30t40.5 36q16 12 29.5 25.5l25.5 25.5t34 36t42 50q8 10 16.5 20.5t16.5 20.5q25 35 42 65.5t17 51.5q0 12 -6 17t-12 7q-4 2 -9 2.5t-7 0.5q-29 0 -68 -14.5t-80 -37.5q-78 -49 -143.5 -128t-65.5 -167v-9z" />
<glyph unicode="&#x431;" horiz-adv-x="530" d="M0 248q0 51 12.5 117.5t32.5 136.5q16 57 35.5 112.5t38.5 100.5q10 25 20.5 45t20.5 37q25 45 51.5 79.5t52.5 61.5q68 68 132.5 94.5t103.5 38.5q23 6 40 12.5t29 12.5q18 8 28.5 18t18.5 23l1 2t4 4q0 2 1 3l1 1q4 6 9 10t13 4q2 0 5 -2t5 -10q6 -8 9.5 -29.5 t3.5 -62.5q-2 -63 -19.5 -94t-107.5 -50q-164 -35 -271.5 -111.5t-138.5 -240.5q27 31 56.5 57.5t60.5 49.5q61 45 119.5 68.5t99.5 23.5q59 0 74.5 -53.5t15.5 -139.5q0 -16 -1 -30.5t-3 -28.5q-8 -49 -39 -106.5t-102 -151.5q-8 -10 -15.5 -19.5t-15.5 -19.5 q-18 -25 -38.5 -48.5t-43.5 -45.5q-47 -49 -91 -83t-75 -34q-6 0 -12 2t-10 4q-31 16 -57.5 62.5t-41.5 97.5q-6 20 -9 41.5t-3 40.5zM125 252q0 -4 1 -15.5t3 -21.5q2 -16 8 -28.5t19 -12.5q12 0 30.5 11.5t38.5 27.5q4 4 10.5 8t10.5 10q25 18 42 36t19 20q23 23 46.5 49 t43.5 55q39 51 64.5 98.5t25.5 71.5q0 18 -10 25.5t-24 7.5q-20 0 -43 -7t-48 -20q-23 -12 -44 -26.5t-39 -30.5q-12 -8 -21.5 -16.5t-17.5 -16.5q-10 -10 -22.5 -24.5t-27.5 -32.5q-25 -33 -45 -76t-20 -92z" />
<glyph unicode="&#x432;" horiz-adv-x="616" d="M23 203q0 190 57 351t125 280q31 51 58.5 93t51.5 74q20 29 62.5 81.5t93.5 111.5q10 12 22.5 25.5t24.5 25.5q59 66 113.5 114t81.5 48q16 0 26.5 -19.5t14.5 -41.5v-7.5v-7.5q0 -70 -88 -241.5t-217 -366.5q-41 -61 -86.5 -122.5t-90.5 -119.5q-8 -10 -15 -20t-15 -21 q-10 -10 -20.5 -21t-20.5 -24q-8 -6 -16.5 -13t-18.5 -15q-2 -18 -3 -43t-3 -50v-43v-38q0 -8 1 -16.5t3 -16.5q4 -23 17.5 -41.5t37.5 -18.5q31 0 60.5 33t48.5 74q4 8 7 16t5 17q-12 16 -16.5 35.5t-4.5 43.5q0 25 9.5 54.5t23.5 60.5q20 39 48 76t57 65q25 25 49 39.5 t43 14.5q16 0 23.5 -14.5t7.5 -30.5v-3v-3q-2 -14 -3.5 -25.5t-1.5 -17.5q0 -20 -4 -38t-10 -34q-6 -12 -11 -24.5t-11 -24.5q-2 -6 -4.5 -11.5t-4.5 -11.5t-4 -11t-4 -11t-5 -13.5t-5 -13.5q-6 -12 -14.5 -26.5t-18.5 -30.5q4 -2 8.5 -4t6.5 -5q12 -6 23 -8t26 -2 q20 0 35.5 5t31.5 14q8 6 18.5 12t20.5 14v-86q-16 -14 -36.5 -26.5t-41.5 -20.5q-12 -4 -23 -6t-24 -2q-8 0 -32.5 5t-55.5 26q-8 -10 -15 -21.5t-13 -21.5q-59 -84 -123 -151.5t-131 -67.5q-10 0 -23.5 3t-26.5 11q-31 20 -56 75.5t-25 174.5zM190 502q43 51 116 147 t179 271q10 14 28.5 44.5t39.5 67.5q4 8 8 16.5t8 16.5q23 43 40.5 82t17.5 59v3v1q-2 6 -6.5 12.5t-10.5 6.5q-12 0 -27.5 -13.5t-33.5 -33.5q-4 -4 -9 -10.5t-10 -12.5q-8 -10 -16 -20.5t-14 -18.5q-18 -27 -63.5 -89t-96.5 -148q-45 -80 -86 -177.5t-64 -203.5z" />
<glyph unicode="&#x435;" horiz-adv-x="522" d="M0 172q0 47 12.5 101.5t32.5 111.5q53 137 150.5 254t203.5 129q6 2 11.5 2h11.5q45 0 65.5 -21.5t26.5 -48.5q2 -8 3 -15t1 -15q0 -33 -16.5 -73t-44.5 -81q-49 -74 -127 -138.5t-162 -88.5q-6 -2 -11 -3t-12 -3q-6 -82 22 -119t62 -41q2 -2 5.5 -2h7.5q25 0 45 9t39 20 q23 14 35 22t22 14q0 2 1 2t3 2q4 4 9 8.5t12 8.5q57 47 76.5 67.5t27.5 20.5h1t3 -2t4 -8t2 -21q0 -12 -15 -35.5t-36 -48.5q-4 -4 -7 -9t-7 -9q-20 -25 -39 -44.5t-25 -27.5t-11 -13l-9 -9q-2 -4 -5 -7.5t-8 -7.5q-4 -4 -7 -8t-7 -6q-37 -39 -87 -69.5t-103 -30.5 q-68 0 -112 62t-44 171zM145 358q20 6 46 22.5t55 37.5q29 23 56.5 50.5t45.5 55.5q16 20 25.5 43t9.5 41q0 29 -7 41.5t-28 12.5q-6 0 -11 -1.5t-11 -3.5q-39 -14 -76 -67t-66 -115q-12 -33 -22 -62.5t-17 -54.5z" />
<glyph unicode="&#x436;" horiz-adv-x="1179" d="M0 61q0 14 3 38t7 48q8 41 21.5 74t27.5 33q4 0 7.5 -1t5.5 -3t5 -4t5 -4q6 -4 15 -8.5t26 -4.5q31 0 70.5 18.5t80.5 49.5q43 35 86 80t76 90q20 31 34.5 59.5t23.5 55.5q2 4 3 7t1 7q2 2 2 6v6q0 4 -1 9.5t-5 7.5q-2 4 -7.5 6t-11.5 2q-29 0 -110.5 -42t-174.5 -126 q-10 -8 -19 -17.5t-17 -17.5q-8 12 -14.5 25.5t-10.5 27.5q-4 16 -6 34t-2 34q0 14 1 27.5t3 23.5q2 6 3 11t1 10q31 31 79 59.5t101 48.5q49 20 96.5 31.5t77.5 11.5q55 0 68.5 -24.5t13.5 -53.5v-3v-3v-5v-5v-6v-10v-7.5t2 -7.5v-7v-7q0 -8 -1 -18.5t-3 -22.5 q37 16 68 38.5t61 55.5q37 41 77 99.5t91 140.5q4 2 21.5 9t38.5 15l8 4t8 2q20 8 39.5 14.5t30.5 6.5h1h1q2 -2 3 -2t1 -2q0 -8 -11.5 -30.5t-27.5 -49.5q-2 -4 -4 -7t-2 -7q-12 -18 -22.5 -34t-16.5 -26q-88 -123 -138.5 -214t-78.5 -148q-10 -16 -17.5 -29.5t-13.5 -26.5 q0 -2 -1 -4l-1 -2q-12 -25 -28.5 -58.5t-47.5 -100.5q33 31 57.5 54t47.5 46q4 4 7 8t7 6q12 12 24.5 25.5t24.5 28.5q203 215 281.5 263t103.5 48q2 0 5 -1t5 -3q6 -6 10.5 -16.5t4.5 -26.5q0 -18 -6.5 -45t-18.5 -56q-20 -49 -57 -90t-84 -41q-6 0 -13.5 1t-15.5 3 t-15 6.5t-14 8.5q-12 -10 -26.5 -24.5t-30.5 -29.5q-18 -23 -36.5 -45t-35.5 -47q-20 -31 -32.5 -60.5t-12.5 -53.5q0 -31 11.5 -39t25.5 -8h2h4h1h1q49 0 92.5 23.5t77.5 49.5q33 29 56.5 51.5t36.5 22.5q4 0 7 -4t3 -8q0 -25 -26.5 -68t-65.5 -92q-18 -20 -38 -43t-40 -41 q-41 -41 -79 -66.5t-63 -25.5q-8 0 -17 4t-19 10q-25 18 -45.5 60.5t-20.5 105.5q0 18 2 39.5t8 42.5q-59 -49 -99 -90t-69 -80q-20 -27 -35.5 -53.5t-29.5 -57.5q-8 -16 -17.5 -34.5t-17.5 -36.5q-20 -43 -28.5 -61.5t-14.5 -33.5q-2 -6 -5 -11t-7 -13q-2 -6 -6.5 -17.5 t-10.5 -21.5t-11 -20.5t-11 -16.5q-4 -4 -8 -7t-9 -3q-12 0 -15 20.5t-3 46.5v12.5v12.5v8v8v9.5v9.5q0 31 1 46t3 28q2 8 6 15t8 15l338 660q-31 -23 -61.5 -43.5t-61.5 -38.5q-23 -39 -59.5 -90t-79.5 -107q-39 -47 -83 -94t-89 -84q-47 -39 -93 -63.5t-87 -24.5 q-31 0 -36 17.5t-5 43.5z" />
<glyph unicode="&#x437;" horiz-adv-x="573" d="M-135 -545q0 63 19.5 119.5t56.5 112.5q31 45 74.5 92t99.5 98q8 6 14 12.5t10 10.5l2 2q12 10 24.5 22.5t33.5 32.5q0 4 1 9t1 9q2 6 2 11.5v9.5q-2 61 -31 111.5t-78 60.5l29 137q27 12 62.5 32.5t72.5 45.5q31 20 62.5 45t58.5 49q31 29 50.5 57.5t19.5 53.5 q0 14 -7.5 20t-25.5 6q-10 0 -19.5 -1t-17.5 -3q-10 0 -20.5 -4t-22.5 -8q-31 -10 -56.5 -21.5t-46.5 -23.5q-102 -53 -137 -97t-55 -44q-6 0 -9 17t-5 36q-2 16 -2 29.5v19.5q0 37 14 64.5t47 54.5q14 12 33.5 24.5t44.5 24.5q6 4 13 7t16 7q23 12 50 23.5t54 19.5 q35 12 67.5 19.5t59.5 7.5q43 0 68.5 -41t35.5 -90q4 -20 6.5 -41t2.5 -37q0 -33 -20.5 -70.5t-53.5 -76.5q-29 -35 -65 -69t-72 -62q-18 -14 -37 -27.5t-35 -26.5q16 -14 26.5 -32.5t18.5 -36.5q16 -37 18 -71t2 -46q98 66 141.5 100.5t47.5 36.5q2 2 5 4t7 6q4 2 9.5 6.5 t11.5 6.5q4 2 8 3t8 1q8 0 12 -8.5t4 -18.5v-1v-3q0 -25 -66.5 -77t-187.5 -142q-27 -121 -86 -234.5t-127 -197.5q-59 -74 -112 -119t-84 -45q-20 0 -31.5 24.5t-13.5 55.5v9v9zM-53 -479v-5v-5q2 -8 3 -13.5t5 -5.5q16 0 47 33t66 86q31 47 58.5 103.5t45.5 113.5 q2 8 4 16.5t4 16.5v-2q-6 -4 -13 -10.5t-13 -12.5q-78 -78 -142.5 -156.5t-64.5 -158.5z" />
<glyph unicode="&#x438;" horiz-adv-x="706" d="M0 276q0 39 13.5 87.5t37.5 99.5q25 55 56.5 107.5t64.5 91.5q29 33 56.5 52t50.5 19h7t7 -2q18 -2 35.5 -14t17.5 -29q0 -20 -17.5 -55t-45.5 -74q-14 -20 -32 -41.5t-36 -40.5q-16 -16 -30.5 -29.5t-28.5 -21.5q-4 -2 -7.5 -5t-7.5 -5q-6 -4 -11 -8.5t-13 -10.5 q-2 -6 -3 -11t-3 -11q-2 -12 -3.5 -23.5t-1.5 -21.5q0 -43 15.5 -73t36.5 -30q14 0 30.5 9.5t38.5 29.5q4 4 9.5 8.5t9.5 8.5q2 0 3 1t1 3q16 12 32.5 29.5t45.5 52.5l290 360q2 2 3.5 4t3.5 4q4 6 9 10.5t13 4.5q4 0 7 -1t8 -6q10 -8 18 -34.5t8 -81.5v-19.5t-4 -7.5 q0 -2 -1 -3l-3 -3l-145 -199q-2 -2 -4.5 -6t-6.5 -6q-16 -25 -29.5 -60.5t-13.5 -80.5q0 -33 7.5 -50.5t15.5 -25.5q6 -6 12 -7t8 -1q10 0 24.5 6t29.5 14q6 2 12 6t12 9q8 6 15.5 11l13.5 9q39 29 49 39t14 10h3t1 -2q4 -2 6.5 -5t2.5 -9q0 -23 -26 -57.5t-63 -73.5 q-14 -14 -31.5 -30.5t-35.5 -31.5q-49 -43 -92 -70.5t-58 -27.5h-3h-3q-23 2 -42 26.5t-19 86.5q0 18 2 43.5t6 50.5q2 16 4 32.5t4 30.5q2 10 4 20.5t4 18.5q-127 -205 -184 -237.5t-76 -32.5q-39 0 -68.5 83t-29.5 197z" />
<glyph unicode="&#x439;" horiz-adv-x="737" d="M0 270q0 57 9 96.5t28 75.5q8 16 18.5 35t22.5 39q8 14 16 29.5t17 29.5q33 59 72.5 108.5t92.5 49.5h7.5t7.5 -2q18 -2 35.5 -14t17.5 -29q0 -20 -17.5 -55t-43.5 -74q-16 -20 -33 -40.5t-33 -39.5q-16 -16 -31.5 -29.5t-29.5 -23.5q-4 -2 -8.5 -5t-6.5 -5h-3t-1 -2 q-4 -2 -9 -6.5t-13 -10.5q-2 -10 -4 -21t-5 -24v-11v-11q0 -39 12.5 -71t37.5 -32q14 0 35.5 14.5t44.5 34.5q8 6 16 13.5t16 15.5q18 18 33.5 35.5t24.5 28.5l290 360q2 2 3.5 4t3.5 4q4 6 9 10.5t13 4.5q4 0 7 -1t7 -6q10 -8 18.5 -34.5t8.5 -81.5v-19.5t-2 -7.5t-2 -3 t-2 -3l-148 -199q-2 -2 -4 -6t-6 -6q-16 -25 -29.5 -60.5t-13.5 -80.5q0 -35 10.5 -59.5t34.5 -24.5q10 0 24.5 6t31.5 14q6 4 13 9.5t15 9.5q10 8 20.5 15t16.5 13q27 23 36 30t11 7h3t1 -2q4 -2 6.5 -5t2.5 -9t-8.5 -26.5t-61.5 -78.5l-1 -1l-1 -1l-5 -5l-7 -7 q-106 -119 -152.5 -145.5t-69.5 -26.5h-7t-7 2q-18 4 -35.5 28.5t-17.5 82.5q0 18 2 43.5t6 50.5q2 16 4 32.5t4 30.5q2 10 4 20.5t4 18.5q-14 -23 -30.5 -48t-36.5 -52q-14 -23 -31.5 -44.5t-34.5 -41.5q-33 -37 -63.5 -60.5t-55.5 -23.5q-8 0 -20 4t-27 20 q-20 25 -38.5 82.5t-18.5 167.5zM401 946q0 35 19.5 62.5t44.5 44.5q14 8 26.5 13t20.5 5q10 0 15 -6t5 -16q0 -6 -1 -12.5t-1 -14.5q-2 0 -2 -2v-4q-2 -8 -3 -16.5t-1 -14.5q0 -20 13.5 -34.5t35.5 -14.5q10 0 23.5 5t26.5 15q10 4 18 11.5t16 13.5q6 6 12.5 11t10.5 9 q8 6 14 11.5t11 7.5q4 2 7 3t5 1q4 0 9 -3t7 -7q2 -2 3 -5t1 -8v-3v-3q0 -16 -20.5 -41.5t-50.5 -54.5q-12 -12 -26.5 -24.5t-29.5 -22.5q-37 -29 -69.5 -48.5t-46.5 -19.5q-8 0 -17.5 2t-17.5 9q-23 12 -40.5 47t-17.5 104z" />
<glyph unicode="&#x43a;" horiz-adv-x="718" d="M0 213q0 106 21.5 173t48.5 124l6 12l4 8q2 2 3 5.5t3 7.5q18 39 29.5 61.5t21.5 38.5q2 4 4 6t4 6t6.5 10.5t8.5 12.5t7 11t5 9q4 6 8 13.5t13 19.5q2 4 7 13.5t13 17.5l8 12t10 10q6 6 12.5 10.5t10.5 4.5q12 0 21.5 -27t13.5 -57q4 -16 5 -31.5t1 -28.5q0 -14 -1 -23 t-5 -20q-6 -12 -16.5 -25.5t-26.5 -33.5q-88 -106 -114 -179t-23 -112v-16t2 -13q39 63 83 122t87 112q106 125 202.5 201.5t139.5 76.5q4 0 10 -3t14 -9q10 -10 20.5 -32.5t10.5 -59.5q0 -20 -1 -40.5t-3 -41.5q-6 -49 -21.5 -96t-48.5 -80q-8 0 -20.5 2t-24.5 6 q-20 8 -38.5 21.5t-18.5 33.5q0 6 3 11.5t7 9.5l3 3l3 3l4 4l4 4q6 4 10.5 12.5t6.5 18.5q2 4 2 7v7v1v3q-2 2 -2 4v1q-2 8 -9.5 13t-17.5 5q-20 0 -51 -22.5t-64 -57.5q-14 -14 -27.5 -28.5t-25.5 -30.5q-20 -23 -37.5 -46.5t-29.5 -41.5q41 -16 65.5 -46t48.5 -65 q0 -2 2 -5t4 -5q23 -37 44.5 -65.5t43.5 -28.5q20 0 48 19.5t77 59.5q20 18 29.5 26.5t15.5 14.5q4 2 8.5 6.5l8.5 8.5l16 16t13 6q4 0 8 -4t4 -10q2 -2 2 -3v-3q0 -12 -17.5 -41t-39.5 -62q-4 -6 -9.5 -12t-9.5 -12q-18 -23 -34.5 -42.5t-26.5 -29.5q-8 -8 -19.5 -18.5 t-23.5 -20.5q-18 -12 -40 -26.5t-44 -22.5q-12 -6 -25.5 -9t-26.5 -3q-43 0 -71.5 27.5t-46.5 60.5q-12 20 -19.5 39.5t-11.5 32.5q-6 14 -11 27.5t-12 23.5q-10 18 -20 31.5t-29 21.5l-131 -201l-1 -2t-3 -2q0 -2 -1 -2t-1 -2q-2 -2 -4 -3l-2 -1q-4 0 -8 5t-8 15 q-8 23 -15.5 68t-7.5 125z" />
<glyph unicode="&#x43d;" horiz-adv-x="778" d="M0 -29q0 39 10 85t31 96q29 78 76 150.5t98 117.5l121 280q-14 -16 -26.5 -27t-24.5 -22l-4 -4t-5 -4q-8 -6 -16 -14t-18 -17q-8 -6 -27.5 -22.5t-42.5 -34.5q-2 -2 -6 -5t-6 -5q-25 -16 -45.5 -30.5t-32.5 -18.5h-2h-2h-1h-1h-2l-1 1l-1 1l-3 3t-1 3v4t2 2q2 10 12 20.5 t33 28.5q25 25 59.5 61.5t71.5 77.5q8 8 15 16.5t15 18.5q39 47 74 91t53 73q12 18 19.5 27.5t13.5 13.5q6 2 12.5 3t14.5 1q33 0 45 -9t14 -20q2 -4 2 -8v-8q0 -25 -4 -40t-12 -28q-14 -25 -40 -59.5t-58 -126.5q-2 -6 -5.5 -12t-5.5 -10q-4 -8 -8 -18.5t-10 -27.5 q-2 -4 -4 -9t-2 -9q-6 -14 -12.5 -29.5t-16.5 -44.5q27 6 48.5 8.5t39.5 2.5q20 0 35.5 -1t26.5 -6q10 23 26.5 57t34.5 68q10 18 21.5 37t21.5 35q23 37 44.5 60.5t37.5 23.5t23.5 -23.5t9.5 -52.5v-19v-18q0 -29 -4 -43t-13 -24q-4 -4 -8 -9.5t-10 -11.5 q-10 -12 -22.5 -26.5t-22.5 -30.5q-14 -20 -28.5 -43t-26.5 -45q-18 -35 -31.5 -67.5t-16.5 -57.5v-9v-9v-5v-2v-4v-4q4 -27 17.5 -38t32.5 -11h8t8 2q29 4 55.5 21.5t46.5 40.5q23 25 40.5 40t25.5 15q4 0 8 -6t4 -17q0 -10 -12 -29.5t-29 -41.5q-4 -6 -8 -11.5t-8 -9.5 q-12 -14 -22.5 -25.5t-18.5 -19.5q-6 -8 -11 -13t-7 -9t-5.5 -7.5l-7.5 -7.5q-6 -8 -9 -13t-7 -7l-3 -3t-1 -3q-2 -2 -5 -4.5t-8 -6.5l-4 -4l-4 -4l-5 -5t-7 -9q-18 -20 -43 -37.5t-49 -30.5q-12 -4 -24.5 -7t-24.5 -3q-6 0 -15.5 1t-19.5 5q-18 8 -32.5 27.5t-14.5 58.5 q0 35 16.5 104.5t79.5 217.5q-2 0 -6 1t-6 1q-4 2 -7.5 2h-7.5q-12 0 -26.5 -3t-26.5 -7q-29 -8 -54.5 -21.5t-45.5 -30.5q-6 -16 -13.5 -29.5t-13.5 -27.5v-2v-2q-8 -14 -14 -29.5t-15 -34.5q-4 -10 -9 -21t-11 -24q-10 -25 -20.5 -48t-20.5 -46q-37 -80 -73 -134t-66 -54 q-14 0 -21.5 12t-9.5 29q-2 6 -2 13v13z" />
<glyph unicode="&#x43e;" horiz-adv-x="589" d="M0 270q0 25 4 49.5t12 49.5q27 90 92.5 174t137.5 137q43 33 84 51.5t73 18.5q29 0 49.5 -11.5t30.5 -23.5q4 -8 7.5 -14.5t3.5 -10.5v-8v-6q-2 -4 -2 -8v-9q0 -2 -2 -3l-1 -1q-2 -2 -2 -4v-4t-1 -4t-1 -4q23 -8 34 -24.5t16 -34.5q2 -16 3 -29.5t1 -24.5q0 -18 -2 -36.5 t-7 -34.5q-2 -8 -4 -18.5t-4 -18.5q-10 -37 -23.5 -74t-29.5 -70q-2 -4 -3 -8t-1 -8q0 -14 11 -24.5t26 -10.5q12 0 22.5 6.5t16.5 12.5q4 2 6 4l4 4q4 4 10 7t12 3q10 0 13.5 -4t3.5 -10q0 -10 -8.5 -23.5t-22.5 -29.5q-27 -25 -64.5 -45.5t-80.5 -22.5h-9.5h-11.5 q-59 -88 -114.5 -118t-100.5 -30q-66 0 -103.5 51.5t-56.5 114.5q-10 35 -14 69t-4 58zM113 188q0 -8 1 -17t5 -21q6 -18 23.5 -34t52.5 -16q20 0 57 16.5t84 69.5q-8 25 -12.5 48.5t-4.5 46.5q0 29 5.5 54t11.5 50q25 82 38 111.5t13 44.5q0 6 -5 11t-11 7q-2 2 -4 2h-5 q-12 0 -30.5 -12t-38.5 -29q-6 -6 -13.5 -12t-13.5 -12q-18 -18 -32.5 -35t-20.5 -25t-13 -17l-14 -18q-33 -45 -53 -95t-20 -118z" />
<glyph unicode="&#x43f;" horiz-adv-x="724" d="M0 193v15v13v14.5v12.5q2 45 16.5 83t32.5 75q10 18 22.5 38.5t24.5 40.5q31 51 51.5 83t38.5 50q14 14 29.5 20.5t36.5 6.5q33 0 45 -10t14 -23v-4v-4q0 -10 -5 -20.5t-9 -18.5q-4 -4 -8 -9t-6 -7q-6 -6 -14.5 -18.5t-18.5 -26.5q-6 -10 -13.5 -19.5t-13.5 -17.5 t-10 -15.5t-6 -11.5l-3 -3l-1 -1q-2 -4 -6 -8t-9 -10q-4 -4 -14 -17.5t-22 -31.5q-2 -4 -6.5 -10.5t-8.5 -10.5q-8 -16 -15 -30.5t-7 -24.5q0 -6 1 -16.5t3 -20.5q2 -8 4 -17.5t4 -15.5q27 37 46.5 60.5t37.5 44.5q6 8 13 15t14 15q14 16 22 25.5t14 15.5l8.5 8.5t8.5 10.5 q18 23 51 56.5t70 68.5l21 21t24 22q49 45 95 77.5t71 32.5q20 0 28 -14t11 -33q2 -8 2 -16v-15q0 -49 -20.5 -90t-47.5 -79q-2 -6 -6 -11.5t-6 -9.5q-8 -12 -15.5 -23.5t-15.5 -23.5q-41 -68 -51 -105.5t-10 -58.5q0 -33 13 -47t36 -14q27 0 53.5 17t46.5 38q6 8 12 15 t13 14q12 14 24 25t23 11h3t1 -2q4 -2 6 -7t2 -17q0 -6 -1 -11.5t-5 -9.5q-2 -8 -8 -15t-15 -17q-16 -20 -37.5 -46t-46.5 -51q-16 -18 -32.5 -34.5t-34.5 -32.5q-39 -35 -78 -60.5t-66 -25.5h-7t-7 2q-25 4 -45 28.5t-20 79.5q0 18 7 59.5t33 94.5q4 6 7.5 13t7.5 14 q29 47 51.5 78.5t22.5 54.5v5t-2 7q-2 8 -9.5 14t-21.5 6q-6 0 -13.5 -2t-15.5 -4q-25 -10 -49.5 -33.5t-46.5 -50.5q-2 -4 -5 -7l-7 -7q-49 -61 -74 -95t-43 -63l-4 -8l-4 -8q-6 -10 -12.5 -21.5t-12.5 -25.5q-10 -18 -20.5 -34.5t-18.5 -29.5q-6 -6 -13 -10t-13 -4 q-31 0 -45.5 47t-18.5 103q0 10 -1 21t-1 22z" />
<glyph unicode="&#x440;" horiz-adv-x="761" d="M-113 -381q0 16 6.5 54t16.5 81q0 4 1 10.5t3 10.5q6 35 12 64.5t11 45.5q31 70 67.5 127.5t83.5 108.5l191 442l-254 -278q-12 -14 -18.5 -20.5l-8.5 -8.5h-3h-1h-3h-1q-2 2 -5 4t-3 4l-1 1t-1 3v3v1v1v3q2 2 2 4v1q18 76 123.5 174t226.5 286q16 23 30.5 46.5 t28.5 50.5q16 31 30.5 56.5t27.5 43.5q18 25 37.5 37t45.5 12q20 0 37 -10t17 -23v-3t-4 -3q-43 -35 -69 -78t-48 -94q-16 -39 -33.5 -81t-44.5 -89l-4 -8l-4 -8q-4 -8 -9 -18.5t-16 -30.5q-2 -4 -4 -8.5t-2 -8.5q-2 0 -2 -1v-1q-6 -14 -15 -31.5t-26 -52.5q14 18 44 50 t65 67q14 12 28.5 25.5t30.5 25.5q41 35 81 60.5t67 25.5q33 0 56 -26.5t23 -85.5q0 -39 -14 -82t-39 -88q-31 -57 -74 -111.5t-88 -99.5q-14 -16 -29.5 -30.5t-29.5 -27.5q27 -14 53.5 -19t52.5 -5q47 0 85 20.5t63 44.5q18 18 29.5 33.5t17.5 24.5q2 2 3 4t3 4q2 4 6 8 t9 4h1h3q4 -2 7 -5t3 -7v-1v-1q0 -6 -5 -24.5t-40 -59.5q-16 -20 -32.5 -38t-35.5 -34q-104 -96 -199.5 -120.5t-142.5 -24.5q-33 0 -71.5 13t-77.5 42q-6 6 -13.5 11t-13.5 12q-72 -197 -104.5 -308.5t-59.5 -154.5q-8 -16 -17 -23.5t-22 -7.5q-18 0 -28.5 24.5t-12.5 55.5 v5v5zM199 178q16 10 34.5 15.5t36.5 5.5q23 0 43.5 -7.5t40.5 -23.5q25 23 47.5 48.5t40.5 49.5q37 49 60.5 94.5t27.5 69.5q2 4 2 9v10v7t-2 5q-4 12 -14 22.5t-27 10.5q-27 0 -65.5 -33t-77.5 -80q-18 -18 -34.5 -40t-32.5 -44q-23 -31 -43.5 -61.5t-36.5 -57.5z" />
<glyph unicode="&#x441;" horiz-adv-x="555" d="M0 254q0 25 4 48.5t10 47.5q29 102 104 197.5t156 154.5q47 33 91.5 51.5t80.5 18.5h8.5t8.5 -2q18 -2 33.5 -15.5t15.5 -43.5q0 -23 -12.5 -59t-32.5 -74q-8 -20 -19.5 -41t-23.5 -39q-20 -33 -39.5 -54.5t-32.5 -21.5q-6 0 -10 5t-6 13q-2 4 -4 9.5t-2 7.5q0 4 -2 8 l-4 8q-2 6 -6.5 12.5t-8.5 8.5q-2 2 -5 2h-7h-1h-3q-2 -2 -3 -2h-3q-14 -4 -30.5 -15.5t-33.5 -27.5q-25 -23 -48 -52.5t-40 -62.5q-16 -29 -26.5 -57.5t-10.5 -51.5q0 -10 2 -21t6 -22q10 -31 41 -55.5t91 -24.5q43 0 78.5 16.5t62.5 35.5q12 8 21.5 15t17.5 13 q68 53 89 78t34 25q6 0 10 -5.5t4 -15.5q0 -8 -5 -18t-13 -21q-20 -31 -51 -70.5t-109 -115.5l-21.5 -21.5t-29.5 -25.5q-29 -23 -65 -42.5t-75 -19.5q-68 0 -107.5 56.5t-58.5 126.5q-10 39 -15 75.5t-5 63.5z" />
<glyph unicode="&#x442;" horiz-adv-x="1064" d="M0 193q0 63 8 105t25 79q12 25 28.5 51.5t36.5 60.5q10 16 20.5 33t18.5 31q29 43 58.5 68.5t74.5 25.5q14 0 23.5 -7t13.5 -17q2 -4 3 -7.5t1 -7.5t-1 -8t-3 -8q-2 -8 -7 -16.5t-9 -16.5q-4 -4 -7 -8t-5 -8q-2 -2 -3.5 -3t-1.5 -3q-27 -35 -47 -64t-22 -33 q-8 -10 -12.5 -17t-8.5 -13l-1 -1l-1 -1q-2 -2 -4 -6.5t-6 -8.5q-29 -39 -43 -63.5t-14 -44.5q0 -6 1 -12.5t3 -14.5q0 -4 1 -8t3 -8q0 -6 2 -10.5t2 -6.5q76 96 134 160t108 115q129 133 176 164.5t67 31.5q27 0 37 -13t13 -30q2 -8 2 -15v-13v-3v-4q0 -20 -4.5 -34.5 t-10.5 -28.5q-2 -4 -5 -9t-5 -11q-6 -16 -11 -26.5t-10 -21.5q-2 -2 -3 -4t-3 -4q-2 -4 -4 -7t-4 -7q-10 -18 -15 -28.5t-11 -18.5q0 -2 -1.5 -3t-1.5 -3l-1 -1t-1 -3q-4 -10 -7 -16.5t-5 -10.5q0 -2 -1 -4t-3 -2q-2 -4 -4 -6t-4 -7q-8 -10 -13.5 -21t-5.5 -22q0 -6 3.5 -11 t7.5 -5q6 0 17 10.5t26 28.5q6 6 10 11t8 9q4 6 11.5 13.5t17.5 19.5q18 18 31.5 32.5t27.5 29.5q0 2 2 4t4 2q6 8 12.5 14t12.5 12q12 12 36.5 34t53.5 44q6 4 11 9.5t12 9.5q37 29 69.5 50t46.5 21q18 0 26.5 -15t12.5 -38v-4t2 -2v-2q0 -4 2 -9t4 -14q0 -2 1 -5t1 -5 q2 -6 3.5 -12t1.5 -12q0 -14 -7.5 -24.5t-15.5 -20.5l-1 -1t-3 -4q-90 -104 -118 -171.5t-28 -100.5t13.5 -47t36.5 -14q29 0 60.5 22.5t82.5 79.5q6 8 13 13t16 5h3t1 -2q2 0 5 -2t3 -4v-3v-1v-3v-3v-1v-3v-3v-1q-4 -14 -17.5 -34.5t-31.5 -43.5q-4 -6 -9.5 -12t-11.5 -13 q-20 -25 -38.5 -44t-26.5 -27q-78 -76 -121 -102.5t-68 -26.5q-6 0 -11 1t-11 3q-20 6 -37.5 24.5t-17.5 53.5q0 29 7 70.5t34 111.5q10 25 16 42t14 30l4 8l4 8q14 29 17.5 41t3.5 20q0 4 -3 7.5t-7 5.5h-3h-1q-6 0 -17.5 -9.5t-25.5 -21.5q-2 -2 -4.5 -4t-4.5 -2 q-12 -12 -22 -22.5t-14 -14.5q-115 -117 -180.5 -208t-112.5 -91h-3h-1q-14 4 -24.5 22.5t-10.5 47.5q0 12 3 28.5t9 30.5q2 12 7 23.5t9 21.5q4 12 9.5 22.5t9.5 18.5q41 82 56.5 109.5t17.5 44.5v1v1q0 2 -1 6t-1 8q-4 6 -11.5 12t-21.5 6q-10 0 -22.5 -4t-22.5 -10 q-23 -14 -45.5 -38.5t-44.5 -51.5q-49 -61 -74 -95t-43 -63l-4 -8l-4 -8q-6 -10 -12.5 -21.5t-12.5 -25.5q-10 -18 -20.5 -34.5t-18.5 -29.5q-6 -6 -13 -10t-13 -4q-4 0 -9.5 2t-11.5 6q-16 12 -30.5 54t-14.5 131zM438 809q0 72 78 130t170 95q72 29 137.5 45.5t94.5 16.5 q41 0 62 -14.5t30 -30.5q4 -6 5 -12.5t1 -12.5v-7t-2 -7l-47 -99q-4 2 -9.5 5.5t-9.5 5.5q-27 10 -54.5 12t-64.5 2q-33 0 -72.5 -9t-78.5 -26q-68 -27 -128.5 -73t-94.5 -105q-10 12 -13.5 31.5t-3.5 52.5z" />
<glyph unicode="&#x443;" horiz-adv-x="704" d="M0 233q0 47 7 88t22 82q10 31 26.5 63t36.5 66q12 18 31.5 46t44.5 57q10 12 20.5 23.5t20.5 23.5q33 35 62.5 60.5t47.5 25.5q4 0 8.5 -1t8.5 -3q14 -6 27.5 -19.5t17.5 -29.5q2 -4 3 -8.5t1 -8.5q0 -23 -21.5 -65.5t-52.5 -89.5q-18 -25 -37.5 -49.5t-37.5 -47.5 q-23 -25 -45.5 -43t-40.5 -26q-12 -27 -19.5 -44.5t-11.5 -31.5q-2 -10 -3 -20.5t-1 -22.5q0 -18 5 -31.5t11 -19.5q2 0 4 -1t4 -1q8 0 46 24.5t182 173.5q51 51 76.5 80t43.5 54q2 2 4.5 5t4.5 5q6 8 13 18t15 21q6 6 10.5 11t8.5 11q6 8 13 16.5t17 22.5q16 18 23.5 28.5 t15.5 18.5q2 4 5.5 8.5t7.5 8.5q8 10 15 14t13 4q14 -2 22.5 -25.5t8.5 -52.5q0 -20 -5 -39.5t-11 -36.5q-4 -10 -8.5 -18t-6.5 -12l-237 -471q-14 -27 -19.5 -37t-7.5 -19l-1 -1t-1 -3l-1 -1q-1 -1 -1 -3v-3v-1v-1q0 -1 2 -1v-3v-1h1h1l3 -3l1 -1q8 0 16.5 5t16.5 15 l225 242q8 8 12.5 13t8.5 10q4 2 6 4t4 2q4 2 5 2h3h1h1h1h1q0 -2 1 -2h1q4 -2 6.5 -6.5t2.5 -8.5q0 -2 -1.5 -6t-3.5 -6q0 -2 -1 -4t-3 -4q0 -2 -1 -4t-3 -4l-289 -377q-4 -4 -8 -9l-8 -10v-2q-18 -23 -39.5 -51t-60.5 -92q-55 -90 -93 -143.5t-61 -53.5q-10 0 -14 22.5 t-6 51.5q-2 18 -2 35.5v28.5q0 27 18 60.5t43 86.5l154 348q4 8 6 16.5t2 16.5v3v3l-3 6t-3 0q-2 0 -5.5 -2t-7.5 -6q-94 -90 -146 -133t-75 -43q-8 0 -16 8t-17 25q-10 16 -19 40.5t-17 51.5q-10 33 -17.5 62.5t-7.5 45.5z" />
<glyph unicode="&#x444;" horiz-adv-x="1050" d="M0 233q0 68 22.5 154t137.5 201q16 16 38.5 34.5t47.5 39.5q23 14 45 29.5t45 27.5q43 27 85 44t71 17q47 0 60 -46t19 -105l115 311q0 2 1 5t3 7q4 8 9.5 14.5t13.5 6.5q6 0 13 -3t13 -12q10 -10 19.5 -29.5t15.5 -54.5q2 -4 2 -7v-7v-6t-4 -8l-158 -361q14 16 34 35 t42 39q16 12 32.5 25.5t33.5 25.5q43 31 82 52.5t63 21.5q6 0 14.5 -3t16.5 -11q14 -14 26.5 -45t12.5 -86q0 -39 -10.5 -99.5t-51.5 -146.5q41 4 63.5 13t37.5 18q8 6 14 11t12 9q8 6 17.5 10t21.5 4h4t4 -2q6 -2 10.5 -8t4.5 -20q0 -12 -6.5 -22.5t-16.5 -20.5 q-6 -4 -12 -8.5l-14 -10.5q-6 -6 -21.5 -15t-38.5 -20q-25 -10 -58.5 -20t-78.5 -14q-133 -180 -206 -214t-93 -34q-29 0 -38 16.5t-9 48.5q0 18 5 37t13 37q31 63 104.5 118.5t174.5 65.5q31 80 38 120t7 57q0 4 -1 10t-3 12q-2 8 -8.5 16.5t-16.5 12.5q-2 0 -4 1t-4 1h-4 h-4h-8t-9 -2q-12 -4 -26.5 -10.5t-26.5 -14.5q-33 -18 -64.5 -47t-58.5 -59q-25 -29 -43 -57.5t-26 -47.5l-299 -749q-2 -2 -3 -6.5t-3 -6.5q-4 -10 -8.5 -17t-14.5 -7q-2 0 -5 1t-5 1q-12 6 -20.5 19.5t-8.5 35.5q0 6 1 12.5t3 12.5q12 59 15.5 100t5.5 72v5v7q0 10 1 21.5 t3 21.5q6 59 47 141t182 281l35 100q-147 -160 -239.5 -234.5t-139.5 -74.5q-45 0 -62.5 50t-23.5 110q0 18 -1 37.5t-1 35.5zM131 190q2 -8 5 -14t11 -6q16 0 53.5 21.5t78.5 54.5q20 14 39.5 30.5t35.5 34.5l5 5l6 6q96 102 125.5 152t29.5 85q0 25 -9 38t-22 17 q-6 4 -13 5.5t-11 1.5q-23 0 -50.5 -13.5t-58.5 -36.5q-20 -16 -41.5 -35.5t-42.5 -39.5q-8 -8 -16 -18.5t-16 -18.5q-82 -96 -95.5 -157.5t-13.5 -96.5v-6v-9z" />
<glyph unicode="&#x445;" horiz-adv-x="641" d="M0 23v1v3q0 14 5 34.5t13 40.5q10 25 23.5 47.5t28.5 38.5q6 6 12 10.5t12 6.5l64 12l112 137q2 12 2 22.5t2 20.5v9.5v11.5q0 8 1 16t1 19q2 72 -8 103.5t-37 31.5q-14 0 -26 -9.5t-25 -21.5q-2 0 -3 -1l-3 -3l-98 -90q-6 -6 -11.5 -8t-9.5 -2t-7 2t-5 4q0 2 -1 3l-1 1 v1v3v3v1v7v5q6 23 31.5 60t60.5 73q14 16 27.5 31t27.5 27q43 45 83 75.5t57 30.5q6 0 13 -1t13 -5q25 -10 44.5 -49t17.5 -125v-26.5t-2 -30.5l168 155q2 2 7 5.5t9 7.5q2 2 5 4t5 4q6 2 11.5 4t9.5 2t8 -5t4 -11q0 -16 -8 -31.5t-17 -28.5q-4 -4 -8 -9t-8 -9l-190 -215 l-13 -211q-2 -29 4.5 -49.5t26.5 -20.5q12 0 27.5 11.5t40.5 31.5q6 6 10 9t6 8h1h1q0 2 2 3t4 3q4 6 9.5 10t11.5 8t11 6t9 2q6 0 10 -4t4 -10q2 -2 2.5 -4t0.5 -4q0 -8 -36 -51t-83 -95q-8 -8 -16.5 -16t-16.5 -16q-45 -45 -85 -79t-56 -34q-4 0 -8.5 1t-8.5 5 q-8 6 -15 20.5t-7 41.5q0 20 4 56t10 87q2 25 5 54.5t5 62.5q-20 -33 -41.5 -61.5t-44.5 -53.5q-55 -61 -105 -94t-69 -33q-4 0 -7 7t-3 16z" />
<glyph unicode="&#x449;" horiz-adv-x="1024" d="M0 244q0 16 1 32.5t5 32.5q12 84 51 164t82 139q35 49 68 81t51 38q4 2 9 2h9h12.5t12.5 -2h1h1h1h1q2 0 5 -1t7 -1q10 -2 20.5 -10t10.5 -31t-14.5 -54.5t-38.5 -64.5q-18 -27 -41 -53.5t-47 -46.5q-25 -23 -47.5 -37t-40.5 -20q0 -6 -2 -13.5t-2 -17.5q-2 -8 -3 -17.5 t-3 -17.5q0 -12 -1.5 -22.5t-1.5 -20.5q0 -29 6.5 -43t14.5 -18q4 -2 8 -3t6 -1q14 0 57.5 38.5t92.5 90.5q8 8 16 17t17 17q35 41 65.5 78t44.5 60q23 33 33 46t18 23h1h1q2 4 5.5 8.5t7.5 8.5q47 63 75.5 104t47.5 41q4 0 7 -1t7 -3q12 -10 23.5 -28.5t11.5 -41.5 q0 -25 -5 -43t-18 -37q-6 -10 -16 -22t-23 -27q-12 -12 -36.5 -42.5t-51.5 -69.5q-10 -12 -19 -26.5t-18 -29.5q-25 -39 -42 -75.5t-17 -61.5q0 -10 5 -18t11 -13q2 0 4.5 -1t4.5 -1q10 0 27.5 11.5t37.5 25.5q6 4 11 8.5t10 10.5q14 10 26 21t19 20l12 12l6 6l5 5l7 7 q33 33 47.5 48.5t26.5 29.5q4 4 8 9.5t11 11.5q8 10 15 16t11 12l3 3l1 1q12 14 30.5 39t59.5 90q35 55 56.5 88t42.5 33q20 0 35.5 -22.5t19.5 -50.5v-7.5v-7.5q0 -16 -9 -31.5t-20 -29.5q-2 -2 -4 -5t-4 -5q-104 -133 -145 -209t-41 -125q0 -41 19.5 -62.5t51.5 -21.5 q29 0 50.5 14t42.5 33q4 2 7 5l7 7q35 33 43 39t10 6h1h3q4 -2 7 -7t3 -21q0 -66 -19 -149t-52 -169q-41 -100 -100.5 -196.5t-133.5 -163.5q-16 -16 -33.5 -24.5t-35.5 -8.5q-12 0 -24.5 4t-24.5 10q-20 45 -28.5 92t-6.5 95q6 53 47 82.5t88 33.5h6h6h5t5 -2h5.5h5.5 q-14 -25 -21.5 -51.5t-7.5 -52.5q0 -14 3 -29.5t5 -30.5q53 57 92 154.5t56 202.5q0 2 1 5t1 7q-6 -8 -18.5 -18.5t-26.5 -20.5q-8 -6 -18.5 -12t-20.5 -12q-16 -10 -32.5 -17.5t-29.5 -7.5q-4 0 -7 1t-7 1q-25 8 -45.5 45t-20.5 100q0 12 2 31t7 37q2 8 3 16.5t3 16.5 q2 10 4 19l4 18q-12 -20 -28.5 -46t-35.5 -51q-16 -25 -34.5 -47t-38.5 -41q-25 -25 -49.5 -41t-44.5 -16q-4 0 -9.5 1t-9.5 3q-29 12 -52.5 59.5t-23.5 118.5v15.5v15.5q-78 -125 -125 -169t-80 -44t-61.5 55.5t-38.5 122.5q-4 16 -5 32.5t-1 33.5z" />
<glyph unicode="&#x44a;" horiz-adv-x="647" d="M0 637v4v4v4v4q0 4 1 8.5t1 8.5q10 47 67.5 88t151.5 41q18 0 36.5 -1t35.5 -5q12 -2 23.5 -5.5t25.5 -7.5q23 -4 50.5 -9t62.5 -5q18 0 29.5 2t17.5 4q4 2 7 3t5 3h3h1h3t1 -2q10 -6 18.5 -28.5t14.5 -49.5q0 -8 1 -17t1 -17v-3.5v-3.5v-14t-4 -12t-14.5 -14.5 t-30.5 -20.5q-57 -35 -104.5 -91t-81.5 -116q-33 -57 -51.5 -111.5t-18.5 -89.5q0 -27 6 -48t29 -21q8 0 17 4t20 10q14 8 26 19.5t21 25.5q-2 16 -5.5 31.5t-0.5 32.5v3v3q2 82 43 151.5t88 73.5h3h3q33 0 48 -27.5t15 -64.5q0 -18 -3 -38.5t-9 -41.5q-8 -25 -16.5 -48.5 t-18.5 -43.5q-2 -6 -5 -12.5t-7 -12.5q4 -4 9 -7t11 -5q4 -2 9.5 -3t9.5 -1q14 0 26.5 8t22.5 19q4 4 8 9t6 9l3 3t1 3q4 6 10.5 10t12.5 4h3t1 -2q2 0 3 -2t3 -2q0 -2 1 -3l1 -1v-5v-7v-7v-9q-2 -8 -4 -15.5t-6 -15.5q-14 -37 -42 -70t-65 -33h-3h-3q-18 0 -40.5 3.5 t-47.5 27.5q-41 -45 -75.5 -68.5t-67.5 -23.5q-43 0 -71.5 47t-41.5 105q-2 14 -4 30.5t-2 30.5q0 55 10.5 105.5t30.5 99.5q10 23 20.5 43t24.5 43q47 74 82 105.5t35 45.5q0 6 -9.5 8.5t-19.5 2.5h-4h-4q-12 0 -24.5 -1t-24.5 -3q-49 -6 -91 -29t-40 -64q0 -6 1 -12t3 -14 q-8 -2 -18.5 -3t-22.5 1h-9h-12q-37 4 -68.5 24.5t-33.5 71.5z" />
<glyph unicode="&#x44b;" horiz-adv-x="835" d="M0 471q0 10 8 17.5t21 11.5q10 4 22 9t25 11q2 2 5 3t5 3q33 20 71 53t95 85q31 27 46 41t26 24l1 1l1 1l8 8t8 11q29 35 41 45t18 10t14.5 -3t16.5 -9q14 -12 26.5 -39t20.5 -74q-68 -51 -104.5 -83t-59.5 -58q-10 -10 -17 -21.5t-15 -23.5t-15.5 -25.5t-15.5 -30.5 q-6 -10 -12.5 -22.5t-14.5 -26.5q-14 -31 -26.5 -73t-12.5 -95q0 -43 6.5 -64.5t14.5 -29.5q4 -4 8 -5t6 -1q4 0 7 1t8 3q8 6 15 13t11 16q2 2 3 4t3 4q0 115 30 180.5t64 95.5q20 18 40 25.5t34 7.5q4 0 9.5 -2t9.5 -6q10 -8 19 -27.5t9 -54.5q0 -10 -1 -21.5t-5 -25.5 q23 16 77 77.5t161 264.5q2 4 5 9t5 9q8 10 16.5 18.5t16.5 8.5q10 0 20 -18.5t17 -40.5q4 -14 6 -27.5t2 -22.5q0 -8 -2 -17t-4 -17q-8 -16 -20.5 -34t-33.5 -42q-10 -12 -25.5 -32.5t-31.5 -45.5q-27 -39 -48.5 -86t-21.5 -98q0 -37 9.5 -61.5t36.5 -24.5h4h4q25 4 47 17 t41 30l16 16t12 14q8 10 15.5 16.5t13.5 6.5h3h3q6 -2 10.5 -5t4.5 -9q0 -12 -8.5 -27.5t-18.5 -32.5q-4 -8 -9 -14t-12 -12q-10 -12 -19 -23.5t-15 -19.5q-55 -61 -104.5 -110.5t-96.5 -49.5q-37 0 -60.5 26.5t-23.5 81.5q0 23 2 45.5t6 47.5q4 29 12.5 58.5t18.5 55.5 q-8 -10 -14.5 -15t-12.5 -9q-2 -2 -5 -3t-5 -3q-2 0 -4 -1.5t-4 -3.5q-6 -4 -9 -5t-8 -3l-1 -1t-3 -1q-8 -16 -19 -33.5t-26 -35.5q-16 -23 -36.5 -45.5t-41.5 -40.5q-31 -29 -59.5 -47.5t-48.5 -18.5q-6 0 -12 2t-13 8q-35 25 -62.5 97.5t-27.5 156.5q0 35 7.5 78t35.5 117 q-4 -2 -10 -3t-14 -3t-17.5 -4.5t-19.5 -4.5q-16 -2 -31.5 -4t-26.5 -2h-3t-3 2q-6 0 -10 7.5t-4 23.5z" />
<glyph unicode="&#x44d;" horiz-adv-x="643" d="M0 100q0 10 9 28.5t24 39.5l8 12t10 13q16 23 30.5 38t18.5 15q6 0 12.5 -4t10.5 -11q2 -4 5 -7t5 -7q8 -10 21.5 -19.5t33.5 -9.5q10 0 38 8.5t75 47.5q-6 0 -15.5 2t-17.5 4q-18 8 -34.5 20.5t-20.5 26.5q0 2 -1 4t-1 4v2v4v12.5t2 10.5q0 8 2 17t6 18q2 12 6 22t9 19 q4 8 8 12t6 4q4 0 6 -2l4 -4q4 -6 10 -16.5t25 -24.5q14 -12 34.5 -23.5t41.5 -19.5q4 0 7 -1t7 -3q12 12 27.5 28.5t29.5 34.5q14 16 27.5 33.5t24.5 34.5q20 31 33.5 60.5t13.5 51.5q0 23 -11.5 34.5t-23.5 15.5q-6 2 -12.5 3t-10.5 1q-20 0 -47.5 -8.5t-60.5 -24.5 q-102 -51 -131 -80t-43 -39q-4 -4 -10.5 -6t-14.5 -2q-4 0 -15 12.5t-24 30.5q-4 8 -9 15.5t-9 15.5q-10 16 -16.5 31.5t-6.5 25.5q0 8 18.5 24.5t43.5 34.5q4 2 8 5.5t10 7.5q27 18 50.5 33.5t27.5 17.5q10 6 23.5 13t29.5 16q33 14 74 28.5t82 16.5h6h6q59 0 89 -41 t44 -92q6 -29 9.5 -57.5t3.5 -47.5q0 -47 -26 -106.5t-87 -159.5q2 -2 7 -4t13 -4q4 -2 10.5 -3t10.5 -3q8 -2 14 -2.5t12 -0.5h1h2h3h1h2h2q2 0 4 1.5t2 -1.5h3h1q2 -2 2 -3v-5q0 -8 -4 -19t-10 -24q-10 -18 -26.5 -34.5t-33.5 -16.5q-8 0 -15 1t-13 3q-12 4 -24.5 9.5 t-29.5 11.5q-2 -2 -4 -5.5t-4 -7.5q-35 -43 -77 -84t-87 -69q-31 -20 -61.5 -30.5t-56.5 -10.5q-10 0 -30 6t-42 16q-23 14 -44.5 31.5t-31.5 36.5q-2 4 -3 9t-1 9z" />
<glyph unicode="&#x44f;" horiz-adv-x="694" d="M-113 -156q0 12 5.5 35t29.5 70q6 10 11.5 19t9.5 18q6 8 10 15t10 15q6 10 12.5 18.5t14.5 16.5q6 -10 13 -16t15 -10q6 -2 11.5 -3.5t11.5 -1.5q18 0 39.5 14.5t42.5 37.5q14 14 28.5 31.5t26.5 33.5q23 29 40.5 54.5t29.5 41.5q-20 -12 -37.5 -20t-36.5 -14 q-14 -4 -28.5 -6.5t-30.5 -2.5q-45 0 -62.5 24t-17.5 159q0 29 21.5 90t133.5 184l13.5 13.5l13.5 13.5q86 86 163 129t112 43q51 0 61 -62.5t10 -140.5q0 -12 -1 -23.5t-3 -23.5q-10 -39 -34.5 -80t-73.5 -100q27 8 47 18t37 21q47 29 67.5 52t32.5 23q2 0 3 -5t1 -11v-4 v-4v-18.5v-16.5q0 -41 -3 -57.5t-15 -28.5q-4 -4 -9.5 -8t-13.5 -10t-17.5 -13.5t-17.5 -15.5q-27 -25 -48 -59.5t-21 -81.5q0 -23 9 -33t27 -10t40 14t61 47q14 12 23.5 19.5t15.5 9.5h3h3q10 0 14 -5.5t4 -21.5t-22.5 -44t-57.5 -56q-14 -14 -30.5 -27.5t-32.5 -26.5 q-37 -27 -72 -45t-53 -18q-29 0 -45 13.5t-23 27.5q-4 6 -6 12t-2 13q-2 8 -3 15t1 13v14.5t2 12.5q2 16 6 34.5t11 34.5q10 33 25.5 65t33.5 58q-31 -25 -48.5 -33t-23.5 -12q-150 -279 -243 -366.5t-154 -87.5h-5h-5q-23 2 -41.5 10t-18.5 20zM137 410q0 -27 17.5 -37.5 t42.5 -10.5h25.5t25.5 3q27 2 51.5 7t44.5 13q84 115 101.5 159t17.5 64q0 12 -6 17.5t-15 7.5q-4 2 -9 2h-7q-23 0 -49.5 -8.5t-52.5 -22.5q-35 -18 -70 -45t-61 -55q-25 -27 -40.5 -51.5t-15.5 -42.5z" />
<glyph unicode="&#x451;" horiz-adv-x="522" d="M0 172q0 47 12.5 101.5t32.5 111.5q53 137 150.5 254t203.5 129q6 2 11.5 2h11.5q45 0 65.5 -21.5t26.5 -48.5q2 -8 3 -15t1 -15q0 -33 -16.5 -73t-44.5 -81q-49 -74 -127 -138.5t-162 -88.5q-6 -2 -11 -3t-12 -3q-6 -82 22 -119t62 -41q2 -2 5.5 -2h7.5q25 0 45 9t39 20 q23 14 35 22t22 14q0 2 1 2t3 2q4 4 9 8.5t12 8.5q57 47 76.5 67.5t27.5 20.5h1t3 -2t4 -8t2 -21q0 -12 -15 -35.5t-36 -48.5q-4 -4 -7 -9t-7 -9q-20 -25 -39 -44.5t-25 -27.5t-11 -13l-9 -9q-2 -4 -5 -7.5t-8 -7.5q-4 -4 -7 -8t-7 -6q-37 -39 -87 -69.5t-103 -30.5 q-68 0 -112 62t-44 171zM145 358q20 6 46 22.5t55 37.5q29 23 56.5 50.5t45.5 55.5q16 20 25.5 43t9.5 41q0 29 -7 41.5t-28 12.5q-6 0 -11 -1.5t-11 -3.5q-39 -14 -76 -67t-66 -115q-12 -33 -22 -62.5t-17 -54.5zM236 942q0 59 29.5 102t66.5 58q6 2 14 4t14 2q4 0 11.5 -2 t15.5 -6q12 -8 21.5 -26.5t9.5 -51.5v-4v-4q-2 -51 -29 -96.5t-65 -57.5q-6 -2 -12.5 -2h-12.5h-4h-4q-4 0 -9.5 1t-11.5 5q-12 6 -23 25.5t-11 52.5zM494 942q0 61 33.5 107.5t74.5 56.5q4 0 9 1t10 1h7t5 -2q16 -4 29.5 -23.5t13.5 -60.5v-4v-4q-2 -51 -30 -96.5 t-64 -57.5q-4 -2 -8.5 -2h-8.5h-4h-4h-4h-4q-23 0 -39 20.5t-16 63.5z" />
<glyph unicode="&#x454;" horiz-adv-x="626" d="M0 291q0 4 3 6t7 2t5 -1l3 -3q6 -2 11.5 -2h11.5h4h4h25q14 102 59 172t96 119q10 12 22.5 22t22.5 21q27 25 60 47t65 39q37 18 71 28.5t62 10.5q39 0 61.5 -19.5t29.5 -44.5q2 -6 3 -11t1 -11q0 -16 -12.5 -42t-30.5 -53q-16 -20 -32.5 -40.5t-35.5 -34.5 q-14 -14 -29.5 -23.5t-27.5 -11.5q-2 -2 -3 -2h-5l-2 2h-1h-2q-6 2 -10 8t-6 12q-2 4 -3 8.5t-1 8.5q-2 16 -9 29.5t-30 13.5q-18 0 -41.5 -16.5t-48.5 -41.5q-20 -20 -38.5 -43.5t-35.5 -48.5q-16 -25 -27.5 -47t-17.5 -41q45 6 76 14.5t49 16.5q27 12 39 22.5t23 18.5 q10 8 22 13t39 5q8 0 14 -15.5t11 -33.5q2 -14 4 -27.5t2 -19.5q0 -41 -55.5 -57.5t-120.5 -20.5q-20 -2 -39 -3t-37 -3q-10 0 -19.5 -1t-17.5 -1q10 -49 52 -79t93 -30q14 0 29.5 2t30.5 7q31 8 59.5 21t52.5 28q31 18 52.5 33.5t31.5 21.5q16 12 26.5 18.5t18.5 6.5h1 t3 -2q2 0 4.5 -3.5t2.5 -7.5q0 -10 -6.5 -23.5t-16.5 -25.5q-8 -8 -15 -17t-16 -18q-51 -51 -92 -82.5t-51 -40.5q-76 -53 -112.5 -66t-65.5 -13q-70 0 -105.5 48t-52.5 105q-8 29 -12 56.5t-6 50.5q-20 0 -39 17.5t-27 37.5q-4 10 -6 18.5t-2 16.5z" />
<glyph unicode="&#x456;" horiz-adv-x="397" d="M0 193v7v5q0 29 2 55.5t8 52.5q16 74 64.5 152t146.5 188l3 3t1 3q16 14 39 27.5t51 13.5q23 0 30 -13t7 -30v-10v-10v-4v-4q0 -33 -15 -74t-46 -82q-27 -37 -66 -70.5t-92 -64.5q-2 -8 -4 -15.5t-2 -15.5q-2 -10 -2 -19v-20v-7v-7q0 -66 18.5 -93.5t40.5 -33.5 q10 -4 20.5 -5t18.5 -1q23 0 65 19.5t105 76.5q2 0 3 1t1 3q6 4 11.5 7t11.5 3h3h3q4 -2 7 -5t3 -13q0 -8 -14 -33.5t-78 -97.5l-5 -5l-5 -5q-41 -47 -90 -85t-109 -38q-70 0 -101.5 75.5t-33.5 168.5zM328 854q0 6 1 13t1 16q8 51 43 93t84 42q29 0 42 -22.5t13 -63.5 q0 -53 -28.5 -99.5t-65.5 -60.5q-4 -2 -8 -3t-9 -1h-8h-8t-11 2t-14 6q-12 8 -22 26.5t-10 51.5z" />
<glyph unicode="&#x457;" horiz-adv-x="436" d="M0 193v7v5q0 29 2 55.5t8 52.5q16 74 64.5 152t146.5 188l3 3t1 3q16 14 39 27.5t51 13.5q23 0 30 -13t7 -30v-10v-10v-4v-4q0 -33 -15 -74t-46 -82q-27 -37 -66 -70.5t-92 -64.5q-2 -8 -4 -15.5t-2 -15.5q-2 -10 -2 -19v-20v-7v-7q0 -66 18.5 -93.5t40.5 -33.5 q10 -4 20.5 -5t18.5 -1q23 0 65 19.5t105 76.5q2 0 3 1t1 3q6 4 11.5 7t11.5 3h3h3q4 -2 7 -5t3 -13q0 -8 -14 -33.5t-78 -97.5l-5 -5l-5 -5q-41 -47 -90 -85t-109 -38q-70 0 -101.5 75.5t-33.5 168.5zM156 854q0 6 1 13t1 16q8 51 41.5 93t83.5 42q29 0 42 -22.5t13 -63.5 q0 -53 -27.5 -99.5t-66.5 -60.5q-8 -2 -16.5 -3t-16.5 -1q-4 0 -11 2t-14 8q-12 8 -21 25.5t-9 50.5zM383 854q0 8 1 17.5t3 17.5q10 49 43 89t80 40q29 0 42 -22.5t13 -63.5q0 -53 -27.5 -99.5t-66.5 -60.5q-4 -2 -8 -3t-8 -1h-8.5h-8.5t-11 2t-13 8q-12 8 -21.5 25.5 t-9.5 50.5z" />
<glyph unicode="&#x2000;" />
<glyph unicode="&#x2001;" horiz-adv-x="1874" />
<glyph unicode="&#x2002;" horiz-adv-x="937" />
<glyph unicode="&#x2003;" horiz-adv-x="1874" />
<glyph unicode="&#x2004;" horiz-adv-x="624" />
<glyph unicode="&#x2005;" horiz-adv-x="468" />
<glyph unicode="&#x2006;" horiz-adv-x="312" />
<glyph unicode="&#x2007;" horiz-adv-x="312" />
<glyph unicode="&#x2008;" horiz-adv-x="234" />
<glyph unicode="&#x2009;" horiz-adv-x="374" />
<glyph unicode="&#x200a;" horiz-adv-x="104" />
<glyph unicode="&#x2010;" horiz-adv-x="966" d="M205 328q0 4 2 8l4 8l43 86q4 10 10 13t15 3h4h4h3h1h420q14 0 20 -6t6 -16v-7t-4 -7l-45 -88q-2 -8 -11 -11.5t-26 -3.5h-420q-10 0 -18 5t-8 16z" />
<glyph unicode="&#x2011;" horiz-adv-x="966" d="M205 328q0 4 2 8l4 8l43 86q4 10 10 13t15 3h4h4h3h1h420q14 0 20 -6t6 -16v-7t-4 -7l-45 -88q-2 -8 -11 -11.5t-26 -3.5h-420q-10 0 -18 5t-8 16z" />
<glyph unicode="&#x2012;" horiz-adv-x="966" d="M205 328q0 4 2 8l4 8l43 86q4 10 10 13t15 3h4h4h3h1h420q14 0 20 -6t6 -16v-7t-4 -7l-45 -88q-2 -8 -11 -11.5t-26 -3.5h-420q-10 0 -18 5t-8 16z" />
<glyph unicode="&#x2013;" horiz-adv-x="1458" d="M205 328q0 4 4 8l8 8l82 86q8 10 19.5 13t28.5 3h8h8h6h2h808q27 0 38.5 -6t11.5 -16v-7t-8 -7l-86 -88q-4 -8 -21.5 -11.5t-50.5 -3.5h-808q-19 0 -34.5 5t-15.5 16z" />
<glyph unicode="&#x2014;" horiz-adv-x="2482" d="M205 328q0 4 7.5 8t15.5 8l166 86q15 10 38 13t58 3h15.5h15.5h11h4h1617q54 0 77 -6t23 -16v-7t-15 -7l-174 -88q-7 -8 -42 -11.5t-100 -3.5h-1617q-38 0 -69 5t-31 16z" />
<glyph unicode="&#x202f;" horiz-adv-x="374" />
<glyph unicode="&#x205f;" horiz-adv-x="468" />
<glyph unicode="&#x2100;" />
<glyph unicode="&#x2200;" />
<glyph unicode="&#x2219;" horiz-adv-x="196" d="M68 510q0 18 7 45t19 55q14 37 37 70t45 49q6 4 13.5 6t13.5 2q4 0 9 -1t9 -5q8 -6 15.5 -22.5t7.5 -46.5q0 -18 -5.5 -39t-13.5 -43q-14 -37 -36.5 -71t-47.5 -50q-8 -6 -16 -9.5t-16 -3.5q-2 0 -7.5 1.5t-11.5 5.5q-8 6 -15 19t-7 38z" />
<glyph unicode="&#x2300;" />
<glyph unicode="&#x2500;" />
<glyph unicode="&#x25fc;" horiz-adv-x="778" d="M0 0v778h778v-778h-778z" />
<glyph unicode="&#x2600;" />
<glyph unicode="&#xf000;" />
<glyph />
<glyph horiz-adv-x="819" d="M-203 -227q0 45 26.5 92t61.5 96q113 168 180.5 292t114.5 218q23 45 39.5 76t30.5 59l3 3t1 3q12 25 25.5 49.5t31.5 55.5q2 2 4 6t4 6q6 10 14.5 17.5t18.5 7.5q4 0 8.5 -2t8.5 -7q10 -8 19 -24t15 -35q6 -16 10.5 -30.5t4.5 -24.5q0 -8 -7.5 -17.5t-17.5 -25.5 l-121 -170l-3 -3t-1 -3q-14 -18 -24.5 -38t-10.5 -44v-7.5v-7.5q2 -33 9.5 -59.5t21.5 -26.5t38 15.5t48 36.5q8 6 15.5 13t15.5 13l33.5 33.5t25.5 28.5l291 360q2 2 3 4t3 4q4 6 9.5 10.5t13.5 4.5q18 0 26.5 -22.5t10.5 -49.5q2 -16 3 -32.5t1 -26.5q0 -8 -1 -13.5 t-3 -9.5l-1 -1l-1 -1l-148 -195q-14 -18 -25.5 -39.5t-17.5 -46.5q-6 -18 -10 -36.5t-4 -34.5q0 -6 1 -15.5t3 -19.5q2 -16 9 -30.5t18 -14.5q27 0 49 15.5t45 35.5q4 2 6 4t6 4q18 16 38.5 28.5t41.5 12.5h3t1 -2q4 -2 6 -5t2 -9q0 -23 -24.5 -57.5t-61.5 -73.5 q-16 -16 -33.5 -31.5t-35.5 -32.5q-49 -41 -92.5 -68.5t-57.5 -27.5q-31 0 -45 21.5t-18 44.5q-2 14 -3.5 25t-1.5 22q0 18 2.5 42.5t6.5 49.5q2 23 6 44t8 40q0 6 1 11t3 9q-104 -162 -163.5 -216t-96.5 -54q-8 0 -17.5 4t-17.5 12q-18 20 -35.5 62.5t-25.5 109.5 q-10 -43 -22.5 -97t-28.5 -107q-29 -115 -74 -209.5t-111 -94.5q-39 0 -57.5 20.5t-22.5 45.5q-2 8 -3 16.5t-1 14.5z" />
<glyph horiz-adv-x="854" d="M90 113v8v8q2 8 4 15.5t4 11.5l195 264l35 307q4 35 11 47t15 14q4 2 7.5 2.5t7.5 0.5h1h1q8 0 14 -11.5t8 -29.5l60 -369l-301 -285l-4 -4l-3 -2q-6 -4 -12 -6t-16 -2t-18.5 8t-8.5 23zM381 113q0 2 1 8t1 14q2 6 3 12.5t3 8.5l195 264l34 307q4 29 10.5 42t12.5 19 q6 2 10 2.5t8 0.5h3h2q2 0 3 -1.5t3 -3.5q6 -4 10 -14t6 -22l57 -369l-301 -285l-3 -3t-3 -1q-6 -4 -12 -7t-16 -3q-8 0 -14.5 6t-10.5 14q0 2 -1 5.5t-1 5.5z" />
<glyph horiz-adv-x="1224" d="M127 119q0 20 4 50t16 60q14 41 49 78t99 53q6 2 12 3.5t8 1.5q4 0 4 -1.5v-3.5t-1 -6t-1 -8q-2 0 -2 -2v-4q-2 -2 -2 -5v-5q0 -27 28 -41.5t62 -14.5q49 0 128 12.5t165 35.5q129 35 236.5 86t107.5 108q0 61 -73.5 102t-161.5 66q-35 10 -70 18.5t-63 14.5 q-68 14 -117 28.5t-84 26.5q-90 35 -105.5 74t-15.5 102q0 115 18.5 192t98.5 146q20 18 47 36.5t59 39.5q31 18 63 34.5t62 28.5q143 61 274.5 80t194.5 19q82 0 120 -22.5t52 -51.5q8 -18 10.5 -35.5t2.5 -28.5v-1v-1q0 -59 -7.5 -89.5t-35.5 -57.5q-12 -10 -29.5 -21.5 t-42.5 -23.5q-39 -20 -68.5 -42t-58.5 -42q-18 -14 -32.5 -23.5t-28.5 -17.5q-2 -2 -6.5 -5t-8.5 -5q-6 -4 -14 -8.5t-19 -10.5q8 23 24.5 53.5t47.5 63.5q12 12 26.5 24.5t30.5 24.5q-25 14 -56.5 22.5t-67.5 8.5q-39 0 -84 -9t-93 -26q-82 -27 -156.5 -71t-117.5 -93 q-18 -20 -29.5 -40.5t-11.5 -41.5q0 -35 39 -55t100 -37q51 -14 116 -30.5t130 -40.5q12 -6 23.5 -10.5t23.5 -10.5q94 -41 162 -104.5t68 -178.5q0 -29 -12.5 -78t-43.5 -104q-25 -43 -61.5 -84t-89.5 -71q-20 -12 -47 -25.5t-62 -28.5q-82 -35 -200.5 -64.5t-262.5 -29.5 h-3h-3h-42.5t-47.5 2q-66 4 -120 27.5t-54 87.5z" />
</font>
</defs>
</svg>
