<?xml version="1.0" standalone="no"?>
<!DOCTYPE svg PUBLIC "-//W3C//DTD SVG 1.1//EN" "http://www.w3.org/Graphics/SVG/1.1/DTD/svg11.dtd" >
<svg xmlns="http://www.w3.org/2000/svg">
<metadata></metadata>
<defs>
<font id="tatianacttnormal" horiz-adv-x="870" >
<font-face units-per-em="2048" ascent="1638" descent="-410" />
<missing-glyph horiz-adv-x="858" />
<glyph unicode="&#xd;" horiz-adv-x="858" />
<glyph unicode=" "  horiz-adv-x="858" />
<glyph unicode="&#x09;" horiz-adv-x="858" />
<glyph unicode="&#xa0;" horiz-adv-x="858" />
<glyph unicode="!" horiz-adv-x="845" d="M238 111q0 84 49 144t108 60q66 0 114 -25.5t42 -76.5q-8 -80 -76.5 -134t-150.5 -54q-33 0 -59.5 24.5t-26.5 61.5zM328 743q0 68 57 295q68 274 143 447q102 231 189 231q31 0 47 -25.5t16 -95.5v-39q0 -45 -15 -115.5t-36.5 -147t-44 -149.5t-35.5 -124 q-14 -61 -25.5 -141t-31 -152t-54 -122t-98.5 -50q-68 0 -90 55.5t-22 132.5z" />
<glyph unicode="&#x22;" horiz-adv-x="882" d="M315 1122q0 197 113 404q104 195 178 194q43 0 56.5 -22.5t13.5 -67.5q0 -25 -13.5 -62.5t-32 -77.5t-38 -79t-31.5 -70q-4 -20 -4 -26q0 -23 6 -54.5t12.5 -63.5t12.5 -57.5t6 -37.5q0 -18 -15.5 -48t-39 -57.5t-49 -48t-44.5 -20.5q-76 0 -103.5 52t-27.5 142z M662 1122q0 197 110 404q104 195 178 194q43 0 56.5 -22.5t13.5 -67.5q0 -25 -13.5 -62.5t-32 -77.5t-37.5 -79t-32 -70q-4 -20 -4 -24q0 2 6 -23.5t13.5 -62.5t13.5 -74t6 -55q0 -20 -16.5 -50t-39 -57.5t-49 -47t-44.5 -19.5q-76 0 -102.5 53t-26.5 141z" />
<glyph unicode="#" horiz-adv-x="2074" d="M252 848q0 53 41 100t123 80q63 27 131.5 49.5t134.5 44.5q27 80 54.5 153t54.5 136q106 252 194 252q29 0 57.5 -33t28.5 -61q0 -96 -16.5 -178t-48.5 -183q41 0 92 6.5t102 14.5t95 16t73 12q20 57 41 113.5t41 114.5q29 49 92 49q72 0 92.5 -26.5t20.5 -77.5 q0 -61 -25 -121q197 -27 223 -35q150 -43 150 -148q0 -37 -41 -61.5t-104.5 -39.5t-139.5 -23.5t-143 -12.5q-6 -10 -10 -35.5t-9.5 -56.5t-9.5 -59.5t-8 -46.5q55 12 82 17t84 5t116.5 -8t106.5 -27.5t77 -53.5t30 -85q0 -82 -48.5 -130t-115.5 -48q-37 0 -88 29.5 t-90 29.5l-211 -26q-2 -8 -15.5 -66.5t-35.5 -169.5q-29 -119 -44 -190q-16 -76 -26 -118t-12 -46q-33 -82 -109 -82q-37 0 -75 30.5t-38 73.5q0 23 8.5 83.5t21.5 138t28.5 164.5t27.5 163q-53 -8 -96 -15t-91 -15.5t-106.5 -19.5t-142.5 -30q4 -4 4 -22q0 -27 -10 -67 t-25.5 -84t-32 -88t-30.5 -77q-16 -41 -23.5 -78.5t-22.5 -67.5t-47 -47.5t-97 -17.5q-10 0 -28 7.5t-35 18.5t-30.5 26.5t-13.5 29.5q0 -4 9 42t22.5 106.5t30 117t28.5 72.5q-41 -16 -77 -15t-68 1q-35 0 -49.5 42t-14.5 95q0 39 25.5 69.5t68.5 55.5t97.5 45.5 t109.5 36.5q0 51 13.5 107.5t29.5 123.5q-33 -10 -93 -25.5t-119.5 -20.5t-102.5 8.5t-43 58.5zM860 682q82 10 186.5 28.5t210.5 37.5q14 70 20.5 116.5t6.5 93.5l-379 -53z" />
<glyph unicode="$" horiz-adv-x="1271" d="M12 256q2 20 22.5 54t37.5 34q2 0 63.5 -22.5t143 -49t161.5 -49t121 -22.5q174 0 277.5 85t103.5 203q0 113 -119 162q-16 6 -78.5 28.5t-135 51.5t-136 55.5t-82.5 38.5q-133 90 -133 222q0 31 6 61q31 172 314 344q8 4 60 32.5t148 80.5q6 49 7 90q0 27 -1 50.5 t-1 45.5v25q2 29 49 57.5t88 28.5q49 0 67.5 -32t18.5 -101q0 -25 -3 -53.5t-5 -43.5q131 0 177 -33.5t46 -117.5q0 -55 -38 -85t-91 -30q-45 0 -136.5 -23.5t-183.5 -61.5t-160.5 -84t-68.5 -93q0 -39 20.5 -63.5t66.5 -46t117.5 -44t172.5 -59.5q129 -47 203.5 -147.5 t74.5 -231.5q0 -68 -43 -156t-109.5 -169t-144.5 -138t-147 -63q-12 -127 -29 -170q-37 -88 -137 -88q-63 0 -95 54t-32 126q0 27 6 49q-23 0 -100.5 21.5t-160.5 60.5t-146.5 94t-55.5 123z" />
<glyph unicode="%" horiz-adv-x="1914" d="M127 999q0 43 35 114t84 145.5t104.5 143t95.5 109.5q152 150 281 150q31 0 53.5 -11.5t41 -23.5t35.5 -23.5t40 -11.5q41 0 195 49q88 27 176 55.5t178 57.5q37 0 62.5 -25.5t25.5 -66.5q0 -66 -107 -293q-39 -88 -99 -212t-142 -286q-92 -182 -145.5 -336.5t-99.5 -297 t-99.5 -280.5t-143.5 -288q-27 -49 -102 -49q-47 0 -81 44t-34 99q0 25 160 408q63 152 142 336t173 401q88 199 142.5 322t77.5 168q-6 -4 -29 -11.5t-48.5 -16.5t-50 -17.5t-34.5 -14.5q6 -23 12 -63.5t6 -65.5q0 -117 -248 -303q-238 -176 -389 -176q-53 0 -101 21.5 t-85 58.5t-59.5 86t-22.5 104zM403 1063q0 -33 36 -38t82 6t91 31.5t64 39.5q67 67 67 139q0 45 -23.5 67.5t-72.5 63.5q-33 -20 -65.5 -38.5t-59.5 -41.5q-59 -47 -89 -107.5t-30 -121.5zM1028 244q0 41 37 119.5t88 163.5t107.5 163t93.5 119q164 176 307 176 q90 0 149.5 -101.5t59.5 -265.5q0 -160 -174 -382q-201 -258 -422 -259q-119 0 -187 84q-59 76 -59 183zM1251 330q0 -51 9.5 -80t48.5 -27q129 12 219 108.5t90 237.5q0 59 -20.5 84t-86.5 25q-27 0 -70.5 -47t-85.5 -106.5t-73 -117t-31 -77.5z" />
<glyph unicode="&#x26;" horiz-adv-x="1253" d="M80 266q0 131 41 226q20 51 160 198q-57 80 -87 144.5t-30 140.5q0 145 123 299q27 33 80 84t111.5 97t113.5 80t86 34q94 0 153 -35q90 -55 91 -201q0 -88 -64.5 -229t-191.5 -324l127 -127q41 117 109.5 194t131.5 68q31 -4 47.5 -20t16.5 -61q20 10 -22 -61t-120 -226 q47 -41 96.5 -83t94.5 -85q41 -37 58.5 -81t17.5 -85q-27 -47 -53.5 -81t-61.5 -34q-20 0 -65.5 21.5t-93.5 49.5t-89 53.5t-53 31.5q-84 -166 -215 -260q-109 -78 -180 -78q-66 0 -125.5 27.5t-105.5 75t-73.5 111t-27.5 136.5zM367 377q0 -57 29.5 -109.5t68.5 -52.5 q55 0 90 33q4 2 94 141q-39 33 -80 62q-57 39 -90 61.5t-39 26.5q-74 -72 -73 -162zM440 1042q0 -39 15.5 -70.5t48.5 -66.5q63 86 119 187q63 108 63 137t-15.5 64.5t-41.5 39.5q-39 4 -74 -29.5t-60.5 -81.5t-40 -98.5t-14.5 -81.5z" />
<glyph unicode="'" horiz-adv-x="673" d="M315 1122q0 197 113 404q104 195 178 194q43 0 56.5 -22.5t13.5 -67.5q0 -25 -13.5 -62.5t-32 -77.5t-38 -79t-31.5 -70q-4 -20 -4 -26q0 -23 6 -54.5t12.5 -63.5t12.5 -57.5t6 -37.5q0 -18 -15.5 -48t-39 -57.5t-49 -48t-44.5 -20.5q-76 0 -103.5 52t-27.5 142z" />
<glyph unicode="(" horiz-adv-x="1067" d="M178 610q0 162 123 398q51 98 121 207.5t160 230.5q88 117 176 196q102 92 162 93q29 0 42 -13.5t13 -66.5q0 -16 -30 -62.5t-69.5 -96.5t-77.5 -96t-53 -63q-61 -84 -104 -150.5t-70 -117.5q-92 -180 -92 -358q0 -252 85 -388.5t245 -136.5q18 0 35.5 -15t31 -38.5 t19.5 -49.5t4 -46q-4 -39 -34.5 -64.5t-76 -40t-96.5 -20.5t-98 -6q-45 0 -93 22.5t-92 60.5t-80 85t-61 96q-90 184 -90 440z" />
<glyph unicode=")" horiz-adv-x="929" d="M178 2q133 211 242 444q119 252 119 496q0 98 -27 193.5t-76 171.5q-6 10 -35.5 34.5t-63.5 54t-60.5 59.5t-26.5 50q0 25 20.5 58.5t49 64.5t62.5 52.5t60 21.5q125 0 234 -176q137 -224 137 -613q0 -248 -199 -608q-207 -379 -370 -379q-66 0 -66 76z" />
<glyph unicode="*" horiz-adv-x="1415" d="M307 647q0 18 27.5 54t71 81t96.5 96.5t104 102.5q-39 4 -79 7t-76 11q-86 16 -86 97q0 41 25.5 71.5t66.5 53t95 39t112 28.5q-6 10 -34 39t-58.5 62.5t-55 65.5t-24.5 48q0 6 16 36t40.5 61.5t52.5 58.5t52 27q29 0 64 -23t69.5 -56.5t69.5 -73.5t64 -77q12 25 25 53.5 t30.5 54t38 43t45.5 17.5q51 0 69.5 -46t32.5 -87q39 45 49.5 54t38.5 9q43 0 61.5 -22.5t18.5 -50.5q0 -33 -34.5 -84t-88.5 -99q109 0 181.5 -54t82.5 -148q2 -6 3 -31q0 -45 -20.5 -73.5t-66.5 -28.5q-33 0 -68.5 10t-88.5 41q8 -47 16 -96.5t8 -92.5q0 -51 -15 -80.5 t-52 -29.5q-23 0 -48.5 17.5t-50 43t-43 53t-24.5 48.5q-8 -43 -24.5 -87.5t-40 -80t-52.5 -58t-65 -22.5q-35 0 -48.5 22.5t-13.5 65.5q0 14 3 37.5t5 46t5.5 43t3.5 28.5q-51 -70 -117 -135q-168 -178 -258 -178q-37 0 -74 27.5t-37 60.5z" />
<glyph unicode="+" horiz-adv-x="1808" d="M156 592q0 147 409 239q76 16 156 29.5t164 24.5q16 176 61 282q70 168 201 168q68 0 67 -92q0 -2 -5 -40t-10 -85t-10 -93t-5 -69q92 0 149.5 2.5t101.5 4.5t84 4t99 2q72 0 129 -32t57 -95q0 -86 -44 -134.5t-128 -48.5q-6 0 -30.5 -1t-57.5 -3t-67.5 -3t-61.5 -1 q-59 0 -144 -9t-157 -17q-12 -78 -19.5 -133.5t-12.5 -98.5t-6 -76.5t-1 -68.5q0 -141 -28 -187q-47 -72 -220 -71q-49 0 -69.5 43t-20.5 104q0 25 7.5 74t17.5 111.5t24.5 131t28.5 130.5q-63 -14 -113.5 -24.5t-85.5 -16.5q-223 -43 -305 -43q-8 -2 -33.5 1t-52 12 t-48 28.5t-21.5 50.5z" />
<glyph unicode="," horiz-adv-x="882" d="M68 -446q68 156 121 288.5t53 261.5q0 51 14 103.5t40 95.5t61.5 69.5t76.5 26.5q57 -2 77.5 -39t20.5 -94q0 -203 -102 -454q-131 -322 -326 -322q-10 0 -23 26.5t-13 37.5z" />
<glyph unicode="-" horiz-adv-x="1564" d="M180 479q0 86 232 158q63 20 173.5 41.5t231.5 40t231.5 30t174.5 11.5q111 0 142.5 -34t31.5 -136q0 -63 -52.5 -113.5t-121.5 -50.5q-45 10 -90.5 28.5t-108.5 28.5l-711 -90q-57 0 -95 21.5t-38 64.5z" />
<glyph unicode="." horiz-adv-x="813" d="M139 262q0 25 23.5 57.5t57.5 60.5t69 47t59 19q35 0 68 -33.5t59.5 -82.5t41.5 -101.5t15 -89.5q0 -20 -16 -42.5t-41.5 -42t-58.5 -32t-64 -12.5q-33 0 -69.5 29t-68.5 68.5t-53.5 82.5t-21.5 72z" />
<glyph unicode="/" horiz-adv-x="960" d="M90 -104.5q0 36.5 11.5 76.5t21.5 69q35 100 64.5 182t56.5 148q37 94 89 219t122 280q276 629 376 797q88 150 175 150q41 0 61 -32t20 -77q0 -16 -23.5 -63.5t-58 -108.5t-70.5 -127t-61 -121q-123 -272 -230 -582.5t-216 -609.5q-51 -145 -120.5 -217t-127 -72t-74 26 t-16.5 62.5z" />
<glyph unicode="0" horiz-adv-x="1130" d="M72 475q0 129 123 342q51 88 90 143.5t67 81.5q66 63 123 119t109 103q199 178 288 178q174 0 273 -133q92 -125 92 -320q0 -90 -34 -199.5t-92 -221t-138 -217t-172 -186.5t-192.5 -130t-200.5 -49q-158 0 -254 164q-82 139 -82 325zM350 475q0 -31 6 -66.5t18.5 -66.5 t32 -51.5t48.5 -20.5q162 0 323 181q185 204 185 485q0 78 -46.5 139.5t-113.5 61.5q-33 0 -81 -32t-97.5 -78t-94.5 -97t-69 -90q-111 -172 -111 -365z" />
<glyph unicode="1" horiz-adv-x="731" d="M57 143q0 18 105 207q39 72 78 169t84 222q45 127 101 245t118 222q115 201 180 201q37 0 65.5 -34.5t28.5 -63.5q0 -57 -36 -150.5t-84 -194t-96 -194.5t-75 -154q-39 -90 -62.5 -192t-57 -191.5t-90 -147.5t-158.5 -58q-63 0 -82 25.5t-19 88.5z" />
<glyph unicode="2" horiz-adv-x="1056" d="M12 135q0 33 82 129t209 264l129 172t72 101q63 86 100 155q70 125 64 187q0 45 -2 47q-10 18 -45 18q-8 0 -48.5 -23.5t-85.5 -53t-86 -53t-53 -23.5q-4 0 -15 8t-22.5 17.5t-20.5 19.5t-9 12q0 59 59 120.5t141 113t165 83t132 31.5q84 0 129 -63q41 -57 41 -125 q0 -113 -98 -303q-76 -145 -209 -344q-49 -72 -98 -143.5t-97 -143.5q35 8 87.5 12t93.5 4h67q78 0 149.5 -15t126 -43t87.5 -65.5t33 -80.5q0 -23 -18.5 -50.5t-45.5 -52t-54.5 -41t-45.5 -16.5q-43 14 -78 25.5t-62 19.5q-156 45 -268 45q-37 0 -99.5 -9.5t-124 -19.5 t-108.5 -19t-49 -9q-53 0 -89 31.5t-36 80.5z" />
<glyph unicode="3" horiz-adv-x="1206" d="M41 365q0 25 20.5 57.5t50 62t61.5 50t54 20.5q35 0 72 -56.5t80 -124t97 -123.5t122 -56q55 0 108.5 38.5t96.5 95t69.5 120t26.5 112.5q0 131 -68 172q-49 31 -188 31q-33 0 -57.5 22.5t-24.5 59.5q0 49 49 90t109.5 80t110 82t49.5 96q0 57 -95 57q-18 0 -51 -4 t-67.5 -10t-65.5 -10t-47 -4q-49 0 -87 26.5t-38 75.5q0 51 39 88t101.5 61.5t140 37t155.5 12.5q43 0 93.5 -13.5t93.5 -40t71.5 -62.5t28.5 -83q0 -154 -59 -242q-20 -29 -111 -100q188 -90 188 -301q0 -94 -59 -223t-151.5 -247t-204 -201t-213.5 -83q-59 0 -144.5 44 t-164 111t-135 142.5t-56.5 139.5z" />
<glyph unicode="4" horiz-adv-x="1183" d="M76 512q0 76 198 354q55 76 87 119t42 57q63 92 124 170t110 134.5t86 89t55 32.5q43 0 71 -19t28 -52q0 -16 -27 -61.5t-62.5 -98.5t-73.5 -106.5t-59 -86.5q-51 -82 -98 -158.5t-90 -152.5q23 0 62.5 4t84.5 10.5t85 10.5t63 4q23 70 48.5 137.5t51.5 130.5 q82 199 137 289q80 133 138 133q39 0 58 -33t19 -82l-30 -75q-29 -74 -67 -171.5t-72.5 -190.5t-45.5 -130q125 -16 162 -33q68 -33 68 -119q0 -82 -40 -119.5t-104 -37.5q-43 0 -72.5 2t-97.5 12q-8 -16 -15 -34.5t-15 -34.5q-43 -102 -56 -168q-4 -14 -4 -31v-25v-49 q0 -63 -43 -100t-114 -37q-27 0 -64 40t-37 87q0 111 86 352q-49 -12 -113.5 -23.5t-130 -20.5t-127 -14t-104.5 -5q-35 0 -68.5 31.5t-33.5 68.5z" />
<glyph unicode="5" horiz-adv-x="1071" d="M31 285q0 14 19.5 44.5t46 60.5t55 52.5t45.5 22.5q27 0 55.5 -27.5t62 -59.5t72.5 -59.5t84 -27.5q100 0 213 100q131 113 131 246q0 59 -26.5 107.5t-83.5 48.5q-88 0 -193.5 -36t-200.5 -67q-31 0 -63.5 35t-32.5 68q0 18 12.5 48.5t32 67.5t42 76t42.5 72 q29 45 50.5 78.5t42 64.5t44 64.5t56.5 78.5q49 76 141 91.5t219 15.5q106 0 181 -15.5t75 -62.5q0 -100 -80 -132t-192 -32q-51 0 -94.5 2t-81.5 4q-37 -49 -72 -99t-55 -99q55 14 112.5 21t136.5 7q113 0 179 -65q80 -80 79 -252q0 -217 -145 -399q-117 -147 -301 -244 q-154 -80 -258 -80q-135 0 -248 107q-102 96 -102 174z" />
<glyph unicode="6" horiz-adv-x="1019" d="M70 295q0 106 43 236.5t108.5 259.5t144 246.5t152.5 197.5q197 217 344 217q12 0 31.5 -16.5t38 -42t31 -57t12.5 -62.5q0 -33 -40 -63.5t-95.5 -57.5t-111.5 -53.5t-91 -55.5q-47 -41 -100.5 -113.5t-97.5 -154.5t-72.5 -165t-28.5 -146q0 -72 28.5 -103.5t98.5 -31.5 q53 0 103 21.5t89 56t62.5 76.5t23.5 83q0 39 -27.5 53.5t-76.5 14.5q-18 0 -35.5 -1t-36.5 -1q-51 0 -76.5 10t-25.5 51q0 27 28.5 68t67.5 80t81 65.5t69 26.5q45 0 98 -23.5t98 -61.5t76 -86t31 -95q0 -217 -258 -439q-236 -201 -389 -200q-45 0 -97.5 24.5t-96.5 63.5 t-73.5 86t-29.5 92z" />
<glyph unicode="7" horiz-adv-x="1101" d="M137 813q0 74 53.5 127t159.5 68q74 10 151 14t152 12q8 25 15.5 57.5t13.5 63.5t10 57.5t4 38.5q-88 -23 -170 -32t-157 -9q-86 0 -140 17q-74 25 -73 88q0 55 25.5 87t70.5 48t103.5 20.5t125.5 4.5q23 0 80 4t122 10t123 10t79 4q59 0 82.5 -27.5t23.5 -80.5 q0 -55 -20.5 -144.5t-38.5 -173.5l180 -6q88 -2 116.5 -34.5t28.5 -102.5q0 -53 -15 -81t-40.5 -40t-61.5 -13t-77 -1q-72 0 -127 -2t-107 -9q-14 -47 -36.5 -109.5t-48 -133t-53 -146t-52.5 -147.5q-16 -47 -32.5 -96.5t-39 -91t-56.5 -68.5t-83 -27q-47 0 -82 29t-35 70 q0 47 51 168q90 219 143.5 352t69.5 182q-121 -31 -215 -47t-161 -16q-20 0 -41 35.5t-21 70.5z" />
<glyph unicode="8" horiz-adv-x="1196" d="M111 342q0 141 194 289q78 59 176 112q-8 14 -22.5 36t-27.5 44.5t-22.5 43t-9.5 32.5q0 51 31 112.5t77 121t101.5 111.5t106.5 85q170 111 362 111q41 0 89 -15.5t89 -43t69 -64.5t28 -80q0 -176 -183 -354q-127 -123 -278 -201q20 -14 37.5 -32.5t34.5 -39.5 q41 -53 41 -88q0 -184 -162 -334q-143 -131 -267 -131q-154 0 -301 80q-164 90 -163 205zM399 406q0 -72 44 -91.5t147 -19.5q49 0 97 26.5t48 61.5q0 25 -12 52.5t-28.5 53t-34 49t-27.5 37.5q-31 -8 -72 -29.5t-76.5 -48t-60.5 -51t-25 -40.5zM662 1038q0 -18 31.5 -67 t70.5 -101q51 27 98 53.5t88 55.5q119 84 127 143q6 39 -25.5 50.5t-105.5 11.5q-33 0 -82 -13.5t-94 -34t-76.5 -46t-31.5 -52.5z" />
<glyph unicode="9" horiz-adv-x="987" d="M53 592q0 72 36 158t95.5 173t136 170t160.5 146.5t168 101t158 37.5q33 0 56.5 -30.5t47.5 -59.5q23 31 62 50.5t69 19.5q47 0 66.5 -31t19.5 -90q0 -61 -8 -102t-24.5 -81t-42 -87t-62.5 -119q-33 -66 -73.5 -162t-88.5 -223q-35 -94 -66.5 -181t-57.5 -167 q-20 -59 -69.5 -104.5t-86.5 -39.5q-39 6 -82 38t-43 73q0 96 57 190q6 10 24.5 45t41 77t43 82t31.5 56q-41 -29 -77 -51t-67 -37q-92 -41 -182 -41q-45 0 -89 12.5t-78 37t-54.5 59.5t-20.5 80zM319 729q0 -53 70 -53q72 0 126 51t106 109q37 35 77.5 98t79.5 135 q-33 25 -63.5 36t-57.5 11q-49 0 -108.5 -43t-109.5 -104.5t-85 -128t-35 -111.5z" />
<glyph unicode=":" d="M188 236q0 76 58.5 126t138.5 50q74 0 125 -53.5t51 -129.5q0 -37 -19.5 -68.5t-49 -54t-66.5 -36t-74 -13.5q-78 0 -121 51.5t-43 127.5zM358 870q0 74 54.5 123t124.5 49q68 0 110.5 -63t42.5 -141q0 -70 -42 -121t-111 -51q-78 0 -128.5 60t-50.5 144z" />
<glyph unicode=";" horiz-adv-x="731" d="M43 -338q0 23 15.5 59.5t35 76.5t36.5 77t22 59q8 59 15 120t19 118q12 61 52.5 92t91.5 31q25 0 47 -19.5t38.5 -46t27 -56.5t10.5 -50q0 -90 -23 -180q-27 -100 -86 -181t-125 -139q-63 -55 -110 -55q-31 0 -48.5 28.5t-17.5 65.5zM209 723q-8 72 46 126t134 54 q68 0 117 -41t49 -104q0 -61 -42 -111.5t-95 -50.5q-82 0 -141.5 30.5t-67.5 96.5z" />
<glyph unicode="&#x3c;" horiz-adv-x="1073" d="M37 672q0 12 32.5 38.5t86 60.5t119 73t128.5 76q104 78 174 128t115 79.5t73 41t48 11.5q59 0 78.5 -17.5t19.5 -79.5q0 -47 -56 -103t-135 -112.5t-165 -108.5t-145 -91q53 -37 108 -74t109 -72q90 -61 157.5 -109t110.5 -81q131 -100 131 -139q0 -57 -19.5 -89 t-72.5 -32q-33 0 -86 25.5t-118.5 65.5t-138.5 88t-145 93q-68 43 -137 82t-137 82q-135 86 -135 164z" />
<glyph unicode="=" horiz-adv-x="1298" d="M231 213q0 31 47.5 70t98.5 55l342 57q63 10 136 26.5t136 16.5q55 0 93 -18.5t38 -61.5q0 -35 -21.5 -75.5t-54 -76.5t-71.5 -59.5t-76 -23.5q-10 0 -25.5 11t-35 23.5t-40 24t-38.5 11.5q-59 0 -108.5 -15.5t-78.5 -19.5q-94 -16 -148 -25.5t-67 -9.5q-72 0 -99.5 18.5 t-27.5 71.5zM244 610q0 76 227 133q111 27 186.5 46.5t132 32t101.5 18.5t94 6q59 0 86 -38t27 -93q0 -31 -20.5 -64t-54.5 -61.5t-76 -47t-85 -18.5t-67.5 27t-53.5 31q-25 4 -104 -13q-211 -41 -264 -41q-61 0 -95 18.5t-34 63.5z" />
<glyph unicode="&#x3e;" horiz-adv-x="960" d="M57 158q0 27 38 70.5t96.5 96t128 105.5t134 98t116 78t69.5 41q-150 123 -281 244q-174 162 -174 217q0 123 97 123q39 0 86 -25.5t99 -67.5t106.5 -93.5t109.5 -102.5q23 -18 75 -53t105 -78t95 -89t42 -83q0 -98 -129 -158q-104 -47 -170.5 -84t-95.5 -59 q-25 -20 -66.5 -58t-99.5 -92q-186 -174 -237 -174q-53 0 -98.5 46t-45.5 98z" />
<glyph unicode="?" horiz-adv-x="950" d="M244 174q0 66 44 122t107 56q49 0 75 -60t26 -126q0 -78 -35 -107.5t-117 -29.5q-66 0 -83 36.5t-17 108.5zM358 662q0 125 82 245q27 43 74 98.5t111 108.5q45 39 94 72t96 67q41 47 41 133q0 63 -46 100.5t-99 37.5q-37 0 -72 -29t-68.5 -61.5t-64.5 -61.5t-60 -29 q-47 0 -67.5 44.5t-20.5 107.5q0 61 35 108.5t94.5 79t141.5 48t176 16.5q152 0 246 -90q86 -84 86 -211q0 -164 -148 -295q-88 -61 -156.5 -107.5t-116.5 -97.5t-73 -118.5t-25 -174.5q0 -94 -31.5 -136t-119.5 -42q-70 0 -89.5 55.5t-19.5 131.5z" />
<glyph unicode="A" horiz-adv-x="1230" d="M33 100q20 47 40.5 89t41.5 81q53 104 131 241.5t180 307.5q264 436 369 563q76 94 145 95q92 0 114.5 -60.5t22.5 -161.5v-73q0 -37 8.5 -92.5t8.5 -85.5q0 -43 -7 -68q55 12 115 12q70 0 111 -18q37 -17 37 -55v-7q0 -47 -25 -88t-74 -57q-59 -20 -100 -28.5t-61 -16.5 l-7 -207q33 -31 59.5 -66.5t26.5 -76.5q0 -80 -69 -205q-92 -166 -223 -166q-74 0 -95.5 46t-21.5 126q0 -6 8 56.5t18.5 147.5t18.5 171t8 127q-68 -27 -108.5 -43.5t-55.5 -22.5q-35 -16 -53 -24.5t-34.5 -22.5t-36 -38.5t-54.5 -71.5q-86 -117 -123 -183 q-39 -72 -62.5 -112.5t-31.5 -51.5q-50 -69 -121 -69h-2q-33 25 -49 37q-49 43 -49 71zM676 834q20 8 60 15t81 15q-2 12 -3 36t-3 51.5l-4 55t-8 46.5q-8 -14 -25.5 -43t-36 -62t-36 -64.5t-25.5 -49.5z" />
<glyph unicode="B" horiz-adv-x="1241" d="M16 164q0 29 34 58.5t67 29.5q-10 20 -11 49q0 33 14.5 78t35 94t44 97t42.5 87q27 61 52 123t50 125l80 203q-18 6 -45 14t-51.5 19.5t-42 27t-17.5 37.5q0 55 40 99.5t102.5 74t137.5 45t144 15.5q207 0 299 -19q226 -47 226 -186q0 -70 -16.5 -139.5t-57.5 -122.5 q-43 -59 -75 -97t-48 -59q92 -39 128 -94t36 -162q0 -276 -221 -461q-213 -176 -508 -176q-84 0 -163 19.5t-140.5 51.5t-98.5 76t-37 93zM319 229q53 -29 101.5 -38t146.5 -9q164 0 267 78q80 65 92 143q2 12 2 26.5v21.5q0 92 -54.5 134t-154.5 58q-35 4 -82 6t-105 2h-30 q-31 -186 -90 -315q-12 -29 -19.5 -44.5t-16.5 -24.5t-21.5 -17t-35.5 -21zM578 877q102 27 156 41t59 16q104 49 127 178v5q0 19 -25 30q-29 12 -74 12q-35 0 -58.5 -4t-74.5 -14z" />
<glyph unicode="C" horiz-adv-x="1038" d="M31 377q0 147 94 381q109 274 270 446q203 217 434 217q14 0 55.5 -10t85.5 -27.5t77.5 -40t33.5 -45.5q0 -31 -13 -65.5t-36.5 -63t-52.5 -48t-59 -19.5q-10 0 -49.5 24.5t-79.5 24.5q-172 0 -299 -195q-164 -254 -164 -452q4 -20 6 -34.5t4 -25.5q18 -61 47 -61 q2 0 43 14.5t100.5 37t130 47t130 47t100.5 37t43 14.5q55 0 68.5 -17.5t13.5 -64.5q0 -121 -189 -242q-72 -45 -163 -86t-201 -78q-184 -59 -236 -59q-84 0 -139 99t-55 245z" />
<glyph unicode="D" horiz-adv-x="1169" d="M-16 1034q0 96 204 228q223 143 426 143q37 0 74 -6q94 -12 192.5 -55.5t179.5 -109t132 -151.5t51 -186q0 -129 -115 -336q-125 -219 -288 -360q-195 -168 -385 -168q-143 0 -221 67.5t-78 190.5q0 59 94 297q57 139 116.5 279.5t116.5 279.5q-49 -20 -83.5 -31.5 t-69.5 -28t-77 -45t-108 -84.5q-43 -37 -49 -36q-51 0 -81.5 34.5t-30.5 77.5zM475 348q0 -35 29 -35q74 0 162 54.5t164.5 134.5t128 171t51.5 163q0 156 -127 245q-45 31 -127 58q0 2 -16.5 -39t-42 -105.5t-57.5 -146.5t-61.5 -161t-54 -148.5t-35.5 -110.5 q-6 -27 -10 -46.5t-4 -33.5z" />
<glyph unicode="E" horiz-adv-x="1110" d="M59 117q0 27 20.5 116t49.5 197.5t59.5 218t49.5 178.5q12 51 31.5 104.5t46 97.5t61.5 71.5t76 27.5q41 96 82 125q109 76 401 76h123q121 0 175 -8t54 -41q0 -150 -217 -199q-127 -10 -255 -20t-255 -21q0 -61 -16.5 -112t-50.5 -127q14 0 65 5t108.5 11t108.5 11.5 t66 5.5q70 0 98.5 -12.5t28.5 -55.5q0 -154 -183 -201q-94 -26 -330 -26h-18q-16 -41 -30.5 -88.5t-26.5 -88.5q57 14 141 27.5t172 13.5q78 0 128 -2t71 -6q104 -23 104 -98q0 -178 -168 -178q-23 0 -35 2t-20 4q-57 0 -131 -8t-156 -27q-78 -18 -153.5 -37.5t-153.5 -40.5 q-47 0 -84 35t-37 70z" />
<glyph unicode="F" horiz-adv-x="1161" d="M57 172q0 66 43 178q127 340 148 420q72 301 153 420q70 104 168 104q6 0 20.5 -8t30 -18.5t26.5 -17.5l11 -7q76 80 174.5 102.5t239.5 22.5q68 0 130.5 -11t110.5 -31.5t75.5 -50.5t27.5 -67q0 -194 -190 -194h-2q-29 0 -64 13t-73.5 30.5t-77.5 31t-76 13.5 q-100 0 -197.5 -46t-144.5 -128q-6 -12 -19.5 -56.5t-23.5 -66.5q16 2 57 7t92.5 10t106.5 9.5t100 4.5h58q109 0 145 -15q63 -25 63 -94q0 -98 -42 -134t-138 -36q-16 0 -57 2t-64 2h-407q-23 -102 -47.5 -202.5t-46.5 -200.5q0 -80 -43 -115t-123 -35q-72 0 -108 49 t-36 115z" />
<glyph unicode="G" horiz-adv-x="1038" d="M57 285q0 125 95 364q109 283 258 463q188 227 383 227q84 0 147.5 -31.5t63.5 -78.5q0 -70 -51.5 -113t-116.5 -43q-100 0 -179 -32.5t-116 -108.5q-57 -109 -97.5 -191t-62.5 -133q-20 -47 -33.5 -91t-17.5 -80t3 -57.5t25 -21.5q49 0 103.5 19.5t101.5 51.5t82 72 t45 79q16 63 39 96t86 33q133 0 133 -111q2 -12 -11 -66.5t-32.5 -130t-44 -160.5t-44 -159t-33 -125t-11.5 -57q0 -10 12.5 -19.5t25.5 -21t25.5 -26.5t12.5 -34q0 -35 -19.5 -61.5t-50 -45t-66.5 -27.5t-69 -9q-47 0 -82 42t-35 77q0 119 28 219t54 192q-123 -82 -129 -84 q-82 -45 -149 -45q-143 0 -213 68q-59 59 -60 160z" />
<glyph unicode="H" horiz-adv-x="1181" d="M29 109q0 12 23.5 72.5t53 134t58.5 142t39 93.5q2 20 -18.5 54t-20.5 54q0 43 38 83t64 85q45 215 121 375q82 180 154 180q29 0 62.5 -35.5t33.5 -66.5q-8 -31 -15.5 -55.5t-11.5 -42.5q-37 -131 -58.5 -211t-29.5 -109q131 29 261 57.5t202 53.5q14 78 28.5 140.5 t28.5 109.5q51 174 203 174q41 0 55.5 -25.5t14.5 -68.5q0 -14 -2 -39t-2 -29q0 -86 -78 -301q0 2 -16.5 -39t-42 -104.5t-55 -140.5t-55.5 -145.5t-43 -120.5t-17 -69q0 -16 20 -51t20 -61q0 -98 -73.5 -143.5t-182.5 -45.5q-53 0 -89.5 33t-36.5 80q0 14 27.5 86t63 159 t70.5 171t47 123q-59 -12 -119.5 -27.5t-121.5 -36.5q-78 -23 -176 -61q-16 -41 -27.5 -70t-19.5 -45q-23 -53 -41 -76q37 -57 38 -65q14 -31 15 -76q0 -41 -22.5 -82t-58.5 -74t-79 -52t-86 -19q-55 0 -99 37.5t-44 89.5z" />
<glyph unicode="I" horiz-adv-x="686" d="M135 145q12 63 21.5 116.5t17.5 92.5q47 240 91 420t93 354q31 113 80 168.5t94 55.5q51 0 74 -43.5t23 -96.5q0 -104 -41 -262q-76 -295 -80 -301q-43 -207 -43 -407q0 -43 -24.5 -80t-58.5 -62.5t-70 -40t-60 -14.5q-47 0 -82 25.5t-35 74.5z" />
<glyph unicode="J" horiz-adv-x="1189" d="M-82 426q0 29 22.5 57.5t55.5 52t70.5 39t70.5 15.5q59 0 84 -17.5t25 -42.5q0 -18 -10 -43q-14 -29 18.5 -55t89.5 -50t127 -42t127 -29q33 63 64.5 173t61.5 220.5t54.5 200.5t42.5 115q-53 -10 -99 -16.5t-91 -6.5q-90 0 -135 19q-61 25 -62 86q0 98 116 144t306 46 q20 0 67.5 6.5t108 14.5t127 14t123.5 6q25 0 51.5 -11t49 -28.5t38 -40t15.5 -47.5q0 -80 -47.5 -135t-114.5 -55q-45 0 -100.5 14t-71.5 14q-51 -82 -76 -152.5t-49 -174.5q-23 -102 -42.5 -187.5t-39.5 -150.5q-27 -90 -53.5 -158.5t-53.5 -116.5q-62 -112 -134 -112h-1 q-39 0 -114.5 21.5t-158.5 51t-159 62.5t-112 55q-190 113 -191 244z" />
<glyph unicode="K" horiz-adv-x="1327" d="M10 168q0 33 45 147q74 193 117 308.5t57 156.5q102 330 195 463q65 93 118 93q4 0 9 -1q33 -6 62.5 -34.5t29.5 -63.5q0 -29 -10 -72t-25.5 -94t-33 -106.5t-33.5 -104.5q113 70 237.5 136.5t261.5 131.5q233 113 303 113q132 0 132 -129q0 -90 -89 -123 q-53 -18 -84.5 -29.5t-60.5 -23.5t-65.5 -28.5t-100.5 -47.5q-47 -23 -97 -48.5t-108 -51.5q43 -66 80 -121t66 -98q117 -166 174 -193q47 -20 61.5 -54t14.5 -93q0 -70 -58.5 -116t-138.5 -46q-29 6 -55.5 19.5t-59 44t-71.5 79.5t-88 125q-8 10 -58.5 96t-144.5 244 q-35 -23 -53.5 -33t-69.5 -30q-39 -72 -61.5 -116t-49.5 -101q-12 -31 -12 -66q0 -15 7 -63q3 -22 3 -40q0 -19 -4 -32q-12 -66 -73.5 -103.5t-133.5 -37.5q-55 0 -95 38.5t-40 104.5z" />
<glyph unicode="L" horiz-adv-x="1089" d="M14 68q0 37 68 225q72 201 109.5 305t39.5 113q84 246 144 364q113 227 209 228q37 0 56 -5.5t26.5 -14.5t7.5 -24.5v-35.5q0 -27 -39 -134.5t-91 -245.5t-107.5 -281.5t-86.5 -242.5q119 0 262.5 29t290.5 29q31 0 68 -8.5t68.5 -23.5t53 -37.5t21.5 -53.5 q0 -115 -62.5 -150.5t-181.5 -35.5q-6 0 -57 -6.5t-126 -16.5t-162 -20.5t-162.5 -20.5t-129 -16t-59.5 -6q-5 -1 -11 -1q-15 0 -35 4q-28 5 -53.5 16t-43 28.5t-17.5 38.5z" />
<glyph unicode="M" horiz-adv-x="1763" d="M-31 -39q0 72 21 111q4 10 49 71q127 166 192 267q41 61 93.5 149t115.5 203q96 168 167 280.5t116 169.5q80 100 145 101q57 0 81 -58.5t24 -169.5q0 -6 -6 -64t-13.5 -134t-13.5 -150.5t-6 -113.5q0 -25 24 -25q6 0 34 35t70 89t89 119.5t91 125t79 105.5t47 63 q156 190 211 190q84 0 111.5 -62.5t27.5 -146.5q0 -111 -24 -252q-29 -164 -43.5 -268t-14.5 -145q0 -61 15.5 -94t33 -58t33 -51.5t15.5 -75.5q0 -74 -67 -122t-167 -48q-43 0 -69.5 22.5t-41 59.5t-19.5 84t-5 98q0 18 3 68.5t6 106t6 105.5t3 68v70q0 18 -2 42t-8 48 q-41 -57 -80 -115.5t-80 -115.5q-72 -102 -133 -180t-110 -132q-142 -155 -223 -155h-1q-82 0 -106.5 69.5t-24.5 169.5q0 31 3.5 74t7.5 84t7 75t3 46q-45 -66 -92 -137.5t-99 -149.5q-51 -78 -123.5 -185.5t-140.5 -205.5q-24 -37 -60 -47q-18 -5 -35.5 -5t-34.5 5 q-34 10 -57.5 35.5t-23.5 56.5z" />
<glyph unicode="N" horiz-adv-x="1470" d="M72 182q0 14 23.5 75.5t53 131.5t55 129.5t32.5 71.5q39 90 84 180t96 180q47 82 94 157t94 144q31 43 84 64.5t117 21.5q55 0 88 -31.5t51.5 -84t23.5 -117t5 -131.5q0 -12 -2 -45t-5 -72t-5.5 -77t-2.5 -60q0 -16 -1 -42t-3 -52.5t-3 -50t-1 -35.5q0 -31 19.5 -13.5 t44 52t48 70.5t32.5 46q59 88 86 140q33 66 63.5 121t56.5 100q33 53 65 95t58 73q88 96 153.5 133t129.5 37q51 0 81 -30t30 -77q0 -39 -29 -80t-68 -78.5t-78.5 -70.5t-60.5 -56q-72 -76 -121 -151.5t-96 -173.5q-100 -215 -277 -420q-184 -213 -286 -213q-88 0 -123 65.5 t-35 217.5q0 16 5 93t11.5 165t11.5 164.5t5 93.5q-29 -39 -65 -97.5t-69.5 -121t-63 -121t-46.5 -99.5q-16 -37 -32.5 -75.5t-16.5 -126.5q0 -25 -16.5 -48.5t-40 -42t-51 -30.5t-52.5 -12q-51 0 -101 35.5t-50 78.5z" />
<glyph unicode="O" horiz-adv-x="1116" d="M131 256q0 233 19 342q31 184 139 377q137 242 295 344q106 70 237 70q35 0 62.5 -3.5t62.5 -7.5q16 53 26.5 67.5t53.5 14.5q35 0 79 -39t82 -92t64.5 -107t26.5 -85q0 -352 -162 -637q-70 -125 -161 -223.5t-203 -174.5q-203 -135 -381 -135q-49 0 -93.5 23.5t-77 62.5 t-51 91.5t-18.5 111.5zM369 403q0 -70 36.5 -116.5t92.5 -46.5q213 0 370 258q138 225 138 471q0 68 -58.5 107.5t-167.5 39.5q-199 0 -321 -319q-90 -236 -90 -394z" />
<glyph unicode="P" horiz-adv-x="944" d="M31 156q10 35 23.5 77.5t27.5 92.5q18 63 32.5 117.5t24.5 97.5q18 72 44 158.5t58.5 183t67.5 199t72 202.5q10 27 64.5 56.5t122 55t134 42t99.5 16.5q98 0 209 -92q129 -109 129 -240q0 -156 -138 -307q-76 -84 -177 -149.5t-230 -118.5q-57 -25 -112.5 -50.5 t-110.5 -50.5l-45 -294q-18 -127 -181 -127q-43 0 -78.5 36.5t-35.5 94.5zM410 694q55 20 107 44t99 55q96 63 154 122q80 81 80 140q0 68 -33 96.5t-115 28.5q-88 0 -141 -72q-18 -27 -42.5 -87t-47 -126t-40 -122t-21.5 -79z" />
<glyph unicode="Q" horiz-adv-x="1136" d="M66 328q0 311 184 596q143 219 368 395q193 145 269 145q211 0 280 -135q47 -90 47 -287q0 -199 -39.5 -378t-170.5 -345q-45 -57 -83 -90.5t-67 -48.5q16 -66 29.5 -114t21.5 -80q51 -197 51 -226q0 -27 -16 -62.5t-41 -66t-51 -51.5q-23 -17 -40 -17q-4 0 -7 1 q-25 4 -54.5 58t-58.5 127t-54.5 148.5t-41.5 125.5q-43 -20 -109.5 -36t-128.5 -16q-176 0 -241 103q-47 78 -47 254zM301 348q0 -53 26.5 -75.5t63.5 -24.5h11q32 0 64 9q38 11 60 26v86q0 156 19 221q29 98 114 98q98 0 115 -59q4 -51 10.5 -100.5t16.5 -94.5 q61 55 102 182.5t41 274.5v78q0 88 -16 131q-25 59 -94 59q-39 0 -77 -26.5t-72 -65.5t-64.5 -84t-57.5 -80q-33 -27 -58.5 -29t-53.5 5q-33 -84 -58.5 -159t-46.5 -138q-45 -147 -45 -234z" />
<glyph unicode="R" horiz-adv-x="1202" d="M41 86q0 -4 10 42t25.5 120t34 161t34 163.5t25.5 129t12 56.5l101 440q20 90 68 144.5t95 54.5q39 0 64 -9.5t51 -46.5q41 51 115 96.5t131 45.5q145 0 217 -92q59 -78 59 -209q0 -213 -92 -342q-45 -61 -190 -174q51 -72 85 -119t50 -70q55 -76 172 -186 q31 -27 63.5 -35t60.5 -19.5t45 -35t17 -82.5q0 -66 -73 -117q-63 -45 -113 -45q-66 0 -132.5 42t-127.5 101q-29 27 -61.5 63t-67.5 83q-39 55 -68.5 95t-54.5 71.5t-45.5 60.5t-42.5 59q-53 72 -82 127q-16 -88 -32.5 -174t-26.5 -174q-12 -96 -28.5 -155.5t-41.5 -93 t-59.5 -46t-83.5 -12.5q-37 0 -75 22.5t-38 59.5zM440 729q76 33 143.5 80t119 98t81 105.5t29.5 103.5q0 37 -22.5 59.5t-47.5 22.5q-164 0 -233 -180q-2 -2 -70 -289z" />
<glyph unicode="S" horiz-adv-x="1024" d="M68 426q0 63 29.5 120.5t66.5 57.5q70 0 90 -6q45 -14 45 -66q4 -33 43 -79.5t93 -87.5t108.5 -71t89.5 -30q100 0 100 76q0 16 -41 81.5t-91 138.5t-93 132.5t-47 65.5q-96 164 -96 254q0 68 33.5 133t91 116.5t131 83t153.5 31.5t193 -61q129 -70 129 -150 q0 -59 -26 -104t-64 -45q-6 0 -32 16.5t-59.5 37t-68.5 36.5t-60 16q-76 0 -129 -29.5t-53 -95.5q0 -14 23.5 -58t59.5 -99.5t76 -113.5t72.5 -104.5t50 -71t9.5 -11.5q102 -164 102 -242q0 -127 -66.5 -205t-150.5 -78q-96 0 -189 23.5t-188 66.5q-70 31 -131 73t-106 85 t-71.5 86t-26.5 78z" />
<glyph unicode="T" horiz-adv-x="903" d="M12 1188q0 84 52.5 119.5t132.5 46.5q31 6 68.5 12t84.5 14q150 25 252.5 41.5t157.5 24.5q236 37 266 37q102 0 160.5 -46.5t58.5 -142.5q0 -35 -17.5 -68.5t-45 -61t-60 -45t-63.5 -17.5q-12 0 -27.5 12t-34 28.5t-38 29t-39.5 12.5h-154q-133 -471 -191 -705 q-10 -45 -13 -88t-3 -65q0 -25 2 -79v-17q0 -46 -9 -90q-11 -54 -44 -95t-100 -41q-59 0 -111.5 52.5t-52.5 115.5q0 27 16 91.5t41 147.5t53.5 172t53 163.5t41 123t16.5 50.5l76 239q-25 -8 -81.5 -19.5t-121 -21.5t-121.5 -17t-82 -7q-47 0 -85 24.5t-38 69.5z" />
<glyph unicode="U" horiz-adv-x="1372" d="M51 172q0 -4 14.5 42t36 119t48 163t51 173t43 150.5t26.5 95.5q49 170 105 261q75 122 184 122h2q33 0 50.5 -16t13.5 -41q0 -8 -15.5 -64.5t-38 -135t-49 -170t-49 -170t-37 -133t-12.5 -60.5v-25q0 -45 24 -45q7 0 17 4q41 18 106.5 85t150.5 169.5t171 212.5 q31 41 54.5 72t37.5 53q33 84 53.5 137.5t30.5 73.5q61 119 133 119q63 0 94 -38t31 -87q0 6 -11 -41t-25.5 -110.5t-26 -125t-11.5 -85.5q0 -72 -6 -138q-8 -88 -12 -136t-4 -56q0 -35 6 -80t17.5 -93t26 -96.5t30.5 -89.5q-4 -31 -21.5 -59.5t-42 -51t-52.5 -35.5t-48 -13 q-96 0 -155.5 111.5t-76.5 299.5q0 29 3.5 78t3.5 62q-57 -55 -113.5 -110.5t-114.5 -109.5q-174 -164 -288 -251q-164 -123 -240 -123q-74 0 -94.5 52t-20.5 134z" />
<glyph unicode="V" horiz-adv-x="1058" d="M123 1069q0 43 15.5 85t39 74t53 51t60.5 19q49 0 75.5 -43t40 -108.5t16.5 -147t3 -157.5v-127q0 -55 3 -111.5t8 -102.5t12.5 -76t15.5 -30q49 0 107.5 72t115.5 175t103.5 218t70.5 199q31 96 31 164t59.5 101.5t116.5 33.5q122 0 122 -117q0 -9 -1 -18 q0 -78 -107 -291q-45 -92 -101 -192.5t-122 -209.5q-94 -154 -250 -307q-186 -182 -297 -182q-51 0 -83.5 28.5t-51 74.5t-25 102.5t-6.5 113.5v54.5t3 48.5v538q0 10 -13.5 37t-13.5 31z" />
<glyph unicode="W" horiz-adv-x="1579" d="M135 268v750q0 55 17.5 108.5t45 95.5t64.5 67.5t76 25.5q35 0 60.5 -50.5t25.5 -156.5q0 -29 -1 -53.5t-3 -44.5q-8 -72 -11 -115t-3 -53q0 -154 4 -220.5t26 -66.5q6 0 53.5 60.5t103.5 136t105.5 143.5t61.5 82q124 149 179 149h1q47 0 72.5 -32.5t38 -87t15.5 -121 t3 -133.5q0 -190 7 -265t50 -75q53 0 106.5 65.5t98.5 153.5t78 176t45 133q94 344 105 371q63 168 157 168q57 0 84 -24.5t27 -100.5q0 -68 -64 -289q-80 -285 -180 -451q-70 -115 -139.5 -212t-140.5 -175q-168 -186 -279 -186q-49 0 -91 39t-75 105.5t-51.5 152.5 t-18.5 180v148q-27 -35 -53 -72t-55 -72q-57 -76 -115.5 -141.5t-113.5 -124.5q-139 -145 -195 -145q-51 0 -86 48t-35 109z" />
<glyph unicode="X" horiz-adv-x="1202" d="M129 39q0 18 25.5 70.5t65.5 123t88 150.5t93 151.5t82 127t54 75.5q-63 70 -112.5 126.5t-86.5 99.5q-137 158 -137 196q0 23 13 52.5t34.5 57t49.5 47t58 19.5q57 -8 338 -362q51 78 100.5 147.5t96.5 132.5q125 166 164 166q16 0 38.5 -12t42 -29.5t34 -35t14.5 -29.5 q0 -29 -37 -94.5t-87 -141.5t-104.5 -151.5t-87.5 -124.5q59 -76 108.5 -145.5t86.5 -133.5q111 -190 111 -311q0 -84 -31 -128t-117 -44q-39 0 -65.5 26.5t-44 61.5t-27.5 72t-17 55q-27 63 -80 134t-112 144q-53 -90 -92 -155.5t-66 -108.5q-98 -166 -114 -207 q-8 -29 -16.5 -57.5t-16.5 -56.5q-23 -47 -123 -47q-59 0 -91 47t-32 92z" />
<glyph unicode="Y" horiz-adv-x="935" d="M33 1116q0 33 17.5 73t42 73.5t52 56t50.5 22.5q72 0 167 -79q41 -35 285 -304q59 133 146 291q117 215 155 221q6 1 12 1q18 0 36 -8q24 -11 46.5 -30.5t37 -43t14.5 -41.5q0 -25 -31 -90.5t-72 -144.5t-84 -156.5t-69 -127.5q-61 -119 -104.5 -203.5t-65.5 -138.5 q-117 -266 -177.5 -401t-62.5 -141q-80 -166 -203 -166q-41 0 -70.5 32.5t-29.5 73.5q0 16 78 201q14 35 45 104.5t66.5 151.5t73.5 167t67 148q-16 53 -42 90t-63 71t-85 70t-109 87q-123 102 -123 141z" />
<glyph unicode="Z" horiz-adv-x="1200" d="M68 115q0 70 159 284q8 10 48 59.5t96.5 120t122 152.5t124 156t101.5 131t55 80q-51 -14 -112.5 -21.5t-153.5 -7.5q-164 0 -266 23q-127 29 -127 94q0 31 24.5 62.5t65.5 57t90 42t98 16.5q47 0 117 -5t108 -5q6 0 52.5 6t107 13t119.5 13.5t92 6.5q47 0 90 -27t43 -53 q0 -113 -135 -328q-111 -174 -276 -379q-27 -33 -84.5 -100.5t-143.5 -167.5q23 0 86.5 5t139 10t151.5 10.5t123 5.5q37 0 84 -12.5t87 -35t67.5 -53t27.5 -65.5q0 -37 -16 -75t-42 -68.5t-59.5 -50t-68.5 -19.5q-29 0 -50.5 15t-38 33.5t-28.5 34t-20 15.5q-2 0 -47 -5 t-117 -13.5t-159 -18.5t-170 -18t-152.5 -13.5t-106.5 -5.5q-49 0 -77.5 27t-28.5 74z" />
<glyph unicode="[" horiz-adv-x="790" d="M119 49q0 80 34.5 186.5t67.5 229.5l86 301q16 63 41 151.5t58 202.5q37 129 63.5 224.5t42.5 154.5q14 53 49 81t80 39t93 12t91 1q27 0 50.5 -1t44.5 -1q57 -6 96 -22.5t39 -65.5q0 -47 -34 -69.5t-85 -32.5t-110.5 -12.5t-110.5 -4.5q-14 -43 -37 -116.5t-49.5 -162.5 t-54 -184.5t-52.5 -183.5q-10 -37 -26.5 -99.5t-38.5 -152.5q-47 -182 -72 -280.5t-27 -108.5q152 0 247 -15.5t95 -66.5q0 -57 -48 -89t-101 -32q-18 0 -65.5 1t-100.5 2.5t-99 2.5t-65 1q-45 0 -73.5 32.5t-28.5 77.5z" />
<glyph unicode="\" horiz-adv-x="735" d="M68 1456q0 37 19 72t54 35q33 0 69 -39t69.5 -99.5t66.5 -132t60 -135.5q33 -76 65.5 -160t65.5 -178q43 -119 85 -239.5t80 -243.5q103 -314 103 -365q0 -45 -27.5 -72.5t-87.5 -27.5q-18 0 -49 62.5t-67.5 158.5t-75.5 211t-72 219.5t-57.5 183t-32.5 103.5 q-14 37 -66.5 157.5t-144.5 325.5q-57 123 -57 164z" />
<glyph unicode="]" horiz-adv-x="790" d="M-14 10q0 47 33.5 69.5t85 33t110.5 12.5t111 4q14 47 35.5 120t48 159t54.5 181t54 187q14 53 37 140.5t51 205.5q70 285 74 297q-78 0 -135.5 3t-89.5 8q-115 18 -115 69q0 59 51 85t103 26q18 0 64 1t98.5 2t98.5 2t64 1q47 0 75 -34t28 -79q0 -80 -35 -186.5 t-68 -229.5l-86 -301q-16 -63 -40.5 -151t-57.5 -203q-29 -96 -56.5 -190.5t-52.5 -188.5q-4 -16 -17 -37.5t-30.5 -40t-39 -31t-42.5 -12.5q-53 0 -125.5 -2t-152.5 -6q-55 0 -94 18.5t-39 67.5z" />
<glyph unicode="^" horiz-adv-x="1112" d="M446 1366q0 33 119 166q20 25 72.5 85t114 122.5t118 112t86.5 49.5q27 0 53.5 -27t50 -60.5t40 -65.5t22.5 -42l68 -86q47 -59 47 -125q0 -57 -45 -102t-109 -45q-70 0 -112.5 49t-112.5 145q-14 -14 -46 -48t-79 -87q-133 -152 -192 -152q-39 0 -67 38t-28 73z" />
<glyph unicode="_" horiz-adv-x="1380" d="M119 -344q0 51 25.5 83t84.5 32q23 0 117 3t202.5 6t203 6t116.5 3q205 0 301.5 -13.5t96.5 -62.5q0 -116 -78 -116q-10 0 -37 -1.5t-68 -3.5q-106 -6 -173.5 -9t-124 -5t-115 -3t-144.5 -1h-80q-86 0 -144 3t-87 7q-96 16 -96 72z" />
<glyph unicode="`" horiz-adv-x="790" d="M338 1731q0 14 19.5 43.5t46 60.5t53 54.5t41.5 25.5q16 0 82.5 -50t140.5 -113.5t132 -123.5t58 -80q0 -25 -13 -54.5t-32.5 -55t-43 -42t-46.5 -16.5q-27 0 -98.5 44t-147 102.5t-134 117t-58.5 87.5z" />
<glyph unicode="a" horiz-adv-x="1445" d="M6 174q0 70 53.5 170t128 202.5t154.5 192.5t131 140q206 200 331 200h1q25 0 57.5 -31.5t50.5 -68.5q23 35 39.5 62.5t48.5 27.5q18 0 41 -8t44.5 -21.5t36 -32t14.5 -38.5q0 -37 -10.5 -89.5t-27 -113.5t-36 -129t-37.5 -131q-16 -63 -26.5 -117.5t-10.5 -89.5 q0 -37 15 -37q10 0 74.5 31t140 68.5t140 68.5t77.5 31q84 0 84 -72t-60 -131q-63 -59 -153 -113.5t-205 -105.5q-188 -82 -244 -82q-57 0 -94 44t-37 97q0 61 1 127t15 142q-82 -72 -127 -111t-53 -47q-244 -201 -366 -201q-76 0 -133.5 53.5t-57.5 112.5zM291 311 q178 82 264 150q71 55 102 121q8 14 9 45q0 51 -31 51q-49 0 -92 -28.5t-84 -79t-82 -117t-86 -142.5z" />
<glyph unicode="b" horiz-adv-x="1087" d="M68 125q0 23 29.5 56.5t39.5 43.5q-26 28 -26 66q0 33 8 67q8 36 23.5 74.5t25.5 69.5q45 143 80 251.5t59 182.5q45 129 82 222t60 155q18 51 30.5 90t22.5 65q70 156 151 156q41 0 74 -30.5t33 -69.5q0 -6 -18.5 -56.5t-46 -124t-61.5 -158.5t-63.5 -161t-52 -132 t-29.5 -69q188 158 388 158q55 0 96 -29.5t67.5 -77t40 -107.5t13.5 -124q0 -125 -56 -266q-72 -184 -202 -293q-168 -137 -414 -137q-29 0 -87.5 13t-117.5 36.5t-104 56.5t-45 72zM309 293q47 -25 102.5 -50.5t100.5 -25.5q66 0 122 27.5t97 77t65.5 114t24.5 137.5 q0 59 -18.5 84t-75.5 25q-47 0 -111.5 -36t-126.5 -97q-18 -16 -41.5 -47t-48 -68t-48.5 -74.5t-42 -66.5z" />
<glyph unicode="c" horiz-adv-x="882" d="M43 252q0 39 12.5 91t31.5 106.5t43 103.5t48 84q59 88 125 161.5t135 133.5q168 141 305 142q59 0 106.5 -32t47.5 -88q0 -37 -22.5 -57t-53 -31.5t-64.5 -16.5t-57 -11q-66 -16 -130 -71.5t-117.5 -129.5t-86 -154t-32.5 -145q0 -53 47 -53q39 0 94 21.5t116.5 52 t122 65.5t107.5 59q45 0 63.5 -25.5t18.5 -60.5q0 -86 -182 -225q-223 -170 -479 -170q-104 0 -151.5 68.5t-47.5 181.5z" />
<glyph unicode="d" horiz-adv-x="1169" d="M25 213q0 102 94 289q106 209 239 327q96 88 217 144q82 39 312 104q39 115 68.5 198t50.5 134q98 244 145 244q59 0 94 -27.5t35 -58.5q0 -25 -80 -316q-53 -195 -92 -341t-64 -244q-45 -178 -69.5 -299t-35.5 -196t-14 -109.5t-5 -43.5q-27 -86 -107 -86 q-82 0 -115.5 32t-33.5 85q0 2 6 31t15 73t22.5 97t27.5 106q-117 -119 -239 -209q-169 -120 -269 -120h-2q-82 0 -147 73q-53 63 -53 113zM311 356q0 -34 24 -34h1q33 0 67.5 21.5t72.5 55t78 76.5t79 88q47 53 81.5 101.5t57.5 87.5q-172 -33 -264 -119q-29 -27 -62.5 -68 t-63.5 -81t-50.5 -74.5t-20.5 -53.5z" />
<glyph unicode="e" horiz-adv-x="849" d="M-10 313q0 113 59.5 259.5t154.5 277.5t217 221t247 90h2q166 0 166 -149q0 -100 -41 -209t-105 -193q-29 -41 -69.5 -82t-92.5 -69q-59 -35 -121.5 -69t-121.5 -66q2 -18 10 -36t24 -18q41 0 120 23.5t171 58.5t185.5 74t167.5 72q49 0 49 -70q0 -51 -56.5 -103.5 t-140.5 -99.5t-179 -87t-175 -66q-197 -68 -260 -68q-47 0 -86 31t-67 77t-43 100t-15 101zM293 573q84 41 158.5 106.5t119.5 125.5q31 43 31 82q-14 14 -18 14q-25 0 -57.5 -18.5t-66.5 -48t-64.5 -67.5t-51.5 -79q-25 -45 -51 -115z" />
<glyph unicode="f" horiz-adv-x="755" d="M-8 -389q0 47 12 135t30.5 196.5t43 227.5t48.5 226.5t45.5 194.5t35.5 132q-27 -12 -60 -12q-8 0 -21 2t-22 2q-45 0 -60 12t-15 59q0 35 26.5 66t66.5 56.5t88 46t91 32.5q25 70 43 122t33 91q35 96 63.5 167t66.5 122t91 83t137 50q61 12 170 12q61 0 91 -21.5 t30 -74.5q0 -88 -51 -152.5t-133 -64.5q-12 0 -49 7t-58 7q-18 0 -29.5 -1t-23.5 -14t-29.5 -47t-44.5 -99q-16 -41 -33.5 -81t-33.5 -81q6 0 45 2t84 5t84 5t45 2q133 0 180 -35q33 -25 33 -84q-13 -121 -189 -121q-70 0 -176 -12q-41 -4 -184 -24q-29 -51 -66 -296 t-86 -647q-18 -156 -35 -196q-31 -63 -51 -84q-45 -45 -123 -45q-61 0 -85.5 26.5t-24.5 102.5z" />
<glyph unicode="g" horiz-adv-x="1122" d="M-119.5 -283.5q15.5 19.5 38 41t48 39t47.5 21.5q6 0 39 -47t77 -104.5t92 -105.5t85 -48q92 0 166 104q31 43 59.5 110.5t55 143.5t51.5 153.5t47 143.5l57 182q-131 -170 -280 -258q-133 -78 -262 -78q-88 0 -140 82q-38 56 -38 104v3q0 20 13 65t36.5 101.5t52.5 116 t59 108.5q121 184 348 346q209 147 306 147q25 0 44 -31.5t23 -68.5q41 20 84 41t60 21q47 0 60 -17.5t13 -58.5q0 -160 -88 -514q-78 -313 -123 -422q-27 -63 -51 -127t-53 -125q-49 -111 -103.5 -197t-109.5 -149q-154 -174 -322 -174q-121 0 -258 129q-149 140 -149 291 q0 12 15.5 31.5zM297 365q0 -68 43 -68q121 0 283 211q127 162 190 309q-121 0 -326 -209q-190 -195 -190 -243z" />
<glyph unicode="h" horiz-adv-x="1175" d="M25 139q16 57 33.5 114.5t33.5 115.5q29 100 66 226t82 275q47 162 83.5 284t61.5 204q68 219 88 248q48 71 123 71h2q61 0 84 -18.5t23 -52.5q0 -78 -76 -324q-18 -59 -57.5 -175t-96.5 -288q-94 -274 -110 -336l90 97q70 76 131 168t125 174q176 219 270 219 q59 0 75.5 -50.5t16.5 -150.5q0 -29 -4 -89t-10 -126t-10.5 -125t-4.5 -88q0 -8 13.5 -45t29 -79t28.5 -79t13 -45q0 -100 -61 -178t-160 -78q-51 0 -89 42t-38 95q0 18 1 72.5t3 117t3 117t1 72.5l3 152q-6 -6 -43 -50t-83.5 -99.5t-90.5 -107.5t-64 -77 q-170 -188 -270 -260q-72 -49 -125 -49q-45 0 -64.5 30.5t-25.5 75.5z" />
<glyph unicode="i" horiz-adv-x="538" d="M39 184q0 43 20.5 129t49 181.5t62.5 185.5t58 143q94 203 177 203q39 0 58 -35t19 -88q0 -63 -67 -252q-10 -25 -40 -88t-30 -117q0 -18 5 -40.5t12.5 -46t12.5 -42t5 -26.5q0 -37 -31 -107q-80 -180 -207 -180q-66 0 -85 53.5t-19 126.5zM326 1384q0 18 18 49t44 61 t53.5 52.5t45.5 22.5q29 0 60 -16.5t58.5 -42t45 -57t17.5 -62.5q0 -14 -16.5 -45t-40 -61t-48 -52.5t-43.5 -22.5q-18 0 -50 20.5t-64.5 49.5t-56 57.5t-23.5 46.5z" />
<glyph unicode="j" horiz-adv-x="788" d="M-328 -244q0 76 47.5 131.5t100.5 55.5q27 0 55.5 -27t55 -61.5t51 -70.5t41.5 -52q27 -31 41 -46.5t73 -15.5q29 0 51.5 43t41 113t34 161t31.5 185q12 80 26.5 164t27.5 166t28.5 156.5t32.5 132.5q25 88 96 153q61 55 108 55q41 0 58.5 -19.5t17.5 -74.5q0 2 -9 -42 t-24.5 -112.5t-33 -150.5t-33 -160t-28.5 -139t-17 -86q-20 -94 -38 -186t-38 -185q-23 -102 -53.5 -180t-61.5 -127q-80 -127 -202 -127q-53 0 -111.5 25.5t-116 63.5t-107.5 82t-87 81q-57 57 -58 94zM399 1337q0 16 19.5 47t45 62t53.5 53.5t44 22.5q29 0 60.5 -16.5 t58.5 -43t45 -58.5t18 -63q0 -18 -16 -48.5t-39.5 -59.5t-49.5 -50.5t-44 -21.5q-16 0 -49 21.5t-66 50.5t-56.5 58.5t-23.5 45.5z" />
<glyph unicode="k" horiz-adv-x="1206" d="M-10 129q0 68 94 444q51 205 100 382.5t95 326.5q117 371 161 371q66 0 112 -16.5t46 -41.5q0 -47 -18.5 -120.5t-43 -155.5t-49 -159t-41.5 -126l-116 -387q51 82 106.5 152.5t112.5 132.5q160 170 264 170q63 0 115.5 -40t52.5 -106q0 -193 -90 -309.5t-248 -142.5 q18 -72 74 -131q-4 4 47 -30t113.5 -78t114.5 -84t52 -50q0 -17 -15 -43q-17 -29 -45 -55.5t-61.5 -46t-64.5 -19.5q-127 0 -264 131q-168 162 -168 400q98 59 172 110q57 39 70.5 75t13.5 87q0 31 -25 35q-4 1 -8 1q-37 0 -88 -62q-57 -70 -118.5 -173.5t-121 -220.5 t-104.5 -203q-65 -122 -128 -122h-1q-41 0 -69.5 26.5t-28.5 77.5z" />
<glyph unicode="l" horiz-adv-x="649" d="M-23 59q0 61 20.5 158.5t49.5 204t59.5 207t51.5 166.5q63 211 104 347t62 197q111 328 155 328q20 0 46 -6t47.5 -16.5t36 -23.5t14.5 -26q0 4 -16.5 -46t-42 -130t-55.5 -178t-57.5 -188t-48 -162t-28.5 -100q-23 -78 -38 -132.5t-26 -87.5q-25 -80 -49 -159.5 t-47 -157.5q39 18 95.5 43t111.5 47.5t99 37.5t59 15q14 0 30.5 -12t29.5 -30.5t22.5 -39t9.5 -36.5q-2 -16 -25.5 -40t-58.5 -50.5t-75 -52.5t-73 -46q-66 -39 -106.5 -64.5t-76.5 -41t-77 -21.5t-104 -6q-33 0 -66 33t-33 69z" />
<glyph unicode="m" horiz-adv-x="1861" d="M33 98q10 47 18 85t12 67q18 90 37 166t29 135q16 90 28.5 182t30.5 185q18 96 69.5 145t117.5 49t76 -48t10 -120q0 8 -10.5 -42t-22.5 -129t-25.5 -171t-19.5 -166q10 0 42 34t74 84t90 110.5t88 112.5t67.5 88t31.5 40q145 166 215 166q16 0 38 -13.5t43.5 -33.5 t35.5 -46t14 -50q0 -66 -30 -250q-2 -8 -14.5 -79t-37.5 -206l172 221q162 209 250 306q138 153 182 153h1q47 0 75.5 -23.5t28.5 -76.5q0 -2 -12.5 -40t-25.5 -87t-25.5 -99.5t-12.5 -74.5q-2 -43 -4 -74t-2 -82q0 -57 23.5 -107.5t51 -94.5t51.5 -82.5t24 -77.5 q0 -23 -13.5 -57t-34 -64.5t-46 -53t-50.5 -22.5q-90 0 -159.5 41t-104.5 113q-25 51 -34 128.5t-9 157.5v54q-57 -68 -113.5 -136.5t-115.5 -132.5q-90 -100 -166 -150t-125 -50q-68 0 -101 49q-16 23 -19 52.5t0 59t9 57t8 44.5q10 66 22.5 130t25.5 124q8 51 19 105 t19 73q-14 -14 -69 -93t-122 -173.5t-128 -180.5t-86 -114q-158 -176 -260 -176q-63 0 -97 51t-34 108z" />
<glyph unicode="n" horiz-adv-x="1071" d="M27 131q0 57 12 142t31.5 174.5t42 172t41.5 138.5q12 37 31.5 88t41 97t44 78t40.5 34h8q18 -1 42 -7q30 -8 55.5 -22t43 -34.5t15.5 -43.5q-2 -18 -16.5 -72.5t-36 -129t-49 -164.5t-58.5 -179q53 68 103.5 131.5t101.5 120.5q135 156 234 246q123 111 182 111 q55 0 62.5 -35t7.5 -98q0 -39 -8.5 -118t-18.5 -158t-18.5 -139.5t-8.5 -66.5q0 -16 12.5 -51t26 -72.5t23.5 -71.5q7 -24 7 -38q0 -6 -1 -10q-2 -14 -21.5 -40t-48 -50.5t-58.5 -42t-54 -17.5q-43 0 -74 34t-50.5 81t-27.5 98t-8 86q0 51 10 118.5t27 147.5 q-33 -41 -63.5 -79.5t-61.5 -79.5q-53 -66 -102.5 -118t-90.5 -91q-61 -57 -104 -92t-76 -53.5t-58.5 -23.5t-54.5 -5q-37 0 -57 31.5t-20 72.5z" />
<glyph unicode="o" horiz-adv-x="931" d="M14 190q0 143 62 310q23 66 50.5 119t55.5 96q139 197 230 270q63 55 120 55q29 0 56.5 -23.5t27.5 -55.5q0 -31 -24.5 -79t-62 -105.5t-83 -120t-86.5 -124.5q-45 -70 -67.5 -132t-22.5 -103q0 -45 27 -76t80 -31q123 0 217 150q88 137 88 278q0 25 -7 66t-16.5 82 t-16.5 73.5t-7 39.5q0 102 289 168q219 49 383 49q41 0 74.5 -14.5t33.5 -34.5q0 -43 -39 -74t-84 -41q-51 -10 -103 -24.5t-108 -28.5q-10 -2 -58 -16.5t-134 -41.5q14 -23 24.5 -35t16.5 -27.5t9 -37t3 -57.5q0 -193 -104 -363q-41 -63 -101.5 -132t-138.5 -134 q-70 -57 -133.5 -80t-171.5 -23q-111 0 -182 52q-96 68 -97 206z" />
<glyph unicode="p" horiz-adv-x="991" d="M-100 -541q0 16 18.5 101.5t45 203t57 247.5t56 235.5t41 169t11.5 45.5q12 51 27.5 113.5t34 127t37 127t36.5 115.5q29 80 76 105q29 14 96 14q43 0 57.5 -18.5t14.5 -57.5q0 -35 -10 -86q88 74 141 109q100 63 166 63q125 0 177 -77.5t52 -286.5q0 -199 -194 -453 q-205 -266 -389 -266q-39 0 -91.5 22.5t-97.5 53.5q-12 -45 -21.5 -120t-19.5 -161t-25.5 -175t-38 -161t-56 -118t-83.5 -46q-76 0 -97 48.5t-21 125.5zM307 240q10 20 31.5 35.5t46.5 15.5q20 -2 47 -28.5t62 -26.5q49 0 98 54t88 128t62.5 147.5t23.5 110.5q0 84 -6 106 q-12 41 -51 41q-125 0 -201 -104q-20 -27 -50 -88.5t-58.5 -133t-54.5 -142t-38 -115.5z" />
<glyph unicode="q" horiz-adv-x="1236" d="M-25 188q0 84 154 285q162 211 356 369q231 184 394 184q35 0 58.5 -27.5t49.5 -58.5q14 4 52 23.5t55 19.5q41 0 59 -9t23 -24q2 -10 2 -21q0 -8 -1 -16q-3 -21 -3 -41q0 -61 -25 -163.5t-57.5 -215t-66.5 -219t-52 -174.5q-72 -270 -72 -311q-2 -14 -2 -22.5v-12.5 q0 -29 13.5 -42t31 -25.5t30.5 -29.5t13 -50q0 -39 -33.5 -102.5t-82 -123t-102.5 -103.5t-97 -44q-45 0 -64.5 25.5t-21.5 71.5v14q0 41 10 97q12 66 31 146q10 47 35.5 152.5t66.5 269.5q23 90 46.5 182.5t45.5 184.5q-147 -135 -338 -246q-219 -127 -346 -127 q-25 0 -53.5 16.5t-52 43t-40 59.5t-16.5 65zM342 374q-1 -4 -1 -8q0 -26 36 -26q43 0 100.5 33t107.5 80t86 101t36 99q0 35 -23 41q-7 2 -16 2q-17 0 -40 -8q-34 -12 -71 -36.5t-65 -53.5q-18 -18 -53.5 -60t-63 -86t-33.5 -78z" />
<glyph unicode="r" horiz-adv-x="808" d="M23 160q61 180 111 328.5t50 254.5q0 20 -4 53t-4 50q0 14 2 30.5t6 26.5q20 68 61.5 121t84.5 53q39 0 72.5 -31.5t33.5 -82.5q0 -94 -8 -136q-10 -35 -17.5 -67.5t-15.5 -65.5q72 70 137.5 125t122.5 101q204 157 286 157h1q41 0 78 1h10q30 0 56 -5q30 -6 47.5 -25.5 t17.5 -60.5q0 -125 -49 -160.5t-176 -35.5q-51 0 -121 -35t-142.5 -88.5t-139 -114.5t-111.5 -113q-41 -47 -78 -166q-14 -49 -20.5 -96t-20.5 -84t-48 -60.5t-106 -23.5q-57 0 -86.5 46t-29.5 104z" />
<glyph unicode="s" horiz-adv-x="837" d="M-30.5 102.5q30.5 30.5 77.5 50t103.5 27.5t105.5 8q57 0 99 28t42 56q2 10 -19.5 61.5t-47 111t-47 111.5t-21.5 67q0 158 193 348q205 203 409 203q37 0 80 -35t43 -76q0 -25 -32.5 -81t-81 -112.5t-100.5 -98.5q-47 -38 -86 -38h-7q-20 0 -41 20.5t-21 39.5 q0 10 6.5 26.5t6.5 24.5q0 20 -23 20q-37 0 -70.5 -43t-33.5 -98q0 -31 18.5 -59.5t36.5 -57.5l21 -38q22 -38 47.5 -86t47 -93t21.5 -61q0 -92 -137 -228q-174 -172 -414 -172q-100 0 -139 13q-67 23 -67 84q0 47 30.5 77.5z" />
<glyph unicode="t" horiz-adv-x="808" d="M0 203q0 74 78 325q4 14 16 47t24.5 76t22 95.5t9.5 105.5q0 49 38.5 94t81.5 84q37 96 72 192.5t76 192.5q37 88 89 132t103 44q31 0 47.5 -41t16.5 -73q0 -35 -13.5 -81t-33 -95.5t-42 -98.5t-40.5 -90q78 12 147.5 33.5t143.5 44.5q8 2 30.5 10t48 17.5t49 15.5 t35.5 6q29 1 41 -21q9 -16 10 -35q0 -6 -1 -12q0 -45 -60.5 -97t-134.5 -83q-102 -41 -205.5 -82t-197.5 -59q-29 -76 -53.5 -138.5t-41.5 -111.5q-65 -183 -65 -275q0 -54 45 -55q35 0 199 90l31 20q32 19 80 48t105.5 63.5t108.5 63.5t87 48.5t40 19.5q35 0 41 -26t6 -79 q0 -43 -61.5 -99.5t-145.5 -113.5t-174 -109.5t-145 -84.5q-59 -33 -119.5 -66t-114 -57.5t-94.5 -40t-63 -15.5q-27 0 -48.5 28t-37 68t-23.5 88t-8 87z" />
<glyph unicode="u" horiz-adv-x="1202" d="M29 86q0 49 18 150q4 23 68 311q27 117 56.5 204t59.5 144q78 145 181 145q27 0 52 -23.5t25 -43.5q0 -51 -27.5 -124t-49.5 -140q-16 -51 -29.5 -91t-22.5 -67q-31 -104 -30 -143q0 -45 5 -58.5t40 -13.5t58.5 12t57 47t87 98.5t145.5 163.5q51 190 135 277 q61 63 133 63q82 0 82 -96q0 -2 -13 -57.5t-29.5 -128t-30 -144t-13.5 -106.5q0 -49 16.5 -93t43 -84t57 -78t61.5 -75q0 -20 -16 -48t-41 -52.5t-52.5 -42t-49.5 -17.5q-72 0 -123.5 40t-85 99.5t-53 128t-29.5 126.5q-94 -106 -155.5 -172t-90.5 -91q-152 -131 -315 -131 q-45 0 -85 34t-40 77z" />
<glyph unicode="v" horiz-adv-x="1157" d="M160 152q0 41 4 74.5t8 54.5q0 29 -1 107.5t-2 167.5t-2 168t-1 107q0 111 30.5 180.5t129.5 110.5q43 0 67.5 -22.5t37.5 -58t17.5 -83t4.5 -96.5q0 -25 -1 -55.5t-1 -69.5q0 -37 -1 -88t-1 -102t-1.5 -99.5t-1.5 -78.5q45 63 92.5 126.5t92.5 127.5q78 102 141.5 182 t114.5 137q141 156 200 156q47 0 75 -13.5t41.5 -40t16.5 -62.5t3 -83q0 -27 -1 -44t-2 -34.5t-4.5 -38t-9.5 -55.5q-14 -51 -42.5 -85t-65.5 -34q-16 0 -35 12.5t-38 27t-36.5 26.5t-30.5 12q-16 -2 -52 -44t-79 -97.5t-84 -112.5t-67 -92q-94 -119 -147.5 -185.5 t-69.5 -82.5q-113 -125 -176 -125q-74 0 -98.5 62.5t-24.5 142.5z" />
<glyph unicode="w" horiz-adv-x="1644" d="M-18 61q0 98 92 408q16 57 34.5 112.5t34.5 112.5q31 115 52.5 185.5t31.5 99.5q74 176 183 176q31 0 48 -25.5t17 -56.5q0 -53 -49 -237q-29 -100 -57.5 -200.5t-55.5 -201.5q0 -23 27 -22q10 0 48 36.5t87 91t101.5 116t94.5 111.5t65.5 78.5t13.5 16.5 q147 158 206 158q51 0 79 -14.5t41.5 -44t15.5 -75.5t2 -110v-63q0 -80 5 -135.5t48 -55.5q10 0 37.5 38t66.5 95.5t81 125t79 128t63.5 102.5t32.5 50q100 125 197 125q57 0 100 -47.5t43 -96.5q0 -39 -5 -86t-18.5 -89t-36 -69.5t-54.5 -27.5q-18 0 -32.5 13.5t-26 30.5 t-19.5 30.5t-15 13.5q-35 0 -75.5 -51t-81.5 -123t-80 -148.5t-70 -127.5q-51 -88 -96 -154t-84 -109q-99 -116 -179 -116h-1q-43 0 -68.5 38.5t-41 97t-20.5 125t-5 122.5q0 35 1 76.5t2 79.5t2 66t1 32q-12 -29 -78 -105t-146.5 -162t-158.5 -162.5t-113 -109.5 q-193 -180 -266 -180q-47 0 -73.5 26.5t-26.5 87.5z" />
<glyph unicode="x" horiz-adv-x="1101" d="M61 926q0 18 16.5 43.5t40 49t52.5 40t53 16.5q72 0 167 -81t224 -251q47 53 95.5 107.5t97.5 105.5q70 74 126 109t91 35t63.5 -24.5t28.5 -49.5q0 -31 -40 -86t-97 -120.5t-120.5 -132t-113.5 -118.5q25 -35 49.5 -71.5t49.5 -71.5q61 -86 90 -86q100 0 100 -129 q0 -90 -59.5 -141.5t-130.5 -51.5q-20 0 -64.5 46.5t-90.5 104.5t-83 110.5t-45 64.5q-35 -35 -65.5 -68.5t-57.5 -62.5q-78 -94 -84 -127q-12 -90 -41 -135q-41 -59 -118 -60q-55 0 -91 40t-36 96q0 41 31.5 97t84 121.5t119 139.5t135.5 152q-86 117 -227 249 q-82 45 -116 73t-34 67z" />
<glyph unicode="y" horiz-adv-x="1140" d="M-184 -614q0 10 22.5 46t52 75.5t58 70.5t41.5 33q12 2 39.5 -7.5t58.5 -21.5t60.5 -22.5t46.5 -10.5q117 0 231 97q133 115 225 336q20 51 34.5 87.5t23.5 61.5q4 8 18 70.5t41 177.5q-131 -125 -309 -236q-201 -125 -320 -125q-31 0 -56.5 61.5t-25.5 123.5 q0 35 10.5 107.5t30 160.5t47 181t62.5 172t76 133.5t88 62.5q8 2 15 2q29 0 52 -28q27 -33 27 -76q0 4 -9.5 -30t-24.5 -88.5t-31.5 -119t-31 -118.5t-23.5 -88t-7 -28q-2 -18 11 -46.5t28 -28.5q27 0 75 33.5t102 80.5t105.5 97.5t83.5 83.5q29 31 54.5 78t54.5 91 t64.5 74.5t87.5 30.5q53 0 71.5 -27.5t18.5 -72.5q0 -35 -8.5 -103.5t-20.5 -146.5t-28.5 -154t-32.5 -129q-66 -233 -173 -446q-135 -268 -294 -422q-193 -186 -410 -187q-39 0 -92 10.5t-102.5 29t-83 42t-33.5 52.5z" />
<glyph unicode="z" horiz-adv-x="1130" d="M4 43q0 27 56.5 103.5t133 171t155.5 186.5t126 149q168 207 168 244q0 29 -16.5 36t-51.5 7q-12 0 -61 -12.5t-106.5 -27.5t-106.5 -27.5t-61 -12.5q-27 0 -44.5 17.5t-17.5 44.5q0 53 56.5 94t131 67.5t151.5 40t120 13.5q55 0 111.5 -7.5t103.5 -26t76.5 -50 t29.5 -80.5q0 -80 -135 -244q-18 -23 -86.5 -93.5t-145.5 -151.5t-142.5 -151.5t-79.5 -92.5q66 10 116 17t82 11q59 8 109.5 12.5t93.5 4.5q55 0 115.5 -15.5t109.5 -39t81 -53t32 -60.5q0 -27 -13.5 -57.5t-36 -56.5t-48 -43t-49.5 -17q-90 37 -166 63.5t-148 26.5 q-39 0 -101.5 -9.5t-140 -23.5t-162.5 -31.5t-171 -36.5q-33 0 -50.5 33t-17.5 78z" />
<glyph unicode="{" horiz-adv-x="727" d="M98 -98q0 20 13.5 75.5t35 131t45 160.5t43 164t33 143.5t11.5 95.5q0 12 -19.5 23.5t-43 23.5t-43 29.5t-19.5 42.5q0 45 25.5 70.5t56.5 25.5q55 0 63 2q72 12 98.5 92t63.5 205q31 102 55.5 219t67.5 216t115.5 164.5t199.5 65.5q37 0 47 -2q96 -8 151.5 -20t49.5 -72 q0 -59 -47 -83.5t-113 -24.5q-57 0 -112.5 -1t-67.5 -46t-27.5 -100.5t-31.5 -121.5q-35 -125 -53.5 -218t-37 -158.5t-46 -105.5t-81.5 -58q-29 -8 -59.5 -17.5t-58.5 -17.5q59 -27 80.5 -45.5t21.5 -59.5q0 -23 -27.5 -114.5t-60.5 -202.5t-60.5 -215.5t-27.5 -151.5 q0 -27 49 -36t119 -9h63q39 0 68 -21.5t29 -78.5q0 -49 -61.5 -65.5t-158.5 -16.5q-166 0 -227 12q-121 25 -121 101z" />
<glyph unicode="|" horiz-adv-x="854" />
<glyph unicode="}" horiz-adv-x="829" d="M-156 -131q0 41 21.5 62.5t54.5 30.5t74 10t78 1q49 0 76.5 10.5t35.5 41.5q10 49 26.5 104t33.5 117q35 125 52 218t35.5 157.5t47.5 104.5t84 58q29 8 58.5 17.5t58.5 17.5q-59 29 -81 46.5t-22 58.5q0 23 27.5 114.5t60.5 202.5t60.5 215.5t27.5 151.5q2 27 -47 36 t-119 9h-65q-96 0 -96 100q0 51 58 66.5t163 15.5q164 0 225 -12q121 -25 121 -101q0 -18 -13.5 -73.5t-34 -131t-44 -162.5t-43 -166t-32.5 -142.5t-11 -92.5q0 -14 19.5 -25t42 -23.5t42 -30t19.5 -41.5q0 -39 -25 -68t-55 -29q-61 0 -91 -8t-49 -43q-18 -37 -39.5 -100.5 t-45 -140t-48 -160.5t-49.5 -164q-27 -86 -48 -151.5t-56 -109.5t-90.5 -65.5t-149.5 -21.5q-25 0 -54.5 2t-56 5t-43 5t-12.5 2q-47 8 -64.5 28.5t-17.5 53.5z" />
<glyph unicode="~" d="M180 1554q0 37 39 93.5t92.5 109.5t110.5 91t96 38q33 0 74 -22.5t88 -48t97 -48t100 -22.5q29 0 57.5 14.5t42.5 14.5q33 0 55.5 -17.5t22.5 -54.5q0 -51 -29 -97t-74 -81t-99 -55.5t-105 -20.5q-86 0 -155 26.5t-136 79.5q-39 -43 -68 -68.5t-98 -25.5q-43 0 -77 26.5 t-34 67.5z" />
<glyph horiz-adv-x="1130" d="M-61 1157q0 123 112 150q49 10 124 24.5t158 28.5t163 26.5t137 20.5q123 16 210 26.5t149.5 16.5t106.5 9t81 3q106 0 153 -34.5t47 -124.5q0 -33 -25.5 -67t-64.5 -61.5t-82 -45t-78 -17.5t-56 10.5t-37.5 23.5t-34 23.5t-44.5 10.5q-25 0 -72.5 -4.5t-95 -10.5 t-81 -10t-29.5 -4q-10 -35 -23.5 -73t-27.5 -79q-35 -100 -62 -155q55 31 147.5 53.5t176.5 22.5q53 0 101 -24t85 -64.5t59.5 -98t22.5 -125.5q0 -123 -43 -252t-122 -234.5t-188.5 -173t-240.5 -67.5q-152 0 -213 68q-49 55 -49 170q0 25 27.5 54.5t60.5 33.5 q43 6 70.5 -7.5t49 -30.5t44.5 -33.5t59 -16.5q162 0 242 137q59 102 59 227q0 127 -36.5 174.5t-135.5 47.5q-141 0 -256 -97q-16 -98 -31.5 -161.5t-45.5 -127.5q-20 -53 -58.5 -103t-75.5 -66q-66 -37 -116.5 0.5t-50.5 125.5q0 76 69 236q23 53 39 89t25 56 q27 61 52 123t50 125l80 203q-219 -45 -363 -45q-47 0 -84.5 24.5t-37.5 69.5z" />
<glyph horiz-adv-x="817" d="M27 129q0 98 39 240q4 10 22 69.5t44 136t51.5 152.5t43.5 121q27 66 55.5 130t57.5 130q-18 6 -45 14t-51.5 19.5t-42 27t-17.5 37.5q0 47 31 87t83 68t119.5 43t141.5 15q25 0 85.5 5.5t129 11.5t130 11t85.5 5q68 0 111 -6t67.5 -22.5t33.5 -46t9 -79.5 q0 -33 -25.5 -66.5t-64.5 -61t-82 -45t-77 -17.5q-35 0 -55.5 10t-38 22.5t-35 23t-44.5 10.5q-70 0 -124 -12.5t-86 -20.5q-27 -63 -47.5 -120.5t-36.5 -109.5q-23 -68 -43.5 -140.5t-38 -142t-30.5 -132t-22 -107.5q-23 -131 -22 -217q0 -82 -45 -136t-127 -54 q-49 0 -94 45t-45 102zM516 1563q0 55 80 117.5t184.5 116.5t203.5 89t138 35q123 0 123 -53q0 -39 -10 -80t-30.5 -75t-50.5 -56.5t-67 -22.5t-91 -15t-117.5 -39t-135 -52.5t-141.5 -57.5q-10 0 -24.5 11.5t-28.5 26t-23.5 29.5t-9.5 26z" />
<glyph horiz-adv-x="1269" d="M10 168q0 33 45 147q74 193 117 308.5t57 156.5q106 348 195 496q76 131 164 131q33 0 61.5 -30.5t28.5 -67.5q0 -55 -53 -209q-23 -59 -43.5 -119.5t-40.5 -120.5q2 0 39.5 24.5t95 63.5t125 84l129 86t107.5 72t61 41q199 119 268 119q129 0 129 -129q0 -82 -52 -128 t-143 -59q-31 -2 -93 -32.5t-132.5 -72.5t-138.5 -85t-109 -74q41 -57 83 -113.5t85 -109.5q66 -84 117 -134.5t78 -64.5q47 -20 61.5 -54t14.5 -93q0 -70 -58.5 -116t-138.5 -46q-29 6 -55.5 19.5t-59 44t-71.5 79.5t-88 125q-8 10 -58.5 96t-144.5 244q-35 -23 -53.5 -33 t-69.5 -30q-39 -72 -61.5 -116t-49.5 -101q-12 -31 -12 -66q0 -16 7 -63.5t-1 -71.5q-12 -66 -73.5 -103.5t-133.5 -37.5q-55 0 -95 38.5t-40 104.5zM817 1520q0 37 38 77.5t97.5 80.5t131 76t138 63.5t122 44t79.5 16.5q123 0 123 -53q0 -39 -10 -80t-30.5 -75t-50.5 -56.5 t-66 -22.5q-37 0 -90.5 -15t-119 -39t-136 -53.5t-140.5 -56.5q-10 0 -24.5 11.5t-28.5 26t-23.5 30.5t-9.5 25z" />
<glyph horiz-adv-x="1239" d="M-61 1157q0 123 112 150q49 10 124 24.5t158 28.5t162.5 26.5t137.5 20.5q123 16 210 26.5t149.5 16.5t106.5 9t81 3q106 0 153 -34.5t47 -124.5q0 -33 -25.5 -67t-64.5 -61.5t-82 -45t-78 -17.5t-56 10.5t-37.5 23.5t-34 23.5t-44.5 10.5q-25 0 -72.5 -4.5t-95 -10.5 t-81 -10t-29.5 -4q-10 -35 -23.5 -73t-27.5 -79q-35 -100 -62 -155q51 29 148.5 44t193.5 15q109 0 157 -69.5t48 -180.5v-39q0 -41 -9 -84t-20.5 -80.5t-21.5 -67.5t-12 -44q-2 -23 -1 -60.5t4 -72.5t6 -58.5t3 -17.5q0 -88 -33 -117.5t-127 -29.5q-27 0 -51.5 13 t-42.5 33.5t-29.5 46t-11.5 48.5q0 39 29 137q23 76 38 123t24 81t13.5 59.5t4.5 58.5q0 66 -33 94.5t-101 28.5q-141 0 -256 -97q-8 -53 -16 -107.5t-16 -107.5q-10 -66 -23.5 -114t-28.5 -76q-20 -53 -58 -103.5t-75 -66.5q-66 -37 -117 0t-51 127q0 72 52 243 q23 76 45 139.5t43 114.5q27 61 52 123t50 125l80 203q-219 -45 -363 -45q-47 0 -84.5 24.5t-37.5 69.5z" />
<glyph horiz-adv-x="1290" d="M43 100q0 25 22.5 108t53.5 184.5t63.5 205.5t55.5 172q33 109 65.5 220.5t69.5 217.5t89 159.5t103 53.5q31 0 64 -32.5t33 -71.5q0 -12 -12.5 -61.5t-32 -118t-44 -148.5t-47 -154.5t-42 -135t-29.5 -91.5q-10 -35 -23.5 -85t-27 -99t-30 -90t-32.5 -58q20 -2 48 -3 t59 -1q61 0 144 2t177 7q27 76 49.5 139t38.5 115q31 88 50.5 144t27.5 83q18 55 37.5 123.5t38 133t34 121t27.5 87.5q78 209 197 209q47 0 67.5 -34t20.5 -108q0 -78 -109 -415q-51 -152 -101 -304.5t-97 -304.5q-12 -37 -21.5 -83t-26 -86t-43 -67.5t-69.5 -27.5 q-59 0 -119.5 -1t-124.5 -1q-12 -33 -19 -54.5t-14.5 -38.5t-16 -37.5t-24.5 -53.5q-14 -29 -28.5 -62.5t-32.5 -62.5t-43 -48.5t-59 -19.5q-53 0 -74 37q-16 29 -11 74t19 94t31.5 94t25.5 70q-43 0 -81.5 -1t-75.5 -1q-96 0 -123 6q-78 16 -78 100z" />
<glyph horiz-adv-x="1175" d="M-190 -399q0 10 15 29.5t37.5 41t49.5 39t47 21.5q6 2 40 -46t78 -105.5t91 -105.5t84 -48q104 0 184 124q4 6 54.5 129t148.5 363q41 96 71.5 227t57.5 246q12 53 17.5 82t5.5 78q-6 -6 -43 -50t-83.5 -99.5t-90.5 -107.5t-64 -77q-170 -188 -270 -260q-72 -49 -125 -49 q-45 0 -64.5 30.5t-25.5 75.5l297 1008q-39 -4 -65 -7t-36 -1q-45 0 -60.5 12t-15.5 59q0 55 72 105.5t180 83.5q29 106 43 139q59 139 158 139q61 0 84 -18.5t23 -52.5q0 -25 -8.5 -65t-22.5 -101q72 0 124 5t117 5q133 0 181 -35q33 -25 32 -84q-12 -121 -188 -121 q-55 0 -141 -5t-201 -15q-10 -31 -40 -117t-65.5 -191.5t-71.5 -214t-56 -184.5l90 97q70 76 131 168t125 174q176 219 270 219q43 0 65.5 -58.5t22.5 -203.5q0 -166 -88 -510q-33 -129 -57.5 -213t-49 -153t-53 -137.5t-69.5 -166.5q-47 -111 -103.5 -198t-109.5 -148 q-154 -174 -322 -174q-119 0 -258 129q-150 141 -149 293z" />
<glyph horiz-adv-x="1067" d="M53 131q0 57 12.5 142t32 174.5t42 172t40.5 138.5q12 37 31.5 88t41 97t44 78t41.5 34q23 2 51.5 -6.5t54 -22.5t43 -34.5t15.5 -43.5q-2 -18 -16.5 -72.5t-36 -129t-49 -164.5t-58.5 -179q51 68 102.5 131.5t102.5 120.5q135 156 233 246q123 111 183 111q49 0 59 -29 t10 -104q0 -102 -65 -146q-68 -45 -112 -70.5t-87 -68.5l-14 -14t-37 -39q12 -45 39.5 -88t70.5 -76q37 -27 86.5 -56.5t95.5 -57t77.5 -51.5t31.5 -40q4 -18 -13.5 -47t-46 -55.5t-62 -46t-64.5 -19.5q-47 0 -103.5 29.5t-113 77t-106.5 105.5t-83 118q-98 -113 -190 -193 q-133 -115 -205 -114q-39 0 -58.5 32.5t-19.5 71.5zM621 1241q0 37 37.5 78t97 81t131 75.5t138.5 63.5t122 44t80 16q123 0 123 -53q0 -39 -10.5 -80t-31 -74.5t-50 -56t-66.5 -22.5t-90 -15.5t-118.5 -39t-136.5 -53t-140 -56.5q-10 0 -24.5 11t-29 25.5t-23.5 31t-9 24.5 z" />
<glyph horiz-adv-x="1175" d="M25 139l297 1008q-39 -4 -65 -7t-36 -1q-45 0 -60.5 12t-15.5 59q0 55 72 105.5t180 83.5q29 106 43 139q59 139 158 139q61 0 84 -18.5t23 -52.5q0 -25 -8.5 -65t-22.5 -101q72 0 124 5t117 5q133 0 181 -35q33 -25 32 -84q-12 -121 -188 -121q-55 0 -141 -5t-201 -15 q-10 -31 -40 -117t-65.5 -191.5t-71.5 -214t-56 -184.5l90 97q70 76 131 168t125 174q176 219 270 219q59 0 75.5 -50.5t16.5 -150.5q0 -29 -4 -89t-10 -126t-10.5 -125t-4.5 -88q0 -8 13.5 -45t29 -79t28.5 -79t13 -45q0 -100 -61 -178t-160 -78q-51 0 -89 42t-38 95 q0 18 1 72.5t3 117t3 117t1 72.5l3 152q-6 -6 -44 -52t-85.5 -102.5t-91.5 -109t-60 -70.5q-170 -188 -270 -260q-72 -49 -125 -49q-45 0 -64.5 30.5t-25.5 75.5z" />
<glyph unicode="&#xa0;" horiz-adv-x="903" d="M203 1612q4 6 25.5 47t55 89t58.5 48q53 0 104 -47q43 -41 43 -72q0 -63 -45 -110t-108 -47q-68 0 -100.5 27.5t-32.5 64.5zM629 1620q0 8 12 39t31.5 63.5t44 58t47.5 25.5q49 0 94 -45t45 -88q0 -76 -33.5 -120t-109.5 -44q-131 0 -131 111z" />
<glyph unicode="&#xa1;" d="M84 166q0 25 19.5 41t49 28.5t64.5 21.5t64 19q49 14 80.5 40t55 55.5t42.5 62.5t37 64q-8 14 -34 63t-67 137q-39 76 -70.5 139.5t-60.5 102.5q-31 39 -56.5 65.5t-44 51t-28.5 55.5t-10 76q0 80 45 131t123 51q51 0 115.5 -76.5t130.5 -228.5q41 -96 68.5 -162.5 t41.5 -101.5q37 86 73 173t75 173q61 137 119.5 204.5t97.5 67.5q45 0 85 -30.5t40 -65.5q0 -43 -52 -164q-20 -49 -53 -120.5t-71.5 -154.5t-80.5 -171t-83 -172q-66 -137 -113 -225.5t-72 -127.5q-59 -92 -118 -147q-70 -68 -146 -92q-55 -18 -137 -19q-25 0 -48.5 22.5 t-42 57.5t-28.5 77t-10 79zM356 1679q0 51 31 82t102 31q88 0 122 -42t59 -95q18 -33 55 -33q180 0 328 100q23 14 41 15q45 -1 45 -58q0 -59 -60.5 -111t-142.5 -92t-166 -63.5t-131 -23.5q-143 0 -219 98q-63 82 -64 192z" />
<glyph unicode="&#xa2;" horiz-adv-x="1001" d="M-180 -498q0 10 15 31t38 42.5t48.5 38.5t47.5 19q6 0 39 -47t77 -104t92 -105.5t85 -48.5q92 0 166 140q25 45 50.5 120.5t50 162.5t47 176t40.5 161q10 41 19.5 77t21 75t26 85t34.5 107q-14 -14 -59.5 -59t-120.5 -123q-129 -131 -197 -184q-113 -84 -188 -84 q-57 0 -88 55t-31 123q0 35 10 110.5t29.5 168.5t47 192.5t64.5 181.5t82 135t96 53q39 0 65 -31.5t26 -70.5q0 6 -12.5 -33t-31 -100t-40 -135t-40 -135.5t-30.5 -100.5t-12 -30q0 -37 8 -60.5t39 -23.5t76 38.5t95 100t102 135.5t96.5 142.5t76 124t41.5 77.5 q20 41 60.5 68.5t79.5 27.5q41 0 56 -15t15 -62q0 -154 -90 -515q-31 -121 -61.5 -227t-59.5 -194q-23 -72 -44 -145t-44 -144q-41 -127 -92 -229.5t-102 -176.5q-145 -207 -312 -207q-121 0 -258 129q-150 141 -149 293zM418 1421q0 51 30.5 82t102.5 31q88 0 122 -42 t58 -95q18 -33 55 -33q180 0 328 100q23 14 41 15q45 -1 45 -58q0 -59 -60.5 -111.5t-142.5 -92t-165.5 -63.5t-131.5 -24q-143 0 -219 99q-63 82 -63 192z" />
<glyph unicode="&#xa3;" horiz-adv-x="1189" d="M-82 426q0 29 22.5 57.5t55.5 52t70.5 39t70.5 15.5q59 0 84 -17.5t25 -42.5q0 -18 -10 -43q-14 -29 18.5 -55t89.5 -50t127 -42t127 -29q33 63 64.5 173t61.5 220.5t54.5 200.5t42.5 115q-53 -10 -99 -16.5t-91 -6.5q-90 0 -135 19q-61 25 -62 86q0 98 116 144t306 46 q20 0 67.5 6.5t108 14.5t127 14t123.5 6q25 0 51.5 -11t49 -28.5t38 -40t15.5 -47.5q0 -80 -47.5 -135t-114.5 -55q-45 0 -100.5 14t-71.5 14q-51 -82 -76 -152.5t-49 -174.5q-23 -102 -42.5 -187.5t-39.5 -150.5q-27 -90 -53.5 -158.5t-53.5 -116.5q-63 -113 -135 -112 q-39 0 -114.5 21.5t-158.5 51t-159 62.5t-112 55q-190 113 -191 244z" />
<glyph unicode="&#xa5;" horiz-adv-x="888" d="M27 129q0 98 39 240q4 10 22 69.5t44 136t51.5 152.5t43.5 121q27 66 55.5 130t57.5 130q-18 6 -45 14t-51.5 19.5t-42 27t-17.5 37.5q0 53 31 91t83 62.5t119.5 39t141.5 20.5q33 0 89.5 4t113.5 9.5t102 9.5t54 4q14 31 14 57q0 27 -12.5 51.5t-26.5 45t-26.5 38 t-12.5 29.5q0 14 21.5 44t49 60.5t56.5 54t43 23.5q66 0 113 -72.5t47 -174.5q0 -199 -58 -299q-47 -82 -133 -117q-43 -16 -82 -17q-25 0 -61.5 3.5t-38.5 3.5q-57 0 -120.5 -11.5t-112.5 -23.5q-27 -63 -47.5 -120.5t-36.5 -109.5q-23 -68 -43.5 -140.5t-38 -142 t-30.5 -132t-22 -107.5q-23 -131 -22 -217q0 -82 -45 -136t-127 -54q-49 0 -94 45t-45 102z" />
<glyph unicode="&#xa6;" horiz-adv-x="854" />
<glyph unicode="&#xa7;" horiz-adv-x="825" d="M-47 -16.5q-2 65.5 37 112.5q37 37 70.5 31t60 -29.5t47 -54.5t29.5 -43q27 -35 54.5 -33t50 19.5t35.5 42t11 37.5q0 29 -25.5 69.5t-59.5 83.5t-66.5 81t-44.5 60q-76 131 -76 275q0 141 143 217q102 57 193 57q61 0 86 -28q23 -27 27.5 -60t-9.5 -61.5t-49 -48 t-92 -19.5q-47 0 -82 -20.5t-35 -89.5q0 -53 44 -94.5t124 -41.5t129 41t49 105q0 25 -30.5 97.5t-67.5 153.5t-67.5 152.5t-30.5 94.5q0 117 94 243q121 164 299 164q160 0 227 -70q51 -51 51 -141q0 -59 -32.5 -110.5t-73.5 -51.5q-76 0 -91.5 36t-15.5 87q0 18 -39 19 q-37 0 -77.5 -13.5t-75.5 -36t-57.5 -53t-22.5 -67.5q0 -39 23.5 -90.5t56.5 -103.5t64.5 -100t45.5 -83q37 -84 37 -176q0 -184 -239 -244q-12 -2 -27.5 -3t-36.5 -1q-41 0 -68.5 4t-48.5 4q23 -29 50.5 -68.5t51 -81.5t39 -81t15.5 -64q0 -125 -125 -194 q-100 -55 -211 -56q-158 0 -227 101q-39 59 -41 124.5z" />
<glyph unicode="&#xa8;" horiz-adv-x="987" d="M16 59q4 29 123 428q37 127 56.5 204t38 138.5t44 121t76.5 151.5q-47 0 -79.5 20.5t-22.5 63.5q8 43 71.5 83t170 68.5t248 46t307.5 17.5h157q119 -2 119 -53q0 -59 -27.5 -94t-74.5 -53.5t-110.5 -25t-135.5 -6.5q-106 0 -238 -18q-39 -6 -77.5 -12t-77.5 -13 q-23 -78 -46.5 -155.5t-45.5 -155.5q10 0 71.5 7t134 16.5t134 16.5t71.5 7q55 0 90 -7t35 -60q0 -137 -309 -201q-47 -10 -120 -20.5t-173 -20.5l-100 -291q10 4 83.5 16.5t159.5 28t160 26.5t86 11q106 0 141 -18q49 -27 50 -111q0 -164 -148 -164q-53 0 -80 10 q-61 0 -137 -10t-161 -24.5t-174 -34t-175 -37.5q-47 0 -81 34t-34 70zM489 1694q4 6 26 47t55.5 89t58.5 48q53 0 104 -47q43 -41 43 -72q0 -63 -45 -110t-108 -47q-68 0 -101 27.5t-33 64.5zM915 1702q0 8 12.5 39t32 63.5t44 58t47.5 25.5q49 0 94 -45t45 -88 q0 -76 -34 -120t-109 -44q-131 0 -132 111z" />
<glyph unicode="&#xa9;" horiz-adv-x="1542" d="M229 582q0 330 293 622q285 281 580 281q111 0 207 -46t165.5 -123t110.5 -178t41 -210q0 -172 -42 -313.5t-144 -299.5q-131 -207 -285 -313q-176 -121 -395 -121q-233 0 -391 232q-139 207 -140 469zM432 643q0 -236 72 -389q92 -193 287 -193q172 0 305 109 q104 86 215 270q70 115 93 218.5t23 242.5q0 186 -85 294t-230 108q-113 0 -233.5 -60.5t-220 -156t-163 -212t-63.5 -231.5zM604 537q0 168 107 329q125 197 315 197q92 0 153.5 -47.5t61.5 -104.5q0 -39 -19.5 -67.5t-56.5 -28.5q-18 0 -42.5 8t-48 18.5t-44 18.5t-33.5 8 q-37 0 -72.5 -37.5t-63 -89t-44 -104.5t-16.5 -82q0 -25 7 -34t40 -9q35 0 115 43q47 27 94 51.5t94 50.5q80 0 80 -65q0 -43 -50.5 -90t-124 -88t-155.5 -66.5t-143 -25.5q-31 0 -59.5 18t-49 49t-33 70t-12.5 78z" />
<glyph unicode="&#xaa;" horiz-adv-x="966" d="M57 324q0 150 95 389q111 287 270 461q199 223 434 223q16 0 61.5 -15.5t92.5 -38t85 -49t38 -51.5q0 -33 -15.5 -65.5t-40 -58t-54.5 -41t-58 -15.5q-6 0 -22.5 10t-38 21.5t-45 21.5t-42.5 10q-174 0 -299 -204q-164 -266 -164 -471q2 -20 5 -35t6 -25q18 -61 47 -61 q2 0 43 14t100 36.5t130 47.5t130 47.5t100 36.5t43 14q43 0 62.5 -27.5t19.5 -109.5q0 -47 -56 -95t-140 -93t-180.5 -84t-176.5 -68q-193 -68 -235 -67q-84 0 -139.5 99t-55.5 243zM432 700q0 61 38 95t93 34q14 0 41 -1t53.5 -3t50 -3t35.5 -1q70 0 131 17q14 2 44 16 q57 0 96 -21.5t39 -64.5q0 -57 -43 -96t-108.5 -63.5t-141.5 -35t-139 -10.5q-96 0 -142.5 24.5t-46.5 112.5z" />
<glyph unicode="&#xab;" horiz-adv-x="1507" d="M221 575q0 41 61.5 101.5t139.5 119t149.5 105.5t94.5 60q84 49 141 49q29 0 43 -28t14 -71q0 -25 -39 -65.5t-92 -83.5t-106.5 -82t-79.5 -59q61 -96 100 -159t55 -91q45 -82 46 -119q0 -37 -15.5 -75t-40 -67.5t-57.5 -49t-66 -19.5q-41 0 -100 70.5t-114.5 163 t-94.5 179.5t-39 121zM719 590q0 31 34.5 71.5t82 80.5t96.5 74t78 54q121 86 153 105q82 49 144 49q29 0 43 -27.5t14 -70.5q0 -57 -93 -127t-227 -164q45 -70 78 -120t52 -81q72 -121 71 -168q0 -37 -15.5 -73.5t-40 -67.5t-56 -50.5t-64.5 -19.5q-41 0 -100.5 72 t-114.5 164t-95 179t-40 120z" />
<glyph unicode="&#xac;" horiz-adv-x="1308" d="M102 502q0 123 367 200q268 57 498 58q111 0 142.5 -34t31.5 -136q0 -119 -31 -211q-51 -150 -166 -150q-57 0 -86 48.5t-29 187.5v45l-591 -96q-59 0 -97.5 22.5t-38.5 65.5z" />
<glyph unicode="&#xad;" horiz-adv-x="1308" d="M180 479q0 127 363 209q274 63 491 64q113 0 144.5 -34t31.5 -136q0 -45 -21.5 -72t-55 -39t-77.5 -11t-87 11q-84 18 -135 18q-31 0 -89.5 -8t-130 -22.5t-150.5 -30.5t-151 -35q-57 0 -95 21.5t-38 64.5z" />
<glyph unicode="&#xae;" horiz-adv-x="1611" d="M229 582q0 330 293 622q285 281 580 281q111 0 207 -46t165.5 -123t110.5 -178t41 -210q0 -172 -42 -313.5t-144 -299.5q-131 -207 -285 -313q-176 -121 -395 -121q-233 0 -391 232q-139 207 -140 469zM432 643q0 -236 72 -389q92 -193 287 -193q172 0 305 109 q104 86 215 270q70 115 93 218.5t23 242.5q0 186 -85 294t-230 108q-113 0 -233.5 -60.5t-220 -156t-163 -212t-63.5 -231.5zM553 489q0 315 128 481.5t433 166.5q23 0 49.5 -10.5t49 -27t38 -38t15.5 -41.5q0 -37 -26 -79t-63.5 -83t-83.5 -78t-87 -61q23 -29 47 -57.5 t47 -57.5q14 -20 27.5 -40.5t27.5 -41.5q18 -31 15 -59.5t-18 -49t-40 -32.5t-49 -12q-25 0 -56.5 24.5t-66.5 63.5t-70.5 86t-70.5 90q-37 -141 -37 -144q-4 -14 -10.5 -27t-10.5 -24q-16 -37 -37.5 -58.5t-56.5 -21.5q-37 0 -65.5 32t-28.5 99zM827 799q18 4 55.5 22.5 t74 43t66.5 52t32 50.5q1 24 -13 24q-18 2 -40.5 3t-59.5 1q-53 0 -65.5 -29.5t-20.5 -64.5q-10 -33 -17.5 -58.5t-11.5 -43.5z" />
<glyph unicode="&#xaf;" horiz-adv-x="686" d="M135 145q12 63 21.5 116.5t17.5 92.5q47 240 91 420t93 354q31 113 80 168.5t94 55.5q51 0 74 -43.5t23 -96.5q0 -104 -41 -262q-76 -295 -80 -301q-43 -207 -43 -407q0 -43 -24.5 -80t-58.5 -62.5t-70 -40t-60 -14.5q-47 0 -82 25.5t-35 74.5zM233 1550q4 6 26 47 t55.5 89.5t58.5 48.5q53 0 104 -47q43 -41 43 -72q0 -63 -45 -110.5t-108 -47.5q-68 0 -101 27.5t-33 64.5zM659 1559q0 8 12.5 38.5t32 63.5t44 58.5t47.5 25.5q49 0 94 -45t45 -88q0 -76 -34 -120t-109 -44q-131 0 -132 111z" />
<glyph unicode="&#xb0;" d="M315 1229q0 41 49.5 113.5t117 143t137 124t110.5 53.5q133 0 240 -41q141 -56 141 -162q0 -88 -160 -248q-193 -193 -411 -192q-115 0 -169.5 54t-54.5 155zM649 1333q0 -25 22.5 -37t45.5 -12q27 0 42 21.5t15 46.5q0 29 -22.5 43t-53.5 14q-23 0 -36 -21.5t-13 -54.5z " />
<glyph unicode="&#xb1;" horiz-adv-x="1808" d="M186 -180q0 25 11.5 60.5t31 68.5t44 56.5t51.5 23.5q61 0 186 6q170 8 277.5 12t154.5 4q25 0 110 3t181 7.5t181 7.5t110 3q70 0 85 -13.5t15 -58.5q0 -25 -12.5 -54.5t-30.5 -56t-39 -44t-39 -17.5q-96 0 -215 -6t-240.5 -12.5t-239.5 -12.5t-212 -6q-10 0 -47 -2 t-82 -5t-92 -5t-80 -2q-109 0 -109 43zM254 709q0 135 371 217q72 16 143.5 27.5t142.5 19.5q0 139 52 254q66 152 182 151q35 0 49 -21.5t14 -60.5q0 -6 -4 -39.5t-10 -75.5t-10 -83t-4 -60q76 0 131 1t99 3t81 3.5t78 1.5q63 0 115.5 -30t52.5 -85q0 -76 -39 -119 t-117 -43q-4 0 -25.5 -1t-51 -3t-61.5 -3t-57 -1q-66 0 -135 -8.5t-135 -16.5q-23 -141 -24 -159q-4 -41 -7.5 -87.5t-3.5 -93.5q0 -127 -24 -164q-43 -66 -199 -65q-43 0 -61.5 39t-18.5 92q0 25 6.5 70t15.5 100t21.5 116.5t24.5 116.5q-57 -12 -100.5 -21t-75.5 -15 q-195 -39 -275 -39q-47 0 -94 17.5t-47 64.5z" />
<glyph unicode="&#xb2;" horiz-adv-x="686" d="M135 145q12 63 21.5 116.5t17.5 92.5q47 240 91 420t93 354q31 113 80 168.5t94 55.5q51 0 74 -43.5t23 -96.5q0 -104 -41 -262q-76 -295 -80 -301q-43 -207 -43 -407q0 -43 -24.5 -80t-58.5 -62.5t-70 -40t-60 -14.5q-47 0 -82 25.5t-35 74.5z" />
<glyph unicode="&#xb3;" horiz-adv-x="538" d="M39 184q0 43 20.5 129t49 181.5t62.5 185.5t58 143q94 203 177 203q39 0 58 -35t19 -88q0 -63 -67 -252q-10 -25 -40 -88t-30 -117q0 -18 5 -40.5t12.5 -46t12.5 -42t5 -26.5q0 -37 -31 -107q-80 -180 -207 -180q-66 0 -85 53.5t-19 126.5zM326 1384q0 18 18 49t44 61 t53.5 52.5t45.5 22.5q29 0 60 -16.5t58.5 -42t45 -57t17.5 -62.5q0 -14 -16.5 -45t-40 -61t-48 -52.5t-43.5 -22.5q-18 0 -50 20.5t-64.5 49.5t-56 57.5t-23.5 46.5z" />
<glyph unicode="&#xb4;" horiz-adv-x="927" d="M23 160q61 180 111 328.5t50 254.5q0 20 -4 53t-4 50q0 14 2 30.5t6 26.5q20 68 61.5 121t84.5 53q84 -31 177 -56.5t163 -25.5q109 0 184 37q41 18 57.5 71.5t16.5 106.5q0 -4 -11.5 15.5t-25.5 45t-25.5 52.5t-11.5 37q0 14 21.5 44t49 60.5t56.5 54t43 23.5 q66 0 113 -72.5t47 -175.5q0 -84 -9 -141t-38 -139q-47 -137 -142.5 -200.5t-238.5 -63.5q-94 0 -168 15t-127 28q-43 -156 -64.5 -289t-39 -232.5t-36 -163t-55.5 -79.5q-37 -18 -127 -19q-57 0 -86.5 46t-29.5 104z" />
<glyph unicode="&#xb6;" horiz-adv-x="1540" d="M158 1174q0 123 112 149q-2 0 40 7t108.5 20.5t147.5 30t157 30.5t135.5 25.5t83.5 15.5q150 25 252 41t158 25q238 37 266 36q102 0 160.5 -46t58.5 -142q0 -35 -17.5 -68.5t-45 -61.5t-60.5 -45t-63 -17q-12 0 -27.5 13t-34 27.5t-38 27.5t-40.5 13h-153 q-90 -315 -153.5 -546.5t-94.5 -358.5q-10 -45 -13 -88t-3 -65q0 -23 2 -76t-9.5 -107.5t-43 -96.5t-101.5 -42q-59 0 -111.5 52.5t-52.5 115.5q0 49 49 215q29 90 57.5 180t57.5 180q39 119 66.5 213.5t48.5 159.5l76 240q-10 -2 -55.5 -10.5t-95.5 -16.5t-95 -15t-56 -9 q-8 -41 -26.5 -105.5t-41 -145.5t-49 -171t-50.5 -178q-63 -226 -86 -324q-16 -88 -17 -147q0 -18 2 -54.5t2 -54.5q6 -25 -1 -61.5t-26.5 -71.5t-52 -59.5t-75.5 -24.5q-57 0 -109.5 50t-52.5 116q0 25 13 80t34.5 132t51.5 171t61 194q49 154 69.5 231t34.5 127t33.5 103 t64.5 160q8 0 -35 -10.5t-101 -23.5t-115.5 -24.5t-77.5 -11.5q-47 0 -85 24.5t-38 72.5z" />
<glyph unicode="&#xb7;" horiz-adv-x="1028" d="M358 539q0 16 20.5 54t48.5 78t57.5 70.5t47.5 34.5q23 4 57 -5t66.5 -26.5t55 -38t22.5 -38.5q2 -18 -15.5 -59.5t-45 -84.5t-58 -74.5t-53.5 -31.5q-35 0 -70.5 10t-65.5 26.5t-48.5 38t-18.5 46.5z" />
<glyph unicode="&#xb8;" horiz-adv-x="841" d="M45 291q0 115 51 251t137 253.5t200 196.5t239 79q82 0 132 -48t50 -126q0 -92 -12 -135q-10 -37 -35 -83t-59.5 -92t-76.5 -87t-87 -66q-59 -35 -122 -68.5t-122 -66.5q4 -25 11 -38t24 -13q88 0 231.5 39t286.5 82q49 0 49 -70q0 -39 -44 -77t-112.5 -71.5 t-150.5 -63.5t-158 -51.5t-136 -33.5t-85 -12q-47 0 -86 29.5t-66.5 73.5t-43 97.5t-15.5 100.5zM244 1346q4 6 25.5 47t55 89t58.5 48q53 0 104 -47q43 -41 43 -72q0 -63 -45 -110.5t-108 -47.5q-68 0 -100.5 28t-32.5 65zM322 477q35 16 69.5 41t71.5 53q27 20 48 41 t42 41q45 47 62.5 67.5t17.5 65.5q-8 18 -18.5 33t-22.5 15q-57 0 -109.5 -57.5t-97.5 -149.5q-14 -29 -29.5 -66t-33.5 -84zM670 1354q0 8 12 38.5t31.5 63.5t44 58.5t47.5 25.5q49 0 94 -45t45 -88q0 -76 -33.5 -120t-109.5 -44q-131 0 -131 111z" />
<glyph unicode="&#xb9;" horiz-adv-x="2203" d="M57 158q0 23 16.5 91t40 158.5t51.5 188.5t51.5 180t39.5 134l16 53q14 88 23.5 148t17.5 93q25 111 97 111q53 0 108 -43q8 12 20.5 31.5t26 38t26.5 31.5t23 13q55 0 105.5 -58t81.5 -175q23 -88 43 -177t43 -177q12 12 38.5 62t59.5 119t66.5 145.5t60.5 139t43 100.5 t12 30q86 178 140 178q57 0 98 -53q35 -47 35 -90v-240q0 -66 -51 -119q-47 -49 -79 -70.5t-60.5 -48t-59.5 -74t-78 -147.5q-96 -207 -145 -314.5t-54 -111.5q-119 -223 -198 -223q-45 0 -67.5 37t-32 97t-10.5 140t-1 166q0 154 -11 219.5t-34 102.5q-113 -354 -197 -574 q-88 -229 -192 -229q-18 0 -37.5 11t-36 28.5t-28 38t-11.5 39.5zM1343 324q0 59 55.5 82.5t141.5 23.5q43 0 80 -3t72 -3q47 0 92 -5t79.5 -18.5t56.5 -39t22 -66.5q0 -39 -22 -61.5t-58.5 -35t-83.5 -15.5t-97 -3q-139 0 -208 17q-129 33 -130 127zM1450 784 q0 172 133 385q160 252 371 252q37 0 73.5 -19.5t67.5 -50t50.5 -67.5t19.5 -72q0 -184 -127 -415q-158 -287 -379 -287q-82 0 -145.5 77t-63.5 197zM1723.5 855q9.5 -34 50.5 -34q33 0 68.5 51.5t43.5 96.5q0 18 -16.5 30.5t-40.5 18.5q-33 8 -60.5 -21.5t-41 -68.5t-4 -73 z" />
<glyph unicode="&#xba;" horiz-adv-x="858" d="M43 227q0 39 12.5 91.5t31.5 105.5t43 104.5t48 85.5q61 88 126 161t134 132q168 141 305 142q59 0 106.5 -32t47.5 -87q0 -70 -53 -86q-119 -10 -203 -54.5t-170 -150.5q33 0 54.5 5t58.5 5q92 0 145 19q12 4 23 10q61 0 97 -20.5t36 -65.5q0 -53 -37 -85t-97.5 -49.5 t-134 -22.5t-147.5 -5h-55q-27 0 -33.5 5.5t-20.5 15.5q-27 -68 -26 -138q0 -47 20.5 -61t71.5 -14q66 0 184 61q33 18 90.5 53t112.5 57.5t96 18.5t41 -63q0 -84 -207 -224q-244 -164 -501 -164q-104 0 -151.5 69t-47.5 181z" />
<glyph unicode="&#xbb;" horiz-adv-x="1507" d="M209 156q0 37 67 100q25 25 250 190q-61 94 -100 158t-55 92q-45 82 -45 119t15 74t40 67.5t57.5 50t65.5 19.5q41 0 100.5 -71.5t114.5 -164t95 -179.5t40 -119q0 -35 -47 -86.5t-114.5 -105.5t-145.5 -105.5t-139 -88.5q-84 -49 -142 -49q-29 0 -43 28t-14 71zM707 170 q0 59 93 128t226 163l-98 147q-104 162 -105 221q0 35 15.5 72t41 67.5t57.5 51t64 20.5q41 0 100.5 -71.5t115 -163.5t95.5 -179t40 -120q0 -35 -47.5 -86t-115 -106.5t-144 -106.5t-138.5 -86q-84 -49 -143 -49q-29 0 -43 27.5t-14 70.5z" />
<glyph unicode="&#xbc;" horiz-adv-x="788" d="M-328 -244q0 76 47.5 131.5t100.5 55.5q27 0 55.5 -27t55 -61.5t51 -70.5t41.5 -52q27 -31 41 -46.5t73 -15.5q29 0 51.5 43t41 113t34 161t31.5 185q12 80 26.5 164t27.5 166t28.5 156.5t32.5 132.5q25 88 96 153q61 55 108 55q41 0 58.5 -19.5t17.5 -74.5q0 2 -9 -42 t-24.5 -112.5t-33 -150.5t-33 -160t-28.5 -139t-17 -86q-20 -94 -38 -186t-38 -185q-23 -102 -53.5 -180t-61.5 -127q-80 -127 -202 -127q-53 0 -111.5 25.5t-116 63.5t-107.5 82t-87 81q-57 57 -58 94zM399 1337q0 16 19.5 47t45 62t53.5 53.5t44 22.5q29 0 60.5 -16.5 t58.5 -43t45 -58.5t18 -63q0 -18 -16 -48.5t-39.5 -59.5t-49.5 -50.5t-44 -21.5q-16 0 -49 21.5t-66 50.5t-56.5 58.5t-23.5 45.5z" />
<glyph unicode="&#xbd;" horiz-adv-x="1024" d="M68 426q0 63 29.5 120.5t66.5 57.5q70 0 90 -6q45 -14 45 -66q4 -33 43 -79.5t93 -87.5t108.5 -71t89.5 -30q100 0 100 76q0 16 -41 81.5t-91 138.5t-93 132.5t-47 65.5q-96 164 -96 254q0 68 33.5 133t91 116.5t131 83t153.5 31.5t193 -61q129 -70 129 -150 q0 -59 -26 -104t-64 -45q-6 0 -32 16.5t-59.5 37t-68.5 36.5t-60 16q-76 0 -129 -29.5t-53 -95.5q0 -14 23.5 -58t59.5 -99.5t76 -113.5t72.5 -104.5t50 -71t9.5 -11.5q102 -164 102 -242q0 -127 -66.5 -205t-150.5 -78q-96 0 -189 23.5t-188 66.5q-70 31 -131 73t-106 85 t-71.5 86t-26.5 78z" />
<glyph unicode="&#xbe;" horiz-adv-x="837" d="M-61 27q0 45 30.5 75.5t77.5 50t103.5 27.5t105.5 8q57 0 99 28t42 56q2 10 -19.5 61.5t-47 111t-47 111.5t-21.5 67q0 158 193 348q205 203 409 203q37 0 80 -35t43 -76q0 -25 -32.5 -81t-81 -112.5t-100.5 -98.5t-93 -38q-20 0 -41 20.5t-21 39.5q0 10 6.5 26.5 t6.5 24.5q0 20 -23 20q-37 0 -70.5 -43t-33.5 -98q0 -31 18.5 -59.5t36.5 -57.5l21 -38q22 -38 47.5 -86t47 -93t21.5 -61q0 -92 -137 -228q-174 -172 -414 -172q-100 0 -139 13q-68 23 -67 86z" />
<glyph unicode="&#xbf;" horiz-adv-x="538" d="M39 184q0 43 20.5 129t49 181.5t62.5 185.5t58 143q94 203 177 203q39 0 58 -35t19 -88q0 -63 -67 -252q-10 -25 -40 -88t-30 -117q0 -18 5 -40.5t12.5 -46t12.5 -42t5 -26.5q0 -37 -31 -107q-80 -180 -207 -180q-66 0 -85 53.5t-19 126.5zM90 1374q0 18 18.5 49t44 60.5 t53 52.5t46.5 23q27 0 58.5 -16.5t59 -42t45 -57.5t17.5 -63q0 -16 -16.5 -45.5t-39 -59.5t-48 -52.5t-43.5 -22.5t-50 20.5t-65 49t-56.5 57.5t-23.5 47zM510 1384q0 18 18.5 49t44 61t53 52.5t46.5 22.5q29 0 59.5 -16.5t58 -42t45 -57t17.5 -62.5q0 -14 -16.5 -45 t-40 -61t-48 -52.5t-42.5 -22.5t-50 20.5t-65 49.5t-56.5 57.5t-23.5 46.5z" />
<glyph unicode="&#xc0;" horiz-adv-x="1136" d="M-16 40.5q-4 31.5 7 63t31.5 63.5t32.5 56q53 104 132 241.5t180 307.5q266 440 368 563q76 92 144 92t103.5 -43t35.5 -178l-2 -413q29 4 56.5 7t53.5 3q72 0 114 -18.5t38 -61.5q0 -47 -24.5 -88t-73.5 -55q-59 -18 -100.5 -27.5t-61.5 -17.5l-2 -125q0 -12 11 -32 t25.5 -42.5t26 -46t11.5 -47.5q0 -53 -31 -129q-84 -203 -242 -203q-74 0 -95.5 46t-21.5 126q0 23 6.5 67t14.5 100t14 118.5t6 119.5q-102 -41 -162.5 -67.5t-99.5 -48.5q-74 -45 -112.5 -82t-79.5 -111q-86 -154 -92 -164q-51 -70 -123 -69q-16 10 -28.5 19t-20.5 16 q-35 29 -39 60.5zM547 672q8 4 42 12t70.5 18.5t64.5 16.5t21 2q0 16 1.5 39.5t1.5 47t1 42t1 24.5q0 45 -2.5 76t-10.5 54z" />
<glyph unicode="&#xc1;" horiz-adv-x="1130" d="M16 164q0 29 34 58.5t67 29.5q-10 20 -11 49q0 33 14.5 78t35 94t44 97t42.5 87q27 61 52 123t50 125l80 203q-18 6 -45 14t-51.5 19.5t-42 27t-17.5 37.5q0 47 31 87t83 68t119.5 43t141.5 15q20 0 96 6.5t162 12.5t162 12t96 6q68 0 111 -6t67.5 -22.5t33.5 -46 t9 -78.5q0 -33 -25.5 -67t-64.5 -61.5t-82 -45t-78 -17.5t-56 10.5t-37.5 23.5t-34 23.5t-44.5 10.5q-25 0 -72.5 -4.5t-95 -10.5t-81 -10t-29.5 -4q-10 -35 -23.5 -73t-27.5 -79q-35 -100 -62 -155q55 31 147.5 53.5t176.5 22.5q53 0 101 -24t85 -64.5t59.5 -98 t22.5 -125.5q0 -141 -57.5 -266t-154.5 -218t-224 -146.5t-268 -53.5q-84 0 -163 19.5t-140.5 51.5t-98.5 76t-37 93zM319 229q53 -29 101.5 -38t146.5 -9q168 0 267 105q81 87 81 196q0 127 -36.5 174.5t-135.5 47.5q-141 0 -256 -97q-8 -53 -15 -90t-15 -65.5t-18.5 -56 t-26.5 -60.5q-12 -29 -19.5 -44.5t-16.5 -24.5t-21.5 -17t-35.5 -21z" />
<glyph unicode="&#xc2;" horiz-adv-x="1171" d="M16 164q0 29 34 58.5t67 29.5q-10 20 -11 49q0 33 14.5 78t35 94t44 97t42.5 87q27 61 52 123t50 125l80 203q-18 6 -45 14t-51.5 19.5t-42 27t-17.5 37.5q0 55 40 99.5t102.5 74t137.5 45t144 15.5q207 0 299 -19q226 -47 226 -186q0 -70 -16.5 -139.5t-57.5 -122.5 q-43 -59 -75 -97t-48 -59q92 -39 128 -94t36 -162q0 -276 -221 -461q-213 -176 -508 -176q-84 0 -163 19.5t-140.5 51.5t-98.5 76t-37 93zM319 229q53 -29 101.5 -38t146.5 -9q164 0 267 78q80 65 92 143q2 12 2 26.5v21.5q0 92 -54.5 134t-154.5 58q-35 4 -82 6t-105 2h-30 q-31 -186 -90 -315q-12 -29 -19.5 -44.5t-16.5 -24.5t-21.5 -17t-35.5 -21zM578 877q102 27 156 41t59 16q104 49 127 178q4 23 -25 35t-74 12q-35 0 -58.5 -4t-74.5 -14z" />
<glyph unicode="&#xc3;" horiz-adv-x="817" d="M27 129q0 98 39 240q4 10 22 69.5t44 136t51.5 152.5t43.5 121q27 66 55.5 130t57.5 130q-18 6 -45 14t-51.5 19.5t-42 27t-17.5 37.5q0 47 31 87t83 68t119.5 43t141.5 15q25 0 85.5 5.5t129 11.5t130 11t85.5 5q68 0 111 -6t67.5 -22.5t33.5 -46t9 -79.5 q0 -33 -25.5 -66.5t-64.5 -61t-82 -45t-77 -17.5q-35 0 -55.5 10t-38 22.5t-35 23t-44.5 10.5q-70 0 -124 -12.5t-86 -20.5q-27 -63 -47.5 -120.5t-36.5 -109.5q-23 -68 -43.5 -140.5t-38 -142t-30.5 -132t-22 -107.5q-23 -131 -22 -217q0 -82 -45 -136t-127 -54 q-49 0 -94 45t-45 102z" />
<glyph unicode="&#xc4;" horiz-adv-x="1314" d="M-182 -322q0 37 34.5 151t94.5 275q31 84 91 124t124 40q37 0 80 82t96 182q35 66 82 152t104 193q72 131 112 204.5t50 89.5q90 160 162 238q90 98 164 98q82 0 110.5 -40t28.5 -117v-41q0 -47 -5 -110.5t-11.5 -125t-11.5 -108.5t-5 -62q0 -94 -10 -193.5t-23 -211.5 v-232q66 -8 120.5 -49t54.5 -113q0 -14 -17.5 -64t-40 -110.5t-47.5 -117t-37 -84.5q-35 -84 -63.5 -119t-69.5 -35q-113 0 -113 86q0 18 7.5 53t19.5 80t26.5 94.5t28.5 98.5h-790q-14 -27 -30.5 -62t-37.5 -82q-23 -53 -35 -82.5t-14 -31.5q-10 -27 -19.5 -54.5t-22.5 -49 t-35.5 -36t-59.5 -14.5q-57 0 -74.5 22.5t-17.5 81.5zM432 244q12 0 69.5 2t123 4t122 4t68.5 2q4 43 9.5 131t19.5 215q8 96 15 162.5t11 119t9.5 96.5t11.5 95q-23 -35 -50.5 -79t-54 -87t-49 -78.5t-32.5 -54.5q-25 -41 -71 -130t-91 -180t-79 -157.5t-32 -64.5z" />
<glyph unicode="&#xc5;" horiz-adv-x="987" d="M16 59q4 29 123 428q37 127 56.5 204t38 138.5t44 121t76.5 151.5q-47 0 -79.5 20.5t-22.5 63.5q8 43 71.5 83t170 68.5t248 46t307.5 17.5h157q119 -2 119 -53q0 -59 -27.5 -94t-74.5 -53.5t-110.5 -25t-135.5 -6.5q-106 0 -238 -18q-39 -6 -77.5 -12t-77.5 -13 q-23 -78 -46.5 -155.5t-45.5 -155.5q10 0 71.5 7t134 16.5t134 16.5t71.5 7q55 0 90 -7t35 -60q0 -137 -309 -201q-47 -10 -120 -20.5t-173 -20.5l-100 -291q10 4 83.5 16.5t159.5 28t160 26.5t86 11q106 0 141 -18q49 -27 50 -111q0 -164 -148 -164q-53 0 -80 10 q-61 0 -137 -10t-161 -24.5t-174 -34t-175 -37.5q-47 0 -81 34t-34 70z" />
<glyph unicode="&#xc6;" horiz-adv-x="1781" d="M-33 168q0 74 26.5 116t69.5 70.5t95.5 54t101.5 68.5q76 63 164 155.5t166 172.5q-43 72 -66.5 109.5t-27.5 43.5q-39 55 -80 83t-75 54.5t-55.5 63.5t-21.5 111q0 59 47 104t113 45q49 0 112.5 -67.5t128 -161.5t123 -193.5t99.5 -162.5q51 180 78.5 272t29.5 98 q82 260 193 260q35 0 65.5 -34.5t30.5 -71.5q0 -61 -57 -252q-23 -72 -43.5 -142.5t-42.5 -142.5q121 121 207 206t139 132q250 221 346 221q129 0 129 -129q0 -86 -47 -135t-156 -82q-37 -10 -90 -43t-109.5 -76t-112.5 -90t-99 -88q76 -133 153 -237q119 -162 185 -193 q45 -20 59 -55t14 -92q0 -82 -67.5 -121t-151.5 -39q-37 4 -77 41t-82 93t-81.5 123t-74.5 128l-111 197q-12 -10 -26.5 -17.5t-24.5 -11.5q-16 -37 -32.5 -93.5t-30 -116.5t-21.5 -114.5t-8 -89.5q-14 -66 -73.5 -103.5t-133.5 -37.5q-55 0 -95 42t-40 101q0 10 21.5 65.5 t49 127.5t55 141.5t40.5 106.5q-20 14 -34 24.5t-30 24.5q-117 -145 -212 -258t-167 -191q-154 -166 -221 -166q-88 0 -126 34t-38 118z" />
<glyph unicode="&#xc7;" horiz-adv-x="983" d="M10 252q0 78 34 124t93 46q45 0 85 -26.5t84 -58.5t93.5 -58.5t112.5 -26.5q53 0 102.5 21.5t88 56.5t62 82t23.5 98q0 152 -141 152q-4 0 -23.5 -3.5t-42 -8.5t-44 -8t-31.5 -3q-86 0 -86 125q0 31 33.5 72t81.5 53q43 12 93 32.5t91 48t68.5 60.5t27.5 72 q0 57 -30.5 75.5t-90.5 18.5q-82 0 -200 -88q-59 -41 -105 -41q-41 0 -59.5 36t-18.5 93q0 66 86 133q127 98 353 98q152 0 237 -86q76 -76 76 -180q0 -156 -76 -239q-41 -45 -153 -105q96 -27 162.5 -117t66.5 -190q0 -209 -201 -367q-186 -145 -379 -145q-229 0 -368 104 q-104 80 -105 150z" />
<glyph unicode="&#xc8;" horiz-adv-x="1224" d="M4 109q0 37 59 204q27 72 52.5 145.5t52.5 145.5q4 10 29.5 99.5t59.5 199t66.5 210.5t51.5 138q63 131 143 131q29 0 62.5 -31.5t33.5 -70.5q0 -61 -102 -385q-14 -47 -41 -129t-68 -197l-53 -147q57 59 113.5 120.5t114.5 123.5q47 51 126.5 136t163.5 177t158 177 t111 138q29 45 54.5 57.5t61.5 12.5h35q51 0 69.5 -42t18.5 -99q0 -53 -24.5 -140.5t-57 -180.5t-66.5 -182t-52 -145q-72 -215 -72 -247q0 -18 20.5 -61.5t20.5 -67.5q0 -94 -77 -141.5t-179 -47.5q-53 0 -90 33t-37 80q0 57 84 280q35 94 81 203t99 232q-12 -12 -56 -59.5 t-103.5 -114t-128 -142.5t-134 -146.5t-118 -126.5t-80.5 -83q-188 -184 -256 -184q-57 0 -101.5 37.5t-44.5 89.5z" />
<glyph unicode="&#xc9;" horiz-adv-x="1337" d="M4 109q0 37 59 204q27 72 52.5 145.5t52.5 145.5q4 10 29.5 99.5t59.5 199t66.5 210.5t51.5 138q63 131 143 131q29 0 62.5 -31.5t33.5 -70.5q0 -61 -102 -385q-14 -47 -41 -129t-68 -197l-53 -147q57 59 113.5 120.5t114.5 123.5q47 51 126.5 136t163.5 177t158 177 t111 138q29 45 54.5 57.5t61.5 12.5h35q51 0 69.5 -42t18.5 -99q0 -53 -24.5 -140.5t-57 -180.5t-66.5 -182t-52 -145q-72 -215 -72 -247q0 -18 20.5 -61.5t20.5 -67.5q0 -94 -77 -141.5t-179 -47.5q-53 0 -90 33t-37 80q0 57 84 280q35 94 81 203t99 232q-12 -12 -56 -59.5 t-103.5 -114t-128 -142.5t-134 -146.5t-118 -126.5t-80.5 -83q-188 -184 -256 -184q-57 0 -101.5 37.5t-44.5 89.5zM657 1692q0 51 31 81.5t103 30.5q90 0 122.5 -42t57.5 -95q18 -33 55 -33q180 0 328 101q23 14 41 14q45 0 45 -57q0 -59 -60.5 -112.5t-142.5 -93.5 t-166 -62.5t-131 -22.5q-143 0 -219 98q-63 82 -64 193z" />
<glyph unicode="&#xca;" horiz-adv-x="1269" d="M10 168q0 33 45 147q74 193 117 308.5t57 156.5q106 348 195 496q76 131 164 131q33 0 61.5 -30.5t28.5 -67.5q0 -55 -53 -209q-23 -59 -43.5 -119.5t-40.5 -120.5q2 0 39.5 24.5t95 63.5t125 84l129 86t107.5 72t61 41q199 119 268 119q129 0 129 -129q0 -82 -52 -128 t-143 -59q-31 -2 -93 -32.5t-132.5 -72.5t-138.5 -85t-109 -74q41 -57 83 -113.5t85 -109.5q66 -84 117 -134.5t78 -64.5q47 -20 61.5 -54t14.5 -93q0 -70 -58.5 -116t-138.5 -46q-29 6 -55.5 19.5t-59 44t-71.5 79.5t-88 125q-8 10 -58.5 96t-144.5 244q-35 -23 -53.5 -33 t-69.5 -30q-39 -72 -61.5 -116t-49.5 -101q-12 -31 -12 -66q0 -16 7 -63.5t-1 -71.5q-12 -66 -73.5 -103.5t-133.5 -37.5q-55 0 -95 38.5t-40 104.5z" />
<glyph unicode="&#xcb;" horiz-adv-x="1126" d="M-63 158q0 47 44 63.5t89 30.5q51 18 100 64t96 111t90 140.5t82 153.5q61 125 122 249t126 247q70 127 136.5 189t119.5 62q82 0 111.5 -39.5t29.5 -121.5v-35q0 -45 -5 -110.5t-12 -130t-12 -119t-5 -76.5q0 -104 -7.5 -222t-11.5 -208q0 -14 15.5 -42t34 -59 t33.5 -62.5t15 -56.5q0 -98 -69.5 -165.5t-177.5 -67.5q-74 0 -95.5 46t-21.5 126v79t1 83t5 103.5t12 139.5q2 12 11.5 113.5t27.5 292.5q14 158 19 184q-8 -14 -41 -79.5t-88 -180.5l-99 -209q-229 -486 -331 -592q-68 -72 -131 -92q-37 -14 -109 -14q-53 0 -78.5 62.5 t-25.5 142.5z" />
<glyph unicode="&#xcc;" horiz-adv-x="1763" d="M-39 154q0 23 17.5 39t43 27t56.5 19.5t57 16.5q53 16 103.5 64.5t95.5 114t82.5 141t66.5 147.5q29 68 60.5 186.5t76 234.5t103.5 201t141 85q102 0 127 -63.5t25 -178.5q0 -31 -3 -92.5t-7.5 -140t-8.5 -169t-8 -180.5q0 -10 2 -9t8 1t37 40t75 101.5t94 135t96.5 139 t79 114t42.5 60.5q160 209 217 209q84 0 112 -62.5t28 -146.5q0 -70 -22.5 -175.5t-49.5 -216t-49.5 -214t-22.5 -172.5q0 -41 9.5 -58.5t19.5 -30t19.5 -32t9.5 -66.5q0 -86 -50.5 -149.5t-138.5 -63.5t-119.5 75t-31.5 173q0 39 14 119t32.5 171t37 177t26.5 137 q-41 -59 -82 -120.5t-82 -120.5q-74 -109 -133 -191t-104 -137q-135 -166 -186 -166q-80 0 -106 57.5t-26 145.5v134t1.5 143.5t3.5 133t8 103.5q-53 -123 -100.5 -224.5t-86.5 -183.5q-51 -104 -86.5 -182t-74.5 -133t-86.5 -92t-120.5 -62q-55 -18 -137 -18 q-53 0 -79 62.5t-26 142.5z" />
<glyph unicode="&#xcd;" horiz-adv-x="1181" d="M29 109q0 12 23.5 72.5t53 134t58.5 142t39 93.5q2 20 -18.5 54t-20.5 54q0 43 12 60q2 2 23.5 16.5t62.5 42.5q104 266 158 377q106 223 174 223q31 0 63.5 -32.5t32.5 -71.5q0 -29 -20.5 -92.5t-49 -137t-58.5 -142t-46 -107.5q86 8 217 24q10 2 54 8.5t120 16.5 q20 41 54 127t59 159q31 88 55.5 141.5t50 81t54 36t65.5 8.5q35 0 50.5 -27t15.5 -59q0 -20 -4 -49t-4 -33q0 -59 -26 -147.5t-61.5 -182.5t-73.5 -182t-61 -150q-78 -209 -77 -252q0 -16 20 -51t20 -61q0 -98 -73.5 -143.5t-182.5 -45.5q-53 0 -89.5 33t-36.5 80 q0 18 21.5 81.5t51 137.5t57 144.5t39.5 105.5q-37 -4 -98 -13.5t-120.5 -17.5t-105.5 -16t-54 -8q-16 -41 -27.5 -70t-19.5 -45q-23 -53 -41 -76q37 -57 38 -65q14 -31 15 -76q0 -41 -22.5 -82t-58.5 -74t-79 -52t-86 -19q-55 0 -99 37.5t-44 89.5z" />
<glyph unicode="&#xce;" horiz-adv-x="1019" d="M55 256q0 233 19 342q31 184 139 377q139 242 295 344q106 70 237 70q35 0 63 -3.5t62 -7.5q14 53 25.5 67.5t54.5 14.5q33 0 77 -40t83 -93t65.5 -107t26.5 -83q0 -352 -162 -637q-70 -125 -161 -223.5t-203 -174.5q-203 -135 -381 -135q-49 0 -93 23.5t-77 62.5 t-51.5 91.5t-18.5 111.5zM293 403q0 -70 37 -116.5t92 -46.5q213 0 371 258q137 225 137 471q0 68 -58.5 107.5t-166.5 39.5q-199 0 -322 -319q-90 -236 -90 -394z" />
<glyph unicode="&#xcf;" horiz-adv-x="1085" d="M31 129q0 12 16 59.5t42 112t55.5 138t57 140t48 116.5t26.5 67l130 360q-57 -6 -93.5 24t-36.5 91q0 45 38 87t92 52q49 10 124.5 18.5t164.5 14.5t182.5 10t179.5 4q154 0 204 -30.5t50 -89.5q0 -51 -30 -78t-85 -37q-29 -82 -55.5 -162t-55.5 -162q-33 -98 -61.5 -187 t-52.5 -169q-55 -180 -56 -219q0 -16 20.5 -53t20.5 -62q0 -96 -74.5 -142t-181.5 -46q-53 0 -90 32.5t-37 79.5q0 29 36 141.5t110 305.5q59 156 118.5 311t118.5 313q-2 0 -46 -4t-95 -8t-95 -8t-46 -4q-45 -106 -89 -234.5t-83 -244.5q-23 -63 -46.5 -124t-45.5 -120 q-16 -39 -40 -95.5t-57 -133.5q-37 -90 -70.5 -141.5t-97.5 -51.5q-115 0 -114 129z" />
<glyph unicode="&#xd0;" horiz-adv-x="944" d="M25 104q12 45 26.5 96.5t28.5 108.5q23 80 37 138.5t22 93.5q18 72 44 158.5t58.5 183t67.5 199t72 202.5q10 27 64.5 56.5t122 55t134 42t99.5 16.5q98 0 209 -92q129 -109 129 -240q0 -156 -138 -307q-76 -84 -177 -149.5t-230 -118.5q-57 -25 -112.5 -50.5 t-110.5 -50.5l-52 -346q-8 -51 -53 -89t-127 -38q-45 0 -79.5 39t-34.5 92zM410 694q55 20 107 44t99 55q96 63 154 122q80 81 80 140q0 68 -32 99.5t-113 31.5q-106 0 -164 -113q-20 -39 -40 -88t-38.5 -100t-31.5 -101.5t-21 -89.5z" />
<glyph unicode="&#xd1;" horiz-adv-x="966" d="M57 324q0 150 95 389q111 287 270 461q199 223 434 223q16 0 61.5 -15.5t92.5 -38t85 -49t38 -51.5q0 -33 -15.5 -65.5t-40 -58t-54.5 -41t-58 -15.5q-6 0 -22.5 10t-38 21.5t-45 21.5t-42.5 10q-174 0 -299 -204q-164 -266 -164 -471q2 -20 5 -35t6 -25q18 -61 47 -61 q2 0 43 14t100 36.5t130 47.5t130 47.5t100 36.5t43 14q43 0 62.5 -27.5t19.5 -109.5q0 -47 -56 -95t-140 -93t-180.5 -84t-176.5 -68q-193 -68 -235 -67q-84 0 -139.5 99t-55.5 243z" />
<glyph unicode="&#xd2;" horiz-adv-x="958" d="M12 1165q0 51 19.5 81t47 47.5t59.5 24.5t59 11q78 12 127 20.5t103 17.5l129 21.5t204 32.5q121 20 188.5 29.5t77.5 9.5q104 0 161.5 -46t57.5 -144q0 -35 -17.5 -69t-45 -61.5t-60 -45t-63.5 -17.5q-12 0 -27.5 12.5t-34 29t-38 28.5t-39.5 12h-154 q-68 -238 -115 -408.5t-76 -295.5q-10 -43 -13 -87t-3 -65q0 -23 2 -76t-9 -107t-44 -96t-100 -42q-59 0 -111.5 50t-52.5 118q0 25 16 89t40 145t52.5 170t53 164t41 125t18.5 54l76 240q-25 -8 -82.5 -19.5t-120 -23t-119.5 -18.5t-84 -7q-47 0 -85 24.5t-38 71.5z" />
<glyph unicode="&#xd3;" d="M84 166q0 25 19.5 41t49 28.5t64.5 21.5t64 19q49 14 80.5 40t55 55.5t42.5 62.5t37 64q-8 14 -34 63t-67 137q-39 76 -70.5 139.5t-60.5 102.5q-31 39 -56.5 65.5t-44 51t-28.5 55.5t-10 76q0 80 45 131t123 51q51 0 115.5 -76.5t130.5 -228.5q41 -96 68.5 -162.5 t41.5 -101.5q37 86 73 173t75 173q61 137 119.5 204.5t97.5 67.5q45 0 85 -30.5t40 -65.5q0 -43 -52 -164q-20 -49 -53 -120.5t-71.5 -154.5t-80.5 -171t-83 -172q-66 -137 -113 -225.5t-72 -127.5q-59 -92 -118 -147q-70 -68 -146 -92q-55 -18 -137 -19q-25 0 -48.5 22.5 t-42 57.5t-28.5 77t-10 79z" />
<glyph unicode="&#xd4;" horiz-adv-x="1413" d="M33 580q0 61 15 125.5t43 125t62.5 112.5t75.5 87q102 92 279 164q193 80 354 80q16 43 27.5 100.5t29 108.5t43 87t72.5 36q70 0 103.5 -31t33.5 -70q0 -41 -15 -100t-42 -131q180 -18 316 -66q98 -37 139 -114.5t41 -188.5q0 -276 -234 -495q-242 -227 -577 -228 q-4 -14 -15.5 -53t-27.5 -102q-45 -180 -97 -181q-25 0 -58.5 7.5t-64 19.5t-52 29.5t-21.5 40.5q0 25 1 47t4 47.5t9 61.5t19 87q-193 29 -316 121q-147 111 -147 273zM309 608q0 -41 31 -76.5t75 -62.5t93 -42t88 -15q18 66 43 148.5t50.5 168.5t51 168t47.5 143 q-104 -16 -158.5 -28t-107.5 -43q-41 -25 -78.5 -66t-67.5 -90t-48.5 -102.5t-18.5 -102.5zM846 383q174 0 336 143q153 135 153 250q0 154 -73.5 211t-217.5 57q-6 -31 -23 -91t-35.5 -118.5t-32 -99.5t-13.5 -30q-18 -68 -29.5 -109t-15.5 -55q-10 -35 -22.5 -75 t-26.5 -83z" />
<glyph unicode="&#xd5;" horiz-adv-x="1101" d="M-33 86q0 25 56.5 105.5t135.5 180t163 200t141 165.5q-33 68 -111 191q-150 238 -149 270q2 27 19.5 58.5t42 58t52 44t54.5 13.5q23 0 62.5 -46t82.5 -107.5t81 -124t56 -97.5q31 41 92.5 117t128 149.5t126 129t85.5 55.5q18 0 38 -12.5t36.5 -32t25.5 -41t5 -39.5 q0 -6 -53.5 -75.5t-121 -158t-132 -171t-88.5 -117.5q47 -86 89 -167t74 -159q94 -213 95 -321q0 -84 -38 -128t-124 -44q-29 0 -56.5 18t-39.5 55q-16 55 -27.5 93t-23 71t-23.5 65.5t-33 77.5q-49 106 -96 170q-25 -35 -78 -107.5t-107.5 -146t-95.5 -128.5l-41 -54 q-16 -35 -28.5 -62.5t-29.5 -47t-48 -29.5t-84 -10q-61 0 -89 46t-24 93z" />
<glyph unicode="&#xd6;" horiz-adv-x="1339" d="M43 100q0 25 22.5 108t53.5 184.5t63.5 205.5t55.5 172q33 109 65.5 220.5t69.5 217.5t89 159.5t103 53.5q31 0 64 -32.5t33 -71.5q0 -12 -12.5 -61.5t-32 -118t-44 -148.5t-47 -154.5t-42 -135t-29.5 -91.5q-10 -35 -23.5 -85t-27 -99t-30 -90t-32.5 -58q20 -2 48 -3 t59 -1q61 0 144 2t177 7q27 76 49.5 139t38.5 115q31 88 50.5 144t27.5 83q18 57 37 118.5t37 131.5q20 76 36.5 129t26.5 86q78 209 197 209q47 0 67.5 -34t20.5 -108q0 -57 -25.5 -147t-60.5 -186.5t-72 -188.5t-57 -154q-84 -244 -99 -339q100 -10 129 -42t29 -102 q0 -14 -15.5 -89t-45 -158t-71.5 -150.5t-97 -67.5q-113 0 -129 86q0 4 7 38t18.5 76t20.5 81t11 53q-76 0 -175 -1t-222 -3q-88 0 -154.5 -3t-128.5 -3q-98 0 -138 20.5t-40 85.5z" />
<glyph unicode="&#xd7;" horiz-adv-x="989" d="M127 668q0 53 8 120.5t22.5 140t35 145.5t45.5 134q33 84 89 129t109 45q12 0 25.5 -13t25 -32.5t17.5 -43t0 -42.5q-45 -164 -80 -271.5t-35 -160.5q0 -51 20.5 -77.5t73.5 -26.5t130 43t163 100q27 74 54.5 147.5t58.5 149.5q49 119 94 161t129 42q35 0 47 -19.5 t12 -58.5q-31 -88 -77.5 -214t-93 -258t-79 -254t-32.5 -204q0 -25 19.5 -57.5t19.5 -52.5q0 -84 -49 -146q-63 -80 -197 -80q-51 0 -89 34t-38 79q0 94 46 221t104 273q-57 -37 -101.5 -63t-84.5 -41t-81 -21.5t-94 -6.5q-90 0 -153.5 45.5t-63.5 133.5z" />
<glyph unicode="&#xd8;" horiz-adv-x="1892" d="M55 10q0 12 12.5 59.5t31 112t41 139t44 145.5t40 127t26.5 85q33 109 65.5 219.5t69.5 218.5q37 106 89 159.5t104 53.5q29 0 62.5 -31.5t33.5 -70.5q0 -27 -23.5 -114t-55.5 -194.5t-67.5 -217t-60.5 -183.5q-14 -43 -30.5 -95t-34 -101.5t-34 -91.5t-28.5 -64 q100 12 204.5 26.5t196.5 14.5q84 223 128 340t46 127q47 139 86 284q31 115 61 185.5t59.5 111.5t62.5 55.5t73 14.5q90 0 91 -141q0 -49 -27 -134t-63.5 -177.5t-73.5 -178.5t-58 -141q-43 -123 -68.5 -209t-33.5 -137h385q41 121 75 254t67.5 266t74.5 261t96 239 q49 98 144 98q90 0 90 -141q0 -23 -15.5 -89.5t-39 -156.5t-52 -193.5t-56.5 -199.5t-52.5 -175t-36.5 -120q-16 -47 -27.5 -94t-33 -85t-58.5 -61.5t-100 -23.5h-531q-209 0 -375.5 -22.5t-328.5 -49.5q-94 0 -144.5 20.5t-50.5 75.5z" />
<glyph unicode="&#xd9;" horiz-adv-x="1808" d="M-16 33q0 18 29.5 129.5t77.5 273.5t106.5 348.5t115.5 356.5q37 106 89.5 159.5t103.5 53.5q29 0 62.5 -32t33.5 -71q0 -27 -23.5 -113.5t-55 -194t-67.5 -218.5t-61 -184q-12 -41 -30.5 -91.5t-37 -99.5t-33.5 -90t-22 -61q-2 0 48.5 5t118 10t134 10t95.5 5 q66 188 131 377t131 377q31 115 60.5 185.5t59 111.5t63.5 55.5t73 14.5q47 0 67.5 -34t20.5 -108q0 -55 -24.5 -139t-58.5 -175t-70 -179t-58 -150q-49 -137 -79 -221t-38 -115h406q20 66 40.5 133.5t41.5 135.5q6 18 26.5 86.5t44 151.5t45 161t31.5 115q29 109 47.5 169 t22.5 70q45 98 143 99q90 0 90 -142q0 -53 -20.5 -136t-49 -175t-57 -179t-45.5 -145q-66 -238 -86 -344q86 0 125 -25.5t39 -113.5q0 -45 -28.5 -135t-67.5 -176q-63 -154 -133 -154q-117 0 -131 88q-2 16 4 47t15 67t20.5 71.5t19.5 62.5q-94 10 -238.5 17.5t-300.5 7.5 q-86 0 -185 -8.5t-203.5 -18.5t-211 -18.5t-209.5 -8.5q-84 0 -110 13q-47 23 -47 88z" />
<glyph unicode="&#xda;" horiz-adv-x="1144" d="M16 164q0 29 34 58.5t67 29.5q-10 20 -11 49q0 33 14.5 78t35 94t44 97t42.5 87q27 61 52 123t50 125l80 203q-96 0 -141 18q-41 16 -50.5 44t2 61t37 63.5t54.5 48.5q113 76 317 76q49 0 73.5 -5t33 -15t7.5 -27.5t-1 -42.5q0 -16 -17.5 -66.5t-43 -116t-57.5 -137 t-60 -132.5q39 0 86 2t91 5t81 5t55 2q55 0 108.5 -25.5t94.5 -70.5t65.5 -105.5t24.5 -128.5q0 -276 -221 -461q-213 -176 -508 -176q-84 0 -163 19.5t-140.5 51.5t-98.5 76t-37 93zM319 229q53 -29 101.5 -38t146.5 -9q164 0 267 78q80 65 92 143q0 14 2 32t2 26 q0 90 -41 141t-117 51q-33 0 -61.5 -3t-51.5 -3t-76 2t-81 2q-31 -186 -90 -315q-12 -29 -19.5 -44.5t-16.5 -24.5t-21.5 -17t-35.5 -21z" />
<glyph unicode="&#xdb;" horiz-adv-x="1536" d="M-39 164q0 29 34 58.5t66 29.5q-10 20 -10 49q0 61 49 172q23 47 45.5 92t40.5 92q49 121 96.5 243t98.5 243q117 276 207 276q45 0 78.5 -22.5t33.5 -67.5q0 -16 -16 -66.5t-43 -116t-58.5 -137t-60.5 -132.5q39 0 86 2t91 5t81.5 5t55.5 2q55 0 108 -25.5t94 -70.5 t65.5 -105.5t24.5 -128.5q0 -279 -219 -461q-213 -176 -510 -176q-84 0 -162.5 19.5t-140 51.5t-98.5 76t-37 93zM264 229q53 -29 101.5 -38t146.5 -9q164 0 266 78q80 65 92 143q0 14 2 32t2 26q0 90 -40.5 141t-116.5 51q-31 0 -60.5 -3t-50.5 -3q-25 0 -78 2t-82 2 q-31 -186 -90 -315q-12 -29 -19 -44.5t-16.5 -24.5t-21.5 -17t-35 -21zM1153 172q0 66 22.5 161t54.5 198.5t68.5 199.5t65.5 160q35 84 70.5 167t72.5 165q41 88 80 132t68 44q53 0 77.5 -29t24.5 -76q0 -14 -13 -61t-32.5 -107.5t-43 -125t-42 -114.5t-29 -77t-6.5 -10 q-35 -102 -58.5 -187.5t-35.5 -150.5q-4 -20 -6 -67.5t-2 -76.5v-96q0 -37 -18.5 -72.5t-48 -65.5t-67.5 -52.5t-77 -30.5q-25 -6 -48.5 7t-39.5 39t-26.5 59.5t-10.5 66.5z" />
<glyph unicode="&#xdc;" horiz-adv-x="1101" d="M-25 164q0 29 34 58.5t67 29.5q-10 20 -10 49q0 61 49 172q20 47 43.5 92t42.5 92q49 121 96 243t98 243q117 276 207 276q45 0 79 -22.5t34 -67.5q0 -16 -17.5 -66.5t-43 -116t-57.5 -137t-60 -132.5q39 0 86 2t91 5t81 5t55 2q55 0 108.5 -25.5t94.5 -70.5t65.5 -105.5 t24.5 -128.5q0 -279 -219 -461q-213 -176 -510 -176q-84 0 -163 19.5t-140.5 51.5t-98.5 76t-37 93zM279 229q53 -29 101 -38t146 -9q164 0 267 78q80 65 92 143q0 14 2 32t2 26q0 90 -41 141t-117 51q-31 0 -60.5 -3t-49.5 -3q-25 0 -78.5 2t-81.5 2q-31 -186 -90 -315 q-12 -29 -19.5 -44.5t-16.5 -24.5t-21.5 -17t-34.5 -21z" />
<glyph unicode="&#xdd;" horiz-adv-x="1038" d="M-66 139q0 20 18.5 57t45.5 73t56.5 62.5t54.5 26.5q2 0 33.5 -13t71.5 -29.5t80 -30t60 -13.5q158 0 332 172q201 201 201 461q0 117 -19 168q-31 86 -118 86q-53 0 -117 -55t-184 -158q-51 -41 -87 -41q-20 0 -45.5 17.5t-49 42t-39 54.5t-15.5 54q0 33 37 75t95 85 t128 85t135.5 74.5t117.5 52t77 19.5q164 0 246 -82q96 -96 96 -348q0 -272 -123 -514q-94 -184 -252 -340q-111 -109 -213.5 -148.5t-249.5 -39.5q-182 0 -277.5 45t-95.5 102zM203 637q0 57 43 96t108.5 63.5t140 35t140.5 10.5q96 0 142 -24.5t46 -112.5 q0 -61 -37.5 -95.5t-93.5 -34.5q-16 0 -41.5 1.5t-52.5 3.5t-50.5 3t-35.5 1q-70 0 -131 -17q-16 -2 -43 -16q-57 0 -96 21.5t-39 64.5z" />
<glyph unicode="&#xde;" horiz-adv-x="1679" d="M16 109q0 10 25 74.5t56.5 140t60 143.5t35.5 84q0 12 -6.5 28.5t-14.5 33t-14 29.5t-6 17q0 43 37.5 83t64.5 85q45 213 123 375q82 180 153 180q27 0 61 -35.5t34 -66.5q-8 -31 -15.5 -55.5t-11.5 -42.5q-37 -131 -58.5 -211t-29.5 -109q86 18 172 38t166 46 q139 242 295 344q106 70 237 70q35 0 62.5 -3t62.5 -7q12 45 25.5 62.5t56.5 17.5q35 0 78 -40t81 -93.5t64.5 -106.5t26.5 -82q0 -352 -162 -637q-70 -125 -161 -223t-203 -174q-203 -135 -381 -135q-49 0 -93 23.5t-77 62t-51.5 91t-18.5 111.5q0 137 5 229.5t26 182.5 q-27 -8 -55.5 -18.5t-61.5 -20.5q-8 -2 -49 -17t-115 -42q-16 -41 -27.5 -70t-19.5 -45q-23 -53 -41 -76q37 -57 39 -65q14 -31 15 -76q0 -41 -23 -82t-58.5 -74t-78.5 -52t-86 -19q-55 0 -99.5 37.5t-44.5 89.5zM928 375q0 -70 36.5 -117t92.5 -47q213 0 370 258 q138 225 138 471q0 68 -58.5 107.5t-167.5 39.5q-199 0 -321 -319q-90 -236 -90 -393z" />
<glyph unicode="&#xdf;" horiz-adv-x="1144" d="M-88 211q0 45 53 70q78 27 155 64.5t136 82.5q94 70 158 156q-90 20 -144.5 93t-54.5 165q0 274 203 432q188 147 489 147q86 0 165 -19.5t140.5 -51t98.5 -75.5t37 -93q0 -27 -15.5 -41.5t-33 -25.5t-33 -23.5t-15.5 -32.5q0 -37 -30.5 -105.5t-55.5 -119.5 q-27 -63 -53.5 -127t-50.5 -129q-33 -82 -53.5 -150t-30.5 -119q-2 -12 -3 -20t-1 -13q0 -23 27.5 -65.5t27.5 -89.5q0 -33 -30.5 -59.5t-73.5 -45t-90.5 -29t-77.5 -10.5q-59 0 -85 41t-26 97q0 63 50 164.5t141 287.5h-160q-78 -121 -182 -245q-59 -70 -115.5 -124.5 t-110.5 -93.5q-41 -27 -69.5 -47t-54 -34.5t-52 -20.5t-63.5 -6q-51 0 -84 69.5t-33 145.5zM471 950q0 -94 55.5 -125.5t149.5 -31.5h231l137 321q-84 47 -249 47q-168 0 -246 -49q-66 -41 -74 -113q-2 -18 -3 -30.5t-1 -18.5z" />
<glyph unicode="&#xe0;" horiz-adv-x="1243" d="M-2 180q0 84 117 291q127 221 272 377q174 186 305 186q47 0 96.5 -31.5t49.5 -82.5q25 33 53.5 73.5t71.5 40.5q47 0 78.5 -11t31.5 -54q0 -35 -10 -87.5t-26.5 -114.5t-36 -130t-37.5 -133q-10 -39 -22.5 -105.5t-12.5 -99.5q0 -37 14 -37l54 18q53 19 117.5 42.5 t118.5 41.5l54 19q45 0 62.5 -17.5t17.5 -54.5q0 -29 -41 -68.5t-84 -62.5q-4 -2 -69.5 -35.5t-192.5 -97.5q-143 -72 -178 -72q-61 0 -102.5 37t-41.5 86q0 63 14.5 145.5t20.5 121.5q-57 -53 -114.5 -108.5t-116.5 -109.5q-78 -70 -147.5 -103.5t-120.5 -33.5 q-78 0 -136.5 54.5t-58.5 115.5zM268 262q86 59 159 118.5t130 119.5q135 139 135 215q2 14 3 26.5t1 20.5q0 41 -39 41q-47 0 -113.5 -70.5t-128 -163t-104.5 -181.5t-43 -126z" />
<glyph unicode="&#xe1;" horiz-adv-x="876" d="M31 229q0 55 12 123t34.5 135.5t52.5 131t63 110.5q131 186 217 258q66 53 114 53q29 0 54.5 -23.5t25.5 -53.5q0 -45 -51 -125t-112.5 -170t-113 -180.5t-51.5 -157.5q0 -43 25 -72t76 -29q115 0 213 160q90 150 90 283q0 82 -2 144.5t-9 120.5t-21.5 121.5t-37.5 145.5 q-29 102 -57.5 166t-28.5 109q0 49 89 91t207 72.5t234.5 48t172.5 17.5q61 0 85.5 -15.5t24.5 -72.5q0 -41 -32.5 -66.5t-75.5 -40t-85 -21.5t-63 -13q-70 -20 -139.5 -41t-138.5 -41q16 -43 38.5 -146.5t37.5 -210.5q12 -90 20 -174t8 -164q0 -164 -45 -296t-126 -226 t-193.5 -144t-247.5 -50q-115 0 -189.5 62.5t-74.5 180.5z" />
<glyph unicode="&#xe2;" horiz-adv-x="1017" d="M102 201q0 133 42 291.5t108.5 320.5t146.5 314.5t156 273.5q106 168 253.5 267t299.5 99q104 0 138 -58t34 -163q0 -92 -184 -315q-70 -84 -165 -186.5t-216 -223.5q-80 -78 -160 -155.5t-158 -155.5q0 -4 -9 -25.5t-19.5 -48t-18.5 -52.5t-8 -40q0 -41 25.5 -70.5 t74.5 -29.5q117 0 203 125q78 115 78 245q0 37 -14.5 82t-14.5 56q0 43 40 66.5t89 23.5q59 0 103.5 -50.5t44.5 -134.5q0 -184 -94 -327q-66 -100 -224 -234q-35 -27 -63.5 -46t-60 -29.5t-70.5 -15.5t-92 -5q-102 0 -183.5 51t-81.5 150zM532 928q72 70 134.5 131 t113.5 117q49 53 81 85.5t49.5 57t24.5 46t7 50.5q0 31 -22 31q-45 0 -92.5 -44t-95.5 -117t-97.5 -166t-102.5 -191z" />
<glyph unicode="&#xe3;" horiz-adv-x="667" d="M2 223q0 39 24.5 81t66.5 85t95.5 88t108.5 88q125 98 149 135q20 27 21 78q0 14 -25 15q-25 0 -56.5 -20.5t-65 -45.5t-65 -45t-56.5 -20q-14 0 -31.5 11t-33 28.5t-26 38t-10.5 38.5q0 49 46 101.5t110.5 96.5t132.5 71.5t109 27.5q88 0 154.5 -43t66.5 -117 q0 -164 -82 -270q-41 -49 -143 -147q-25 -23 -59 -50.5t-63.5 -58.5t-51 -60.5t-21.5 -56.5q0 -25 31 -24q86 0 195.5 61.5t221.5 126.5q29 0 45.5 -20.5t16.5 -48.5q0 -57 -63.5 -124t-148.5 -123.5t-171 -94t-133 -37.5q-115 0 -197 63q-92 72 -92 172z" />
<glyph unicode="&#xe4;" horiz-adv-x="827" d="M18 287q0 129 54 270q20 53 52 110.5t69.5 110.5t78.5 100.5t78 79.5q113 100 203 101q27 0 51.5 -22.5t24.5 -57.5q0 -20 -25.5 -52t-58.5 -67t-68 -68.5t-53 -58.5q-160 -225 -160 -366q0 -45 27.5 -88t75.5 -43q53 0 92 22.5t69.5 63t58 101t60.5 136.5q12 27 24.5 81 t23 114.5t16.5 117t6 84.5q0 135 -49 213q-27 39 -129 127q-37 35 -246 136q-86 41 -119 77q-14 14 -14 50q0 45 28.5 83.5t73.5 38.5q18 0 58 -13t90.5 -35.5t103.5 -50.5t96 -58q127 -90 209 -228q94 -158 94 -342v-39.5t2 -46.5q0 -31 -1 -51t-2 -38.5t-4 -38t-9 -50.5 q-39 -188 -119 -340.5t-207 -259.5q-66 -53 -129 -73.5t-163 -20.5q-51 0 -98.5 23.5t-84.5 63.5t-58.5 93t-21.5 111z" />
<glyph unicode="&#xe5;" horiz-adv-x="841" d="M45 291q0 115 51 251t137 253.5t200 196.5t239 79q82 0 132 -48t50 -126q0 -92 -12 -135q-10 -37 -35 -83t-59.5 -92t-76.5 -87t-87 -66q-59 -35 -122 -68.5t-122 -66.5q4 -25 11 -38t24 -13q88 0 231.5 39t286.5 82q49 0 49 -70q0 -39 -44 -77t-112.5 -71.5 t-150.5 -63.5t-158 -51.5t-136 -33.5t-85 -12q-47 0 -86 29.5t-66.5 73.5t-43 97.5t-15.5 100.5zM322 477q35 16 69.5 41t71.5 53q27 20 48 41t42 41q45 47 62.5 67.5t17.5 65.5q-8 18 -18.5 33t-22.5 15q-57 0 -109.5 -57.5t-97.5 -149.5q-14 -29 -29.5 -66t-33.5 -84z" />
<glyph unicode="&#xe6;" horiz-adv-x="2007" d="M-12 195q0 29 36.5 54t93 54t122 62.5t122 80t93.5 106.5t37 142q0 37 -12.5 61.5t-43.5 24.5q-78 0 -132 -41t-107 -88q-41 0 -61.5 27t-20.5 59q0 76 114 185q133 127 281 127q98 0 158.5 -71t60.5 -177q0 -43 -13.5 -92.5t-15.5 -57.5q29 23 55.5 44.5t47.5 41.5 q47 43 71.5 65.5t26.5 24.5q20 16 45 47t58 74q115 160 137 160q61 0 77.5 -42t16.5 -110q0 -35 -17.5 -106.5t-41 -150t-47 -151.5t-35.5 -106q35 37 96 94.5t128.5 119t131 115.5t100.5 85q84 68 174.5 114t173.5 46q49 0 97.5 -32t48.5 -87q0 -82 -39 -99.5t-129 -17.5 q-61 0 -119.5 -47t-102.5 -113.5t-72 -140t-28 -127.5q0 -31 24 -57.5t67 -26.5q55 0 116.5 9.5t124.5 31.5q59 23 120.5 45.5t121.5 44.5q37 0 45 -23.5t8 -47.5q0 -57 -201 -174q-223 -129 -415 -129q-98 0 -164 69.5t-66 173.5q0 6 2 35t6.5 63.5t8.5 72.5t6 63 q-94 -119 -169 -208t-132 -153q-121 -133 -156 -133q-57 0 -96 23.5t-39 77.5q0 31 23.5 105.5t55.5 161.5t66.5 170t55.5 130q-27 -20 -81.5 -73.5t-114.5 -113t-114 -112.5t-79 -76q-88 -135 -218.5 -214t-269.5 -79q-18 0 -35.5 18.5t-33 46t-24.5 60.5t-9 62z" />
<glyph unicode="&#xe7;" horiz-adv-x="800" d="M-379 -430q0 12 18.5 36.5t44 50.5t54.5 44t51 18q25 0 54.5 -55t64.5 -120.5t73.5 -121t84.5 -55.5q37 0 85 27.5t95 69.5t87 90.5t64 87.5q94 158 95 354q0 139 -68 203q-51 47 -162 63q-53 6 -69.5 31.5t-16.5 79.5q0 61 14.5 90t63.5 41q319 82 319 217 q0 47 -23.5 92t-72.5 45q-94 0 -170 -50t-151 -101q-37 0 -51.5 21.5t-14.5 57.5q0 61 37 119t98.5 102t139 70.5t161.5 26.5q158 0 248 -109q74 -92 74 -213q0 -180 -154 -288q-106 -74 -268 -101q184 -49 254 -155q61 -92 61 -242q0 -135 -58 -288.5t-156.5 -284 t-229.5 -215.5t-277 -85q-80 0 -151.5 42t-126.5 106.5t-88 143.5t-33 155z" />
<glyph unicode="&#xe8;" horiz-adv-x="1161" d="M37 86q0 70 61 274q23 76 37.5 123t18.5 64q72 233 141 348q90 145 192 145q27 0 49.5 -24.5t22.5 -42.5q-8 -74 -37.5 -142.5t-62.5 -138t-62.5 -139.5t-38.5 -145v-31q0 -41 39 -41q29 0 75 36t99.5 86t106.5 105t92 94q66 190 154 277q63 63 137 63q39 0 57.5 -26.5 t18.5 -69.5q0 -4 -18.5 -63.5t-41 -136t-41 -151.5t-18.5 -112q0 -82 49 -157q25 -39 52.5 -75t54.5 -71q0 -20 -17.5 -48t-44.5 -52.5t-55.5 -42t-52.5 -17.5q-72 0 -120 41t-78 100.5t-45.5 128t-19.5 124.5q-84 -90 -127 -134.5t-45 -46.5q-51 -49 -99 -85.5t-93 -63.5 q-113 -63 -225 -64q-51 0 -83 34t-32 77z" />
<glyph unicode="&#xe9;" horiz-adv-x="1167" d="M37 86q0 70 61 274q23 76 37.5 123t18.5 64q72 233 141 348q90 145 192 145q27 0 49.5 -24.5t22.5 -42.5q-8 -74 -37.5 -142.5t-62.5 -138t-62.5 -139.5t-38.5 -145v-31q0 -41 39 -41q29 0 75 36t99.5 86t106.5 105t92 94q66 190 154 277q63 63 137 63q39 0 57.5 -26.5 t18.5 -69.5q0 -4 -18.5 -63.5t-41 -136t-41 -151.5t-18.5 -112q0 -82 49 -157q25 -39 52.5 -75t54.5 -71q0 -20 -17.5 -48t-44.5 -52.5t-55.5 -42t-52.5 -17.5q-72 0 -120 41t-78 100.5t-45.5 128t-19.5 124.5q-84 -90 -127 -134.5t-45 -46.5q-51 -49 -99 -85.5t-93 -63.5 q-113 -63 -225 -64q-51 0 -83 34t-32 77zM655.5 1501q6.5 45 38 76t94.5 31q29 0 56.5 -27t54.5 -57.5t49.5 -57t38.5 -26.5q68 0 143.5 22.5t155.5 73.5q18 12 39 12q41 0 41 -51q0 -53 -55.5 -100t-130 -83t-150.5 -57.5t-119 -21.5q-133 0 -202 88q-31 37 -45.5 85t-8 93 z" />
<glyph unicode="&#xea;" horiz-adv-x="1067" d="M53 131q0 57 12.5 142t32 174.5t42 172t40.5 138.5q12 37 31.5 88t41 97t44 78t41.5 34q23 2 51.5 -6.5t54 -22.5t43 -34.5t15.5 -43.5q-2 -18 -16.5 -72.5t-36 -129t-49 -164.5t-58.5 -179q51 68 102.5 131.5t102.5 120.5q135 156 233 246q123 111 183 111q49 0 59 -29 t10 -104q0 -102 -65 -146q-68 -45 -112 -70.5t-87 -68.5l-14 -14t-37 -39q12 -45 39.5 -88t70.5 -76q37 -27 86.5 -56.5t95.5 -57t77.5 -51.5t31.5 -40q4 -18 -13.5 -47t-46 -55.5t-62 -46t-64.5 -19.5q-47 0 -103.5 29.5t-113 77t-106.5 105.5t-83 118q-98 -113 -190 -193 q-133 -115 -205 -114q-39 0 -58.5 32.5t-19.5 71.5z" />
<glyph unicode="&#xeb;" horiz-adv-x="1032" d="M-10 86q0 27 6 62.5t17.5 69.5t24.5 58.5t28 28.5q2 0 18 -2t36.5 -5l41 -6t33.5 -3q29 0 70.5 38t84.5 93t83 117.5t63 111.5q18 37 40.5 84t49 92t55.5 79t61 44q119 39 199 39q45 0 55.5 -27.5t10.5 -97.5q0 -20 -9.5 -91t-19.5 -152.5t-19.5 -152.5t-9.5 -91 q0 -18 18.5 -54t41 -73t40 -70t15.5 -47q-4 -16 -24.5 -40.5t-47 -47.5t-53.5 -38t-41 -15q-59 0 -98 38t-60.5 90t-29.5 108.5t-8 95.5q0 166 30 313q-78 -156 -129 -252q-47 -88 -82 -150.5t-61 -97.5q-57 -80 -118.5 -112.5t-133.5 -32.5q-29 0 -60.5 7t-57 20.5t-43 31 t-17.5 37.5z" />
<glyph unicode="&#xec;" horiz-adv-x="1658" d="M14 100q0 27 5.5 63t15.5 67.5t26.5 53t40.5 21.5q4 0 21.5 -3t39 -5t41 -5t27.5 -3q29 0 71 38t86 93t84 117.5t65 111.5q76 141 131 223q43 66 74.5 96.5t54 43t37 12.5h26.5t35 -4t37 -4q27 0 54.5 -41t27.5 -92q0 -16 -10.5 -87t-24.5 -156t-27.5 -166t-19.5 -116 q201 309 323 476q135 182 185 182q41 0 67.5 -23.5t26.5 -72.5q0 -18 -4 -53.5t-8 -76t-8.5 -81.5t-4.5 -72q0 -12 -1 -35.5t-1 -50.5t-1 -49.5t-1 -28.5v-76q2 -37 23.5 -70.5t46 -64.5t44 -60.5t19.5 -56.5q0 -18 -12 -50t-30.5 -62.5t-41 -52t-45.5 -21.5q-80 0 -142 39 t-95 106q-25 55 -33 124t-8 163v37q-51 -63 -102.5 -129t-102.5 -127q-166 -190 -264 -190q-51 0 -81 35.5t-30 82.5l60 375l6 36t10 50.5t12 50t11 31.5q-37 -74 -71 -138.5t-67 -119.5q-70 -125 -120 -200.5t-95 -117.5t-89 -57.5t-101 -19.5q-25 0 -58.5 8t-63.5 22.5 t-50.5 35t-20.5 44.5z" />
<glyph unicode="&#xed;" horiz-adv-x="1097" d="M-18 418q0 43 53 82.5t137 68.5q12 39 39 119t60.5 160t72.5 141.5t74 65.5q20 2 49 -6.5t53.5 -22.5t41 -34.5t11.5 -43.5q0 -2 -15 -43t-34.5 -93t-38 -100t-24.5 -65q102 18 197.5 30.5t154.5 12.5q23 72 47.5 135.5t52.5 122.5q23 49 76 80t92 31q37 0 48.5 -18.5 t11.5 -57.5v-55q-23 -86 -46.5 -176t-42 -169t-30.5 -140.5t-12 -88.5q0 -31 9 -62.5t19.5 -59t17.5 -49t5 -29.5q-2 -14 -22.5 -40t-50.5 -50.5t-61.5 -42t-56.5 -17.5q-31 0 -56.5 21.5t-43.5 54.5t-28.5 73t-10.5 78q0 80 21 183q-55 12 -115 12q-49 0 -108.5 -10 t-159.5 -33q-6 -23 -8.5 -72t-11.5 -103t-31.5 -105.5t-69.5 -77.5q-57 -33 -117 -33q-37 0 -54.5 34.5t-17.5 71.5q0 57 12.5 108.5t30.5 123.5q-55 0 -87.5 21.5t-32.5 66.5z" />
<glyph unicode="&#xee;" horiz-adv-x="917" d="M14 221q0 133 60 295q47 129 100 203q133 188 217 258q66 53 117 53q25 0 52.5 -23.5t27.5 -52.5q0 -43 -51.5 -121.5t-114 -170t-113.5 -182.5t-51 -158q0 -41 25.5 -71t74.5 -30q115 0 207 144q84 133 84 264q0 18 -7 51t-15.5 69.5t-15.5 71.5t-7 56q0 51 46 81.5 t115 48t149.5 22.5t148.5 5q41 0 71.5 -13t30.5 -34q0 -41 -32.5 -78t-69.5 -41q-18 -4 -47 -11t-61.5 -15t-61.5 -14.5t-47 -6.5q16 -23 26.5 -36t15.5 -27.5t7 -33.5t2 -52q0 -184 -100 -346q-80 -131 -228 -254q-66 -55 -125 -76t-165 -21q-117 0 -191 62.5t-74 183.5z " />
<glyph unicode="&#xef;" horiz-adv-x="1052" d="M27 111q0 94 18 205.5t48 225t67 219t76 185.5q49 102 83 107q20 2 50 -6.5t56 -23.5t43 -35.5t15 -43.5q-4 -45 -23.5 -119.5t-45 -155.5t-51 -158t-39.5 -126q94 127 208 258q70 80 128.5 142.5t109.5 107.5q125 113 186 113q49 0 59.5 -29t10.5 -105q0 -20 -8 -91.5 t-19.5 -154.5t-19.5 -155t-8 -92q0 -29 4 -63.5t51 -127.5q18 -39 16 -57q-4 -14 -24.5 -39.5t-48 -50.5t-58 -42t-55.5 -17q-45 0 -76.5 33.5t-51 81.5t-28 100.5t-8.5 87.5q0 53 10.5 120.5t26.5 153.5q-37 -51 -80 -106.5t-94 -112.5q-41 -47 -79 -87t-70 -71 q-121 -113 -146 -127q-78 -53 -151 -53q-39 0 -60.5 35t-21.5 74z" />
<glyph unicode="&#xf0;" horiz-adv-x="983" d="M-100 -541q0 16 18.5 101.5t45 203t57 247.5t56 235.5t41 169t11.5 45.5q12 51 27.5 113.5t34 127t37 127t36.5 115.5q29 80 76 105q29 14 96 14q43 0 57.5 -18.5t14.5 -57.5q0 -35 -10 -86q88 74 141 109q100 63 166 63q125 0 177 -77.5t52 -286.5q0 -199 -194 -453 q-205 -266 -389 -266q-39 0 -91.5 22.5t-97.5 53.5q-12 -45 -21.5 -120t-19.5 -161t-25.5 -175t-38 -161t-56 -118t-83.5 -46q-76 0 -97 48.5t-21 125.5zM307 240q10 20 31.5 35.5t46.5 15.5q20 -2 47 -28.5t62 -26.5q49 0 98 54t88 128t62.5 147.5t23.5 110.5q0 84 -6 106 q-12 41 -51 41q-125 0 -201 -104q-20 -27 -50 -88.5t-58.5 -133t-54.5 -142t-38 -115.5z" />
<glyph unicode="&#xf1;" horiz-adv-x="823" d="M43 227q0 39 12.5 91.5t31.5 105.5t43 104.5t48 85.5q61 88 126 161t134 132q168 141 305 142q59 0 106.5 -32t47.5 -87q0 -41 -22.5 -61.5t-53 -31t-64.5 -13.5t-57 -9q-63 -16 -128.5 -72.5t-118 -130t-86 -153.5t-33.5 -146q0 -51 47 -51q39 0 94 21.5t116.5 52.5 t122 65.5t107.5 59.5q45 0 63.5 -25.5t18.5 -60.5q0 -86 -182 -228q-223 -170 -479 -170q-104 0 -151.5 69t-47.5 181z" />
<glyph unicode="&#xf2;" horiz-adv-x="1630" d="M41 100q10 45 18.5 80t16.5 62q14 57 35.5 127.5t42.5 152.5q20 84 36.5 171t38.5 171q49 180 177 180q70 0 69 -79q0 -16 -3 -44t-3 -34q0 -8 -11.5 -65.5t-27.5 -132.5t-32.5 -150.5t-26.5 -120.5q8 0 38.5 31.5t72.5 80t88 104.5t84 104t64 81l27 33q139 154 203 154 q18 0 38 -14.5t35 -36t25.5 -44t10.5 -39.5q0 -2 -15.5 -73.5t-35 -160.5t-37 -167t-19.5 -94q41 51 83 103t83 104q141 174 240 282q131 143 170 144q39 0 64.5 -23.5t25.5 -71.5q0 -35 -25 -92q-29 -70 -45 -120t-25.5 -96t-11.5 -95t-2 -117q0 -39 17.5 -70.5t39 -60 t39 -55.5t17.5 -55q0 -23 -13.5 -53.5t-35 -59.5t-44.5 -49.5t-46 -20.5q-78 0 -136.5 38t-87.5 104q-12 31 -16 67.5t-4 83.5q0 31 2 87.5t2 76.5q-53 -63 -107.5 -125.5t-109.5 -124.5q-88 -96 -158.5 -142t-113.5 -46q-49 0 -76 36.5t-27 82.5l88 366q2 8 8.5 31.5 t12.5 49.5t12 49.5t10 31.5q-16 -16 -149 -207q-70 -100 -131.5 -178t-112.5 -135q-152 -164 -237 -164q-57 0 -83 45t-26 102z" />
<glyph unicode="&#xf3;" horiz-adv-x="1001" d="M-180 -498q0 10 15 31t38 42.5t48.5 38.5t47.5 19q6 0 39 -47t77 -104t92 -105.5t85 -48.5q92 0 166 140q25 45 50.5 120.5t50 162.5t47 176t40.5 161q10 41 19.5 77t21 75t26 85t34.5 107q-14 -14 -59.5 -59t-120.5 -123q-129 -131 -197 -184q-113 -84 -188 -84 q-57 0 -88 55t-31 123q0 35 10 110.5t29.5 168.5t47 192.5t64.5 181.5t82 135t96 53q39 0 65 -31.5t26 -70.5q0 6 -12.5 -33t-31 -100t-40 -135t-40 -135.5t-30.5 -100.5t-12 -30q0 -37 8 -60.5t39 -23.5t76 38.5t95 100t102 135.5t96.5 142.5t76 124t41.5 77.5 q20 41 60.5 68.5t79.5 27.5q41 0 56 -15t15 -62q0 -154 -90 -515q-31 -121 -61.5 -227t-59.5 -194q-23 -72 -44 -145t-44 -144q-41 -127 -92 -229.5t-102 -176.5q-145 -207 -312 -207q-121 0 -258 129q-150 141 -149 293z" />
<glyph unicode="&#xf4;" horiz-adv-x="1509" d="M-2 240v53q0 92 15.5 163.5t72.5 157.5q117 170 264 287q170 133 326 133q49 0 80 -39q19 -20 35 -73q6 20 23 77.5t37.5 121t39 119.5t24.5 77q27 82 78 106q27 14 94 15q33 0 45.5 -14.5t12.5 -39.5v-9t-4 -26.5t-17.5 -66.5t-38.5 -131q-43 -147 -73 -240 q53 33 97 54.5t77 35.5q80 33 153 33q100 0 164 -82q74 -92 74 -243q0 -199 -195 -453q-205 -266 -391 -266q-39 0 -93 25.5t-112 60.5q-25 -88 -61 -252q-14 -63 -24.5 -102t-16.5 -67t-8 -51.5t-2 -56.5q0 -27 8 -67.5t8 -67.5q0 -61 -48 -115.5t-124 -54.5 q-72 0 -96.5 45t-24.5 129q0 18 16.5 85t41 156t53.5 187.5t53.5 180t39.5 133t13 45.5q-90 -96 -163 -148q-96 -66 -179 -65q-113 0 -193.5 72.5t-80.5 177.5zM236 350q0 -51 33.5 -80.5t80.5 -29.5q23 0 58.5 21.5t78.5 55t90.5 76.5t96.5 88q16 74 30.5 135t45.5 170 q-23 -23 -44.5 -25.5t-40 3.5t-34 14t-27.5 8q-84 0 -221 -147q-147 -160 -147 -289zM848 240q12 20 32.5 35.5t47.5 15.5q18 -2 44.5 -28.5t61.5 -26.5q51 0 100.5 54t88.5 126.5t62.5 146.5t23.5 113q0 70 -11.5 90t-54.5 20q-37 0 -81 -23.5t-87 -65.5t-81 -97t-64 -121 q-16 -41 -40 -113.5t-42 -125.5z" />
<glyph unicode="&#xf5;" horiz-adv-x="991" d="M-8 2q0 43 32.5 97.5t88 118t129 137l157.5 157.5q-78 117 -211 250q-4 4 -25.5 17.5t-46 32.5t-45 43t-20.5 46q0 16 17.5 42t44 50.5t56.5 42t54 17.5q72 0 160 -80t207 -254q106 113 173.5 179.5t94.5 88.5q106 88 166 88q35 0 61.5 -24.5t26.5 -49.5q0 -37 -46 -97 t-109.5 -124.5t-133 -127t-114.5 -105.5q20 -37 42.5 -74t45.5 -72q55 -86 86 -86q57 6 73.5 -28.5t16.5 -100.5q0 -90 -68 -143q-59 -47 -135 -47q-20 0 -61 46t-83 104.5t-76 110.5t-42 65q-47 -47 -81 -80t-52 -54q-84 -90 -90 -127q-18 -90 -55 -141t-119 -51 q-53 0 -86 40t-33 93z" />
<glyph unicode="&#xf6;" horiz-adv-x="1144" d="M27 82q0 78 25.5 192.5t58.5 245.5q25 106 52 188.5t56 139.5q74 139 172 139q27 0 50.5 -21.5t23.5 -39.5q0 -66 -37 -160q-10 -27 -24.5 -64.5t-26.5 -74.5t-22.5 -66t-12.5 -39q-29 -102 -29 -137v-27q0 -39 41 -39q29 0 72 31t93 78t102.5 101.5t97.5 103.5 q49 180 112 256q49 57 111 57q35 0 56.5 -25.5t21.5 -64.5q0 -68 -27 -166q-2 -8 -16 -55t-41 -133q-16 -57 -33.5 -120t-17.5 -103q-2 -6 -2 -27q0 -55 32 -55q6 0 24.5 4t41.5 9t47.5 9t38.5 4q45 0 73.5 -30.5t28.5 -71.5q0 -5 -4 -25q-47 -133 -72.5 -218t-25.5 -132 q-2 -8 -2 -16.5v-12.5q0 -23 8 -61.5t4 -61.5q-6 -68 -50 -117.5t-112 -49.5q-72 0 -93 43t-21 120q0 31 10 83.5t28.5 112.5t42 124.5t50.5 120.5q-37 -23 -93.5 -37t-108.5 -11t-90 28.5t-38 84.5q0 47 17.5 117t27.5 115q-182 -209 -219 -240q-129 -111 -283 -111 q-43 0 -80.5 32t-37.5 73z" />
<glyph unicode="&#xf7;" horiz-adv-x="882" d="M68 590q0 37 6 76q4 23 22.5 83t46 123.5t60.5 112.5t63 49q37 0 74 -32.5t37 -75.5q0 -45 -27.5 -111.5t-46 -127t-9.5 -103.5t83 -43q35 0 59.5 6t48 20.5t52 38t71.5 60.5q23 63 49 135q10 23 24.5 54.5t33.5 70.5q25 49 79 78.5t93 29.5q29 0 41 -12t16 -30.5t2 -42 t-2 -46.5q-63 -193 -104 -348q-47 -172 -47 -225q0 -27 8 -58.5t17 -60.5t15.5 -50.5t4.5 -31.5q-4 -12 -27 -36.5t-53.5 -49.5t-62 -43t-56.5 -18q-31 0 -55.5 20.5t-42 52t-25.5 69.5t-8 75q0 39 8 88t21 104q-94 -53 -158 -73.5t-113 -20.5q-33 0 -67.5 17.5t-62 42 t-45 53t-17.5 53.5q0 31 -3 78t-3 49z" />
<glyph unicode="&#xf8;" horiz-adv-x="1722" d="M27 82q0 78 25.5 192.5t58.5 245.5q25 106 52 188.5t56 139.5q74 139 172 139q27 0 50.5 -21.5t23.5 -39.5q0 -66 -37 -160q-10 -27 -24.5 -64.5t-26.5 -74.5t-22.5 -66t-12.5 -39q-29 -102 -29 -137v-27q0 -39 41 -39q33 0 77 31t94 80t107.5 110.5t117.5 127.5 q45 145 102 225q66 90 145 90q27 0 49.5 -22.5t22.5 -40.5q0 -43 -25.5 -118t-46.5 -134q-18 -53 -30.5 -90t-18.5 -60q-29 -98 -28 -135v-29q0 -20 8 -30.5t33 -10.5t66.5 34t89.5 81t96.5 100.5t80.5 89.5q45 176 127 263q57 61 127 61q35 0 55.5 -26.5t20.5 -65.5 q0 -2 -13.5 -56.5t-27.5 -123t-27.5 -136t-13.5 -98.5q0 -39 11.5 -82t39.5 -82q29 -39 58.5 -75.5t58.5 -73.5q0 -20 -15.5 -46t-37 -49.5t-47 -39t-47.5 -15.5q-70 0 -118 38t-81 93.5t-51.5 120t-28.5 119.5l-95 -105t-59 -63q-92 -92 -174 -141q-100 -57 -208 -58 q-43 0 -79 30t-36 69q0 45 8 92q4 12 37 182q-182 -207 -234 -250q-145 -123 -299 -123q-43 0 -80.5 32t-37.5 73z" />
<glyph unicode="&#xf9;" horiz-adv-x="1689" d="M10 100q0 47 17 142q2 8 17 81.5t46 213.5q49 213 113 329q74 139 172 140q27 0 49 -22.5t22 -41.5q0 -43 -25.5 -115.5t-45.5 -134.5q-14 -35 -27.5 -72.5t-23.5 -76.5q-29 -102 -29 -137q0 -43 5 -55.5t38 -12.5q68 0 147.5 84t216.5 229q20 78 46 139.5t55 108.5 q70 106 147 107q27 0 50.5 -21.5t23.5 -42.5q0 -47 -24.5 -118.5t-49.5 -131.5q-47 -150 -47 -149q-29 -104 -29 -137v-27q0 -20 8.5 -30.5t32.5 -10.5q29 0 68 26.5t86 70.5t100.5 100.5t110.5 115.5q47 180 111 258q49 57 112 58q35 0 55.5 -27t20.5 -66q0 -37 -6 -73.5 t-19.5 -89t-35 -125t-52.5 -178.5q-23 -74 -24 -113q-2 -33 7 -57.5t28 -24.5q16 0 59 14.5t88 14.5t75 -30t30 -71q0 -4 -1.5 -11t-3.5 -17q-41 -131 -70.5 -222.5t-29.5 -128.5q0 -35 8 -73.5t8 -53.5q0 -16 -8 -46.5t-26.5 -63.5t-50 -56.5t-78.5 -23.5q-74 0 -94.5 42 t-20.5 122q0 57 35 173t96 269q-90 -51 -209 -51q-53 0 -89 26.5t-36 86.5q0 43 8 82q0 6 39 149q-182 -205 -219 -235q-131 -113 -282 -113q-43 0 -80 30.5t-37 73.5q0 35 12 108t29 136q-94 -104 -148.5 -162.5t-70.5 -72.5q-131 -113 -283 -113q-43 0 -80 30.5t-37 73.5z " />
<glyph unicode="&#xfa;" horiz-adv-x="1060" d="M49 956q0 43 19.5 71t81.5 28q45 0 95 -30t105 -30q10 0 48 20.5t81 45t81 45t48 20.5q39 0 62.5 -19.5t23.5 -51.5q0 -12 -11 -61.5t-26.5 -108t-30 -112.5t-22.5 -81q68 47 137.5 66.5t149.5 19.5q39 0 70.5 -20.5t53 -52t33 -71.5t11.5 -79q0 -205 -125 -348 q-47 -57 -112.5 -102.5t-147.5 -79.5q-129 -53 -209 -54q-43 0 -88 17.5t-80 46t-57.5 66.5t-22.5 79q0 23 14.5 72t32 104.5t34.5 103.5t24 66q12 39 25 83t26.5 84t24 73t16.5 51q-39 -12 -98.5 -24.5t-98.5 -12.5q-102 0 -135 45t-33 131zM489 295q0 -35 26 -58.5 t89 -23.5q33 0 70 23.5t67.5 57.5t51 74t20.5 72q0 72 -21.5 103.5t-68.5 31.5q-37 0 -93.5 -26.5t-82.5 -56.5q-20 -57 -39 -112.5t-19 -84.5z" />
<glyph unicode="&#xfb;" horiz-adv-x="1406" d="M27 229q0 119 36 248q6 23 40 111t98 239q39 88 100 147.5t148 59.5q27 0 45 -38t18 -66q0 -20 -23 -70q-39 -86 -64.5 -143.5t-35.5 -83.5q-14 -35 -26.5 -73t-22.5 -77q-35 -123 -35 -176q0 -49 44 -63.5t100 -14.5q41 0 74.5 19.5t58 51.5t39 72t14.5 83q-6 -2 -23 -2 q-51 0 -84.5 43t-33.5 92q0 35 13 70.5t35.5 65.5t54.5 49.5t67 19.5q129 0 180 -86q78 29 171 90t169 133q47 45 86 67.5t88 22.5q37 0 54.5 -33t17.5 -76q0 -23 -20.5 -101.5t-44.5 -168.5t-44.5 -170t-20.5 -102q0 -20 14.5 -42t32 -42.5t32 -40t14.5 -37.5 q0 -20 -14.5 -60.5t-37 -80t-49 -69.5t-53.5 -30q-49 0 -87 24.5t-62.5 65.5t-38 93.5t-13.5 107.5q0 90 20.5 177t59.5 227q2 2 -28.5 -19.5t-72.5 -49.5t-83 -56.5t-57 -42.5q0 -66 -15.5 -127.5t-46.5 -137.5q-49 -123 -174 -192.5t-307 -69.5q-45 0 -98.5 23.5 t-99.5 60.5t-77.5 84t-31.5 94z" />
<glyph unicode="&#xfc;" horiz-adv-x="897" d="M39 178q0 94 35 211q8 29 24.5 71t36 89t37.5 93t31 81q53 145 104 238q25 47 59.5 70.5t88.5 23.5q43 0 64.5 -13.5t21.5 -58.5q0 -20 -13.5 -57t-32 -79t-39 -83t-34.5 -72q68 47 137.5 66.5t149.5 19.5q41 0 71.5 -20.5t52 -52t33 -71.5t11.5 -79q0 -205 -125 -348 q-47 -57 -113 -102.5t-147 -79.5q-129 -53 -209 -54q-43 0 -87 17.5t-79 46t-56.5 65.5t-21.5 78zM307 295q0 -35 25.5 -58.5t89.5 -23.5q33 0 69.5 23.5t67.5 57.5t51.5 74t20.5 72q0 72 -21.5 103.5t-68.5 31.5q-37 0 -93.5 -26.5t-82.5 -56.5q-20 -57 -39 -112.5 t-19 -84.5z" />
<glyph unicode="&#xfd;" horiz-adv-x="954" d="M51 111q0 68 21.5 120t81.5 52q55 0 108 -31t117 -31q100 0 169 47.5t120 139.5l-189 -5q-92 0 -145 -18q-12 -4 -23 -10q-61 0 -97 20.5t-36 65.5q0 53 37 85t97.5 49t134 22.5t147.5 5.5q57 0 81.5 -16.5t51.5 -43.5q10 39 20.5 70t4.5 53q0 76 -34 117t-110 41 q-61 0 -121.5 -17.5t-124.5 -35.5q-47 0 -71.5 26.5t-24.5 59.5q0 31 31 63.5t84 59t120.5 44t141.5 17.5q160 0 242 -107q80 -102 80 -256q0 -92 -19.5 -191t-58.5 -171q-88 -162 -225.5 -265.5t-282.5 -103.5q-49 0 -106.5 7.5t-106.5 23.5t-82 44t-33 69z" />
<glyph unicode="&#xfe;" horiz-adv-x="1449" d="M0 383q0 47 47 85t133 69q10 45 33 125.5t52.5 159.5t62 137.5t63.5 60.5q20 4 49 -4t55.5 -23.5t44 -35t13.5 -42.5q0 -10 -10.5 -47t-24.5 -83t-29.5 -93t-25.5 -78q76 14 126 18.5t97 4.5h29q8 14 29.5 48t25.5 38q127 182 270 281q106 74 168 73q27 0 52.5 -23.5 t25.5 -52.5q0 -39 -46 -84t-95 -83q-86 -80 -176 -222q-115 -182 -115 -286q0 -45 24.5 -73t75.5 -28q113 0 205 144q84 133 84 264q0 12 -7 37.5t-14.5 53.5t-14.5 53.5t-7 39.5q-4 33 19.5 58.5t78.5 27.5q25 8 54.5 -8t56.5 -40t47.5 -47.5t24.5 -29.5q10 -25 10 -102 q0 -186 -98 -346q-39 -59 -95.5 -125t-132.5 -129q-63 -53 -126.5 -73.5t-166.5 -20.5q-115 0 -189.5 62t-74.5 181q0 33 4.5 81t10.5 87l-232 -43q-6 -27 -10 -66.5t-7 -78.5t-5 -69t-2 -40q-10 -63 -66.5 -100t-120.5 -37q-37 0 -58.5 35t-21.5 72q0 92 27 231 q-57 0 -92 21.5t-35 64.5z" />
<glyph unicode="&#xff;" horiz-adv-x="1060" d="M-23 154q6 25 20.5 54.5t33 55t39 42t34.5 16.5q12 0 37 -8.5t48.5 -18.5t43 -18.5t23.5 -8.5q51 0 115.5 50.5t122.5 109.5q-43 8 -83 33.5t-69 62.5t-46 82t-17 90q0 16 3 37t5 33q10 43 46 83t85 73.5t105.5 58.5t105.5 39q88 25 154.5 35t131.5 10q33 0 69 -3t77 -5 q31 0 53.5 -38t15.5 -75q-2 -29 -22.5 -48t-44.5 -28q-14 -45 -34.5 -124.5t-39 -164.5t-32 -163t-13.5 -119t25.5 -82t25.5 -80q0 -20 -29.5 -43.5t-68.5 -45t-76 -36t-51 -14.5q-51 0 -73.5 57.5t-22.5 130.5q0 82 31 205q-25 -33 -59 -70.5t-70.5 -76.5t-72.5 -75 t-67 -63q-72 -61 -122 -84.5t-119 -23.5q-33 0 -73 16.5t-74 41t-55.5 51t-15.5 49.5zM516 676q0 -45 47 -65.5t99 -20.5q23 0 51.5 3t44.5 5l84 256q-16 0 -49 5t-43 5q-35 0 -76 -15t-76 -41t-58.5 -60.5t-23.5 -71.5z" />
<glyph unicode="&#x131;" horiz-adv-x="538" d="M39 184q0 43 20.5 129t49 181.5t62.5 185.5t58 143q94 203 177 203q39 0 58 -35t19 -88q0 -63 -67 -252q-10 -25 -40 -88t-30 -117q0 -18 5 -40.5t12.5 -46t12.5 -42t5 -26.5q0 -37 -31 -107q-80 -180 -207 -180q-66 0 -85 53.5t-19 126.5z" />
<glyph unicode="&#x152;" horiz-adv-x="1683" d="M29 109q0 12 23.5 72.5t53 134t58.5 142t39 93.5q2 20 -18.5 54t-20.5 54q0 43 12 60q2 2 23.5 16.5t62.5 42.5q104 266 158 377q106 223 174 223q31 0 63.5 -32.5t32.5 -71.5q0 -29 -20.5 -92.5t-49 -137t-58.5 -142t-46 -107.5q86 8 217 24q10 2 54 8.5t120 16.5 q61 158 112.5 269.5t92.5 174.5q70 107 123 107q45 0 79 -22.5t34 -67.5q0 -16 -16.5 -66.5t-43 -116t-58.5 -137.5t-61 -133q68 0 131.5 10t120.5 10q55 0 108.5 -25.5t94.5 -70.5t65.5 -105.5t24.5 -127.5q0 -141 -50 -259t-139 -204t-211 -133t-267 -47q-84 0 -163 19.5 t-140.5 51t-98.5 75.5t-37 93q0 29 34 58.5t67 29.5q-8 14 -9 45q0 68 34 136.5t97 187.5q-37 -4 -98 -13.5t-120.5 -17.5t-105.5 -16t-54 -8q-16 -41 -27.5 -70t-19.5 -45q-23 -53 -41 -76q37 -57 38 -65q14 -31 15 -76q0 -41 -22.5 -82t-58.5 -74t-79 -52t-86 -19 q-55 0 -99 37.5t-44 89.5zM911 205q53 -29 101.5 -38t146.5 -9q162 0 236 82q45 51 61 145q0 14 2 30.5t2 24.5q0 193 -192 193q-49 0 -101.5 -3t-72.5 -3q-31 -186 -90 -316q-12 -29 -19.5 -44t-17 -24.5t-21.5 -17.5t-35 -20z" />
<glyph unicode="&#x153;" horiz-adv-x="1488" d="M-18 418q0 43 53 83t137 68q12 39 39 119t60.5 160t72.5 141.5t74 65.5q20 2 49 -6.5t53.5 -22.5t41 -34.5t11.5 -43.5q0 -2 -15 -43t-34.5 -93t-38 -100t-24.5 -65q102 18 197.5 30.5t154.5 12.5q10 25 18.5 46.5t22.5 51t34.5 70.5l51.5 103q25 47 59.5 70.5t87.5 23.5 q43 0 65 -13.5t22 -58.5q0 -20 -13.5 -57t-32 -79t-39 -83t-34.5 -72q68 47 137.5 66.5t148.5 19.5q39 0 71 -20.5t53.5 -52t32.5 -71.5t11 -79q0 -205 -125 -348q-47 -57 -112.5 -102.5t-147.5 -79.5q-129 -53 -209 -54q-43 0 -87 17.5t-78.5 46t-56 65.5t-21.5 78 q0 139 41 252q-37 0 -68 -2t-67.5 -6t-85.5 -14.5t-123 -24.5q-6 -23 -8.5 -72t-11.5 -103t-31.5 -105.5t-69.5 -77.5q-57 -33 -117 -33q-37 0 -54.5 34.5t-17.5 71.5q0 57 12.5 108.5t30.5 123.5q-55 0 -87.5 21.5t-32.5 66.5zM940 295q0 -35 25.5 -58.5t89.5 -23.5 q33 0 69.5 23.5t67.5 57.5t51.5 74t20.5 72q0 72 -21.5 103.5t-68.5 31.5q-37 0 -93.5 -26.5t-83.5 -56.5q-20 -57 -38.5 -112.5t-18.5 -84.5z" />
<glyph unicode="&#x160;" horiz-adv-x="1605" d="M-63 158q0 47 44 63.5t89 30.5q51 18 100 64t96 111t90 140.5t82 153.5q61 125 122 249t126 247q70 127 136.5 189t119.5 62q82 0 111.5 -39.5t29.5 -121.5v-35q0 -49 -5 -125t-11 -148.5t-11 -127t-5 -60.5q35 18 61.5 29.5t54 16.5t59.5 7t77 2q117 0 233 -98 q129 -109 129 -240q0 -289 -148.5 -445.5t-435.5 -156.5q-109 0 -186 60q-76 61 -99.5 157.5t-23.5 202.5q0 92 2 138t8 95.5t15.5 126t23.5 230.5q14 158 19 184q-8 -14 -41 -79.5t-88 -180.5l-99 -209q-229 -485 -331 -592q-68 -72 -131 -92q-37 -14 -109 -14 q-53 0 -78.5 62.5t-25.5 142.5zM1030 406q0 -84 22.5 -150t96.5 -66q121 0 215 72q111 86 111 242q0 84 -57.5 131t-172.5 47q-16 0 -42.5 -4t-55.5 -8t-57 -8.5t-46 -4.5q0 -70 -7 -135t-7 -116z" />
<glyph unicode="&#x161;" horiz-adv-x="1366" d="M-4 117q0 27 6 62.5t17.5 69.5t24.5 58.5t28 28.5q2 0 18 -2t36.5 -5t41 -6.5t33.5 -3.5q25 0 79 43.5t114.5 102.5t111.5 120.5t69 100.5q18 37 41 84t49.5 92t55.5 79t61 44q63 20 106.5 26.5t100.5 6.5q43 0 64.5 -13.5t21.5 -58.5q0 -20 -13 -57t-31.5 -79t-39 -83 t-35.5 -72q68 47 137.5 66.5t149.5 19.5q39 0 71 -20.5t53.5 -52t32.5 -71.5t11 -79q0 -205 -125 -348q-47 -57 -112.5 -102t-147.5 -80q-129 -53 -209 -54q-47 0 -91 16.5t-78 44.5t-55.5 63.5t-21.5 76.5t10.5 91t26 102.5t33.5 101.5t33 88q-33 -51 -60.5 -95t-52.5 -79 q-78 -115 -135 -178q-127 -145 -252 -146q-29 0 -60.5 7.5t-57 20.5t-43 30.5t-17.5 38.5zM842 258q0 -35 25.5 -58.5t88.5 -23.5q33 0 70 23.5t67.5 57.5t51 74t20.5 72q0 72 -21.5 104t-68.5 32q-37 0 -93 -27t-83 -57q-20 -57 -38.5 -112.5t-18.5 -84.5z" />
<glyph unicode="&#x178;" horiz-adv-x="1161" d="M37 86q0 70 61 274q23 76 37.5 123t18.5 64q72 233 141 348q90 145 192 145q27 0 49.5 -24.5t22.5 -42.5q-8 -74 -37.5 -142.5t-62.5 -138t-62.5 -139.5t-38.5 -145v-31q0 -41 39 -41q29 0 75 36t99.5 86t106.5 105t92 94q66 190 154 277q63 63 137 63q39 0 57.5 -26.5 t18.5 -69.5q0 -4 -18.5 -63.5t-41 -136t-41 -151.5t-18.5 -112q0 -82 49 -157q25 -39 52.5 -75t54.5 -71q0 -20 -17.5 -48t-44.5 -52.5t-55.5 -42t-52.5 -17.5q-72 0 -120 41t-78 100.5t-45.5 128t-19.5 124.5q-84 -90 -127 -134.5t-45 -46.5q-51 -49 -99 -85.5t-93 -63.5 q-113 -63 -225 -64q-51 0 -83 34t-32 77zM422 -524q0 25 22.5 80t48 114.5t48 113.5t22.5 79q0 6 -15.5 22.5t-34.5 36t-34.5 40t-15.5 32.5q0 14 21.5 44t49 60.5t56 54t43.5 23.5q68 0 115 -72t47 -176q0 -172 -131 -346q-115 -154 -179 -153q-16 0 -39.5 17t-23.5 30z " />
<glyph unicode="&#x192;" horiz-adv-x="667" d="M2 223q0 39 24.5 81t66.5 85t95.5 88t108.5 88q125 98 149 135q20 27 21 78q0 14 -25 15q-25 0 -56.5 -20.5t-65 -45.5t-65 -45t-56.5 -20q-14 0 -31.5 11t-33 28.5t-26 38t-10.5 38.5q0 49 46 101.5t110.5 96.5t132.5 71.5t109 27.5q88 0 154.5 -43t66.5 -117 q0 -164 -82 -270q-41 -49 -143 -147q-25 -23 -59 -50.5t-63.5 -58.5t-51 -60.5t-21.5 -56.5q0 -25 31 -24q86 0 195.5 61.5t221.5 126.5q29 0 45.5 -20.5t16.5 -48.5q0 -57 -63.5 -124t-148.5 -123.5t-171 -94t-133 -37.5q-115 0 -197 63q-92 72 -92 172zM326 1274 q0 37 37.5 78t97 81t131.5 75.5t138.5 63t121.5 44t80 16.5q123 0 123 -53q0 -39 -10.5 -80t-31 -74.5t-50 -56t-66.5 -22.5t-90 -15.5t-118.5 -39t-136.5 -53.5t-140 -56q-10 0 -24.5 11t-29 25.5t-23.5 31t-9 24.5z" />
<glyph unicode="&#x2c6;" horiz-adv-x="1112" d="M446 1366q0 33 119 166q20 25 72.5 85t114 122.5t118 112t86.5 49.5q27 0 53.5 -27t50 -60.5t40 -65.5t22.5 -42l68 -86q47 -59 47 -125q0 -57 -45 -102t-109 -45q-70 0 -112.5 49t-112.5 145q-14 -14 -46 -48t-79 -87q-133 -152 -192 -152q-39 0 -67 38t-28 73z" />
<glyph unicode="&#x2dc;" horiz-adv-x="1044" d="M434 1554q0 37 39 93.5t92 109.5t110.5 91t96.5 38q33 0 74 -22.5t88 -48t97 -48t99 -22.5q29 0 58 14.5t43 14.5q33 0 55.5 -17.5t22.5 -54.5q0 -51 -29 -97t-74 -81t-99 -55.5t-106 -20.5q-86 0 -154.5 26.5t-135.5 79.5q-39 -43 -68 -68.5t-98 -25.5q-43 0 -77 26.5 t-34 67.5z" />
<glyph unicode="&#x401;" horiz-adv-x="987" d="M16 59q4 29 123 428q37 127 56.5 204t38 138.5t44 121t76.5 151.5q-47 0 -79.5 20.5t-22.5 63.5q8 43 71.5 83t170 68.5t248 46t307.5 17.5h157q119 -2 119 -53q0 -59 -27.5 -94t-74.5 -53.5t-110.5 -25t-135.5 -6.5q-106 0 -238 -18q-39 -6 -77.5 -12t-77.5 -13 q-23 -78 -46.5 -155.5t-45.5 -155.5q10 0 71.5 7t134 16.5t134 16.5t71.5 7q55 0 90 -7t35 -60q0 -137 -309 -201q-47 -10 -120 -20.5t-173 -20.5l-100 -291q10 4 83.5 16.5t159.5 28t160 26.5t86 11q106 0 141 -18q49 -27 50 -111q0 -164 -148 -164q-53 0 -80 10 q-61 0 -137 -10t-161 -24.5t-174 -34t-175 -37.5q-47 0 -81 34t-34 70zM489 1694q4 6 26 47t55.5 89t58.5 48q53 0 104 -47q43 -41 43 -72q0 -63 -45 -110t-108 -47q-68 0 -101 27.5t-33 64.5zM915 1702q0 8 12.5 39t32 63.5t44 58t47.5 25.5q49 0 94 -45t45 -88 q0 -76 -34 -120t-109 -44q-131 0 -132 111z" />
<glyph unicode="&#x402;" horiz-adv-x="1130" d="M-61 1157q0 123 112 150q49 10 124 24.5t158 28.5t163 26.5t137 20.5q123 16 210 26.5t149.5 16.5t106.5 9t81 3q106 0 153 -34.5t47 -124.5q0 -33 -25.5 -67t-64.5 -61.5t-82 -45t-78 -17.5t-56 10.5t-37.5 23.5t-34 23.5t-44.5 10.5q-25 0 -72.5 -4.5t-95 -10.5 t-81 -10t-29.5 -4q-10 -35 -23.5 -73t-27.5 -79q-35 -100 -62 -155q55 31 147.5 53.5t176.5 22.5q53 0 101 -24t85 -64.5t59.5 -98t22.5 -125.5q0 -123 -43 -252t-122 -234.5t-188.5 -173t-240.5 -67.5q-152 0 -213 68q-49 55 -49 170q0 25 27.5 54.5t60.5 33.5 q43 6 70.5 -7.5t49 -30.5t44.5 -33.5t59 -16.5q162 0 242 137q59 102 59 227q0 127 -36.5 174.5t-135.5 47.5q-141 0 -256 -97q-16 -98 -31.5 -161.5t-45.5 -127.5q-20 -53 -58.5 -103t-75.5 -66q-66 -37 -116.5 0.5t-50.5 125.5q0 76 69 236q23 53 39 89t25 56 q27 61 52 123t50 125l80 203q-219 -45 -363 -45q-47 0 -84.5 24.5t-37.5 69.5z" />
<glyph unicode="&#x403;" horiz-adv-x="817" d="M27 129q0 98 39 240q4 10 22 69.5t44 136t51.5 152.5t43.5 121q27 66 55.5 130t57.5 130q-18 6 -45 14t-51.5 19.5t-42 27t-17.5 37.5q0 47 31 87t83 68t119.5 43t141.5 15q25 0 85.5 5.5t129 11.5t130 11t85.5 5q68 0 111 -6t67.5 -22.5t33.5 -46t9 -79.5 q0 -33 -25.5 -66.5t-64.5 -61t-82 -45t-77 -17.5q-35 0 -55.5 10t-38 22.5t-35 23t-44.5 10.5q-70 0 -124 -12.5t-86 -20.5q-27 -63 -47.5 -120.5t-36.5 -109.5q-23 -68 -43.5 -140.5t-38 -142t-30.5 -132t-22 -107.5q-23 -131 -22 -217q0 -82 -45 -136t-127 -54 q-49 0 -94 45t-45 102zM516 1563q0 55 80 117.5t184.5 116.5t203.5 89t138 35q123 0 123 -53q0 -39 -10 -80t-30.5 -75t-50.5 -56.5t-67 -22.5t-91 -15t-117.5 -39t-135 -52.5t-141.5 -57.5q-10 0 -24.5 11.5t-28.5 26t-23.5 29.5t-9.5 26z" />
<glyph unicode="&#x404;" horiz-adv-x="966" d="M57 324q0 150 95 389q111 287 270 461q199 223 434 223q16 0 61.5 -15.5t92.5 -38t85 -49t38 -51.5q0 -33 -15.5 -65.5t-40 -58t-54.5 -41t-58 -15.5q-6 0 -22.5 10t-38 21.5t-45 21.5t-42.5 10q-174 0 -299 -204q-164 -266 -164 -471q2 -20 5 -35t6 -25q18 -61 47 -61 q2 0 43 14t100 36.5t130 47.5t130 47.5t100 36.5t43 14q43 0 62.5 -27.5t19.5 -109.5q0 -47 -56 -95t-140 -93t-180.5 -84t-176.5 -68q-193 -68 -235 -67q-84 0 -139.5 99t-55.5 243zM432 700q0 61 38 95t93 34q14 0 41 -1t53.5 -3t50 -3t35.5 -1q70 0 131 17q14 2 44 16 q57 0 96 -21.5t39 -64.5q0 -57 -43 -96t-108.5 -63.5t-141.5 -35t-139 -10.5q-96 0 -142.5 24.5t-46.5 112.5z" />
<glyph unicode="&#x405;" horiz-adv-x="1024" d="M68 426q0 63 29.5 120.5t66.5 57.5q70 0 90 -6q45 -14 45 -66q4 -33 43 -79.5t93 -87.5t108.5 -71t89.5 -30q100 0 100 76q0 16 -41 81.5t-91 138.5t-93 132.5t-47 65.5q-96 164 -96 254q0 68 33.5 133t91 116.5t131 83t153.5 31.5t193 -61q129 -70 129 -150 q0 -59 -26 -104t-64 -45q-6 0 -32 16.5t-59.5 37t-68.5 36.5t-60 16q-76 0 -129 -29.5t-53 -95.5q0 -14 23.5 -58t59.5 -99.5t76 -113.5t72.5 -104.5t50 -71t9.5 -11.5q102 -164 102 -242q0 -127 -66.5 -205t-150.5 -78q-96 0 -189 23.5t-188 66.5q-70 31 -131 73t-106 85 t-71.5 86t-26.5 78z" />
<glyph unicode="&#x406;" horiz-adv-x="686" d="M135 145q12 63 21.5 116.5t17.5 92.5q47 240 91 420t93 354q31 113 80 168.5t94 55.5q51 0 74 -43.5t23 -96.5q0 -104 -41 -262q-76 -295 -80 -301q-43 -207 -43 -407q0 -43 -24.5 -80t-58.5 -62.5t-70 -40t-60 -14.5q-47 0 -82 25.5t-35 74.5z" />
<glyph unicode="&#x407;" horiz-adv-x="686" d="M135 145q12 63 21.5 116.5t17.5 92.5q47 240 91 420t93 354q31 113 80 168.5t94 55.5q51 0 74 -43.5t23 -96.5q0 -104 -41 -262q-76 -295 -80 -301q-43 -207 -43 -407q0 -43 -24.5 -80t-58.5 -62.5t-70 -40t-60 -14.5q-47 0 -82 25.5t-35 74.5zM233 1550q4 6 26 47 t55.5 89.5t58.5 48.5q53 0 104 -47q43 -41 43 -72q0 -63 -45 -110.5t-108 -47.5q-68 0 -101 27.5t-33 64.5zM659 1559q0 8 12.5 38.5t32 63.5t44 58.5t47.5 25.5q49 0 94 -45t45 -88q0 -76 -34 -120t-109 -44q-131 0 -132 111z" />
<glyph unicode="&#x408;" horiz-adv-x="1189" d="M-82 426q0 29 22.5 57.5t55.5 52t70.5 39t70.5 15.5q59 0 84 -17.5t25 -42.5q0 -18 -10 -43q-14 -29 18.5 -55t89.5 -50t127 -42t127 -29q33 63 64.5 173t61.5 220.5t54.5 200.5t42.5 115q-53 -10 -99 -16.5t-91 -6.5q-90 0 -135 19q-61 25 -62 86q0 98 116 144t306 46 q20 0 67.5 6.5t108 14.5t127 14t123.5 6q25 0 51.5 -11t49 -28.5t38 -40t15.5 -47.5q0 -80 -47.5 -135t-114.5 -55q-45 0 -100.5 14t-71.5 14q-51 -82 -76 -152.5t-49 -174.5q-23 -102 -42.5 -187.5t-39.5 -150.5q-27 -90 -53.5 -158.5t-53.5 -116.5q-63 -113 -135 -112 q-39 0 -114.5 21.5t-158.5 51t-159 62.5t-112 55q-190 113 -191 244z" />
<glyph unicode="&#x409;" horiz-adv-x="1605" d="M-63 158q0 47 44 63.5t89 30.5q51 18 100 64t96 111t90 140.5t82 153.5q61 125 122 249t126 247q70 127 136.5 189t119.5 62q82 0 111.5 -39.5t29.5 -121.5v-35q0 -49 -5 -125t-11 -148.5t-11 -127t-5 -60.5q35 18 61.5 29.5t54 16.5t59.5 7t77 2q117 0 233 -98 q129 -109 129 -240q0 -289 -148.5 -445.5t-435.5 -156.5q-109 0 -186 60q-76 61 -99.5 157.5t-23.5 202.5q0 92 2 138t8 95.5t15.5 126t23.5 230.5q14 158 19 184q-8 -14 -41 -79.5t-88 -180.5l-99 -209q-229 -485 -331 -592q-68 -72 -131 -92q-37 -14 -109 -14 q-53 0 -78.5 62.5t-25.5 142.5zM1030 406q0 -84 22.5 -150t96.5 -66q121 0 215 72q111 86 111 242q0 84 -57.5 131t-172.5 47q-16 0 -42.5 -4t-55.5 -8t-57 -8.5t-46 -4.5q0 -70 -7 -135t-7 -116z" />
<glyph unicode="&#x40a;" horiz-adv-x="1683" d="M29 109q0 12 23.5 72.5t53 134t58.5 142t39 93.5q2 20 -18.5 54t-20.5 54q0 43 12 60q2 2 23.5 16.5t62.5 42.5q104 266 158 377q106 223 174 223q31 0 63.5 -32.5t32.5 -71.5q0 -29 -20.5 -92.5t-49 -137t-58.5 -142t-46 -107.5q86 8 217 24q10 2 54 8.5t120 16.5 q61 158 112.5 269.5t92.5 174.5q70 107 123 107q45 0 79 -22.5t34 -67.5q0 -16 -16.5 -66.5t-43 -116t-58.5 -137.5t-61 -133q68 0 131.5 10t120.5 10q55 0 108.5 -25.5t94.5 -70.5t65.5 -105.5t24.5 -127.5q0 -141 -50 -259t-139 -204t-211 -133t-267 -47q-84 0 -163 19.5 t-140.5 51t-98.5 75.5t-37 93q0 29 34 58.5t67 29.5q-8 14 -9 45q0 68 34 136.5t97 187.5q-37 -4 -98 -13.5t-120.5 -17.5t-105.5 -16t-54 -8q-16 -41 -27.5 -70t-19.5 -45q-23 -53 -41 -76q37 -57 38 -65q14 -31 15 -76q0 -41 -22.5 -82t-58.5 -74t-79 -52t-86 -19 q-55 0 -99 37.5t-44 89.5zM911 205q53 -29 101.5 -38t146.5 -9q162 0 236 82q45 51 61 145q0 14 2 30.5t2 24.5q0 193 -192 193q-49 0 -101.5 -3t-72.5 -3q-31 -186 -90 -316q-12 -29 -19.5 -44t-17 -24.5t-21.5 -17.5t-35 -20z" />
<glyph unicode="&#x40b;" horiz-adv-x="1239" d="M-61 1157q0 123 112 150q49 10 124 24.5t158 28.5t162.5 26.5t137.5 20.5q123 16 210 26.5t149.5 16.5t106.5 9t81 3q106 0 153 -34.5t47 -124.5q0 -33 -25.5 -67t-64.5 -61.5t-82 -45t-78 -17.5t-56 10.5t-37.5 23.5t-34 23.5t-44.5 10.5q-25 0 -72.5 -4.5t-95 -10.5 t-81 -10t-29.5 -4q-10 -35 -23.5 -73t-27.5 -79q-35 -100 -62 -155q51 29 148.5 44t193.5 15q109 0 157 -69.5t48 -180.5v-39q0 -41 -9 -84t-20.5 -80.5t-21.5 -67.5t-12 -44q-2 -23 -1 -60.5t4 -72.5t6 -58.5t3 -17.5q0 -88 -33 -117.5t-127 -29.5q-27 0 -51.5 13 t-42.5 33.5t-29.5 46t-11.5 48.5q0 39 29 137q23 76 38 123t24 81t13.5 59.5t4.5 58.5q0 66 -33 94.5t-101 28.5q-141 0 -256 -97q-8 -53 -16 -107.5t-16 -107.5q-10 -66 -23.5 -114t-28.5 -76q-20 -53 -58 -103.5t-75 -66.5q-66 -37 -117 0t-51 127q0 72 52 243 q23 76 45 139.5t43 114.5q27 61 52 123t50 125l80 203q-219 -45 -363 -45q-47 0 -84.5 24.5t-37.5 69.5z" />
<glyph unicode="&#x40c;" horiz-adv-x="1269" d="M10 168q0 33 45 147q74 193 117 308.5t57 156.5q106 348 195 496q76 131 164 131q33 0 61.5 -30.5t28.5 -67.5q0 -55 -53 -209q-23 -59 -43.5 -119.5t-40.5 -120.5q2 0 39.5 24.5t95 63.5t125 84l129 86t107.5 72t61 41q199 119 268 119q129 0 129 -129q0 -82 -52 -128 t-143 -59q-31 -2 -93 -32.5t-132.5 -72.5t-138.5 -85t-109 -74q41 -57 83 -113.5t85 -109.5q66 -84 117 -134.5t78 -64.5q47 -20 61.5 -54t14.5 -93q0 -70 -58.5 -116t-138.5 -46q-29 6 -55.5 19.5t-59 44t-71.5 79.5t-88 125q-8 10 -58.5 96t-144.5 244q-35 -23 -53.5 -33 t-69.5 -30q-39 -72 -61.5 -116t-49.5 -101q-12 -31 -12 -66q0 -16 7 -63.5t-1 -71.5q-12 -66 -73.5 -103.5t-133.5 -37.5q-55 0 -95 38.5t-40 104.5zM817 1520q0 37 38 77.5t97.5 80.5t131 76t138 63.5t122 44t79.5 16.5q123 0 123 -53q0 -39 -10 -80t-30.5 -75t-50.5 -56.5 t-66 -22.5q-37 0 -90.5 -15t-119 -39t-136 -53.5t-140.5 -56.5q-10 0 -24.5 11.5t-28.5 26t-23.5 30.5t-9.5 25z" />
<glyph unicode="&#x40e;" d="M84 166q0 25 19.5 41t49 28.5t64.5 21.5t64 19q49 14 80.5 40t55 55.5t42.5 62.5t37 64q-8 14 -34 63t-67 137q-39 76 -70.5 139.5t-60.5 102.5q-31 39 -56.5 65.5t-44 51t-28.5 55.5t-10 76q0 80 45 131t123 51q51 0 115.5 -76.5t130.5 -228.5q41 -96 68.5 -162.5 t41.5 -101.5q37 86 73 173t75 173q61 137 119.5 204.5t97.5 67.5q45 0 85 -30.5t40 -65.5q0 -43 -52 -164q-20 -49 -53 -120.5t-71.5 -154.5t-80.5 -171t-83 -172q-66 -137 -113 -225.5t-72 -127.5q-59 -92 -118 -147q-70 -68 -146 -92q-55 -18 -137 -19q-25 0 -48.5 22.5 t-42 57.5t-28.5 77t-10 79zM356 1679q0 51 31 82t102 31q88 0 122 -42t59 -95q18 -33 55 -33q180 0 328 100q23 14 41 15q45 -1 45 -58q0 -59 -60.5 -111t-142.5 -92t-166 -63.5t-131 -23.5q-143 0 -219 98q-63 82 -64 192z" />
<glyph unicode="&#x40f;" horiz-adv-x="1290" d="M43 100q0 25 22.5 108t53.5 184.5t63.5 205.5t55.5 172q33 109 65.5 220.5t69.5 217.5t89 159.5t103 53.5q31 0 64 -32.5t33 -71.5q0 -12 -12.5 -61.5t-32 -118t-44 -148.5t-47 -154.5t-42 -135t-29.5 -91.5q-10 -35 -23.5 -85t-27 -99t-30 -90t-32.5 -58q20 -2 48 -3 t59 -1q61 0 144 2t177 7q27 76 49.5 139t38.5 115q31 88 50.5 144t27.5 83q18 55 37.5 123.5t38 133t34 121t27.5 87.5q78 209 197 209q47 0 67.5 -34t20.5 -108q0 -78 -109 -415q-51 -152 -101 -304.5t-97 -304.5q-12 -37 -21.5 -83t-26 -86t-43 -67.5t-69.5 -27.5 q-59 0 -119.5 -1t-124.5 -1q-12 -33 -19 -54.5t-14.5 -38.5t-16 -37.5t-24.5 -53.5q-14 -29 -28.5 -62.5t-32.5 -62.5t-43 -48.5t-59 -19.5q-53 0 -74 37q-16 29 -11 74t19 94t31.5 94t25.5 70q-43 0 -81.5 -1t-75.5 -1q-96 0 -123 6q-78 16 -78 100z" />
<glyph unicode="&#x410;" horiz-adv-x="1136" d="M-16 40.5q-4 31.5 7 63t31.5 63.5t32.5 56q53 104 132 241.5t180 307.5q266 440 368 563q76 92 144 92t103.5 -43t35.5 -178l-2 -413q29 4 56.5 7t53.5 3q72 0 114 -18.5t38 -61.5q0 -47 -24.5 -88t-73.5 -55q-59 -18 -100.5 -27.5t-61.5 -17.5l-2 -125q0 -12 11 -32 t25.5 -42.5t26 -46t11.5 -47.5q0 -53 -31 -129q-84 -203 -242 -203q-74 0 -95.5 46t-21.5 126q0 23 6.5 67t14.5 100t14 118.5t6 119.5q-102 -41 -162.5 -67.5t-99.5 -48.5q-74 -45 -112.5 -82t-79.5 -111q-86 -154 -92 -164q-51 -70 -123 -69q-16 10 -28.5 19t-20.5 16 q-35 29 -39 60.5zM547 672q8 4 42 12t70.5 18.5t64.5 16.5t21 2q0 16 1.5 39.5t1.5 47t1 42t1 24.5q0 45 -2.5 76t-10.5 54z" />
<glyph unicode="&#x411;" horiz-adv-x="1130" d="M16 164q0 29 34 58.5t67 29.5q-10 20 -11 49q0 33 14.5 78t35 94t44 97t42.5 87q27 61 52 123t50 125l80 203q-18 6 -45 14t-51.5 19.5t-42 27t-17.5 37.5q0 47 31 87t83 68t119.5 43t141.5 15q20 0 96 6.5t162 12.5t162 12t96 6q68 0 111 -6t67.5 -22.5t33.5 -46 t9 -78.5q0 -33 -25.5 -67t-64.5 -61.5t-82 -45t-78 -17.5t-56 10.5t-37.5 23.5t-34 23.5t-44.5 10.5q-25 0 -72.5 -4.5t-95 -10.5t-81 -10t-29.5 -4q-10 -35 -23.5 -73t-27.5 -79q-35 -100 -62 -155q55 31 147.5 53.5t176.5 22.5q53 0 101 -24t85 -64.5t59.5 -98 t22.5 -125.5q0 -141 -57.5 -266t-154.5 -218t-224 -146.5t-268 -53.5q-84 0 -163 19.5t-140.5 51.5t-98.5 76t-37 93zM319 229q53 -29 101.5 -38t146.5 -9q168 0 267 105q81 87 81 196q0 127 -36.5 174.5t-135.5 47.5q-141 0 -256 -97q-8 -53 -15 -90t-15 -65.5t-18.5 -56 t-26.5 -60.5q-12 -29 -19.5 -44.5t-16.5 -24.5t-21.5 -17t-35.5 -21z" />
<glyph unicode="&#x412;" horiz-adv-x="1171" d="M16 164q0 29 34 58.5t67 29.5q-10 20 -11 49q0 33 14.5 78t35 94t44 97t42.5 87q27 61 52 123t50 125l80 203q-18 6 -45 14t-51.5 19.5t-42 27t-17.5 37.5q0 55 40 99.5t102.5 74t137.5 45t144 15.5q207 0 299 -19q226 -47 226 -186q0 -70 -16.5 -139.5t-57.5 -122.5 q-43 -59 -75 -97t-48 -59q92 -39 128 -94t36 -162q0 -276 -221 -461q-213 -176 -508 -176q-84 0 -163 19.5t-140.5 51.5t-98.5 76t-37 93zM319 229q53 -29 101.5 -38t146.5 -9q164 0 267 78q80 65 92 143q2 12 2 26.5v21.5q0 92 -54.5 134t-154.5 58q-35 4 -82 6t-105 2h-30 q-31 -186 -90 -315q-12 -29 -19.5 -44.5t-16.5 -24.5t-21.5 -17t-35.5 -21zM578 877q102 27 156 41t59 16q104 49 127 178q4 23 -25 35t-74 12q-35 0 -58.5 -4t-74.5 -14z" />
<glyph unicode="&#x413;" horiz-adv-x="817" d="M27 129q0 98 39 240q4 10 22 69.5t44 136t51.5 152.5t43.5 121q27 66 55.5 130t57.5 130q-18 6 -45 14t-51.5 19.5t-42 27t-17.5 37.5q0 47 31 87t83 68t119.5 43t141.5 15q25 0 85.5 5.5t129 11.5t130 11t85.5 5q68 0 111 -6t67.5 -22.5t33.5 -46t9 -79.5 q0 -33 -25.5 -66.5t-64.5 -61t-82 -45t-77 -17.5q-35 0 -55.5 10t-38 22.5t-35 23t-44.5 10.5q-70 0 -124 -12.5t-86 -20.5q-27 -63 -47.5 -120.5t-36.5 -109.5q-23 -68 -43.5 -140.5t-38 -142t-30.5 -132t-22 -107.5q-23 -131 -22 -217q0 -82 -45 -136t-127 -54 q-49 0 -94 45t-45 102z" />
<glyph unicode="&#x414;" horiz-adv-x="1314" d="M-182 -322q0 37 34.5 151t94.5 275q31 84 91 124t124 40q37 0 80 82t96 182q35 66 82 152t104 193q72 131 112 204.5t50 89.5q90 160 162 238q90 98 164 98q82 0 110.5 -40t28.5 -117v-41q0 -47 -5 -110.5t-11.5 -125t-11.5 -108.5t-5 -62q0 -94 -10 -193.5t-23 -211.5 v-232q66 -8 120.5 -49t54.5 -113q0 -14 -17.5 -64t-40 -110.5t-47.5 -117t-37 -84.5q-35 -84 -63.5 -119t-69.5 -35q-113 0 -113 86q0 18 7.5 53t19.5 80t26.5 94.5t28.5 98.5h-790q-14 -27 -30.5 -62t-37.5 -82q-23 -53 -35 -82.5t-14 -31.5q-10 -27 -19.5 -54.5t-22.5 -49 t-35.5 -36t-59.5 -14.5q-57 0 -74.5 22.5t-17.5 81.5zM432 244q12 0 69.5 2t123 4t122 4t68.5 2q4 43 9.5 131t19.5 215q8 96 15 162.5t11 119t9.5 96.5t11.5 95q-23 -35 -50.5 -79t-54 -87t-49 -78.5t-32.5 -54.5q-25 -41 -71 -130t-91 -180t-79 -157.5t-32 -64.5z" />
<glyph unicode="&#x415;" horiz-adv-x="987" d="M16 59q4 29 123 428q37 127 56.5 204t38 138.5t44 121t76.5 151.5q-47 0 -79.5 20.5t-22.5 63.5q8 43 71.5 83t170 68.5t248 46t307.5 17.5h157q119 -2 119 -53q0 -59 -27.5 -94t-74.5 -53.5t-110.5 -25t-135.5 -6.5q-106 0 -238 -18q-39 -6 -77.5 -12t-77.5 -13 q-23 -78 -46.5 -155.5t-45.5 -155.5q10 0 71.5 7t134 16.5t134 16.5t71.5 7q55 0 90 -7t35 -60q0 -137 -309 -201q-47 -10 -120 -20.5t-173 -20.5l-100 -291q10 4 83.5 16.5t159.5 28t160 26.5t86 11q106 0 141 -18q49 -27 50 -111q0 -164 -148 -164q-53 0 -80 10 q-61 0 -137 -10t-161 -24.5t-174 -34t-175 -37.5q-47 0 -81 34t-34 70z" />
<glyph unicode="&#x416;" horiz-adv-x="1781" d="M-33 168q0 74 26.5 116t69.5 70.5t95.5 54t101.5 68.5q76 63 164 155.5t166 172.5q-43 72 -66.5 109.5t-27.5 43.5q-39 55 -80 83t-75 54.5t-55.5 63.5t-21.5 111q0 59 47 104t113 45q49 0 112.5 -67.5t128 -161.5t123 -193.5t99.5 -162.5q51 180 78.5 272t29.5 98 q82 260 193 260q35 0 65.5 -34.5t30.5 -71.5q0 -61 -57 -252q-23 -72 -43.5 -142.5t-42.5 -142.5q121 121 207 206t139 132q250 221 346 221q129 0 129 -129q0 -86 -47 -135t-156 -82q-37 -10 -90 -43t-109.5 -76t-112.5 -90t-99 -88q76 -133 153 -237q119 -162 185 -193 q45 -20 59 -55t14 -92q0 -82 -67.5 -121t-151.5 -39q-37 4 -77 41t-82 93t-81.5 123t-74.5 128l-111 197q-12 -10 -26.5 -17.5t-24.5 -11.5q-16 -37 -32.5 -93.5t-30 -116.5t-21.5 -114.5t-8 -89.5q-14 -66 -73.5 -103.5t-133.5 -37.5q-55 0 -95 42t-40 101q0 10 21.5 65.5 t49 127.5t55 141.5t40.5 106.5q-20 14 -34 24.5t-30 24.5q-117 -145 -212 -258t-167 -191q-154 -166 -221 -166q-88 0 -126 34t-38 118z" />
<glyph unicode="&#x417;" horiz-adv-x="983" d="M10 252q0 78 34 124t93 46q45 0 85 -26.5t84 -58.5t93.5 -58.5t112.5 -26.5q53 0 102.5 21.5t88 56.5t62 82t23.5 98q0 152 -141 152q-4 0 -23.5 -3.5t-42 -8.5t-44 -8t-31.5 -3q-86 0 -86 125q0 31 33.5 72t81.5 53q43 12 93 32.5t91 48t68.5 60.5t27.5 72 q0 57 -30.5 75.5t-90.5 18.5q-82 0 -200 -88q-59 -41 -105 -41q-41 0 -59.5 36t-18.5 93q0 66 86 133q127 98 353 98q152 0 237 -86q76 -76 76 -180q0 -156 -76 -239q-41 -45 -153 -105q96 -27 162.5 -117t66.5 -190q0 -209 -201 -367q-186 -145 -379 -145q-229 0 -368 104 q-104 80 -105 150z" />
<glyph unicode="&#x418;" horiz-adv-x="1224" d="M4 109q0 37 59 204q27 72 52.5 145.5t52.5 145.5q4 10 29.5 99.5t59.5 199t66.5 210.5t51.5 138q63 131 143 131q29 0 62.5 -31.5t33.5 -70.5q0 -61 -102 -385q-14 -47 -41 -129t-68 -197l-53 -147q57 59 113.5 120.5t114.5 123.5q47 51 126.5 136t163.5 177t158 177 t111 138q29 45 54.5 57.5t61.5 12.5h35q51 0 69.5 -42t18.5 -99q0 -53 -24.5 -140.5t-57 -180.5t-66.5 -182t-52 -145q-72 -215 -72 -247q0 -18 20.5 -61.5t20.5 -67.5q0 -94 -77 -141.5t-179 -47.5q-53 0 -90 33t-37 80q0 57 84 280q35 94 81 203t99 232q-12 -12 -56 -59.5 t-103.5 -114t-128 -142.5t-134 -146.5t-118 -126.5t-80.5 -83q-188 -184 -256 -184q-57 0 -101.5 37.5t-44.5 89.5z" />
<glyph unicode="&#x419;" horiz-adv-x="1337" d="M4 109q0 37 59 204q27 72 52.5 145.5t52.5 145.5q4 10 29.5 99.5t59.5 199t66.5 210.5t51.5 138q63 131 143 131q29 0 62.5 -31.5t33.5 -70.5q0 -61 -102 -385q-14 -47 -41 -129t-68 -197l-53 -147q57 59 113.5 120.5t114.5 123.5q47 51 126.5 136t163.5 177t158 177 t111 138q29 45 54.5 57.5t61.5 12.5h35q51 0 69.5 -42t18.5 -99q0 -53 -24.5 -140.5t-57 -180.5t-66.5 -182t-52 -145q-72 -215 -72 -247q0 -18 20.5 -61.5t20.5 -67.5q0 -94 -77 -141.5t-179 -47.5q-53 0 -90 33t-37 80q0 57 84 280q35 94 81 203t99 232q-12 -12 -56 -59.5 t-103.5 -114t-128 -142.5t-134 -146.5t-118 -126.5t-80.5 -83q-188 -184 -256 -184q-57 0 -101.5 37.5t-44.5 89.5zM657 1692q0 51 31 81.5t103 30.5q90 0 122.5 -42t57.5 -95q18 -33 55 -33q180 0 328 101q23 14 41 14q45 0 45 -57q0 -59 -60.5 -112.5t-142.5 -93.5 t-166 -62.5t-131 -22.5q-143 0 -219 98q-63 82 -64 193z" />
<glyph unicode="&#x41a;" horiz-adv-x="1269" d="M10 168q0 33 45 147q74 193 117 308.5t57 156.5q106 348 195 496q76 131 164 131q33 0 61.5 -30.5t28.5 -67.5q0 -55 -53 -209q-23 -59 -43.5 -119.5t-40.5 -120.5q2 0 39.5 24.5t95 63.5t125 84l129 86t107.5 72t61 41q199 119 268 119q129 0 129 -129q0 -82 -52 -128 t-143 -59q-31 -2 -93 -32.5t-132.5 -72.5t-138.5 -85t-109 -74q41 -57 83 -113.5t85 -109.5q66 -84 117 -134.5t78 -64.5q47 -20 61.5 -54t14.5 -93q0 -70 -58.5 -116t-138.5 -46q-29 6 -55.5 19.5t-59 44t-71.5 79.5t-88 125q-8 10 -58.5 96t-144.5 244q-35 -23 -53.5 -33 t-69.5 -30q-39 -72 -61.5 -116t-49.5 -101q-12 -31 -12 -66q0 -16 7 -63.5t-1 -71.5q-12 -66 -73.5 -103.5t-133.5 -37.5q-55 0 -95 38.5t-40 104.5z" />
<glyph unicode="&#x41b;" horiz-adv-x="1126" d="M-63 158q0 47 44 63.5t89 30.5q51 18 100 64t96 111t90 140.5t82 153.5q61 125 122 249t126 247q70 127 136.5 189t119.5 62q82 0 111.5 -39.5t29.5 -121.5v-35q0 -45 -5 -110.5t-12 -130t-12 -119t-5 -76.5q0 -104 -7.5 -222t-11.5 -208q0 -14 15.5 -42t34 -59 t33.5 -62.5t15 -56.5q0 -98 -69.5 -165.5t-177.5 -67.5q-74 0 -95.5 46t-21.5 126v79t1 83t5 103.5t12 139.5q2 12 11.5 113.5t27.5 292.5q14 158 19 184q-8 -14 -41 -79.5t-88 -180.5l-99 -209q-229 -486 -331 -592q-68 -72 -131 -92q-37 -14 -109 -14q-53 0 -78.5 62.5 t-25.5 142.5z" />
<glyph unicode="&#x41c;" horiz-adv-x="1763" d="M-39 154q0 23 17.5 39t43 27t56.5 19.5t57 16.5q53 16 103.5 64.5t95.5 114t82.5 141t66.5 147.5q29 68 60.5 186.5t76 234.5t103.5 201t141 85q102 0 127 -63.5t25 -178.5q0 -31 -3 -92.5t-7.5 -140t-8.5 -169t-8 -180.5q0 -10 2 -9t8 1t37 40t75 101.5t94 135t96.5 139 t79 114t42.5 60.5q160 209 217 209q84 0 112 -62.5t28 -146.5q0 -70 -22.5 -175.5t-49.5 -216t-49.5 -214t-22.5 -172.5q0 -41 9.5 -58.5t19.5 -30t19.5 -32t9.5 -66.5q0 -86 -50.5 -149.5t-138.5 -63.5t-119.5 75t-31.5 173q0 39 14 119t32.5 171t37 177t26.5 137 q-41 -59 -82 -120.5t-82 -120.5q-74 -109 -133 -191t-104 -137q-135 -166 -186 -166q-80 0 -106 57.5t-26 145.5v134t1.5 143.5t3.5 133t8 103.5q-53 -123 -100.5 -224.5t-86.5 -183.5q-51 -104 -86.5 -182t-74.5 -133t-86.5 -92t-120.5 -62q-55 -18 -137 -18 q-53 0 -79 62.5t-26 142.5z" />
<glyph unicode="&#x41d;" horiz-adv-x="1181" d="M29 109q0 12 23.5 72.5t53 134t58.5 142t39 93.5q2 20 -18.5 54t-20.5 54q0 43 12 60q2 2 23.5 16.5t62.5 42.5q104 266 158 377q106 223 174 223q31 0 63.5 -32.5t32.5 -71.5q0 -29 -20.5 -92.5t-49 -137t-58.5 -142t-46 -107.5q86 8 217 24q10 2 54 8.5t120 16.5 q20 41 54 127t59 159q31 88 55.5 141.5t50 81t54 36t65.5 8.5q35 0 50.5 -27t15.5 -59q0 -20 -4 -49t-4 -33q0 -59 -26 -147.5t-61.5 -182.5t-73.5 -182t-61 -150q-78 -209 -77 -252q0 -16 20 -51t20 -61q0 -98 -73.5 -143.5t-182.5 -45.5q-53 0 -89.5 33t-36.5 80 q0 18 21.5 81.5t51 137.5t57 144.5t39.5 105.5q-37 -4 -98 -13.5t-120.5 -17.5t-105.5 -16t-54 -8q-16 -41 -27.5 -70t-19.5 -45q-23 -53 -41 -76q37 -57 38 -65q14 -31 15 -76q0 -41 -22.5 -82t-58.5 -74t-79 -52t-86 -19q-55 0 -99 37.5t-44 89.5z" />
<glyph unicode="&#x41e;" horiz-adv-x="1019" d="M55 256q0 233 19 342q31 184 139 377q139 242 295 344q106 70 237 70q35 0 63 -3.5t62 -7.5q14 53 25.5 67.5t54.5 14.5q33 0 77 -40t83 -93t65.5 -107t26.5 -83q0 -352 -162 -637q-70 -125 -161 -223.5t-203 -174.5q-203 -135 -381 -135q-49 0 -93 23.5t-77 62.5 t-51.5 91.5t-18.5 111.5zM293 403q0 -70 37 -116.5t92 -46.5q213 0 371 258q137 225 137 471q0 68 -58.5 107.5t-166.5 39.5q-199 0 -322 -319q-90 -236 -90 -394z" />
<glyph unicode="&#x41f;" horiz-adv-x="1085" d="M31 129q0 12 16 59.5t42 112t55.5 138t57 140t48 116.5t26.5 67l130 360q-57 -6 -93.5 24t-36.5 91q0 45 38 87t92 52q49 10 124.5 18.5t164.5 14.5t182.5 10t179.5 4q154 0 204 -30.5t50 -89.5q0 -51 -30 -78t-85 -37q-29 -82 -55.5 -162t-55.5 -162q-33 -98 -61.5 -187 t-52.5 -169q-55 -180 -56 -219q0 -16 20.5 -53t20.5 -62q0 -96 -74.5 -142t-181.5 -46q-53 0 -90 32.5t-37 79.5q0 29 36 141.5t110 305.5q59 156 118.5 311t118.5 313q-2 0 -46 -4t-95 -8t-95 -8t-46 -4q-45 -106 -89 -234.5t-83 -244.5q-23 -63 -46.5 -124t-45.5 -120 q-16 -39 -40 -95.5t-57 -133.5q-37 -90 -70.5 -141.5t-97.5 -51.5q-115 0 -114 129z" />
<glyph unicode="&#x420;" horiz-adv-x="944" d="M25 104q12 45 26.5 96.5t28.5 108.5q23 80 37 138.5t22 93.5q18 72 44 158.5t58.5 183t67.5 199t72 202.5q10 27 64.5 56.5t122 55t134 42t99.5 16.5q98 0 209 -92q129 -109 129 -240q0 -156 -138 -307q-76 -84 -177 -149.5t-230 -118.5q-57 -25 -112.5 -50.5 t-110.5 -50.5l-52 -346q-8 -51 -53 -89t-127 -38q-45 0 -79.5 39t-34.5 92zM410 694q55 20 107 44t99 55q96 63 154 122q80 81 80 140q0 68 -32 99.5t-113 31.5q-106 0 -164 -113q-20 -39 -40 -88t-38.5 -100t-31.5 -101.5t-21 -89.5z" />
<glyph unicode="&#x421;" horiz-adv-x="966" d="M57 324q0 150 95 389q111 287 270 461q199 223 434 223q16 0 61.5 -15.5t92.5 -38t85 -49t38 -51.5q0 -33 -15.5 -65.5t-40 -58t-54.5 -41t-58 -15.5q-6 0 -22.5 10t-38 21.5t-45 21.5t-42.5 10q-174 0 -299 -204q-164 -266 -164 -471q2 -20 5 -35t6 -25q18 -61 47 -61 q2 0 43 14t100 36.5t130 47.5t130 47.5t100 36.5t43 14q43 0 62.5 -27.5t19.5 -109.5q0 -47 -56 -95t-140 -93t-180.5 -84t-176.5 -68q-193 -68 -235 -67q-84 0 -139.5 99t-55.5 243z" />
<glyph unicode="&#x422;" horiz-adv-x="958" d="M12 1165q0 51 19.5 81t47 47.5t59.5 24.5t59 11q78 12 127 20.5t103 17.5l129 21.5t204 32.5q121 20 188.5 29.5t77.5 9.5q104 0 161.5 -46t57.5 -144q0 -35 -17.5 -69t-45 -61.5t-60 -45t-63.5 -17.5q-12 0 -27.5 12.5t-34 29t-38 28.5t-39.5 12h-154 q-68 -238 -115 -408.5t-76 -295.5q-10 -43 -13 -87t-3 -65q0 -23 2 -76t-9 -107t-44 -96t-100 -42q-59 0 -111.5 50t-52.5 118q0 25 16 89t40 145t52.5 170t53 164t41 125t18.5 54l76 240q-25 -8 -82.5 -19.5t-120 -23t-119.5 -18.5t-84 -7q-47 0 -85 24.5t-38 71.5z" />
<glyph unicode="&#x423;" d="M84 166q0 25 19.5 41t49 28.5t64.5 21.5t64 19q49 14 80.5 40t55 55.5t42.5 62.5t37 64q-8 14 -34 63t-67 137q-39 76 -70.5 139.5t-60.5 102.5q-31 39 -56.5 65.5t-44 51t-28.5 55.5t-10 76q0 80 45 131t123 51q51 0 115.5 -76.5t130.5 -228.5q41 -96 68.5 -162.5 t41.5 -101.5q37 86 73 173t75 173q61 137 119.5 204.5t97.5 67.5q45 0 85 -30.5t40 -65.5q0 -43 -52 -164q-20 -49 -53 -120.5t-71.5 -154.5t-80.5 -171t-83 -172q-66 -137 -113 -225.5t-72 -127.5q-59 -92 -118 -147q-70 -68 -146 -92q-55 -18 -137 -19q-25 0 -48.5 22.5 t-42 57.5t-28.5 77t-10 79z" />
<glyph unicode="&#x424;" horiz-adv-x="1413" d="M33 580q0 61 15 125.5t43 125t62.5 112.5t75.5 87q102 92 279 164q193 80 354 80q16 43 27.5 100.5t29 108.5t43 87t72.5 36q70 0 103.5 -31t33.5 -70q0 -41 -15 -100t-42 -131q180 -18 316 -66q98 -37 139 -114.5t41 -188.5q0 -276 -234 -495q-242 -227 -577 -228 q-4 -14 -15.5 -53t-27.5 -102q-45 -180 -97 -181q-25 0 -58.5 7.5t-64 19.5t-52 29.5t-21.5 40.5q0 25 1 47t4 47.5t9 61.5t19 87q-193 29 -316 121q-147 111 -147 273zM309 608q0 -41 31 -76.5t75 -62.5t93 -42t88 -15q18 66 43 148.5t50.5 168.5t51 168t47.5 143 q-104 -16 -158.5 -28t-107.5 -43q-41 -25 -78.5 -66t-67.5 -90t-48.5 -102.5t-18.5 -102.5zM846 383q174 0 336 143q153 135 153 250q0 154 -73.5 211t-217.5 57q-6 -31 -23 -91t-35.5 -118.5t-32 -99.5t-13.5 -30q-18 -68 -29.5 -109t-15.5 -55q-10 -35 -22.5 -75 t-26.5 -83z" />
<glyph unicode="&#x425;" horiz-adv-x="1101" d="M-33 86q0 25 56.5 105.5t135.5 180t163 200t141 165.5q-33 68 -111 191q-150 238 -149 270q2 27 19.5 58.5t42 58t52 44t54.5 13.5q23 0 62.5 -46t82.5 -107.5t81 -124t56 -97.5q31 41 92.5 117t128 149.5t126 129t85.5 55.5q18 0 38 -12.5t36.5 -32t25.5 -41t5 -39.5 q0 -6 -53.5 -75.5t-121 -158t-132 -171t-88.5 -117.5q47 -86 89 -167t74 -159q94 -213 95 -321q0 -84 -38 -128t-124 -44q-29 0 -56.5 18t-39.5 55q-16 55 -27.5 93t-23 71t-23.5 65.5t-33 77.5q-49 106 -96 170q-25 -35 -78 -107.5t-107.5 -146t-95.5 -128.5l-41 -54 q-16 -35 -28.5 -62.5t-29.5 -47t-48 -29.5t-84 -10q-61 0 -89 46t-24 93z" />
<glyph unicode="&#x426;" horiz-adv-x="1339" d="M43 100q0 25 22.5 108t53.5 184.5t63.5 205.5t55.5 172q33 109 65.5 220.5t69.5 217.5t89 159.5t103 53.5q31 0 64 -32.5t33 -71.5q0 -12 -12.5 -61.5t-32 -118t-44 -148.5t-47 -154.5t-42 -135t-29.5 -91.5q-10 -35 -23.5 -85t-27 -99t-30 -90t-32.5 -58q20 -2 48 -3 t59 -1q61 0 144 2t177 7q27 76 49.5 139t38.5 115q31 88 50.5 144t27.5 83q18 57 37 118.5t37 131.5q20 76 36.5 129t26.5 86q78 209 197 209q47 0 67.5 -34t20.5 -108q0 -57 -25.5 -147t-60.5 -186.5t-72 -188.5t-57 -154q-84 -244 -99 -339q100 -10 129 -42t29 -102 q0 -14 -15.5 -89t-45 -158t-71.5 -150.5t-97 -67.5q-113 0 -129 86q0 4 7 38t18.5 76t20.5 81t11 53q-76 0 -175 -1t-222 -3q-88 0 -154.5 -3t-128.5 -3q-98 0 -138 20.5t-40 85.5z" />
<glyph unicode="&#x427;" horiz-adv-x="989" d="M127 668q0 53 8 120.5t22.5 140t35 145.5t45.5 134q33 84 89 129t109 45q12 0 25.5 -13t25 -32.5t17.5 -43t0 -42.5q-45 -164 -80 -271.5t-35 -160.5q0 -51 20.5 -77.5t73.5 -26.5t130 43t163 100q27 74 54.5 147.5t58.5 149.5q49 119 94 161t129 42q35 0 47 -19.5 t12 -58.5q-31 -88 -77.5 -214t-93 -258t-79 -254t-32.5 -204q0 -25 19.5 -57.5t19.5 -52.5q0 -84 -49 -146q-63 -80 -197 -80q-51 0 -89 34t-38 79q0 94 46 221t104 273q-57 -37 -101.5 -63t-84.5 -41t-81 -21.5t-94 -6.5q-90 0 -153.5 45.5t-63.5 133.5z" />
<glyph unicode="&#x428;" horiz-adv-x="1892" d="M55 10q0 12 12.5 59.5t31 112t41 139t44 145.5t40 127t26.5 85q33 109 65.5 219.5t69.5 218.5q37 106 89 159.5t104 53.5q29 0 62.5 -31.5t33.5 -70.5q0 -27 -23.5 -114t-55.5 -194.5t-67.5 -217t-60.5 -183.5q-14 -43 -30.5 -95t-34 -101.5t-34 -91.5t-28.5 -64 q100 12 204.5 26.5t196.5 14.5q84 223 128 340t46 127q47 139 86 284q31 115 61 185.5t59.5 111.5t62.5 55.5t73 14.5q90 0 91 -141q0 -49 -27 -134t-63.5 -177.5t-73.5 -178.5t-58 -141q-43 -123 -68.5 -209t-33.5 -137h385q41 121 75 254t67.5 266t74.5 261t96 239 q49 98 144 98q90 0 90 -141q0 -23 -15.5 -89.5t-39 -156.5t-52 -193.5t-56.5 -199.5t-52.5 -175t-36.5 -120q-16 -47 -27.5 -94t-33 -85t-58.5 -61.5t-100 -23.5h-531q-209 0 -375.5 -22.5t-328.5 -49.5q-94 0 -144.5 20.5t-50.5 75.5z" />
<glyph unicode="&#x429;" horiz-adv-x="1808" d="M-16 33q0 18 29.5 129.5t77.5 273.5t106.5 348.5t115.5 356.5q37 106 89.5 159.5t103.5 53.5q29 0 62.5 -32t33.5 -71q0 -27 -23.5 -113.5t-55 -194t-67.5 -218.5t-61 -184q-12 -41 -30.5 -91.5t-37 -99.5t-33.5 -90t-22 -61q-2 0 48.5 5t118 10t134 10t95.5 5 q66 188 131 377t131 377q31 115 60.5 185.5t59 111.5t63.5 55.5t73 14.5q47 0 67.5 -34t20.5 -108q0 -55 -24.5 -139t-58.5 -175t-70 -179t-58 -150q-49 -137 -79 -221t-38 -115h406q20 66 40.5 133.5t41.5 135.5q6 18 26.5 86.5t44 151.5t45 161t31.5 115q29 109 47.5 169 t22.5 70q45 98 143 99q90 0 90 -142q0 -53 -20.5 -136t-49 -175t-57 -179t-45.5 -145q-66 -238 -86 -344q86 0 125 -25.5t39 -113.5q0 -45 -28.5 -135t-67.5 -176q-63 -154 -133 -154q-117 0 -131 88q-2 16 4 47t15 67t20.5 71.5t19.5 62.5q-94 10 -238.5 17.5t-300.5 7.5 q-86 0 -185 -8.5t-203.5 -18.5t-211 -18.5t-209.5 -8.5q-84 0 -110 13q-47 23 -47 88z" />
<glyph unicode="&#x42a;" horiz-adv-x="1144" d="M16 164q0 29 34 58.5t67 29.5q-10 20 -11 49q0 33 14.5 78t35 94t44 97t42.5 87q27 61 52 123t50 125l80 203q-96 0 -141 18q-41 16 -50.5 44t2 61t37 63.5t54.5 48.5q113 76 317 76q49 0 73.5 -5t33 -15t7.5 -27.5t-1 -42.5q0 -16 -17.5 -66.5t-43 -116t-57.5 -137 t-60 -132.5q39 0 86 2t91 5t81 5t55 2q55 0 108.5 -25.5t94.5 -70.5t65.5 -105.5t24.5 -128.5q0 -276 -221 -461q-213 -176 -508 -176q-84 0 -163 19.5t-140.5 51.5t-98.5 76t-37 93zM319 229q53 -29 101.5 -38t146.5 -9q164 0 267 78q80 65 92 143q0 14 2 32t2 26 q0 90 -41 141t-117 51q-33 0 -61.5 -3t-51.5 -3t-76 2t-81 2q-31 -186 -90 -315q-12 -29 -19.5 -44.5t-16.5 -24.5t-21.5 -17t-35.5 -21z" />
<glyph unicode="&#x42b;" horiz-adv-x="1536" d="M-39 164q0 29 34 58.5t66 29.5q-10 20 -10 49q0 61 49 172q23 47 45.5 92t40.5 92q49 121 96.5 243t98.5 243q117 276 207 276q45 0 78.5 -22.5t33.5 -67.5q0 -16 -16 -66.5t-43 -116t-58.5 -137t-60.5 -132.5q39 0 86 2t91 5t81.5 5t55.5 2q55 0 108 -25.5t94 -70.5 t65.5 -105.5t24.5 -128.5q0 -279 -219 -461q-213 -176 -510 -176q-84 0 -162.5 19.5t-140 51.5t-98.5 76t-37 93zM264 229q53 -29 101.5 -38t146.5 -9q164 0 266 78q80 65 92 143q0 14 2 32t2 26q0 90 -40.5 141t-116.5 51q-31 0 -60.5 -3t-50.5 -3q-25 0 -78 2t-82 2 q-31 -186 -90 -315q-12 -29 -19 -44.5t-16.5 -24.5t-21.5 -17t-35 -21zM1153 172q0 66 22.5 161t54.5 198.5t68.5 199.5t65.5 160q35 84 70.5 167t72.5 165q41 88 80 132t68 44q53 0 77.5 -29t24.5 -76q0 -14 -13 -61t-32.5 -107.5t-43 -125t-42 -114.5t-29 -77t-6.5 -10 q-35 -102 -58.5 -187.5t-35.5 -150.5q-4 -20 -6 -67.5t-2 -76.5v-96q0 -37 -18.5 -72.5t-48 -65.5t-67.5 -52.5t-77 -30.5q-25 -6 -48.5 7t-39.5 39t-26.5 59.5t-10.5 66.5z" />
<glyph unicode="&#x42c;" horiz-adv-x="1101" d="M-25 164q0 29 34 58.5t67 29.5q-10 20 -10 49q0 61 49 172q20 47 43.5 92t42.5 92q49 121 96 243t98 243q117 276 207 276q45 0 79 -22.5t34 -67.5q0 -16 -17.5 -66.5t-43 -116t-57.5 -137t-60 -132.5q39 0 86 2t91 5t81 5t55 2q55 0 108.5 -25.5t94.5 -70.5t65.5 -105.5 t24.5 -128.5q0 -279 -219 -461q-213 -176 -510 -176q-84 0 -163 19.5t-140.5 51.5t-98.5 76t-37 93zM279 229q53 -29 101 -38t146 -9q164 0 267 78q80 65 92 143q0 14 2 32t2 26q0 90 -41 141t-117 51q-31 0 -60.5 -3t-49.5 -3q-25 0 -78.5 2t-81.5 2q-31 -186 -90 -315 q-12 -29 -19.5 -44.5t-16.5 -24.5t-21.5 -17t-34.5 -21z" />
<glyph unicode="&#x42d;" horiz-adv-x="1038" d="M-66 139q0 20 18.5 57t45.5 73t56.5 62.5t54.5 26.5q2 0 33.5 -13t71.5 -29.5t80 -30t60 -13.5q158 0 332 172q201 201 201 461q0 117 -19 168q-31 86 -118 86q-53 0 -117 -55t-184 -158q-51 -41 -87 -41q-20 0 -45.5 17.5t-49 42t-39 54.5t-15.5 54q0 33 37 75t95 85 t128 85t135.5 74.5t117.5 52t77 19.5q164 0 246 -82q96 -96 96 -348q0 -272 -123 -514q-94 -184 -252 -340q-111 -109 -213.5 -148.5t-249.5 -39.5q-182 0 -277.5 45t-95.5 102zM203 637q0 57 43 96t108.5 63.5t140 35t140.5 10.5q96 0 142 -24.5t46 -112.5 q0 -61 -37.5 -95.5t-93.5 -34.5q-16 0 -41.5 1.5t-52.5 3.5t-50.5 3t-35.5 1q-70 0 -131 -17q-16 -2 -43 -16q-57 0 -96 21.5t-39 64.5z" />
<glyph unicode="&#x42e;" horiz-adv-x="1679" d="M16 109q0 10 25 74.5t56.5 140t60 143.5t35.5 84q0 12 -6.5 28.5t-14.5 33t-14 29.5t-6 17q0 43 37.5 83t64.5 85q45 213 123 375q82 180 153 180q27 0 61 -35.5t34 -66.5q-8 -31 -15.5 -55.5t-11.5 -42.5q-37 -131 -58.5 -211t-29.5 -109q86 18 172 38t166 46 q139 242 295 344q106 70 237 70q35 0 62.5 -3t62.5 -7q12 45 25.5 62.5t56.5 17.5q35 0 78 -40t81 -93.5t64.5 -106.5t26.5 -82q0 -352 -162 -637q-70 -125 -161 -223t-203 -174q-203 -135 -381 -135q-49 0 -93 23.5t-77 62t-51.5 91t-18.5 111.5q0 137 5 229.5t26 182.5 q-27 -8 -55.5 -18.5t-61.5 -20.5q-8 -2 -49 -17t-115 -42q-16 -41 -27.5 -70t-19.5 -45q-23 -53 -41 -76q37 -57 39 -65q14 -31 15 -76q0 -41 -23 -82t-58.5 -74t-78.5 -52t-86 -19q-55 0 -99.5 37.5t-44.5 89.5zM928 375q0 -70 36.5 -117t92.5 -47q213 0 370 258 q138 225 138 471q0 68 -58.5 107.5t-167.5 39.5q-199 0 -321 -319q-90 -236 -90 -393z" />
<glyph unicode="&#x42f;" horiz-adv-x="1144" d="M-88 211q0 45 53 70q78 27 155 64.5t136 82.5q94 70 158 156q-90 20 -144.5 93t-54.5 165q0 274 203 432q188 147 489 147q86 0 165 -19.5t140.5 -51t98.5 -75.5t37 -93q0 -27 -15.5 -41.5t-33 -25.5t-33 -23.5t-15.5 -32.5q0 -37 -30.5 -105.5t-55.5 -119.5 q-27 -63 -53.5 -127t-50.5 -129q-33 -82 -53.5 -150t-30.5 -119q-2 -12 -3 -20t-1 -13q0 -23 27.5 -65.5t27.5 -89.5q0 -33 -30.5 -59.5t-73.5 -45t-90.5 -29t-77.5 -10.5q-59 0 -85 41t-26 97q0 63 50 164.5t141 287.5h-160q-78 -121 -182 -245q-59 -70 -115.5 -124.5 t-110.5 -93.5q-41 -27 -69.5 -47t-54 -34.5t-52 -20.5t-63.5 -6q-51 0 -84 69.5t-33 145.5zM471 950q0 -94 55.5 -125.5t149.5 -31.5h231l137 321q-84 47 -249 47q-168 0 -246 -49q-66 -41 -74 -113q-2 -18 -3 -30.5t-1 -18.5z" />
<glyph unicode="&#x430;" horiz-adv-x="1243" d="M-2 180q0 84 117 291q127 221 272 377q174 186 305 186q47 0 96.5 -31.5t49.5 -82.5q25 33 53.5 73.5t71.5 40.5q47 0 78.5 -11t31.5 -54q0 -35 -10 -87.5t-26.5 -114.5t-36 -130t-37.5 -133q-10 -39 -22.5 -105.5t-12.5 -99.5q0 -37 14 -37l54 18q53 19 117.5 42.5 t118.5 41.5l54 19q45 0 62.5 -17.5t17.5 -54.5q0 -29 -41 -68.5t-84 -62.5q-4 -2 -69.5 -35.5t-192.5 -97.5q-143 -72 -178 -72q-61 0 -102.5 37t-41.5 86q0 63 14.5 145.5t20.5 121.5q-57 -53 -114.5 -108.5t-116.5 -109.5q-78 -70 -147.5 -103.5t-120.5 -33.5 q-78 0 -136.5 54.5t-58.5 115.5zM268 262q86 59 159 118.5t130 119.5q135 139 135 215q2 14 3 26.5t1 20.5q0 41 -39 41q-47 0 -113.5 -70.5t-128 -163t-104.5 -181.5t-43 -126z" />
<glyph unicode="&#x431;" horiz-adv-x="876" d="M31 229q0 55 12 123t34.5 135.5t52.5 131t63 110.5q131 186 217 258q66 53 114 53q29 0 54.5 -23.5t25.5 -53.5q0 -45 -51 -125t-112.5 -170t-113 -180.5t-51.5 -157.5q0 -43 25 -72t76 -29q115 0 213 160q90 150 90 283q0 82 -2 144.5t-9 120.5t-21.5 121.5t-37.5 145.5 q-29 102 -57.5 166t-28.5 109q0 49 89 91t207 72.5t234.5 48t172.5 17.5q61 0 85.5 -15.5t24.5 -72.5q0 -41 -32.5 -66.5t-75.5 -40t-85 -21.5t-63 -13q-70 -20 -139.5 -41t-138.5 -41q16 -43 38.5 -146.5t37.5 -210.5q12 -90 20 -174t8 -164q0 -164 -45 -296t-126 -226 t-193.5 -144t-247.5 -50q-115 0 -189.5 62.5t-74.5 180.5z" />
<glyph unicode="&#x432;" horiz-adv-x="1017" d="M102 201q0 133 42 291.5t108.5 320.5t146.5 314.5t156 273.5q106 168 253.5 267t299.5 99q104 0 138 -58t34 -163q0 -92 -184 -315q-70 -84 -165 -186.5t-216 -223.5q-80 -78 -160 -155.5t-158 -155.5q0 -4 -9 -25.5t-19.5 -48t-18.5 -52.5t-8 -40q0 -41 25.5 -70.5 t74.5 -29.5q117 0 203 125q78 115 78 245q0 37 -14.5 82t-14.5 56q0 43 40 66.5t89 23.5q59 0 103.5 -50.5t44.5 -134.5q0 -184 -94 -327q-66 -100 -224 -234q-35 -27 -63.5 -46t-60 -29.5t-70.5 -15.5t-92 -5q-102 0 -183.5 51t-81.5 150zM532 928q72 70 134.5 131 t113.5 117q49 53 81 85.5t49.5 57t24.5 46t7 50.5q0 31 -22 31q-45 0 -92.5 -44t-95.5 -117t-97.5 -166t-102.5 -191z" />
<glyph unicode="&#x433;" horiz-adv-x="667" d="M2 223q0 39 24.5 81t66.5 85t95.5 88t108.5 88q125 98 149 135q20 27 21 78q0 14 -25 15q-25 0 -56.5 -20.5t-65 -45.5t-65 -45t-56.5 -20q-14 0 -31.5 11t-33 28.5t-26 38t-10.5 38.5q0 49 46 101.5t110.5 96.5t132.5 71.5t109 27.5q88 0 154.5 -43t66.5 -117 q0 -164 -82 -270q-41 -49 -143 -147q-25 -23 -59 -50.5t-63.5 -58.5t-51 -60.5t-21.5 -56.5q0 -25 31 -24q86 0 195.5 61.5t221.5 126.5q29 0 45.5 -20.5t16.5 -48.5q0 -57 -63.5 -124t-148.5 -123.5t-171 -94t-133 -37.5q-115 0 -197 63q-92 72 -92 172z" />
<glyph unicode="&#x434;" horiz-adv-x="827" d="M18 287q0 129 54 270q20 53 52 110.5t69.5 110.5t78.5 100.5t78 79.5q113 100 203 101q27 0 51.5 -22.5t24.5 -57.5q0 -20 -25.5 -52t-58.5 -67t-68 -68.5t-53 -58.5q-160 -225 -160 -366q0 -45 27.5 -88t75.5 -43q53 0 92 22.5t69.5 63t58 101t60.5 136.5q12 27 24.5 81 t23 114.5t16.5 117t6 84.5q0 135 -49 213q-27 39 -129 127q-37 35 -246 136q-86 41 -119 77q-14 14 -14 50q0 45 28.5 83.5t73.5 38.5q18 0 58 -13t90.5 -35.5t103.5 -50.5t96 -58q127 -90 209 -228q94 -158 94 -342v-39.5t2 -46.5q0 -31 -1 -51t-2 -38.5t-4 -38t-9 -50.5 q-39 -188 -119 -340.5t-207 -259.5q-66 -53 -129 -73.5t-163 -20.5q-51 0 -98.5 23.5t-84.5 63.5t-58.5 93t-21.5 111z" />
<glyph unicode="&#x435;" horiz-adv-x="841" d="M45 291q0 115 51 251t137 253.5t200 196.5t239 79q82 0 132 -48t50 -126q0 -92 -12 -135q-10 -37 -35 -83t-59.5 -92t-76.5 -87t-87 -66q-59 -35 -122 -68.5t-122 -66.5q4 -25 11 -38t24 -13q88 0 231.5 39t286.5 82q49 0 49 -70q0 -39 -44 -77t-112.5 -71.5 t-150.5 -63.5t-158 -51.5t-136 -33.5t-85 -12q-47 0 -86 29.5t-66.5 73.5t-43 97.5t-15.5 100.5zM322 477q35 16 69.5 41t71.5 53q27 20 48 41t42 41q45 47 62.5 67.5t17.5 65.5q-8 18 -18.5 33t-22.5 15q-57 0 -109.5 -57.5t-97.5 -149.5q-14 -29 -29.5 -66t-33.5 -84z" />
<glyph unicode="&#x436;" horiz-adv-x="2007" d="M-12 195q0 29 36.5 54t93 54t122 62.5t122 80t93.5 106.5t37 142q0 37 -12.5 61.5t-43.5 24.5q-78 0 -132 -41t-107 -88q-41 0 -61.5 27t-20.5 59q0 76 114 185q133 127 281 127q98 0 158.5 -71t60.5 -177q0 -43 -13.5 -92.5t-15.5 -57.5q29 23 55.5 44.5t47.5 41.5 q47 43 71.5 65.5t26.5 24.5q20 16 45 47t58 74q115 160 137 160q61 0 77.5 -42t16.5 -110q0 -35 -17.5 -106.5t-41 -150t-47 -151.5t-35.5 -106q35 37 96 94.5t128.5 119t131 115.5t100.5 85q84 68 174.5 114t173.5 46q49 0 97.5 -32t48.5 -87q0 -82 -39 -99.5t-129 -17.5 q-61 0 -119.5 -47t-102.5 -113.5t-72 -140t-28 -127.5q0 -31 24 -57.5t67 -26.5q55 0 116.5 9.5t124.5 31.5q59 23 120.5 45.5t121.5 44.5q37 0 45 -23.5t8 -47.5q0 -57 -201 -174q-223 -129 -415 -129q-98 0 -164 69.5t-66 173.5q0 6 2 35t6.5 63.5t8.5 72.5t6 63 q-94 -119 -169 -208t-132 -153q-121 -133 -156 -133q-57 0 -96 23.5t-39 77.5q0 31 23.5 105.5t55.5 161.5t66.5 170t55.5 130q-27 -20 -81.5 -73.5t-114.5 -113t-114 -112.5t-79 -76q-88 -135 -218.5 -214t-269.5 -79q-18 0 -35.5 18.5t-33 46t-24.5 60.5t-9 62z" />
<glyph unicode="&#x437;" horiz-adv-x="800" d="M-379 -430q0 12 18.5 36.5t44 50.5t54.5 44t51 18q25 0 54.5 -55t64.5 -120.5t73.5 -121t84.5 -55.5q37 0 85 27.5t95 69.5t87 90.5t64 87.5q94 158 95 354q0 139 -68 203q-51 47 -162 63q-53 6 -69.5 31.5t-16.5 79.5q0 61 14.5 90t63.5 41q319 82 319 217 q0 47 -23.5 92t-72.5 45q-94 0 -170 -50t-151 -101q-37 0 -51.5 21.5t-14.5 57.5q0 61 37 119t98.5 102t139 70.5t161.5 26.5q158 0 248 -109q74 -92 74 -213q0 -180 -154 -288q-106 -74 -268 -101q184 -49 254 -155q61 -92 61 -242q0 -135 -58 -288.5t-156.5 -284 t-229.5 -215.5t-277 -85q-80 0 -151.5 42t-126.5 106.5t-88 143.5t-33 155z" />
<glyph unicode="&#x438;" horiz-adv-x="1161" d="M37 86q0 70 61 274q23 76 37.5 123t18.5 64q72 233 141 348q90 145 192 145q27 0 49.5 -24.5t22.5 -42.5q-8 -74 -37.5 -142.5t-62.5 -138t-62.5 -139.5t-38.5 -145v-31q0 -41 39 -41q29 0 75 36t99.5 86t106.5 105t92 94q66 190 154 277q63 63 137 63q39 0 57.5 -26.5 t18.5 -69.5q0 -4 -18.5 -63.5t-41 -136t-41 -151.5t-18.5 -112q0 -82 49 -157q25 -39 52.5 -75t54.5 -71q0 -20 -17.5 -48t-44.5 -52.5t-55.5 -42t-52.5 -17.5q-72 0 -120 41t-78 100.5t-45.5 128t-19.5 124.5q-84 -90 -127 -134.5t-45 -46.5q-51 -49 -99 -85.5t-93 -63.5 q-113 -63 -225 -64q-51 0 -83 34t-32 77z" />
<glyph unicode="&#x439;" horiz-adv-x="1167" d="M37 86q0 70 61 274q23 76 37.5 123t18.5 64q72 233 141 348q90 145 192 145q27 0 49.5 -24.5t22.5 -42.5q-8 -74 -37.5 -142.5t-62.5 -138t-62.5 -139.5t-38.5 -145v-31q0 -41 39 -41q29 0 75 36t99.5 86t106.5 105t92 94q66 190 154 277q63 63 137 63q39 0 57.5 -26.5 t18.5 -69.5q0 -4 -18.5 -63.5t-41 -136t-41 -151.5t-18.5 -112q0 -82 49 -157q25 -39 52.5 -75t54.5 -71q0 -20 -17.5 -48t-44.5 -52.5t-55.5 -42t-52.5 -17.5q-72 0 -120 41t-78 100.5t-45.5 128t-19.5 124.5q-84 -90 -127 -134.5t-45 -46.5q-51 -49 -99 -85.5t-93 -63.5 q-113 -63 -225 -64q-51 0 -83 34t-32 77zM655.5 1501q6.5 45 38 76t94.5 31q29 0 56.5 -27t54.5 -57.5t49.5 -57t38.5 -26.5q68 0 143.5 22.5t155.5 73.5q18 12 39 12q41 0 41 -51q0 -53 -55.5 -100t-130 -83t-150.5 -57.5t-119 -21.5q-133 0 -202 88q-31 37 -45.5 85t-8 93 z" />
<glyph unicode="&#x43a;" horiz-adv-x="1067" d="M53 131q0 57 12.5 142t32 174.5t42 172t40.5 138.5q12 37 31.5 88t41 97t44 78t41.5 34q23 2 51.5 -6.5t54 -22.5t43 -34.5t15.5 -43.5q-2 -18 -16.5 -72.5t-36 -129t-49 -164.5t-58.5 -179q51 68 102.5 131.5t102.5 120.5q135 156 233 246q123 111 183 111q49 0 59 -29 t10 -104q0 -102 -65 -146q-68 -45 -112 -70.5t-87 -68.5l-14 -14t-37 -39q12 -45 39.5 -88t70.5 -76q37 -27 86.5 -56.5t95.5 -57t77.5 -51.5t31.5 -40q4 -18 -13.5 -47t-46 -55.5t-62 -46t-64.5 -19.5q-47 0 -103.5 29.5t-113 77t-106.5 105.5t-83 118q-98 -113 -190 -193 q-133 -115 -205 -114q-39 0 -58.5 32.5t-19.5 71.5z" />
<glyph unicode="&#x43b;" horiz-adv-x="1032" d="M-10 86q0 27 6 62.5t17.5 69.5t24.5 58.5t28 28.5q2 0 18 -2t36.5 -5l41 -6t33.5 -3q29 0 70.5 38t84.5 93t83 117.5t63 111.5q18 37 40.5 84t49 92t55.5 79t61 44q119 39 199 39q45 0 55.5 -27.5t10.5 -97.5q0 -20 -9.5 -91t-19.5 -152.5t-19.5 -152.5t-9.5 -91 q0 -18 18.5 -54t41 -73t40 -70t15.5 -47q-4 -16 -24.5 -40.5t-47 -47.5t-53.5 -38t-41 -15q-59 0 -98 38t-60.5 90t-29.5 108.5t-8 95.5q0 166 30 313q-78 -156 -129 -252q-47 -88 -82 -150.5t-61 -97.5q-57 -80 -118.5 -112.5t-133.5 -32.5q-29 0 -60.5 7t-57 20.5t-43 31 t-17.5 37.5z" />
<glyph unicode="&#x43c;" horiz-adv-x="1658" d="M14 100q0 27 5.5 63t15.5 67.5t26.5 53t40.5 21.5q4 0 21.5 -3t39 -5t41 -5t27.5 -3q29 0 71 38t86 93t84 117.5t65 111.5q76 141 131 223q43 66 74.5 96.5t54 43t37 12.5h26.5t35 -4t37 -4q27 0 54.5 -41t27.5 -92q0 -16 -10.5 -87t-24.5 -156t-27.5 -166t-19.5 -116 q201 309 323 476q135 182 185 182q41 0 67.5 -23.5t26.5 -72.5q0 -18 -4 -53.5t-8 -76t-8.5 -81.5t-4.5 -72q0 -12 -1 -35.5t-1 -50.5t-1 -49.5t-1 -28.5v-76q2 -37 23.5 -70.5t46 -64.5t44 -60.5t19.5 -56.5q0 -18 -12 -50t-30.5 -62.5t-41 -52t-45.5 -21.5q-80 0 -142 39 t-95 106q-25 55 -33 124t-8 163v37q-51 -63 -102.5 -129t-102.5 -127q-166 -190 -264 -190q-51 0 -81 35.5t-30 82.5l60 375l6 36t10 50.5t12 50t11 31.5q-37 -74 -71 -138.5t-67 -119.5q-70 -125 -120 -200.5t-95 -117.5t-89 -57.5t-101 -19.5q-25 0 -58.5 8t-63.5 22.5 t-50.5 35t-20.5 44.5z" />
<glyph unicode="&#x43d;" horiz-adv-x="1097" d="M-18 418q0 43 53 82.5t137 68.5q12 39 39 119t60.5 160t72.5 141.5t74 65.5q20 2 49 -6.5t53.5 -22.5t41 -34.5t11.5 -43.5q0 -2 -15 -43t-34.5 -93t-38 -100t-24.5 -65q102 18 197.5 30.5t154.5 12.5q23 72 47.5 135.5t52.5 122.5q23 49 76 80t92 31q37 0 48.5 -18.5 t11.5 -57.5v-55q-23 -86 -46.5 -176t-42 -169t-30.5 -140.5t-12 -88.5q0 -31 9 -62.5t19.5 -59t17.5 -49t5 -29.5q-2 -14 -22.5 -40t-50.5 -50.5t-61.5 -42t-56.5 -17.5q-31 0 -56.5 21.5t-43.5 54.5t-28.5 73t-10.5 78q0 80 21 183q-55 12 -115 12q-49 0 -108.5 -10 t-159.5 -33q-6 -23 -8.5 -72t-11.5 -103t-31.5 -105.5t-69.5 -77.5q-57 -33 -117 -33q-37 0 -54.5 34.5t-17.5 71.5q0 57 12.5 108.5t30.5 123.5q-55 0 -87.5 21.5t-32.5 66.5z" />
<glyph unicode="&#x43e;" horiz-adv-x="917" d="M14 221q0 133 60 295q47 129 100 203q133 188 217 258q66 53 117 53q25 0 52.5 -23.5t27.5 -52.5q0 -43 -51.5 -121.5t-114 -170t-113.5 -182.5t-51 -158q0 -41 25.5 -71t74.5 -30q115 0 207 144q84 133 84 264q0 18 -7 51t-15.5 69.5t-15.5 71.5t-7 56q0 51 46 81.5 t115 48t149.5 22.5t148.5 5q41 0 71.5 -13t30.5 -34q0 -41 -32.5 -78t-69.5 -41q-18 -4 -47 -11t-61.5 -15t-61.5 -14.5t-47 -6.5q16 -23 26.5 -36t15.5 -27.5t7 -33.5t2 -52q0 -184 -100 -346q-80 -131 -228 -254q-66 -55 -125 -76t-165 -21q-117 0 -191 62.5t-74 183.5z " />
<glyph unicode="&#x43f;" horiz-adv-x="1052" d="M27 111q0 94 18 205.5t48 225t67 219t76 185.5q49 102 83 107q20 2 50 -6.5t56 -23.5t43 -35.5t15 -43.5q-4 -45 -23.5 -119.5t-45 -155.5t-51 -158t-39.5 -126q94 127 208 258q70 80 128.5 142.5t109.5 107.5q125 113 186 113q49 0 59.5 -29t10.5 -105q0 -20 -8 -91.5 t-19.5 -154.5t-19.5 -155t-8 -92q0 -29 4 -63.5t51 -127.5q18 -39 16 -57q-4 -14 -24.5 -39.5t-48 -50.5t-58 -42t-55.5 -17q-45 0 -76.5 33.5t-51 81.5t-28 100.5t-8.5 87.5q0 53 10.5 120.5t26.5 153.5q-37 -51 -80 -106.5t-94 -112.5q-41 -47 -79 -87t-70 -71 q-121 -113 -146 -127q-78 -53 -151 -53q-39 0 -60.5 35t-21.5 74z" />
<glyph unicode="&#x440;" horiz-adv-x="983" d="M-100 -541q0 16 18.5 101.5t45 203t57 247.5t56 235.5t41 169t11.5 45.5q12 51 27.5 113.5t34 127t37 127t36.5 115.5q29 80 76 105q29 14 96 14q43 0 57.5 -18.5t14.5 -57.5q0 -35 -10 -86q88 74 141 109q100 63 166 63q125 0 177 -77.5t52 -286.5q0 -199 -194 -453 q-205 -266 -389 -266q-39 0 -91.5 22.5t-97.5 53.5q-12 -45 -21.5 -120t-19.5 -161t-25.5 -175t-38 -161t-56 -118t-83.5 -46q-76 0 -97 48.5t-21 125.5zM307 240q10 20 31.5 35.5t46.5 15.5q20 -2 47 -28.5t62 -26.5q49 0 98 54t88 128t62.5 147.5t23.5 110.5q0 84 -6 106 q-12 41 -51 41q-125 0 -201 -104q-20 -27 -50 -88.5t-58.5 -133t-54.5 -142t-38 -115.5z" />
<glyph unicode="&#x441;" horiz-adv-x="823" d="M43 227q0 39 12.5 91.5t31.5 105.5t43 104.5t48 85.5q61 88 126 161t134 132q168 141 305 142q59 0 106.5 -32t47.5 -87q0 -41 -22.5 -61.5t-53 -31t-64.5 -13.5t-57 -9q-63 -16 -128.5 -72.5t-118 -130t-86 -153.5t-33.5 -146q0 -51 47 -51q39 0 94 21.5t116.5 52.5 t122 65.5t107.5 59.5q45 0 63.5 -25.5t18.5 -60.5q0 -86 -182 -228q-223 -170 -479 -170q-104 0 -151.5 69t-47.5 181z" />
<glyph unicode="&#x442;" horiz-adv-x="1630" d="M41 100q10 45 18.5 80t16.5 62q14 57 35.5 127.5t42.5 152.5q20 84 36.5 171t38.5 171q49 180 177 180q70 0 69 -79q0 -16 -3 -44t-3 -34q0 -8 -11.5 -65.5t-27.5 -132.5t-32.5 -150.5t-26.5 -120.5q8 0 38.5 31.5t72.5 80t88 104.5t84 104t64 81l27 33q139 154 203 154 q18 0 38 -14.5t35 -36t25.5 -44t10.5 -39.5q0 -2 -15.5 -73.5t-35 -160.5t-37 -167t-19.5 -94q41 51 83 103t83 104q141 174 240 282q131 143 170 144q39 0 64.5 -23.5t25.5 -71.5q0 -35 -25 -92q-29 -70 -45 -120t-25.5 -96t-11.5 -95t-2 -117q0 -39 17.5 -70.5t39 -60 t39 -55.5t17.5 -55q0 -23 -13.5 -53.5t-35 -59.5t-44.5 -49.5t-46 -20.5q-78 0 -136.5 38t-87.5 104q-12 31 -16 67.5t-4 83.5q0 31 2 87.5t2 76.5q-53 -63 -107.5 -125.5t-109.5 -124.5q-88 -96 -158.5 -142t-113.5 -46q-49 0 -76 36.5t-27 82.5l88 366q2 8 8.5 31.5 t12.5 49.5t12 49.5t10 31.5q-16 -16 -149 -207q-70 -100 -131.5 -178t-112.5 -135q-152 -164 -237 -164q-57 0 -83 45t-26 102z" />
<glyph unicode="&#x443;" horiz-adv-x="1001" d="M-180 -498q0 10 15 31t38 42.5t48.5 38.5t47.5 19q6 0 39 -47t77 -104t92 -105.5t85 -48.5q92 0 166 140q25 45 50.5 120.5t50 162.5t47 176t40.5 161q10 41 19.5 77t21 75t26 85t34.5 107q-14 -14 -59.5 -59t-120.5 -123q-129 -131 -197 -184q-113 -84 -188 -84 q-57 0 -88 55t-31 123q0 35 10 110.5t29.5 168.5t47 192.5t64.5 181.5t82 135t96 53q39 0 65 -31.5t26 -70.5q0 6 -12.5 -33t-31 -100t-40 -135t-40 -135.5t-30.5 -100.5t-12 -30q0 -37 8 -60.5t39 -23.5t76 38.5t95 100t102 135.5t96.5 142.5t76 124t41.5 77.5 q20 41 60.5 68.5t79.5 27.5q41 0 56 -15t15 -62q0 -154 -90 -515q-31 -121 -61.5 -227t-59.5 -194q-23 -72 -44 -145t-44 -144q-41 -127 -92 -229.5t-102 -176.5q-145 -207 -312 -207q-121 0 -258 129q-150 141 -149 293z" />
<glyph unicode="&#x444;" horiz-adv-x="1509" d="M-2 240v53q0 92 15.5 163.5t72.5 157.5q117 170 264 287q170 133 326 133q49 0 80 -39q19 -20 35 -73q6 20 23 77.5t37.5 121t39 119.5t24.5 77q27 82 78 106q27 14 94 15q33 0 45.5 -14.5t12.5 -39.5v-9t-4 -26.5t-17.5 -66.5t-38.5 -131q-43 -147 -73 -240 q53 33 97 54.5t77 35.5q80 33 153 33q100 0 164 -82q74 -92 74 -243q0 -199 -195 -453q-205 -266 -391 -266q-39 0 -93 25.5t-112 60.5q-25 -88 -61 -252q-14 -63 -24.5 -102t-16.5 -67t-8 -51.5t-2 -56.5q0 -27 8 -67.5t8 -67.5q0 -61 -48 -115.5t-124 -54.5 q-72 0 -96.5 45t-24.5 129q0 18 16.5 85t41 156t53.5 187.5t53.5 180t39.5 133t13 45.5q-90 -96 -163 -148q-96 -66 -179 -65q-113 0 -193.5 72.5t-80.5 177.5zM236 350q0 -51 33.5 -80.5t80.5 -29.5q23 0 58.5 21.5t78.5 55t90.5 76.5t96.5 88q16 74 30.5 135t45.5 170 q-23 -23 -44.5 -25.5t-40 3.5t-34 14t-27.5 8q-84 0 -221 -147q-147 -160 -147 -289zM848 240q12 20 32.5 35.5t47.5 15.5q18 -2 44.5 -28.5t61.5 -26.5q51 0 100.5 54t88.5 126.5t62.5 146.5t23.5 113q0 70 -11.5 90t-54.5 20q-37 0 -81 -23.5t-87 -65.5t-81 -97t-64 -121 q-16 -41 -40 -113.5t-42 -125.5z" />
<glyph unicode="&#x445;" horiz-adv-x="991" d="M-8 2q0 43 32.5 97.5t88 118t129 137l157.5 157.5q-78 117 -211 250q-4 4 -25.5 17.5t-46 32.5t-45 43t-20.5 46q0 16 17.5 42t44 50.5t56.5 42t54 17.5q72 0 160 -80t207 -254q106 113 173.5 179.5t94.5 88.5q106 88 166 88q35 0 61.5 -24.5t26.5 -49.5q0 -37 -46 -97 t-109.5 -124.5t-133 -127t-114.5 -105.5q20 -37 42.5 -74t45.5 -72q55 -86 86 -86q57 6 73.5 -28.5t16.5 -100.5q0 -90 -68 -143q-59 -47 -135 -47q-20 0 -61 46t-83 104.5t-76 110.5t-42 65q-47 -47 -81 -80t-52 -54q-84 -90 -90 -127q-18 -90 -55 -141t-119 -51 q-53 0 -86 40t-33 93z" />
<glyph unicode="&#x446;" horiz-adv-x="1144" d="M27 82q0 78 25.5 192.5t58.5 245.5q25 106 52 188.5t56 139.5q74 139 172 139q27 0 50.5 -21.5t23.5 -39.5q0 -66 -37 -160q-10 -27 -24.5 -64.5t-26.5 -74.5t-22.5 -66t-12.5 -39q-29 -102 -29 -137v-27q0 -39 41 -39q29 0 72 31t93 78t102.5 101.5t97.5 103.5 q49 180 112 256q49 57 111 57q35 0 56.5 -25.5t21.5 -64.5q0 -68 -27 -166q-2 -8 -16 -55t-41 -133q-16 -57 -33.5 -120t-17.5 -103q-2 -6 -2 -27q0 -55 32 -55q6 0 24.5 4t41.5 9t47.5 9t38.5 4q45 0 73.5 -30.5t28.5 -71.5q0 -5 -4 -25q-47 -133 -72.5 -218t-25.5 -132 q-2 -8 -2 -16.5v-12.5q0 -23 8 -61.5t4 -61.5q-6 -68 -50 -117.5t-112 -49.5q-72 0 -93 43t-21 120q0 31 10 83.5t28.5 112.5t42 124.5t50.5 120.5q-37 -23 -93.5 -37t-108.5 -11t-90 28.5t-38 84.5q0 47 17.5 117t27.5 115q-182 -209 -219 -240q-129 -111 -283 -111 q-43 0 -80.5 32t-37.5 73z" />
<glyph unicode="&#x447;" horiz-adv-x="882" d="M68 590q0 37 6 76q4 23 22.5 83t46 123.5t60.5 112.5t63 49q37 0 74 -32.5t37 -75.5q0 -45 -27.5 -111.5t-46 -127t-9.5 -103.5t83 -43q35 0 59.5 6t48 20.5t52 38t71.5 60.5q23 63 49 135q10 23 24.5 54.5t33.5 70.5q25 49 79 78.5t93 29.5q29 0 41 -12t16 -30.5t2 -42 t-2 -46.5q-63 -193 -104 -348q-47 -172 -47 -225q0 -27 8 -58.5t17 -60.5t15.5 -50.5t4.5 -31.5q-4 -12 -27 -36.5t-53.5 -49.5t-62 -43t-56.5 -18q-31 0 -55.5 20.5t-42 52t-25.5 69.5t-8 75q0 39 8 88t21 104q-94 -53 -158 -73.5t-113 -20.5q-33 0 -67.5 17.5t-62 42 t-45 53t-17.5 53.5q0 31 -3 78t-3 49z" />
<glyph unicode="&#x448;" horiz-adv-x="1722" d="M27 82q0 78 25.5 192.5t58.5 245.5q25 106 52 188.5t56 139.5q74 139 172 139q27 0 50.5 -21.5t23.5 -39.5q0 -66 -37 -160q-10 -27 -24.5 -64.5t-26.5 -74.5t-22.5 -66t-12.5 -39q-29 -102 -29 -137v-27q0 -39 41 -39q33 0 77 31t94 80t107.5 110.5t117.5 127.5 q45 145 102 225q66 90 145 90q27 0 49.5 -22.5t22.5 -40.5q0 -43 -25.5 -118t-46.5 -134q-18 -53 -30.5 -90t-18.5 -60q-29 -98 -28 -135v-29q0 -20 8 -30.5t33 -10.5t66.5 34t89.5 81t96.5 100.5t80.5 89.5q45 176 127 263q57 61 127 61q35 0 55.5 -26.5t20.5 -65.5 q0 -2 -13.5 -56.5t-27.5 -123t-27.5 -136t-13.5 -98.5q0 -39 11.5 -82t39.5 -82q29 -39 58.5 -75.5t58.5 -73.5q0 -20 -15.5 -46t-37 -49.5t-47 -39t-47.5 -15.5q-70 0 -118 38t-81 93.5t-51.5 120t-28.5 119.5l-95 -105t-59 -63q-92 -92 -174 -141q-100 -57 -208 -58 q-43 0 -79 30t-36 69q0 45 8 92q4 12 37 182q-182 -207 -234 -250q-145 -123 -299 -123q-43 0 -80.5 32t-37.5 73z" />
<glyph unicode="&#x449;" horiz-adv-x="1689" d="M10 100q0 47 17 142q2 8 17 81.5t46 213.5q49 213 113 329q74 139 172 140q27 0 49 -22.5t22 -41.5q0 -43 -25.5 -115.5t-45.5 -134.5q-14 -35 -27.5 -72.5t-23.5 -76.5q-29 -102 -29 -137q0 -43 5 -55.5t38 -12.5q68 0 147.5 84t216.5 229q20 78 46 139.5t55 108.5 q70 106 147 107q27 0 50.5 -21.5t23.5 -42.5q0 -47 -24.5 -118.5t-49.5 -131.5q-47 -150 -47 -149q-29 -104 -29 -137v-27q0 -20 8.5 -30.5t32.5 -10.5q29 0 68 26.5t86 70.5t100.5 100.5t110.5 115.5q47 180 111 258q49 57 112 58q35 0 55.5 -27t20.5 -66q0 -37 -6 -73.5 t-19.5 -89t-35 -125t-52.5 -178.5q-23 -74 -24 -113q-2 -33 7 -57.5t28 -24.5q16 0 59 14.5t88 14.5t75 -30t30 -71q0 -4 -1.5 -11t-3.5 -17q-41 -131 -70.5 -222.5t-29.5 -128.5q0 -35 8 -73.5t8 -53.5q0 -16 -8 -46.5t-26.5 -63.5t-50 -56.5t-78.5 -23.5q-74 0 -94.5 42 t-20.5 122q0 57 35 173t96 269q-90 -51 -209 -51q-53 0 -89 26.5t-36 86.5q0 43 8 82q0 6 39 149q-182 -205 -219 -235q-131 -113 -282 -113q-43 0 -80 30.5t-37 73.5q0 35 12 108t29 136q-94 -104 -148.5 -162.5t-70.5 -72.5q-131 -113 -283 -113q-43 0 -80 30.5t-37 73.5z " />
<glyph unicode="&#x44a;" horiz-adv-x="1060" d="M49 956q0 43 19.5 71t81.5 28q45 0 95 -30t105 -30q10 0 48 20.5t81 45t81 45t48 20.5q39 0 62.5 -19.5t23.5 -51.5q0 -12 -11 -61.5t-26.5 -108t-30 -112.5t-22.5 -81q68 47 137.5 66.5t149.5 19.5q39 0 70.5 -20.5t53 -52t33 -71.5t11.5 -79q0 -205 -125 -348 q-47 -57 -112.5 -102.5t-147.5 -79.5q-129 -53 -209 -54q-43 0 -88 17.5t-80 46t-57.5 66.5t-22.5 79q0 23 14.5 72t32 104.5t34.5 103.5t24 66q12 39 25 83t26.5 84t24 73t16.5 51q-39 -12 -98.5 -24.5t-98.5 -12.5q-102 0 -135 45t-33 131zM489 295q0 -35 26 -58.5 t89 -23.5q33 0 70 23.5t67.5 57.5t51 74t20.5 72q0 72 -21.5 103.5t-68.5 31.5q-37 0 -93.5 -26.5t-82.5 -56.5q-20 -57 -39 -112.5t-19 -84.5z" />
<glyph unicode="&#x44b;" horiz-adv-x="1406" d="M27 229q0 119 36 248q6 23 40 111t98 239q39 88 100 147.5t148 59.5q27 0 45 -38t18 -66q0 -20 -23 -70q-39 -86 -64.5 -143.5t-35.5 -83.5q-14 -35 -26.5 -73t-22.5 -77q-35 -123 -35 -176q0 -49 44 -63.5t100 -14.5q41 0 74.5 19.5t58 51.5t39 72t14.5 83q-6 -2 -23 -2 q-51 0 -84.5 43t-33.5 92q0 35 13 70.5t35.5 65.5t54.5 49.5t67 19.5q129 0 180 -86q78 29 171 90t169 133q47 45 86 67.5t88 22.5q37 0 54.5 -33t17.5 -76q0 -23 -20.5 -101.5t-44.5 -168.5t-44.5 -170t-20.5 -102q0 -20 14.5 -42t32 -42.5t32 -40t14.5 -37.5 q0 -20 -14.5 -60.5t-37 -80t-49 -69.5t-53.5 -30q-49 0 -87 24.5t-62.5 65.5t-38 93.5t-13.5 107.5q0 90 20.5 177t59.5 227q2 2 -28.5 -19.5t-72.5 -49.5t-83 -56.5t-57 -42.5q0 -66 -15.5 -127.5t-46.5 -137.5q-49 -123 -174 -192.5t-307 -69.5q-45 0 -98.5 23.5 t-99.5 60.5t-77.5 84t-31.5 94z" />
<glyph unicode="&#x44c;" horiz-adv-x="897" d="M39 178q0 94 35 211q8 29 24.5 71t36 89t37.5 93t31 81q53 145 104 238q25 47 59.5 70.5t88.5 23.5q43 0 64.5 -13.5t21.5 -58.5q0 -20 -13.5 -57t-32 -79t-39 -83t-34.5 -72q68 47 137.5 66.5t149.5 19.5q41 0 71.5 -20.5t52 -52t33 -71.5t11.5 -79q0 -205 -125 -348 q-47 -57 -113 -102.5t-147 -79.5q-129 -53 -209 -54q-43 0 -87 17.5t-79 46t-56.5 65.5t-21.5 78zM307 295q0 -35 25.5 -58.5t89.5 -23.5q33 0 69.5 23.5t67.5 57.5t51.5 74t20.5 72q0 72 -21.5 103.5t-68.5 31.5q-37 0 -93.5 -26.5t-82.5 -56.5q-20 -57 -39 -112.5 t-19 -84.5z" />
<glyph unicode="&#x44d;" horiz-adv-x="954" d="M51 111q0 68 21.5 120t81.5 52q55 0 108 -31t117 -31q100 0 169 47.5t120 139.5l-189 -5q-92 0 -145 -18q-12 -4 -23 -10q-61 0 -97 20.5t-36 65.5q0 53 37 85t97.5 49t134 22.5t147.5 5.5q57 0 81.5 -16.5t51.5 -43.5q10 39 20.5 70t4.5 53q0 76 -34 117t-110 41 q-61 0 -121.5 -17.5t-124.5 -35.5q-47 0 -71.5 26.5t-24.5 59.5q0 31 31 63.5t84 59t120.5 44t141.5 17.5q160 0 242 -107q80 -102 80 -256q0 -92 -19.5 -191t-58.5 -171q-88 -162 -225.5 -265.5t-282.5 -103.5q-49 0 -106.5 7.5t-106.5 23.5t-82 44t-33 69z" />
<glyph unicode="&#x44e;" horiz-adv-x="1449" d="M0 383q0 47 47 85t133 69q10 45 33 125.5t52.5 159.5t62 137.5t63.5 60.5q20 4 49 -4t55.5 -23.5t44 -35t13.5 -42.5q0 -10 -10.5 -47t-24.5 -83t-29.5 -93t-25.5 -78q76 14 126 18.5t97 4.5h29q8 14 29.5 48t25.5 38q127 182 270 281q106 74 168 73q27 0 52.5 -23.5 t25.5 -52.5q0 -39 -46 -84t-95 -83q-86 -80 -176 -222q-115 -182 -115 -286q0 -45 24.5 -73t75.5 -28q113 0 205 144q84 133 84 264q0 12 -7 37.5t-14.5 53.5t-14.5 53.5t-7 39.5q-4 33 19.5 58.5t78.5 27.5q25 8 54.5 -8t56.5 -40t47.5 -47.5t24.5 -29.5q10 -25 10 -102 q0 -186 -98 -346q-39 -59 -95.5 -125t-132.5 -129q-63 -53 -126.5 -73.5t-166.5 -20.5q-115 0 -189.5 62t-74.5 181q0 33 4.5 81t10.5 87l-232 -43q-6 -27 -10 -66.5t-7 -78.5t-5 -69t-2 -40q-10 -63 -66.5 -100t-120.5 -37q-37 0 -58.5 35t-21.5 72q0 92 27 231 q-57 0 -92 21.5t-35 64.5z" />
<glyph unicode="&#x44f;" horiz-adv-x="1060" d="M-23 154q6 25 20.5 54.5t33 55t39 42t34.5 16.5q12 0 37 -8.5t48.5 -18.5t43 -18.5t23.5 -8.5q51 0 115.5 50.5t122.5 109.5q-43 8 -83 33.5t-69 62.5t-46 82t-17 90q0 16 3 37t5 33q10 43 46 83t85 73.5t105.5 58.5t105.5 39q88 25 154.5 35t131.5 10q33 0 69 -3t77 -5 q31 0 53.5 -38t15.5 -75q-2 -29 -22.5 -48t-44.5 -28q-14 -45 -34.5 -124.5t-39 -164.5t-32 -163t-13.5 -119t25.5 -82t25.5 -80q0 -20 -29.5 -43.5t-68.5 -45t-76 -36t-51 -14.5q-51 0 -73.5 57.5t-22.5 130.5q0 82 31 205q-25 -33 -59 -70.5t-70.5 -76.5t-72.5 -75 t-67 -63q-72 -61 -122 -84.5t-119 -23.5q-33 0 -73 16.5t-74 41t-55.5 51t-15.5 49.5zM516 676q0 -45 47 -65.5t99 -20.5q23 0 51.5 3t44.5 5l84 256q-16 0 -49 5t-43 5q-35 0 -76 -15t-76 -41t-58.5 -60.5t-23.5 -71.5z" />
<glyph unicode="&#x451;" horiz-adv-x="841" d="M45 291q0 115 51 251t137 253.5t200 196.5t239 79q82 0 132 -48t50 -126q0 -92 -12 -135q-10 -37 -35 -83t-59.5 -92t-76.5 -87t-87 -66q-59 -35 -122 -68.5t-122 -66.5q4 -25 11 -38t24 -13q88 0 231.5 39t286.5 82q49 0 49 -70q0 -39 -44 -77t-112.5 -71.5 t-150.5 -63.5t-158 -51.5t-136 -33.5t-85 -12q-47 0 -86 29.5t-66.5 73.5t-43 97.5t-15.5 100.5zM244 1346q4 6 25.5 47t55 89t58.5 48q53 0 104 -47q43 -41 43 -72q0 -63 -45 -110.5t-108 -47.5q-68 0 -100.5 28t-32.5 65zM322 477q35 16 69.5 41t71.5 53q27 20 48 41 t42 41q45 47 62.5 67.5t17.5 65.5q-8 18 -18.5 33t-22.5 15q-57 0 -109.5 -57.5t-97.5 -149.5q-14 -29 -29.5 -66t-33.5 -84zM670 1354q0 8 12 38.5t31.5 63.5t44 58.5t47.5 25.5q49 0 94 -45t45 -88q0 -76 -33.5 -120t-109.5 -44q-131 0 -131 111z" />
<glyph unicode="&#x452;" horiz-adv-x="1175" d="M-190 -399q0 10 15 29.5t37.5 41t49.5 39t47 21.5q6 2 40 -46t78 -105.5t91 -105.5t84 -48q104 0 184 124q4 6 54.5 129t148.5 363q41 96 71.5 227t57.5 246q12 53 17.5 82t5.5 78q-6 -6 -43 -50t-83.5 -99.5t-90.5 -107.5t-64 -77q-170 -188 -270 -260q-72 -49 -125 -49 q-45 0 -64.5 30.5t-25.5 75.5l297 1008q-39 -4 -65 -7t-36 -1q-45 0 -60.5 12t-15.5 59q0 55 72 105.5t180 83.5q29 106 43 139q59 139 158 139q61 0 84 -18.5t23 -52.5q0 -25 -8.5 -65t-22.5 -101q72 0 124 5t117 5q133 0 181 -35q33 -25 32 -84q-12 -121 -188 -121 q-55 0 -141 -5t-201 -15q-10 -31 -40 -117t-65.5 -191.5t-71.5 -214t-56 -184.5l90 97q70 76 131 168t125 174q176 219 270 219q43 0 65.5 -58.5t22.5 -203.5q0 -166 -88 -510q-33 -129 -57.5 -213t-49 -153t-53 -137.5t-69.5 -166.5q-47 -111 -103.5 -198t-109.5 -148 q-154 -174 -322 -174q-119 0 -258 129q-150 141 -149 293z" />
<glyph unicode="&#x453;" horiz-adv-x="667" d="M2 223q0 39 24.5 81t66.5 85t95.5 88t108.5 88q125 98 149 135q20 27 21 78q0 14 -25 15q-25 0 -56.5 -20.5t-65 -45.5t-65 -45t-56.5 -20q-14 0 -31.5 11t-33 28.5t-26 38t-10.5 38.5q0 49 46 101.5t110.5 96.5t132.5 71.5t109 27.5q88 0 154.5 -43t66.5 -117 q0 -164 -82 -270q-41 -49 -143 -147q-25 -23 -59 -50.5t-63.5 -58.5t-51 -60.5t-21.5 -56.5q0 -25 31 -24q86 0 195.5 61.5t221.5 126.5q29 0 45.5 -20.5t16.5 -48.5q0 -57 -63.5 -124t-148.5 -123.5t-171 -94t-133 -37.5q-115 0 -197 63q-92 72 -92 172zM326 1274 q0 37 37.5 78t97 81t131.5 75.5t138.5 63t121.5 44t80 16.5q123 0 123 -53q0 -39 -10.5 -80t-31 -74.5t-50 -56t-66.5 -22.5t-90 -15.5t-118.5 -39t-136.5 -53.5t-140 -56q-10 0 -24.5 11t-29 25.5t-23.5 31t-9 24.5z" />
<glyph unicode="&#x454;" horiz-adv-x="858" d="M43 227q0 39 12.5 91.5t31.5 105.5t43 104.5t48 85.5q61 88 126 161t134 132q168 141 305 142q59 0 106.5 -32t47.5 -87q0 -70 -53 -86q-119 -10 -203 -54.5t-170 -150.5q33 0 54.5 5t58.5 5q92 0 145 19q12 4 23 10q61 0 97 -20.5t36 -65.5q0 -53 -37 -85t-97.5 -49.5 t-134 -22.5t-147.5 -5h-55q-27 0 -33.5 5.5t-20.5 15.5q-27 -68 -26 -138q0 -47 20.5 -61t71.5 -14q66 0 184 61q33 18 90.5 53t112.5 57.5t96 18.5t41 -63q0 -84 -207 -224q-244 -164 -501 -164q-104 0 -151.5 69t-47.5 181z" />
<glyph unicode="&#x455;" horiz-adv-x="837" d="M-61 27q0 45 30.5 75.5t77.5 50t103.5 27.5t105.5 8q57 0 99 28t42 56q2 10 -19.5 61.5t-47 111t-47 111.5t-21.5 67q0 158 193 348q205 203 409 203q37 0 80 -35t43 -76q0 -25 -32.5 -81t-81 -112.5t-100.5 -98.5t-93 -38q-20 0 -41 20.5t-21 39.5q0 10 6.5 26.5 t6.5 24.5q0 20 -23 20q-37 0 -70.5 -43t-33.5 -98q0 -31 18.5 -59.5t36.5 -57.5l21 -38q22 -38 47.5 -86t47 -93t21.5 -61q0 -92 -137 -228q-174 -172 -414 -172q-100 0 -139 13q-68 23 -67 86z" />
<glyph unicode="&#x456;" horiz-adv-x="538" d="M39 184q0 43 20.5 129t49 181.5t62.5 185.5t58 143q94 203 177 203q39 0 58 -35t19 -88q0 -63 -67 -252q-10 -25 -40 -88t-30 -117q0 -18 5 -40.5t12.5 -46t12.5 -42t5 -26.5q0 -37 -31 -107q-80 -180 -207 -180q-66 0 -85 53.5t-19 126.5zM326 1384q0 18 18 49t44 61 t53.5 52.5t45.5 22.5q29 0 60 -16.5t58.5 -42t45 -57t17.5 -62.5q0 -14 -16.5 -45t-40 -61t-48 -52.5t-43.5 -22.5q-18 0 -50 20.5t-64.5 49.5t-56 57.5t-23.5 46.5z" />
<glyph unicode="&#x457;" horiz-adv-x="538" d="M39 184q0 43 20.5 129t49 181.5t62.5 185.5t58 143q94 203 177 203q39 0 58 -35t19 -88q0 -63 -67 -252q-10 -25 -40 -88t-30 -117q0 -18 5 -40.5t12.5 -46t12.5 -42t5 -26.5q0 -37 -31 -107q-80 -180 -207 -180q-66 0 -85 53.5t-19 126.5zM90 1374q0 18 18.5 49t44 60.5 t53 52.5t46.5 23q27 0 58.5 -16.5t59 -42t45 -57.5t17.5 -63q0 -16 -16.5 -45.5t-39 -59.5t-48 -52.5t-43.5 -22.5t-50 20.5t-65 49t-56.5 57.5t-23.5 47zM510 1384q0 18 18.5 49t44 61t53 52.5t46.5 22.5q29 0 59.5 -16.5t58 -42t45 -57t17.5 -62.5q0 -14 -16.5 -45 t-40 -61t-48 -52.5t-42.5 -22.5t-50 20.5t-65 49.5t-56.5 57.5t-23.5 46.5z" />
<glyph unicode="&#x458;" horiz-adv-x="788" d="M-328 -244q0 76 47.5 131.5t100.5 55.5q27 0 55.5 -27t55 -61.5t51 -70.5t41.5 -52q27 -31 41 -46.5t73 -15.5q29 0 51.5 43t41 113t34 161t31.5 185q12 80 26.5 164t27.5 166t28.5 156.5t32.5 132.5q25 88 96 153q61 55 108 55q41 0 58.5 -19.5t17.5 -74.5q0 2 -9 -42 t-24.5 -112.5t-33 -150.5t-33 -160t-28.5 -139t-17 -86q-20 -94 -38 -186t-38 -185q-23 -102 -53.5 -180t-61.5 -127q-80 -127 -202 -127q-53 0 -111.5 25.5t-116 63.5t-107.5 82t-87 81q-57 57 -58 94zM399 1337q0 16 19.5 47t45 62t53.5 53.5t44 22.5q29 0 60.5 -16.5 t58.5 -43t45 -58.5t18 -63q0 -18 -16 -48.5t-39.5 -59.5t-49.5 -50.5t-44 -21.5q-16 0 -49 21.5t-66 50.5t-56.5 58.5t-23.5 45.5z" />
<glyph unicode="&#x459;" horiz-adv-x="1366" d="M-4 117q0 27 6 62.5t17.5 69.5t24.5 58.5t28 28.5q2 0 18 -2t36.5 -5t41 -6.5t33.5 -3.5q25 0 79 43.5t114.5 102.5t111.5 120.5t69 100.5q18 37 41 84t49.5 92t55.5 79t61 44q63 20 106.5 26.5t100.5 6.5q43 0 64.5 -13.5t21.5 -58.5q0 -20 -13 -57t-31.5 -79t-39 -83 t-35.5 -72q68 47 137.5 66.5t149.5 19.5q39 0 71 -20.5t53.5 -52t32.5 -71.5t11 -79q0 -205 -125 -348q-47 -57 -112.5 -102t-147.5 -80q-129 -53 -209 -54q-47 0 -91 16.5t-78 44.5t-55.5 63.5t-21.5 76.5t10.5 91t26 102.5t33.5 101.5t33 88q-33 -51 -60.5 -95t-52.5 -79 q-78 -115 -135 -178q-127 -145 -252 -146q-29 0 -60.5 7.5t-57 20.5t-43 30.5t-17.5 38.5zM842 258q0 -35 25.5 -58.5t88.5 -23.5q33 0 70 23.5t67.5 57.5t51 74t20.5 72q0 72 -21.5 104t-68.5 32q-37 0 -93 -27t-83 -57q-20 -57 -38.5 -112.5t-18.5 -84.5z" />
<glyph unicode="&#x45a;" horiz-adv-x="1488" d="M-18 418q0 43 53 83t137 68q12 39 39 119t60.5 160t72.5 141.5t74 65.5q20 2 49 -6.5t53.5 -22.5t41 -34.5t11.5 -43.5q0 -2 -15 -43t-34.5 -93t-38 -100t-24.5 -65q102 18 197.5 30.5t154.5 12.5q10 25 18.5 46.5t22.5 51t34.5 70.5l51.5 103q25 47 59.5 70.5t87.5 23.5 q43 0 65 -13.5t22 -58.5q0 -20 -13.5 -57t-32 -79t-39 -83t-34.5 -72q68 47 137.5 66.5t148.5 19.5q39 0 71 -20.5t53.5 -52t32.5 -71.5t11 -79q0 -205 -125 -348q-47 -57 -112.5 -102.5t-147.5 -79.5q-129 -53 -209 -54q-43 0 -87 17.5t-78.5 46t-56 65.5t-21.5 78 q0 139 41 252q-37 0 -68 -2t-67.5 -6t-85.5 -14.5t-123 -24.5q-6 -23 -8.5 -72t-11.5 -103t-31.5 -105.5t-69.5 -77.5q-57 -33 -117 -33q-37 0 -54.5 34.5t-17.5 71.5q0 57 12.5 108.5t30.5 123.5q-55 0 -87.5 21.5t-32.5 66.5zM940 295q0 -35 25.5 -58.5t89.5 -23.5 q33 0 69.5 23.5t67.5 57.5t51.5 74t20.5 72q0 72 -21.5 103.5t-68.5 31.5q-37 0 -93.5 -26.5t-83.5 -56.5q-20 -57 -38.5 -112.5t-18.5 -84.5z" />
<glyph unicode="&#x45b;" horiz-adv-x="1175" d="M25 139l297 1008q-39 -4 -65 -7t-36 -1q-45 0 -60.5 12t-15.5 59q0 55 72 105.5t180 83.5q29 106 43 139q59 139 158 139q61 0 84 -18.5t23 -52.5q0 -25 -8.5 -65t-22.5 -101q72 0 124 5t117 5q133 0 181 -35q33 -25 32 -84q-12 -121 -188 -121q-55 0 -141 -5t-201 -15 q-10 -31 -40 -117t-65.5 -191.5t-71.5 -214t-56 -184.5l90 97q70 76 131 168t125 174q176 219 270 219q59 0 75.5 -50.5t16.5 -150.5q0 -29 -4 -89t-10 -126t-10.5 -125t-4.5 -88q0 -8 13.5 -45t29 -79t28.5 -79t13 -45q0 -100 -61 -178t-160 -78q-51 0 -89 42t-38 95 q0 18 1 72.5t3 117t3 117t1 72.5l3 152q-6 -6 -44 -52t-85.5 -102.5t-91.5 -109t-60 -70.5q-170 -188 -270 -260q-72 -49 -125 -49q-45 0 -64.5 30.5t-25.5 75.5z" />
<glyph unicode="&#x45c;" horiz-adv-x="1067" d="M53 131q0 57 12.5 142t32 174.5t42 172t40.5 138.5q12 37 31.5 88t41 97t44 78t41.5 34q23 2 51.5 -6.5t54 -22.5t43 -34.5t15.5 -43.5q-2 -18 -16.5 -72.5t-36 -129t-49 -164.5t-58.5 -179q51 68 102.5 131.5t102.5 120.5q135 156 233 246q123 111 183 111q49 0 59 -29 t10 -104q0 -102 -65 -146q-68 -45 -112 -70.5t-87 -68.5l-14 -14t-37 -39q12 -45 39.5 -88t70.5 -76q37 -27 86.5 -56.5t95.5 -57t77.5 -51.5t31.5 -40q4 -18 -13.5 -47t-46 -55.5t-62 -46t-64.5 -19.5q-47 0 -103.5 29.5t-113 77t-106.5 105.5t-83 118q-98 -113 -190 -193 q-133 -115 -205 -114q-39 0 -58.5 32.5t-19.5 71.5zM621 1241q0 37 37.5 78t97 81t131 75.5t138.5 63.5t122 44t80 16q123 0 123 -53q0 -39 -10.5 -80t-31 -74.5t-50 -56t-66.5 -22.5t-90 -15.5t-118.5 -39t-136.5 -53t-140 -56.5q-10 0 -24.5 11t-29 25.5t-23.5 31t-9 24.5 z" />
<glyph unicode="&#x45e;" horiz-adv-x="1001" d="M-180 -498q0 10 15 31t38 42.5t48.5 38.5t47.5 19q6 0 39 -47t77 -104t92 -105.5t85 -48.5q92 0 166 140q25 45 50.5 120.5t50 162.5t47 176t40.5 161q10 41 19.5 77t21 75t26 85t34.5 107q-14 -14 -59.5 -59t-120.5 -123q-129 -131 -197 -184q-113 -84 -188 -84 q-57 0 -88 55t-31 123q0 35 10 110.5t29.5 168.5t47 192.5t64.5 181.5t82 135t96 53q39 0 65 -31.5t26 -70.5q0 6 -12.5 -33t-31 -100t-40 -135t-40 -135.5t-30.5 -100.5t-12 -30q0 -37 8 -60.5t39 -23.5t76 38.5t95 100t102 135.5t96.5 142.5t76 124t41.5 77.5 q20 41 60.5 68.5t79.5 27.5q41 0 56 -15t15 -62q0 -154 -90 -515q-31 -121 -61.5 -227t-59.5 -194q-23 -72 -44 -145t-44 -144q-41 -127 -92 -229.5t-102 -176.5q-145 -207 -312 -207q-121 0 -258 129q-150 141 -149 293zM418 1421q0 51 30.5 82t102.5 31q88 0 122 -42 t58 -95q18 -33 55 -33q180 0 328 100q23 14 41 15q45 -1 45 -58q0 -59 -60.5 -111.5t-142.5 -92t-165.5 -63.5t-131.5 -24q-143 0 -219 99q-63 82 -63 192z" />
<glyph unicode="&#x45f;" horiz-adv-x="1161" d="M37 86q0 70 61 274q23 76 37.5 123t18.5 64q72 233 141 348q90 145 192 145q27 0 49.5 -24.5t22.5 -42.5q-8 -74 -37.5 -142.5t-62.5 -138t-62.5 -139.5t-38.5 -145v-31q0 -41 39 -41q29 0 75 36t99.5 86t106.5 105t92 94q66 190 154 277q63 63 137 63q39 0 57.5 -26.5 t18.5 -69.5q0 -4 -18.5 -63.5t-41 -136t-41 -151.5t-18.5 -112q0 -82 49 -157q25 -39 52.5 -75t54.5 -71q0 -20 -17.5 -48t-44.5 -52.5t-55.5 -42t-52.5 -17.5q-72 0 -120 41t-78 100.5t-45.5 128t-19.5 124.5q-84 -90 -127 -134.5t-45 -46.5q-51 -49 -99 -85.5t-93 -63.5 q-113 -63 -225 -64q-51 0 -83 34t-32 77zM422 -524q0 25 22.5 80t48 114.5t48 113.5t22.5 79q0 6 -15.5 22.5t-34.5 36t-34.5 40t-15.5 32.5q0 14 21.5 44t49 60.5t56 54t43.5 23.5q68 0 115 -72t47 -176q0 -172 -131 -346q-115 -154 -179 -153q-16 0 -39.5 17t-23.5 30z " />
<glyph unicode="&#x490;" horiz-adv-x="888" d="M27 129q0 98 39 240q4 10 22 69.5t44 136t51.5 152.5t43.5 121q27 66 55.5 130t57.5 130q-18 6 -45 14t-51.5 19.5t-42 27t-17.5 37.5q0 53 31 91t83 62.5t119.5 39t141.5 20.5q33 0 89.5 4t113.5 9.5t102 9.5t54 4q14 31 14 57q0 27 -12.5 51.5t-26.5 45t-26.5 38 t-12.5 29.5q0 14 21.5 44t49 60.5t56.5 54t43 23.5q66 0 113 -72.5t47 -174.5q0 -199 -58 -299q-47 -82 -133 -117q-43 -16 -82 -17q-25 0 -61.5 3.5t-38.5 3.5q-57 0 -120.5 -11.5t-112.5 -23.5q-27 -63 -47.5 -120.5t-36.5 -109.5q-23 -68 -43.5 -140.5t-38 -142 t-30.5 -132t-22 -107.5q-23 -131 -22 -217q0 -82 -45 -136t-127 -54q-49 0 -94 45t-45 102z" />
<glyph unicode="&#x491;" horiz-adv-x="927" d="M23 160q61 180 111 328.5t50 254.5q0 20 -4 53t-4 50q0 14 2 30.5t6 26.5q20 68 61.5 121t84.5 53q84 -31 177 -56.5t163 -25.5q109 0 184 37q41 18 57.5 71.5t16.5 106.5q0 -4 -11.5 15.5t-25.5 45t-25.5 52.5t-11.5 37q0 14 21.5 44t49 60.5t56.5 54t43 23.5 q66 0 113 -72.5t47 -175.5q0 -84 -9 -141t-38 -139q-47 -137 -142.5 -200.5t-238.5 -63.5q-94 0 -168 15t-127 28q-43 -156 -64.5 -289t-39 -232.5t-36 -163t-55.5 -79.5q-37 -18 -127 -19q-57 0 -86.5 46t-29.5 104z" />
<glyph unicode="&#x2000;" horiz-adv-x="960" />
<glyph unicode="&#x2001;" horiz-adv-x="1921" />
<glyph unicode="&#x2002;" horiz-adv-x="960" />
<glyph unicode="&#x2003;" horiz-adv-x="1921" />
<glyph unicode="&#x2004;" horiz-adv-x="640" />
<glyph unicode="&#x2005;" horiz-adv-x="480" />
<glyph unicode="&#x2006;" horiz-adv-x="320" />
<glyph unicode="&#x2007;" horiz-adv-x="320" />
<glyph unicode="&#x2008;" horiz-adv-x="240" />
<glyph unicode="&#x2009;" horiz-adv-x="384" />
<glyph unicode="&#x200a;" horiz-adv-x="106" />
<glyph unicode="&#x2010;" horiz-adv-x="1564" d="M180 479q0 86 232 158q63 20 173.5 41.5t231.5 40t231.5 30t174.5 11.5q111 0 142.5 -34t31.5 -136q0 -63 -52.5 -113.5t-121.5 -50.5q-45 10 -90.5 28.5t-108.5 28.5l-711 -90q-57 0 -95 21.5t-38 64.5z" />
<glyph unicode="&#x2011;" horiz-adv-x="1564" d="M180 479q0 86 232 158q63 20 173.5 41.5t231.5 40t231.5 30t174.5 11.5q111 0 142.5 -34t31.5 -136q0 -63 -52.5 -113.5t-121.5 -50.5q-45 10 -90.5 28.5t-108.5 28.5l-711 -90q-57 0 -95 21.5t-38 64.5z" />
<glyph unicode="&#x2012;" horiz-adv-x="1564" d="M180 479q0 86 232 158q63 20 173.5 41.5t231.5 40t231.5 30t174.5 11.5q111 0 142.5 -34t31.5 -136q0 -63 -52.5 -113.5t-121.5 -50.5q-45 10 -90.5 28.5t-108.5 28.5l-711 -90q-57 0 -95 21.5t-38 64.5z" />
<glyph unicode="&#x2013;" horiz-adv-x="1564" d="M180 479q0 86 232 158q63 20 173.5 41.5t231.5 40t231.5 30t174.5 11.5q111 0 142.5 -34t31.5 -136q0 -63 -52.5 -113.5t-121.5 -50.5q-45 10 -90.5 28.5t-108.5 28.5l-711 -90q-57 0 -95 21.5t-38 64.5z" />
<glyph unicode="&#x2014;" horiz-adv-x="1900" d="M180 479q0 55 100.5 94t249 66t318.5 44t311 30q311 25 445 24q109 0 162 -45t53 -125q0 -61 -58.5 -109t-122.5 -48q-12 0 -41.5 8t-65.5 18t-71 18.5t-55 8.5q-92 0 -202.5 -4t-239.5 -13q-70 -4 -180.5 -12t-266.5 -22q-49 -4 -100 -11.5t-103 -7.5q-57 0 -95 21.5 t-38 64.5z" />
<glyph unicode="&#x2018;" horiz-adv-x="708" />
<glyph unicode="&#x2019;" horiz-adv-x="708" />
<glyph unicode="&#x201a;" horiz-adv-x="708" d="M145 -377q0 25 22.5 79t48.5 114.5t48.5 115t22.5 78.5q0 6 -15.5 22.5t-35 36t-35 40t-15.5 32.5q0 14 21.5 44t49.5 60.5t56.5 54.5t42.5 24q68 0 115 -72t47 -176q0 -172 -131 -346q-113 -154 -178 -154q-16 0 -40 17.5t-24 29.5z" />
<glyph unicode="&#x201c;" horiz-adv-x="1034" d="M391 1231q0 172 129 348q115 154 180 154q14 0 38 -17.5t24 -29.5q0 -25 -22.5 -80.5t-48 -114.5t-48 -113.5t-22.5 -79.5q0 -6 15 -22t34.5 -35.5t35 -40t15.5 -33.5q0 -14 -21.5 -43.5t-49 -60.5t-56.5 -54.5t-43 -23.5q-66 0 -113 73t-47 173zM793 1245q0 174 131 348 q113 154 178 154q16 0 39.5 -17.5t23.5 -29.5q0 -25 -22.5 -79t-48 -114.5t-48 -115t-22.5 -78.5q0 -6 15.5 -22.5t35 -36t34.5 -40t15 -32.5q0 -14 -21.5 -44t-49 -60.5t-56 -54.5t-43.5 -24q-68 0 -114.5 72t-46.5 174z" />
<glyph unicode="&#x201d;" horiz-adv-x="1034" d="M362 1018q0 25 23 79t48.5 114.5t48 114.5t22.5 79q0 6 -15.5 22.5t-35 36t-35 40t-15.5 32.5q0 14 21.5 44t49.5 60.5t56.5 54t42.5 23.5q66 0 113 -73t47 -175q0 -172 -129 -346q-113 -154 -180 -153q-14 0 -38 17.5t-24 29.5zM764 1032q0 25 22.5 79t48 114.5t48 115 t22.5 78.5q0 6 -15.5 22.5t-34.5 36t-34.5 40t-15.5 32.5q0 14 21.5 44t49 61t56.5 54.5t43 23.5q68 0 115 -72t47 -176q0 -172 -131 -346q-113 -154 -179 -154q-16 0 -39.5 17.5t-23.5 29.5z" />
<glyph unicode="&#x201e;" horiz-adv-x="1034" d="M145 -377q0 25 22.5 79t48.5 114.5t48.5 115t22.5 78.5q0 6 -15.5 22.5t-35 36t-35 40t-15.5 32.5q0 14 21.5 44t49.5 60.5t56.5 54.5t42.5 24q68 0 115 -72t47 -176q0 -172 -131 -346q-113 -154 -178 -154q-16 0 -40 17.5t-24 29.5zM549 -362q0 25 22.5 80t48 114 t48 113.5t22.5 79.5q0 6 -15.5 22t-34.5 35.5t-34.5 40t-15.5 33.5q0 14 21.5 43.5t49 60.5t56 54.5t43.5 23.5q66 0 113 -73t47 -175q0 -172 -129 -346q-115 -154 -181 -154q-14 0 -37.5 17.5t-23.5 30.5z" />
<glyph unicode="&#x2020;" horiz-adv-x="759" d="M23 -8q0 25 6 59.5t21.5 88t43 129t70.5 186.5q16 45 38.5 96t45 99t44 89t34.5 66q-106 14 -138 59t-32 125q0 51 28.5 80t77.5 29q51 0 98.5 -14.5t92.5 -26.5q4 8 13 38.5t19 47.5q10 16 32 61t47.5 91t49 82t37.5 36q59 0 76.5 -30.5t10.5 -74.5t-29.5 -93.5 t-42.5 -86.5q0 -2 -9.5 -15t-20.5 -31.5t-21.5 -39t-12.5 -32.5q-2 0 58.5 13t135 29.5t142.5 30t78 13.5q41 0 48 -21.5t7 -56.5q0 -23 -37 -45.5t-92 -44t-122.5 -40t-129 -33.5t-110 -25.5t-64.5 -12.5q-25 -49 -48.5 -98t-45.5 -98q-33 -74 -57.5 -135.5t-42.5 -112.5 q-29 -80 -36 -186.5t-7 -190.5q0 -80 -39 -115t-107 -35q-63 0 -86.5 28t-23.5 93v25z" />
<glyph unicode="&#x2021;" horiz-adv-x="802" d="M14 713q0 57 28 80.5t69 25.5t88 -9t88 -22q14 35 29.5 73t39.5 85q-106 14 -138 59.5t-32 124.5q0 51 29 80t78 29q51 0 98 -14.5t92 -26.5l70 135q45 88 86 151.5t63 67.5q59 4 64.5 -37.5t-13 -98t-46 -114t-37.5 -83.5q-4 -20 -13 -45q86 0 186.5 20t203.5 43 q41 0 48 -21.5t7 -56.5q0 -37 -73 -71.5t-165 -63.5t-178 -48.5t-115 -23.5l-98 -196q8 -2 14.5 -2h8.5q10 0 39.5 7t48.5 7q70 0 128 10t126 23q41 0 48 -21.5t7 -56.5q0 -29 -43 -61.5t-115.5 -63.5t-166 -56.5t-193.5 -37.5q-23 -57 -32 -99.5t-15 -82t-11.5 -88 t-17.5 -119.5q-14 -72 -14 -88q0 -80 -39 -115t-107 -35q-63 0 -86.5 27.5t-23.5 93.5v25q0 37 18.5 107.5t45 148t53 147.5t40.5 104q-88 16 -130 54.5t-42 128.5z" />
<glyph unicode="&#x2022;" horiz-adv-x="1228" />
<glyph unicode="&#x2026;" horiz-adv-x="1943" d="M139 262q0 25 23.5 57.5t57.5 60.5t69 47t59 19q35 0 68 -33.5t59.5 -82.5t41.5 -101.5t15 -89.5q0 -20 -16 -42.5t-41.5 -42t-58.5 -32t-64 -12.5q-33 0 -69.5 29t-68.5 68.5t-53.5 82.5t-21.5 72zM772 254q0 27 23.5 58.5t57.5 59t68.5 47t59.5 19.5q33 0 65.5 -34.5 t59.5 -84t43 -101.5t16 -87q0 -18 -17.5 -40.5t-43 -42t-57 -33t-62.5 -13.5q-33 0 -69.5 28.5t-68.5 68.5t-53.5 83t-21.5 72zM1362 276q0 25 23.5 58t56.5 60.5t68.5 47t58.5 19.5q35 0 67.5 -34t59 -83t42 -101t15.5 -89q0 -20 -16.5 -43t-42 -42.5t-57 -31.5t-62.5 -12 q-33 0 -70 28.5t-68.5 68.5t-53 83t-21.5 71z" />
<glyph unicode="&#x202f;" horiz-adv-x="384" />
<glyph unicode="&#x2039;" horiz-adv-x="968" d="M221 575q0 41 61.5 101.5t139.5 119t149.5 105.5t94.5 60q84 49 141 49q29 0 43 -28t14 -71q0 -25 -39 -65.5t-92 -83.5t-106.5 -82t-79.5 -59q61 -96 100 -159t55 -91q45 -82 46 -119q0 -37 -15.5 -75t-40 -67.5t-57.5 -49t-66 -19.5q-41 0 -100 70.5t-114.5 163 t-94.5 179.5t-39 121z" />
<glyph unicode="&#x203a;" d="M186 819q0 25 18.5 58.5t46.5 63.5t60.5 51.5t63.5 21.5q27 0 96.5 -38t142 -88t129 -103.5t56.5 -84.5q0 -100 -64 -206q0 2 -31.5 -45.5t-75.5 -110t-89 -127t-70 -96.5q-68 -92 -139 -92q-63 0 -78 8q-29 16 -29 65q0 4 18.5 38t46 83t59.5 106.5t59.5 107.5t46 85 t18.5 39q0 10 -44 48t-97.5 81t-97.5 83t-46 52z" />
<glyph unicode="&#x205f;" horiz-adv-x="480" />
<glyph unicode="&#x2116;" horiz-adv-x="2203" d="M57 158q0 23 16.5 91t40 158.5t51.5 188.5t51.5 180t39.5 134l16 53q14 88 23.5 148t17.5 93q25 111 97 111q53 0 108 -43q8 12 20.5 31.5t26 38t26.5 31.5t23 13q55 0 105.5 -58t81.5 -175q23 -88 43 -177t43 -177q12 12 38.5 62t59.5 119t66.5 145.5t60.5 139t43 100.5 t12 30q86 178 140 178q57 0 98 -53q35 -47 35 -90v-240q0 -66 -51 -119q-47 -49 -79 -70.5t-60.5 -48t-59.5 -74t-78 -147.5q-96 -207 -145 -314.5t-54 -111.5q-119 -223 -198 -223q-45 0 -67.5 37t-32 97t-10.5 140t-1 166q0 154 -11 219.5t-34 102.5q-113 -354 -197 -574 q-88 -229 -192 -229q-18 0 -37.5 11t-36 28.5t-28 38t-11.5 39.5zM1343 324q0 59 55.5 82.5t141.5 23.5q43 0 80 -3t72 -3q47 0 92 -5t79.5 -18.5t56.5 -39t22 -66.5q0 -39 -22 -61.5t-58.5 -35t-83.5 -15.5t-97 -3q-139 0 -208 17q-129 33 -130 127zM1450 784 q0 172 133 385q160 252 371 252q37 0 73.5 -19.5t67.5 -50t50.5 -67.5t19.5 -72q0 -184 -127 -415q-158 -287 -379 -287q-82 0 -145.5 77t-63.5 197zM1723.5 855q9.5 -34 50.5 -34q33 0 68.5 51.5t43.5 96.5q0 18 -16.5 30.5t-40.5 18.5q-33 8 -60.5 -21.5t-41 -68.5t-4 -73 z" />
</font>
</defs>
</svg>
